<svg width="204" height="204" viewBox="0 0 204 204" fill="none" xmlns="http://www.w3.org/2000/svg">
<circle cx="102" cy="102" r="102" fill="#FFFAF7"/>
<mask id="mask0" mask-type="alpha" maskUnits="userSpaceOnUse" x="0" y="0" width="204" height="204">
<circle cx="102" cy="102" r="102" fill="#FCECE5"/>
</mask>
<g mask="url(#mask0)">
<g clip-path="url(#clip0)">
<path d="M95.6751 170.985L90.2754 175.051L92.591 203.96H144.105C144.105 203.96 137.848 169.979 132.094 166.18C129.207 164.266 116.604 161.069 105.489 158.494L99.3899 175.051L95.6751 170.985Z" fill="#D84248"/>
<path d="M78.8363 170.987L75.1018 175.052L69.0124 158.396C57.7695 160.991 44.891 164.248 41.9645 166.181C36.2101 169.98 29.9531 203.961 29.9531 203.961H82.0091L84.236 175.052L78.8363 170.987Z" fill="#D84248"/>
<path d="M87.251 161.8L97.5874 151.449V144.542C94.3479 146.096 90.8368 147.001 87.251 147.207C83.5362 146.989 79.9019 146.033 76.56 144.395L76.4023 151.301L87.251 161.8Z" fill="#FFBE9F"/>
<path d="M90.2758 175.05L95.6756 170.985L87.2508 161.799L78.8359 170.985L84.2356 175.05L82.0087 203.96H92.5914L90.2758 175.05Z" fill="white"/>
<path d="M78.8261 170.985L87.2509 161.799L76.4022 151.311L68.9727 158.306L69.0121 158.395L75.1015 175.05L78.8261 170.985Z" fill="#D84248"/>
<path d="M87.25 161.799L95.6649 170.985L99.3994 175.051L105.459 158.494L105.528 158.307L97.5863 151.449L87.25 161.799Z" fill="#D84248"/>
<path d="M124.458 140.211C120.938 136.036 118.648 130.963 117.846 125.559C114.587 131.16 110.286 136.084 105.174 140.063C122.911 160.171 99.627 204 99.627 204C99.627 204 115.521 204 134.114 204C138.509 189.318 138.942 157.32 124.458 140.211Z" fill="#3F1414"/>
<path opacity="0.77" d="M76.4023 144.434V145.322C76.4023 145.322 82.0977 150.679 87.2412 150.946C92.3847 151.212 97.5775 145.835 97.5775 145.835V144.463" fill="#F98D72"/>
<path d="M124.755 93.8269C124.755 93.9749 124.755 94.1228 124.755 94.2708C123.396 95.5535 121.957 98.4938 120.814 100.023C121.73 94.6852 122.785 89.1105 120.981 81.1776C120.804 80.5757 120.617 79.9738 120.41 79.3621C118.439 74.4287 113.719 73.2249 108.586 71.5969C101.688 69.3867 94.4559 71.0247 87.519 69.2782C83.1638 68.183 79.7446 64.3448 75.3992 64.0291C55.436 62.6773 51.6523 84.3251 54.096 100.023C52.6464 98.1095 51.3295 96.0985 50.1546 94.0044C45.7107 91.6956 40.7839 95.4746 41.6609 102.095C43.6316 117.3 51.2976 114.695 51.2976 114.695C64.3633 147.413 87.2333 147.256 87.2333 147.256C87.2333 147.256 110.103 147.423 123.179 114.695C123.179 114.695 130.796 117.3 132.816 102.095C133.683 95.6818 129.081 91.9423 124.755 93.8269Z" fill="#FFBE9F"/>
<path d="M75.4058 71.8452C79.7512 72.082 83.1704 75.1111 87.5256 75.9695C94.4231 77.341 101.665 76.0484 108.592 77.7751C113.696 79.0578 118.446 79.9951 120.417 83.8629C120.643 84.3016 120.828 84.7608 120.968 85.2344C120.968 85.2344 120.968 85.2344 120.968 85.2936C122.772 91.5097 121.717 95.8807 120.801 100.094C121.924 98.8901 123.363 96.5911 124.742 95.5847C124.742 95.4663 124.742 95.3479 124.742 95.2295C125.511 87.7603 128.191 82.4619 126.644 74.45C124.801 64.3069 119.884 58.0909 107.922 53.7889C108.514 43.4386 93.7727 37.2818 82.1653 39.117C75.2679 40.2023 71.3265 43.3992 67.454 47.6715C64.6754 50.7697 65.0104 51.0755 61.6602 53.3449C59.1081 55.0716 56.1521 56.0879 53.7774 58.1007C40.9679 68.8062 41.8547 83.6853 50.2006 95.3775C51.3973 97.0441 52.7146 98.6205 54.142 100.094C51.6589 87.7209 55.4426 70.7499 75.4058 71.8452Z" fill="#3F1414"/>
<path d="M74.5109 107.946C77.0034 107.946 79.0238 105.923 79.0238 103.427C79.0238 100.931 77.0034 98.9082 74.5109 98.9082C72.0185 98.9082 69.998 100.931 69.998 103.427C69.998 105.923 72.0185 107.946 74.5109 107.946Z" fill="#4D677A"/>
<path d="M101.165 107.946C103.658 107.946 105.678 105.923 105.678 103.427C105.678 100.931 103.658 98.9082 101.165 98.9082C98.6728 98.9082 96.6523 100.931 96.6523 103.427C96.6523 105.923 98.6728 107.946 101.165 107.946Z" fill="#4D677A"/>
<path d="M100.525 121.119C100.431 124.539 99.0089 127.786 96.5605 130.172C94.1121 132.557 90.8308 133.892 87.4148 133.892C83.9987 133.892 80.7174 132.557 78.269 130.172C75.8206 127.786 74.3983 124.539 74.3047 121.119" fill="white"/>
<path d="M68.8438 94.3597C69.7798 93.2645 71.9575 92.485 74.4898 92.485C76.382 92.3913 78.2511 92.9331 79.8008 94.0242" stroke="#471C0E" stroke-width="5" stroke-linecap="round" stroke-linejoin="round"/>
<path d="M95.6855 94.3597C96.6216 93.2645 98.7993 92.485 101.332 92.485C103.224 92.3913 105.093 92.9331 106.643 94.0242" stroke="#471C0E" stroke-width="5" stroke-linecap="round" stroke-linejoin="round"/>
</g>
</g>
<defs>
<clipPath id="clip0">
<rect width="114.143" height="165.279" fill="white" transform="translate(29.9531 38.7207)"/>
</clipPath>
</defs>
</svg>
