<svg width="200" height="200" viewBox="0 0 200 200" fill="none" xmlns="http://www.w3.org/2000/svg">
<path d="M99.999 199.998C155.227 199.998 199.998 155.227 199.998 99.999C199.998 44.7711 155.227 0 99.999 0C44.7711 0 0 44.7711 0 99.999C0 155.227 44.7711 199.998 99.999 199.998Z" fill="#857EAA"/>
<path d="M99.9338 180.481C144.419 180.481 180.482 144.418 180.482 99.9328C180.482 55.4473 144.419 19.3848 99.9338 19.3848C55.4483 19.3848 19.3857 55.4473 19.3857 99.9328C19.3857 144.418 55.4483 180.481 99.9338 180.481Z" fill="white"/>
<path d="M100.335 166.578C137.141 166.578 166.979 136.74 166.979 99.9333C166.979 63.1267 137.141 33.2891 100.335 33.2891C63.5281 33.2891 33.6904 63.1267 33.6904 99.9333C33.6904 136.74 63.5281 166.578 100.335 166.578Z" fill="#857EAA"/>
<path d="M100.302 138.56C121.607 138.56 138.878 121.289 138.878 99.9842C138.878 78.6793 121.607 61.4082 100.302 61.4082C78.9967 61.4082 61.7256 78.6793 61.7256 99.9842C61.7256 121.289 78.9967 138.56 100.302 138.56Z" fill="#64638E"/>
<path opacity="0.14" d="M27.7566 154.522C27.7566 154.522 -24.0021 92.1129 33.6832 40.6426L104.64 98.0315L27.7566 154.522Z" fill="white"/>
<path d="M103.472 132.201C103.268 132.201 103.066 132.159 102.88 132.077L102.795 132.035C102.718 131.996 102.645 131.95 102.577 131.897L80.4041 115.457C80.1398 115.26 79.9484 114.981 79.86 114.664C79.7717 114.347 79.7914 114.009 79.9161 113.704L84.203 103.266C84.2801 103.078 84.3951 102.908 84.5408 102.766L89.3058 98.1333L89.3986 98.0503L95.5859 92.9811L98.5492 84.9803C98.6544 84.6979 98.843 84.4541 99.09 84.2816C99.337 84.109 99.6308 84.0158 99.9321 84.0142H106.072L117.396 81.6436C117.591 81.6022 117.792 81.6006 117.987 81.639C118.183 81.6774 118.369 81.7549 118.534 81.8669C118.698 81.9789 118.839 82.1231 118.946 82.2908C119.054 82.4585 119.127 82.6463 119.16 82.8427L120.345 89.6859C120.409 90.0588 120.328 90.4419 120.119 90.7569C119.909 91.072 119.588 91.2952 119.219 91.3809L112.562 92.9258L118.358 102.586C118.444 102.729 118.506 102.886 118.54 103.05L120.059 110.447C120.104 110.663 120.1 110.888 120.047 111.103L117.212 122.509C117.17 122.679 117.098 122.84 117.001 122.985L113.198 128.584C113.02 128.847 112.761 129.046 112.461 129.151L103.966 132.114H103.95C103.797 132.169 103.635 132.199 103.472 132.201ZM83.0908 113.762L102.822 128.392L110.059 110.705L108.771 92.0625C108.747 91.7946 108.798 91.5253 108.917 91.2841C108.943 91.2287 108.974 91.1752 109.008 91.1241C109.207 90.8215 109.511 90.6023 109.861 90.5078L109.922 90.4939L117.19 88.8068L116.511 84.8558L106.542 86.9459C106.442 86.9672 106.34 86.9778 106.238 86.9775H100.975L98.2253 94.3798C98.1336 94.626 97.9781 94.8435 97.7748 95.01L91.3247 100.306L86.8206 104.68L83.0908 113.762ZM112.151 97.9871L113.04 110.846C113.055 111.072 113.018 111.298 112.933 111.508L106.09 128.234L111.029 126.51L114.407 121.533L117.097 110.709L115.695 103.888L112.151 97.9871Z" fill="white"/>
<path d="M117.085 104.827C116.86 104.827 116.638 104.776 116.435 104.678C116.233 104.579 116.056 104.436 115.917 104.259C115.778 104.082 115.681 103.876 115.634 103.656C115.587 103.436 115.59 103.208 115.644 102.989L117.069 97.2229L115.228 90.8637C115.173 90.6767 115.157 90.481 115.178 90.2875C115.199 90.0941 115.259 89.9068 115.353 89.7363C115.446 89.5658 115.573 89.4154 115.725 89.2938C115.877 89.1722 116.051 89.0816 116.238 89.0274C116.425 88.9732 116.621 88.9563 116.814 88.9778C117.008 88.9992 117.195 89.0585 117.366 89.1524C117.536 89.2462 117.686 89.3727 117.808 89.5246C117.93 89.6766 118.02 89.851 118.074 90.0379L120.026 96.7804C120.1 97.0299 120.105 97.2945 120.042 97.5469L118.521 103.701C118.441 104.022 118.257 104.307 117.997 104.511C117.736 104.715 117.415 104.826 117.085 104.827Z" fill="white"/>
<path d="M90.3352 100.678C89.9941 100.677 89.6636 100.558 89.3995 100.343C89.1354 100.127 88.9537 99.8264 88.8852 99.4922L86.398 87.325C86.3363 87.042 86.3596 86.7471 86.4651 86.4775L90.6137 75.94L91.2064 70.8767C91.2297 70.6807 91.2919 70.4913 91.3894 70.3196C91.4869 70.1479 91.6176 69.9974 91.774 69.8769C91.9304 69.7563 92.1093 69.6683 92.3002 69.6178C92.491 69.5673 92.6901 69.5554 92.8856 69.5828L97.7928 70.2742C98.1605 70.3257 98.4954 70.5135 98.7311 70.8004C98.9667 71.0873 99.086 71.4523 99.065 71.823L99.0038 72.9392L100.782 68.8044C100.919 68.4837 101.166 68.2219 101.478 68.0653C101.79 67.9088 102.147 67.8676 102.487 67.949L107.672 69.1936C108.047 69.284 108.372 69.5166 108.578 69.8422C108.784 70.1678 108.855 70.5607 108.777 70.938L107.732 75.944L110.981 77.0443C111.311 77.1547 111.591 77.3779 111.772 77.6745L115.11 83.1191C115.217 83.285 115.289 83.4706 115.323 83.665C115.357 83.8593 115.352 84.0585 115.308 84.2508C115.264 84.4431 115.182 84.6247 115.067 84.7849C114.952 84.9451 114.806 85.0807 114.637 85.1837C114.469 85.2867 114.282 85.3551 114.087 85.3848C113.892 85.4145 113.693 85.4049 113.502 85.3567C113.31 85.3085 113.13 85.2225 112.973 85.1039C112.815 84.9853 112.683 84.8364 112.584 84.6659L109.535 79.6816L105.549 78.3343C105.206 78.218 104.917 77.9801 104.738 77.6656C104.559 77.3511 104.501 76.9819 104.575 76.6275L105.594 71.744L103.026 71.1257L100.527 76.9159C100.433 77.1328 100.289 77.3242 100.106 77.474C99.923 77.6238 99.707 77.7278 99.4759 77.7772L97.6288 78.1723C97.4068 78.218 97.1773 78.2121 96.958 78.1552C96.7386 78.0982 96.5353 77.9917 96.3635 77.8438C96.1918 77.6959 96.0563 77.5106 95.9674 77.3022C95.8785 77.0937 95.8386 76.8676 95.8508 76.6413L96.0484 73.0222L93.9879 72.7318L93.5434 76.4853C93.5284 76.6119 93.4972 76.736 93.4506 76.8547L89.3948 87.161L91.7951 98.8976C91.8738 99.2824 91.7965 99.6827 91.5802 100.011C91.3638 100.338 91.0262 100.567 90.6414 100.646C90.5406 100.666 90.438 100.677 90.3352 100.678Z" fill="white"/>
<path d="M81.9027 90.3083C81.6799 90.3083 81.46 90.2581 81.2593 90.1613C81.0586 90.0646 80.8823 89.9239 80.7435 89.7496C80.6047 89.5753 80.507 89.372 80.4577 89.1547C80.4083 88.9375 80.4086 88.7119 80.4585 88.4947L82.8094 78.2635C82.8685 78.0066 82.995 77.7702 83.1759 77.5785C83.3568 77.3868 83.5856 77.2468 83.8387 77.173L91.6499 74.8913C92.0271 74.7813 92.4326 74.8256 92.7772 75.0146C93.1217 75.2035 93.3771 75.5216 93.4871 75.8988C93.5972 76.276 93.5528 76.6816 93.3639 77.0261C93.1749 77.3706 92.8569 77.626 92.4796 77.7361L85.5021 79.7748L83.9216 86.6694L87.4223 85.6105C87.7985 85.4965 88.2045 85.5367 88.5511 85.7221C88.8977 85.9075 89.1564 86.223 89.2704 86.5992C89.3843 86.9754 89.3442 87.3815 89.1587 87.7281C88.9733 88.0746 88.6578 88.3334 88.2816 88.4473L82.3353 90.2451C82.1951 90.288 82.0492 90.3093 81.9027 90.3083Z" fill="white"/>
<path d="M81.2793 115.747C80.9381 115.746 80.6077 115.628 80.3436 115.412C80.0795 115.196 79.8978 114.896 79.8292 114.562L75.89 95.342C75.848 95.1393 75.8492 94.9301 75.8935 94.7279C75.9377 94.5257 76.024 94.3351 76.1469 94.1685L80.7083 87.9476C80.8234 87.7906 80.9682 87.6579 81.1346 87.5569C81.3009 87.4559 81.4856 87.3887 81.6779 87.3591C81.8703 87.3294 82.0666 87.338 82.2556 87.3842C82.4446 87.4305 82.6227 87.5135 82.7797 87.6285C82.9366 87.7436 83.0694 87.8885 83.1703 88.0548C83.2713 88.2212 83.3385 88.4058 83.3682 88.5981C83.3978 88.7905 83.3892 88.9868 83.343 89.1758C83.2968 89.3648 83.2138 89.5429 83.0987 89.6999L78.9244 95.3914L82.7332 113.961C82.812 114.346 82.7347 114.747 82.5184 115.075C82.3021 115.403 81.9645 115.632 81.5795 115.712C81.4808 115.733 81.3803 115.745 81.2793 115.747Z" fill="white"/>
</svg>
