<svg width="16" height="16" viewBox="0 0 16 16" fill="none" xmlns="http://www.w3.org/2000/svg">
<path d="M12.7566 0H3.2451C2.38487 0.001376 1.56026 0.343711 0.951986 0.951986C0.343711 1.56026 0.001376 2.38487 0 3.2451V12.7566C0.00137709 13.6167 0.343767 14.4411 0.952092 15.0491C1.56042 15.6571 2.38502 15.9991 3.2451 16H12.7566C13.6166 15.9991 14.441 15.6571 15.049 15.049C15.6571 14.441 15.9991 13.6166 16 12.7566V3.2451C15.9991 2.38502 15.6571 1.56042 15.0491 0.952092C14.4411 0.343767 13.6167 0.00137709 12.7566 0ZM3.2451 1.38753H12.7566C13.2489 1.38845 13.7206 1.58451 14.0685 1.93272C14.4164 2.28093 14.612 2.75288 14.6125 3.2451V3.91285H1.38753V3.2451C1.38845 2.75272 1.58445 2.28078 1.93261 1.93261C2.28078 1.58445 2.75272 1.38845 3.2451 1.38753ZM12.7566 14.6125H3.2451C2.75288 14.612 2.28093 14.4164 1.93272 14.0685C1.58451 13.7206 1.38845 13.2489 1.38753 12.7566V4.60488H14.6125V12.7566C14.612 13.2487 14.4163 13.7205 14.0684 14.0684C13.7205 14.4163 13.2487 14.612 12.7566 14.6125Z" fill="#BE5713"/>
<path d="M11.7317 8.58836C12.2738 8.58836 12.7134 8.14885 12.7134 7.60668C12.7134 7.06451 12.2738 6.625 11.7317 6.625C11.1895 6.625 10.75 7.06451 10.75 7.60668C10.75 8.14885 11.1895 8.58836 11.7317 8.58836Z" fill="#BE5713"/>
<path d="M8.04027 8.58836C8.58244 8.58836 9.02195 8.14885 9.02195 7.60668C9.02195 7.06451 8.58244 6.625 8.04027 6.625C7.49811 6.625 7.05859 7.06451 7.05859 7.60668C7.05859 8.14885 7.49811 8.58836 8.04027 8.58836Z" fill="#BE5713"/>
<path d="M8.03846 12.573C8.62278 12.573 9.09646 12.0993 9.09646 11.515C9.09646 10.9307 8.62278 10.457 8.03846 10.457C7.45415 10.457 6.98047 10.9307 6.98047 11.515C6.98047 12.0993 7.45415 12.573 8.03846 12.573Z" fill="#BE5713"/>
<path d="M4.34315 12.573C4.92746 12.573 5.40114 12.0993 5.40114 11.515C5.40114 10.9307 4.92746 10.457 4.34315 10.457C3.75884 10.457 3.28516 10.9307 3.28516 11.515C3.28516 12.0993 3.75884 12.573 4.34315 12.573Z" fill="#BE5713"/>
<path d="M4.34496 8.58836C4.88713 8.58836 5.32664 8.14885 5.32664 7.60668C5.32664 7.06451 4.88713 6.625 4.34496 6.625C3.80279 6.625 3.36328 7.06451 3.36328 7.60668C3.36328 8.14885 3.80279 8.58836 4.34496 8.58836Z" fill="#BE5713"/>
</svg>
