<svg width="38" height="38" viewBox="0 0 38 38" fill="none" xmlns="http://www.w3.org/2000/svg">
<path d="M36.993 6.99884V26.1951C36.993 26.5133 36.8666 26.8185 36.6416 27.0435C36.4166 27.2685 36.1115 27.3949 35.7933 27.3949C35.4751 27.3949 35.1699 27.2685 34.9449 27.0435C34.7199 26.8185 34.5935 26.5133 34.5935 26.1951V6.99884C34.5935 6.04425 34.2143 5.12875 33.5393 4.45375C32.8643 3.77875 31.9488 3.39954 30.9942 3.39954H6.99884C6.04425 3.39954 5.12875 3.77875 4.45375 4.45375C3.77875 5.12875 3.39954 6.04425 3.39954 6.99884V30.9942C3.39954 31.9488 3.77875 32.8643 4.45375 33.5393C5.12875 34.2143 6.04425 34.5935 6.99884 34.5935H26.1951C26.5133 34.5935 26.8185 34.7199 27.0435 34.9449C27.2685 35.1699 27.3949 35.4751 27.3949 35.7933C27.3949 36.1115 27.2685 36.4166 27.0435 36.6416C26.8185 36.8666 26.5133 36.993 26.1951 36.993H6.99884C6.21106 36.993 5.431 36.8379 4.70318 36.5364C3.97537 36.2349 3.31406 35.7931 2.75702 35.236C1.63202 34.111 1 32.5852 1 30.9942V6.99884C1 5.40785 1.63202 3.88202 2.75702 2.75702C3.88202 1.63202 5.40785 1 6.99884 1H30.9942C31.782 1 32.562 1.15516 33.2899 1.45663C34.0177 1.7581 34.679 2.19998 35.236 2.75702C35.7931 3.31406 36.2349 3.97537 36.5364 4.70318C36.8379 5.431 36.993 6.21106 36.993 6.99884ZM30.9942 18.9965C30.9942 18.6783 30.8678 18.3732 30.6428 18.1482C30.4178 17.9232 30.1126 17.7968 29.7944 17.7968H8.19861C7.88041 17.7968 7.57524 17.9232 7.35024 18.1482C7.12524 18.3732 6.99884 18.6783 6.99884 18.9965C6.99884 19.3147 7.12524 19.6199 7.35024 19.8449C7.57524 20.0699 7.88041 20.1963 8.19861 20.1963H29.7944C30.1126 20.1963 30.4178 20.0699 30.6428 19.8449C30.8678 19.6199 30.9942 19.3147 30.9942 18.9965ZM8.19861 26.1951C7.88041 26.1951 7.57524 26.3215 7.35024 26.5465C7.12524 26.7715 6.99884 27.0767 6.99884 27.3949C6.99884 27.7131 7.12524 28.0183 7.35024 28.2433C7.57524 28.4683 7.88041 28.5947 8.19861 28.5947H18.9965C19.3147 28.5947 19.6199 28.4683 19.8449 28.2433C20.0699 28.0183 20.1963 27.7131 20.1963 27.3949C20.1963 27.0767 20.0699 26.7715 19.8449 26.5465C19.6199 26.3215 19.3147 26.1951 18.9965 26.1951H8.19861ZM8.19861 11.7979H29.7944C30.1126 11.7979 30.4178 11.6715 30.6428 11.4465C30.8678 11.2215 30.9942 10.9163 30.9942 10.5981C30.9942 10.2799 30.8678 9.97478 30.6428 9.74978C30.4178 9.52478 30.1126 9.39838 29.7944 9.39838H8.19861C7.88041 9.39838 7.57524 9.52478 7.35024 9.74978C7.12524 9.97478 6.99884 10.2799 6.99884 10.5981C6.99884 10.9163 7.12524 11.2215 7.35024 11.4465C7.57524 11.6715 7.88041 11.7979 8.19861 11.7979ZM36.6451 29.8544C36.5336 29.742 36.4009 29.6527 36.2547 29.5918C36.1085 29.5309 35.9517 29.4995 35.7933 29.4995C35.6349 29.4995 35.4781 29.5309 35.3319 29.5918C35.1857 29.6527 35.053 29.742 34.9414 29.8544L33.2498 31.5461L31.5461 29.8544C31.3166 29.6579 31.0213 29.5552 30.7194 29.5668C30.4174 29.5785 30.131 29.7037 29.9173 29.9173C29.7037 30.131 29.5785 30.4174 29.5668 30.7194C29.5552 31.0213 29.6579 31.3166 29.8544 31.5461L31.5461 33.2498L29.8544 34.9414C29.742 35.053 29.6527 35.1857 29.5918 35.3319C29.5309 35.4781 29.4995 35.6349 29.4995 35.7933C29.4995 35.9517 29.5309 36.1085 29.5918 36.2547C29.6527 36.4009 29.742 36.5336 29.8544 36.6451C29.9665 36.7563 30.0995 36.8443 30.2457 36.904C30.3918 36.9637 30.5484 36.994 30.7063 36.993C31.021 36.9917 31.3226 36.8668 31.5461 36.6451L33.2498 34.9414L34.9414 36.6451C35.053 36.7576 35.1857 36.8468 35.3319 36.9077C35.4781 36.9686 35.6349 37 35.7933 37C35.9517 37 36.1085 36.9686 36.2547 36.9077C36.4009 36.8468 36.5336 36.7576 36.6451 36.6451C36.7576 36.5336 36.8468 36.4009 36.9077 36.2547C36.9686 36.1085 37 35.9517 37 35.7933C37 35.6349 36.9686 35.4781 36.9077 35.3319C36.8468 35.1857 36.7576 35.053 36.6451 34.9414L34.9414 33.2498L36.6451 31.5461C36.8686 31.3213 36.994 31.0172 36.994 30.7003C36.994 30.3833 36.8686 30.0792 36.6451 29.8544Z" fill="white" stroke="white" stroke-width="0.5"/>
</svg>
