<svg width="25" height="24" viewBox="0 0 25 24" fill="none" xmlns="http://www.w3.org/2000/svg">
<path d="M24.9971 10.747C24.9971 15.285 22.7921 18.094 19.2021 18.094C17.3431 18.094 16.0161 17.287 15.6271 15.919H15.3531C14.7621 17.374 13.6381 18.109 11.9801 18.109C8.98207 18.109 6.99307 15.689 6.99307 12.03C6.99307 8.529 8.91007 6.167 11.7641 6.167C13.3211 6.167 14.5461 6.916 15.1231 8.213H15.3971V6.513H18.7121V13.831C18.7121 14.854 19.1731 15.459 19.9521 15.459C21.2201 15.459 22.0281 13.774 22.0281 11.094C22.0281 5.879 18.6121 2.537 13.2931 2.537C7.74307 2.537 3.96707 6.427 3.96707 12.088C3.96707 17.821 7.77207 21.409 13.8841 21.409C15.2101 21.409 16.5791 21.236 17.3291 21.006V23.57C16.2911 23.842 14.9361 24 13.5661 24C6.02807 24 0.99707 19.203 0.99707 12.014C0.99707 4.912 6.04207 0 13.3361 0C20.2841 0 24.9971 4.351 24.9971 10.747ZM10.7841 12.13C10.7841 14.003 11.5621 15.126 12.8741 15.126C14.2001 15.126 15.0071 13.988 15.0071 12.13C15.0071 10.272 14.1851 9.134 12.8741 9.134C11.5631 9.134 10.7841 10.257 10.7841 12.13Z" fill="#BE5713"/>
</svg>
