<svg width="16" height="13" viewBox="0 0 16 13" fill="none" xmlns="http://www.w3.org/2000/svg">
<path d="M10.9275 6.40268L8.98344 6.40225V3.20844C8.98344 2.94842 8.76335 2.73828 8.49269 2.73828C8.22204 2.73828 8.00195 2.94857 8.00195 3.20844V6.87256C8.00195 7.13243 8.22204 7.34272 8.49269 7.34272H8.49345H10.9273C11.1982 7.34272 11.4179 7.13243 11.4179 6.8727C11.4178 6.6134 11.198 6.40268 10.9275 6.40268Z" fill="#BE5713" stroke="#BE5713" stroke-width="0.3"/>
<path fill-rule="evenodd" clip-rule="evenodd" d="M7.90234 3.20883C7.90234 2.88966 8.17137 2.63867 8.49309 2.63867C8.81478 2.63867 9.08383 2.88949 9.08383 3.20883V6.30266L10.9279 6.30307C10.9279 6.30307 10.9279 6.30307 10.9279 6.30307C11.2496 6.30308 11.5181 6.55463 11.5183 6.87303C11.5183 7.19202 11.2496 7.44311 10.9277 7.44311H8.49384C8.17212 7.44311 7.90234 7.19212 7.90234 6.87295V3.20883ZM8.49309 2.83867C8.2735 2.83867 8.10234 3.00826 8.10234 3.20883V6.87295C8.10234 7.07352 8.2735 7.24311 8.49309 7.24311H10.9277C11.1474 7.24311 11.3183 7.07359 11.3183 6.87315C11.3182 6.67296 11.1472 6.50307 10.9279 6.50307L8.88383 6.50262V3.20883C8.88383 3.00813 8.71269 2.83867 8.49309 2.83867Z" fill="#BE5713"/>
<path d="M10.9279 6.30307L9.08383 6.30266V3.20883C9.08383 2.88949 8.81478 2.63867 8.49309 2.63867C8.17137 2.63867 7.90234 2.88966 7.90234 3.20883V6.87295C7.90234 7.19212 8.17212 7.44311 8.49384 7.44311H10.9277C11.2496 7.44311 11.5183 7.19202 11.5183 6.87303C11.5181 6.55463 11.2496 6.30308 10.9279 6.30307ZM10.9279 6.30307C10.9279 6.30307 10.9279 6.30307 10.9279 6.30307ZM8.10234 3.20883C8.10234 3.00826 8.2735 2.83867 8.49309 2.83867C8.71269 2.83867 8.88383 3.00813 8.88383 3.20883V6.50262L10.9279 6.50307C11.1472 6.50307 11.3182 6.67296 11.3183 6.87315C11.3183 7.07359 11.1474 7.24311 10.9277 7.24311H8.49309C8.2735 7.24311 8.10234 7.07352 8.10234 6.87295V3.20883Z" stroke="#BE5713" stroke-width="0.3"/>
<path d="M13.1683 2.2548C10.7261 -0.084933 6.75219 -0.084933 4.30928 2.2548C3.23148 3.28768 2.59206 4.63966 2.48944 6.0878L1.85122 5.42935C1.66654 5.23933 1.35553 5.22797 1.15704 5.40463C0.958105 5.58156 0.946703 5.87953 1.13124 6.07012L2.55275 7.53652C2.64952 7.63627 2.78095 7.68686 2.91282 7.68686C3.03239 7.68686 3.15227 7.64532 3.24693 7.56124L4.77797 6.1992C4.97691 6.02226 4.98831 5.72429 4.80377 5.53399C4.61924 5.34354 4.30823 5.33204 4.10944 5.50926L3.48173 6.06754C3.58675 4.87898 4.11665 3.77092 5.00406 2.9203C7.0635 0.947521 10.4142 0.947521 12.4735 2.9203C14.5326 4.89321 14.5326 8.1037 12.4735 10.0766C11.4761 11.0323 10.1497 11.5587 8.73871 11.5587C7.32845 11.5587 6.00205 11.0325 5.00406 10.0766C4.81203 9.89278 4.50087 9.89278 4.30913 10.0766C4.1174 10.2605 4.1174 10.5587 4.30928 10.7423C5.493 11.8759 7.06605 12.5 8.73871 12.5C10.412 12.5 11.985 11.8758 13.1681 10.7423C15.6106 8.40238 15.6106 4.59467 13.1683 2.2548Z" fill="#BE5713" stroke="#BE5713" stroke-width="0.3"/>
</svg>
