<svg width="16" height="13" viewBox="0 0 16 13" fill="none" xmlns="http://www.w3.org/2000/svg">
<path d="M3.68335 7.98388C3.50835 7.98388 3.33335 8.1471 3.33335 8.36473V9.5617C2.69168 8.63677 2.34168 7.60302 2.34168 6.51487C2.34168 5.10027 2.92502 3.74007 4.03336 2.76074C5.72504 1.1285 8.35006 0.747649 10.5667 1.7814C10.7417 1.89021 10.9751 1.7814 11.0917 1.61817C11.2084 1.45495 11.0917 1.23732 10.9167 1.1285C8.35006 -0.0140592 5.37504 0.421202 3.45002 2.27107C2.22501 3.41363 1.58334 4.88264 1.58334 6.51487C1.58334 7.82066 2.05001 9.12644 2.92502 10.1602H1.40834C1.175 10.1602 1 10.3234 1 10.541C1 10.7043 1.175 10.8675 1.40834 10.8675H3.74169C3.97502 10.8675 4.15003 10.7043 4.15003 10.541V8.36473C4.09169 8.1471 3.91669 7.98388 3.68335 7.98388Z" fill="#BE5713"/>
<path fill-rule="evenodd" clip-rule="evenodd" d="M3.3465 2.16168C5.31952 0.266363 8.36052 -0.173874 10.9774 0.991011L10.9868 0.995211L10.9956 1.00066C11.1061 1.06941 11.2019 1.17412 11.2519 1.29529C11.3031 1.41951 11.3086 1.57171 11.2134 1.70494C11.1382 1.8102 11.0262 1.89774 10.9014 1.94253C10.7778 1.98686 10.6294 1.99259 10.4957 1.91349C8.33275 0.908333 5.77915 1.28389 4.13712 2.86822L4.13239 2.87279C3.05708 3.82294 2.49129 5.14171 2.49129 6.51441C2.49129 7.40359 2.73219 8.25701 3.18296 9.0437V8.36428C3.18296 8.06889 3.42012 7.83342 3.68296 7.83342C3.9961 7.83342 4.2219 8.0545 4.29452 8.32544L4.29963 8.34452V10.5406C4.29963 10.8102 4.03181 11.017 3.7413 11.017H1.40795C1.11744 11.017 0.849609 10.8102 0.849609 10.5406C0.849609 10.2304 1.10178 10.0097 1.40795 10.0097H2.61244C1.84192 8.9917 1.43295 7.75343 1.43295 6.51441C1.43295 4.84016 2.09218 3.33196 3.3465 2.16168ZM10.8452 1.26056C8.33132 0.146164 5.42806 0.577443 3.55356 2.37877L3.55195 2.38031C2.35678 3.49505 1.73295 4.92456 1.73295 6.51441C1.73295 7.78493 2.18718 9.05633 3.03912 10.0628L3.24811 10.3097H1.40795C1.24744 10.3097 1.14961 10.4155 1.14961 10.5406C1.14961 10.5974 1.23178 10.717 1.40795 10.717H3.7413C3.91746 10.717 3.99963 10.5974 3.99963 10.5406V8.38544C3.95164 8.23127 3.83093 8.13342 3.68296 8.13342C3.59581 8.13342 3.48296 8.2244 3.48296 8.36428V10.0406L3.20972 9.64675C2.55238 8.69924 2.19129 7.63608 2.19129 6.51441C2.19129 5.05897 2.7914 3.65843 3.93118 2.65005C5.67073 0.97363 8.36187 0.587374 10.6297 1.645L10.6379 1.6488L10.6456 1.65356C10.6847 1.67788 10.7367 1.68289 10.8001 1.66015C10.8648 1.63694 10.9279 1.58846 10.9693 1.53049C10.9908 1.5005 10.9963 1.46228 10.9746 1.40966C10.9526 1.35634 10.9057 1.30039 10.8452 1.26056Z" fill="#BE5713"/>
<path fill-rule="evenodd" clip-rule="evenodd" d="M3.27814 2.08941C5.28316 0.163781 8.36816 -0.279762 11.0184 0.9L11.0405 0.909827L11.0488 0.916089C11.1747 0.994381 11.2858 1.11448 11.3447 1.25752C11.4057 1.4053 11.4151 1.59558 11.2951 1.76344C11.2086 1.88445 11.0805 1.98502 10.9355 2.03701C10.793 2.08814 10.6141 2.09773 10.4497 2.00254C8.32245 1.01604 5.81608 1.38794 4.20694 2.94053L4.19905 2.94815C3.14578 3.87883 2.59168 5.16999 2.59168 6.51476C2.59168 7.25348 2.76142 7.96762 3.08335 8.63908V8.36462C3.08335 8.0177 3.36166 7.73377 3.68335 7.73377C4.05002 7.73377 4.30945 7.99379 4.3915 8.2999L4.40003 8.3317V10.5409C4.40003 10.8827 4.06882 11.1174 3.74169 11.1174H1.40834C1.0812 11.1174 0.75 10.8827 0.75 10.5409C0.75 10.1686 1.05419 9.91008 1.40834 9.91008H2.41592C1.708 8.90637 1.33334 7.71116 1.33334 6.51476C1.33334 4.8125 2.00428 3.27817 3.27814 2.08941ZM10.9371 1.08271C8.3539 -0.0671903 5.35719 0.369561 3.41617 2.23414L3.41512 2.23515C2.18069 3.38688 1.53334 4.86876 1.53334 6.51476C1.53334 7.73201 1.93521 8.94909 2.69257 9.94973L2.81393 10.1101H1.40834C1.15016 10.1101 0.95 10.293 0.95 10.5409C0.95 10.7384 1.15445 10.9174 1.40834 10.9174H3.74169C3.99558 10.9174 4.20003 10.7384 4.20003 10.5409V8.35804L4.19832 8.35168C4.13512 8.1159 3.94295 7.93377 3.68335 7.93377C3.47936 7.93377 3.28335 8.12077 3.28335 8.36462V9.41971L3.09659 9.09376C2.63776 8.29301 2.39168 7.42258 2.39168 6.51476C2.39168 5.11482 2.96866 3.76915 4.06491 2.79966L4.06808 2.79661C4.06808 2.79661 4.06807 2.79661 4.06808 2.79661C5.74193 1.18157 8.34048 0.80182 10.5382 1.82315L10.5472 1.82734C10.649 1.88754 10.7647 1.8858 10.868 1.84875C10.9728 1.81115 11.0685 1.73664 11.1324 1.64714C11.2029 1.54853 11.2013 1.4344 11.1598 1.33376C11.1189 1.23445 11.0384 1.14513 10.9431 1.08593L10.9402 1.08411L10.9371 1.08271ZM10.7969 1.34874C8.31862 0.253781 5.46381 0.682508 3.62324 2.45122L3.62056 2.4538C2.44527 3.54998 1.83334 4.95317 1.83334 6.51476C1.83334 7.76177 2.27927 9.01023 3.11583 9.99856L3.46416 10.4101H1.40834C1.29971 10.4101 1.25179 10.4739 1.25005 10.5373C1.25051 10.5387 1.25149 10.5411 1.25342 10.5447C1.25798 10.553 1.26611 10.564 1.27872 10.575C1.30296 10.5961 1.3442 10.6174 1.40834 10.6174H3.74169C3.80582 10.6174 3.84707 10.5961 3.87131 10.575C3.88392 10.564 3.89205 10.553 3.8966 10.5447C3.89861 10.541 3.89958 10.5385 3.90003 10.5372V8.40195C3.86082 8.29185 3.77728 8.23377 3.68335 8.23377C3.67216 8.23377 3.64676 8.24136 3.62237 8.26644C3.59989 8.28958 3.58335 8.32282 3.58335 8.36462V10.3605L3.12794 9.70409C2.46017 8.74154 2.09168 7.65876 2.09168 6.51476C2.09168 5.03208 2.70296 3.60465 3.86371 2.57691C5.63519 0.87103 8.3704 0.481177 10.6724 1.55471L10.6915 1.56361L10.6988 1.56898C10.706 1.57349 10.7248 1.58142 10.7667 1.56637C10.8114 1.55034 10.8582 1.51488 10.8884 1.47269C10.8887 1.47221 10.8889 1.47193 10.8889 1.47184C10.889 1.47175 10.889 1.47164 10.8889 1.47184C10.889 1.47087 10.889 1.464 10.8825 1.44813C10.8698 1.41735 10.8397 1.37861 10.7969 1.34874ZM3.48466 2.30701C5.3911 0.474998 8.33858 0.0401714 10.8861 1.16948L10.8936 1.17282L10.9005 1.17735C10.9755 1.22665 11.0367 1.29752 11.0674 1.37189C11.0994 1.4494 11.0966 1.52534 11.0511 1.58899C10.9984 1.66273 10.919 1.72422 10.8342 1.75463C10.7494 1.78506 10.6641 1.78297 10.5931 1.73883L10.5906 1.73724L10.5879 1.73597C8.35479 0.694574 5.70864 1.0767 4.00096 2.7224L3.99789 2.72536C2.88011 3.71427 2.29168 5.08722 2.29168 6.51476C2.29168 7.61408 2.64538 8.65764 3.29227 9.59009L3.38335 9.72138V8.36462C3.38335 8.1722 3.53832 8.03377 3.68335 8.03377C3.88156 8.03377 4.03653 8.16662 4.09551 8.35606L4.10003 8.37058V10.5409C4.10003 10.6079 4.05849 10.6773 4.00253 10.7259C3.94164 10.7789 3.85371 10.8174 3.74169 10.8174H1.40834C1.29631 10.8174 1.20838 10.7789 1.1475 10.7259C1.09154 10.6773 1.05 10.6079 1.05 10.5409C1.05 10.3553 1.198 10.2101 1.40834 10.2101H3.03284L2.96318 10.1278C2.09586 9.10311 1.63334 7.80879 1.63334 6.51476C1.63334 4.8969 2.26888 3.44126 3.48359 2.30804L3.48466 2.30701Z" fill="#BE5713"/>
<path d="M14.5917 2.16211H12.3167C12.2 2.16211 12.0833 2.16211 11.9667 2.27092C11.9083 2.32533 11.85 2.43415 11.85 2.54296V4.71927C11.85 4.9369 12.025 5.10013 12.2583 5.10013C12.4917 5.04572 12.6667 4.8825 12.6667 4.66487V3.4679C13.3084 4.33842 13.6584 5.37217 13.6584 6.51473C13.6584 7.92933 13.075 9.28952 11.9667 10.2689C10.275 11.8467 7.64998 12.2819 5.43329 11.2482C5.25829 11.1394 5.02496 11.2482 4.90829 11.4114C4.79162 11.5746 4.90829 11.7923 5.08329 11.9011C6.07497 12.3364 7.00831 12.4996 7.99998 12.4996C9.69166 12.4996 11.325 11.9011 12.55 10.7585C13.775 9.61597 14.4167 8.09255 14.4167 6.51473C14.4167 5.20894 13.95 3.90316 13.075 2.86941H14.5917C14.825 2.86941 15 2.70619 15 2.48856C15 2.27092 14.825 2.16211 14.5917 2.16211Z" fill="#BE5713"/>
<path fill-rule="evenodd" clip-rule="evenodd" d="M12.3096 2.0127L14.5913 2.0127C14.7287 2.0127 14.8659 2.04443 14.9726 2.12409C15.0849 2.20789 15.1496 2.33482 15.1496 2.48915C15.1496 2.79929 14.8974 3.02 14.5913 3.02H13.3868C14.1573 4.03803 14.5663 5.2763 14.5663 6.51532C14.5663 8.13477 13.9073 9.6979 12.6519 10.8688C11.397 12.0392 9.72623 12.6502 7.99955 12.6502C6.98953 12.6502 6.03534 12.4836 5.02257 12.039L5.01275 12.0347L5.00365 12.0291C4.89309 11.9603 4.79728 11.8556 4.74731 11.7344C4.69609 11.6102 4.69059 11.458 4.78582 11.3248C4.86106 11.2195 4.97297 11.132 5.09783 11.0872C5.22139 11.0429 5.36985 11.0371 5.50355 11.1162C7.66412 12.1202 10.2195 11.6935 11.8639 10.1598L11.8669 10.157C12.9422 9.20686 13.5079 7.88802 13.5079 6.51532C13.5079 5.57818 13.266 4.71792 12.8163 3.9645V4.66546C12.8163 4.97707 12.5663 5.18282 12.292 5.2468L12.2752 5.25072H12.2579C11.9518 5.25072 11.6996 5.03001 11.6996 4.71986V2.54355C11.6996 2.38875 11.7785 2.24146 11.8639 2.16182C12.024 2.01256 12.1923 2.01264 12.3096 2.0127ZM12.3162 2.3127C12.2004 2.3127 12.1388 2.31569 12.0686 2.38121C12.0559 2.39305 12.0374 2.41697 12.0223 2.44976C12.0075 2.48205 11.9996 2.51507 11.9996 2.54355V4.71986C11.9996 4.84057 12.0906 4.94324 12.2412 4.95033C12.4222 4.90244 12.5163 4.78533 12.5163 4.66546V3.01218L12.787 3.37948C13.4477 4.27578 13.8079 5.34071 13.8079 6.51532C13.8079 7.97118 13.2075 9.3721 12.0671 10.3805C10.3299 11.9996 7.64007 12.4436 5.36946 11.3847L5.3613 11.3809L5.35365 11.3762C5.31453 11.3519 5.26253 11.3468 5.19913 11.3696C5.13441 11.3928 5.07132 11.4413 5.02989 11.4992C5.00845 11.5292 5.00296 11.5675 5.02465 11.6201C5.0466 11.6733 5.09333 11.7292 5.15375 11.769C6.12037 12.1915 7.02976 12.3502 7.99955 12.3502C9.65622 12.3502 11.2521 11.7641 12.4473 10.6494C13.6419 9.53521 14.2663 8.05152 14.2663 6.51532C14.2663 5.2448 13.812 3.97341 12.9601 2.96691L12.7511 2.72H14.5913C14.7518 2.72 14.8496 2.61426 14.8496 2.48915C14.8496 2.42584 14.8268 2.38955 14.7932 2.36453C14.7542 2.33538 14.6871 2.3127 14.5913 2.3127H12.3162Z" fill="#BE5713"/>
<path fill-rule="evenodd" clip-rule="evenodd" d="M14.5916 1.91212C14.7429 1.91212 14.9034 1.94684 15.0328 2.04336C15.1714 2.14677 15.25 2.30393 15.25 2.48856C15.25 2.86091 14.9458 3.11942 14.5916 3.11942H13.584C14.292 4.12313 14.6666 5.31834 14.6666 6.51473C14.6666 8.16194 13.9961 9.75155 12.7205 10.9414C11.4457 12.1304 9.74993 12.7496 7.99991 12.7496C6.97766 12.7496 6.00957 12.5807 4.98274 12.13L4.96638 12.1228L4.95121 12.1134C4.8253 12.0351 4.7142 11.915 4.65522 11.772C4.59428 11.6242 4.58485 11.4339 4.70483 11.2661C4.79133 11.145 4.9195 11.0445 5.06443 10.9925C5.20696 10.9414 5.3859 10.9318 5.55031 11.0269C7.67362 12.0115 10.183 11.5906 11.7961 10.0861L11.801 10.0815C12.8543 9.15077 13.4083 7.8595 13.4083 6.51473C13.4083 5.73453 13.2375 5.00966 12.9166 4.35724V4.66487C12.9166 5.03982 12.6159 5.27345 12.315 5.3436L12.287 5.35013H12.2583C11.9041 5.35013 11.5999 5.09163 11.5999 4.71928V2.54297C11.5999 2.35746 11.6927 2.18453 11.7961 2.08811C11.985 1.91193 12.1872 1.91204 12.3072 1.91211L14.5916 1.91212ZM12.3099 2.11211C12.195 2.11206 12.0622 2.11341 11.9325 2.23437C11.8651 2.29722 11.7999 2.41888 11.7999 2.54297V4.71928C11.7999 4.96722 12.0001 5.15013 12.2583 5.15013H12.264L12.2696 5.14883C12.5175 5.09103 12.7166 4.91316 12.7166 4.66487V3.60129L12.9025 3.91266C13.3616 4.68181 13.6083 5.55982 13.6083 6.51473C13.6083 7.91494 13.0311 9.26093 11.9345 10.2305L11.9325 10.2323C10.2578 11.7943 7.6587 12.2272 5.46177 11.2063L5.45274 11.2021C5.35098 11.1419 5.23524 11.1437 5.13196 11.1807C5.02715 11.2183 4.93151 11.2929 4.86754 11.3824C4.79706 11.481 4.79861 11.5951 4.84012 11.6957C4.88107 11.795 4.96161 11.8844 5.05681 11.9436L5.05984 11.9454L5.06312 11.9469C6.06183 12.3852 7.00212 12.5496 7.99991 12.5496C9.70326 12.5496 11.3491 11.9469 12.584 10.7951C13.8192 9.64309 14.4666 8.10643 14.4666 6.51473C14.4666 5.29748 14.0648 4.08041 13.3074 3.07977L13.186 2.91942H14.5916C14.8498 2.91942 15.05 2.7365 15.05 2.48856C15.05 2.36454 14.9992 2.26784 14.9132 2.20365C14.829 2.14085 14.7153 2.11212 14.5916 2.11212L12.3099 2.11211ZM12.1982 2.41923C12.1778 2.42394 12.1604 2.43209 12.1371 2.45374C12.1371 2.45374 12.1363 2.45456 12.1347 2.45642C12.1331 2.45834 12.131 2.46098 12.1286 2.46436C12.1239 2.47116 12.1185 2.48014 12.1136 2.49093C12.1034 2.51299 12.0999 2.53175 12.0999 2.54297V4.71928C12.0999 4.77927 12.1404 4.83881 12.2314 4.84871C12.3713 4.80681 12.4166 4.7235 12.4166 4.66487V2.7074L12.8679 3.31957C13.5412 4.23304 13.9083 5.31877 13.9083 6.51473C13.9083 7.99809 13.2964 9.42615 12.1347 10.454C10.3672 12.1005 7.63413 12.5504 5.32756 11.4748L5.30847 11.4659L5.30121 11.4605C5.30121 11.4605 5.30121 11.4605 5.30121 11.4605C5.29396 11.456 5.27519 11.4481 5.23326 11.4631C5.18858 11.4791 5.14176 11.5146 5.1116 11.5568C5.11096 11.5577 5.11145 11.5572 5.1116 11.5568C5.11154 11.5578 5.11091 11.5655 5.11746 11.5814C5.13011 11.612 5.15999 11.6506 5.20258 11.6804C6.15204 12.0941 7.04512 12.2496 7.99991 12.2496C9.63324 12.2496 11.2042 11.6718 12.3794 10.5757C13.5538 9.4804 14.1666 8.02318 14.1666 6.51473C14.1666 5.26773 13.7207 4.01926 12.8841 3.03093L12.5358 2.61942H14.5916C14.7023 2.61942 14.75 2.5532 14.75 2.48856C14.75 2.4691 14.7465 2.45989 14.7446 2.45607C14.7429 2.45257 14.7402 2.44891 14.7338 2.4441C14.7172 2.43173 14.6736 2.41212 14.5916 2.41212H12.3166C12.2566 2.41212 12.2239 2.4133 12.1982 2.41923ZM12.1531 2.22437C12.2048 2.21243 12.2607 2.21212 12.3166 2.21212H14.5916C14.7015 2.21212 14.7918 2.23785 14.8534 2.2838C14.8805 2.30401 14.906 2.331 14.9241 2.36773C14.942 2.40413 14.95 2.44471 14.95 2.48856C14.95 2.67416 14.802 2.81942 14.5916 2.81942H12.9671L13.0368 2.90172C13.9041 3.92638 14.3666 5.2207 14.3666 6.51473C14.3666 8.07868 13.7307 9.58886 12.5158 10.722C11.3008 11.8552 9.67992 12.4496 7.99991 12.4496C7.01795 12.4496 6.09471 12.2887 5.11406 11.86L5.10622 11.8566L5.09908 11.8519C5.02431 11.8026 4.96318 11.7319 4.93256 11.6576C4.9006 11.5801 4.9034 11.5042 4.94889 11.4405C5.0016 11.3668 5.08097 11.3053 5.16573 11.2749C5.25058 11.2444 5.33583 11.2465 5.40682 11.2907L5.40937 11.2923L5.41209 11.2935C7.64633 12.3355 10.2924 11.8976 11.9992 10.3068L12.0012 10.305C13.1196 9.31604 13.7083 7.94268 13.7083 6.51473C13.7083 5.36149 13.3549 4.31735 12.7069 3.43823L12.6166 3.3158V4.66487C12.6166 4.84389 12.4771 4.99086 12.2671 5.04642L12.2522 5.05036L12.2368 5.04963C12.0372 5.04023 11.8999 4.89754 11.8999 4.71928V2.54297C11.8999 2.49723 11.9123 2.44995 11.9318 2.40742C11.9514 2.36474 11.977 2.32957 12.0007 2.3075C12.0477 2.26363 12.0962 2.23753 12.1531 2.22437Z" fill="#BE5713"/>
</svg>
