<svg width="36" height="36" viewBox="0 0 36 36" fill="none" xmlns="http://www.w3.org/2000/svg">
<path d="M29.2249 35.596C29.2124 35.596 29.1999 35.596 29.1874 35.596C23.1749 35.3991 16.1312 29.571 11.278 24.7147C6.41865 19.8585 0.590526 12.8116 0.403026 6.82724C0.334276 4.72724 5.4874 0.992865 5.54053 0.955365C6.87803 0.0241145 8.3624 0.355365 8.97178 1.19911C9.38428 1.77099 13.2905 7.68974 13.7155 8.36162C14.1562 9.05849 14.0905 10.096 13.5405 11.1366C13.2374 11.7147 12.2312 13.4835 11.7593 14.3085C12.2687 15.0335 13.6155 16.8116 16.3968 19.5929C19.1812 22.3741 20.9562 23.7241 21.6843 24.2335C22.5093 23.7616 24.278 22.7554 24.8561 22.4522C25.8811 21.9085 26.9124 21.8397 27.6155 22.271C28.3343 22.7116 34.2374 26.6366 34.7811 27.0147C35.2374 27.3366 35.5311 27.8866 35.5905 28.5272C35.6468 29.1741 35.4468 29.8585 35.0311 30.4554C34.9968 30.5054 31.3061 35.596 29.2249 35.596Z" fill="white"/>
</svg>
