<svg width="50" height="51" viewBox="0 0 50 51" fill="none" xmlns="http://www.w3.org/2000/svg">
    <circle cx="25" cy="25.5" r="25" fill="white"/>
    <path d="M16.1 15.5C15.543 15.5 15.0089 15.7212 14.6151 16.1151C14.2212 16.5089 14 17.043 14 17.6V30.2C14 30.757 14.2212 31.2911 14.6151 31.6849C15.0089 32.0787 15.543 32.3 16.1 32.3H20.3V35.45C20.3 35.7285 20.4106 35.9955 20.6075 36.1925C20.8045 36.3894 21.0715 36.5 21.35 36.5H21.875C22.1375 36.5 22.4 36.395 22.61 36.1955L26.495 32.3H32.9C33.457 32.3 33.9911 32.0787 34.3849 31.6849C34.7787 31.2911 35 30.757 35 30.2V17.6C35 16.4345 34.055 15.5 32.9 15.5H16.1ZM16.1 17.6H32.9V30.2H25.634L22.4 33.434V30.2H16.1V17.6ZM24.6995 19.175C23.765 19.175 23.0195 19.364 22.4525 19.742C21.875 20.12 21.581 20.75 21.6335 21.4745C12.1205 21.4745 18.7985 21.4745 23.702 21.4745C23.702 21.1805 23.807 20.96 23.975 20.813C24.185 20.666 24.416 20.5925 24.6995 20.5925C25.025 20.5925 25.3085 20.6765 25.4975 20.8655C25.6865 21.044 25.781 21.275 25.781 21.59C25.781 21.884 25.697 22.1465 25.55 22.367C25.3715 22.598 25.151 22.787 24.878 22.934C24.332 23.27 23.975 23.564 23.7545 23.816C23.555 24.068 23.45 24.425 23.45 24.95H25.55C25.55 24.656 25.6025 24.425 25.697 24.236C25.7915 24.0575 25.97 23.9 26.243 23.7425C26.726 23.522 27.125 23.228 27.4295 22.85C27.734 22.4615 27.8915 22.052 27.8915 21.59C27.8915 20.855 27.608 20.267 27.041 19.826C26.474 19.3955 25.6865 19.175 24.6995 19.175ZM23.45 26V28.1H25.55V26H23.45Z" fill="#BE5713"/>
</svg>