<svg width="20" height="20" viewBox="0 0 20 20" fill="none" xmlns="http://www.w3.org/2000/svg">
<path d="M8.39961 1.19922C4.64023 1.19922 1.59961 4.23984 1.59961 7.99922C1.59961 11.7586 4.64023 14.7992 8.39961 14.7992C9.7418 14.7992 10.984 14.4055 12.0371 13.7367L16.9496 18.6492L18.6496 16.9492L13.7996 12.1117C14.6715 10.968 15.1996 9.55078 15.1996 7.99922C15.1996 4.23984 12.159 1.19922 8.39961 1.19922ZM8.39961 2.79922C11.2793 2.79922 13.5996 5.11953 13.5996 7.99922C13.5996 10.8789 11.2793 13.1992 8.39961 13.1992C5.51992 13.1992 3.19961 10.8789 3.19961 7.99922C3.19961 5.11953 5.51992 2.79922 8.39961 2.79922Z" fill="#BE5713"/>
</svg>
