<svg width="270" height="270" viewBox="0 0 270 270" fill="none" xmlns="http://www.w3.org/2000/svg">
<path fill-rule="evenodd" clip-rule="evenodd" d="M82.028 137.644C82.028 137.644 77.5446 173.047 78.0253 180.976C78.6842 191.872 89.8377 250.404 92.2561 254.036C96.0981 259.804 116.844 260.888 120.961 262.014C125.079 263.141 162.366 261.534 165.23 260.598C168.093 259.663 181.451 254.265 181.451 254.265C181.451 254.265 193.357 202.654 194.103 199.568C194.85 196.482 195.544 153.399 193.572 148.253C191.6 143.107 193.302 129.705 177.946 128.577C162.591 127.45 135.986 128.892 135.034 128.544C134.082 128.196 109.512 128.746 109.512 128.746C109.512 128.746 95.6548 126.796 91.8624 129.235C88.0687 131.674 82.028 137.644 82.028 137.644Z" fill="#F4F4F4"/>
<path d="M135.496 262.278C158.743 262.278 177.588 259.716 177.588 256.555C177.588 253.394 158.743 250.832 135.496 250.832C112.249 250.832 93.4033 253.394 93.4033 256.555C93.4033 259.716 112.249 262.278 135.496 262.278Z" fill="#AEAEAE"/>
<path fill-rule="evenodd" clip-rule="evenodd" d="M128.085 182.136C128.537 175.184 134.737 172.329 139.16 173.664C143.587 174.999 146.237 180.524 145.786 187.476C145.604 192.618 142.011 199.332 138.685 204.234C132.71 203.614 125.143 202.039 120.985 198.895C115.234 194.798 112.584 189.274 114.36 185.083C116.136 180.894 122.336 178.039 128.085 182.136Z" fill="#C4A7CE"/>
<path fill-rule="evenodd" clip-rule="evenodd" d="M102.025 223.885C103.306 231.504 110.566 233.98 115.37 232.027C120.176 230.074 122.527 223.693 121.246 216.074C120.469 210.421 115.697 203.407 111.426 198.361C104.806 199.694 96.5103 202.253 92.2053 206.173C86.2238 211.316 83.8734 217.697 86.3289 222.127C88.7852 226.554 96.0454 229.029 102.025 223.885Z" fill="#C4A7CE"/>
<path fill-rule="evenodd" clip-rule="evenodd" d="M134.289 241.29C135.387 251.002 143.692 253.834 149.371 251.103C155.054 248.369 158.11 240.073 157.011 230.361C156.398 223.147 151.214 214.376 146.512 208.105C138.755 210.128 128.989 213.803 123.789 219.034C116.579 225.914 113.523 234.21 116.149 239.776C118.776 245.339 127.081 248.171 134.289 241.29Z" fill="#C4A7CE"/>
<path fill-rule="evenodd" clip-rule="evenodd" d="M136.259 138.85C130.536 138.066 128.469 132.835 129.78 129.305C131.089 125.77 135.782 123.938 141.506 124.727C145.748 125.181 151.128 128.517 155.024 131.525C154.23 136.363 152.572 142.443 149.777 145.648C146.121 150.094 141.428 151.926 138.05 150.226C134.672 148.526 132.604 143.296 136.259 138.85Z" fill="#F8B990"/>
<path fill-rule="evenodd" clip-rule="evenodd" d="M138.051 252.099C138.859 259.124 145.173 261.872 149.504 260.42C153.839 258.971 156.19 253.314 155.378 246.287C154.934 241.085 151.011 234.369 147.45 229.482C141.541 230.247 134.097 232.015 130.124 235.294C124.619 239.572 122.268 245.228 124.25 249.428C126.233 253.628 132.546 256.376 138.051 252.099Z" fill="#C4A7CE"/>
<path fill-rule="evenodd" clip-rule="evenodd" d="M166.951 161.725C168.753 155.407 175.126 153.744 179.007 155.656C182.885 157.568 184.269 163.058 182.467 169.377C181.274 174.076 176.574 179.687 172.487 183.68C167.013 182.181 160.241 179.564 156.971 176.029C152.401 171.373 151.017 165.883 153.511 162.308C156.006 158.733 162.378 157.07 166.951 161.725Z" fill="#EA9999"/>
<path fill-rule="evenodd" clip-rule="evenodd" d="M135.905 229.266C138.707 224.23 144.312 224.23 147.116 226.748C149.92 229.266 149.92 234.301 147.116 239.337C145.155 243.114 140.109 246.89 135.905 249.408C131.699 246.89 126.655 243.114 124.692 239.337C121.888 234.301 121.888 229.266 124.692 226.748C127.496 224.23 133.101 224.23 135.905 229.266Z" fill="#EA9999"/>
<path fill-rule="evenodd" clip-rule="evenodd" d="M167.575 238.481C164.397 233.312 158.212 233.312 155.161 235.897C152.11 238.481 152.196 243.648 155.376 248.817C157.605 252.692 163.238 256.568 167.92 259.152C172.517 256.568 178.019 252.692 180.121 248.817C183.128 243.648 183.042 238.481 179.905 235.897C176.768 233.312 170.583 233.312 167.575 238.481Z" fill="#EA9999"/>
<path fill-rule="evenodd" clip-rule="evenodd" d="M121.106 209.415C118.822 203.794 112.721 202.776 109.286 204.823C105.852 206.87 105.087 211.98 107.373 217.602C108.933 221.791 113.852 226.541 118.044 229.861C123.005 228.068 129.069 225.151 131.78 221.674C135.597 217.071 136.362 211.96 133.693 208.895C131.024 205.83 124.923 204.812 121.106 209.415Z" fill="#EA9999"/>
<path fill-rule="evenodd" clip-rule="evenodd" d="M124.849 152.035C125.305 145.586 120.093 142.31 115.954 143.077C111.816 143.844 108.756 148.653 108.301 155.103C107.829 159.856 110.225 166.413 112.603 171.276C118.045 171.328 125.032 170.669 129.153 168.209C134.822 165.037 137.883 160.227 136.807 156.183C135.73 152.139 130.518 148.862 124.849 152.035Z" fill="#EA9999"/>
<path fill-rule="evenodd" clip-rule="evenodd" d="M176.696 194.055C180.582 191.585 185.05 193.61 186.455 196.363C187.863 199.116 186.209 202.598 182.322 205.068C179.518 206.97 174.259 207.76 170.083 207.982C167.559 204.724 164.778 200.291 164.456 196.972C163.875 192.477 165.529 188.995 168.589 188.267C171.649 187.537 176.115 189.561 176.696 194.055Z" fill="#C4A7CE"/>
<path fill-rule="evenodd" clip-rule="evenodd" d="M119.22 218.675C113.966 215.583 108.239 218.481 106.575 222.199C104.907 225.916 107.3 230.455 112.556 233.546C116.354 235.935 123.299 236.733 128.789 236.829C131.887 232.388 135.246 226.377 135.454 221.96C135.925 215.972 133.533 211.433 129.474 210.613C125.416 209.79 119.691 212.687 119.22 218.675Z" fill="#F8B990"/>
<path fill-rule="evenodd" clip-rule="evenodd" d="M104.786 236.729C106.439 231.172 111.933 229.958 115.227 231.824C118.521 233.694 119.614 238.641 117.962 244.198C116.859 248.335 112.734 253.139 109.161 256.523C104.492 254.961 98.7291 252.341 95.9856 249.054C92.1437 244.712 91.0503 239.764 93.2511 236.681C95.4505 233.6 100.945 232.386 104.786 236.729Z" fill="#EA9999"/>
<path fill-rule="evenodd" clip-rule="evenodd" d="M141.099 194.648C135.504 190.954 129.743 193.869 128.218 197.901C126.696 201.935 129.41 207.083 135.004 210.777C139.057 213.619 146.278 214.857 151.955 215.245C154.921 210.484 158.069 203.999 158.05 199.117C158.216 192.508 155.503 187.36 151.263 186.241C147.027 185.124 141.265 188.039 141.099 194.648Z" fill="#EA9999"/>
<path fill-rule="evenodd" clip-rule="evenodd" d="M173.119 219.825C175.561 215.41 180.448 215.41 182.89 217.618C185.333 219.825 185.333 224.239 182.89 228.653C181.18 231.963 176.783 235.274 173.119 237.482C169.454 235.274 165.057 231.963 163.347 228.653C160.903 224.239 160.903 219.825 163.347 217.618C165.789 215.41 170.676 215.41 173.119 219.825Z" fill="#C4A7CE"/>
<path fill-rule="evenodd" clip-rule="evenodd" d="M147.663 237.309C142.849 234.185 137.888 236.799 136.577 240.322C135.265 243.843 137.601 248.274 142.415 251.398C145.902 253.805 152.116 254.775 157.004 255.031C159.556 250.854 162.267 245.179 162.252 240.942C162.398 235.203 160.063 230.773 156.414 229.866C152.767 228.957 147.807 231.571 147.663 237.309Z" fill="#F8B990"/>
<path fill-rule="evenodd" clip-rule="evenodd" d="M121.146 243.081C124.55 239.44 129.531 240.47 131.567 243.062C133.602 245.655 132.69 249.809 129.286 253.45C126.858 256.206 121.689 258.395 117.497 259.7C114.216 256.85 110.416 252.807 109.357 249.33C107.777 244.659 108.69 240.506 111.638 238.942C114.585 237.38 119.567 238.41 121.146 243.081Z" fill="#F8B990"/>
<path fill-rule="evenodd" clip-rule="evenodd" d="M152.291 175.325C156.29 171.65 161.054 173.351 162.628 176.465C164.203 179.578 162.587 184.105 158.587 187.782C155.707 190.58 150.207 192.444 145.826 193.432C143.06 189.893 139.985 184.966 139.528 180.977C138.764 175.598 140.38 171.072 143.569 169.659C146.76 168.247 151.524 169.948 152.291 175.325Z" fill="#F8B990"/>
<path fill-rule="evenodd" clip-rule="evenodd" d="M107.198 192.297C109.955 187.723 115.471 187.723 118.228 190.009C120.985 192.297 120.985 196.87 118.228 201.443C116.299 204.874 111.334 208.304 107.198 210.591C103.061 208.304 98.0974 204.874 96.1679 201.443C93.4089 196.87 93.4089 192.297 96.1679 190.009C98.9249 187.723 104.441 187.723 107.198 192.297Z" fill="#F8B990"/>
<path fill-rule="evenodd" clip-rule="evenodd" d="M155.632 204.758C150.391 201.6 144.743 204.458 143.128 208.179C141.515 211.901 143.932 216.488 149.173 219.646C152.963 222.088 159.86 222.955 165.303 223.107C168.331 218.669 171.6 212.658 171.761 208.217C172.169 202.201 169.751 197.614 165.717 196.75C161.685 195.886 156.037 198.743 155.632 204.758Z" fill="#F8B990"/>
<path fill-rule="evenodd" clip-rule="evenodd" d="M140.59 213.844C143.4 208.685 149.019 208.685 151.83 211.266C154.64 213.844 154.64 219.003 151.83 224.163C149.862 228.033 144.806 231.903 140.59 234.483C136.374 231.903 131.316 228.033 129.35 224.163C126.54 219.003 126.54 213.844 129.35 211.266C132.16 208.685 137.779 208.685 140.59 213.844Z" fill="#C4A7CE"/>
<path fill-rule="evenodd" clip-rule="evenodd" d="M190.927 131.573C181.777 120.785 156.872 123.987 135.17 123.879C111.931 123.763 91.8292 121.103 81.8896 132.69C62.6683 155.1 83.5904 233.617 90.7843 256.447C93.589 265.348 121.699 265.498 137.027 265.305C152.353 265.113 178.902 264.876 182.749 255.29C191.705 232.991 209.876 153.914 190.927 131.573ZM186.126 136.019C177.821 125.889 154.639 132.519 134.937 132.418C113.842 132.309 96.165 126.188 87.1406 137.069C69.6925 158.113 87.6211 232.969 95.9056 253.587C99.3587 262.18 123.211 261.265 137.084 260.682C150.959 260.099 174.368 262.247 179.152 250.09C187.324 229.311 203.328 156.998 186.126 136.019Z" fill="#D2D2D2"/>
<path d="M134.564 123.745C149.196 123.745 161.057 119.898 161.057 115.152C161.057 110.406 149.196 106.559 134.564 106.559C119.932 106.559 108.07 110.406 108.07 115.152C108.07 119.898 119.932 123.745 134.564 123.745Z" fill="#D2D2D2"/>
<path d="M134.563 121.396C146.83 121.396 156.773 118.602 156.773 115.155C156.773 111.708 146.83 108.914 134.563 108.914C122.297 108.914 112.354 111.708 112.354 115.155C112.354 118.602 122.297 121.396 134.563 121.396Z" fill="#808080"/>
<path d="M134.533 121.155C144.206 121.155 152.048 119.962 152.048 118.492C152.048 117.021 144.206 115.828 134.533 115.828C124.859 115.828 117.018 117.021 117.018 118.492C117.018 119.962 124.859 121.155 134.533 121.155Z" fill="#4D515B"/>
<path d="M133.741 113.2C139.412 112.227 143.22 106.841 142.247 101.17C141.274 95.4995 135.888 91.6911 130.217 92.6641C124.546 93.637 120.738 99.0229 121.711 104.694C122.684 110.365 128.07 114.173 133.741 113.2Z" fill="#FFD14F"/>
<path fill-rule="evenodd" clip-rule="evenodd" d="M137.664 105.984C139.124 105.734 140.396 105.819 141.781 106.024C142.537 106.134 139.569 110.35 138.374 111.216C134.449 114.067 128.857 113.078 128.883 112.857C128.995 111.924 129.742 111.184 130.309 110.44C132.048 108.161 134.617 106.507 137.664 105.984Z" fill="#C67040" fill-opacity="0.13"/>
<path d="M140.42 128.763C146.516 128.763 151.458 123.821 151.458 117.725C151.458 111.629 146.516 106.688 140.42 106.688C134.325 106.688 129.383 111.629 129.383 117.725C129.383 123.821 134.325 128.763 140.42 128.763Z" fill="#FFDA73"/>
<path fill-rule="evenodd" clip-rule="evenodd" d="M134.32 121.219C141.917 121.045 149.292 120.702 155.05 118.17C158.27 116.754 161.079 115.082 161.079 115.082L161.018 125.068C161.018 125.068 147.747 130.168 134.572 130.015C125.828 129.913 108.553 127.977 108.553 124.379C108.553 123.104 107.682 112.201 108.471 114.807C109.959 119.711 126.543 121.398 134.32 121.219Z" fill="#D2D2D2"/>
<path d="M27.443 112.772C27.443 112.772 34.5632 109.645 48.2406 103.639C57.614 99.5226 71.3609 87.8487 81.1607 85.6602C84.913 84.861 88.8127 84.5598 92.795 84.7502L101.797 98.0643C101.797 98.0643 97.2294 102.335 90.7237 108.225C78.0781 119.671 58.1192 137.221 50.3247 141.221C45.1407 143.887 34.7248 139.217 30.9067 134.478C27.1027 129.731 27.443 112.772 27.443 112.772Z" fill="#A7CBCA"/>
<path d="M118.286 85.0896C116.435 85.5918 114.793 85.7875 113.326 85.6315L113.218 85.6421C112.975 85.6639 112.731 85.6839 112.504 85.6885C111.403 85.7585 110.293 85.7758 109.213 85.7171C109.48 85.3323 109.745 84.9458 110.019 84.5704L110.177 84.353L110.207 84.315L110.49 83.913C110.796 83.5032 111.087 83.1126 111.382 82.7275C111.489 82.5978 111.595 82.4662 111.682 82.3481C111.742 82.2737 111.802 82.1974 111.863 82.123C112.449 81.3869 113.084 80.6765 113.745 80.0037C116.632 77.1301 119.828 76.5777 120.926 78.0848C121.273 78.5603 121.401 79.2501 121.258 80.1206C121.036 81.3962 119.809 83.2279 118.286 85.0896Z" fill="#F7BB9E"/>
<path d="M90.1027 82.821L81.5976 86.252C81.5976 86.252 74.6651 94.2015 84.8186 102.209C86.8191 103.793 91.9226 104.502 94.833 103.757C97.763 103.001 102.342 97.7092 102.342 97.7092L90.1027 82.821Z" fill="#8BAEAD"/>
<path d="M118.63 89.09C124.301 88.117 128.105 82.7103 127.128 77.0138C126.151 71.3172 120.761 67.488 115.09 68.4609C109.419 69.4339 105.615 74.8406 106.592 80.5372C107.569 86.2338 112.959 90.063 118.63 89.09Z" fill="#FFD14F"/>
<path d="M97.8466 64.47C99.9045 62.9856 106.831 61.0182 108.815 62.503C109.689 63.1597 113.76 61.8336 117.912 63.1039C126.02 65.5798 123.786 74.3976 122.749 74.6025C120.641 75.0102 117.372 73.3453 114.844 70.8108C111.755 67.7399 107.234 76.1216 105.681 78.6485C104.376 80.7651 101.035 85.4472 105.452 86.0612C107.017 86.2601 108.086 84.5657 108.351 84.9348C110.163 87.4033 115.429 89.6403 114.951 88.9894C114.951 88.9894 107.899 97.5476 101.717 100.271C92.2881 104.43 81.2423 96.2906 82.0346 88.689C82.4457 84.7711 83.6308 80.8449 86.0761 77.5697C90.1382 72.2298 88.6606 70.4311 90.5229 68.6488C92.3852 66.8665 95.6439 63.8215 96.8687 65.0654L97.8466 64.47Z" fill="#F7BB9E"/>
<path d="M243.062 71.3078C243.062 71.3078 235.546 69.3129 221.108 65.4817C211.213 62.8551 195.835 53.4337 185.815 52.778C181.984 52.5653 178.085 52.8672 174.179 53.6677L167.332 68.2075C167.332 68.2075 172.501 71.7255 179.835 76.5444C194.09 85.9105 216.51 100.182 224.827 102.937C230.359 104.774 239.933 98.5576 242.978 93.2886C246.006 88.0128 243.062 71.3078 243.062 71.3078Z" fill="#C67040"/>
<path d="M178.39 51.3248L187.33 53.3426C187.33 53.3426 195.289 60.2329 186.195 70.1455C184.404 72.1055 179.401 73.7115 176.398 73.4587C173.373 73.1965 168.111 68.6039 168.111 68.6039L178.39 51.3248Z" fill="#57362E"/>
<path d="M173.02 34.4609C170.97 32.9648 164.055 30.9577 162.063 32.4311C160.07 33.9062 156.32 30.9254 154.512 31.556C152.706 32.185 152.104 36.4744 152.68 38.0016C153.239 39.5142 151.774 43.0907 151.774 43.0907C151.774 43.0907 148.061 50.9972 150.447 53.307C152.816 55.6007 162.778 67.4804 168.945 70.2391C178.349 74.4524 189.442 66.376 188.693 58.77C188.304 54.8498 187.142 50.9169 184.715 47.6277C180.684 42.2646 182.171 40.4745 180.319 38.6815C178.467 36.8886 175.226 33.825 173.994 35.0619L173.02 34.4609Z" fill="#D7AA91"/>
<path d="M152.149 57.2367C153.554 58.0541 154.662 58.9923 155.469 60.1114L155.54 60.1744C155.7 60.3194 155.86 60.4668 156.001 60.6155C156.709 61.2961 157.395 62.028 158.019 62.8037C157.643 62.9517 157.267 63.1023 156.892 63.2378L156.675 63.316L156.636 63.3285L156.241 63.4802C155.827 63.623 155.433 63.7597 155.039 63.8888C154.902 63.9272 154.765 63.9681 154.647 64.0104C154.568 64.0327 154.49 64.0575 154.411 64.0798C153.646 64.3118 152.865 64.4897 152.089 64.6174C148.737 65.1211 146.485 63.4418 146.653 61.4211C146.706 60.7835 147.011 60.1104 147.581 59.4659C148.425 58.5299 150.188 57.7969 152.149 57.2367Z" fill="#D7AA91"/>
<path d="M158.188 62.8093C163.859 61.8364 167.667 56.4505 166.694 50.7797C165.721 45.1088 160.335 41.3005 154.664 42.2734C148.994 43.2464 145.185 48.6323 146.158 54.3031C147.131 59.9739 152.517 63.7823 158.188 62.8093Z" fill="#FFD14F"/>
<path d="M150.53 61.3322C156.538 60.3013 160.573 54.5951 159.542 48.587C158.511 42.5789 152.805 38.5441 146.797 39.5749C140.788 40.6057 136.754 46.3119 137.784 52.32C138.815 58.3281 144.521 62.363 150.53 61.3322Z" fill="#C67040" fill-opacity="0.12"/>
<path d="M149.421 60.3869C155.429 59.356 159.464 53.6498 158.433 47.6417C157.402 41.6336 151.696 37.5988 145.688 38.6296C139.68 39.6604 135.645 45.3666 136.676 51.3747C137.707 57.3828 143.413 61.4177 149.421 60.3869Z" fill="#FFDA73"/>
<path d="M157.366 39.2761C157.366 39.2761 147.336 52.1139 144.444 50.7106C142.425 49.7475 140.229 45.8144 149.954 35.4149C158.952 25.7964 157.366 39.2761 157.366 39.2761Z" fill="#D7AA91"/>
<path d="M87.6334 51.868C86.0454 53.3784 84.2626 54.7877 82.6751 56.2988C77.9891 55.9628 74.0201 53.112 73.137 48.8286C72.8415 47.0368 73.0761 45.2509 72.5881 43.5758C72.2463 42.5779 71.7608 41.7771 70.9861 41.1517C69.9701 40.3443 68.8096 39.9529 67.5529 39.6187C66.5862 39.3289 65.6699 39.5562 64.655 39.4048C66.2429 37.8945 68.0257 36.4852 69.6132 34.9741C71.0145 35.1104 72.3196 35.5243 73.6731 36.018C75.4627 36.7948 76.7224 38.002 77.8375 39.407C78.7112 40.63 79.1503 42.0064 79.3003 43.5582C79.4042 45.6863 79.266 47.8513 80.6717 49.5175C81.9319 50.9436 83.6253 51.7798 85.7988 51.8853C86.2077 51.8577 86.6127 51.8691 87.0062 51.92C87.2126 51.9281 87.4235 51.9103 87.6334 51.868Z" fill="#D96159" fill-opacity="0.82"/>
<path d="M129.969 29.2469C127.947 29.5372 125.833 29.6363 123.811 29.9275C120.478 26.9881 119.066 22.466 120.758 18.5698C121.522 16.9821 122.68 15.7014 123.235 14.0964C123.527 13.1109 123.603 12.1998 123.365 11.2625C123.047 10.0435 122.391 9.07141 121.631 8.08981C121.065 7.30887 120.252 6.96612 119.573 6.26722C121.596 5.97689 123.709 5.87778 125.732 5.58658C126.709 6.49399 127.461 7.56634 128.205 8.72947C129.122 10.3656 129.403 12.0403 129.468 13.7892C129.451 15.2563 129.024 16.597 128.283 17.9115C127.191 19.6564 125.897 21.2921 126.036 23.4137C126.198 25.2621 127.009 26.8904 128.583 28.2139C128.905 28.4253 129.202 28.6654 129.47 28.9302C129.62 29.0543 129.789 29.1606 129.969 29.2469Z" fill="#D96159" fill-opacity="0.82"/>
<path d="M202.939 18.8325C203.5 19.1802 203.765 19.7777 204.257 20.2744C205.329 21.4669 205.947 22.8606 207.201 23.8539C206.029 25.8034 204.427 27.7039 202.245 28.9102C201.382 29.4115 203.198 28.6063 202.245 28.9102C200.638 29.2653 196.558 30.4772 195.038 31.0326C193.179 31.7373 192.075 33.5368 191.627 35.2845C191.272 35.0255 190.957 34.7257 190.688 34.3904C190.265 33.7436 189.616 33.197 189.194 32.5507C188.973 32.0522 188.752 31.5546 188.349 31.2567C187.994 30.9985 187.678 30.6978 187.409 30.363C189.098 26.5167 193.664 24.2552 197.965 23.5394C199.774 23.334 201.23 22.3309 202.195 20.8309C202.586 20.1808 202.707 19.5319 202.939 18.8325Z" fill="#D96159" fill-opacity="0.82"/>
<path d="M95.7781 40.858C94.0698 40.9317 92.2955 40.5613 90.432 40.4178C89.9435 40.439 89.5393 40.4014 89.0515 40.422C87.5721 38.5287 86.7538 36.3277 86.2626 34.0562C85.8556 31.726 86.0072 29.6511 86.719 27.8302C87.5923 26.0603 88.3869 24.1803 87.8184 21.8007C87.3105 20.0339 86.314 18.2883 84.896 17.0072C86.3544 17.1121 87.6522 17.1671 89.1878 17.38C89.9978 17.4572 90.8078 17.5343 91.6225 17.4432C92.7805 19.2382 93.7706 21.1516 94.273 23.0872C94.8367 25.6349 94.7552 27.9862 93.9543 30.034C93.0817 31.8049 92.2864 33.6839 92.8556 36.0645C93.3636 37.8313 94.36 39.5769 95.7781 40.858Z" fill="#7AB193" fill-opacity="0.82"/>
<path d="M139.832 30.4442C138.615 29.653 137.605 28.562 136.404 27.5641C136.056 27.3379 135.799 27.1176 135.452 26.8915C135.511 25.0269 136.2 23.3003 137.154 21.6911C138.2 20.0878 139.484 18.9115 141.01 18.1623C142.618 17.5228 144.234 16.7785 145.197 15.0664C145.852 13.7532 146.16 12.2139 145.913 10.7483C146.857 11.5248 147.718 12.1927 148.654 13.0721C149.167 13.5148 149.681 13.9574 150.293 14.301C150.069 15.9491 149.662 17.5865 148.906 18.9986C147.845 20.8097 146.451 22.1868 144.735 23.0292C143.127 23.6696 141.511 24.413 140.548 26.1261C139.893 27.4392 139.585 28.9786 139.832 30.4442Z" fill="#7AB193" fill-opacity="0.82"/>
<path d="M174.986 4.38331L178.617 10.2862C177.581 14.2215 175 17.2012 171.993 18.3696C170.086 19.1959 167.827 18.8553 166.275 20.7188C166.172 20.8435 165.975 20.8361 165.871 20.9608C165.444 21.8413 164.832 22.3315 164.596 23.3477C164.465 24.2405 164.041 24.9937 164.007 25.8901L160.377 19.986C161.07 17.3201 162.536 15.0677 164.374 13.4698C166.418 11.6248 168.593 11.5777 170.89 10.8946C173.192 10.0831 174.678 7.31957 174.986 4.38331Z" fill="#FFDA73" fill-opacity="0.63"/>
<path d="M108.014 26.3664L107.723 26.8456C105.742 28.3168 103.96 30.0007 102.012 31.5955C104.889 31.883 107.808 33.3601 108.811 36.0247C109.447 37.8538 109.526 39.7001 110.292 41.494C110.828 42.9502 111.328 44.2821 112.35 45.4725C114.131 47.392 116.364 48.9222 118.951 49.6886C120.832 47.8457 123.073 46.3037 124.953 44.4596C124.529 44.442 124.07 44.2985 123.612 44.1562C123.317 44.1022 123.186 44.1377 122.893 44.0846C120.86 43.3006 118.857 42.1081 118.155 40.0304C117.418 37.8283 117.333 35.4493 116.303 33.194C115.503 31.5556 114.355 30.1012 112.928 28.9261C111.501 27.751 109.827 26.8797 108.014 26.3664Z" fill="#FFDA73" fill-opacity="0.63"/>
</svg>
