<svg width="280" height="280" viewBox="0 0 280 280" fill="none" xmlns="http://www.w3.org/2000/svg">
<path d="M118.596 42.1673L53.0909 125.23C50.3319 128.694 81.2501 195.384 85.5705 194.416L219.263 164.402C223.584 163.433 222.956 89.9974 218.982 88.0485L124.325 40.8817C122.353 39.9132 119.97 40.4474 118.596 42.1673Z" fill="#6DADCC"/>
<path d="M193.907 41.74C193.325 39.1571 190.766 37.5369 188.183 38.1181L59.6853 66.9641C57.1024 67.5452 55.4823 70.1046 56.0634 72.6875L57.1963 77.7417L195.268 47.8273L193.907 41.74Z" fill="#221D2A"/>
<path d="M57.1963 77.7347L84.6863 200.186C85.2674 202.769 87.8268 204.389 90.4097 203.808L218.908 174.962C221.49 174.381 223.111 171.822 222.529 169.239L195.268 47.8203L57.1963 77.7347Z" fill="#FFEFCF"/>
<path d="M61.7552 73.0553C62.4393 73.0553 62.9938 72.5008 62.9938 71.8167C62.9938 71.1327 62.4393 70.5781 61.7552 70.5781C61.0711 70.5781 60.5166 71.1327 60.5166 71.8167C60.5166 72.5008 61.0711 73.0553 61.7552 73.0553Z" fill="#EC5F5B"/>
<path d="M65.6742 72.1764C66.3582 72.1764 66.9128 71.6219 66.9128 70.9378C66.9128 70.2538 66.3582 69.6992 65.6742 69.6992C64.9901 69.6992 64.4355 70.2538 64.4355 70.9378C64.4355 71.6219 64.9901 72.1764 65.6742 72.1764Z" fill="#FBBB33"/>
<path d="M69.515 71.3053C70.199 71.3053 70.7536 70.7508 70.7536 70.0667C70.7536 69.3827 70.199 68.8281 69.515 68.8281C68.8309 68.8281 68.2764 69.3827 68.2764 70.0667C68.2764 70.7508 68.8309 71.3053 69.515 71.3053Z" fill="#53AF42"/>
<path d="M67.8028 86.1133C69.5729 86.1133 71.0079 84.6784 71.0079 82.9082C71.0079 81.1381 69.5729 79.7031 67.8028 79.7031C66.0326 79.7031 64.5977 81.1381 64.5977 82.9082C64.5977 84.6784 66.0326 86.1133 67.8028 86.1133Z" fill="#FBBB33"/>
<path d="M83.9873 78.9305L73.8428 81.2031L74.0763 82.2456L84.2208 79.9731L83.9873 78.9305Z" fill="#F9B233"/>
<path d="M92.8582 80.7579L74.6543 84.8359L74.8878 85.8784L93.0918 81.8004L92.8582 80.7579Z" fill="#F9B233"/>
<path d="M93.6736 84.3536L75.4697 88.4316L75.7033 89.4742L93.9072 85.3961L93.6736 84.3536Z" fill="#F9B233"/>
<path d="M195.542 69.1835L66.2988 98.1367L66.3771 98.4861L195.62 69.5329L195.542 69.1835Z" fill="#F9B233"/>
<path d="M186.062 77.4984L78.4248 101.611L78.7366 103.003L186.373 78.8903L186.062 77.4984Z" fill="#FBBB33"/>
<path d="M187.346 83.2105L79.6982 107.279L80.0044 108.648L187.652 84.5796L187.346 83.2105Z" fill="#F6B93F"/>
<path d="M188.614 88.8419L80.999 113.076L81.3021 114.422L188.917 90.1877L188.614 88.8419Z" fill="#F1B74A"/>
<path d="M189.896 94.5618L82.2705 118.752L82.5679 120.075L190.194 95.8849L189.896 94.5618Z" fill="#EBB555"/>
<path d="M191.164 100.266L83.5381 124.412L83.8298 125.712L191.456 101.566L191.164 100.266Z" fill="#E6B45E"/>
<path d="M85.1128 131.391L84.8252 130.111L192.449 105.949L192.736 107.229L85.1128 131.391Z" fill="#E1B266"/>
<path d="M193.735 111.609L86.1201 135.844L86.4038 137.104L194.019 112.869L193.735 111.609Z" fill="#DCB06E"/>
<path d="M195.022 117.331L87.3965 141.521L87.6745 142.759L195.3 118.568L195.022 117.331Z" fill="#D6AF76"/>
<path d="M196.293 123.072L88.6562 147.207L88.9285 148.421L196.565 124.286L196.293 123.072Z" fill="#D1AD7D"/>
<path d="M197.588 128.786L89.9404 152.877L90.2071 154.069L197.855 129.978L197.588 128.786Z" fill="#CCAB84"/>
<path d="M198.835 134.415L91.2207 158.639L91.485 159.813L199.1 135.589L198.835 134.415Z" fill="#C6A98A"/>
<path d="M200.132 140.114L92.5059 164.293L92.7645 165.444L200.39 141.265L200.132 140.114Z" fill="#C1A790"/>
<path d="M201.408 145.86L93.7715 169.984L94.0244 171.113L201.661 146.989L201.408 145.86Z" fill="#BBA696"/>
<path d="M202.69 151.57L95.042 175.639L95.2892 176.744L202.937 152.676L202.69 151.57Z" fill="#B5A49B"/>
<path d="M96.5786 182.47L96.332 181.384L203.961 157.223L204.208 158.309L96.5786 182.47Z" fill="#AFA2A0"/>
<path d="M205.227 162.894L97.6123 187.117L97.8521 188.182L205.467 163.959L205.227 162.894Z" fill="#A9A0A5"/>
<path d="M206.523 168.633L98.8857 192.746L99.1193 193.789L206.756 169.676L206.523 168.633Z" fill="#A39EAA"/>
<path d="M141.906 161.559L59.2948 123.596C55.5497 121.876 51.4523 125.187 52.3563 129.214L76.512 236.808C77.416 240.829 82.5348 242.074 85.1823 238.921L143.637 169.29C145.751 166.765 144.894 162.926 141.906 161.559Z" fill="#93C2D9"/>
<path d="M156.012 166.514L238.623 204.476C242.368 206.196 246.466 202.886 245.562 198.859L221.406 91.2645C220.502 87.2435 215.383 85.999 212.736 89.1513L154.281 158.783C152.161 161.301 153.024 165.141 156.012 166.514Z" fill="#93C2D9"/>
<path d="M143.129 152.284L78.2756 233.668C75.3463 237.342 78.6747 242.661 83.2593 241.628L241.531 206.095C246.115 205.068 246.855 198.84 242.634 196.768L149.216 150.916C147.121 149.883 144.585 150.452 143.129 152.284Z" fill="#B6D4E3"/>
<path d="M30.1026 112.468C31.2649 112.468 32.2159 111.535 32.2394 110.373C32.2628 109.193 31.3236 108.218 30.1437 108.195L2.17826 107.667C0.951397 107.637 0.0239115 108.582 0.000430843 109.762C-0.0230498 110.942 0.916176 111.917 2.09608 111.94L30.0615 112.468C30.0733 112.468 30.0909 112.468 30.1026 112.468Z" fill="#FBBB33"/>
<path d="M49.2757 183.481C48.7356 182.43 47.4442 182.025 46.3934 182.565L21.5391 195.403C20.4884 195.943 20.0775 197.235 20.6234 198.285C21.0049 199.019 21.7505 199.442 22.5253 199.442C22.854 199.442 23.1945 199.366 23.5056 199.201L48.3599 186.363C49.4107 185.817 49.8216 184.532 49.2757 183.481Z" fill="#FBBB33"/>
<path d="M37.8335 147.603C37.5634 146.452 36.4305 145.742 35.2682 146.006L9.12251 152.1C7.97195 152.37 7.26166 153.514 7.52582 154.665C7.75476 155.651 8.63528 156.314 9.60386 156.314C9.76235 156.314 9.92672 156.297 10.0911 156.261L36.2368 150.168C37.3873 149.904 38.0976 148.754 37.8335 147.603Z" fill="#FBBB33"/>
<path d="M277.903 140.849L249.938 140.321C248.699 140.292 247.784 141.237 247.76 142.417C247.737 143.597 248.676 144.571 249.856 144.594L277.821 145.123C277.833 145.123 277.851 145.123 277.862 145.123C279.025 145.123 279.976 144.189 279.999 143.027C280.023 141.847 279.083 140.867 277.903 140.849Z" fill="#FBBB33"/>
<path d="M259.372 54.5043C258.832 53.4536 257.541 53.0485 256.49 53.5886L231.636 66.4266C230.585 66.9667 230.174 68.2581 230.72 69.3089C231.102 70.0426 231.847 70.4653 232.622 70.4653C232.951 70.4653 233.291 70.389 233.602 70.2246L258.457 57.3866C259.501 56.8406 259.912 55.5551 259.372 54.5043Z" fill="#FBBB33"/>
<path d="M272.474 98.1186C272.204 96.968 271.065 96.2578 269.909 96.5219L243.763 102.615C242.613 102.885 241.902 104.03 242.166 105.18C242.395 106.167 243.276 106.83 244.244 106.83C244.403 106.83 244.567 106.812 244.732 106.777L270.877 100.684C272.028 100.42 272.738 99.2692 272.474 98.1186Z" fill="#FBBB33"/>
</svg>
