<svg width="14" height="21" viewBox="0 0 14 21" fill="none" xmlns="http://www.w3.org/2000/svg">
<path d="M12.3401 11.4502C13.1818 10.4362 13.7174 9.20336 13.8842 7.89603C14.0511 6.58871 13.8422 5.26091 13.282 4.06795C12.7219 2.87499 11.8336 1.86619 10.7211 1.15955C9.60867 0.452904 8.31799 0.0776367 7.00006 0.0776367C5.68214 0.0776367 4.39146 0.452904 3.27899 1.15955C2.16652 1.86619 1.27826 2.87499 0.718109 4.06795C0.157955 5.26091 -0.0509335 6.58871 0.115877 7.89603C0.282687 9.20336 0.818298 10.4362 1.66006 11.4502L2.89006 13.6602L3.57006 15.5302H3.37006C3.2614 15.5613 3.16581 15.6269 3.09776 15.7171C3.0297 15.8073 2.99289 15.9172 2.99289 16.0302C2.99289 16.1432 3.0297 16.2532 3.09776 16.3434C3.16581 16.4336 3.2614 16.4992 3.37006 16.5302H3.63006V17.7302C3.61578 17.7995 3.61578 17.871 3.63006 17.9402L4.43006 19.7302C4.47083 19.8205 4.53698 19.8969 4.62044 19.9502C4.70389 20.0034 4.80106 20.0313 4.90006 20.0302H9.02006C9.11907 20.0313 9.21623 20.0034 9.29969 19.9502C9.38315 19.8969 9.4493 19.8205 9.49006 19.7302L10.2901 17.9402C10.3043 17.871 10.3043 17.7995 10.2901 17.7302V16.5302H10.5501C10.6587 16.4992 10.7543 16.4336 10.8224 16.3434C10.8904 16.2532 10.9272 16.1432 10.9272 16.0302C10.9272 15.9172 10.8904 15.8073 10.8224 15.7171C10.7543 15.6269 10.6587 15.5613 10.5501 15.5302H10.3501L11.0301 13.6702L12.3401 11.4502ZM9.34006 15.5202H7.52006V9.73024C8.0132 9.60812 8.44459 9.30974 8.73284 8.89139C9.0211 8.47305 9.14627 7.96368 9.08476 7.45938C9.02324 6.95508 8.77929 6.49073 8.39893 6.15395C8.01857 5.81716 7.5281 5.63123 7.02006 5.63123C6.51203 5.63123 6.02156 5.81716 5.6412 6.15395C5.26083 6.49073 5.01688 6.95508 4.95537 7.45938C4.89385 7.96368 5.01903 8.47305 5.30728 8.89139C5.59553 9.30974 6.02692 9.60812 6.52006 9.73024V15.5202H4.65006C4.65488 15.4804 4.65488 15.4401 4.65006 15.4002L3.86006 13.2602V13.1902L2.61006 10.9402C2.58693 10.898 2.56016 10.8578 2.53006 10.8202C1.79844 9.9609 1.32817 8.91005 1.17485 7.79191C1.02153 6.67378 1.19157 5.53512 1.66487 4.51056C2.13817 3.486 2.89494 2.61839 3.8457 2.01029C4.79646 1.40219 5.90147 1.07904 7.03006 1.07904C8.15866 1.07904 9.26366 1.40219 10.2144 2.01029C11.1652 2.61839 11.9219 3.486 12.3952 4.51056C12.8685 5.53512 13.0386 6.67378 12.8853 7.79191C12.732 8.91005 12.2617 9.9609 11.5301 10.8202L11.4601 10.9302L10.2001 13.1902V13.2602L9.41006 15.4002C9.38476 15.4374 9.36458 15.4777 9.35006 15.5202H9.34006ZM4.65006 16.5202H9.33006V17.6102L8.73006 19.0002H5.27006L4.66006 17.6202L4.65006 16.5202ZM7.00006 8.76024C6.80471 8.75046 6.61651 8.68361 6.45877 8.56795C6.30103 8.45229 6.18067 8.29292 6.11259 8.10955C6.04451 7.92618 6.0317 7.72687 6.07575 7.5363C6.1198 7.34572 6.21877 7.17225 6.36041 7.03736C6.50205 6.90246 6.68014 6.81206 6.87263 6.77736C7.06513 6.74265 7.26358 6.76516 7.44341 6.8421C7.62324 6.91904 7.77656 7.04703 7.88439 7.21022C7.99222 7.37341 8.04982 7.56464 8.05006 7.76024C8.05023 7.89588 8.02281 8.03013 7.96946 8.15484C7.9161 8.27954 7.83794 8.39209 7.73972 8.48563C7.6415 8.57917 7.52528 8.65176 7.39812 8.69897C7.27096 8.74618 7.13553 8.76702 7.00006 8.76024Z" fill="#BE5817"/>
</svg>
