<svg width="24" height="25" viewBox="0 0 24 25" fill="none" xmlns="http://www.w3.org/2000/svg">
<path d="M11.9998 3.67021C10.6221 3.67082 9.27289 4.06291 8.10941 4.8008C6.94593 5.53869 6.01607 6.592 5.42817 7.83801C4.84028 9.08402 4.61854 10.4714 4.78879 11.8386C4.95905 13.2058 5.51429 14.4964 6.38983 15.5602L7.58983 17.7202L8.12983 19.1702C7.95645 19.2202 7.80409 19.3253 7.69582 19.4697C7.58756 19.6141 7.52928 19.7898 7.52983 19.9702C7.53159 20.1796 7.61154 20.3809 7.75399 20.5344C7.89644 20.688 8.09111 20.7828 8.29983 20.8002V21.6802C8.3001 21.7982 8.32747 21.9145 8.37983 22.0202L9.16983 23.8102C9.23475 23.9601 9.34243 24.0874 9.4794 24.1764C9.61637 24.2653 9.77653 24.3119 9.93983 24.3102H14.0598C14.2229 24.3106 14.3825 24.2635 14.5192 24.1747C14.6559 24.0859 14.7638 23.9593 14.8298 23.8102L15.6198 22.0002C15.6722 21.8945 15.6996 21.7782 15.6998 21.6602V20.8002C15.9085 20.7828 16.1032 20.688 16.2457 20.5344C16.3881 20.3809 16.4681 20.1796 16.4698 19.9702C16.4704 19.7898 16.4121 19.6141 16.3038 19.4697C16.1956 19.3253 16.0432 19.2202 15.8698 19.1702L16.4098 17.7202L17.6098 15.5602C18.4854 14.4964 19.0406 13.2058 19.2109 11.8386C19.3811 10.4714 19.1594 9.08402 18.5715 7.83801C17.9836 6.592 17.0537 5.53869 15.8902 4.8008C14.7268 4.06291 13.3776 3.67082 11.9998 3.67021ZM13.9998 21.5102L13.4998 22.6302H10.4998L9.99983 21.5102V20.8102H13.9998V21.5102ZM11.3298 13.2402L10.0898 12.0002C9.94681 11.8695 9.8547 11.6924 9.82983 11.5002C9.79981 11.3785 9.79959 11.2513 9.82918 11.1294C9.85878 11.0076 9.91731 10.8946 9.99983 10.8002C10.065 10.7109 10.1489 10.6369 10.2456 10.5834C10.3423 10.5298 10.4496 10.498 10.5598 10.4902H10.6698C10.7802 10.4884 10.8897 10.5096 10.9913 10.5527C11.0929 10.5958 11.1844 10.6596 11.2598 10.7402L11.5498 11.0202L11.6798 11.1602C11.7588 11.2414 11.8666 11.2881 11.9798 11.2902C12.093 11.2881 12.2008 11.2414 12.2798 11.1602L12.6798 10.7502C12.7968 10.6374 12.9418 10.558 13.0998 10.5202C13.215 10.4925 13.3347 10.489 13.4514 10.5097C13.568 10.5305 13.6791 10.5751 13.7777 10.6409C13.8763 10.7066 13.9603 10.792 14.0243 10.8917C14.0883 10.9914 14.1311 11.1032 14.1498 11.2202C14.1777 11.3562 14.1693 11.4971 14.1254 11.6287C14.0815 11.7604 14.0037 11.8782 13.8998 11.9702C13.7098 12.1702 13.5098 12.3702 13.3098 12.5602L11.9998 13.8802L11.4198 13.3002L11.3298 13.2402ZM16.2498 14.5402C16.2088 14.5904 16.172 14.6439 16.1398 14.7002L14.9098 17.0002C14.8859 17.0381 14.8658 17.0783 14.8498 17.1202L14.0998 19.1702H12.8398V14.6702C12.8395 14.5573 12.8084 14.4467 12.7498 14.3502L13.9198 13.1902L14.5198 12.5902C14.7813 12.3274 14.9496 11.9863 14.9993 11.6189C15.0489 11.2515 14.977 10.878 14.7947 10.5552C14.6124 10.2324 14.3295 9.97806 13.9892 9.83094C13.6489 9.68381 13.2699 9.65195 12.9098 9.74021C12.605 9.81485 12.3277 9.97435 12.1098 10.2002L11.9998 10.3002L11.8598 10.1602C11.6809 9.98522 11.4648 9.85296 11.2275 9.7733C10.9903 9.69364 10.7381 9.66865 10.4898 9.70021C10.0527 9.74691 9.65091 9.96214 9.36983 10.3002C9.09816 10.6315 8.96077 11.0528 8.98485 11.4805C9.00892 11.9083 9.1927 12.3115 9.49983 12.6102L10.7598 13.8702L10.8298 13.9302L11.2498 14.3502C11.1913 14.4467 11.1601 14.5573 11.1598 14.6702V19.1702H9.89983L9.14983 17.1202C9.13389 17.0783 9.11379 17.0381 9.08983 17.0002L7.83983 14.7502C7.81273 14.6879 7.77556 14.6305 7.72983 14.5802C7.04205 13.7662 6.60131 12.7725 6.45952 11.7163C6.31774 10.66 6.48083 9.5853 6.92958 8.61869C7.37832 7.65208 8.09402 6.83389 8.99233 6.26053C9.89065 5.68718 10.9341 5.38255 11.9998 5.38255C13.0655 5.38255 14.109 5.68718 15.0073 6.26053C15.9056 6.83389 16.6213 7.65208 17.0701 8.61869C17.5188 9.5853 17.6819 10.66 17.5401 11.7163C17.3984 12.7725 16.9576 13.7662 16.2698 14.5802L16.2498 14.5402Z" fill="#BE5817"/>
<path d="M23.1698 10.8802H21.1098C21.0499 10.8709 20.9887 10.8746 20.9304 10.8912C20.8721 10.9078 20.8181 10.9368 20.772 10.9762C20.726 11.0156 20.689 11.0646 20.6637 11.1196C20.6383 11.1747 20.6252 11.2346 20.6252 11.2952C20.6252 11.3558 20.6383 11.4157 20.6637 11.4708C20.689 11.5259 20.726 11.5748 20.772 11.6142C20.8181 11.6537 20.8721 11.6826 20.9304 11.6992C20.9887 11.7158 21.0499 11.7195 21.1098 11.7102H23.1698C23.2297 11.7195 23.2909 11.7158 23.3492 11.6992C23.4076 11.6826 23.4616 11.6537 23.5076 11.6142C23.5537 11.5748 23.5906 11.5259 23.616 11.4708C23.6413 11.4157 23.6544 11.3558 23.6544 11.2952C23.6544 11.2346 23.6413 11.1747 23.616 11.1196C23.5906 11.0646 23.5537 11.0156 23.5076 10.9762C23.4616 10.9368 23.4076 10.9078 23.3492 10.8912C23.2909 10.8746 23.2297 10.8709 23.1698 10.8802Z" fill="#BE5817"/>
<path d="M21.3498 4.45021C21.3181 4.40567 21.2778 4.36792 21.2312 4.33921C21.1847 4.31049 21.1328 4.29137 21.0788 4.28298C21.0247 4.2746 20.9696 4.27711 20.9165 4.29037C20.8634 4.30363 20.8136 4.32738 20.7698 4.36021L19.0998 5.58021C19.0141 5.6475 18.9572 5.7448 18.9405 5.85247C18.9238 5.96013 18.9486 6.07012 19.0098 6.16021C19.0406 6.20742 19.081 6.24761 19.1283 6.27813C19.1757 6.30865 19.229 6.32882 19.2847 6.33732C19.3404 6.34581 19.3972 6.34244 19.4516 6.32743C19.5059 6.31242 19.5564 6.28611 19.5998 6.25021L21.2598 5.00021C21.3395 4.93539 21.3926 4.84363 21.4092 4.74229C21.4258 4.64094 21.4047 4.53704 21.3498 4.45021Z" fill="#BE5817"/>
<path d="M14.7498 3.05021H14.8798C14.9682 3.04885 15.0541 3.02029 15.1256 2.96839C15.1972 2.9165 15.2511 2.8438 15.2798 2.76021L15.9298 0.760209C15.947 0.707683 15.9536 0.652289 15.9493 0.597201C15.945 0.542112 15.9299 0.488412 15.9048 0.439177C15.8797 0.389942 15.8452 0.346141 15.8031 0.310282C15.7611 0.274423 15.7124 0.247212 15.6598 0.230208C15.555 0.197719 15.4417 0.20655 15.3432 0.254889C15.2446 0.303228 15.1683 0.387417 15.1298 0.490208L14.4798 2.49021C14.4579 2.54448 14.4476 2.60274 14.4495 2.66125C14.4514 2.71976 14.4655 2.77722 14.4909 2.82995C14.5163 2.88268 14.5525 2.92951 14.5971 2.96744C14.6417 3.00537 14.6937 3.03356 14.7498 3.05021Z" fill="#BE5817"/>
<path d="M8.71983 2.78021C8.7486 2.8638 8.80245 2.9365 8.87402 2.98839C8.9456 3.04028 9.03143 3.06885 9.11983 3.07021H9.24983C9.3024 3.0532 9.3511 3.02599 9.39314 2.99013C9.43518 2.95427 9.46974 2.91047 9.49482 2.86124C9.5199 2.812 9.53502 2.7583 9.53931 2.70322C9.5436 2.64813 9.53698 2.59273 9.51983 2.54021L8.86983 0.540208C8.83136 0.437416 8.75503 0.353227 8.6565 0.304888C8.55796 0.256549 8.44467 0.247719 8.33983 0.280207C8.28726 0.297212 8.23855 0.324423 8.19652 0.360282C8.15448 0.396141 8.11992 0.439942 8.09484 0.489177C8.06976 0.538411 8.05464 0.592111 8.05035 0.647199C8.04606 0.702288 8.05268 0.757683 8.06983 0.810208L8.71983 2.78021Z" fill="#BE5817"/>
<path d="M4.99983 6.16021C5.0611 6.07012 5.08588 5.96013 5.06918 5.85247C5.05247 5.7448 4.99552 5.6475 4.90983 5.58021L3.23983 4.36021C3.19608 4.32738 3.14621 4.30363 3.09315 4.29037C3.04009 4.27711 2.98491 4.2746 2.93086 4.28298C2.87682 4.29137 2.82499 4.31049 2.77845 4.33921C2.7319 4.36792 2.69157 4.40567 2.65983 4.45021C2.62674 4.49476 2.60281 4.54543 2.58941 4.59928C2.57602 4.65314 2.57343 4.70911 2.5818 4.76398C2.59017 4.81884 2.60933 4.87149 2.63817 4.91891C2.66701 4.96632 2.70496 5.00755 2.74983 5.04021L4.40983 6.25021C4.45326 6.28611 4.50379 6.31242 4.5581 6.32743C4.61241 6.34244 4.66928 6.34581 4.72498 6.33732C4.78068 6.32882 4.83396 6.30865 4.88133 6.27813C4.92869 6.24761 4.96907 6.20742 4.99983 6.16021Z" fill="#BE5817"/>
<path d="M2.88983 10.8802H0.829828C0.769931 10.8709 0.708724 10.8746 0.650414 10.8912C0.592103 10.9078 0.538071 10.9368 0.492027 10.9762C0.445984 11.0156 0.409021 11.0646 0.383678 11.1196C0.358336 11.1747 0.345215 11.2346 0.345215 11.2952C0.345215 11.3558 0.358336 11.4157 0.383678 11.4708C0.409021 11.5259 0.445984 11.5748 0.492027 11.6142C0.538071 11.6537 0.592103 11.6826 0.650414 11.6992C0.708724 11.7158 0.769931 11.7195 0.829828 11.7102H2.88983C2.94973 11.7195 3.01093 11.7158 3.06924 11.6992C3.12755 11.6826 3.18159 11.6537 3.22763 11.6142C3.27367 11.5748 3.31063 11.5259 3.33598 11.4708C3.36132 11.4157 3.37444 11.3558 3.37444 11.2952C3.37444 11.2346 3.36132 11.1747 3.33598 11.1196C3.31063 11.0646 3.27367 11.0156 3.22763 10.9762C3.18159 10.9368 3.12755 10.9078 3.06924 10.8912C3.01093 10.8746 2.94973 10.8709 2.88983 10.8802Z" fill="#BE5817"/>
</svg>
