<svg width="21" height="21" viewBox="0 0 21 21" fill="none" xmlns="http://www.w3.org/2000/svg">
<path d="M19.8946 18.4385L14.8346 13.3785C16.1309 11.7112 16.742 9.61212 16.5432 7.50961C16.3444 5.40711 15.3506 3.45974 13.7648 2.06503C12.179 0.670311 10.1207 -0.066594 8.01001 0.00473413C5.89933 0.0760622 3.89545 0.950245 2.40741 2.44884C0.91937 3.94743 0.0593708 5.95744 0.00296081 8.06857C-0.0534492 10.1797 0.697985 12.2328 2.10387 13.8087C3.50976 15.3846 5.4641 16.3646 7.56796 16.5485C9.67181 16.7324 11.7666 16.1065 13.4246 14.7985L18.4246 19.8585C18.5204 19.9536 18.6345 20.0283 18.7599 20.0781C18.8854 20.128 19.0196 20.1519 19.1546 20.1485C19.3532 20.1496 19.5477 20.0916 19.7132 19.9818C19.8787 19.872 20.0078 19.7154 20.084 19.5319C20.1601 19.3485 20.1799 19.1465 20.1409 18.9518C20.1018 18.757 20.0056 18.5783 19.8646 18.4385H19.8946ZM8.33459 14.5685C7.10637 14.5685 5.90573 14.2043 4.8845 13.5219C3.86327 12.8395 3.06732 11.8697 2.5973 10.7349C2.12728 9.6002 2.0043 8.35158 2.24391 7.14696C2.48353 5.94234 3.07497 4.83582 3.94346 3.96733C4.81194 3.09885 5.91846 2.50741 7.12308 2.26779C8.3277 2.02818 9.57633 2.15116 10.7111 2.62118C11.8458 3.0912 12.8157 3.88715 13.498 4.90838C14.1804 5.92961 14.5446 7.13025 14.5446 8.35847C14.5446 10.0055 13.8903 11.585 12.7257 12.7496C11.5611 13.9142 9.98159 14.5685 8.33459 14.5685Z" fill="#BE5817"/>
<path d="M11.0545 6.07876C10.8193 5.91686 10.5521 5.8072 10.2709 5.75718C9.98977 5.70716 9.70115 5.71793 9.42451 5.78876C9.04357 5.86768 8.69516 6.05931 8.42451 6.33876L8.29451 6.45876L8.15451 6.29876C7.94064 6.0884 7.6822 5.92885 7.39831 5.83191C7.11442 5.73497 6.81237 5.70314 6.51451 5.73876C6.12391 5.76796 5.75049 5.9112 5.44057 6.15071C5.13066 6.39023 4.89789 6.71547 4.77116 7.08608C4.64443 7.45669 4.62931 7.85636 4.72768 8.23549C4.82605 8.61462 5.03357 8.95652 5.32451 9.21876L6.92451 10.8188L7.86451 11.7688C7.90061 11.8378 7.95333 11.8969 8.01792 11.9405C8.08251 11.9842 8.15694 12.011 8.23451 12.0188H8.30451C8.43616 12.0158 8.56158 11.9621 8.65451 11.8688L8.75451 11.7688L8.91451 11.5988L10.6245 9.90876L11.3345 9.18876C11.563 8.96603 11.7348 8.69186 11.8357 8.38917C11.9366 8.08647 11.9636 7.76403 11.9145 7.44876C11.8705 7.17437 11.7716 6.91166 11.6239 6.67628C11.4761 6.44091 11.2825 6.2377 11.0545 6.07876ZM10.6345 8.49876L8.33451 10.7988L7.63451 10.1088L7.55451 10.0288L6.04451 8.50876C5.87103 8.35228 5.75781 8.14 5.72451 7.90876C5.7004 7.77201 5.70504 7.63173 5.73813 7.49687C5.77122 7.36201 5.83203 7.23552 5.9167 7.12545C6.00136 7.01538 6.10803 6.92416 6.22989 6.85758C6.35175 6.79101 6.48614 6.75054 6.62451 6.73876H6.76451C6.89611 6.738 7.02658 6.76323 7.14841 6.81299C7.27025 6.86276 7.38107 6.93608 7.47451 7.02876L7.81451 7.37876L7.97451 7.53876C8.073 7.63232 8.20366 7.68448 8.33951 7.68448C8.47535 7.68448 8.60601 7.63232 8.7045 7.53876L9.17451 7.06876C9.31029 6.92865 9.48409 6.83132 9.67451 6.78876C9.81298 6.7503 9.95811 6.74213 10.1 6.76482C10.2419 6.7875 10.3773 6.84051 10.4969 6.92023C10.6164 6.99994 10.7174 7.1045 10.793 7.22677C10.8685 7.34904 10.9168 7.48615 10.9345 7.62876C10.9578 7.7872 10.9427 7.94893 10.8905 8.10032C10.8383 8.25172 10.7505 8.38837 10.6345 8.49876Z" fill="#BE5817"/>
</svg>
