<svg width="21" height="21" viewBox="0 0 21 21" fill="none" xmlns="http://www.w3.org/2000/svg">
<path d="M19.9467 18.9603L14.4367 13.4503C15.7977 11.8343 16.4807 9.75434 16.3425 7.64606C16.2043 5.53778 15.2558 3.56473 13.6955 2.14014C12.1352 0.715549 10.0842 -0.0500739 7.97211 0.0036215C5.85999 0.0573169 3.85057 0.926165 2.36469 2.4282C0.878807 3.93023 0.0317328 5.94893 0.000873585 8.0615C-0.0299856 10.1741 0.757765 12.2167 2.19914 13.7615C3.64051 15.3062 5.6237 16.2334 7.73335 16.3488C9.843 16.4641 11.9155 15.7588 13.5167 14.3803L19.0267 19.8803C19.0861 19.9421 19.1576 19.9908 19.2368 20.0235C19.316 20.0562 19.4011 20.0722 19.4867 20.0703C19.5721 20.0704 19.6567 20.0537 19.7356 20.0211C19.8145 19.9885 19.8863 19.9407 19.9467 19.8803C20.0664 19.7572 20.1334 19.5921 20.1334 19.4203C20.1334 19.2486 20.0664 19.0835 19.9467 18.9603ZM8.2067 15.0703C6.85405 15.0624 5.53402 14.6542 4.41304 13.8972C3.29205 13.1402 2.42029 12.0682 1.90766 10.8164C1.39504 9.56467 1.26449 8.18915 1.53249 6.86329C1.80049 5.53744 2.45504 4.32061 3.4136 3.36622C4.37217 2.41183 5.59184 1.7626 6.91885 1.50039C8.24586 1.23818 9.62079 1.37472 10.8703 1.89281C12.1198 2.41089 13.188 3.28732 13.9401 4.4116C14.6923 5.53588 15.0947 6.85768 15.0967 8.21034C15.098 9.11411 14.9205 10.0092 14.5744 10.8441C14.2282 11.6789 13.7203 12.437 13.0798 13.0747C12.4393 13.7124 11.679 14.217 10.8427 14.5595C10.0063 14.902 9.11045 15.0756 8.2067 15.0703Z" fill="#BE5817"/>
</svg>
