<svg width="22" height="26" viewBox="0 0 22 26" fill="none" xmlns="http://www.w3.org/2000/svg">
<path d="M21.5359 8.88502C21.4981 8.62466 21.4056 8.37526 21.2644 8.15325C21.1232 7.93124 20.9366 7.74167 20.7169 7.59702C20.4989 7.44916 20.2524 7.34849 19.9932 7.30147C19.7341 7.25446 19.4679 7.26214 19.2119 7.32402C18.87 7.40917 18.5579 7.58582 18.3089 7.83502L18.1899 7.96102L18.0359 7.80002C17.8349 7.60517 17.593 7.45756 17.3279 7.36796C17.0627 7.27835 16.7808 7.24899 16.5029 7.28202C16.2514 7.31134 16.0082 7.39053 15.7877 7.51496C15.5672 7.63938 15.3737 7.80654 15.2186 8.00665C15.0634 8.20676 14.9498 8.43581 14.8842 8.68039C14.8187 8.92496 14.8026 9.18015 14.8369 9.43102C14.8954 9.84968 15.0926 10.2366 15.3969 10.53C15.8939 11.02 16.3909 11.517 16.8809 12.014L17.7629 12.896C17.7969 12.9602 17.8458 13.0153 17.9055 13.0567C17.9651 13.0981 18.0339 13.1246 18.1059 13.134H18.1689C18.2944 13.1308 18.4142 13.0809 18.5049 12.994L18.5959 12.896L18.7429 12.742L20.3249 11.167C20.5489 10.95 20.7729 10.726 21.0249 10.502C21.2325 10.2925 21.3871 10.0366 21.476 9.75534C21.5648 9.47412 21.5854 9.17577 21.5359 8.88502ZM20.3319 9.85103L19.6739 10.516L18.1899 12L17.5389 11.356L16.0549 9.90003C15.8959 9.75232 15.7922 9.55474 15.7609 9.34002C15.7383 9.20742 15.7455 9.07147 15.7818 8.94195C15.8181 8.81244 15.8827 8.69259 15.9709 8.59102C16.0477 8.49474 16.143 8.4148 16.2512 8.35589C16.3594 8.29699 16.4783 8.26031 16.6009 8.24802H16.7269C16.8492 8.24733 16.9705 8.27113 17.0835 8.31802C17.1965 8.3649 17.299 8.43393 17.3849 8.52102C17.4969 8.61902 17.5949 8.72402 17.6999 8.83602L17.8539 8.99702C17.9452 9.08195 18.0652 9.12942 18.1899 9.13002C18.2515 9.13095 18.3125 9.11898 18.3692 9.09486C18.4259 9.07075 18.4769 9.03504 18.5189 8.99003L18.9739 8.53502C19.1 8.40642 19.2603 8.31655 19.4359 8.27602C19.5658 8.24493 19.7008 8.24132 19.8322 8.26543C19.9636 8.28954 20.0885 8.34083 20.1989 8.41602C20.3094 8.48799 20.4034 8.58262 20.4746 8.69364C20.5458 8.80467 20.5926 8.92955 20.6119 9.06002C20.6321 9.20466 20.6172 9.35205 20.5685 9.48972C20.5198 9.6274 20.4386 9.75132 20.3319 9.85103Z" fill="#BE5817"/>
<path d="M18.1058 5.39909L18.5328 6.04309C18.5436 6.08684 18.5653 6.12713 18.5959 6.16019C18.6265 6.19325 18.665 6.21799 18.7078 6.23209H18.7498C18.7869 6.24061 18.8254 6.24127 18.8628 6.23404C18.9001 6.2268 18.9356 6.21184 18.9668 6.19009L19.0368 6.14809L19.1418 6.07109L20.2898 5.30809L20.7798 4.98609C20.934 4.88604 21.062 4.75064 21.1533 4.59115C21.2447 4.43166 21.2966 4.25269 21.3048 4.06909C21.3114 3.90639 21.2844 3.74407 21.2254 3.5923C21.1663 3.44053 21.0766 3.30258 20.9618 3.18709C20.8477 3.06998 20.7102 2.97827 20.5582 2.91796C20.4062 2.85765 20.2432 2.83009 20.0798 2.83709C19.8621 2.84769 19.6514 2.91792 19.4708 3.04009L19.3868 3.09609L19.3098 2.98409C19.2131 2.84107 19.0856 2.72156 18.9366 2.63433C18.7876 2.54711 18.6209 2.49441 18.4488 2.48009C18.1458 2.45386 17.8445 2.54677 17.6088 2.73909C17.4797 2.84323 17.3746 2.97412 17.3009 3.12276C17.2272 3.2714 17.1866 3.43425 17.1818 3.60009C17.1747 3.84994 17.2484 4.09542 17.3918 4.30009L18.1058 5.39909ZM17.9798 3.19409C18.0976 3.09817 18.2487 3.05286 18.3998 3.06809H18.4768C18.627 3.10009 18.7595 3.18759 18.8478 3.31309L18.9948 3.54409L19.0718 3.65609C19.091 3.68924 19.1172 3.71773 19.1487 3.73952C19.1802 3.7613 19.2161 3.77584 19.2538 3.78209C19.2909 3.79106 19.3295 3.79195 19.3669 3.7847C19.4043 3.77745 19.4398 3.76224 19.4708 3.74009L19.7998 3.51609C19.8926 3.45254 20.0024 3.41839 20.1148 3.41809C20.1975 3.41532 20.2798 3.42941 20.3568 3.45949C20.4339 3.48958 20.504 3.53504 20.5628 3.59309C20.6212 3.64994 20.6665 3.71886 20.6956 3.79503C20.7246 3.8712 20.7366 3.95279 20.7308 4.03409C20.7288 4.12914 20.7035 4.22225 20.6571 4.30524C20.6108 4.38823 20.5447 4.45857 20.4648 4.51009L19.9818 4.82509L18.9038 5.52509L18.5888 5.05609L17.8888 3.97109C17.7986 3.84891 17.7597 3.69622 17.7806 3.54575C17.8016 3.39528 17.8806 3.25899 18.0008 3.16609L17.9798 3.19409Z" fill="#BE5817"/>
<path d="M14.7668 2.34705L15.4668 2.71105L15.8938 2.92105C15.9153 2.9381 15.9401 2.9506 15.9665 2.95782C15.993 2.96504 16.0207 2.96682 16.0478 2.96305C16.0708 2.95625 16.0921 2.94461 16.1102 2.92891C16.1283 2.91322 16.1428 2.89383 16.1528 2.87205V2.83005C16.1673 2.80577 16.1791 2.77995 16.1878 2.75305L16.5798 1.99705C16.6358 1.89205 16.6848 1.78005 16.7408 1.67505C16.7936 1.57466 16.8211 1.46295 16.8211 1.34955C16.8211 1.23615 16.7936 1.12445 16.7408 1.02405C16.6971 0.933711 16.6345 0.853827 16.5572 0.789815C16.4799 0.725803 16.3897 0.679161 16.2928 0.653052C16.1959 0.62535 16.0943 0.61789 15.9943 0.631136C15.8944 0.644383 15.7982 0.678053 15.7118 0.730051C15.6006 0.805003 15.5093 0.905909 15.4458 1.02405V1.08005L15.3688 1.04505C15.273 0.998074 15.1676 0.97365 15.0608 0.97365C14.9541 0.97365 14.8487 0.998074 14.7528 1.04505C14.6681 1.08259 14.5917 1.13657 14.528 1.20386C14.4643 1.27115 14.4147 1.35041 14.3818 1.43705C14.3392 1.5292 14.3171 1.62952 14.3171 1.73105C14.3171 1.83259 14.3392 1.93291 14.3818 2.02505C14.466 2.17628 14.6031 2.291 14.7668 2.34705ZM14.7668 1.56305C14.7843 1.48118 14.8318 1.40879 14.8998 1.36005H14.9418C14.9849 1.34136 15.0314 1.33172 15.0783 1.33172C15.1253 1.33172 15.1718 1.34136 15.2148 1.36005L15.3688 1.43705L15.4458 1.47205C15.4663 1.49075 15.4916 1.5033 15.5188 1.50825C15.546 1.51321 15.5741 1.51036 15.5998 1.50005C15.6228 1.49325 15.6441 1.48161 15.6622 1.46592C15.6803 1.45022 15.6948 1.43083 15.7048 1.40905L15.8168 1.19205C15.8471 1.13009 15.8929 1.07703 15.9498 1.03805C16.0395 0.988401 16.145 0.975837 16.2438 1.00305C16.2931 1.01524 16.3391 1.03778 16.3789 1.06916C16.4188 1.10054 16.4515 1.14005 16.4748 1.18505C16.5043 1.23613 16.5198 1.29407 16.5198 1.35305C16.5198 1.41203 16.5043 1.46997 16.4748 1.52105L16.3138 1.84305L15.9498 2.54305L15.6418 2.38205L14.9418 2.01805C14.903 2.003 14.8676 1.98041 14.8375 1.95157C14.8075 1.92274 14.7835 1.88823 14.7668 1.85005C14.7412 1.80729 14.7253 1.75935 14.7205 1.70971C14.7156 1.66007 14.7219 1.60997 14.7388 1.56305H14.7668Z" fill="#BE5817"/>
<path d="M18.1688 13.883H18.0498C17.9297 13.8993 17.8141 13.9393 17.7096 14.0005C17.605 14.0618 17.5137 14.1432 17.4408 14.24C17.3627 14.3372 17.3061 14.4498 17.2747 14.5705C17.2434 14.6911 17.2379 14.8171 17.2588 14.94C17.5512 16.6579 17.4628 18.419 16.9998 20.099C16.7298 21.0333 16.192 21.868 15.4528 22.5C14.6703 23.112 13.7021 23.438 12.7088 23.424C12.3585 23.4234 12.0092 23.3882 11.6658 23.319C9.8458 22.955 8.6698 21.45 8.1658 18.839C7.93317 17.539 7.86263 16.2153 7.9558 14.898H8.5998C8.79193 14.898 8.98217 14.8601 9.15967 14.7866C9.33717 14.7131 9.49845 14.6053 9.6343 14.4695C9.77015 14.3336 9.87792 14.1723 9.95144 13.9948C10.025 13.8173 10.0628 13.6271 10.0628 13.435V13.036C10.6075 12.7834 11.1199 12.4661 11.5888 12.091C12.7179 11.2332 13.4867 9.98528 13.7448 8.59098C14.0318 6.95998 13.5558 5.13298 12.3448 3.15198C12.3448 3.15198 12.3448 3.18698 12.3448 3.20798C12.518 2.92855 12.6129 2.6077 12.6195 2.27901C12.6262 1.95033 12.5444 1.62589 12.3827 1.33967C12.221 1.05344 11.9853 0.815946 11.7003 0.652039C11.4153 0.488132 11.0915 0.403839 10.7628 0.407983C10.2951 0.436865 9.85596 0.64303 9.53497 0.984454C9.21398 1.32588 9.03527 1.77686 9.03527 2.24548C9.03527 2.7141 9.21398 3.16509 9.53497 3.50651C9.85596 3.84794 10.2951 4.0541 10.7628 4.08298H10.8048C12.5478 6.88298 12.4498 9.01798 10.4828 10.6C10.2047 10.8277 9.90458 11.0271 9.5868 11.195L9.6288 11.237C9.33657 11.0094 8.9686 10.9018 8.5998 10.936H5.5478C5.17171 10.9347 4.81 11.0804 4.5398 11.342C4.29436 11.2205 4.06012 11.0776 3.8398 10.915C3.18573 10.4785 2.67358 9.86026 2.36637 9.13641C2.05917 8.41256 1.97034 7.61468 2.1108 6.84098C2.2402 5.8904 2.52642 4.96788 2.9578 4.11098H2.9088C3.08256 4.16948 3.26447 4.20019 3.4478 4.20198C3.8273 4.19791 4.19642 4.07753 4.50535 3.85708C4.81428 3.63664 5.04817 3.32674 5.17545 2.9692C5.30273 2.61166 5.31728 2.22369 5.21714 1.85762C5.11699 1.49155 4.90698 1.165 4.61542 0.922039C4.32387 0.679076 3.9648 0.531388 3.58668 0.498899C3.20855 0.466411 2.82956 0.550685 2.50083 0.740353C2.1721 0.930021 1.90946 1.21595 1.74834 1.55958C1.58722 1.9032 1.53538 2.28797 1.5998 2.66198C0.89542 3.8806 0.432001 5.22332 0.234801 6.61698C0.0588264 7.71889 0.199649 8.84812 0.640856 9.87306C1.08206 10.898 1.80548 11.7764 2.7268 12.406C3.14272 12.7015 3.58849 12.9525 4.0568 13.155V13.463C4.0568 13.6551 4.09464 13.8453 4.16817 14.0228C4.24169 14.2003 4.34945 14.3616 4.4853 14.4975C4.62116 14.6333 4.78244 14.7411 4.95994 14.8146C5.13744 14.8881 5.32768 14.926 5.5198 14.926H6.0798C5.98942 16.354 6.07168 17.7877 6.3248 19.196C6.9688 22.577 8.6838 24.635 11.2738 25.153C11.7344 25.2476 12.2036 25.2945 12.6738 25.293C14.0909 25.3105 15.4706 24.8382 16.5798 23.956C17.6133 23.0971 18.3665 21.949 18.7428 20.659C19.2978 18.7164 19.4197 16.6758 19.0998 14.681C19.069 14.4571 18.9573 14.2523 18.7857 14.1053C18.6142 13.9583 18.3947 13.8792 18.1688 13.883ZM10.0698 2.32598C10.0684 2.19664 10.1056 2.06982 10.1766 1.9617C10.2476 1.85358 10.3492 1.76905 10.4684 1.71892C10.5877 1.66878 10.7191 1.6553 10.8461 1.68019C10.973 1.70509 11.0896 1.76723 11.1811 1.85869C11.2726 1.95016 11.3347 2.06679 11.3596 2.19372C11.3845 2.32065 11.371 2.45212 11.3209 2.57136C11.2707 2.6906 11.1862 2.79219 11.0781 2.86319C10.97 2.93419 10.8431 2.97137 10.7138 2.96998C10.6292 2.96998 10.5455 2.95332 10.4674 2.92096C10.3892 2.8886 10.3182 2.84116 10.2584 2.78136C10.1986 2.72156 10.1512 2.65056 10.1188 2.57243C10.0865 2.4943 10.0698 2.41055 10.0698 2.32598ZM3.4548 1.67498C3.58356 1.67498 3.70942 1.71316 3.81648 1.7847C3.92353 1.85623 4.00698 1.9579 4.05625 2.07686C4.10552 2.19581 4.11841 2.32671 4.09329 2.45299C4.06817 2.57927 4.00617 2.69527 3.91513 2.78631C3.82408 2.87735 3.70809 2.93936 3.58181 2.96447C3.45552 2.98959 3.32463 2.9767 3.20567 2.92743C3.08672 2.87816 2.98505 2.79472 2.91352 2.68766C2.84198 2.5806 2.8038 2.45474 2.8038 2.32598C2.80371 2.1569 2.86941 1.99442 2.98699 1.87292C3.10457 1.75142 3.26481 1.68044 3.4338 1.67498H3.4548ZM9.9158 11.755L9.8528 11.65L9.8948 11.713L9.9158 11.755ZM4.1408 12.028C4.13963 12.0513 4.13963 12.0747 4.1408 12.098C4.13851 12.0654 4.13851 12.0326 4.1408 12V12.028ZM5.5548 13.729C5.51869 13.7299 5.48276 13.7235 5.4492 13.7102C5.41564 13.6968 5.38516 13.6767 5.35962 13.6512C5.33407 13.6256 5.314 13.5951 5.30062 13.5616C5.28724 13.528 5.28084 13.4921 5.2818 13.456V12.399C5.28084 12.3629 5.28724 12.3269 5.30062 12.2934C5.314 12.2598 5.33407 12.2293 5.35962 12.2038C5.38516 12.1783 5.41564 12.1582 5.4492 12.1448C5.48276 12.1314 5.51869 12.125 5.5548 12.126H8.5998C8.67221 12.126 8.74164 12.1547 8.79284 12.2059C8.84404 12.2571 8.8728 12.3266 8.8728 12.399V13.456C8.8728 13.5284 8.84404 13.5978 8.79284 13.649C8.74164 13.7002 8.67221 13.729 8.5998 13.729H5.5548Z" fill="#BE5817"/>
</svg>
