<svg width="21" height="25" viewBox="0 0 21 25" fill="none" xmlns="http://www.w3.org/2000/svg">
<path d="M20.416 12.251C20.4165 11.7574 20.2743 11.2741 20.0066 10.8593C19.7389 10.4445 19.357 10.1159 18.9069 9.913C18.4569 9.71011 17.9578 9.64156 17.4697 9.71562C16.9816 9.78967 16.5253 10.0032 16.1557 10.3304C15.7861 10.6577 15.5189 11.0847 15.3862 11.5603C15.2536 12.0358 15.2611 12.5395 15.408 13.0108C15.5549 13.4822 15.8348 13.901 16.2141 14.217C16.5934 14.533 17.0559 14.7327 17.546 14.792C17.8547 16.5643 17.771 18.3826 17.301 20.119C17.0043 21.1289 16.4178 22.0295 15.614 22.709C14.7702 23.371 13.7253 23.7242 12.653 23.71C12.2791 23.7109 11.9062 23.6734 11.54 23.598C9.566 23.206 8.299 21.603 7.767 18.838C7.52938 17.5104 7.45649 16.1585 7.55 14.813H8.516C8.8917 14.8039 9.24882 14.6477 9.5106 14.3781C9.77239 14.1084 9.91795 13.7469 9.916 13.371V12.615C10.4167 12.3876 10.8871 12.0983 11.316 11.754C13.115 10.305 14.655 7.69405 12.016 3.41005C12.2965 3.08523 12.4506 2.67022 12.45 2.24105C12.4514 1.88139 12.3462 1.52939 12.1476 1.22948C11.9491 0.929581 11.6662 0.695222 11.3345 0.555996C11.0029 0.416771 10.6375 0.378921 10.2844 0.447227C9.93125 0.515532 9.60629 0.68693 9.35051 0.93978C9.09473 1.19263 8.91961 1.5156 8.84724 1.8679C8.77487 2.22021 8.80851 2.58606 8.94391 2.91926C9.0793 3.25246 9.31039 3.53807 9.60799 3.74004C9.90558 3.94201 10.2564 4.05128 10.616 4.05405C10.7527 4.05239 10.8888 4.03596 11.022 4.00505C12.779 6.88905 12.625 9.19905 10.56 10.865C10.2819 11.0928 9.98178 11.2921 9.664 11.46C9.53381 11.2772 9.36155 11.1283 9.16175 11.026C8.96195 10.9236 8.74048 10.8708 8.516 10.872H5.464C5.22339 10.8726 4.98668 10.933 4.77526 11.0479C4.56384 11.1627 4.38435 11.3284 4.253 11.53C4.0091 11.4032 3.7751 11.2581 3.553 11.096C2.85152 10.6208 2.30206 9.95329 1.97054 9.17354C1.63902 8.39378 1.53953 7.53494 1.684 6.70005C1.81969 5.71288 2.11771 4.75496 2.566 3.86505C2.81653 3.98828 3.09181 4.05291 3.371 4.05405C3.76487 4.05564 4.14863 3.92941 4.46465 3.69432C4.78067 3.45924 5.01189 3.12797 5.12361 2.75027C5.23532 2.37258 5.2215 1.96883 5.0842 1.59966C4.94691 1.23049 4.69356 0.915826 4.3622 0.702908C4.03084 0.48999 3.63934 0.390313 3.24651 0.418846C2.85367 0.447378 2.48069 0.60258 2.18357 0.861145C1.88645 1.11971 1.68123 1.46769 1.59873 1.85282C1.51622 2.23795 1.56088 2.63946 1.726 2.99705C1.1247 4.10759 0.726455 5.31655 0.550002 6.56705C0.382432 7.60586 0.513953 8.67092 0.9292 9.63776C1.34445 10.6046 2.02627 11.4333 2.895 12.027C3.25475 12.2861 3.6393 12.5089 4.043 12.692V13.392C4.043 13.7745 4.19493 14.1413 4.46535 14.4117C4.73578 14.6821 5.10256 14.834 5.485 14.834H6.395C6.30516 16.2385 6.38507 17.6487 6.633 19.034C7.249 22.261 8.866 24.221 11.309 24.711C11.749 24.8003 12.197 24.8449 12.646 24.844C13.9808 24.8618 15.2811 24.4193 16.328 23.591C17.3053 22.7689 18.0207 21.6788 18.386 20.455C18.9012 18.5693 19.0015 16.5943 18.68 14.666C19.1841 14.4933 19.622 14.168 19.933 13.7353C20.2441 13.3026 20.4128 12.7839 20.416 12.251ZM20.024 11.341C19.9643 11.1993 19.8917 11.0634 19.807 10.935C19.8821 11.0644 19.9453 11.2003 19.996 11.341H20.024ZM19.667 10.76C19.5729 10.6426 19.4674 10.5347 19.352 10.438C19.4576 10.5361 19.5537 10.6439 19.639 10.76H19.667ZM19.275 12.251C19.275 12.5279 19.1929 12.7986 19.0391 13.0288C18.8852 13.2591 18.6666 13.4385 18.4108 13.5445C18.1549 13.6504 17.8734 13.6782 17.6019 13.6241C17.3303 13.5701 17.0808 13.4368 16.8851 13.241C16.6893 13.0452 16.5559 12.7957 16.5019 12.5242C16.4479 12.2526 16.4756 11.9711 16.5816 11.7153C16.6875 11.4595 16.867 11.2408 17.0972 11.087C17.3274 10.9332 17.5981 10.851 17.875 10.851C18.2414 10.8584 18.5904 11.0091 18.8469 11.2709C19.1034 11.5326 19.2471 11.8845 19.247 12.251H19.275ZM15.691 13.168C15.5722 12.8771 15.5127 12.5653 15.516 12.251C15.5149 12.5658 15.5768 12.8776 15.698 13.168C15.7564 13.3082 15.8291 13.4419 15.915 13.567C15.817 13.4434 15.7325 13.3097 15.663 13.168H15.691ZM17.791 14.806C17.861 15.331 17.91 15.828 17.931 16.311C17.9547 16.7774 17.9547 17.2447 17.931 17.711C17.931 18.054 17.882 18.376 17.84 18.691C17.882 18.376 17.917 18.054 17.931 17.711C17.9547 17.2447 17.9547 16.7774 17.931 16.311C17.931 15.828 17.861 15.331 17.791 14.806ZM17.028 21.358C16.8354 21.7098 16.6003 22.0366 16.328 22.331C16.5807 22.0335 16.7969 21.7069 16.972 21.358H17.028ZM15.775 22.87C15.6812 22.9479 15.5831 23.0204 15.481 23.087C15.5639 23.0188 15.6434 22.9463 15.719 22.87H15.775ZM15.411 23.136C15.3125 23.2056 15.2096 23.2687 15.103 23.325C15.191 23.26 15.2752 23.1899 15.355 23.115L15.411 23.136ZM15.089 23.332C14.991 23.388 14.879 23.437 14.774 23.486C14.816 23.437 14.935 23.388 15.033 23.332H15.089ZM13.906 23.78C13.7862 23.8108 13.6646 23.8341 13.542 23.85C13.6452 23.8436 13.748 23.8319 13.85 23.815L13.906 23.78ZM12.016 24.613C11.834 24.613 11.645 24.564 11.463 24.529C11.61 24.564 11.799 24.592 12.016 24.613ZM10.63 1.35205C10.5719 1.34521 10.5131 1.34521 10.455 1.35205C10.5085 1.34626 10.5625 1.34626 10.616 1.35205H10.63ZM11.33 2.24105C11.33 2.3795 11.2889 2.51483 11.212 2.62995C11.1351 2.74506 11.0258 2.83478 10.8979 2.88777C10.77 2.94075 10.6292 2.95461 10.4934 2.9276C10.3577 2.90059 10.2329 2.83392 10.135 2.73602C10.0371 2.63813 9.97046 2.5134 9.94345 2.37761C9.91644 2.24183 9.9303 2.10108 9.98329 1.97317C10.0363 1.84526 10.126 1.73594 10.2411 1.65902C10.3562 1.5821 10.4916 1.54105 10.63 1.54105C10.8132 1.54471 10.9877 1.62008 11.1159 1.75096C11.2442 1.88184 11.316 2.0578 11.316 2.24105H11.33ZM5.191 13.371V12.314C5.19007 12.2749 5.19698 12.2359 5.21134 12.1994C5.2257 12.1629 5.2472 12.1297 5.2746 12.1016C5.30199 12.0736 5.33472 12.0513 5.37085 12.0361C5.40699 12.0209 5.4458 12.013 5.485 12.013H8.516C8.55521 12.013 8.59402 12.0209 8.63015 12.0361C8.66628 12.0513 8.69901 12.0736 8.72641 12.1016C8.7538 12.1297 8.77531 12.1629 8.78966 12.1994C8.80402 12.2359 8.81094 12.2749 8.81 12.314V13.371C8.81094 13.4102 8.80402 13.4492 8.78966 13.4857C8.77531 13.5222 8.7538 13.5554 8.72641 13.5835C8.69901 13.6115 8.66628 13.6338 8.63015 13.649C8.59402 13.6642 8.55521 13.6721 8.516 13.672H5.464C5.4248 13.6721 5.38599 13.6642 5.34985 13.649C5.31372 13.6338 5.28099 13.6115 5.2536 13.5835C5.2262 13.5554 5.2047 13.5222 5.19034 13.4857C5.17598 13.4492 5.16907 13.4102 5.17 13.371H5.191ZM8.803 13.812C8.72163 13.8712 8.62361 13.9031 8.523 13.903C8.62601 13.897 8.72427 13.8577 8.803 13.791V13.812ZM11.869 1.21205C11.771 1.09303 11.6581 0.98716 11.533 0.89705C11.6585 0.989322 11.7715 1.09757 11.869 1.21905V1.21205ZM10.686 11.033C10.5787 11.1231 10.4665 11.2073 10.35 11.285C10.4713 11.2077 10.5882 11.1236 10.7 11.033H10.686ZM5.45 11.082C5.20055 11.0778 4.95594 11.1512 4.75 11.292C4.95985 11.1484 5.2098 11.0749 5.464 11.082H5.45ZM1.439 6.67205C1.439 6.47605 1.495 6.28005 1.537 6.09105C1.495 6.28005 1.467 6.47605 1.439 6.67205C1.40194 7.01846 1.39491 7.36743 1.418 7.71505C1.39956 7.36702 1.41127 7.01805 1.453 6.67205H1.439ZM2.664 2.24105C2.664 2.1026 2.70506 1.96726 2.78197 1.85215C2.85889 1.73704 2.96821 1.64732 3.09612 1.59433C3.22403 1.54135 3.36478 1.52749 3.50057 1.5545C3.63635 1.58151 3.76108 1.64818 3.85898 1.74607C3.95687 1.84397 4.02354 1.9687 4.05055 2.10449C4.07756 2.24027 4.0637 2.38102 4.01072 2.50893C3.95774 2.63684 3.86802 2.74616 3.7529 2.82308C3.63779 2.89999 3.50245 2.94105 3.364 2.94105C3.18079 2.93738 3.00632 2.86202 2.87805 2.73114C2.74979 2.60026 2.67796 2.4243 2.678 2.24105H2.664ZM4.064 2.73105C3.98327 2.85188 3.87392 2.9509 3.74569 3.01929C3.61747 3.08767 3.47433 3.12332 3.329 3.12305C3.47786 3.12684 3.62525 3.09288 3.75745 3.02433C3.88964 2.95579 4.00232 2.85489 4.085 2.73105H4.064ZM4.064 1.74405C3.98327 1.62321 3.87392 1.5242 3.74569 1.45581C3.61747 1.38742 3.47433 1.35178 3.329 1.35205C3.47786 1.34826 3.62525 1.38222 3.75745 1.45076C3.88964 1.51931 4.00232 1.6202 4.085 1.74405H4.064ZM2.853 3.77405C3.00776 3.81884 3.1679 3.84239 3.329 3.84405C3.17494 3.84053 3.02199 3.817 2.874 3.77405H2.853ZM3.329 0.631049C3.1679 0.632709 3.00776 0.656257 2.853 0.701049C3.01452 0.654333 3.18186 0.630765 3.35 0.631049H3.329ZM2.433 0.90405C2.34922 0.963786 2.26969 1.02928 2.195 1.10005C2.27643 1.02848 2.363 0.962968 2.454 0.90405H2.433ZM1.32 4.27805C1.418 4.03072 1.516 3.79738 1.614 3.57805C1.551 3.71805 1.418 4.00505 1.32 4.27805ZM0.718002 6.58805C0.699395 6.72504 0.687713 6.86288 0.683001 7.00105C0.69467 6.86252 0.71336 6.72468 0.739001 6.58805H0.718002ZM1.852 10.788C2.00762 10.9833 2.17849 11.1659 2.363 11.334C2.18684 11.174 2.02303 11.0008 1.873 10.816L1.852 10.788ZM6.563 14.785C6.563 14.785 6.563 14.834 6.563 14.869C6.563 14.904 6.563 14.813 6.563 14.785ZM6.794 18.985C6.794 18.845 6.745 18.698 6.724 18.558C6.654 18.131 6.605 17.711 6.577 17.319C6.577 17.711 6.654 18.131 6.724 18.558C6.724 18.698 6.766 18.845 6.794 18.985C6.871 19.377 6.962 19.748 7.067 20.105C6.983 19.762 6.892 19.391 6.815 18.999L6.794 18.985ZM18.141 20.427C18.2709 20.0247 18.3692 19.6127 18.435 19.195C18.3747 19.6027 18.2834 20.0052 18.162 20.399L18.141 20.427ZM19.303 14.127C19.4166 14.031 19.5219 13.9256 19.618 13.812C19.5262 13.903 19.428 13.9873 19.324 14.064L19.303 14.127Z" fill="#BE5817"/>
</svg>
