<svg width="50" height="29" viewBox="0 0 50 29" fill="none" xmlns="http://www.w3.org/2000/svg">
<path d="M14.3971 19.1237C13.1492 19.1237 11.9747 18.6466 11.0939 17.7657C10.213 16.8849 9.69922 15.7104 9.69922 14.4625C9.69922 11.8934 11.7912 9.76465 14.3604 9.76465C14.3604 9.76465 14.3604 9.76465 14.3971 9.76465C16.9662 9.76465 19.0583 11.8567 19.0583 14.4258C19.0583 16.995 17.0029 19.087 14.3971 19.1237ZM14.3971 10.7556C12.3418 10.7556 10.6902 12.4439 10.6902 14.4625C10.6902 15.4535 11.0939 16.371 11.7912 17.0684C12.4886 17.7657 13.4428 18.1327 14.4338 18.1327C16.4891 18.1327 18.1407 16.4444 18.1407 14.4258C18.104 12.4072 16.4157 10.7556 14.3971 10.7556Z" fill="white"/>
<path d="M14.3964 15.9672C13.5522 15.9672 12.8916 15.3065 12.8916 14.4624C12.8916 13.6182 13.5522 12.9576 14.3964 12.9209C14.8001 12.9209 15.1671 13.0677 15.4608 13.3613C15.7544 13.6549 15.9012 14.022 15.9012 14.4257C15.9012 14.8294 15.7544 15.1964 15.4608 15.49C15.1671 15.7837 14.8001 15.9672 14.3964 15.9672ZM14.3964 13.8751C14.1028 13.8751 13.8458 14.1321 13.8458 14.4257C13.8458 14.7193 14.1028 14.9762 14.3964 14.9762C14.5432 14.9762 14.69 14.9028 14.8001 14.8294C14.9102 14.756 14.9469 14.5725 14.9469 14.4257C14.9469 14.2789 14.8735 14.1321 14.8001 14.022C14.69 13.9486 14.5432 13.8751 14.3964 13.8751Z" fill="white"/>
<path d="M14.3968 28.0793C10.7999 28.0793 7.38666 26.6846 4.81751 24.1154C2.24836 21.5463 0.816976 18.133 0.780273 14.4995C0.780273 10.866 2.17495 7.45266 4.7441 4.84681C7.31325 2.27766 10.7266 0.846272 14.3601 0.80957C17.9936 0.80957 21.4069 2.20425 24.0127 4.7734C26.5819 7.34255 28.0133 10.7559 28.05 14.3894C28.0867 18.0229 26.6553 21.4362 24.0861 24.042C21.517 26.6479 18.1037 28.0426 14.4702 28.0793C14.4335 28.0793 14.3968 28.0793 14.3968 28.0793ZM14.3968 1.80053C14.3601 1.80053 14.3601 1.80053 14.3233 1.80053C10.9468 1.80053 7.79037 3.15852 5.40473 5.54416C3.0191 7.92979 1.73452 11.1229 1.73452 14.4995C1.73452 17.8761 3.0925 21.0324 5.47814 23.4181C7.86378 25.8037 11.0569 27.0883 14.4335 27.0883C17.81 27.0883 20.9665 25.7303 23.3521 23.3447C25.7377 20.9591 27.0223 17.766 27.0223 14.3894C27.0223 11.0128 25.6643 7.85639 23.2787 5.47075C20.893 3.08511 17.7367 1.80053 14.3968 1.80053Z" fill="white"/>
<path d="M38.4732 19.1237C37.2254 19.1237 36.0509 18.6466 35.17 17.7657C34.2892 16.8849 33.7754 15.7104 33.7754 14.4625C33.7754 13.2146 34.2525 12.0402 35.1334 11.1593C36.0142 10.2785 37.1887 9.76465 38.4365 9.76465C38.4365 9.76465 38.4365 9.76465 38.4732 9.76465C41.0424 9.76465 43.1344 11.8567 43.1344 14.4258C43.1711 16.995 41.0791 19.087 38.4732 19.1237ZM38.4732 10.7556C37.4823 10.7556 36.528 11.1593 35.8307 11.8567C35.1334 12.554 34.7663 13.5083 34.7663 14.4992C34.7663 15.4902 35.1701 16.4077 35.8674 17.1051C36.5647 17.8024 37.519 18.1694 38.5099 18.1694C40.5653 18.1694 42.2169 16.4811 42.2169 14.4625C42.1802 12.4072 40.4919 10.7556 38.4732 10.7556Z" fill="white"/>
<path d="M38.4735 15.9672C37.6294 15.9672 36.9688 15.3065 36.9688 14.4624C36.9688 13.6182 37.6294 12.9576 38.4735 12.9209C38.8773 12.9209 39.2443 13.0677 39.5379 13.3613C39.8315 13.6549 39.9783 14.022 39.9783 14.4257C39.9783 14.8294 39.8315 15.1964 39.5379 15.49C39.2443 15.7837 38.8773 15.9672 38.4735 15.9672ZM38.4735 13.8751C38.1799 13.8751 37.923 14.1321 37.923 14.4257C37.923 14.7193 38.1799 14.9762 38.4735 14.9762C38.6203 14.9762 38.7671 14.9028 38.8772 14.8294C38.9873 14.7193 39.0241 14.5725 39.0241 14.4257C39.0241 14.2789 38.9506 14.1321 38.8772 14.022C38.7671 13.9486 38.6203 13.8751 38.4735 13.8751Z" fill="white"/>
<path d="M38.4727 25.8773C32.1967 25.8773 27.0584 20.7757 27.0217 14.4997C26.985 8.18691 32.0866 3.04862 38.3993 3.01192C44.7121 2.97521 49.8504 8.07681 49.8871 14.3896C49.8871 17.4359 48.7126 20.3353 46.5839 22.5007C44.4552 24.6662 41.5557 25.8773 38.5094 25.8773H38.4727ZM38.4727 3.96616H38.436C32.6738 4.00286 27.9759 8.70074 28.0126 14.4997C28.0493 20.2619 32.7472 24.9231 38.4727 24.9231H38.5094C41.2988 24.9231 43.9414 23.822 45.8866 21.8401C47.8685 19.8582 48.9328 17.2156 48.9328 14.4263C48.9328 8.62733 44.235 3.96616 38.4727 3.96616Z" fill="white"/>
</svg>
