<svg width="55" height="29" viewBox="0 0 55 29" fill="none" xmlns="http://www.w3.org/2000/svg">
<path d="M14.3975 19.1979C11.8284 19.1979 9.73633 17.1059 9.73633 14.5368C9.73633 11.9676 11.8284 9.83887 14.3975 9.83887H14.4342C15.6821 9.83887 16.8565 10.316 17.7374 11.1969C18.6182 12.0777 19.1321 13.2522 19.1321 14.5C19.1321 15.7479 18.655 16.9224 17.7741 17.8032C16.8198 18.6841 15.6454 19.1979 14.3975 19.1979ZM14.3975 10.7931C14.3608 10.7931 14.3608 10.7931 14.3975 10.7931C12.3422 10.7931 10.6906 12.4814 10.6906 14.5C10.6906 16.5554 12.3789 18.207 14.3975 18.207C15.3885 18.207 16.306 17.8032 17.0033 17.1059C17.7007 16.4086 18.0677 15.4543 18.0677 14.4633C18.0677 13.4724 17.664 12.5548 16.9667 11.8575C16.306 11.1968 15.3518 10.7931 14.3975 10.7931Z" fill="white"/>
<path d="M14.3974 16.0418C13.9937 16.0418 13.6266 15.895 13.333 15.6014C13.0394 15.3078 12.8926 14.9408 12.8926 14.537C12.8926 14.1333 13.0394 13.7663 13.333 13.4727C13.6266 13.179 13.9937 13.0322 14.3974 13.0322C15.2415 13.0322 15.9022 13.6929 15.9022 14.537C15.9022 15.3445 15.2415 16.0418 14.3974 16.0418ZM14.3974 13.9498C14.2506 13.9498 14.1037 14.0232 13.9936 14.0966C13.8835 14.17 13.8468 14.3535 13.8468 14.5003C13.8468 14.79 14.102 15.049 14.3917 15.0508C14.3936 15.0508 14.3955 15.0508 14.3974 15.0508C14.691 15.0508 14.9479 14.7939 14.9479 14.5003C14.9479 14.2067 14.691 13.9498 14.3974 13.9498Z" fill="white"/>
<path d="M14.3979 28.1168C14.3979 28.1168 14.3979 28.1168 14.3979 28.1168C6.91068 28.1168 0.818117 22.0609 0.781415 14.5737C0.744713 7.04974 6.83728 0.920491 14.3245 0.883789C14.3612 0.883789 14.3612 0.883789 14.3979 0.883789C17.9947 0.883789 21.408 2.27847 23.9772 4.84761C26.5463 7.41676 27.9777 10.8301 28.0144 14.4636C28.0144 18.0971 26.6197 21.5104 24.0506 24.1162C21.4952 26.7081 18.1046 28.1018 14.4929 28.1528C14.4608 28.1532 14.43 28.1168 14.3979 28.1168ZM14.3979 1.87475C14.3612 1.87475 14.3612 1.87475 14.3245 1.87475C7.35111 1.91145 1.69898 7.60027 1.73568 14.5737C1.77239 21.5471 7.42451 27.1625 14.3979 27.1625C14.4346 27.1625 14.4346 27.1625 14.4713 27.1625C17.8479 27.1625 21.0043 25.8045 23.3899 23.4189C25.7756 21.0332 27.0602 17.8402 27.0602 14.4636C27.0602 11.087 25.7022 7.9306 23.3165 5.54496C20.8942 3.15933 17.7378 1.87475 14.3979 1.87475Z" fill="white"/>
<path d="M40.6396 16.0414C39.7954 16.0414 39.1348 15.3808 39.1348 14.5366C39.1348 13.6925 39.7954 13.0318 40.6396 12.9951C41.0433 12.9951 41.4103 13.1419 41.7039 13.4355C41.9975 13.7292 42.1443 14.0962 42.1443 14.4999C42.1443 14.9036 41.9975 15.2706 41.7039 15.5643C41.4103 15.8579 41.0433 16.0414 40.6396 16.0414ZM40.6396 13.9494C40.3459 13.9494 40.089 14.2063 40.089 14.4999C40.089 14.7935 40.3459 15.0504 40.6396 15.0504C40.9293 15.0504 41.1882 14.7953 41.1901 14.5056C41.1901 14.5037 41.1901 14.5018 41.1901 14.4999C41.1901 14.2153 40.9241 13.9494 40.6396 13.9494Z" fill="white"/>
<path d="M40.6401 28.1165C40.6401 28.1165 40.6401 28.1165 40.6401 28.1165C37.0433 28.1165 33.63 26.7218 31.0608 24.1527C28.4917 21.5835 27.0603 18.1703 27.0236 14.5368C26.9869 7.01282 33.0795 0.883547 40.5667 0.846845C48.0906 0.810143 54.2199 6.9027 54.2566 14.3899C54.2566 18.0234 52.8619 21.4367 50.2928 24.0426C47.7374 26.6345 44.3468 28.0282 40.7351 28.0791C40.7028 28.0796 40.6723 28.1165 40.6401 28.1165ZM40.6401 1.87452C40.6034 1.87452 40.6034 1.87452 40.5667 1.87452C33.5933 1.91122 27.9412 7.60005 27.9779 14.5734C27.9779 17.95 29.3359 21.1064 31.7215 23.4921C34.1071 25.8777 37.3002 27.1623 40.6768 27.1623C44.0534 27.1623 47.2098 25.8043 49.5954 23.4187C51.9811 21.033 53.2656 17.8399 53.2656 14.4633C53.2656 7.48994 47.5768 1.87452 40.6401 1.87452Z" fill="white"/>
<path d="M40.2726 19.3811C40.1468 19.3811 40.024 19.3382 39.9081 19.2893C39.6313 19.1725 39.4082 18.9128 39.1348 18.4268C38.8045 17.8763 38.1806 17.9497 37.3365 18.1699C36.7859 18.28 36.2354 18.4268 35.9418 18.0231C35.6482 17.6561 35.7949 17.1422 36.0152 16.7018C36.7859 14.9401 36.529 14.6098 36.162 14.096C36.0886 13.9859 36.0152 13.8758 35.9418 13.7656C35.795 13.5454 35.7583 13.2885 35.8684 13.0316C35.9325 12.8136 36.0818 12.609 36.2801 12.4195C37.0442 11.6894 37.6857 10.6309 38.6944 10.3157C40.1179 9.82053 41.8289 10.098 43.3349 10.1565C43.5456 10.1647 43.7403 10.213 43.9061 10.3157C44.4199 10.646 44.42 11.3066 44.3465 11.7837C44.2364 12.4444 44.5668 12.8481 44.9338 13.2885C45.154 13.5454 45.3742 13.8024 45.4476 14.096C45.5944 14.5731 45.5944 15.1603 45.4476 15.7109C45.2641 16.4082 44.8237 16.922 44.2364 17.1056C44.1263 17.1423 44.0896 17.3258 44.0896 17.6928C44.0529 18.0965 44.0162 18.5736 43.6125 18.8305C43.2088 19.0875 42.695 18.9407 42.3279 18.7938C41.6673 18.5369 41.3737 18.7571 41.0434 19.014C40.8598 19.1976 40.6029 19.3811 40.2726 19.3811ZM38.3274 17.0688C38.9513 17.0688 39.5753 17.2524 39.979 17.9497C40.0482 18.0604 40.1069 18.145 40.1552 18.2094C40.2404 18.323 40.3847 18.3281 40.5069 18.2557C40.5225 18.2465 40.5367 18.2381 40.5514 18.2274C40.957 17.9329 41.6142 17.4804 42.7317 17.913C42.7476 17.9183 42.763 17.9234 42.7779 17.9284C42.9937 18.0002 43.1721 17.8835 43.1721 17.6561C43.2088 17.2157 43.2455 16.4816 43.9795 16.2247C44.6402 16.0045 44.7503 14.9401 44.5668 14.4263C44.5301 14.2795 44.3833 14.096 44.1998 13.9125C43.796 13.4353 43.2088 12.7747 43.429 11.6369C43.4938 11.3127 43.218 11.1067 42.8969 11.1856C42.7305 11.2265 42.5187 11.2979 42.2545 11.4167C42.0594 11.5078 41.8736 11.6034 41.7149 11.689C41.3851 11.8668 41.0118 12.1677 40.6941 11.9692C40.6756 11.9577 40.6575 11.9448 40.6396 11.9305C40.3093 11.6369 39.4285 11.0864 38.988 11.2332C38.7678 11.3066 38.621 11.5635 38.5476 11.9673C38.5109 12.1875 38.3274 12.2976 38.1439 12.371C37.4742 12.695 37.1351 12.9301 36.962 13.0836C36.8339 13.1971 36.825 13.3838 36.9383 13.5122C36.9581 13.5346 36.9783 13.5578 36.9956 13.5823C37.529 14.3388 37.7989 15.0469 36.896 17.1056C36.8445 17.2086 36.9385 17.2996 37.0517 17.2779C37.0854 17.2714 37.1192 17.2636 37.1529 17.2524C37.4466 17.1789 37.887 17.0688 38.3274 17.0688Z" fill="white"/>
</svg>
