<svg width="55" height="29" viewBox="0 0 55 29" fill="none" xmlns="http://www.w3.org/2000/svg">
<path d="M14.3614 19.1979C11.7922 19.1979 9.7002 17.1059 9.7002 14.5368C9.7002 11.9676 11.7922 9.83887 14.3614 9.83887C14.3614 9.83887 14.3614 9.83887 14.3614 9.83887C14.3614 9.83887 14.3614 9.83887 14.3981 9.83887C16.9672 9.83887 19.0592 11.9309 19.0592 14.5C19.0592 15.7479 18.5821 16.9224 17.7013 17.8032C16.8204 18.6841 15.6459 19.1979 14.3614 19.1979C14.3981 19.1979 14.3614 19.1979 14.3614 19.1979ZM14.3614 10.7931C12.306 10.7931 10.6545 12.4814 10.6545 14.5C10.6545 16.5554 12.3427 18.207 14.3614 18.207C15.3523 18.207 16.2699 17.8032 16.9672 17.1059C17.6646 16.4086 18.0316 15.4543 18.0316 14.4633C18.0683 12.4447 16.4167 10.7931 14.3614 10.7931Z" fill="white"/>
<path d="M14.3622 16.0428C13.9585 16.0428 13.5915 15.896 13.2978 15.6024C13.0042 15.3087 12.8574 14.9417 12.8574 14.538C12.8574 14.1343 13.0042 13.7673 13.2978 13.4736C13.5915 13.18 13.9585 13.0332 14.3622 13.0332C15.2063 13.0332 15.867 13.6939 15.867 14.538C15.867 14.9417 15.7202 15.3087 15.4266 15.6024C15.1697 15.8593 14.7659 16.0428 14.3622 16.0428ZM14.3622 13.9508C14.0725 13.9508 13.8136 14.2059 13.8117 14.4956C13.8117 14.4975 13.8117 14.4994 13.8117 14.5013C13.8117 14.791 14.0669 15.0499 14.3566 15.0518C14.3585 15.0518 14.3603 15.0518 14.3622 15.0518C14.6519 15.0518 14.9108 14.7966 14.9127 14.5069C14.9127 14.5051 14.9127 14.5032 14.9127 14.5013C14.9127 14.2077 14.6558 13.9508 14.3622 13.9508Z" fill="white"/>
<path d="M41.998 21.9881C42.3426 21.9881 42.6219 21.7088 42.6219 21.3642C42.6219 21.0196 42.3426 20.7402 41.998 20.7402C41.6534 20.7402 41.374 21.0196 41.374 21.3642C41.374 21.7088 41.6534 21.9881 41.998 21.9881Z" fill="#EE7676"/>
<path d="M41.8516 24.5937C42.0948 24.5937 42.292 24.3965 42.292 24.1533C42.292 23.9101 42.0948 23.7129 41.8516 23.7129C41.6083 23.7129 41.4111 23.9101 41.4111 24.1533C41.4111 24.3965 41.6083 24.5937 41.8516 24.5937Z" fill="#EE7676"/>
<path d="M45.6679 20.2625C46.0125 20.2625 46.2918 19.9832 46.2918 19.6386C46.2918 19.294 46.0125 19.0146 45.6679 19.0146C45.3233 19.0146 45.0439 19.294 45.0439 19.6386C45.0439 19.9832 45.3233 20.2625 45.6679 20.2625Z" fill="#EE7676"/>
<path d="M47.3925 19.8231C47.7371 19.8231 48.0164 19.5437 48.0164 19.1991C48.0164 18.8545 47.7371 18.5752 47.3925 18.5752C47.0479 18.5752 46.7686 18.8545 46.7686 19.1991C46.7686 19.5437 47.0479 19.8231 47.3925 19.8231Z" fill="#EE7676"/>
<path d="M46.5488 18.2812C46.7921 18.2812 46.9893 18.0841 46.9893 17.8408C46.9893 17.5976 46.7921 17.4004 46.5488 17.4004C46.3056 17.4004 46.1084 17.5976 46.1084 17.8408C46.1084 18.0841 46.3056 18.2812 46.5488 18.2812Z" fill="#EE7676"/>
<path d="M43.5033 20.4842C43.7263 20.4842 43.907 20.3034 43.907 20.0805C43.907 19.8575 43.7263 19.6768 43.5033 19.6768C43.2804 19.6768 43.0996 19.8575 43.0996 20.0805C43.0996 20.3034 43.2804 20.4842 43.5033 20.4842Z" fill="#EE7676"/>
<path d="M43.0619 23.2742C43.2849 23.2742 43.4657 23.0935 43.4657 22.8705C43.4657 22.6475 43.2849 22.4668 43.0619 22.4668C42.839 22.4668 42.6582 22.6475 42.6582 22.8705C42.6582 23.0935 42.839 23.2742 43.0619 23.2742Z" fill="#EE7676"/>
<path d="M49.6313 20.742C49.8542 20.742 50.035 20.5613 50.035 20.3383C50.035 20.1153 49.8542 19.9346 49.6313 19.9346C49.4083 19.9346 49.2275 20.1153 49.2275 20.3383C49.2275 20.5613 49.4083 20.742 49.6313 20.742Z" fill="#EE7676"/>
<path d="M44.164 21.9881C44.5086 21.9881 44.7879 21.7088 44.7879 21.3642C44.7879 21.0196 44.5086 20.7402 44.164 20.7402C43.8194 20.7402 43.54 21.0196 43.54 21.3642C43.54 21.7088 43.8194 21.9881 44.164 21.9881Z" fill="#EE7676"/>
<path d="M45.0067 23.7869C45.3513 23.7869 45.6307 23.5076 45.6307 23.163C45.6307 22.8184 45.3513 22.5391 45.0067 22.5391C44.6622 22.5391 44.3828 22.8184 44.3828 23.163C44.3828 23.5076 44.6622 23.7869 45.0067 23.7869Z" fill="#EE7676"/>
<path d="M43.7235 25.3651C44.0681 25.3651 44.3475 25.0857 44.3475 24.7411C44.3475 24.3965 44.0681 24.1172 43.7235 24.1172C43.3789 24.1172 43.0996 24.3965 43.0996 24.7411C43.0996 25.0857 43.3789 25.3651 43.7235 25.3651Z" fill="#EE7676"/>
<path d="M45.6684 25.1453C45.8913 25.1453 46.0721 24.9646 46.0721 24.7416C46.0721 24.5187 45.8913 24.3379 45.6684 24.3379C45.4454 24.3379 45.2646 24.5187 45.2646 24.7416C45.2646 24.9646 45.4454 25.1453 45.6684 25.1453Z" fill="#EE7676"/>
<path d="M46.6965 23.1997C46.879 23.1997 47.0268 23.0518 47.0268 22.8694C47.0268 22.6869 46.879 22.5391 46.6965 22.5391C46.5141 22.5391 46.3662 22.6869 46.3662 22.8694C46.3662 23.0518 46.5141 23.1997 46.6965 23.1997Z" fill="#EE7676"/>
<path d="M44.384 19.1626C44.5665 19.1626 44.7143 19.0147 44.7143 18.8323C44.7143 18.6498 44.5665 18.502 44.384 18.502C44.2016 18.502 44.0537 18.6498 44.0537 18.8323C44.0537 19.0147 44.2016 19.1626 44.384 19.1626Z" fill="#EE7676"/>
<path d="M49.6321 22.354C49.8145 22.354 49.9624 22.2061 49.9624 22.0237C49.9624 21.8412 49.8145 21.6934 49.6321 21.6934C49.4496 21.6934 49.3018 21.8412 49.3018 22.0237C49.3018 22.2061 49.4496 22.354 49.6321 22.354Z" fill="#EE7676"/>
<path d="M46.8049 24.1538C46.9874 24.1538 47.1353 24.0059 47.1353 23.8235C47.1353 23.6411 46.9874 23.4932 46.8049 23.4932C46.6225 23.4932 46.4746 23.6411 46.4746 23.8235C46.4746 24.0059 46.6225 24.1538 46.8049 24.1538Z" fill="#EE7676"/>
<path d="M50.5862 19.5288C50.7686 19.5288 50.9165 19.3809 50.9165 19.1985C50.9165 19.016 50.7686 18.8682 50.5862 18.8682C50.4037 18.8682 50.2559 19.016 50.2559 19.1985C50.2559 19.3809 50.4037 19.5288 50.5862 19.5288Z" fill="#EE7676"/>
<path d="M42.2913 26.0259C42.4737 26.0259 42.6216 25.878 42.6216 25.6955C42.6216 25.5131 42.4737 25.3652 42.2913 25.3652C42.1088 25.3652 41.9609 25.5131 41.9609 25.6955C41.9609 25.878 42.1088 26.0259 42.2913 26.0259Z" fill="#EE7676"/>
<path d="M46.2179 21.7679C46.5017 21.7679 46.7318 21.5379 46.7318 21.2541C46.7318 20.9703 46.5017 20.7402 46.2179 20.7402C45.9341 20.7402 45.7041 20.9703 45.7041 21.2541C45.7041 21.5379 45.9341 21.7679 46.2179 21.7679Z" fill="#EE7676"/>
<path d="M48.4936 17.8045C48.7165 17.8045 48.8973 17.6238 48.8973 17.4008C48.8973 17.1778 48.7165 16.9971 48.4936 16.9971C48.2706 16.9971 48.0898 17.1778 48.0898 17.4008C48.0898 17.6238 48.2706 17.8045 48.4936 17.8045Z" fill="#EE7676"/>
<path d="M51.3569 18.1707C51.5798 18.1707 51.7606 17.99 51.7606 17.767C51.7606 17.544 51.5798 17.3633 51.3569 17.3633C51.1339 17.3633 50.9531 17.544 50.9531 17.767C50.9531 17.99 51.1339 18.1707 51.3569 18.1707Z" fill="#EE7676"/>
<path d="M48.0536 21.4012C48.3982 21.4012 48.6776 21.1219 48.6776 20.7773C48.6776 20.4327 48.3982 20.1533 48.0536 20.1533C47.709 20.1533 47.4297 20.4327 47.4297 20.7773C47.4297 21.1219 47.709 21.4012 48.0536 21.4012Z" fill="#EE7676"/>
<path d="M48.0539 23.054C48.3376 23.054 48.5677 22.824 48.5677 22.5402C48.5677 22.2564 48.3376 22.0264 48.0539 22.0264C47.7701 22.0264 47.54 22.2564 47.54 22.5402C47.54 22.824 47.7701 23.054 48.0539 23.054Z" fill="#EE7676"/>
<path d="M49.2275 19.456C49.4708 19.456 49.668 19.2588 49.668 19.0156C49.668 18.7724 49.4708 18.5752 49.2275 18.5752C48.9843 18.5752 48.7871 18.7724 48.7871 19.0156C48.7871 19.2588 48.9843 19.456 49.2275 19.456Z" fill="#EE7676"/>
<path d="M14.3616 28.1535C10.7648 28.1535 7.3515 26.7588 4.78235 24.1896C2.2132 21.6205 0.781819 18.2072 0.745117 14.5737C0.745117 10.9402 2.13979 7.52688 4.70894 4.92102C7.27809 2.35187 10.6914 0.920491 14.3249 0.883789C14.3616 0.883789 14.3616 0.883789 14.3983 0.883789C21.8855 0.883789 27.9781 6.93963 28.0148 14.4269C28.0513 21.9111 22.023 28.0154 14.59 28.1157C14.5126 28.1167 14.4391 28.1535 14.3616 28.1535ZM14.3616 1.87475C14.3249 1.87475 14.3249 1.87475 14.2882 1.87475C10.9116 1.87475 7.75522 3.23271 5.36958 5.61835C2.98394 8.00399 1.69936 11.1971 1.69936 14.5737C1.69936 17.9503 3.05735 21.1067 5.44299 23.4923C7.82862 25.8779 11.0217 27.1625 14.3983 27.1625C21.3717 27.1258 27.0238 21.437 26.9871 14.4636C26.9871 7.49017 21.335 1.87475 14.3616 1.87475Z" fill="white"/>
<path d="M40.6041 19.1979C39.3562 19.1979 38.1818 18.7208 37.3009 17.84C36.4201 16.9591 35.9062 15.7846 35.9062 14.5368C35.9062 13.2889 36.3834 12.1144 37.2642 11.2336C38.1451 10.3527 39.3196 9.83887 40.5674 9.83887H40.6041C41.852 9.83887 43.0265 10.316 43.9073 11.1969C44.7882 12.0777 45.302 13.2522 45.302 14.5C45.302 15.7479 44.8249 16.9224 43.944 17.8032C43.0632 18.6841 41.8887 19.1979 40.6041 19.1979C40.6408 19.1979 40.6041 19.1979 40.6041 19.1979ZM40.6041 10.7931C39.6132 10.7931 38.6589 11.1969 37.9616 11.8942C37.2642 12.5915 36.8972 13.5458 36.8972 14.5368C36.8972 15.5277 37.3009 16.4453 37.9983 17.1426C38.6956 17.8399 39.6132 18.207 40.6041 18.207C41.5951 18.207 42.5126 17.8032 43.21 17.1059C43.9073 16.4086 44.2743 15.4543 44.2743 14.4633C44.2743 13.4724 43.8706 12.5548 43.1733 11.8575C42.5126 11.1968 41.5951 10.7931 40.6041 10.7931Z" fill="white"/>
<path d="M40.6034 16.0428C39.7593 16.0428 39.0986 15.3822 39.0986 14.538C39.0986 14.1343 39.2454 13.7673 39.5391 13.4736C39.8327 13.18 40.1997 13.0332 40.6034 13.0332C41.4476 13.0332 42.1082 13.6939 42.1082 14.538C42.1082 14.9417 41.9614 15.3087 41.6678 15.6024C41.4109 15.8593 41.0438 16.0428 40.6034 16.0428ZM40.6034 13.9508C40.3137 13.9508 40.0548 14.2059 40.0529 14.4956C40.0529 14.4975 40.0529 14.4994 40.0529 14.5013C40.0529 14.7949 40.3098 15.0518 40.6034 15.0518C40.8931 15.0518 41.1521 14.7966 41.1539 14.5069C41.1539 14.5051 41.1539 14.5032 41.1539 14.5013C41.1539 14.2077 40.9337 13.9508 40.6034 13.9508Z" fill="white"/>
<path d="M40.603 28.1539C33.1157 28.1539 27.0232 22.098 26.9865 14.6108C26.9498 7.08685 33.0423 0.957601 40.5296 0.920898C40.5663 0.920898 40.5663 0.920898 40.603 0.920898C48.0902 0.920898 54.1828 6.97676 54.2195 14.464C54.2562 21.9879 48.1636 28.1172 40.6764 28.1539C40.6397 28.1539 40.6397 28.1539 40.603 28.1539ZM40.603 1.87517C40.5663 1.87517 40.5663 1.87517 40.5296 1.87517C33.5562 1.91187 27.904 7.60069 27.9407 14.5741C27.9774 21.5475 33.6663 27.1996 40.6397 27.1629C47.6131 27.1262 53.2652 21.4374 53.2285 14.464C53.2285 7.49059 47.5764 1.87517 40.603 1.87517Z" fill="white"/>
</svg>
