<svg width="55" height="29" viewBox="0 0 55 29" fill="none" xmlns="http://www.w3.org/2000/svg">
<path d="M13.9938 19.0876C12.7459 19.0876 11.5714 18.6104 10.6906 17.7296C9.80975 16.8487 9.2959 15.6743 9.2959 14.4264C9.2959 13.1785 9.77303 12.004 10.6539 11.1232C11.5347 10.2423 12.7092 9.72852 13.9571 9.72852C13.9571 9.72852 13.9571 9.72852 13.9938 9.72852C16.5629 9.72852 18.6549 11.8205 18.6549 14.3897C18.6916 16.9955 16.5996 19.0876 13.9938 19.0876C14.0305 19.0876 13.9938 19.0876 13.9938 19.0876ZM13.9938 10.7195C13.0028 10.7195 12.0486 11.1232 11.3512 11.8205C10.6539 12.5179 10.2869 13.4721 10.2869 14.4631C10.2869 15.4541 10.6906 16.3716 11.3879 17.0689C12.0853 17.7663 13.0395 18.1333 14.0305 18.1333C16.0858 18.1333 17.7374 16.445 17.7374 14.4264C17.7007 12.3711 16.0491 10.7195 13.9938 10.7195Z" fill="white"/>
<path d="M13.9931 15.9315C13.5894 15.9315 13.2223 15.7846 12.9287 15.491C12.6351 15.1974 12.4883 14.8304 12.4883 14.4267C12.4883 14.0229 12.6351 13.6559 12.9287 13.3623C13.2223 13.0687 13.5894 12.9219 13.9931 12.9219C14.3968 12.9219 14.7638 13.0687 15.0574 13.3623C15.351 13.6559 15.4979 14.0229 15.4979 14.4267C15.4979 14.8304 15.351 15.1974 15.0574 15.491C14.8005 15.7846 14.4335 15.9315 13.9931 15.9315ZM13.9931 13.8761C13.6995 13.8761 13.4425 14.133 13.4425 14.4267C13.4425 14.5735 13.5159 14.7203 13.5893 14.8304C13.6995 14.9405 13.8463 14.9772 13.9931 14.9772C14.1399 14.9772 14.2867 14.9038 14.3968 14.8304C14.5069 14.7203 14.5436 14.5735 14.5436 14.4267C14.5436 14.2798 14.4702 14.133 14.3968 14.0229C14.2867 13.9128 14.1399 13.8761 13.9931 13.8761Z" fill="white"/>
<path d="M13.9936 28.0431C10.3968 28.0431 6.9835 26.6484 4.41435 24.0793C1.8452 21.5101 0.41382 18.0969 0.377118 14.4633C0.340416 6.93941 6.43298 0.81014 13.9202 0.773438C13.9569 0.773438 13.9569 0.773438 13.9936 0.773438C21.4809 0.773438 27.5734 6.8293 27.6101 14.3165C27.6101 17.95 26.2154 21.3633 23.6463 23.9692C21.0771 26.575 17.6638 27.9697 14.0303 28.0064C14.0303 28.0431 14.0303 28.0431 13.9936 28.0431ZM13.9936 1.7644C13.9569 1.7644 13.9569 1.7644 13.9202 1.7644C6.94681 1.8011 1.29468 7.48994 1.33139 14.4633C1.33139 17.8399 2.68935 20.9963 5.07499 23.382C7.46062 25.7676 10.6537 27.0522 14.0303 27.0522C17.4069 27.0522 20.5633 25.6942 22.9489 23.3086C25.3346 20.9229 26.6191 17.7298 26.6191 14.3532C26.6191 7.41652 20.967 1.7644 13.9936 1.7644Z" fill="white"/>
<path d="M40.2354 19.0876C37.6662 19.0876 35.5742 16.9955 35.5742 14.4264C35.5742 11.8572 37.6662 9.72852 40.2354 9.72852C40.2354 9.72852 40.2354 9.72852 40.2721 9.72852C41.52 9.72852 42.6944 10.2056 43.5753 11.0865C44.4561 11.9673 44.97 13.1418 44.97 14.3897C44.97 15.6376 44.4928 16.812 43.612 17.6929C42.7311 18.5737 41.52 19.0876 40.2354 19.0876C40.2721 19.0876 40.2721 19.0876 40.2354 19.0876ZM40.2354 10.7195C38.1801 10.7195 36.5285 12.4078 36.5285 14.4264C36.5285 16.4817 38.2168 18.1333 40.2354 18.1333C41.2264 18.1333 42.1439 17.7296 42.8412 17.0322C43.5386 16.3349 43.9056 15.3806 43.9056 14.3897C43.9056 13.3987 43.5019 12.4812 42.8045 11.7838C42.1439 11.0865 41.2264 10.7195 40.2354 10.7195Z" fill="white"/>
<path d="M40.2353 15.9315C39.8315 15.9315 39.4645 15.7846 39.1709 15.491C38.8773 15.1974 38.7305 14.8304 38.7305 14.4267C38.7305 14.0229 38.8773 13.6559 39.1709 13.3623C39.4645 13.0687 39.8315 12.9219 40.2353 12.9219C41.0794 12.9219 41.74 13.5825 41.74 14.4267C41.7767 15.2708 41.0794 15.9315 40.2353 15.9315C40.272 15.9315 40.2353 15.9315 40.2353 15.9315ZM40.2353 13.8761C40.0885 13.8761 39.9416 13.9495 39.8315 14.0229C39.7214 14.0963 39.6847 14.2798 39.6847 14.4267C39.6847 14.5735 39.7581 14.7203 39.8315 14.8304C39.9416 14.9405 40.0885 14.9772 40.2353 14.9772C40.5289 14.9772 40.7858 14.7203 40.7858 14.4267C40.7858 14.133 40.5656 13.8761 40.2353 13.8761Z" fill="white"/>
<path d="M38.6938 28.2261C37.9965 28.2261 37.3359 28.1527 36.7119 28.0426C34.3263 27.5654 31.904 25.8771 29.8853 23.308C28.2704 21.2527 27.0593 18.8303 26.9125 17.2521C26.6555 14.4995 27.2795 10.3521 27.3162 10.1686C27.3162 10.1319 27.3162 10.1319 27.3162 10.0952C27.3529 9.9851 28.0502 7.74628 29.7018 5.47075C31.904 2.42447 34.73 0.80957 37.8864 0.80957C40.4923 0.80957 42.4742 1.21329 43.9056 2.02074C45.2268 2.75478 45.9609 3.70904 46.6949 4.66329C47.429 5.58085 48.0896 6.46169 49.3008 7.08563C51.7965 8.3702 53.4481 10.0218 54.1454 12.0404C54.8428 13.9856 54.7327 16.1878 53.7784 18.7936C53.2279 20.3351 52.2369 21.8032 50.8422 23.1612C49.5944 24.3723 48.0529 25.4367 46.3279 26.2808C43.8688 27.5287 41.0428 28.2261 38.6938 28.2261ZM28.2704 10.3521C28.197 10.7925 27.6465 14.6463 27.9034 17.142C28.0135 18.2798 28.9311 20.4819 30.6561 22.684C32.5279 25.0697 34.7667 26.6479 36.9322 27.0883C39.3912 27.6021 42.8779 26.9415 45.9976 25.4C49.4476 23.7117 51.98 21.1792 52.9343 18.4633C53.7784 16.0776 53.9252 14.059 53.3013 12.3707C52.6774 10.5723 51.2093 9.14095 48.897 7.96649C47.5024 7.26915 46.7316 6.24149 45.9609 5.28723C44.5662 3.48883 43.2449 1.80053 37.8864 1.80053C35.0236 1.80053 32.5279 3.23191 30.4726 6.05797C29.0779 8.03989 28.3805 10.0585 28.2704 10.3521Z" fill="white"/>
</svg>
