<svg width="55" height="39" viewBox="0 0 55 39" fill="none" xmlns="http://www.w3.org/2000/svg">
<path d="M14.3981 19.0876C13.1502 19.0876 11.9757 18.6104 11.0949 17.7296C10.214 16.8487 9.7002 15.6743 9.7002 14.4264C9.7002 13.1785 10.1773 12.0041 11.0582 11.1232C11.939 10.2424 13.1135 9.72852 14.3614 9.72852C14.3614 9.72852 14.3614 9.72852 14.3981 9.72852C15.6459 9.72852 16.8204 10.2056 17.7013 11.0865C18.5821 11.9674 19.0959 13.1418 19.0959 14.3897C19.0959 15.6376 18.6188 16.812 17.738 17.6929C16.8204 18.5737 15.6459 19.0876 14.3981 19.0876ZM14.3981 10.7195C13.4071 10.7195 12.4529 11.1232 11.7555 11.8205C11.0582 12.5179 10.6912 13.4721 10.6912 14.4631C10.6912 15.4541 11.0949 16.3716 11.7922 17.0689C12.4896 17.7663 13.4438 18.1333 14.4348 18.1333C15.4257 18.1333 16.3433 17.7296 17.0406 17.0322C17.738 16.3349 18.105 15.3806 18.105 14.3897C18.105 13.3987 17.7013 12.4812 17.0039 11.7838C16.3066 11.0865 15.389 10.7195 14.3981 10.7195Z" fill="white"/>
<path d="M14.3983 15.932C13.9946 15.932 13.6276 15.7852 13.334 15.4916C13.0404 15.198 12.8936 14.831 12.8936 14.4272C12.8936 13.5831 13.5542 12.9224 14.3983 12.8857C15.2425 12.8857 15.9031 13.5464 15.9031 14.3905C15.9031 15.2347 15.2425 15.932 14.3983 15.932ZM14.3983 13.84C14.1047 13.84 13.8478 14.0969 13.8478 14.3905C13.8478 14.5373 13.9212 14.6842 13.9946 14.7943C14.1047 14.9044 14.2515 14.9411 14.3983 14.9411C14.692 14.9411 14.9489 14.6841 14.9489 14.3905C14.9489 14.0969 14.692 13.84 14.3983 13.84Z" fill="white"/>
<path d="M14.3979 28.0431C10.8011 28.0431 7.3878 26.6484 4.81865 24.0793C2.2495 21.5101 0.818117 18.0968 0.781415 14.4633C0.744713 6.93939 6.83727 0.81014 14.3245 0.773438C17.958 0.773438 21.3713 2.16811 23.9772 4.73726C26.5463 7.30641 27.9777 10.7197 28.0144 14.3532C28.0144 17.9867 26.6197 21.4 24.0506 24.0059C21.4814 26.575 18.0681 28.0064 14.4346 28.0431C14.4346 28.0431 14.3979 28.0431 14.3979 28.0431ZM14.3979 1.7644C14.3612 1.7644 14.3612 1.7644 14.3245 1.7644C7.3511 1.8011 1.69897 7.48992 1.73567 14.4633C1.73567 17.8399 3.09365 20.9963 5.47929 23.3819C7.86493 25.7676 11.058 27.0522 14.4346 27.0522C17.8112 27.0522 20.9676 25.6942 23.3532 23.3085C25.7389 20.9229 27.0234 17.7298 27.0234 14.3532C27.0234 10.9766 25.6655 7.82025 23.2798 5.43461C20.8942 3.04897 17.7378 1.7644 14.3979 1.7644Z" fill="white"/>
<path d="M40.6407 19.0876C38.0715 19.0876 35.9795 16.9956 35.9795 14.4264C35.9795 11.8573 38.0715 9.72852 40.6407 9.72852C40.6407 9.72852 40.6407 9.72852 40.6774 9.72852C43.2465 9.72852 45.3385 11.8205 45.3385 14.3897C45.3385 16.9588 43.2465 19.0509 40.6407 19.0876ZM40.6407 10.7195C38.5853 10.7195 36.9337 12.4078 36.9337 14.4264C36.9337 16.4817 38.622 18.1333 40.6407 18.1333C42.696 18.1333 44.3476 16.445 44.3476 14.4264C44.3476 12.3711 42.6593 10.7195 40.6407 10.7195Z" fill="white"/>
<path d="M40.6396 15.932C39.7954 15.932 39.1348 15.2714 39.1348 14.4272C39.1348 13.5831 39.7954 12.9224 40.6396 12.8857C41.0433 12.8857 41.4103 13.0326 41.7039 13.3262C41.9975 13.6198 42.1443 13.9868 42.1443 14.3905C42.1443 14.7942 41.9975 15.1613 41.7039 15.4549C41.447 15.7485 41.0433 15.932 40.6396 15.932ZM40.6396 13.84C40.3459 13.84 40.089 14.0969 40.089 14.3905C40.089 14.6841 40.3459 14.9411 40.6396 14.9411C40.7864 14.9411 40.9332 14.8677 41.0433 14.7943C41.1534 14.6842 41.1901 14.5373 41.1901 14.3905C41.1901 14.2437 41.1167 14.0969 41.0433 13.9868C40.9332 13.9134 40.7864 13.84 40.6396 13.84Z" fill="white"/>
<path d="M40.6399 28.0431C37.0431 28.0431 33.6298 26.6484 31.0607 24.0793C28.4915 21.5101 27.0601 18.0968 27.0234 14.4633C27.0234 10.8298 28.4181 7.41652 30.9873 4.81067C33.5564 2.24152 36.9697 0.81014 40.6032 0.773438C44.2367 0.773438 47.65 2.16811 50.2559 4.73726C52.825 7.30641 54.2564 10.7197 54.2931 14.3532C54.2931 17.9867 52.8984 21.4 50.3293 24.0059C47.7601 26.575 44.3468 28.0064 40.7133 28.0431C40.6766 28.0431 40.6399 28.0431 40.6399 28.0431ZM40.6399 1.7644C40.6032 1.7644 40.6032 1.7644 40.5665 1.7644C37.1899 1.7644 34.0335 3.12236 31.6479 5.508C29.2623 7.89364 27.9777 11.0867 27.9777 14.4633C27.9777 17.8399 29.3357 20.9963 31.7213 23.3819C34.1069 25.7676 37.3 27.0522 40.6766 27.0522C44.0532 27.0522 47.2096 25.6942 49.5952 23.3085C51.9809 20.9229 53.2655 17.7298 53.2655 14.3532C53.2655 10.9766 51.9075 7.82025 49.5218 5.43461C47.1729 3.04897 43.9798 1.7644 40.6399 1.7644Z" fill="white"/>
<path d="M43.6477 21.6533C43.6844 21.7267 43.7211 21.8001 43.7946 21.8368C44.3451 22.6443 44.8589 23.4884 45.2993 24.3693C45.5563 24.8464 45.8132 25.3602 45.96 25.8741C46.0334 26.0943 46.1068 26.3512 46.1068 26.6081C46.1068 27.232 45.8866 27.8193 45.4461 28.2597C44.969 28.7735 44.3451 29.0305 43.6477 29.0305C42.5467 29.0305 41.5924 28.2597 41.3355 27.1954C41.2254 26.7549 41.2621 26.3145 41.4089 25.9108C41.5557 25.4337 41.7759 24.9932 41.9961 24.5528C42.3265 23.8922 42.6935 23.2315 43.0972 22.6076C43.244 22.2773 43.4642 21.9469 43.6477 21.6533Z" fill="#F8B990"/>
<path d="M43.6481 29.5091H43.6114C42.2901 29.5091 41.1524 28.5916 40.822 27.307C40.6752 26.7932 40.7119 26.2793 40.8954 25.7288C41.0422 25.2884 41.2258 24.8479 41.5194 24.2974C41.8497 23.6735 42.2167 23.0129 42.6571 22.3155C42.8039 22.0953 42.9141 21.8751 43.0609 21.6549C43.1343 21.5448 43.2077 21.4346 43.2444 21.3612L43.6481 20.7373L44.0885 21.4347C44.1252 21.4714 44.1619 21.5081 44.1619 21.5815C44.7859 22.5357 45.263 23.3432 45.7034 24.1506C45.9236 24.591 46.2172 25.1416 46.4008 25.7288C46.4742 25.9857 46.5843 26.2793 46.5476 26.6096C46.5476 27.3804 46.2539 28.041 45.7401 28.5916C45.1896 29.2155 44.4922 29.5091 43.6481 29.5091ZM43.6481 22.5357C43.5747 22.6458 43.5013 22.7559 43.4646 22.866C43.0242 23.5634 42.6938 24.1873 42.3635 24.7745C42.1066 25.2517 41.9231 25.6554 41.813 26.0591C41.7029 26.4261 41.6662 26.7565 41.7763 27.0868C41.9965 27.9309 42.7672 28.5549 43.6481 28.5549C44.2353 28.5549 44.7125 28.3714 45.1162 27.9309C45.4832 27.5639 45.63 27.1235 45.6667 26.6096C45.6667 26.4261 45.63 26.2426 45.5566 26.0591C45.3731 25.5453 45.1529 25.0315 44.9327 24.6277C44.529 23.9304 44.1252 23.2698 43.6481 22.5357Z" fill="#EE7676"/>
<path d="M37.154 38.3193H37.1173C35.796 38.3193 34.6582 37.4017 34.3279 36.1171C34.1811 35.6033 34.2178 35.0895 34.4013 34.5389C34.5481 34.0985 34.7316 33.6581 35.0252 33.1075C35.3555 32.4836 35.7226 31.823 36.163 31.1256C36.3098 30.9054 36.4199 30.6852 36.5667 30.465C36.6401 30.3549 36.7135 30.2448 36.7502 30.1714C36.8236 30.0246 37.0071 29.9512 37.154 29.9512C37.3008 29.9512 37.4843 30.0246 37.5577 30.1714L37.5944 30.2448C37.6311 30.2815 37.6678 30.3182 37.6678 30.3916C38.2917 31.3459 38.7689 32.1533 39.2093 32.9608C39.4295 33.4012 39.7231 33.9517 39.9066 34.5389C39.98 34.7959 40.0901 35.0895 40.0534 35.4198C40.0534 36.1905 39.7598 36.8512 39.246 37.4017C38.6954 38.0256 37.9981 38.3193 37.154 38.3193ZM37.154 31.3458C37.0806 31.456 37.0071 31.5661 36.9704 31.6762C36.53 32.3735 36.1997 32.9974 35.8694 33.5847C35.6125 34.0618 35.429 34.4655 35.3188 34.8692C35.2087 35.2363 35.172 35.5666 35.2821 35.8969C35.5024 36.7411 36.2731 37.365 37.154 37.365C37.7412 37.365 38.2183 37.1815 38.622 36.7411C38.9891 36.374 39.1359 35.9336 39.1726 35.4198C39.1726 35.2363 39.1359 35.0528 39.0625 34.8692C38.879 34.3554 38.6587 33.8416 38.4385 33.4379C38.0348 32.7772 37.6311 32.1166 37.154 31.3458Z" fill="#EE7676"/>
</svg>
