<?xml version="1.0" encoding="utf-8"?>
<svg viewBox="257.189 387.73 293.4 293.4" xmlns="http://www.w3.org/2000/svg">
  <circle class="st1" style="fill:#F6BA92;" cx="403.889" cy="534.43" r="146.7"/>
  <path class="st11" style="fill:#FFFFFF;" d="M 403.689 601.83 C 366.489 602.33 334.289 571.13 334.589 532.53 C 334.889 494.13 365.489 463.73 403.989 463.53 C 441.889 463.33 473.689 495.43 473.089 533.73 C 472.589 570.93 441.489 602.43 403.689 601.83 Z M 345.489 540.53 C 345.289 556.83 358.089 569.93 374.589 569.93 C 390.689 569.93 403.889 557.73 403.789 540.73 C 403.789 523.63 391.389 511.53 374.689 511.43 C 358.089 511.23 345.489 524.13 345.489 540.53 Z M 434.589 575.13 C 445.489 576.23 456.189 564.93 455.589 553.93 C 454.889 541.73 446.489 532.83 434.189 532.83 C 422.889 532.83 413.089 542.63 412.989 553.93 C 412.889 566.33 423.689 576.13 434.589 575.13 Z M 413.789 494.83 C 413.289 504.93 420.889 511.43 429.989 511.53 C 438.689 511.63 446.689 505.43 446.389 495.03 C 446.189 485.23 439.789 479.13 430.189 478.43 C 422.089 477.83 412.289 486.73 413.789 494.83 Z"/>
  <path class="st5" style="fill:#D6936B;" d="M 345.489 540.53 C 345.389 524.13 358.089 511.23 374.689 511.33 C 391.389 511.43 403.689 523.53 403.789 540.63 C 403.789 557.73 390.689 569.83 374.589 569.83 C 358.089 569.93 345.289 556.83 345.489 540.53 Z"/>
  <path class="st5" style="fill:#D6936B;" d="M 434.589 575.13 C 423.689 576.13 412.889 566.43 412.989 553.93 C 413.089 542.63 422.889 532.83 434.189 532.83 C 446.489 532.83 454.889 541.83 455.589 553.93 C 456.189 564.83 445.489 576.23 434.589 575.13 Z"/>
  <path class="st6" style="fill:#FAE1C8;" d="M 413.789 494.83 C 412.389 486.73 422.189 477.83 430.189 478.43 C 439.789 479.13 446.189 485.23 446.389 495.13 C 446.589 505.53 438.589 511.73 429.989 511.63 C 420.889 511.43 413.289 505.03 413.789 494.83 Z"/>
</svg>