<?xml version="1.0" encoding="utf-8"?>
<svg viewBox="-388.644 360.993 333.286 347.967" xmlns="http://www.w3.org/2000/svg">
  <g transform="matrix(1, 0, 0, 1, -369.948181, 386.55719)">
    <g/>
  </g>
  <g transform="matrix(1, 0, 0, 1, -369.948181, 386.55719)">
    <g/>
  </g>
  <g transform="matrix(1, 0, 0, 1, -369.948181, 386.55719)">
    <g>
      <g/>
    </g>
  </g>
  <circle class="st1" style="fill:#F6BA92;" cx="-219.624" cy="533.97" r="146.7"/>
  <path class="st11" style="fill:#FFFFFF;" d="M -233.824 481.97 C -226.824 474.27 -218.124 473.87 -208.824 475.97 C -204.224 476.97 -199.424 477.97 -194.824 477.27 C -185.824 475.87 -178.924 479.87 -172.524 485.37 C -165.124 491.67 -158.624 498.87 -151.924 505.77 C -147.024 510.77 -147.924 517.47 -149.224 523.47 C -152.024 535.77 -158.724 545.67 -169.224 552.87 C -170.524 553.77 -171.924 554.67 -173.224 555.57 C -178.124 559.17 -179.724 563.77 -178.124 569.57 C -177.624 571.27 -177.024 572.87 -176.524 574.57 C -174.924 580.77 -176.824 586.47 -182.524 589.07 C -196.824 595.77 -211.624 598.97 -227.124 592.67 C -229.424 591.77 -233.824 589.47 -233.824 589.47 L -235.324 588.67 L -236.324 588.27 L -237.424 587.97 L -239.024 587.47 C -252.824 585.47 -265.524 580.97 -275.224 570.37 C -283.424 561.27 -287.724 550.67 -288.324 538.37 C -288.824 527.17 -286.924 516.67 -280.924 507.07 C -272.624 493.77 -259.924 487.57 -244.924 485.37 C -242.924 485.07 -241.024 484.87 -239.024 484.67"/>
  <g transform="matrix(1, 0, 0, 1, -366.224426, 386.97049)">
    <g>
      <line class="st2" style="fill:none;stroke:#000000;stroke-width:4;stroke-linecap:round;stroke-linejoin:round;" x1="144.4" y1="66" x2="144.4" y2="76"/>
      <line class="st3" style="fill:none;stroke:#000000;stroke-width:4;stroke-linecap:round;stroke-linejoin:round;stroke-dasharray:1.9196,9.5979;" x1="144.4" y1="85.6" x2="144.4" y2="92.3"/>
      <line class="st4" style="fill:none;stroke:#000000;stroke-width:4;stroke-linecap:round;stroke-linejoin:round;stroke-dasharray:19.1957,9.5979,1.9196,9.5979;" x1="144.4" y1="97.1" x2="144.4" y2="213.2"/>
      <line class="st2" style="fill:none;stroke:#000000;stroke-width:4;stroke-linecap:round;stroke-linejoin:round;" x1="144.4" y1="218" x2="144.4" y2="228"/>
    </g>
  </g>
  <g transform="matrix(1, 0, 0, 1, -369.948181, 386.55719)">
    <g/>
  </g>
  <g transform="matrix(1, 0, 0, 1, -369.948181, 386.55719)">
    <g>
      <g/>
    </g>
  </g>
</svg>