<?xml version="1.0" encoding="utf-8"?>
<svg viewBox="-45.269 382.706 293.4 293.4" xmlns="http://www.w3.org/2000/svg">
  <circle class="st1" style="fill:#F6BA92;" cx="449.7" cy="147" r="146.7" transform="matrix(1, 0, 0, 1, -348.269226, 382.405914)"/>
  <path class="st11" style="fill:#FFFFFF;" d="M435.6,88c7-0.2,11.7,1.5,16.2,3.8c5.1,2.6,10.4,4.3,16.2,4c8.1-0.4,15.4,1.1,20.1,8.8 c1.3,2.2,3.7,3.2,6.4,3.1c4.9-0.1,7.8,2.6,9.3,7c0.8,2.4,1.4,4.8,1.8,7.2c0.9,5.3,2.4,10.2,6.1,14.2c1.5,1.7,2.4,3.9,2.4,6.1 c-0.2,12.9-2.8,24.8-15.1,32.1c-3.7,2.2-7.7,3.6-11.9,3.9c-5.6,0.4-9.1,2.9-9.9,8.7c-0.2,1.2-0.5,2.3-0.9,3.4 c-0.9,2.8-2.8,4.4-5.8,4.4c-6.5,0.1-12.3,2.4-17.7,5.8c-5.7,3.6-11.7,6.8-18.8,4.6c-1.4-0.4-2.9-0.8-4-1.7 c-7.2-6.2-16.1-9.3-24.1-14c-5.4-3.1-9.9-8-10.7-14c-0.9-6-1.2-11.6-5.2-16.7c-1.2-1.5-1.5-4.2-3.1-6c-2-2.1-1.7-4.9-0.9-7.5 c0.6-2,1.5-3.9,2.2-5.9c1-2.7,0.9-5.4-0.3-8c-2.5-5.4-2-6.9,2.6-10.8c5.7-4.8,11.9-9.1,16-15.6c1.3-2.1,2.8-4.1,4.4-6 C417.7,91,427.3,88.6,435.6,88z" transform="matrix(1, 0, 0, 1, -348.269226, 382.405914)"/>
</svg>