<?xml version="1.0" encoding="utf-8" ?>
<!-- Generator: Adobe Illustrator 26.3.1, SVG Export Plug-In . SVG Version: 6.00 Build 0)  -->
<svg
  version="1.1"
  id="Vrstva_1"
  xmlns="http://www.w3.org/2000/svg"
  xmlns:xlink="http://www.w3.org/1999/xlink"
  x="0px"
  y="0px"
  xml:space="preserve"
>

<circle
    class="st10"
    style="fill:#FFFFFF;stroke:#000000;stroke-miterlimit:10;"
    r="146.7"
  />
<circle
    class="st10"
    style="fill:#FFFFFF;stroke:#000000;stroke-miterlimit:10;"
    r="146.7"
  />
<path
    class="st1"
    style="fill:#F6BA92;"
    d="M132.5-533c7-7.7,15.7-8.1,25-6c4.6,1,9.4,2,14,1.3c9-1.4,15.9,2.6,22.3,8.1c7.4,6.3,13.9,13.5,20.6,20.4
	c4.9,5,4,11.7,2.7,17.7c-2.8,12.3-9.5,22.2-20,29.4c-1.3,0.9-2.7,1.8-4,2.7c-4.9,3.6-6.5,8.2-4.9,14c0.5,1.7,1.1,3.3,1.6,5
	c1.6,6.2-0.3,11.9-6,14.5c-14.3,6.7-29.1,9.9-44.6,3.6c-2.3-0.9-6.7-3.2-6.7-3.2l-1.5-0.8l-1-0.4l-1.1-0.3l-1.6-0.5
	c-13.8-2-26.5-6.5-36.2-17.1c-8.2-9.1-12.5-19.7-13.1-32c-0.5-11.2,1.4-21.7,7.4-31.3c8.3-13.3,21-19.5,36-21.7
	c2-0.3,3.9-0.5,5.9-0.7"
  />
<g>
	<g>
		<line
        class="st2"
        style="fill:none;stroke:#000000;stroke-width:4;stroke-linecap:round;stroke-linejoin:round;"
        x1="144.5"
        y1="-562"
        x2="144.5"
        y2="-552"
      />
		<line
        class="st3"
        style="fill:none;stroke:#000000;stroke-width:4;stroke-linecap:round;stroke-linejoin:round;stroke-dasharray:1.9196,9.5979;"
        x1="144.5"
        y1="-542.4"
        x2="144.5"
        y2="-535.7"
      />
		<line
        class="st4"
        style="fill:none;stroke:#000000;stroke-width:4;stroke-linecap:round;stroke-linejoin:round;stroke-dasharray:19.1957,9.5979,1.9196,9.5979;"
        x1="144.5"
        y1="-530.9"
        x2="144.5"
        y2="-414.8"
      />
		<line
        class="st2"
        style="fill:none;stroke:#000000;stroke-width:4;stroke-linecap:round;stroke-linejoin:round;"
        x1="144.5"
        y1="-410"
        x2="144.5"
        y2="-400"
      />
	</g>
</g>
<path
    class="st1"
    style="fill:#F6BA92;"
    d="M435.7-540c7-0.2,11.7,1.5,16.2,3.8c5.1,2.6,10.4,4.3,16.2,4c8.1-0.4,15.4,1.1,20.1,8.8
	c1.3,2.2,3.7,3.2,6.4,3.1c4.9-0.1,7.8,2.6,9.3,7c0.8,2.4,1.4,4.8,1.8,7.2c0.9,5.3,2.4,10.2,6.1,14.2c1.5,1.7,2.4,3.9,2.4,6.1
	c-0.2,12.9-2.8,24.8-15.1,32.1c-3.7,2.2-7.7,3.6-11.9,3.9c-5.6,0.4-9.1,2.9-9.9,8.7c-0.2,1.2-0.5,2.3-0.9,3.4
	c-0.9,2.8-2.8,4.4-5.8,4.4c-6.5,0.1-12.3,2.4-17.7,5.8c-5.7,3.6-11.7,6.8-18.8,4.6c-1.4-0.4-2.9-0.8-4-1.7
	c-7.2-6.2-16.1-9.3-24.1-14c-5.4-3.1-9.9-8-10.7-14c-0.9-6-1.2-11.6-5.2-16.7c-1.2-1.5-1.5-4.2-3.1-6c-2-2.1-1.7-4.9-0.9-7.5
	c0.6-2,1.5-3.9,2.2-5.9c1-2.7,0.9-5.4-0.3-8c-2.5-5.4-2-6.9,2.6-10.8c5.7-4.8,11.9-9.1,16-15.6c1.3-2.1,2.8-4.1,4.4-6
	C417.8-537,427.4-539.4,435.7-540z"
  />
<circle
    class="st10"
    style="fill:#FFFFFF;stroke:#000000;stroke-miterlimit:10;"
    cx="752.8"
    cy="-481"
    r="146.7"
  />
<circle
    class="st10"
    style="fill:#FFFFFF;stroke:#000000;stroke-miterlimit:10;"
    cx="1055.9"
    cy="-481"
    r="146.7"
  />
<circle
    class="st10"
    style="fill:#FFFFFF;stroke:#000000;stroke-miterlimit:10;"
    cx="1358.9"
    cy="-481"
    r="146.7"
  />
<path
    class="st1"
    style="fill:#F6BA92;"
    d="M752.6-413.6c-37.2,0.5-69.4-30.7-69.1-69.3c0.3-38.4,30.9-68.8,69.4-69c37.9-0.2,69.7,31.9,69.1,70.2
	C821.5-444.5,790.4-413,752.6-413.6z M694.4-474.9c-0.2,16.3,12.6,29.4,29.1,29.4c16.1,0,29.3-12.2,29.2-29.2
	c0-17.1-12.4-29.2-29.1-29.3C707-504.2,694.3-491.3,694.4-474.9z M783.5-440.3c10.9,1.1,21.6-10.2,21-21.2
	c-0.7-12.2-9.1-21.1-21.4-21.1c-11.3,0-21.1,9.8-21.2,21.1C761.8-449.1,772.6-439.3,783.5-440.3z M762.7-520.6
	c-0.5,10.1,7.1,16.6,16.2,16.7c8.7,0.1,16.7-6.1,16.4-16.5c-0.2-9.8-6.6-15.9-16.2-16.7C771-537.6,761.2-528.7,762.7-520.6z"
  />
<path
    class="st5"
    style="fill:#D6936B;"
    d="M694.4-474.9c-0.1-16.4,12.6-29.3,29.2-29.2c16.7,0.1,29,12.2,29.1,29.3c0,17.1-13.1,29.2-29.2,29.2
	C707-445.5,694.2-458.6,694.4-474.9z"
  />
<path
    class="st5"
    style="fill:#D6936B;"
    d="M783.5-440.3c-10.9,1-21.7-8.7-21.6-21.2c0.1-11.3,9.9-21.1,21.2-21.1c12.3,0,20.7,9,21.4,21.1
	C805.1-450.6,794.4-439.2,783.5-440.3z"
  />
<path
    class="st6"
    style="fill:#FAE1C8;"
    d="M762.7-520.6c-1.4-8.1,8.4-17,16.4-16.4c9.6,0.7,16,6.8,16.2,16.7c0.2,10.4-7.8,16.6-16.4,16.5
	C769.8-504,762.2-510.5,762.7-520.6z"
  />
<path
    class="st1"
    style="fill:#F6BA92;"
    d="M1122.6-486.1c1.1,34.3-28.4,64.1-63.9,64.1c-35.3,0-64.7-29.4-64.3-64.8c0.5-33.6,27.2-63.6,64.3-63.5
	C1096.5-550.3,1123.7-519,1122.6-486.1z"
  />
<g>
	<g>
		<line
        class="st2"
        style="fill:none;stroke:#000000;stroke-width:4;stroke-linecap:round;stroke-linejoin:round;"
        x1="1126.7"
        y1="-486.2"
        x2="1116.7"
        y2="-486.2"
      />
		<line
        class="st7"
        style="fill:none;stroke:#000000;stroke-width:4;stroke-linecap:round;stroke-linejoin:round;stroke-dasharray:2.2957,11.4787;"
        x1="1105.2"
        y1="-486.2"
        x2="1097.2"
        y2="-486.2"
      />
		<line
        class="st8"
        style="fill:none;stroke:#000000;stroke-width:4;stroke-linecap:round;stroke-linejoin:round;stroke-dasharray:22.9574,11.4787,2.2957,11.4787;"
        x1="1091.4"
        y1="-486.2"
        x2="1000.8"
        y2="-486.2"
      />
		<line
        class="st2"
        style="fill:none;stroke:#000000;stroke-width:4;stroke-linecap:round;stroke-linejoin:round;"
        x1="995"
        y1="-486.2"
        x2="985"
        y2="-486.2"
      />
	</g>
</g>
<path
    class="st1"
    style="fill:#F6BA92;"
    d="M1477.8-489.2c0,9.7-2.4,17.3-9.3,23c-4.3,3.6-6.8,8.5-8.5,13.7c-1.9,5.7-5.5,9.2-11.4,10.5
	c-2.1,0.5-3.7,1.8-4.6,3.8c-2.2,4.9-4.7,6.4-10.1,5.7c-2.8-0.4-5.6-0.8-8.5-1.4c-2.9-0.5-5.5,0.3-8.1,1.2c-3.4,1.1-6.5,0.5-9.6-1
	c-3.4-1.7-6.7-3.5-9.5-6c-6.5-5.6-8.9-12.9-8-21.4c0-0.2,0.1-0.3,0.1-0.5c1.7-5.8,1-10.5-5.2-13.6c-3.2-1.6-3.2-3.5-2.2-7
	c1.4-5,1.4-10,0.2-15.1c-1.3-5.4-1.8-10.8,1.7-15.7c1.4-2,3.1-3.5,5.2-4.6c3.6-1.9,6.6-4.6,9.3-7.6c4.8-5.3,10.3-9.1,17.6-9.9
	c2.6-0.3,5,0,7.1,1.6c1.6,1.3,3,1.4,4.9,0.5c2.1-1,4.2-1.9,6.7-0.8c0.9,0.4,1.9,0,2.8-0.5c2.5-1.4,4.8-1,6.9,0.7
	c0.7,0.6,1.5,1,2.1,1.7c2.7,3.1,6.1,4.6,10.3,4c2.7-0.4,4.2,1,5.1,3.3c0.5,1.2,1,2.3,1.4,3.5c1.9,6.8,5.1,12.9,9.3,18.6
	C1476.7-498.2,1478-493.3,1477.8-489.2z M1417-441.3c11.7,0,21.6-9.3,21.4-20.7c-0.2-12.6-9.1-21.5-21.2-21.5
	c-12.3,0-20.9,9.6-21.1,20.8C1395.7-450.9,1405.8-441.2,1417-441.3z M1412.6-509.1c-0.8,8.1,7.4,13.9,13.3,13.7
	c7.7-0.3,13.2-5.9,13.7-13.5c0.4-6.4-6.3-13.7-13.5-13.6C1418.3-522.5,1411.9-515.4,1412.6-509.1z M1463.7-483.4
	c0-6.7-5.4-12.1-12-12.1c-6.6,0-12.3,5.5-12,12.3c0.3,7,5.1,11.8,12.1,11.6C1458.7-471.7,1463.3-476.5,1463.7-483.4z"
  />
<path
    class="st1"
    style="fill:#F6BA92;"
    d="M1332.1-483.8c0.7,20.8-17.2,38.8-38.7,38.8c-21.4,0-39.2-17.8-38.9-39.3c0.3-20.3,16.4-38.5,39-38.5
	C1316.4-522.7,1332.8-503.7,1332.1-483.8z"
  />
<path
    class="st5"
    style="fill:#D6936B;"
    d="M1417-441.3c-11.1,0.2-21.2-9.5-21-21.4c0.2-11.2,8.8-20.8,21.1-20.8c12.2,0,21,8.9,21.2,21.5
	C1438.6-450.7,1428.7-441.3,1417-441.3z"
  />
<path
    class="st6"
    style="fill:#FAE1C8;"
    d="M1412.6-509.1c-0.8-6.3,5.7-13.4,13.5-13.5c7.2,0,13.9,7.2,13.5,13.6c-0.5,7.7-6,13.3-13.7,13.5
	C1420.1-495.3,1411.8-501,1412.6-509.1z"
  />
<g>
	<g>
		<line
        class="st9"
        style="fill:none;stroke:#000000;stroke-width:2;stroke-linecap:round;stroke-linejoin:round;"
        x1="1363.4"
        y1="-481"
        x2="1339.3"
        y2="-481"
      />
		<g>
			<polygon points="1377.5,-481 1357.6,-489.1 1362.4,-481 1357.6,-472.9 			" />
		</g>
	</g>
</g>
<circle class="st1" style="fill:#F6BA92;" cx="146.6" cy="147" r="146.7" />
<circle class="st1" style="fill:#F6BA92;" cx="449.7" cy="147" r="146.7" />
<path
    class="st11"
    style="fill:#FFFFFF;"
    d="M132.4,95c7-7.7,15.7-8.1,25-6c4.6,1,9.4,2,14,1.3c9-1.4,15.9,2.6,22.3,8.1c7.4,6.3,13.9,13.5,20.6,20.4
	c4.9,5,4,11.7,2.7,17.7c-2.8,12.3-9.5,22.2-20,29.4c-1.3,0.9-2.7,1.8-4,2.7c-4.9,3.6-6.5,8.2-4.9,14c0.5,1.7,1.1,3.3,1.6,5
	c1.6,6.2-0.3,11.9-6,14.5c-14.3,6.7-29.1,9.9-44.6,3.6c-2.3-0.9-6.7-3.2-6.7-3.2l-1.5-0.8l-1-0.4l-1.1-0.3l-1.6-0.5
	c-13.8-2-26.5-6.5-36.2-17.1c-8.2-9.1-12.5-19.7-13.1-32c-0.5-11.2,1.4-21.7,7.4-31.3c8.3-13.3,21-19.5,36-21.7
	c2-0.3,3.9-0.5,5.9-0.7"
  />
<g>
	<g>
		<line
        class="st2"
        style="fill:none;stroke:#000000;stroke-width:4;stroke-linecap:round;stroke-linejoin:round;"
        x1="144.4"
        y1="66"
        x2="144.4"
        y2="76"
      />
		<line
        class="st3"
        style="fill:none;stroke:#000000;stroke-width:4;stroke-linecap:round;stroke-linejoin:round;stroke-dasharray:1.9196,9.5979;"
        x1="144.4"
        y1="85.6"
        x2="144.4"
        y2="92.3"
      />
		<line
        class="st4"
        style="fill:none;stroke:#000000;stroke-width:4;stroke-linecap:round;stroke-linejoin:round;stroke-dasharray:19.1957,9.5979,1.9196,9.5979;"
        x1="144.4"
        y1="97.1"
        x2="144.4"
        y2="213.2"
      />
		<line
        class="st2"
        style="fill:none;stroke:#000000;stroke-width:4;stroke-linecap:round;stroke-linejoin:round;"
        x1="144.4"
        y1="218"
        x2="144.4"
        y2="228"
      />
	</g>
</g>
<path
    class="st11"
    style="fill:#FFFFFF;"
    d="M435.6,88c7-0.2,11.7,1.5,16.2,3.8c5.1,2.6,10.4,4.3,16.2,4c8.1-0.4,15.4,1.1,20.1,8.8
	c1.3,2.2,3.7,3.2,6.4,3.1c4.9-0.1,7.8,2.6,9.3,7c0.8,2.4,1.4,4.8,1.8,7.2c0.9,5.3,2.4,10.2,6.1,14.2c1.5,1.7,2.4,3.9,2.4,6.1
	c-0.2,12.9-2.8,24.8-15.1,32.1c-3.7,2.2-7.7,3.6-11.9,3.9c-5.6,0.4-9.1,2.9-9.9,8.7c-0.2,1.2-0.5,2.3-0.9,3.4
	c-0.9,2.8-2.8,4.4-5.8,4.4c-6.5,0.1-12.3,2.4-17.7,5.8c-5.7,3.6-11.7,6.8-18.8,4.6c-1.4-0.4-2.9-0.8-4-1.7
	c-7.2-6.2-16.1-9.3-24.1-14c-5.4-3.1-9.9-8-10.7-14c-0.9-6-1.2-11.6-5.2-16.7c-1.2-1.5-1.5-4.2-3.1-6c-2-2.1-1.7-4.9-0.9-7.5
	c0.6-2,1.5-3.9,2.2-5.9c1-2.7,0.9-5.4-0.3-8c-2.5-5.4-2-6.9,2.6-10.8c5.7-4.8,11.9-9.1,16-15.6c1.3-2.1,2.8-4.1,4.4-6
	C417.7,91,427.3,88.6,435.6,88z"
  />
<circle class="st1" style="fill:#F6BA92;" cx="752.7" cy="147" r="146.7" />
<circle class="st1" style="fill:#F6BA92;" cx="1055.8" cy="147" r="146.7" />
<circle class="st1" style="fill:#F6BA92;" cx="1358.8" cy="147" r="146.7" />
<path
    class="st11"
    style="fill:#FFFFFF;"
    d="M752.5,214.4c-37.2,0.5-69.4-30.7-69.1-69.3c0.3-38.4,30.9-68.8,69.4-69c37.9-0.2,69.7,31.9,69.1,70.2
	C821.4,183.5,790.3,215,752.5,214.4z M694.3,153.1c-0.2,16.3,12.6,29.4,29.1,29.4c16.1,0,29.3-12.2,29.2-29.2
	c0-17.1-12.4-29.2-29.1-29.3C706.9,123.8,694.3,136.7,694.3,153.1z M783.4,187.7c10.9,1.1,21.6-10.2,21-21.2
	c-0.7-12.2-9.1-21.1-21.4-21.1c-11.3,0-21.1,9.8-21.2,21.1C761.7,178.9,772.5,188.7,783.4,187.7z M762.6,107.4
	c-0.5,10.1,7.1,16.6,16.2,16.7c8.7,0.1,16.7-6.1,16.4-16.5C795,97.8,788.6,91.7,779,91C770.9,90.4,761.1,99.3,762.6,107.4z"
  />
<path
    class="st5"
    style="fill:#D6936B;"
    d="M694.3,153.1c-0.1-16.4,12.6-29.3,29.2-29.2c16.7,0.1,29,12.2,29.1,29.3c0,17.1-13.1,29.2-29.2,29.2
	C706.9,182.5,694.1,169.4,694.3,153.1z"
  />
<path
    class="st5"
    style="fill:#D6936B;"
    d="M783.4,187.7c-10.9,1-21.7-8.7-21.6-21.2c0.1-11.3,9.9-21.1,21.2-21.1c12.3,0,20.7,9,21.4,21.1
	C805,177.4,794.3,188.8,783.4,187.7z"
  />
<path
    class="st6"
    style="fill:#FAE1C8;"
    d="M762.6,107.4c-1.4-8.1,8.4-17,16.4-16.4c9.6,0.7,16,6.8,16.2,16.7c0.2,10.4-7.8,16.6-16.4,16.5
	C769.7,124,762.1,117.6,762.6,107.4z"
  />
<path
    class="st11"
    style="fill:#FFFFFF;"
    d="M1122.5,141.9c1.1,34.3-28.4,64.1-63.9,64.1c-35.3,0-64.7-29.4-64.3-64.8c0.5-33.6,27.2-63.6,64.3-63.5
	C1096.4,77.7,1123.6,109,1122.5,141.9z"
  />
<g>
	<g>
		<line
        class="st2"
        style="fill:none;stroke:#000000;stroke-width:4;stroke-linecap:round;stroke-linejoin:round;"
        x1="1126.6"
        y1="141.8"
        x2="1116.6"
        y2="141.8"
      />
		<line
        class="st7"
        style="fill:none;stroke:#000000;stroke-width:4;stroke-linecap:round;stroke-linejoin:round;stroke-dasharray:2.2957,11.4787;"
        x1="1105.1"
        y1="141.8"
        x2="1097.1"
        y2="141.8"
      />
		<line
        class="st8"
        style="fill:none;stroke:#000000;stroke-width:4;stroke-linecap:round;stroke-linejoin:round;stroke-dasharray:22.9574,11.4787,2.2957,11.4787;"
        x1="1091.3"
        y1="141.8"
        x2="1000.7"
        y2="141.8"
      />
		<line
        class="st2"
        style="fill:none;stroke:#000000;stroke-width:4;stroke-linecap:round;stroke-linejoin:round;"
        x1="994.9"
        y1="141.8"
        x2="984.9"
        y2="141.8"
      />
	</g>
</g>
<path
    class="st11"
    style="fill:#FFFFFF;"
    d="M1477.7,138.9c0,9.7-2.4,17.3-9.3,23c-4.3,3.6-6.8,8.5-8.5,13.7c-1.9,5.7-5.5,9.2-11.4,10.5
	c-2.1,0.5-3.7,1.8-4.6,3.8c-2.2,4.9-4.7,6.4-10.1,5.7c-2.8-0.4-5.6-0.8-8.5-1.4c-2.9-0.5-5.5,0.3-8.1,1.2c-3.4,1.1-6.5,0.5-9.6-1
	c-3.4-1.7-6.7-3.5-9.5-6c-6.5-5.6-8.9-12.9-8-21.4c0-0.2,0.1-0.3,0.1-0.5c1.7-5.8,1-10.5-5.2-13.6c-3.2-1.6-3.2-3.5-2.2-7
	c1.4-5,1.4-10,0.2-15.1c-1.3-5.4-1.8-10.8,1.7-15.7c1.4-2,3.1-3.5,5.2-4.6c3.6-1.9,6.6-4.6,9.3-7.6c4.8-5.3,10.3-9.1,17.6-9.9
	c2.6-0.3,5,0,7.1,1.6c1.6,1.3,3,1.4,4.9,0.5c2.1-1,4.2-1.9,6.7-0.8c0.9,0.4,1.9,0,2.8-0.5c2.5-1.4,4.8-1,6.9,0.7
	c0.7,0.6,1.5,1,2.1,1.7c2.7,3.1,6.1,4.6,10.3,4c2.7-0.4,4.2,1,5.1,3.3c0.5,1.2,1,2.3,1.4,3.5c1.9,6.8,5.1,12.9,9.3,18.6
	C1476.6,129.8,1478,134.7,1477.7,138.9z M1416.9,186.7c11.7,0,21.6-9.3,21.4-20.7c-0.2-12.6-9.1-21.5-21.2-21.5
	c-12.3,0-20.9,9.6-21.1,20.8C1395.6,177.2,1405.7,186.9,1416.9,186.7z M1412.5,118.9c-0.8,8.1,7.4,13.9,13.3,13.7
	c7.7-0.3,13.2-5.9,13.7-13.5c0.4-6.4-6.3-13.7-13.5-13.6C1418.2,105.5,1411.8,112.6,1412.5,118.9z M1463.6,144.6
	c0-6.7-5.4-12.1-12-12.1c-6.6,0-12.3,5.5-12,12.3c0.3,7,5.1,11.8,12.1,11.6C1458.6,156.3,1463.2,151.6,1463.6,144.6z"
  />
<path
    class="st11"
    style="fill:#FFFFFF;"
    d="M1332.1,144.2c0.7,20.8-17.2,38.8-38.7,38.8c-21.4,0-39.2-17.8-38.9-39.3c0.3-20.3,16.4-38.5,39-38.5
	C1316.3,105.3,1332.7,124.3,1332.1,144.2z"
  />
<path
    class="st5"
    style="fill:#D6936B;"
    d="M1416.9,186.7c-11.1,0.2-21.2-9.5-21-21.4c0.2-11.2,8.8-20.8,21.1-20.8c12.2,0,21,8.9,21.2,21.5
	C1438.5,177.3,1428.6,186.7,1416.9,186.7z"
  />
<path
    class="st5"
    style="fill:#D6936B;"
    d="M1463.6,144.6c-0.4,7-5,11.7-11.9,11.9c-7,0.1-11.8-4.7-12.1-11.6c-0.3-6.8,5.4-12.3,12-12.3
	C1458.2,132.5,1463.6,137.9,1463.6,144.6z"
  />
<path
    class="st6"
    style="fill:#FAE1C8;"
    d="M1412.5,118.9c-0.8-6.3,5.7-13.4,13.5-13.5c7.2,0,13.9,7.2,13.5,13.6c-0.5,7.7-6,13.3-13.7,13.5
	C1420,132.8,1411.8,127,1412.5,118.9z"
  />
<g>
	<g>
		<line
        class="st9"
        style="fill:none;stroke:#000000;stroke-width:2;stroke-linecap:round;stroke-linejoin:round;"
        x1="1363.3"
        y1="147"
        x2="1339.2"
        y2="147"
      />
		<g>
			<polygon points="1377.4,147 1357.5,138.9 1362.3,147 1357.5,155.1 			" />
		</g>
	</g>
</g>
</svg>
