<?xml version="1.0" encoding="utf-8"?>
<svg viewBox="560.831 382.706 293.4 293.4" xmlns="http://www.w3.org/2000/svg">
  <circle class="st1" style="fill:#F6BA92;" cx="1055.8" cy="147" r="146.7" transform="matrix(1, 0, 0, 1, -348.269226, 382.405914)"/>
  <path class="st11" style="fill:#FFFFFF;" d="M1122.5,141.9c1.1,34.3-28.4,64.1-63.9,64.1c-35.3,0-64.7-29.4-64.3-64.8c0.5-33.6,27.2-63.6,64.3-63.5 C1096.4,77.7,1123.6,109,1122.5,141.9z" transform="matrix(1, 0, 0, 1, -348.269226, 382.405914)"/>
  <g transform="matrix(1, 0, 0, 1, -348.269226, 382.405914)">
    <g>
      <line class="st2" style="fill:none;stroke:#000000;stroke-width:4;stroke-linecap:round;stroke-linejoin:round;" x1="1126.6" y1="141.8" x2="1116.6" y2="141.8"/>
      <line class="st7" style="fill:none;stroke:#000000;stroke-width:4;stroke-linecap:round;stroke-linejoin:round;stroke-dasharray:2.2957,11.4787;" x1="1105.1" y1="141.8" x2="1097.1" y2="141.8"/>
      <line class="st8" style="fill:none;stroke:#000000;stroke-width:4;stroke-linecap:round;stroke-linejoin:round;stroke-dasharray:22.9574,11.4787,2.2957,11.4787;" x1="1091.3" y1="141.8" x2="1000.7" y2="141.8"/>
      <line class="st2" style="fill:none;stroke:#000000;stroke-width:4;stroke-linecap:round;stroke-linejoin:round;" x1="994.9" y1="141.8" x2="984.9" y2="141.8"/>
    </g>
  </g>
</svg>