<?xml version="1.0" encoding="utf-8"?>
<svg viewBox="863.831 382.706 293.4 293.4" xmlns="http://www.w3.org/2000/svg">
  <circle class="st1" style="fill:#F6BA92;" cx="1358.8" cy="147" r="146.7" transform="matrix(1, 0, 0, 1, -348.269226, 382.405914)"/>
  <path class="st11" style="fill:#FFFFFF;" d="M1477.7,138.9c0,9.7-2.4,17.3-9.3,23c-4.3,3.6-6.8,8.5-8.5,13.7c-1.9,5.7-5.5,9.2-11.4,10.5 c-2.1,0.5-3.7,1.8-4.6,3.8c-2.2,4.9-4.7,6.4-10.1,5.7c-2.8-0.4-5.6-0.8-8.5-1.4c-2.9-0.5-5.5,0.3-8.1,1.2c-3.4,1.1-6.5,0.5-9.6-1 c-3.4-1.7-6.7-3.5-9.5-6c-6.5-5.6-8.9-12.9-8-21.4c0-0.2,0.1-0.3,0.1-0.5c1.7-5.8,1-10.5-5.2-13.6c-3.2-1.6-3.2-3.5-2.2-7 c1.4-5,1.4-10,0.2-15.1c-1.3-5.4-1.8-10.8,1.7-15.7c1.4-2,3.1-3.5,5.2-4.6c3.6-1.9,6.6-4.6,9.3-7.6c4.8-5.3,10.3-9.1,17.6-9.9 c2.6-0.3,5,0,7.1,1.6c1.6,1.3,3,1.4,4.9,0.5c2.1-1,4.2-1.9,6.7-0.8c0.9,0.4,1.9,0,2.8-0.5c2.5-1.4,4.8-1,6.9,0.7 c0.7,0.6,1.5,1,2.1,1.7c2.7,3.1,6.1,4.6,10.3,4c2.7-0.4,4.2,1,5.1,3.3c0.5,1.2,1,2.3,1.4,3.5c1.9,6.8,5.1,12.9,9.3,18.6 C1476.6,129.8,1478,134.7,1477.7,138.9z M1416.9,186.7c11.7,0,21.6-9.3,21.4-20.7c-0.2-12.6-9.1-21.5-21.2-21.5 c-12.3,0-20.9,9.6-21.1,20.8C1395.6,177.2,1405.7,186.9,1416.9,186.7z M1412.5,118.9c-0.8,8.1,7.4,13.9,13.3,13.7 c7.7-0.3,13.2-5.9,13.7-13.5c0.4-6.4-6.3-13.7-13.5-13.6C1418.2,105.5,1411.8,112.6,1412.5,118.9z M1463.6,144.6 c0-6.7-5.4-12.1-12-12.1c-6.6,0-12.3,5.5-12,12.3c0.3,7,5.1,11.8,12.1,11.6C1458.6,156.3,1463.2,151.6,1463.6,144.6z" transform="matrix(1, 0, 0, 1, -348.269226, 382.405914)"/>
  <path class="st11" style="fill:#FFFFFF;" d="M1332.1,144.2c0.7,20.8-17.2,38.8-38.7,38.8c-21.4,0-39.2-17.8-38.9-39.3c0.3-20.3,16.4-38.5,39-38.5 C1316.3,105.3,1332.7,124.3,1332.1,144.2z" transform="matrix(1, 0, 0, 1, -348.269226, 382.405914)"/>
  <path class="st5" style="fill:#D6936B;" d="M1416.9,186.7c-11.1,0.2-21.2-9.5-21-21.4c0.2-11.2,8.8-20.8,21.1-20.8c12.2,0,21,8.9,21.2,21.5 C1438.5,177.3,1428.6,186.7,1416.9,186.7z" transform="matrix(1, 0, 0, 1, -348.269226, 382.405914)"/>
  <path class="st5" style="fill:#D6936B;" d="M1463.6,144.6c-0.4,7-5,11.7-11.9,11.9c-7,0.1-11.8-4.7-12.1-11.6c-0.3-6.8,5.4-12.3,12-12.3 C1458.2,132.5,1463.6,137.9,1463.6,144.6z" transform="matrix(1, 0, 0, 1, -348.269226, 382.405914)"/>
  <path class="st6" style="fill:#FAE1C8;" d="M1412.5,118.9c-0.8-6.3,5.7-13.4,13.5-13.5c7.2,0,13.9,7.2,13.5,13.6c-0.5,7.7-6,13.3-13.7,13.5 C1420,132.8,1411.8,127,1412.5,118.9z" transform="matrix(1, 0, 0, 1, -348.269226, 382.405914)"/>
  <g transform="matrix(1, 0, 0, 1, -348.269226, 382.405914)">
    <g>
      <line class="st9" style="fill:none;stroke:#000000;stroke-width:2;stroke-linecap:round;stroke-linejoin:round;" x1="1363.3" y1="147" x2="1339.2" y2="147"/>
      <g>
        <polygon points="1377.4,147 1357.5,138.9 1362.3,147 1357.5,155.1 &#9;&#9;&#9;"/>
      </g>
    </g>
  </g>
</svg>