<svg width="46" height="27" viewBox="0 0 46 27" fill="none" xmlns="http://www.w3.org/2000/svg">
<path d="M13.7884 26.6294C6.62733 26.6294 0.80896 20.811 0.771663 13.6499C0.734365 6.45156 6.55274 0.595891 13.7511 0.558594C16.4365 0.558594 19.01 1.34183 21.1733 2.83372C23.0381 4.13912 24.53 5.85479 25.5371 7.90614C26.3949 6.48884 27.5884 5.25803 29.0057 4.3629C30.7587 3.24398 32.7727 2.64723 34.8241 2.64723V3.09481V2.64723H34.8614C40.8662 2.64723 45.7895 7.53318 45.7895 13.538C45.7895 16.4472 44.6706 19.2072 42.6192 21.2959C40.5679 23.3845 37.8079 24.5407 34.8987 24.5407H34.8614C32.7727 24.5407 30.7587 23.944 29.043 22.8624C27.5884 21.9672 26.3949 20.7364 25.5371 19.2818C24.5673 21.2959 23.0754 23.0115 21.2479 24.3169C19.0846 25.8088 16.5111 26.6294 13.863 26.6294C13.8257 26.6294 13.7884 26.6294 13.7884 26.6294ZM13.7884 1.49103H13.7511C7.0749 1.52832 1.6668 6.97372 1.70409 13.6499C1.74139 20.3261 7.1868 25.7343 13.863 25.697C16.3246 25.697 18.7117 24.951 20.7257 23.5337C22.7025 22.1537 24.1944 20.2515 25.0895 18.051C25.1641 17.8645 25.3133 17.7526 25.4998 17.7526C25.6862 17.7526 25.8354 17.8645 25.9473 18.0137C26.7679 19.6548 28.036 21.0721 29.6025 22.0418C31.2062 23.0489 33.0338 23.571 34.936 23.571H34.9733C37.6587 23.571 40.1576 22.4894 42.0598 20.5872C43.9619 18.6851 44.9689 16.1488 44.9689 13.5007C44.9316 7.98074 40.456 3.54238 34.936 3.54238H34.8987C32.9965 3.54238 31.1689 4.10182 29.5652 5.10884C27.9987 6.11587 26.7679 7.49589 25.9473 9.13697C25.8727 9.28616 25.6862 9.39803 25.4998 9.39803C25.3133 9.39803 25.1641 9.28615 25.0895 9.09966C24.1944 6.86182 22.6652 4.95966 20.6884 3.57967C18.5998 2.23696 16.25 1.49103 13.7884 1.49103Z" fill="white"/>
</svg>
