<svg width="51" height="31" viewBox="0 0 51 31" fill="none" xmlns="http://www.w3.org/2000/svg">
<path d="M13.9003 30.3669C13.6392 30.3669 13.4154 30.3669 13.1543 30.3669C9.5365 30.2177 6.44083 28.6512 3.86732 25.742C2.67381 24.3993 1.81596 22.8328 1.2938 21.1171C0.771637 19.476 0.622438 17.7231 0.771627 15.9701C1.1073 12.3149 2.93488 8.95818 5.76947 6.75764C8.90245 4.29602 13.1543 3.40089 17.0706 4.33332C20.8003 5.22845 23.8214 7.61549 25.7235 11.1214C26.8797 8.99549 28.4835 7.20522 30.3857 5.97441C32.3251 4.7063 34.563 3.99766 36.8381 3.88577C37.6587 2.1328 39.4116 0.976562 41.3884 0.976562C41.3884 0.976562 41.3884 0.976562 41.4257 0.976562C42.7684 0.976562 43.9992 1.49873 44.9689 2.43117C45.9387 3.3636 46.4608 4.63171 46.4608 5.97441C46.4608 6.38468 46.4235 6.79495 46.3116 7.20522C49.1835 9.74143 50.7873 13.322 50.7873 17.0517C50.75 23.0566 46.6846 28.3528 40.8662 29.8447C39.7846 30.1431 38.6657 30.2549 37.5841 30.2549C35.7192 30.2549 33.8543 29.8447 32.1387 29.0614C29.4533 27.8306 27.29 25.742 25.7981 23.0193C23.1127 27.9052 19.0846 30.3669 13.9003 30.3669ZM13.9749 4.93009C11.2149 4.93009 8.52947 5.82521 6.32893 7.50359C3.68083 9.55494 2.00245 12.6506 1.66677 16.0447C1.51758 17.6858 1.66677 19.2895 2.15163 20.8187C2.6365 22.4225 3.45705 23.8771 4.53867 25.1079C6.92569 27.8306 9.79758 29.2479 13.1543 29.3971C15.9516 29.509 18.376 28.9122 20.4273 27.6068C22.4041 26.3387 24.0452 24.3993 25.3506 21.8258C25.4251 21.6766 25.6116 21.5647 25.7608 21.5647C25.9473 21.5647 26.0965 21.6766 26.1711 21.8258C27.5511 24.7722 29.7143 26.9728 32.4743 28.2036C35.0105 29.3598 37.9198 29.6209 40.6052 28.9122C46.0133 27.495 49.8176 22.609 49.8176 17.0144C49.8176 13.4712 48.2511 10.0398 45.4538 7.69008C45.3046 7.57818 45.2673 7.3917 45.3046 7.20522C45.4165 6.79495 45.4911 6.38468 45.4911 5.97441C45.4911 4.89279 45.0435 3.84847 44.2603 3.06522C43.477 2.28198 42.47 1.87171 41.3884 1.87171C41.3884 1.87171 41.3884 1.87171 41.3511 1.87171C39.6727 1.87171 38.1808 2.91603 37.5468 4.48252C37.4722 4.669 37.323 4.78089 37.1365 4.78089C34.8987 4.85549 32.7354 5.52683 30.8333 6.75764C28.7819 8.10035 27.1781 9.96521 26.0592 12.3522C25.9846 12.5014 25.8354 12.6133 25.6489 12.6133C25.4624 12.6133 25.3133 12.5014 25.2387 12.3522C23.4857 8.65981 20.5019 6.1236 16.7722 5.22846C15.9516 5.04198 14.9446 4.93009 13.9749 4.93009Z" fill="white"/>
</svg>
