<svg width="51" height="27" viewBox="0 0 51 27" fill="none" xmlns="http://www.w3.org/2000/svg">
<path d="M34.936 26.5913C34.2646 26.5913 33.6306 26.5167 33.0338 26.4048C29.5652 25.6962 26.6933 22.5632 25.0895 19.8032C24.0452 21.6307 22.5906 23.1972 20.8003 24.3162C18.7117 25.6589 16.2873 26.3675 13.8257 26.3675C13.7884 26.3675 13.7884 26.3675 13.7511 26.3675C10.2825 26.3675 7.03761 25.0248 4.57599 22.6005C2.11437 20.1389 0.734375 16.894 0.734375 13.388C0.734375 9.91939 2.07707 6.63725 4.5014 4.17562C6.96302 1.714 10.2079 0.333984 13.7138 0.333984C16.2127 0.333984 18.6371 1.04264 20.763 2.34805C22.5533 3.46697 24.0452 5.03344 25.0895 6.86101C25.6863 5.7048 26.5814 4.28751 27.8122 3.09399C29.6771 1.26643 31.803 0.333984 34.19 0.333984C36.689 0.333984 38.5538 0.706971 39.9711 1.49021C41.2392 2.19886 41.9479 3.13129 42.6565 4.02643C43.3279 4.92156 43.9992 5.74211 45.1555 6.33886C47.5425 7.56967 49.109 9.17346 49.8176 11.0756C50.489 12.9032 50.3771 15.0291 49.4819 17.5281C48.9598 19.0199 47.99 20.4372 46.6846 21.7054C45.4911 22.8616 43.9992 23.8686 42.3954 24.6891C39.8965 25.92 37.2111 26.5913 34.936 26.5913ZM25.1268 18.3859C25.3133 18.3859 25.4625 18.4978 25.5371 18.647C27.7749 23.0108 31.0944 25.0621 33.2576 25.5097C35.6073 25.9945 38.9268 25.3605 41.9479 23.9059C45.23 22.2648 47.6544 19.8778 48.5868 17.267C49.4073 14.9918 49.5192 13.0524 48.9225 11.4486C48.3257 9.73292 46.9457 8.3529 44.7079 7.23398C43.3652 6.56263 42.6192 5.59292 41.9106 4.66048C40.5679 2.94481 39.3371 1.34102 34.19 1.34102C32.0641 1.34102 30.1246 2.16156 28.4463 3.83994C27.029 5.25724 26.0592 6.9729 25.4998 8.16642C25.4252 8.31561 25.276 8.4275 25.0895 8.4275C24.903 8.4275 24.7538 8.31561 24.6792 8.16642C23.7095 6.15236 22.1803 4.43669 20.2782 3.20588C18.3387 1.97507 16.0636 1.30373 13.7511 1.30373C10.5063 1.30373 7.48519 2.60912 5.21005 4.88426C2.93492 7.19669 1.7041 10.2178 1.7041 13.4626C1.7041 16.7075 3.00951 19.7286 5.28464 22.0037C7.55978 24.2789 10.5809 25.5097 13.7884 25.5097C13.8257 25.5097 13.8257 25.5097 13.8257 25.5097C16.1382 25.5097 18.376 24.8383 20.3155 23.6075C22.1803 22.3767 23.7095 20.6983 24.6792 18.6843C24.7911 18.4978 24.9403 18.3859 25.1268 18.3859Z" fill="white"/>
</svg>
