<svg width="51" height="27" viewBox="0 0 51 27" fill="none" xmlns="http://www.w3.org/2000/svg">
<path d="M13.9374 26.5908C13.6763 26.5908 13.4525 26.5908 13.1914 26.5908C9.57361 26.4417 6.47792 24.8752 3.90441 21.966C2.7109 20.6233 1.85305 19.0568 1.33089 17.3411C0.808726 15.7 0.659551 13.9471 0.80874 12.1941C1.14442 8.53896 2.97197 5.1822 5.80656 2.98166C8.93954 0.520037 13.1914 -0.375098 17.1077 0.557335C20.8374 1.45247 23.8585 3.8395 25.7606 7.34545C27.2525 4.58545 29.4531 2.45949 32.1758 1.22868C34.9358 -0.0021292 38.0314 -0.263211 40.9406 0.482735C43.7379 1.22868 46.2741 2.90706 48.0644 5.2195C49.8547 7.53193 50.8244 10.3665 50.8244 13.2384C50.7871 19.2433 46.7217 24.5395 40.9033 26.0314C37.9941 26.7773 34.8985 26.5162 32.1385 25.2854C29.4531 24.0546 27.2898 21.966 25.7979 19.2433C23.1125 24.1292 19.1217 26.5908 13.9374 26.5908ZM14.012 1.15408C11.252 1.15408 8.56656 2.04923 6.36602 3.7276C3.71792 5.77896 2.03954 8.87462 1.70386 12.2687C1.55467 13.9098 1.70388 15.5136 2.18874 17.0427C2.67361 18.6465 3.49414 20.1011 4.57576 21.3319C6.96279 24.0546 9.83469 25.4719 13.1914 25.6211C15.9887 25.733 18.4131 25.1362 20.4644 23.8308C22.4412 22.5627 24.0822 20.6233 25.3876 18.0498C25.4622 17.9006 25.6114 17.7887 25.7979 17.7887C25.9844 17.7887 26.1336 17.9006 26.2082 18.0498C27.5882 20.9962 29.7514 23.1968 32.5114 24.4276C35.0477 25.5838 37.9568 25.8449 40.6422 25.1362C46.0504 23.7189 49.8547 18.833 49.8547 13.2384C49.8547 10.5903 48.9595 7.94219 47.2812 5.81624C45.6028 3.653 43.2531 2.08653 40.6422 1.37788C37.9568 0.669231 35.0477 0.89301 32.5114 2.04923C29.7141 3.31733 27.5136 5.55516 26.1336 8.53894C26.059 8.68813 25.9098 8.80003 25.7233 8.80003C25.5368 8.80003 25.3877 8.68813 25.3131 8.53894C23.5601 4.84651 20.5763 2.3103 16.8466 1.41517C15.9514 1.26598 14.9817 1.15408 14.012 1.15408Z" fill="white"/>
<path d="M36.8014 18.8704C37.1928 18.8704 37.5101 18.5532 37.5101 18.1618C37.5101 17.7704 37.1928 17.4531 36.8014 17.4531C36.4101 17.4531 36.0928 17.7704 36.0928 18.1618C36.0928 18.5532 36.4101 18.8704 36.8014 18.8704Z" fill="#EE7676"/>
<path d="M36.6147 21.7422C36.8825 21.7422 37.0996 21.5251 37.0996 21.2573C37.0996 20.9895 36.8825 20.7725 36.6147 20.7725C36.347 20.7725 36.1299 20.9895 36.1299 21.2573C36.1299 21.5251 36.347 21.7422 36.6147 21.7422Z" fill="#EE7676"/>
<path d="M40.8668 16.9691C41.2582 16.9691 41.5755 16.6518 41.5755 16.2604C41.5755 15.869 41.2582 15.5518 40.8668 15.5518C40.4755 15.5518 40.1582 15.869 40.1582 16.2604C40.1582 16.6518 40.4755 16.9691 40.8668 16.9691Z" fill="#EE7676"/>
<path d="M42.8063 16.4837C43.1977 16.4837 43.5149 16.1664 43.5149 15.7751C43.5149 15.3837 43.1977 15.0664 42.8063 15.0664C42.4149 15.0664 42.0977 15.3837 42.0977 15.7751C42.0977 16.1664 42.4149 16.4837 42.8063 16.4837Z" fill="#EE7676"/>
<path d="M41.8364 14.7305C42.1042 14.7305 42.3213 14.5134 42.3213 14.2456C42.3213 13.9778 42.1042 13.7607 41.8364 13.7607C41.5686 13.7607 41.3516 13.9778 41.3516 14.2456C41.3516 14.5134 41.5686 14.7305 41.8364 14.7305Z" fill="#EE7676"/>
<path d="M38.48 17.2295C38.7478 17.2295 38.9648 17.0124 38.9648 16.7446C38.9648 16.4768 38.7478 16.2598 38.48 16.2598C38.2122 16.2598 37.9951 16.4768 37.9951 16.7446C37.9951 17.0124 38.2122 17.2295 38.48 17.2295Z" fill="#EE7676"/>
<path d="M37.9953 20.2877C38.2425 20.2877 38.443 20.0873 38.443 19.8402C38.443 19.593 38.2425 19.3926 37.9953 19.3926C37.7481 19.3926 37.5479 19.593 37.5479 19.8402C37.5479 20.0873 37.7481 20.2877 37.9953 20.2877Z" fill="#EE7676"/>
<path d="M45.2679 17.4537C45.5151 17.4537 45.7154 17.2534 45.7154 17.0062C45.7154 16.759 45.5151 16.5586 45.2679 16.5586C45.0207 16.5586 44.8203 16.759 44.8203 17.0062C44.8203 17.2534 45.0207 17.4537 45.2679 17.4537Z" fill="#EE7676"/>
<path d="M39.2262 18.8704C39.6176 18.8704 39.9349 18.5532 39.9349 18.1618C39.9349 17.7704 39.6176 17.4531 39.2262 17.4531C38.8349 17.4531 38.5176 17.7704 38.5176 18.1618C38.5176 18.5532 38.8349 18.8704 39.2262 18.8704Z" fill="#EE7676"/>
<path d="M40.1207 20.8851C40.5121 20.8851 40.8294 20.5678 40.8294 20.1764C40.8294 19.785 40.5121 19.4678 40.1207 19.4678C39.7294 19.4678 39.4121 19.785 39.4121 20.1764C39.4121 20.5678 39.7294 20.8851 40.1207 20.8851Z" fill="#EE7676"/>
<path d="M38.7409 22.5999C39.1323 22.5999 39.4495 22.2827 39.4495 21.8913C39.4495 21.4999 39.1323 21.1826 38.7409 21.1826C38.3495 21.1826 38.0322 21.4999 38.0322 21.8913C38.0322 22.2827 38.3495 22.5999 38.7409 22.5999Z" fill="#EE7676"/>
<path d="M40.8665 22.3395C41.1137 22.3395 41.3141 22.1391 41.3141 21.8919C41.3141 21.6447 41.1137 21.4443 40.8665 21.4443C40.6193 21.4443 40.4189 21.6447 40.4189 21.8919C40.4189 22.1391 40.6193 22.3395 40.8665 22.3395Z" fill="#EE7676"/>
<path d="M42.0234 20.1766C42.2294 20.1766 42.3963 20.0096 42.3963 19.8036C42.3963 19.5976 42.2294 19.4307 42.0234 19.4307C41.8174 19.4307 41.6504 19.5976 41.6504 19.8036C41.6504 20.0096 41.8174 20.1766 42.0234 20.1766Z" fill="#EE7676"/>
<path d="M39.4491 15.701C39.6551 15.701 39.8221 15.534 39.8221 15.3281C39.8221 15.1221 39.6551 14.9551 39.4491 14.9551C39.2432 14.9551 39.0762 15.1221 39.0762 15.3281C39.0762 15.534 39.2432 15.701 39.4491 15.701Z" fill="#EE7676"/>
<path d="M45.2675 19.2811C45.4735 19.2811 45.6405 19.1141 45.6405 18.9081C45.6405 18.7021 45.4735 18.5352 45.2675 18.5352C45.0615 18.5352 44.8945 18.7021 44.8945 18.9081C44.8945 19.1141 45.0615 19.2811 45.2675 19.2811Z" fill="#EE7676"/>
<path d="M42.1347 21.2577C42.3407 21.2577 42.5077 21.0907 42.5077 20.8847C42.5077 20.6787 42.3407 20.5117 42.1347 20.5117C41.9287 20.5117 41.7617 20.6787 41.7617 20.8847C41.7617 21.0907 41.9287 21.2577 42.1347 21.2577Z" fill="#EE7676"/>
<path d="M46.3495 16.1112C46.5555 16.1112 46.7225 15.9442 46.7225 15.7382C46.7225 15.5322 46.5555 15.3652 46.3495 15.3652C46.1435 15.3652 45.9766 15.5322 45.9766 15.7382C45.9766 15.9442 46.1435 16.1112 46.3495 16.1112Z" fill="#EE7676"/>
<path d="M37.1366 23.3465C37.3426 23.3465 37.5096 23.1795 37.5096 22.9736C37.5096 22.7676 37.3426 22.6006 37.1366 22.6006C36.9307 22.6006 36.7637 22.7676 36.7637 22.9736C36.7637 23.1795 36.9307 23.3465 37.1366 23.3465Z" fill="#EE7676"/>
<path d="M41.501 18.6466C41.8306 18.6466 42.0978 18.3795 42.0978 18.0499C42.0978 17.7203 41.8306 17.4531 41.501 17.4531C41.1715 17.4531 40.9043 17.7203 40.9043 18.0499C40.9043 18.3795 41.1715 18.6466 41.501 18.6466Z" fill="#EE7676"/>
<path d="M44.0374 14.2086C44.2846 14.2086 44.485 14.0082 44.485 13.761C44.485 13.5138 44.2846 13.3135 44.0374 13.3135C43.7902 13.3135 43.5898 13.5138 43.5898 13.761C43.5898 14.0082 43.7902 14.2086 44.0374 14.2086Z" fill="#EE7676"/>
<path d="M47.1702 14.6188C47.4174 14.6188 47.6178 14.4184 47.6178 14.1712C47.6178 13.924 47.4174 13.7236 47.1702 13.7236C46.923 13.7236 46.7227 13.924 46.7227 14.1712C46.7227 14.4184 46.923 14.6188 47.1702 14.6188Z" fill="#EE7676"/>
<path d="M43.5523 18.1995C43.9437 18.1995 44.261 17.8822 44.261 17.4909C44.261 17.0995 43.9437 16.7822 43.5523 16.7822C43.1609 16.7822 42.8438 17.0995 42.8438 17.4909C42.8438 17.8822 43.1609 18.1995 43.5523 18.1995Z" fill="#EE7676"/>
<path d="M43.5526 19.99C43.8616 19.99 44.1121 19.7395 44.1121 19.4306C44.1121 19.1216 43.8616 18.8711 43.5526 18.8711C43.2436 18.8711 42.9932 19.1216 42.9932 19.4306C42.9932 19.7395 43.2436 19.99 43.5526 19.99Z" fill="#EE7676"/>
<path d="M44.8198 16.0361C45.0876 16.0361 45.3047 15.8191 45.3047 15.5513C45.3047 15.2835 45.0876 15.0664 44.8198 15.0664C44.552 15.0664 44.335 15.2835 44.335 15.5513C44.335 15.8191 44.552 16.0361 44.8198 16.0361Z" fill="#EE7676"/>
</svg>
