<svg width="82" height="82" viewBox="0 0 82 82" fill="none" xmlns="http://www.w3.org/2000/svg">
<path d="M41.001 82C63.6446 82 82.001 63.6437 82.001 41C82.001 18.3563 63.6446 0 41.001 0C18.3573 0 0.000976562 18.3563 0.000976562 41C0.000976562 63.6437 18.3573 82 41.001 82Z" fill="#F1C29B"/>
<path d="M48.6301 43.6222C48.5619 43.6218 48.4941 43.6121 48.4286 43.5934C48.2453 43.5398 48.0908 43.4155 47.9991 43.248C47.9073 43.0805 47.8859 42.8834 47.9393 42.7001L48.0389 42.3602C48.09 42.1867 48.101 42.0038 48.0709 41.8255C48.0407 41.6471 47.9704 41.4779 47.8651 41.3308L47.76 41.1835C47.6553 41.0382 47.5179 40.9194 47.3589 40.8369C47.1999 40.7544 47.0237 40.7105 46.8445 40.7087C46.6537 40.7063 46.4716 40.6282 46.3383 40.4916C46.205 40.355 46.1315 40.1711 46.1338 39.9803C46.1362 39.7894 46.2142 39.6073 46.3508 39.4741C46.4874 39.3408 46.6714 39.2672 46.8622 39.2696C47.2678 39.2741 47.6666 39.3742 48.0263 39.5617C48.386 39.7493 48.6963 40.0189 48.9323 40.3489L49.0374 40.495C49.2691 40.8191 49.424 41.1916 49.4904 41.5844C49.5567 41.9772 49.5328 42.3799 49.4204 42.7621L49.3208 43.103C49.2774 43.2527 49.1866 43.3842 49.062 43.4778C48.9375 43.5715 48.7859 43.6221 48.6301 43.6222Z" fill="#F2EFEC"/>
<path d="M36.6567 63.2635H36.6479C34.4672 63.2635 32.6085 62.2673 31.2758 60.3965C30.3627 59.1125 29.8171 57.6038 29.6978 56.0329C29.5784 54.4619 29.8897 52.8881 30.5983 51.4809C30.6836 51.3102 30.8332 51.1804 31.0142 51.12C31.1952 51.0596 31.3928 51.0735 31.5636 51.1588C31.7343 51.2441 31.8641 51.3937 31.9245 51.5748C31.9849 51.7558 31.971 51.9534 31.8857 52.1241C31.2942 53.2978 31.034 54.6106 31.1331 55.9211C31.2321 57.2317 31.6868 58.4904 32.448 59.5618C33.5151 61.0607 34.9287 61.8223 36.6545 61.8245H36.6612C38.2474 61.8245 40.0717 61.1481 41.7986 59.9183L49.6282 54.3436L51.0673 53.3207C50.8902 53.0252 50.4684 52.5458 50.2437 52.2968C50.019 52.0477 49.8131 51.8108 49.6692 51.6093C49.6142 51.5324 49.575 51.4453 49.5537 51.3532C49.5324 51.261 49.5295 51.1656 49.5451 51.0723C49.5608 50.9791 49.5946 50.8898 49.6448 50.8096C49.6949 50.7294 49.7604 50.6599 49.8374 50.6051C49.9145 50.5502 50.0016 50.5111 50.0938 50.4899C50.1859 50.4688 50.2814 50.466 50.3746 50.4817C50.4679 50.4975 50.5571 50.5315 50.6372 50.5817C50.7173 50.632 50.7867 50.6976 50.8415 50.7747C50.94 50.9142 51.1248 51.1223 51.3208 51.3425C51.975 52.0798 52.6491 52.8425 52.5739 53.5764C52.5591 53.7231 52.5134 53.8649 52.4397 53.9926C52.3661 54.1202 52.2662 54.2308 52.1466 54.317C52.0359 54.3956 51.2743 54.9402 50.4629 55.5169L42.6344 61.0906C40.6319 62.5119 38.5674 63.2635 36.6567 63.2635Z" fill="#F2EFEC"/>
<path d="M37.9796 47.0275C37.8271 47.0275 37.6786 46.9792 37.5554 46.8893C37.4322 46.7995 37.3407 46.6728 37.2941 46.5276C37.2476 46.3824 37.2484 46.2262 37.2964 46.0814C37.3444 45.9367 37.4371 45.811 37.5612 45.7224L45.4827 40.0768L46.4524 39.4015C46.609 39.2925 46.8026 39.2501 46.9904 39.2837C47.1783 39.3174 47.3451 39.4242 47.4542 39.5809C47.5633 39.7375 47.6056 39.931 47.572 40.1189C47.5384 40.3068 47.4315 40.4736 47.2749 40.5827L46.3107 41.2535L38.3958 46.8891C38.275 46.9775 38.1294 47.0259 37.9796 47.0275Z" fill="#F2EFEC"/>
<path d="M41.5641 53.2705C41.4114 53.2707 41.2627 53.2223 41.1393 53.1323C41.016 53.0423 40.9244 52.9154 40.8779 52.77C40.8315 52.6245 40.8325 52.4681 40.8808 52.3232C40.9291 52.1784 41.0223 52.0527 41.1468 51.9643L50.1055 45.586C50.2443 45.487 50.3382 45.3369 50.3664 45.1688C50.3946 45.0007 50.3549 44.8282 50.2561 44.6893L49.7734 44.0107C49.6431 43.8285 49.4459 43.7053 49.2249 43.6681C49.0039 43.631 48.7772 43.6829 48.5945 43.8126L39.8007 50.0736C39.7238 50.1286 39.6367 50.1678 39.5446 50.1891C39.4524 50.2104 39.357 50.2133 39.2637 50.1977C39.1704 50.182 39.0812 50.1482 39.001 50.098C38.9208 50.0478 38.8513 49.9824 38.7965 49.9054C38.7416 49.8283 38.7025 49.7412 38.6813 49.649C38.6602 49.5569 38.6574 49.4614 38.6731 49.3682C38.6889 49.2749 38.7229 49.1857 38.7731 49.1056C38.8234 49.0255 38.889 48.9561 38.9661 48.9013L47.7598 42.6403C48.2536 42.2896 48.8663 42.149 49.4636 42.2495C50.0608 42.3499 50.5938 42.6831 50.9457 43.1761L51.4283 43.8546C51.7483 44.3045 51.8766 44.863 51.785 45.4075C51.6935 45.9519 51.3896 46.4377 50.9402 46.7582L41.9815 53.1366C41.8596 53.2234 41.7138 53.2702 41.5641 53.2705Z" fill="#F2EFEC"/>
<path d="M43.7428 56.3321C43.5904 56.332 43.4421 56.2834 43.319 56.1935C43.196 56.1035 43.1047 55.9769 43.0583 55.8317C43.0119 55.6866 43.0127 55.5304 43.0608 55.3858C43.1088 55.2412 43.2015 55.1155 43.3255 55.027L52.5444 48.4626C52.6123 48.4116 52.6581 48.3364 52.6724 48.2526C52.6866 48.1688 52.6681 48.0827 52.6207 48.0121L51.5891 46.563C51.5549 46.5163 51.5038 46.4848 51.4467 46.4753C51.3896 46.4657 51.331 46.479 51.2835 46.5121L41.9794 53.1363C41.9025 53.1912 41.8154 53.2304 41.7233 53.2517C41.6311 53.273 41.5357 53.2759 41.4424 53.2603C41.3492 53.2447 41.2599 53.2108 41.1797 53.1606C41.0996 53.1105 41.03 53.045 40.9752 52.968C40.9203 52.891 40.8812 52.8039 40.86 52.7117C40.8389 52.6195 40.8361 52.5241 40.8519 52.4308C40.8676 52.3376 40.9016 52.2484 40.9518 52.1683C41.0021 52.0882 41.0677 52.0187 41.1448 51.964L50.4489 45.3398C50.8073 45.0853 51.2519 44.9833 51.6854 45.0562C52.1189 45.129 52.5058 45.3707 52.7613 45.7284L53.793 47.1774C54.0634 47.5584 54.1717 48.0311 54.094 48.4917C54.0164 48.9524 53.7593 49.3635 53.379 49.6349L44.1602 56.1993C44.0382 56.2858 43.8924 56.3322 43.7428 56.3321Z" fill="#F2EFEC"/>
<path d="M31.2412 52.5219C31.0915 52.5223 30.9454 52.4754 30.8239 52.388C30.6699 52.278 30.5654 52.1118 30.533 51.9253C30.5007 51.7388 30.5432 51.5471 30.6512 51.3917C30.6767 51.3474 30.7254 51.2157 30.7531 51.1449C30.7924 51.0308 30.8401 50.9198 30.8958 50.8128L30.9069 50.7929L36.4252 41.5419C36.4949 41.4224 36.5934 41.3205 36.8491 41.0991C37.2164 40.7615 37.6953 40.5711 38.1941 40.5645C38.8517 40.5645 39.4395 40.8855 40.1867 41.2917L40.3593 41.3858C40.5955 41.5157 40.7705 41.7341 40.8459 41.9929C40.9212 42.2517 40.8907 42.5298 40.7612 42.7662L38.6181 46.6506C38.5259 46.8178 38.3711 46.9415 38.1877 46.9946C38.0042 47.0476 37.8073 47.0256 37.6401 46.9334C37.4729 46.8412 37.3491 46.6864 37.2961 46.503C37.2431 46.3196 37.265 46.1226 37.3572 45.9554L39.2944 42.4452C38.8262 42.1906 38.452 42.0024 38.1974 42.0024C38.1045 42.0024 37.9838 42.0257 37.7845 42.1939C37.7037 42.2625 37.6572 42.3046 37.6307 42.3301L32.1567 51.508C32.1478 51.5279 32.1213 51.5998 32.1024 51.6474C32.0367 51.8481 31.9452 52.0394 31.8301 52.2164C31.7639 52.3111 31.6757 52.3883 31.5732 52.4415C31.4706 52.4947 31.3567 52.5223 31.2412 52.5219Z" fill="#F2EFEC"/>
<path d="M25.2438 52.5537C16.8253 52.5537 9.97754 45.7049 9.97754 37.2874C9.97754 28.87 16.8208 22.0234 25.2438 22.0234C33.6667 22.0234 40.51 28.8689 40.51 37.2874C40.5118 37.9205 40.4748 38.553 40.3993 39.1815L40.1027 41.5349C40.0789 41.7243 39.9808 41.8964 39.8301 42.0135C39.6794 42.1306 39.4884 42.183 39.299 42.1592C39.1096 42.1354 38.9375 42.0374 38.8204 41.8867C38.7033 41.736 38.6509 41.5449 38.6746 41.3556L38.9713 39.0033C39.0412 38.4336 39.0763 37.8602 39.0765 37.2863C39.0737 34.3483 38.1343 31.4876 36.3947 29.1199C34.6551 26.7522 32.206 25.0007 29.4031 24.1199C26.6002 23.2391 23.5894 23.2748 20.8082 24.2219C18.027 25.169 15.6201 26.9781 13.9372 29.3865C12.2544 31.7948 11.3831 34.677 11.4501 37.6143C11.517 40.5516 12.5187 43.3911 14.3096 45.7202C16.1004 48.0494 18.5872 49.747 21.4087 50.5664C24.2302 51.3857 27.2394 51.2843 29.9993 50.2766L31.9852 49.1907C32.1521 49.1046 32.346 49.0872 32.5256 49.1421C32.7051 49.1971 32.8561 49.32 32.9462 49.4847C33.0364 49.6494 33.0586 49.8428 33.0081 50.0237C32.9576 50.2045 32.8384 50.3585 32.676 50.4526L30.6425 51.5652C30.6119 51.582 30.5801 51.5964 30.5473 51.6083C28.8498 52.2368 27.0538 52.5569 25.2438 52.5537Z" fill="#F2EFEC"/>
<path d="M25.2338 42.1141C24.392 42.1141 23.5691 41.8645 22.8692 41.3968C22.1692 40.9291 21.6237 40.2644 21.3015 39.4867C20.9794 38.7089 20.8951 37.8531 21.0593 37.0275C21.2236 36.2019 21.6289 35.4435 22.2242 34.8482C22.8194 34.253 23.5778 33.8476 24.4035 33.6833C25.2291 33.5191 26.0849 33.6034 26.8627 33.9256C27.6404 34.2477 28.3051 34.7932 28.7728 35.4932C29.2405 36.1931 29.4901 37.016 29.4901 37.8579C29.4887 38.9862 29.0398 40.068 28.2419 40.8659C27.444 41.6638 26.3622 42.1127 25.2338 42.1141ZM25.2338 35.0406C24.6766 35.0406 24.132 35.2059 23.6687 35.5154C23.2054 35.825 22.8443 36.265 22.6311 36.7798C22.4178 37.2945 22.362 37.861 22.4707 38.4075C22.5794 38.954 22.8478 39.4559 23.2418 39.8499C23.6358 40.2439 24.1377 40.5122 24.6842 40.621C25.2307 40.7297 25.7972 40.6739 26.312 40.4606C26.8267 40.2474 27.2667 39.8863 27.5763 39.423C27.8859 38.9597 28.0511 38.4151 28.0511 37.8579C28.0502 37.1109 27.7531 36.3949 27.225 35.8667C26.6968 35.3386 25.9808 35.0415 25.2338 35.0406Z" fill="#F2EFEC"/>
<path d="M25.1862 39.4027C24.8834 39.4027 24.5874 39.3129 24.3357 39.1447C24.0839 38.9765 23.8877 38.7374 23.7718 38.4576C23.6559 38.1779 23.6256 37.8701 23.6847 37.5731C23.7438 37.2761 23.8896 37.0033 24.1037 36.7892C24.3178 36.5751 24.5906 36.4293 24.8875 36.3702C25.1845 36.3112 25.4923 36.3415 25.7721 36.4574C26.0518 36.5732 26.2909 36.7695 26.4592 37.0212C26.6274 37.273 26.7171 37.569 26.7171 37.8717C26.7166 38.2776 26.5551 38.6667 26.2681 38.9536C25.9811 39.2406 25.5921 39.4021 25.1862 39.4027ZM25.1862 37.3371C25.0805 37.3371 24.9771 37.3685 24.8892 37.4272C24.8012 37.486 24.7327 37.5694 24.6922 37.6671C24.6518 37.7648 24.6412 37.8724 24.6618 37.9761C24.6824 38.0798 24.7334 38.175 24.8082 38.2498C24.8829 38.3246 24.9782 38.3755 25.0819 38.3962C25.1856 38.4168 25.2931 38.4062 25.3908 38.3657C25.4885 38.3253 25.572 38.2567 25.6308 38.1688C25.6895 38.0809 25.7209 37.9775 25.7209 37.8717C25.7209 37.7298 25.6646 37.5938 25.5643 37.4933C25.4641 37.3929 25.3281 37.3363 25.1862 37.336V37.3371Z" fill="#F2EFEC"/>
<path d="M56.4508 51.9808C55.2492 51.9811 54.0518 51.8403 52.883 51.5613C52.8492 51.5537 52.8159 51.5437 52.7834 51.5314L51.3931 51.0078C51.3046 50.9745 51.2236 50.9241 51.1546 50.8595C51.0856 50.7949 51.03 50.7174 50.991 50.6313C50.952 50.5452 50.9303 50.4522 50.9272 50.3578C50.9241 50.2633 50.9397 50.1692 50.9729 50.0807C51.0062 49.9923 51.0566 49.9112 51.1212 49.8422C51.1858 49.7733 51.2634 49.7177 51.3495 49.6787C51.4356 49.6397 51.5285 49.618 51.623 49.6149C51.7174 49.6118 51.8116 49.6273 51.9 49.6606L53.2472 50.1687C56.2259 50.8755 59.3549 50.5728 62.1428 49.3082C64.9308 48.0435 67.2196 45.8886 68.6499 43.182C70.0802 40.4753 70.5709 37.3702 70.0448 34.3543C69.5188 31.3385 68.0058 28.5829 65.7437 26.5203C63.4815 24.4576 60.5982 23.2049 57.5468 22.9588C54.4954 22.7127 51.4486 23.4873 48.8851 25.1607C46.3217 26.8342 44.3867 29.3118 43.3842 32.2043C42.3817 35.0969 42.3684 38.2405 43.3465 41.1414L43.9 42.2251C43.9455 42.3095 43.9737 42.4022 43.9829 42.4977C43.9921 42.5931 43.9822 42.6895 43.9536 42.7811C43.925 42.8726 43.8784 42.9575 43.8166 43.0308C43.7547 43.1041 43.6788 43.1643 43.5934 43.2079C43.5079 43.2514 43.4146 43.2774 43.3189 43.2844C43.2233 43.2913 43.1272 43.2791 43.0363 43.2484C42.9455 43.2177 42.8616 43.1691 42.7898 43.1056C42.718 43.042 42.6596 42.9647 42.6181 42.8782L42.0425 41.7491C42.0269 41.7187 42.0136 41.6873 42.0026 41.655C41.4594 40.0646 41.183 38.3952 41.1846 36.7146C41.1846 28.3016 48.0334 21.4473 56.4519 21.4473C64.8704 21.4473 71.7181 28.2961 71.7181 36.7146C71.7181 45.1331 64.8638 51.9808 56.4508 51.9808Z" fill="#F2EFEC"/>
<path d="M56.4311 41.5419C55.5892 41.5419 54.7663 41.2923 54.0663 40.8245C53.3663 40.3568 52.8208 39.692 52.4987 38.9142C52.1766 38.1364 52.0924 37.2805 52.2567 36.4548C52.421 35.6292 52.8265 34.8708 53.4218 34.2756C54.0172 33.6804 54.7757 33.2751 55.6014 33.1109C56.4271 32.9468 57.283 33.0313 58.0607 33.3536C58.8384 33.6759 59.5031 34.2217 59.9706 34.9218C60.4382 35.6218 60.6876 36.4449 60.6874 37.2867C60.6862 38.4151 60.2374 39.4969 59.4394 40.2947C58.6414 41.0925 57.5595 41.5411 56.4311 41.5419ZM56.4311 34.4695C55.8739 34.4695 55.3292 34.6347 54.8659 34.9443C54.4026 35.2538 54.0416 35.6938 53.8283 36.2086C53.6151 36.7234 53.5593 37.2898 53.668 37.8363C53.7767 38.3828 54.045 38.8848 54.439 39.2788C54.833 39.6728 55.335 39.9411 55.8815 40.0499C56.428 40.1586 56.9944 40.1028 57.5092 39.8895C58.024 39.6763 58.464 39.3152 58.7736 38.8519C59.0831 38.3886 59.2483 37.8439 59.2483 37.2867C59.2478 36.5397 58.9508 35.8235 58.4225 35.2953C57.8943 34.7671 57.1781 34.4701 56.4311 34.4695Z" fill="#F2EFEC"/>
<path d="M56.3893 38.8285C56.0865 38.8285 55.7905 38.7387 55.5388 38.5705C55.287 38.4023 55.0908 38.1631 54.9749 37.8834C54.8591 37.6037 54.8287 37.2959 54.8878 36.9989C54.9469 36.7019 55.0927 36.4291 55.3068 36.215C55.5209 36.0009 55.7937 35.8551 56.0907 35.796C56.3876 35.737 56.6954 35.7673 56.9752 35.8831C57.2549 35.999 57.494 36.1952 57.6623 36.447C57.8305 36.6988 57.9203 36.9947 57.9203 37.2975C57.9197 37.7034 57.7582 38.0924 57.4712 38.3794C57.1842 38.6664 56.7952 38.8279 56.3893 38.8285ZM56.3893 36.7629C56.2836 36.7629 56.1802 36.7942 56.0923 36.853C56.0044 36.9117 55.9358 36.9952 55.8954 37.0929C55.8549 37.1906 55.8443 37.2981 55.8649 37.4019C55.8856 37.5056 55.9365 37.6008 56.0113 37.6756C56.086 37.7504 56.1813 37.8013 56.285 37.8219C56.3887 37.8426 56.4962 37.832 56.5939 37.7915C56.6916 37.751 56.7751 37.6825 56.8339 37.5946C56.8926 37.5067 56.924 37.4033 56.924 37.2975C56.924 37.1557 56.8677 37.0197 56.7674 36.9195C56.6671 36.8192 56.5311 36.7629 56.3893 36.7629Z" fill="#F2EFEC"/>
</svg>
