<?xml version="1.0" encoding="utf-8" ?>
<!-- Generator: Adobe Illustrator 26.3.1, SVG Export Plug-In . SVG Version: 6.00 Build 0)  -->
<svg
  version="1.1"
  id="Vrstva_1"
  xmlns="http://www.w3.org/2000/svg"
  xmlns:xlink="http://www.w3.org/1999/xlink"
  x="0px"
  y="0px"
  viewBox="0 0 293.5 294"
  style="enable-background:new 0 0 293.5 294;"
  xml:space="preserve"
>
<circle class="st4" style="fill:#f6ba92;" cx="146.7" cy="147" r="146.7" />
<g>
	<path
      class="st1"
      style="fill:#FFFFFF;"
      d="M210.3,86c0,0,42.7,26.2,42.4,28.2c-0.3,2-7,8.8-7,8.8l-39.9-31.6L210.3,86z"
    />
	<path
      style="fill:#FFFFFF;"
      class="st1"
      d="M203.6,94.8c0,0,38.3,32.6,40.1,31.7c1.8-0.9,5.8-7.5,5.8-7.5l-42.1-30L203.6,94.8z"
    />
	<path
      style="fill:#FFFFFF;"
      class="st1"
      d="M201.4,95.6c7.1-5.1,11.3-13.8,10.1-23.1c-1.7-13.4-14-22.8-27.4-21.1c-6.5,0.8-12.2,4.1-16.2,9.3
		c-4,5.2-5.7,11.6-4.9,18c0.8,6.5,4.1,12.2,9.3,16.2c5.2,4,11.6,5.7,18,4.9C194.5,99.4,198.2,97.9,201.4,95.6z M175.8,59.4
		c2.6-1.9,5.7-3.1,9-3.5c10.9-1.4,20.9,6.3,22.3,17.2c1,7.6-2.4,14.7-8.3,18.8c-2.6,1.8-5.6,3.1-9,3.5c-5.3,0.7-10.5-0.7-14.7-4
		c-4.2-3.3-6.9-8-7.6-13.2l0,0c-0.7-5.3,0.7-10.5,4-14.7C172.7,61.9,174.2,60.6,175.8,59.4z"
    />
	<path
      style="fill:#FFFFFF;"
      class="st1"
      d="M202.9,97.7c2.1-1.5,4.1-3.4,5.7-5.5c4.4-5.7,6.3-12.7,5.4-19.8c-1.9-14.7-15.4-25-30-23.1s-25,15.4-23.1,30
		c1.9,14.7,15.4,25,30,23.1C195.3,101.8,199.4,100.2,202.9,97.7z M173.7,56.4c3.1-2.2,6.8-3.7,10.7-4.2c13-1.7,24.9,7.5,26.6,20.5
		c0.8,6.3-0.9,12.5-4.7,17.5c-3.9,5-9.5,8.2-15.8,9.1c-13,1.7-24.9-7.5-26.6-20.5c-0.8-6.3,0.9-12.5,4.7-17.5
		C170.1,59.4,171.8,57.8,173.7,56.4z"
    />
</g>
<g>
	<g>
		<path
        style="fill:none;stroke:#FFFFFF;stroke-width:6;stroke-linecap:round;stroke-linejoin:round;stroke-miterlimit:10;"
        class="st2"
        d="M104,81.1c0,0-0.4,21.7-2.4,24.9c-2.1,3.2-25.9,9.1-33.5,15.8S50.3,238.7,50.3,238.7"
      />
		<path
        style="fill:none;stroke:#FFFFFF;stroke-width:6;stroke-linecap:round;stroke-linejoin:round;stroke-miterlimit:10;"
        class="st2"
        d="M88.6,147.4c0,0,4.3,66.9-4.3,96.2"
      />
		<path
        style="fill:none;stroke:#FFFFFF;stroke-width:6;stroke-linecap:round;stroke-linejoin:round;stroke-miterlimit:10;"
        class="st2"
        d="M139.8,81.1c0,0,0.4,21.7,2.4,24.9c2.1,3.2,25.9,9.1,33.5,15.8c7.6,6.8,17.7,116.8,17.7,116.8"
      />
		<path
        class="st2"
        style="fill:none;stroke:#FFFFFF;stroke-width:6;stroke-linecap:round;stroke-linejoin:round;stroke-miterlimit:10;"
        d="M155.2,147.4c0,0-4.3,66.9,4.3,96.2"
      />
	</g>
	<g>
		<circle
        class="st3"
        style="fill:#E85853;stroke:#E85853;stroke-miterlimit:10;"
        cx="135.3"
        cy="127.5"
        r="1.1"
      />
		<circle
        class="st3"
        style="fill:#E85853;stroke:#E85853;stroke-miterlimit:10;"
        cx="153"
        cy="123.9"
        r="1.1"
      />
		<circle
        class="st3"
        style="fill:#E85853;stroke:#E85853;stroke-miterlimit:10;"
        cx="147"
        cy="135.4"
        r="1.1"
      />
		<circle
        class="st3"
        style="fill:#E85853;stroke:#E85853;stroke-miterlimit:10;"
        cx="140.9"
        cy="142.8"
        r="1.1"
      />
		<circle
        class="st3"
        style="fill:#E85853;stroke:#E85853;stroke-miterlimit:10;"
        cx="168"
        cy="138.8"
        r="1.1"
      />
		<circle
        class="st3"
        style="fill:#E85853;stroke:#E85853;stroke-miterlimit:10;"
        cx="162"
        cy="150.3"
        r="1.1"
      />
		<circle
        class="st3"
        style="fill:#E85853;stroke:#E85853;stroke-miterlimit:10;"
        cx="170.9"
        cy="148.7"
        r="1.1"
      />
		<circle
        class="st3"
        style="fill:#E85853;stroke:#E85853;stroke-miterlimit:10;"
        cx="159.2"
        cy="134.8"
        r="1.1"
      />
		<circle
        class="st3"
        style="fill:#E85853;stroke:#E85853;stroke-miterlimit:10;"
        cx="165.1"
        cy="160.7"
        r="1.1"
      />
		<circle
        class="st3"
        style="fill:#E85853;stroke:#E85853;stroke-miterlimit:10;"
        cx="130.3"
        cy="153.5"
        r="1.1"
      />
		<circle
        class="st3"
        style="fill:#E85853;stroke:#E85853;stroke-miterlimit:10;"
        cx="148.1"
        cy="149.8"
        r="1.1"
      />
		<circle
        class="st3"
        style="fill:#E85853;stroke:#E85853;stroke-miterlimit:10;"
        cx="142"
        cy="161.4"
        r="1.1"
      />
		<circle
        class="st3"
        style="fill:#E85853;stroke:#E85853;stroke-miterlimit:10;"
        cx="162"
        cy="172.1"
        r="1.1"
      />
		<circle
        class="st3"
        style="fill:#E85853;stroke:#E85853;stroke-miterlimit:10;"
        cx="166.2"
        cy="127.5"
        r="1.1"
      />
		<circle
        class="st3"
        style="fill:#E85853;stroke:#E85853;stroke-miterlimit:10;"
        cx="129.2"
        cy="137.7"
        r="1.1"
      />
	</g>
</g>
</svg>
