<svg width="82" height="82" viewBox="0 0 82 82" fill="none" xmlns="http://www.w3.org/2000/svg">
<path d="M41 82C63.6437 82 82 63.6437 82 41C82 18.3563 63.6437 0 41 0C18.3563 0 0 18.3563 0 41C0 63.6437 18.3563 82 41 82Z" fill="#F1C29B"/>
<path d="M33.0548 44.9082C31.2001 44.9073 29.3928 44.3223 27.8892 43.2364C26.3857 42.1505 25.2623 40.6186 24.6784 38.8582C24.0946 37.0978 24.0798 35.1983 24.6364 33.4291C25.1929 31.6599 26.2925 30.1108 27.779 29.0017C29.2655 27.8926 31.0636 27.2798 32.918 27.2502C34.7725 27.2205 36.5892 27.7756 38.1104 28.8367C39.6316 29.8977 40.78 31.4109 41.3928 33.1614C42.0056 34.912 42.0515 36.811 41.5242 38.5892C41.4716 38.7652 41.3513 38.9132 41.1896 39.0005C41.0279 39.0879 40.8382 39.1074 40.6621 39.0548C40.486 39.0022 40.3381 38.8819 40.2507 38.7202C40.1634 38.5586 40.1439 38.3688 40.1964 38.1927C40.642 36.6926 40.6037 35.0902 40.087 33.6131C39.5704 32.1359 38.6016 30.859 37.3182 29.9635C36.0348 29.0681 34.5019 28.5996 32.9372 28.6246C31.3725 28.6496 29.8554 29.1668 28.6013 30.1027C27.3471 31.0387 26.4196 32.3458 25.9503 33.8387C25.4811 35.3316 25.494 36.9344 25.9871 38.4195C26.4803 39.9047 27.4287 41.1968 28.6978 42.1125C29.9668 43.0282 31.492 43.5209 33.0569 43.5207C33.3776 43.5207 33.6979 43.5001 34.016 43.4589L34.0884 43.4494C34.1787 43.4386 34.2703 43.4457 34.3579 43.4703C34.4455 43.4949 34.5273 43.5366 34.5988 43.5928C34.6703 43.6491 34.73 43.7188 34.7746 43.7982C34.8191 43.8775 34.8475 43.9648 34.8583 44.0552C34.8691 44.1455 34.862 44.2371 34.8374 44.3246C34.8127 44.4122 34.7711 44.494 34.7149 44.5655C34.6586 44.637 34.5888 44.6968 34.5095 44.7413C34.4302 44.7858 34.3429 44.8143 34.2525 44.8251L34.1886 44.8335C33.8126 44.8825 33.4339 44.9074 33.0548 44.9082Z" fill="#F2EFEC"/>
<path d="M55.1797 43.1198C55.0364 43.1198 54.8966 43.0753 54.7797 42.9926C54.6627 42.9098 54.5743 42.7928 54.5266 42.6576C54.4789 42.5225 54.4743 42.3759 54.5134 42.2381C54.5525 42.1002 54.6334 41.9779 54.7449 41.8879C55.8419 41.0065 56.6667 39.8322 57.1237 38.5012C57.5806 37.1702 57.6511 35.737 57.3269 34.3676C57.0027 32.9982 56.297 31.7487 55.2918 30.7639C54.2865 29.7791 53.0228 29.0994 51.647 28.8034C50.2712 28.5074 48.8397 28.6073 47.5184 29.0915C46.1971 29.5758 45.0401 30.4245 44.1814 31.5394C43.3227 32.6543 42.7975 33.9897 42.6667 35.3909C42.5358 36.7921 42.8047 38.2016 43.4422 39.4562C43.5255 39.62 43.5404 39.8102 43.4836 39.985C43.4267 40.1597 43.3028 40.3047 43.139 40.3881C42.9752 40.4715 42.785 40.4864 42.6103 40.4295C42.4355 40.3727 42.2905 40.2487 42.2071 40.085C41.5734 38.845 41.2446 37.4718 41.2481 36.0793C41.248 34.5859 41.6266 33.1168 42.3484 31.8093C43.0702 30.5019 44.1118 29.3988 45.3756 28.6031C46.6395 27.8075 48.0845 27.3453 49.5755 27.2596C51.0665 27.174 52.5548 27.4678 53.9015 28.1136C55.2481 28.7593 56.4091 29.7359 57.2758 30.9522C58.1426 32.1684 58.6868 33.5845 58.8577 35.0681C59.0286 36.5518 58.8205 38.0545 58.253 39.436C57.6854 40.8174 56.7769 42.0324 55.6124 42.9674C55.4896 43.0658 55.337 43.1196 55.1797 43.1198Z" fill="#F2EFEC"/>
<path d="M52.0822 40.4013C52.0166 40.4009 51.9513 40.3916 51.8882 40.3736C51.8009 40.3481 51.7195 40.3057 51.6485 40.2487C51.5776 40.1918 51.5186 40.1215 51.4749 40.0417C51.4311 39.9619 51.4035 39.8744 51.3936 39.7839C51.3837 39.6935 51.3918 39.6021 51.4172 39.5147L51.5419 39.0885C51.6155 38.8396 51.6313 38.5771 51.5881 38.3212C51.5449 38.0652 51.4438 37.8225 51.2926 37.6115L51.1604 37.4262C51.0094 37.2159 50.811 37.044 50.5813 36.9246C50.3515 36.8052 50.0969 36.7416 49.838 36.7388C49.7471 36.7378 49.6572 36.7188 49.5736 36.6831C49.4899 36.6473 49.4142 36.5954 49.3506 36.5303C49.287 36.4653 49.2369 36.3883 49.203 36.3039C49.1692 36.2195 49.1523 36.1292 49.1534 36.0382C49.1544 35.9473 49.1734 35.8574 49.2091 35.7738C49.2449 35.6901 49.2968 35.6144 49.3619 35.5508C49.4269 35.4872 49.5039 35.4371 49.5883 35.4033C49.6728 35.3694 49.763 35.3525 49.854 35.3536C50.3309 35.3588 50.7999 35.4763 51.223 35.6967C51.646 35.917 52.0112 36.2339 52.2889 36.6217L52.421 36.807C52.6936 37.1877 52.8758 37.6254 52.9539 38.087C53.032 38.5486 53.0039 39.0219 52.8718 39.471L52.7471 39.8973C52.7061 40.0421 52.619 40.1697 52.4991 40.2606C52.3791 40.3516 52.2327 40.401 52.0822 40.4013Z" fill="#F2EFEC"/>
<path d="M37.0167 65.1144H37.006C34.3324 65.1144 32.0552 63.8953 30.4185 61.5979C29.292 60.0137 28.619 58.1522 28.472 56.2138C28.325 54.2755 28.7095 52.3338 29.5841 50.5977C29.6662 50.4334 29.8102 50.3084 29.9845 50.2503C30.1587 50.1921 30.349 50.2056 30.5133 50.2877C30.6776 50.3698 30.8026 50.5138 30.8608 50.6881C30.919 50.8623 30.9055 51.0525 30.8234 51.2168C30.0615 52.7281 29.7262 54.4186 29.8537 56.1062C29.9812 57.7939 30.5666 59.4148 31.5469 60.7944C32.9322 62.7402 34.7693 63.7281 37.0081 63.7302H37.0167C39.0861 63.7302 41.3633 62.8873 43.6031 61.2932L53.4727 54.2666C53.9671 53.915 55.0242 53.1637 55.4153 52.8813C55.2608 52.5084 54.6001 51.7646 54.2655 51.3895C53.9895 51.0794 53.7327 50.7864 53.5548 50.537C53.4485 50.3873 53.406 50.2016 53.4366 50.0206C53.4671 49.8397 53.5683 49.6782 53.7178 49.5718C53.8673 49.4653 54.053 49.4226 54.234 49.4529C54.415 49.4832 54.5766 49.5842 54.6832 49.7335C54.8154 49.919 55.0509 50.1843 55.3013 50.4667C56.2454 51.5323 56.9082 52.3432 56.8261 53.1147C56.8102 53.2695 56.7618 53.4193 56.6839 53.5541C56.6061 53.6889 56.5005 53.8057 56.3743 53.8968C56.2433 53.9938 55.2874 54.6726 54.2751 55.3887L44.4066 62.4152C41.9312 64.183 39.3759 65.1144 37.0167 65.1144Z" fill="#F2EFEC"/>
<path d="M38.6802 44.6864C38.5335 44.6862 38.3906 44.6395 38.2722 44.5529C38.1538 44.4664 38.0659 44.3445 38.0212 44.2047C37.9765 44.065 37.9773 43.9147 38.0236 43.7755C38.0698 43.6363 38.1591 43.5153 38.2785 43.43L48.245 36.3331L49.463 35.4807C49.6138 35.3757 49.8 35.3349 49.9809 35.3673C50.1618 35.3997 50.3224 35.5025 50.4274 35.6533C50.5323 35.8041 50.5731 35.9904 50.5408 36.1713C50.5084 36.3521 50.4055 36.5127 50.2547 36.6177L49.0421 37.4616L39.0819 44.5543C38.965 44.6391 38.8246 44.6852 38.6802 44.6864Z" fill="#F2EFEC"/>
<path d="M43.1893 52.5394C43.0423 52.5396 42.8991 52.493 42.7803 52.4063C42.6616 52.3197 42.5735 52.1976 42.5287 52.0576C42.484 51.9176 42.485 51.767 42.5315 51.6275C42.578 51.4881 42.6677 51.3671 42.7875 51.282L54.0594 43.2569C54.2801 43.0997 54.4293 42.8614 54.4743 42.5943C54.5192 42.3271 54.4562 42.053 54.2992 41.8323L53.6918 40.9798C53.4951 40.7047 53.1974 40.5187 52.8639 40.4626C52.5304 40.4065 52.1882 40.4848 51.9123 40.6803L40.8471 48.5583C40.773 48.6112 40.6892 48.649 40.6005 48.6695C40.5118 48.69 40.4199 48.6928 40.3301 48.6778C40.2404 48.6627 40.1544 48.6301 40.0772 48.5818C40.0001 48.5335 39.9332 48.4705 39.8804 48.3964C39.8276 48.3222 39.7899 48.2384 39.7695 48.1497C39.7492 48.0609 39.7465 47.969 39.7616 47.8792C39.7768 47.7895 39.8095 47.7036 39.8579 47.6265C39.9063 47.5494 39.9694 47.4826 40.0436 47.4299L51.1088 39.5519C51.684 39.1432 52.3979 38.9794 53.0937 39.0965C53.7895 39.2136 54.4105 39.6019 54.8203 40.1763L55.4277 41.0288C55.797 41.5491 55.9449 42.1946 55.839 42.8238C55.7332 43.453 55.3821 44.0146 54.8629 44.3854L43.5963 52.4105C43.4778 52.4956 43.3352 52.5408 43.1893 52.5394Z" fill="#F2EFEC"/>
<path d="M45.9339 56.3936C45.7872 56.3935 45.6444 56.3468 45.526 56.2602C45.4075 56.1736 45.3196 56.0517 45.275 55.912C45.2303 55.7722 45.2311 55.6219 45.2774 55.4827C45.3236 55.3435 45.4128 55.2226 45.5322 55.1373L57.1302 46.8779C57.2638 46.7826 57.3541 46.6382 57.3813 46.4763C57.4085 46.3145 57.3703 46.1484 57.2751 46.0147L55.9772 44.1915C55.902 44.0861 55.7882 44.0148 55.6605 43.9933C55.5329 43.9717 55.4019 44.0016 55.2963 44.0764L43.5971 52.4115C43.523 52.4644 43.4392 52.5022 43.3505 52.5227C43.2618 52.5432 43.1699 52.546 43.0802 52.5309C42.9904 52.5159 42.9044 52.4833 42.8273 52.435C42.7501 52.3867 42.6832 52.3237 42.6304 52.2496C42.5776 52.1754 42.5399 52.0916 42.5195 52.0028C42.4991 51.9141 42.4965 51.8222 42.5116 51.7325C42.5268 51.6427 42.5595 51.5568 42.6079 51.4797C42.6563 51.4026 42.7194 51.3357 42.7936 51.283L54.5003 42.948C54.9053 42.6603 55.4079 42.5451 55.8977 42.6276C56.3876 42.7101 56.8247 42.9836 57.1132 43.3881L58.411 45.2113C58.719 45.6443 58.8425 46.182 58.7544 46.7061C58.6663 47.2301 58.3738 47.6978 57.9411 48.0063L46.341 56.2658C46.2221 56.3501 46.0797 56.3948 45.9339 56.3936Z" fill="#F2EFEC"/>
<path d="M30.2009 51.5982C30.0738 51.5981 29.9491 51.563 29.8406 51.4968C29.7321 51.4306 29.6439 51.3358 29.5857 51.2228C29.5275 51.1097 29.5015 50.9828 29.5106 50.856C29.5196 50.7292 29.5635 50.6074 29.6372 50.5038C29.6947 50.3901 29.7445 50.2726 29.7864 50.1522C29.8327 50.0185 29.8883 49.8882 29.9526 49.7622L29.9633 49.7441L36.9099 38.096C36.9707 37.9894 37.0602 37.8893 37.3948 37.6048C37.8881 37.186 38.3964 36.9824 38.9484 36.9824C39.6634 36.9824 40.3337 37.316 41.1862 37.7859C41.2854 37.8399 41.3699 37.9174 41.4323 38.0115C41.4947 38.1057 41.5331 38.2138 41.5442 38.3262L41.6827 39.7317C41.6952 39.8632 41.6701 39.9954 41.6103 40.1131C41.6067 40.1216 41.6024 40.1299 41.5975 40.1377L39.2862 44.3244C39.2422 44.404 39.1829 44.4742 39.1118 44.531C39.0407 44.5877 38.9591 44.6298 38.8717 44.655C38.7842 44.6802 38.6927 44.6879 38.6023 44.6777C38.5119 44.6675 38.4244 44.6396 38.3448 44.5956C38.2651 44.5516 38.1949 44.4924 38.1382 44.4212C38.0815 44.3501 38.0394 44.2685 38.0142 44.1811C37.989 44.0936 37.9813 44.0021 37.9915 43.9117C38.0017 43.8213 38.0295 43.7338 38.0735 43.6542L40.2932 39.6539L40.2122 38.8291C39.6879 38.551 39.2777 38.3677 38.9537 38.3677C38.8088 38.3677 38.6032 38.4008 38.2984 38.6597C38.1695 38.7663 38.1034 38.8302 38.0725 38.86L31.1674 50.4389C31.1514 50.473 31.1131 50.5731 31.0875 50.6413C31.0094 50.8762 30.902 51.1003 30.7678 51.3084C30.7035 51.3985 30.6184 51.472 30.5197 51.5224C30.421 51.5728 30.3117 51.5989 30.2009 51.5982ZM38.1023 38.8003V38.8089C38.1023 38.8089 38.1013 38.8035 38.1023 38.8003Z" fill="#F2EFEC"/>
</svg>
