<svg width="86" height="37" viewBox="0 0 86 37" fill="none" xmlns="http://www.w3.org/2000/svg">
<path fill-rule="evenodd" clip-rule="evenodd" d="M4.47165 29.2322H3.90544V26.1629H3.89422L2.68051 27.6906H2.58801L1.3743 26.1629H1.36309V29.2322H0.796875V25.2912H1.32945L2.63286 26.9085L3.94748 25.2912H4.47165V29.2322ZM5.89559 29.2322H5.32938V25.2912H5.89559V29.2322ZM10.4169 29.2322H9.92915L7.2943 26.1994V29.2322H6.76172V25.2912H7.21301L9.8843 28.3437V25.2912H10.4169V29.2322ZM11.8548 29.2322H11.2886V25.2912H11.8548V29.2322ZM14.599 26.1573C14.2626 25.8406 13.9403 25.7481 13.674 25.7481C13.3096 25.7481 13.0517 25.9387 13.0517 26.2162C13.0517 26.973 14.756 26.9618 14.756 28.2147C14.756 28.8342 14.2879 29.2855 13.6516 29.2855C13.2227 29.2855 12.8779 29.1706 12.5472 28.9211V28.2063C12.8359 28.5763 13.2031 28.7753 13.5871 28.7753C14.0272 28.7753 14.229 28.5006 14.229 28.2792C14.229 27.4635 12.5248 27.371 12.5248 26.2919C12.5248 25.65 12.9985 25.2407 13.7217 25.2407C14.0216 25.2407 14.3215 25.3304 14.599 25.5182V26.1573ZM18.3326 25.8013H16.9704V29.2322H16.4042V25.8013H15.0391V25.2912H18.3326V25.8013ZM21.102 25.8013H19.4314V26.9898H21.0432V27.4972H19.4314V28.7249H21.1553V29.2322H18.8652V25.2912H21.102V25.8013ZM22.7614 25.2912C23.5603 25.2912 24.0564 25.7144 24.0564 26.3956C24.0564 26.8525 23.8182 27.1944 23.3977 27.3598C23.7565 27.5981 23.9751 27.9597 24.2751 28.453C24.4432 28.7249 24.5413 28.8566 24.8132 29.2322H24.1377L23.6163 28.425C23.0978 27.6149 22.8595 27.5224 22.5708 27.5224H22.3326V29.2322H21.7663V25.2912H22.7614ZM22.3326 27.0122H22.697C23.3052 27.0122 23.479 26.7011 23.4734 26.3731C23.4678 26.0003 23.2463 25.7761 22.697 25.7761H22.3326V27.0122ZM27.1201 26.1573C26.7838 25.8406 26.4586 25.7481 26.1951 25.7481C25.8307 25.7481 25.5701 25.9387 25.5701 26.2162C25.5701 26.973 27.2743 26.9618 27.2743 28.2147C27.2743 28.8342 26.8062 29.2855 26.1727 29.2855C25.7438 29.2855 25.3963 29.1706 25.0683 28.9211V28.2063C25.357 28.5763 25.7214 28.7753 26.1082 28.7753C26.5483 28.7753 26.7501 28.5006 26.7501 28.2792C26.7501 27.4635 25.0431 27.371 25.0431 26.2919C25.0431 25.65 25.5196 25.2407 26.24 25.2407C26.5399 25.2407 26.8398 25.3304 27.1201 25.5182V26.1573ZM30.8538 25.8013H29.4887V29.2322H28.9225V25.8013H27.5602V25.2912H30.8538V25.8013ZM32.7738 29.2687H32.6561L30.9519 25.2912H31.5181L32.7038 28.0606L33.8811 25.2912H34.4445L32.7738 29.2687ZM36.5888 25.2407C37.8866 25.2407 38.7107 26.1629 38.7107 27.2645C38.7107 28.3269 37.9118 29.2855 36.5776 29.2855C35.2882 29.2855 34.4725 28.3325 34.4725 27.2645C34.4725 26.1713 35.3106 25.2407 36.5888 25.2407ZM36.5888 28.7669C37.4717 28.7669 38.1248 28.1222 38.1248 27.2645C38.1248 26.3956 37.4717 25.7593 36.5888 25.7593C35.7086 25.7593 35.0583 26.3956 35.0583 27.2645C35.0583 28.1222 35.7086 28.7669 36.5888 28.7669ZM40.827 25.8013V25.2912H44.2242L41.7155 28.7249H44.2242V29.2322H40.67L43.1787 25.8013H40.827ZM44.7484 25.2912H46.2817C47.7392 25.2912 48.3811 26.3311 48.3811 27.2645C48.3811 28.2736 47.5879 29.2322 46.2873 29.2322H44.7484V25.2912ZM45.3146 28.7249H46.22C47.501 28.7249 47.7953 27.7466 47.7953 27.2645C47.7953 26.4713 47.2936 25.8013 46.1892 25.8013H45.3146V28.7249ZM50.0854 25.2912C50.8842 25.2912 51.3804 25.7144 51.3804 26.3956C51.3804 26.8525 51.1421 27.1944 50.7217 27.3598C51.0776 27.5981 51.2991 27.9597 51.599 28.453C51.7672 28.7249 51.8653 28.8566 52.1372 29.2322H51.4617L50.9403 28.425C50.4217 27.6149 50.1835 27.5224 49.8948 27.5224H49.6565V29.2322H49.0903V25.2912H50.0854ZM49.6565 27.0122H50.0209C50.6264 27.0122 50.8029 26.7011 50.7973 26.3731C50.7889 26.0003 50.5703 25.7761 50.0209 25.7761H49.6565V27.0122Z" fill="#003A63"/>
<path fill-rule="evenodd" clip-rule="evenodd" d="M55.9914 29.2325H55.414L54.8898 28.072H53.2108L52.7146 29.2325H52.1372L53.8302 25.2662H54.2283L55.9914 29.2325ZM53.4322 27.5619H54.6571L54.0237 26.1351L53.4322 27.5619ZM57.3509 29.2689H57.2359L55.5317 25.2914H56.0979L57.2808 28.0608L58.4609 25.2914H59.0215L57.3509 29.2689ZM61.1686 25.241C62.4692 25.241 63.2877 26.1632 63.2877 27.2648C63.2877 28.3271 62.4916 29.2857 61.1574 29.2857C59.868 29.2857 59.0523 28.3327 59.0523 27.2648C59.0523 26.1716 59.8904 25.241 61.1686 25.241ZM61.1686 28.7672C62.0515 28.7672 62.7046 28.1225 62.7046 27.2648C62.7046 26.3958 62.0515 25.7595 61.1686 25.7595C60.2884 25.7595 59.6381 26.3958 59.6381 27.2648C59.6381 28.1225 60.2884 28.7672 61.1686 28.7672ZM66.5672 25.8016H65.2021V29.2325H64.6359V25.8016H63.2737V25.2914H66.5672V25.8016ZM70.7465 29.2325H70.2588L67.6268 26.1996V29.2325H67.0942V25.2914H67.5455L70.214 28.3439V25.2914H70.7465V29.2325ZM72.1845 29.2325H71.6183V25.2914H72.1845V29.2325ZM76.4171 26.1716C75.9293 25.8885 75.5145 25.7595 75.0576 25.7595C74.1578 25.7595 73.4851 26.4014 73.4851 27.2676C73.4851 28.1533 74.1326 28.7644 75.0828 28.7644C75.5257 28.7644 76.0106 28.6102 76.4563 28.3215V28.9382C76.0695 29.14 75.6462 29.2857 75.0296 29.2857C73.5496 29.2857 72.9021 28.1477 72.9021 27.3208C72.9021 26.1183 73.8103 25.241 75.0632 25.241C75.4696 25.241 75.8761 25.3391 76.4171 25.5633V26.1716ZM80.1115 25.8016H78.7464V29.2325H78.1774V25.8016H76.8151V25.2914H80.1115V25.8016ZM82.0287 29.2689H81.9138L80.2068 25.2914H80.773L81.9587 28.0608L83.1387 25.2914H83.6993L82.0287 29.2689ZM84.7056 29.2325H84.1394V25.2914H84.7056V29.2325ZM85.1457 24.4253L84.3973 25.1008H84.0553L84.4898 24.4253H85.1457ZM21.9598 32.8064L21.2674 32.1308H21.615L22.2765 32.4952L22.9437 32.1308H23.2912L22.5961 32.8064H21.9598ZM23.6528 33.8771C23.1679 33.594 22.753 33.4679 22.2962 33.4679C21.3936 33.4679 20.7237 34.107 20.7237 34.9759C20.7237 35.8589 21.3712 36.4727 22.3186 36.4727C22.7643 36.4727 23.2492 36.3157 23.6949 36.027V36.6437C23.308 36.8483 22.8848 36.9913 22.2681 36.9913C20.7881 36.9913 20.1406 35.8532 20.1406 35.0264C20.1406 33.8239 21.046 32.9465 22.3018 32.9465C22.7082 32.9465 23.1174 33.0446 23.6528 33.2689V33.8771ZM26.624 33.5071H24.9562V34.6984H26.568V35.2057H24.9562V36.4307H26.6773V36.9408H24.39V32.9998H26.624V33.5071ZM29.1524 33.8659C28.816 33.5464 28.4909 33.4567 28.2274 33.4567C27.863 33.4567 27.6023 33.6473 27.6023 33.922C27.6023 34.6816 29.3065 34.6676 29.3065 35.9233C29.3065 36.54 28.8384 36.9941 28.2021 36.9941C27.7761 36.9941 27.4285 36.8764 27.0977 36.6297V35.9121C27.3865 36.2821 27.7537 36.4839 28.1405 36.4839C28.5777 36.4839 28.7796 36.2064 28.7796 35.9878C28.7796 35.1721 27.0753 35.0796 27.0753 33.9976C27.0753 33.3557 27.549 32.9465 28.2722 32.9465C28.5721 32.9465 28.8721 33.039 29.1524 33.224V33.8659ZM33.2784 36.9408H32.4964L30.4922 34.9927V36.9408H29.926V32.9998H30.4922V34.8021L32.1516 32.9998H32.8552L31.1397 34.8638L33.2784 36.9408ZM35.6834 32.1308L34.935 32.8064H34.5959L35.0275 32.1308H35.6834ZM35.9525 33.5071H34.2847V34.6984H35.8965V35.2057H34.2847V36.4307H36.0058V36.9408H33.7157V32.9998H35.9525V33.5071Z" fill="#003A63"/>
<path fill-rule="evenodd" clip-rule="evenodd" d="M39.2177 32.9995C40.0166 32.9995 40.5127 33.42 40.5127 34.1011C40.5127 34.558 40.2773 34.9 39.854 35.0653C40.2128 35.3036 40.4314 35.668 40.7342 36.1585C40.8995 36.4304 40.9977 36.5622 41.2724 36.9406H40.594L40.0755 36.1305C39.5541 35.3204 39.3186 35.2307 39.0271 35.2307H38.7889V36.9406H38.2227V32.9995H39.2177ZM38.7889 34.7206H39.1561C39.7615 34.7206 39.9353 34.4066 39.9297 34.0787C39.9241 33.7087 39.7027 33.4844 39.1561 33.4844H38.7889V34.7206ZM43.9408 33.5069H42.2702V34.6981H43.882V35.2055H42.2702V36.4304H43.9941V36.9406H41.704V32.9995H43.9408V33.5069ZM45.7964 32.9995C46.657 32.9995 47.0522 33.5069 47.0522 34.1319C47.0522 34.7486 46.6346 35.2335 45.7208 35.2335H45.1321V36.9406H44.5659V32.9995H45.7964ZM45.1321 34.7262H45.774C46.1945 34.7262 46.4664 34.5019 46.4664 34.1067C46.4664 33.818 46.3122 33.5069 45.7964 33.5069H45.1321V34.7262ZM50.8531 35.3905C50.8531 36.3575 50.2757 36.991 49.1012 36.991C48.2715 36.991 47.4614 36.5229 47.4614 35.4466V32.9995H48.0277V35.326C48.0277 35.7717 48.0837 35.9567 48.2631 36.1361C48.4902 36.3603 48.7733 36.4725 49.1124 36.4725C49.5469 36.4725 49.8608 36.3323 50.0402 36.1529C50.2392 35.9511 50.2869 35.6624 50.2869 35.2924V32.9995H50.8531V35.3905ZM51.6324 32.9995H52.7788C53.6281 32.9995 53.9925 33.5069 53.9925 34.003C53.9925 34.415 53.8019 34.6785 53.3899 34.8495V34.8579C53.9785 34.97 54.3373 35.3569 54.3373 35.8894C54.3373 36.3716 53.9729 36.9406 52.9862 36.9406H51.6324V32.9995ZM52.2014 34.6841H52.5742C53.1376 34.6841 53.4067 34.4767 53.4067 34.0563C53.4067 33.7619 53.2413 33.5069 52.7199 33.5069H52.2014V34.6841ZM52.2014 36.4304H52.9105C53.5749 36.4304 53.7542 36.1025 53.7542 35.8053C53.7542 35.4466 53.4767 35.1943 52.8825 35.1943H52.2014V36.4304ZM55.4473 36.4304H57.2272V36.9406H54.8811V32.9995H55.4473V36.4304ZM58.2924 36.9406H57.7233V32.9995H58.2924V36.9406ZM62.5165 36.9406H61.7345L59.7303 34.9925V36.9406H59.1641V32.9995H59.7303V34.8019L61.3897 32.9995H62.0961L60.3778 34.8635L62.5165 36.9406ZM65.3308 32.9995H66.0147L64.5515 34.8579V36.9406H63.9853V34.8523L62.5221 32.9995H63.2061L64.26 34.3562L65.3308 32.9995Z" fill="#003A63"/>
<path d="M67.7552 15.8117C67.6963 15.8173 67.6347 15.8173 67.5674 15.8145V17.7934H72.1812C72.6381 17.3898 73.1258 16.9385 73.6275 16.4367C76.1026 13.9617 70.0957 15.5874 67.7552 15.8117ZM67.5674 7.96878V13.1908C68.4251 12.4845 69.9023 11.6912 72.6269 9.6506C75.741 7.32128 73.1258 7.94916 67.5674 7.96878ZM71.1973 0.00537109H67.5674V3.13636C68.9913 2.01795 70.3284 1.09295 70.3284 1.09575C70.6171 0.675295 70.9058 0.316507 71.1973 0.00537109ZM85.3554 0.00537109H75.9989C75.9877 1.46575 73.1678 2.39075 72.6381 2.57575C71.2281 3.44749 69.4118 4.51545 68.7082 5.21901C67.4244 6.5028 71.4215 5.62264 76.4137 5.60583C77.804 5.60022 78.5973 6.85037 77.8853 7.71931C76.3437 9.60295 74.4684 10.9204 72.4334 12.2434C69.636 14.0682 76.7613 10.9904 76.7613 14.6204C76.7613 15.8817 75.8223 16.9441 74.5974 17.7934H85.3554V0.00537109Z" fill="#D31145"/>
<path d="M40.8857 8.92461V0.00537109H37.2417C35.8178 12.9918 26.9827 9.76833 23.0977 7.66886V17.7934H29.1017C31.888 7.13628 37.2754 7.32408 40.8857 8.92461Z" fill="#C2CD23"/>
<path fill-rule="evenodd" clip-rule="evenodd" d="M23.0977 7.0578V0.00537109H36.398C34.3266 4.86302 30.8873 8.86295 23.0977 7.0578ZM27.9021 5.68431C29.2783 5.68431 30.3939 4.5659 30.3939 3.19242C30.3939 1.81613 29.2783 0.700523 27.9021 0.700523C26.5258 0.700523 25.4102 1.81613 25.4102 3.19242C25.4102 4.5659 26.5258 5.68431 27.9021 5.68431Z" fill="#C2CD23"/>
<path fill-rule="evenodd" clip-rule="evenodd" d="M18.6523 8.38923V17.7934H0.864258V8.09492L6.43108 7.41378C5.72191 6.22249 5.23138 4.88545 5.01835 3.4559L0.864258 7.78098V0.00537109H6.89077C6.70577 0.669689 6.60206 1.37325 6.60206 2.09923C6.60206 6.33742 10.033 9.76832 14.2683 9.76832C15.8997 9.76832 17.4077 9.25817 18.6523 8.38923ZM10.5683 10.8307C9.27055 10.2561 8.10449 9.43476 7.13183 8.42567L6.44509 13.0675L10.5683 10.8307ZM16.365 11.0465C15.6867 11.1782 14.9859 11.2483 14.2683 11.2483C13.5508 11.2483 12.8472 11.1782 12.1717 11.0465L14.2683 16.8179L16.365 11.0465Z" fill="#FDBB30"/>
<path fill-rule="evenodd" clip-rule="evenodd" d="M63.1192 9.60014V17.7934H45.334V7.01295C55.9042 -2.44728 62.7492 6.09075 62.7492 6.09075C54.3597 15.9434 46.3543 9.98696 46.3543 9.98696C53.2441 17.4739 59.5482 13.387 63.1192 9.60014ZM51.8314 7.08022C51.8314 8.45651 52.9442 9.57211 54.3233 9.57211C55.6968 9.57211 56.8152 8.45651 56.8152 7.08022C56.8152 5.70393 55.6968 4.58833 54.3233 4.58833C52.9442 4.58833 51.8314 5.70393 51.8314 7.08022ZM45.334 4.91908V0.00537109H52.2154C49.1349 0.700523 46.87 2.83643 45.334 4.91908Z" fill="#003A63"/>
</svg>
