<?xml version="1.0" encoding="utf-8"?>
<!-- Generator: Adobe Illustrator 25.2.1, SVG Export Plug-In . SVG Version: 6.00 Build 0)  -->
<svg version="1.1" id="Layer_1" xmlns="http://www.w3.org/2000/svg" xmlns:xlink="http://www.w3.org/1999/xlink" x="0px" y="0px"
	 viewBox="0 0 150 90" style="enable-background:new 0 0 150 90;" xml:space="preserve">
<g>
	<path class="st0" d="M96.7,27.8L96.7,27.8l-2.7-4h-4.7v6.3h2.9l2-2.9h0.1v7h-0.1l-2-2.9h-2.9v6.5l2.9,1.3V39h-8.5V39l2.4-1.3V24
		l-2.4-1.3v-0.1h13V27.8z M82.4,27.5c0,3-3.4,4.8-6.1,4.8c-0.4,0-0.7,0-1.1-0.1v-0.7c2.2,0,3.8-1.1,3.8-3.7s-1.6-4-3.9-4
		c-0.4,0-0.8,0-1.1,0.1v13.8l2.9,1.3V39h-8.5V39l2.4-1.3V24l-2.4-1.3v-0.1h7.3C80.7,22.6,82.4,24.9,82.4,27.5 M67,27.4
		c0,3-3.4,4.8-6.1,4.8c-0.4,0-0.7,0-1.1-0.1v-0.7c2.2,0,3.8-1.1,3.8-3.7s-1.6-4-3.9-4c-0.4,0-0.8,0-1.1,0.1v13.8l2.9,1.3V39H53V39
		l2.4-1.3V24L53,22.6v-0.1h7.3C65.3,22.6,67,24.9,67,27.4 M102.8,15.8H47.3V59h55.5V15.8z"/>
	<path class="st0" d="M94.5,73.1h7.4v-3.1l0,0l-1.4,2.4h-3v-3.6h1.7l1.1,1.6l0,0v-3.8l0,0l-1.1,1.6h-1.7v-3.4h2.6l1.4,2.2l0,0v-2.8
		h-7.1l0,0l1.3,0.7v7.4L94.5,73.1z M89.9,73.3c0.6,0,1.3-0.2,1.8-0.4c0.7-0.3,1.4-0.8,2-1.2l-0.3-0.4c-0.7,0.5-1.6,0.8-2.5,0.8
		c-1.7,0-3.3-1.3-3.3-3.9c0-1.8,0.6-2.8,1.4-3.2c0.5-0.3,1-0.4,1.5-0.4c0.4,0,0.8,0.1,1.1,0.2l1.6,2.4l0,0v-2.6
		c-0.8-0.4-1.7-0.6-2.6-0.6c-3,0-5,1.9-5,4.8C85.6,71.2,87.4,73.2,89.9,73.3 M78.6,69.7l1.3-3.8h0l1.4,3.8H78.6z M75.8,73.1h3.3l0,0
		l-1.5-0.8l0.7-2.1h3.2l0.8,2.1L81,73.1l0,0h4.4l0,0l-1.1-0.7l-3.1-8.1h-1.4l-3,8.1L75.8,73.1z M70.7,72.6c-0.3,0-0.6-0.1-0.9-0.2
		v-7.5c0.3-0.1,0.5-0.1,0.8-0.1c1.8,0,2.9,1.5,2.9,4.2C73.5,70.8,72.7,72.6,70.7,72.6 M66.7,73.1h4c2.7,0,4.8-1.7,4.8-4.6
		c0.1-2.4-1.8-4.3-4.2-4.4c-0.1,0-0.2,0-0.2,0h-4.3l0,0l1.3,0.7v7.4L66.7,73.1L66.7,73.1z M59.6,69.7l1.3-3.8l0,0l1.4,3.8H59.6z
		 M57,73.1h3.2l0,0l-1.5-0.8l0.7-2.1h3.2l0.8,2.1l-1.4,0.7l0,0h4.4l0,0l-1.1-0.7l-3-8.1h-1.4l-3,8.1L57,73.1z M47.3,73.1h3.5l0,0
		l-1.5-0.8v-6.2l0,0l5.1,7h1.3V65l1.3-0.7l0,0h-3.5l0,0L55,65v5.8h0l-4.8-6.6h-2.9l0,0l1.3,1v7.1L47.3,73.1z"/>
</g>
</svg>
