<svg width="140" height="140" viewBox="0 0 140 140" fill="none" xmlns="http://www.w3.org/2000/svg">
<rect width="140" height="140" fill="white"/>
<path d="M68.7199 4H4V136H68.7199V4Z" fill="#ED1B2E"/>
<path d="M136.001 4H71.2812V136H136.001V4Z" fill="#ED1B2E"/>
<path d="M25.5374 18.1238C24.5344 17.2262 23.0035 16.751 20.9975 16.751C19.5458 16.751 18.226 16.8566 17.0911 17.0678L16.8535 17.1206V32.9606H19.4402C19.4402 32.9606 19.4402 27.3638 19.4402 26.783C19.8625 26.8622 20.3376 26.8886 20.7599 26.8886C22.8187 26.8886 24.5872 26.255 25.7221 25.0934C26.5932 24.1958 27.0155 23.0078 27.0155 21.5822C27.0155 20.1566 26.4876 18.9686 25.5374 18.1238ZM20.8127 24.6974C20.2584 24.6974 19.8097 24.6446 19.4402 24.5918C19.4402 24.1694 19.4402 19.4702 19.4402 19.0478C19.7305 18.995 20.3112 18.9422 21.0503 18.9422C22.3172 18.9422 24.4288 19.2854 24.4288 21.7142C24.4288 23.615 23.1091 24.6974 20.8127 24.6974Z" fill="white"/>
<path d="M42.2716 28.367C41.9021 26.783 41.2158 25.8062 40.2656 25.2782C41.9021 24.539 42.9315 23.0606 42.9315 21.2918C42.9315 19.9982 42.43 18.863 41.6118 18.1238C40.5824 17.1998 39.1043 16.751 36.9135 16.751C35.5674 16.751 34.0629 16.883 33.0071 17.0942L32.7695 17.147V32.9606H35.3562C35.3562 32.9606 35.3562 26.7566 35.3562 26.2286C35.7785 26.2286 36.9663 26.2286 36.9663 26.2286C38.6028 26.2286 39.3946 26.9678 39.8169 29.027C40.292 31.2182 40.6088 32.3798 40.8727 32.8286L40.9783 32.9606H43.6706L43.4594 32.5382C43.1163 31.9838 42.7203 30.3734 42.2716 28.367ZM40.292 21.503C40.292 23.1134 39.0251 24.1694 37.0719 24.1694C37.0719 24.1694 35.7521 24.1694 35.3034 24.1694C35.3034 23.6678 35.3034 19.4438 35.3034 19.0478C35.5938 18.995 36.1481 18.9158 36.9927 18.9158C38.5236 18.9158 40.292 19.3646 40.292 21.503Z" fill="white"/>
<path d="M53.9383 16.8564L48.4746 32.934H51.1405C51.1405 32.934 52.6186 28.4196 52.7506 28.05C53.1201 28.05 57.4752 28.05 57.8447 28.05C57.9503 28.3932 59.5076 32.934 59.5076 32.934H62.2527L56.7626 16.8564H53.9383V16.8564ZM57.2641 25.938C56.657 25.938 54.0175 25.938 53.4104 25.938C53.6216 25.3044 54.8093 21.8196 54.8093 21.8196C55.0205 21.186 55.1525 20.526 55.3108 19.9188C55.4428 20.4468 55.8651 21.846 55.8651 21.846C55.8651 21.846 56.8681 24.9084 57.2641 25.938Z" fill="white"/>
<path d="M81.2049 25.7004C81.7064 25.7004 87.6188 25.7004 88.1467 25.7004C88.1467 26.2284 88.1467 32.9868 88.1467 32.9868H90.7598V16.8828H88.1467C88.1467 16.8828 88.1467 22.8492 88.1467 23.3772C87.6452 23.3772 81.7328 23.3772 81.2049 23.3772C81.2049 22.8492 81.2049 16.8828 81.2049 16.8828H78.5918V32.9604H81.2049C81.2049 32.9868 81.2049 26.2284 81.2049 25.7004Z" fill="white"/>
<path d="M102.321 16.8564L96.8574 32.934H99.5233C99.5233 32.934 101.001 28.4196 101.133 28.05C101.503 28.05 105.858 28.05 106.228 28.05C106.333 28.3932 107.89 32.934 107.89 32.934H110.635L105.145 16.8564H102.321ZM105.62 25.938C105.013 25.938 102.374 25.938 101.767 25.938C101.978 25.3044 103.166 21.8196 103.166 21.8196C103.377 21.1596 103.509 20.526 103.667 19.9188C103.826 20.4468 104.222 21.8724 104.222 21.8724C104.222 21.8724 105.277 24.9084 105.62 25.938Z" fill="white"/>
<path d="M25.5374 47.111C24.5344 46.2134 23.0035 45.7646 20.9975 45.7646C19.5458 45.7646 18.226 45.8702 17.0911 46.0814L16.8535 46.1342V61.9742H19.4402C19.4402 61.9742 19.4402 56.3774 19.4402 55.7966C19.8625 55.8758 20.3376 55.9022 20.7599 55.9022C22.8187 55.9022 24.5872 55.2686 25.7221 54.107C26.5932 53.2094 27.0155 52.0214 27.0155 50.5958C27.0155 49.1702 26.4876 47.9294 25.5374 47.111ZM20.8127 53.711C20.2584 53.711 19.8097 53.6582 19.4402 53.6054C19.4402 53.183 19.4402 48.4838 19.4402 48.0614C19.7305 48.0086 20.3112 47.9558 21.0503 47.9558C22.3172 47.9558 24.4288 48.299 24.4288 50.7278C24.4288 52.6022 23.1091 53.711 20.8127 53.711Z" fill="white"/>
<path d="M42.2716 57.3542C41.9021 55.7966 41.2158 54.7934 40.2656 54.2654C41.9021 53.5262 42.9315 52.0478 42.9315 50.279C42.9315 48.9854 42.43 47.8502 41.6118 47.111C40.5824 46.187 39.1043 45.7646 36.9135 45.7646C35.5674 45.7646 34.0629 45.8966 33.0071 46.1078L32.7695 46.1606V61.9742H35.3562C35.3562 61.9742 35.3562 55.7702 35.3562 55.2422C35.7785 55.2422 36.9663 55.2422 36.9663 55.2422C38.6028 55.2422 39.3946 55.9814 39.8169 58.0406C40.292 60.2318 40.6088 61.3934 40.8727 61.8422L40.9783 61.9742H43.6706L43.4594 61.5518C43.1163 60.971 42.7203 59.3606 42.2716 57.3542ZM40.292 50.4902C40.292 52.1006 39.0251 53.1566 37.0719 53.1566C37.0719 53.1566 35.7521 53.1566 35.3034 53.1566C35.3034 52.655 35.3034 48.431 35.3034 48.035C35.5938 47.9822 36.1481 47.9294 36.9927 47.9294C38.5236 47.8766 40.292 48.3518 40.292 50.4902Z" fill="white"/>
<path d="M53.9383 45.8438L48.4746 61.9478H51.1405C51.1405 61.9478 52.6186 57.4334 52.7506 57.0638C53.1201 57.0638 57.4752 57.0638 57.8447 57.0638C57.9503 57.4334 59.5076 61.9478 59.5076 61.9478H62.2527L56.7626 45.8701L53.9383 45.8438ZM57.2641 54.9253C56.657 54.9253 54.0175 54.9253 53.4104 54.9253C53.6216 54.2917 54.8093 50.8069 54.8093 50.8069C55.0205 50.1733 55.1525 49.5133 55.3108 48.9061C55.4428 49.4341 55.8651 50.8333 55.8651 50.8333C55.8387 50.8333 56.8681 53.8957 57.2641 54.9253Z" fill="white"/>
<path d="M85.2961 55.4272C85.2961 55.4272 87.962 55.4272 88.4107 55.4272C88.4107 55.9288 88.4107 59.2288 88.4107 59.572C87.9092 59.7832 87.0382 59.8888 86.0352 59.8888C82.5247 59.8888 80.3339 57.6184 80.3339 53.896C80.3339 50.2264 82.6038 47.9296 86.2991 47.9296C87.6188 47.9296 88.6746 48.1408 89.5984 48.5632L89.8888 48.6952L90.575 46.504L90.3375 46.3984C89.6248 46.0552 88.1467 45.6592 86.2991 45.6592C81.0993 45.6592 77.6152 48.9856 77.6152 53.9752C77.6152 56.404 78.4335 58.5952 79.8852 59.968C81.3897 61.42 83.3429 62.08 85.9032 62.08C88.3579 62.08 90.2583 61.3936 90.7862 61.2088L90.971 61.1296V53.2096H85.2961V55.4272V55.4272Z" fill="white"/>
<path d="M97.9121 45.8438V55.2686C97.9121 59.7302 99.9709 62.1854 103.772 62.1854C107.678 62.1854 109.948 59.651 109.948 55.1894V45.8174H107.335V55.3214C107.335 58.3574 106.121 59.9678 103.851 59.9678C101.713 59.9678 100.525 58.3046 100.525 55.3214V45.8174H97.9121V45.8438Z" fill="white"/>
<path d="M120.032 59.7038C120.032 59.2022 120.032 55.163 120.032 54.6614C120.533 54.6614 126.05 54.6614 126.05 54.6614V52.4174C126.05 52.4174 120.56 52.4174 120.032 52.4174C120.032 51.9158 120.032 48.563 120.032 48.0878C120.533 48.0878 126.42 48.0878 126.42 48.0878V45.8174H117.445V61.9214H126.789V59.651C126.763 59.7038 120.586 59.7038 120.032 59.7038Z" fill="white"/>
<path d="M25.5374 76.0984C24.5344 75.2008 23.0035 74.7256 20.9975 74.7256C19.5458 74.7256 18.226 74.8312 17.0911 75.0424L16.8535 75.0952V90.9352H19.4402C19.4402 90.9352 19.4402 85.3384 19.4402 84.7576C19.8889 84.8368 20.3376 84.8632 20.7599 84.8632C22.8187 84.8632 24.5872 84.2296 25.7221 83.068C26.5932 82.1704 27.0155 80.9824 27.0155 79.5568C27.0155 78.1576 26.4876 76.9168 25.5374 76.0984ZM20.8127 82.672C20.2584 82.672 19.8097 82.6192 19.4402 82.5664C19.4402 82.144 19.4402 77.4448 19.4402 77.0224C19.7569 76.9696 20.3112 76.9168 21.0503 76.9168C22.3172 76.9168 24.4288 77.2864 24.4288 79.6888C24.4288 81.5632 23.1091 82.672 20.8127 82.672Z" fill="white"/>
<path d="M42.2716 86.3152C41.9021 84.7576 41.2158 83.7544 40.2656 83.2264C41.9021 82.4872 42.9315 81.0088 42.9315 79.24C42.9315 77.9464 42.43 76.8112 41.6118 76.072C40.5824 75.148 39.1043 74.6992 36.9135 74.6992C35.5674 74.6992 34.0629 74.8312 33.0071 75.0424L32.7695 75.0952V90.9088H35.3562C35.3562 90.9088 35.3562 84.7048 35.3562 84.1768C35.7785 84.1768 36.9663 84.1768 36.9663 84.1768C38.6028 84.1768 39.3946 84.916 39.8169 86.9752C40.292 89.1664 40.6088 90.328 40.8727 90.7768L40.9783 90.9088H43.6706L43.4594 90.4864C43.1163 89.932 42.7203 88.348 42.2716 86.3152ZM40.292 79.4512C40.292 81.0616 39.0251 82.1176 37.0719 82.1176C37.0719 82.1176 35.7521 82.1176 35.3034 82.1176C35.3034 81.616 35.3034 77.392 35.3034 76.996C35.5938 76.9432 36.1481 76.864 36.9927 76.864C38.5236 76.864 40.292 77.3128 40.292 79.4512Z" fill="white"/>
<path d="M53.9383 74.8311L48.4746 90.9087H51.1405C51.1405 90.9087 52.6186 86.3943 52.7506 86.0247C53.1201 86.0247 57.4752 86.0247 57.8447 86.0247C57.9503 86.3679 59.5076 90.9087 59.5076 90.9087H62.2527L56.7626 74.8311H53.9383ZM57.2641 83.9127C56.657 83.9127 54.0175 83.9127 53.4104 83.9127C53.6216 83.2791 54.8093 79.7943 54.8093 79.7943C55.0205 79.1607 55.1525 78.5007 55.3108 77.8935C55.4428 78.4215 55.8651 79.8207 55.8651 79.8207C55.8651 79.8207 56.8681 82.8567 57.2641 83.9127Z" fill="white"/>
<path d="M85.296 84.3881C85.296 84.3881 87.9619 84.3881 88.4106 84.3881C88.4106 84.8897 88.4106 88.1897 88.4106 88.5329C87.9091 88.7441 87.0381 88.8497 86.0351 88.8497C82.5246 88.8497 80.3338 86.5793 80.3338 82.8569C80.3338 79.1873 82.6038 76.8905 86.299 76.8905C87.6188 76.8905 88.6746 77.1017 89.5984 77.5241L89.8887 77.6561L90.575 75.4649L90.3638 75.3857C89.6776 75.0425 88.1731 74.6465 86.3518 74.6465C81.1521 74.6465 77.668 77.9729 77.668 82.9625C77.668 85.3913 78.4862 87.5825 79.9379 88.9553C81.4424 90.4073 83.3956 91.0937 85.9559 91.0937C88.4106 91.0937 90.311 90.4073 90.8389 90.2225L91.0237 90.1433V82.1969H85.3488L85.296 84.3881Z" fill="white"/>
<path d="M102.294 74.8311L96.8301 90.9087H99.4959C99.4959 90.9087 100.974 86.3943 101.106 86.0247C101.476 86.0247 105.831 86.0247 106.2 86.0247C106.306 86.3679 107.863 90.9087 107.863 90.9087H110.608L105.118 74.8311H102.294ZM105.593 83.9127C104.986 83.9127 102.347 83.9127 101.739 83.9127C101.951 83.2791 103.138 79.7943 103.138 79.7943C103.35 79.1607 103.508 78.5535 103.666 77.9199C103.825 78.4743 104.194 79.7943 104.194 79.7943C104.194 79.7943 105.224 82.8567 105.593 83.9127Z" fill="white"/>
<path d="M25.5374 105.059C24.5344 104.162 23.0035 103.713 20.9975 103.713C19.5458 103.713 18.2524 103.818 17.0911 104.03L16.8535 104.082V119.922H19.4402C19.4402 119.922 19.4402 114.326 19.4402 113.745C19.8889 113.824 20.3376 113.85 20.7599 113.85C22.8187 113.85 24.5872 113.217 25.7221 112.055C26.5932 111.158 27.0155 109.97 27.0155 108.544C27.0155 107.145 26.4876 105.904 25.5374 105.059ZM20.8127 111.659C20.2584 111.659 19.8097 111.606 19.4402 111.554C19.4402 111.131 19.4402 106.432 19.4402 106.01C19.7569 105.957 20.3112 105.904 21.0503 105.904C22.3172 105.904 24.4288 106.247 24.4288 108.676C24.4288 110.55 23.1091 111.659 20.8127 111.659Z" fill="white"/>
<path d="M42.2716 115.302C41.9021 113.718 41.2158 112.742 40.2656 112.214C41.9021 111.474 42.9315 109.996 42.9315 108.227C42.9315 106.934 42.43 105.798 41.6118 105.059C40.5824 104.135 39.1043 103.713 36.9135 103.713C35.5674 103.713 34.0629 103.845 33.0071 104.056L32.7695 104.109V119.922H35.3562C35.3562 119.922 35.3562 113.718 35.3562 113.19C35.7785 113.19 36.9663 113.19 36.9663 113.19C38.6028 113.19 39.3946 113.956 39.8169 115.989C40.292 118.127 40.6088 119.342 40.8727 119.79L40.9783 119.922H43.6706L43.4594 119.5C43.1163 118.919 42.7203 117.335 42.2716 115.302ZM40.292 108.438C40.292 110.049 39.0251 111.105 37.0719 111.105C37.0719 111.105 35.7521 111.105 35.3034 111.105C35.3034 110.603 35.3034 106.379 35.3034 105.983C35.5938 105.93 36.1481 105.851 36.9927 105.851C38.5236 105.851 40.292 106.3 40.292 108.438Z" fill="white"/>
<path d="M53.9383 103.818L48.4746 119.896H51.1405C51.1405 119.896 52.6186 115.382 52.7506 115.012C53.1201 115.012 57.4752 115.012 57.8447 115.012C57.9503 115.355 59.5076 119.896 59.5076 119.896H62.2527L56.7626 103.818H53.9383ZM57.2641 112.9C56.657 112.9 54.0175 112.9 53.4104 112.9C53.6216 112.266 54.8093 108.782 54.8093 108.782C55.0205 108.148 55.1525 107.488 55.3108 106.881C55.4428 107.409 55.8651 108.808 55.8651 108.808C55.8387 108.808 56.8681 111.844 57.2641 112.9Z" fill="white"/>
<path d="M85.2961 113.375C85.2961 113.375 87.962 113.375 88.4107 113.375C88.4107 113.877 88.4107 117.177 88.4107 117.52C87.9092 117.731 87.0382 117.837 86.0352 117.837C82.5247 117.837 80.3339 115.567 80.3339 111.844C80.3339 108.175 82.6038 105.878 86.2991 105.878C87.6188 105.878 88.6746 106.089 89.5984 106.538L89.8888 106.67L90.575 104.479L90.3375 104.373C89.6248 104.03 88.1467 103.634 86.2991 103.634C81.0993 103.634 77.6152 106.96 77.6152 111.95C77.6152 114.379 78.4335 116.57 79.8852 117.943C81.3897 119.395 83.3429 120.081 85.9032 120.081C88.3579 120.081 90.2583 119.395 90.7862 119.21L90.971 119.131V111.184H85.2961V113.375V113.375Z" fill="white"/>
</svg>
