<svg width="130" height="115" viewBox="0 0 130 115" fill="none" xmlns="http://www.w3.org/2000/svg">
<path d="M63.0845 16.6946H1.18069C0.535625 16.6946 0.0126953 17.2185 0.0126953 17.8649V79.8916C0.0126953 80.5379 0.535625 81.0619 1.18069 81.0619H63.0845C63.7296 81.0619 64.2525 80.5379 64.2525 79.8916V17.8649C64.2525 17.2185 63.7296 16.6946 63.0845 16.6946Z" fill="#E1E7EA"/>
<path d="M63.0835 81.0736H1.17968C0.866886 81.0733 0.566981 80.9487 0.345804 80.7271C0.124628 80.5055 0.000257759 80.205 0 79.8916V17.8649C0.000257303 17.5514 0.124596 17.2508 0.345745 17.029C0.566893 16.8072 0.866797 16.6824 1.17968 16.6819H63.0835C63.3966 16.6821 63.6967 16.8069 63.9181 17.0287C64.1394 17.2505 64.2639 17.5512 64.2642 17.8649V79.8916C64.2639 80.2051 64.1394 80.5058 63.918 80.7274C63.6966 80.9491 63.3965 81.0736 63.0835 81.0736ZM1.17968 16.7063C0.873251 16.7068 0.579536 16.829 0.362951 17.0462C0.146366 17.2634 0.0245906 17.5578 0.0243333 17.8649V79.8916C0.024591 80.1985 0.146397 80.4928 0.36301 80.7098C0.579623 80.9269 0.87334 81.0489 1.17968 81.0492H63.0835C63.3899 81.0489 63.6838 80.9269 63.9005 80.7099C64.1173 80.4929 64.2393 80.1986 64.2398 79.8916V17.8649C64.2396 17.5577 64.1177 17.2631 63.9009 17.0459C63.6841 16.8287 63.3901 16.7065 63.0835 16.7063H1.17968Z" fill="#72788E"/>
<path d="M57.5085 21.5688H6.07571C5.43064 21.5688 4.90771 22.0928 4.90771 22.7392V74.274C4.90771 74.9203 5.43064 75.4443 6.07571 75.4443H57.5085C58.1535 75.4443 58.6765 74.9203 58.6765 74.274V22.7392C58.6765 22.0928 58.1535 21.5688 57.5085 21.5688Z" fill="#B6D7A8"/>
<path d="M57.5073 75.6403H6.07458C5.71318 75.6403 5.36658 75.4964 5.11103 75.2404C4.85548 74.9843 4.71191 74.637 4.71191 74.2749V22.7401C4.71191 22.378 4.85548 22.0307 5.11103 21.7747C5.36658 21.5186 5.71318 21.3748 6.07458 21.3748H57.5073C57.8687 21.3748 58.2153 21.5186 58.4708 21.7747C58.7264 22.0307 58.87 22.378 58.87 22.7401V74.2749C58.87 74.637 58.7264 74.9843 58.4708 75.2404C58.2153 75.4964 57.8687 75.6403 57.5073 75.6403ZM6.07458 21.7649C5.81643 21.7649 5.56886 21.8676 5.38633 22.0505C5.20379 22.2334 5.10125 22.4815 5.10125 22.7401V74.2749C5.10125 74.5336 5.20379 74.7816 5.38633 74.9645C5.56886 75.1474 5.81643 75.2502 6.07458 75.2502H57.5073C57.7654 75.2502 58.013 75.1474 58.1955 74.9645C58.3781 74.7816 58.4806 74.5336 58.4806 74.2749V22.7401C58.4806 22.4815 58.3781 22.2334 58.1955 22.0505C58.013 21.8676 57.7654 21.7649 57.5073 21.7649H6.07458Z" fill="white"/>
<path d="M3.80767 80.3791C3.4034 80.3791 3.00822 80.259 2.67208 80.0339C2.33595 79.8089 2.07397 79.489 1.91926 79.1148C1.76456 78.7405 1.72408 78.3287 1.80295 77.9315C1.88182 77.5342 2.07649 77.1692 2.36234 76.8828C2.6482 76.5964 3.01241 76.4013 3.4089 76.3223C3.8054 76.2433 4.21638 76.2838 4.58987 76.4389C4.96336 76.5939 5.28259 76.8564 5.50719 77.1932C5.73178 77.53 5.85166 77.9259 5.85166 78.331C5.85166 78.8742 5.63631 79.3951 5.25299 79.7792C4.86967 80.1633 4.34977 80.3791 3.80767 80.3791ZM3.80767 76.9656C3.53816 76.9656 3.2747 77.0457 3.05061 77.1958C2.82652 77.3458 2.65187 77.559 2.54873 77.8085C2.44559 78.058 2.41861 78.3325 2.47119 78.5974C2.52377 78.8622 2.65355 79.1055 2.84412 79.2965C3.03469 79.4874 3.27749 79.6175 3.54182 79.6701C3.80616 79.7228 4.08014 79.6958 4.32914 79.5925C4.57813 79.4891 4.79095 79.3141 4.94068 79.0896C5.09041 78.865 5.17033 78.6011 5.17033 78.331C5.17033 77.9689 5.02676 77.6216 4.77121 77.3656C4.51567 77.1095 4.16907 76.9656 3.80767 76.9656Z" fill="#8D9CA0"/>
<path d="M33.1645 63.8865C33.119 63.8866 33.074 63.8778 33.032 63.8604C32.9899 63.8431 32.9517 63.8176 32.9195 63.7854C32.8874 63.7533 32.8618 63.7151 32.8444 63.673C32.827 63.6309 32.818 63.5858 32.818 63.5403V59.2725C32.818 59.1923 32.8457 59.1146 32.8965 59.0525C32.9472 58.9905 33.0179 58.9479 33.0964 58.9322C33.6666 58.815 34.1805 58.5078 34.5543 58.0606C34.9281 57.6135 35.1398 57.0527 35.155 56.4696C35.1561 56.4174 35.169 56.3661 35.1927 56.3196C35.2164 56.2731 35.2503 56.2325 35.2919 56.201C35.3335 56.1695 35.3816 56.1478 35.4328 56.1376C35.4839 56.1273 35.5367 56.1288 35.5871 56.1419C35.797 56.1957 36.0129 56.2229 36.2295 56.2229C36.8802 56.2241 37.5069 55.9765 37.9815 55.5305C38.0422 55.4739 38.1211 55.441 38.2039 55.4376C38.2867 55.4342 38.368 55.4605 38.4331 55.5119C38.8845 55.8734 39.4457 56.0692 40.0236 56.0669C40.5908 56.0665 41.142 55.8777 41.5907 55.5299C42.0394 55.1822 42.3603 54.6951 42.5032 54.1451C42.6461 53.595 42.6028 53.013 42.3803 52.4902C42.1578 51.9674 41.7684 51.5333 41.2733 51.2559C41.2213 51.2267 41.1777 51.1845 41.1467 51.1334C41.1157 51.0824 41.0984 51.0241 41.0964 50.9644C41.0945 50.9047 41.1079 50.8455 41.1355 50.7925C41.1631 50.7395 41.2039 50.6945 41.2539 50.6619C41.5981 50.4403 41.8845 50.1393 42.0889 49.7842C42.2933 49.429 42.41 49.0299 42.429 48.6204C42.4481 48.2108 42.369 47.8026 42.1984 47.4299C42.0279 47.0572 41.7707 46.7308 41.4485 46.4781C41.4062 46.445 41.372 46.4025 41.3489 46.3539C41.3258 46.3053 41.3142 46.252 41.3151 46.1982C41.3161 46.1444 41.3295 46.0915 41.3543 46.0438C41.3792 45.996 41.4148 45.9547 41.4583 45.9231C41.8074 45.6701 42.0918 45.3379 42.2882 44.9536C42.4846 44.5693 42.5874 44.144 42.5883 43.7122C42.5903 43.2919 42.4946 42.8769 42.3088 42.5001C42.123 42.1233 41.8521 41.795 41.5176 41.5413C41.4751 41.509 41.4406 41.4673 41.4168 41.4194C41.3931 41.3715 41.3807 41.3188 41.3807 41.2653C41.3807 41.2118 41.3931 41.1591 41.4168 41.1112C41.4406 41.0633 41.4751 41.0216 41.5176 40.9893C41.8158 40.7633 42.0643 40.4781 42.2476 40.1516C42.4308 39.825 42.5449 39.4641 42.5827 39.0914C42.6205 38.7187 42.5812 38.3422 42.4672 37.9854C42.3532 37.6286 42.167 37.2992 41.9203 37.0177C41.6735 36.7362 41.3715 36.5088 41.0331 36.3496C40.6946 36.1903 40.3271 36.1027 39.9533 36.0922C39.5796 36.0817 39.2077 36.1486 38.8609 36.2886C38.5141 36.4286 38.1998 36.6387 37.9377 36.9059C37.9056 36.9386 37.8672 36.9646 37.825 36.9823C37.7827 37.0001 37.7373 37.0092 37.6915 37.0092C37.6456 37.0092 37.6003 37.0001 37.558 36.9823C37.5157 36.9646 37.4774 36.9386 37.4452 36.9059C37.1822 36.6381 36.8668 36.4277 36.5187 36.2879C36.1706 36.1481 35.7974 36.082 35.4226 36.0938C35.0478 36.1055 34.6795 36.1948 34.3408 36.356C34.0021 36.5173 33.7004 36.747 33.4546 37.0307C33.4221 37.0681 33.382 37.0981 33.337 37.1187C33.292 37.1392 33.2432 37.1499 33.1937 37.1499C33.1442 37.1499 33.0954 37.1392 33.0504 37.1187C33.0054 37.0981 32.9653 37.0681 32.9328 37.0307C32.6778 36.7367 32.3627 36.501 32.0089 36.3395C31.6551 36.1779 31.2708 36.0943 30.882 36.0943C30.4933 36.0943 30.109 36.1779 29.7552 36.3395C29.4014 36.501 29.0863 36.7367 28.8312 37.0307C28.7988 37.0681 28.7587 37.0981 28.7137 37.1187C28.6687 37.1392 28.6198 37.1499 28.5704 37.1499C28.5209 37.1499 28.472 37.1392 28.427 37.1187C28.382 37.0981 28.342 37.0681 28.3095 37.0307C28.0709 36.7559 27.7796 36.5319 27.453 36.3719C27.1264 36.2118 26.7711 36.1191 26.4081 36.0991C26.0451 36.0791 25.6818 36.1322 25.3397 36.2554C24.9975 36.3786 24.6835 36.5692 24.4162 36.8161C24.3524 36.8753 24.2686 36.9082 24.1816 36.9082C24.0947 36.9082 24.0109 36.8753 23.9471 36.8161C23.6767 36.5652 23.3582 36.3719 23.0109 36.2481C22.6637 36.1243 22.2949 36.0725 21.9271 36.0959C21.5593 36.1192 21.2 36.2172 20.8712 36.384C20.5423 36.5508 20.2507 36.7828 20.0141 37.0659C19.7774 37.3491 19.6007 37.6774 19.4947 38.0311C19.3886 38.3848 19.3554 38.7564 19.3971 39.1233C19.4387 39.4903 19.5544 39.8449 19.7371 40.1657C19.9197 40.4864 20.1656 40.7666 20.4596 40.9893C20.502 41.0217 20.5363 41.0635 20.56 41.1113C20.5836 41.1592 20.5959 41.2119 20.5959 41.2653C20.5959 41.3187 20.5836 41.3714 20.56 41.4193C20.5363 41.4671 20.502 41.5089 20.4596 41.5413C20.1199 41.7994 19.8456 42.134 19.6587 42.518C19.4719 42.9019 19.3777 43.3245 19.3839 43.7517C19.39 44.1788 19.4963 44.5985 19.6942 44.9769C19.892 45.3553 20.1759 45.6818 20.5229 45.93C20.5675 45.9621 20.6038 46.0045 20.6289 46.0535C20.654 46.1025 20.6671 46.1568 20.6671 46.2118C20.6671 46.2669 20.654 46.3212 20.6289 46.3702C20.6038 46.4192 20.5675 46.4615 20.5229 46.4937C20.1711 46.7461 19.8843 47.0788 19.6863 47.4642C19.4882 47.8497 19.3847 48.2769 19.3841 48.7104C19.3824 49.1377 19.4818 49.5592 19.6742 49.9405C19.8666 50.3217 20.1464 50.6519 20.4908 50.9038C20.5342 50.9361 20.5696 50.9782 20.5939 51.0266C20.6183 51.075 20.6309 51.1285 20.6309 51.1827C20.6309 51.237 20.6183 51.2904 20.5939 51.3389C20.5696 51.3873 20.5342 51.4294 20.4908 51.4617C20.0299 51.802 19.688 52.2794 19.5139 52.8259C19.3397 53.3724 19.3422 53.96 19.521 54.5049C19.6997 55.0499 20.0457 55.5244 20.5094 55.8608C20.9732 56.1972 21.5311 56.3783 22.1036 56.3783C22.6761 56.3783 23.234 56.1972 23.6977 55.8608C24.1615 55.5244 24.5074 55.0499 24.6862 54.5049C24.8649 53.96 24.8674 53.3724 24.6933 52.8259C24.5191 52.2794 24.1773 51.802 23.7164 51.4617C23.6727 51.4295 23.6372 51.3875 23.6128 51.339C23.5883 51.2906 23.5755 51.237 23.5755 51.1827C23.5755 51.1284 23.5883 51.0749 23.6128 51.0264C23.6372 50.978 23.6727 50.936 23.7164 50.9038C24.0606 50.6518 24.3403 50.3217 24.5325 49.9404C24.7247 49.5591 24.824 49.1376 24.8221 48.7104C24.8226 48.276 24.7196 47.8477 24.5217 47.4611C24.3238 47.0746 24.0367 46.7409 23.6843 46.4878C23.6395 46.4558 23.6029 46.4135 23.5777 46.3645C23.5525 46.3155 23.5394 46.2611 23.5394 46.206C23.5394 46.1508 23.5525 46.0965 23.5777 46.0475C23.6029 45.9984 23.6395 45.9561 23.6843 45.9241C24.0359 45.6716 24.3225 45.3389 24.5203 44.9534C24.7182 44.5679 24.8216 44.1408 24.8221 43.7073C24.8237 43.2866 24.7273 42.8713 24.5406 42.4944C24.3539 42.1175 24.082 41.7895 23.7466 41.5364C23.7042 41.504 23.6698 41.4623 23.6462 41.4144C23.6226 41.3665 23.6103 41.3138 23.6103 41.2604C23.6103 41.207 23.6226 41.1543 23.6462 41.1064C23.6698 41.0586 23.7042 41.0168 23.7466 40.9844C23.816 40.9324 23.8826 40.8767 23.9461 40.8176C24.0101 40.7584 24.094 40.7255 24.1811 40.7255C24.2683 40.7255 24.3522 40.7584 24.4162 40.8176C24.6835 41.0646 24.9975 41.2552 25.3397 41.3784C25.6818 41.5016 26.0451 41.5547 26.4081 41.5347C26.7711 41.5147 27.1264 41.422 27.453 41.2619C27.7796 41.1019 28.0709 40.8779 28.3095 40.6031C28.342 40.5657 28.382 40.5357 28.427 40.5151C28.472 40.4946 28.5209 40.4839 28.5704 40.4839C28.6198 40.4839 28.6687 40.4946 28.7137 40.5151C28.7587 40.5357 28.7988 40.5657 28.8312 40.6031C29.0863 40.8971 29.4014 41.1328 29.7552 41.2943C30.109 41.4559 30.4933 41.5395 30.882 41.5395C31.2708 41.5395 31.6551 41.4559 32.0089 41.2943C32.3627 41.1328 32.6778 40.8971 32.9328 40.6031C32.9653 40.5657 33.0054 40.5357 33.0504 40.5151C33.0954 40.4946 33.1442 40.4839 33.1937 40.4839C33.2432 40.4839 33.292 40.4946 33.337 40.5151C33.382 40.5357 33.4221 40.5657 33.4546 40.6031C33.7004 40.8868 34.0021 41.1165 34.3408 41.2778C34.6795 41.439 35.0478 41.5283 35.4226 41.54C35.7974 41.5518 36.1706 41.4857 36.5187 41.3459C36.8668 41.2061 37.1822 40.9957 37.4452 40.7279C37.5104 40.6622 37.599 40.625 37.6915 40.6245C37.7374 40.6246 37.7828 40.6339 37.8251 40.6518C37.8674 40.6697 37.9057 40.6959 37.9377 40.7289C38.0289 40.8215 38.1265 40.9075 38.2297 40.9864C38.2722 41.0186 38.3068 41.0602 38.3305 41.108C38.3543 41.1558 38.3666 41.2085 38.3666 41.2619C38.3666 41.3153 38.3543 41.368 38.3305 41.4158C38.3068 41.4636 38.2722 41.5052 38.2297 41.5374C37.8944 41.7906 37.6227 42.1187 37.436 42.4955C37.2493 42.8724 37.1528 43.2876 37.1542 43.7083C37.1551 44.1401 37.2579 44.5654 37.4543 44.9497C37.6507 45.334 37.9351 45.6662 38.2842 45.9192C38.3276 45.9509 38.3631 45.9922 38.3879 46.0398C38.4127 46.0875 38.4262 46.1403 38.4272 46.194C38.4282 46.2478 38.4168 46.3011 38.3939 46.3497C38.3709 46.3983 38.3371 46.4409 38.2949 46.4742C37.9618 46.7349 37.6983 47.0742 37.5278 47.4618C37.3572 47.8494 37.2851 48.2732 37.3176 48.6955C37.3502 49.1178 37.4865 49.5254 37.7144 49.8822C37.9423 50.2389 38.2548 50.5336 38.6239 50.74C38.6759 50.7692 38.7196 50.8114 38.7506 50.8624C38.7815 50.9135 38.7989 50.9717 38.8008 51.0314C38.8028 51.0912 38.7893 51.1504 38.7617 51.2034C38.7341 51.2564 38.6934 51.3013 38.6434 51.3339C38.5139 51.4179 38.3921 51.5132 38.2794 51.6187C38.2187 51.6755 38.1397 51.7085 38.0568 51.7117C37.9739 51.7149 37.8926 51.6881 37.8277 51.6362C37.3741 51.2733 36.81 51.0772 36.2295 51.0803C35.5605 51.0836 34.9191 51.3475 34.4408 51.8162C33.9625 52.2849 33.6849 52.9216 33.6667 53.5916C33.6658 53.6439 33.653 53.6954 33.6293 53.742C33.6057 53.7886 33.5718 53.8293 33.5302 53.8609C33.4886 53.8926 33.4404 53.9143 33.3892 53.9246C33.338 53.9349 33.2851 53.9334 33.2346 53.9203C33.0247 53.8665 32.8088 53.8393 32.5922 53.8393C32.2556 53.8391 31.9222 53.9053 31.6111 54.0343C31.3001 54.1633 31.0175 54.3524 30.7795 54.5909C30.5414 54.8294 30.3527 55.1126 30.224 55.4242C30.0953 55.7359 30.0291 56.0699 30.0294 56.4072V63.5393C30.0247 63.6281 29.9862 63.7117 29.9218 63.7728C29.8574 63.834 29.7721 63.8681 29.6834 63.8681C29.5947 63.8681 29.5093 63.834 29.4449 63.7728C29.3806 63.7117 29.3421 63.6281 29.3374 63.5393V56.4082C29.3373 56.212 29.3546 56.0162 29.389 55.823C29.524 55.0706 29.9189 54.3898 30.5046 53.8998C31.0902 53.4099 31.8292 53.1419 32.5922 53.143C32.7315 53.143 32.8706 53.1518 33.0088 53.1693C33.0807 52.6883 33.259 52.2295 33.5305 51.8263C33.802 51.4231 34.1599 51.0858 34.5781 50.8389C34.9964 50.592 35.4643 50.4417 35.9479 50.3991C36.4314 50.3566 36.9184 50.4227 37.3732 50.5927C36.8511 49.9714 36.5791 49.1772 36.6104 48.3655C36.6417 47.5539 36.9741 46.7831 37.5425 46.204C36.9641 45.664 36.5904 44.9398 36.4849 44.1547C36.3795 43.3696 36.549 42.5722 36.9644 41.8982C36.3499 42.19 35.6626 42.2915 34.9902 42.1899C34.3179 42.0883 33.6911 41.7881 33.1898 41.3277C32.5604 41.9103 31.735 42.2339 30.8781 42.2339C30.0213 42.2339 29.1959 41.9103 28.5665 41.3277C28.1037 41.7549 27.5321 42.0456 26.9148 42.1678C26.2975 42.29 25.6585 42.2389 25.0683 42.0201C25.4447 42.6893 25.586 43.4657 25.4695 44.2248C25.353 44.984 24.9855 45.682 24.4259 46.207C24.7665 46.5243 25.0387 46.9081 25.2256 47.3348C25.4125 47.7615 25.5102 48.222 25.5128 48.688C25.5153 49.1539 25.4226 49.6155 25.2404 50.0442C25.0582 50.473 24.7903 50.8597 24.4532 51.1808C24.9465 51.6521 25.2875 52.2608 25.4323 52.9281C25.5772 53.5955 25.5192 54.2911 25.2658 54.9251C25.0124 55.5591 24.5753 56.1026 24.0108 56.4854C23.4463 56.8682 22.7803 57.0728 22.0987 57.0728C21.4171 57.0728 20.7511 56.8682 20.1866 56.4854C19.6221 56.1026 19.185 55.5591 18.9316 54.9251C18.6783 54.2911 18.6203 53.5955 18.7651 52.9281C18.9099 52.2608 19.251 51.6521 19.7442 51.1808C19.4071 50.8597 19.1392 50.473 18.957 50.0442C18.7748 49.6155 18.6821 49.1539 18.6846 48.688C18.6872 48.222 18.7849 47.7615 18.9718 47.3348C19.1588 46.9081 19.4309 46.5243 19.7715 46.207C19.4299 45.8868 19.1575 45.4999 18.971 45.0702C18.7845 44.6404 18.6879 44.1769 18.6872 43.7083C18.6853 43.2521 18.7755 42.8001 18.9523 42.3796C19.1291 41.9592 19.3889 41.5788 19.716 41.2614C19.3889 40.9441 19.1292 40.5639 18.9524 40.1436C18.7756 39.7233 18.6854 39.2715 18.6872 38.8154C18.6871 38.1773 18.8654 37.5518 19.2017 37.0099C19.5381 36.468 20.0191 36.0312 20.5904 35.7491C21.1617 35.4669 21.8004 35.3507 22.4342 35.4134C23.068 35.4762 23.6717 35.7155 24.1768 36.1042C24.8137 35.6123 25.6038 35.3621 26.4072 35.3978C27.2106 35.4335 27.9755 35.7528 28.5665 36.2993C29.1959 35.7167 30.0213 35.3931 30.8781 35.3931C31.735 35.3931 32.5604 35.7167 33.1898 36.2993C33.7974 35.7368 34.5884 35.4151 35.4153 35.3941C36.2422 35.3731 37.0485 35.6543 37.6837 36.1852C38.3548 35.5786 39.239 35.264 40.1416 35.3107C41.0443 35.3573 41.8915 35.7613 42.4968 36.4338C43.1021 37.1063 43.4161 37.9923 43.3695 38.8967C43.323 39.8011 42.9198 40.65 42.2486 41.2565C42.576 41.5745 42.8359 41.9555 43.0127 42.3767C43.1895 42.7978 43.2796 43.2505 43.2774 43.7073C43.2765 44.177 43.1794 44.6414 42.992 45.0719C42.8047 45.5023 42.5311 45.8897 42.1882 46.2099C42.4968 46.525 42.7383 46.8996 42.8983 47.3109C43.0583 47.7222 43.1333 48.1618 43.119 48.603C43.1046 49.0442 43.0011 49.4779 42.8147 49.8779C42.6283 50.2779 42.3628 50.6358 42.0345 50.9301C42.5667 51.3493 42.9552 51.9243 43.1459 52.5751C43.3367 53.2259 43.3202 53.9201 43.0987 54.5611C42.8772 55.2021 42.4618 55.7579 41.9103 56.1512C41.3588 56.5445 40.6986 56.7557 40.0216 56.7554C39.3859 56.7578 38.7637 56.5715 38.2336 56.22C37.6618 56.669 36.956 56.9125 36.2295 56.9114C36.0902 56.9115 35.9511 56.9027 35.8129 56.8851C35.7193 57.4998 35.4537 58.0753 35.047 58.545C34.6403 59.0146 34.109 59.3592 33.5149 59.5388V63.5374C33.5153 63.5835 33.5065 63.6292 33.489 63.6719C33.4715 63.7146 33.4457 63.7533 33.413 63.7858C33.3804 63.8183 33.3416 63.844 33.2989 63.8613C33.2562 63.8786 33.2105 63.8872 33.1645 63.8865Z" fill="white"/>
<path d="M70.7934 59.2062L70.4897 66.0672V78.9309C70.4897 78.9309 80.6844 84.3631 90.2698 78.7222L92.2486 73.8459L91.3356 56.0542L70.7934 59.2062Z" fill="#F7C9B5"/>
<path d="M70.6416 59.6627V62.5982C70.6416 62.5982 76.4242 69.1169 81.5974 68.9647C86.7707 68.8126 91.6393 62.7133 91.6393 62.7133V58.428L70.6416 59.6627Z" fill="#ED9C82"/>
<path d="M63.3376 54.7863C62.1209 53.4141 60.5986 45.9436 60.5986 45.9436C60.5986 45.9436 58.469 45.18 57.4041 40.45C56.3393 35.72 58.9255 35.7239 58.9255 35.7239C58.9255 35.7239 57.556 25.2037 59.2291 15.4384C60.9023 5.67309 100.772 11.3335 103.964 13.6205C107.157 15.9075 102.29 35.4225 102.29 35.4225C102.29 35.4225 105.639 31.7633 104.877 38.7764C104.116 45.7895 101.074 46.0909 101.074 46.0909C100.459 49.0394 99.6461 51.9429 98.6403 54.7815C96.9661 59.5076 85.403 66.6738 80.6852 66.6738C75.9675 66.6738 68.5118 59.8128 68.5118 59.8128L63.3376 54.7863Z" fill="#F7C9B5"/>
<path d="M70.033 70.488C70.033 70.488 41.5786 83.9057 39.4519 88.784C37.3251 93.6622 32.6045 114.245 32.6045 114.245H75.358L70.033 70.488Z" fill="#EDEDED"/>
<path d="M92.5687 70.488C92.5687 70.488 121.023 83.9047 123.153 88.783C125.282 93.6612 130 114.244 130 114.244H87.2427L92.5687 70.488Z" fill="#EDEDED"/>
<path d="M76.6681 31.0562H67.9636C67.426 31.0562 66.9902 31.4928 66.9902 32.0314V33.1305C66.9902 33.6692 67.426 34.1058 67.9636 34.1058H76.6681C77.2056 34.1058 77.6414 33.6692 77.6414 33.1305V32.0314C77.6414 31.4928 77.2056 31.0562 76.6681 31.0562Z" fill="#461D11"/>
<path d="M94.6577 32.6088L86.0025 31.682C85.468 31.6248 84.9884 32.0125 84.9312 32.5481L84.8147 33.641C84.7575 34.1766 85.1446 34.6571 85.6791 34.7144L94.3343 35.6412C94.8688 35.6984 95.3484 35.3107 95.4055 34.7751L95.5221 33.6822C95.5792 33.1466 95.1922 32.666 94.6577 32.6088Z" fill="#461D11"/>
<path d="M72.6203 41.746C74.2168 41.746 75.5111 40.5439 75.5111 39.0611C75.5111 37.5783 74.2168 36.3762 72.6203 36.3762C71.0237 36.3762 69.7295 37.5783 69.7295 39.0611C69.7295 40.5439 71.0237 41.746 72.6203 41.746Z" fill="#526778"/>
<path d="M72.3154 49.7073H89.6806C89.6806 49.7073 88.4445 58.7499 80.6841 58.2896C72.9238 57.8292 72.3154 49.7073 72.3154 49.7073Z" fill="white"/>
<path d="M70.2695 67.5847L81.1503 80.5713L91.8034 67.5915L94.0742 71.8603L89.8334 114.397H70.946L67.9033 71.8603L70.2695 67.5847Z" fill="#EDEDED"/>
<path d="M64.8598 72.7927L68.5118 71.0986L73.5332 114.245H65.4302L57.7088 97.2893L65.1645 91.743L55.8828 87.2753L64.8598 72.7927Z" fill="#C4C6C6"/>
<path d="M97.1645 72.183L93.5126 70.488L88.0347 114.397H96.1376L104.316 96.6797L96.8599 91.1334L106.142 86.6657L97.1645 72.183Z" fill="#C4C6C6"/>
<path d="M32.516 114.217C32.516 114.217 31.0629 95.0714 34.8102 82.6378C35.4074 80.7202 36.2194 78.8766 37.2308 77.1422L44.2048 77.0515C44.2048 77.0515 53.8028 109.082 47.9238 114.252" fill="#EDEDED"/>
<path d="M89.8551 41.7841C91.4517 41.7841 92.7459 40.582 92.7459 39.0992C92.7459 37.6164 91.4517 36.4143 89.8551 36.4143C88.2586 36.4143 86.9644 37.6164 86.9644 39.0992C86.9644 40.582 88.2586 41.7841 89.8551 41.7841Z" fill="#526778"/>
<path d="M58.0115 13.5874C55.7728 18.687 58.4008 32.7318 58.9245 35.7171C59.671 35.561 60.9626 37.9602 61.7082 38.2654C61.5603 33.786 60.9461 28.9878 63.1857 25.4339C64.2321 23.8881 62.5472 19.2029 67.5453 19.7852C67.7886 19.832 68.0319 19.8622 68.2811 19.9022C64.1814 17.8376 60.4945 14.7509 56.6206 12.2952C57.0569 12.7545 57.5214 13.1861 58.0115 13.5874Z" fill="#461D11"/>
<path d="M99.7266 6.32544C99.5427 -0.739359 90.1948 0.359762 83.8944 0.059381C67.4364 -0.720829 50.9958 6.37225 56.6207 12.2921C60.4994 14.7507 64.1815 17.8374 68.2812 19.8991C72.4247 20.5818 76.7657 20.2668 80.625 18.9366C84.9855 17.5283 91.6139 11.3617 96.5526 15.3642C95.8859 19.1024 97.1025 19.1804 99.0112 22.8444C100.919 26.2276 100.688 34.1858 100.688 38.0185C101.287 37.8644 102.92 35.5872 103.37 34.1887C104.187 27.9899 104.786 25.8073 105.693 19.6202C108.034 3.66883 99.7266 6.32544 99.7266 6.32544Z" fill="#461D11"/>
<path d="M33.2414 72.6405C33.3844 71.6652 34.7617 69.2075 35.7603 69.0651C36.759 68.9228 36.9507 67.0746 37.6496 66.7509C38.3484 66.4271 39.7782 67.4413 40.0634 68.0128C40.3486 68.5843 41.8154 69.1607 41.8154 69.1607C41.8154 69.1607 45.1948 70.2998 45.1948 71.5872C45.1948 72.8745 46.4796 79.1679 44.9096 81.3135C43.3397 83.4591 42.6262 86.3185 35.919 83.6014C34.801 82.4695 34.054 81.0229 33.7777 79.4546C33.3494 76.8809 32.4004 76.799 32.4004 75.7984C32.4004 74.7977 32.4218 73.0676 33.1353 73.0676L33.2414 72.6405Z" fill="#F7C9B5"/>
<path d="M40.0359 115C40.0359 115 40.0359 114.993 40.0359 114.987L38.5049 114.702C38.5107 114.673 38.5175 114.643 38.5244 114.615C39.4675 110.443 40.7776 106.54 41.7363 103.692C42.1714 102.397 42.515 101.374 42.7097 100.658C43.1574 99.0378 43.4825 95.8594 43.6772 91.2094C43.7745 88.8687 43.8368 86.216 43.8611 83.3097V82.8143C43.8611 82.4242 43.8611 82.0429 43.866 81.685C43.866 81.3836 43.866 81.0998 43.866 80.8248C43.866 80.6297 43.866 80.4493 43.866 80.2738C43.866 80.0124 43.866 79.7734 43.866 79.554C43.866 78.7124 43.8572 78.1584 43.8553 78.0004V77.9448H45.4126V77.9838C45.4126 78.1428 45.4204 78.7006 45.4233 79.5443C45.4233 79.7627 45.4233 80.0065 45.4233 80.2679C45.4233 80.4425 45.4233 80.6297 45.4233 80.8238C45.4233 81.0969 45.4233 81.3855 45.4233 81.6869C45.4233 82.0487 45.4233 82.4291 45.4233 82.8241V83.3195C45.399 86.2453 45.3367 88.9165 45.2384 91.2708C45.0437 96.0389 44.6943 99.3362 44.2154 101.07C44.0061 101.827 43.6567 102.868 43.2148 104.185C42.2678 107.007 40.9713 110.872 40.0457 114.971L40.0359 115Z" fill="#4D585E"/>
<path d="M45.7564 79.0783C45.782 78.4864 45.324 77.9857 44.7332 77.9599C44.1425 77.9342 43.6427 78.3932 43.6171 78.9851L43.4775 82.2004C43.4518 82.7923 43.9099 83.2931 44.5007 83.3188C45.0914 83.3445 45.5911 82.8856 45.6168 82.2936L45.7564 79.0783Z" fill="#75858E"/>
<path d="M39.4014 64.4064C39.4014 64.4064 40.2725 57.6605 45.5333 57.8078C50.7942 57.9551 51.0443 64.5439 51.0443 64.5439L39.4014 64.4064Z" fill="#B7D6E5"/>
<path d="M50.8742 71.9295C50.8683 72.0328 50.8586 72.1401 50.846 72.2503C50.5763 74.5841 50.2561 76.3396 49.7383 77.6074C49.4648 78.2833 49.1378 78.8207 48.7338 79.2342C48.4093 79.569 48.0175 79.831 47.5843 80.0027C47.265 80.1288 46.9317 80.2159 46.5915 80.2621C46.2968 80.3034 45.9995 80.3239 45.7019 80.3235C45.5968 80.3235 45.4878 80.3235 45.3768 80.3235H45.296C45.1529 80.3177 45.004 80.3089 44.8532 80.2962C44.786 80.2914 44.7179 80.2845 44.6488 80.2777C44.3081 80.2445 43.9473 80.1958 43.5664 80.1314L43.4691 80.1148C41.866 79.8388 40.8216 78.8821 40.1432 77.6767C39.5271 76.5834 39.2147 75.2873 39.0628 74.115C38.9432 73.1689 38.9038 72.2142 38.945 71.2614C38.9587 70.9532 38.9762 70.7738 38.9762 70.7738C38.9762 70.7738 39.6575 70.4812 40.6961 70.1223C41.2664 69.9272 41.9449 69.7049 42.6758 69.5011C46.2538 68.4975 51.1068 67.8743 50.8742 71.9295Z" fill="#75858E"/>
<path d="M50.4107 63.3793L40.2665 62.9373C39.622 62.9092 39.0769 63.4099 39.0489 64.0557L38.7655 70.5837C38.7375 71.2295 39.2372 71.7757 39.8817 71.8038L50.0259 72.2458C50.6704 72.2739 51.2155 71.7732 51.2435 71.1274L51.5269 64.5994C51.5549 63.9536 51.0552 63.4074 50.4107 63.3793Z" fill="#526678"/>
<path d="M49.7383 77.6075C49.4648 78.2833 49.1377 78.8207 48.7338 79.2342C48.7269 79.2456 48.7194 79.2567 48.7114 79.2673C48.6608 79.3463 48.6141 79.4244 48.5566 79.5004C48.3189 79.8498 48.0605 80.1846 47.7828 80.503C47.7167 80.3392 47.6495 80.1724 47.5882 80.0027L47.5531 79.911L47.5473 79.8944L47.4792 79.713C47.4143 79.5349 47.352 79.3567 47.2923 79.1786C47.2738 79.1201 47.2543 79.0616 47.2358 79.005C47.2251 78.9699 47.2134 78.9348 47.2027 78.9007C47.0945 78.5581 47.0058 78.2097 46.937 77.8571C46.6567 76.3445 47.2358 75.2493 48.0077 75.2532C48.251 75.2532 48.5148 75.3653 48.7756 75.6062C49.1484 75.9495 49.4774 76.7297 49.7383 77.6075Z" fill="#F7C9B5"/>
<path d="M37.5054 68.9599C37.5054 68.9599 39.3849 75.8901 40.5393 75.6804C41.6936 75.4707 42.518 74.2175 40.5393 69.1598C38.5605 64.1021 37.5054 68.9599 37.5054 68.9599Z" fill="#F7C9B5"/>
</svg>
