<svg width="123" height="113" viewBox="0 0 123 113" fill="none" xmlns="http://www.w3.org/2000/svg">
<path d="M65 98C87.6437 98 106 79.6437 106 57C106 34.3563 87.6437 16 65 16C42.3563 16 24 34.3563 24 57C24 79.6437 42.3563 98 65 98Z" fill="#F1C29B"/>
<path d="M68.7313 84.5368C68.5759 84.5368 68.4268 84.475 68.3169 84.3651C68.207 84.2552 68.1452 84.1061 68.1452 83.9507V76.7302C68.1451 76.5947 68.192 76.4634 68.2779 76.3587C68.3638 76.2539 68.4833 76.1822 68.6162 76.1558C69.5805 75.9571 70.4494 75.4386 71.082 74.6843C71.7147 73.93 72.074 72.9841 72.1018 72C72.1037 71.9116 72.1255 71.8249 72.1656 71.7461C72.2058 71.6674 72.2632 71.5988 72.3336 71.5454C72.404 71.492 72.4856 71.4552 72.5722 71.4378C72.6589 71.4204 72.7483 71.4228 72.8339 71.4448C73.1894 71.5358 73.5549 71.5819 73.9218 71.5823C75.0228 71.5831 76.0827 71.1639 76.8853 70.4101C76.9878 70.3144 77.1214 70.2586 77.2616 70.2529C77.4018 70.2472 77.5393 70.292 77.6493 70.3792C78.4144 70.989 79.3647 71.3195 80.3431 71.3159C81.3042 71.3163 82.2383 70.9977 82.9988 70.4101C83.7593 69.8225 84.3032 68.9991 84.5453 68.069C84.7874 67.1389 84.7139 66.1547 84.3364 65.2709C83.9589 64.3871 83.2987 63.6535 82.4594 63.1853C82.3712 63.136 82.2973 63.0647 82.2447 62.9783C82.1922 62.892 82.1629 62.7935 82.1597 62.6925C82.1565 62.5915 82.1795 62.4913 82.2264 62.4018C82.2733 62.3123 82.3426 62.2364 82.4275 62.1816C83.0103 61.8067 83.4949 61.2977 83.8407 60.6972C84.1866 60.0967 84.3837 59.4221 84.4155 58.7298C84.4473 58.0376 84.3129 57.3477 84.0236 56.718C83.7343 56.0883 83.2984 55.537 82.7525 55.1102C82.6809 55.0542 82.6234 54.9824 82.5844 54.9003C82.5453 54.8183 82.526 54.7282 82.5277 54.6374C82.5295 54.5466 82.5523 54.4573 82.5945 54.3769C82.6366 54.2964 82.6969 54.2268 82.7706 54.1736C83.3626 53.7463 83.845 53.1849 84.1784 52.5354C84.5118 51.8859 84.6866 51.1666 84.6886 50.4365C84.6912 49.7257 84.5279 49.024 84.2118 48.3873C83.8956 47.7506 83.4354 47.1964 82.8676 46.7687C82.7958 46.7139 82.7376 46.6433 82.6975 46.5624C82.6575 46.4814 82.6366 46.3923 82.6366 46.302C82.6366 46.2117 82.6575 46.1226 82.6975 46.0416C82.7376 45.9607 82.7958 45.8901 82.8676 45.8353C83.3712 45.453 83.7907 44.971 84.0999 44.4195C84.4091 43.8679 84.6014 43.2586 84.6648 42.6295C84.7282 42.0003 84.6613 41.3649 84.4684 40.7627C84.2754 40.1606 83.9605 39.6046 83.5433 39.1295C83.126 38.6544 82.6154 38.2703 82.0432 38.0012C81.471 37.7321 80.8496 37.5837 80.2175 37.5653C79.5855 37.5469 78.9564 37.6589 78.3696 37.8943C77.7827 38.1296 77.2506 38.4834 76.8064 38.9334C76.752 38.9888 76.687 39.0328 76.6154 39.0628C76.5438 39.0928 76.4669 39.1083 76.3892 39.1083C76.3116 39.1083 76.2347 39.0928 76.1631 39.0628C76.0914 39.0328 76.0265 38.9888 75.972 38.9334C75.5266 38.4822 74.9927 38.1278 74.4039 37.8926C73.8151 37.6573 73.184 37.5462 72.5502 37.5663C71.9165 37.5863 71.2937 37.737 70.7209 38.0089C70.1481 38.2808 69.6376 38.6681 69.2215 39.1465C69.1665 39.2098 69.0985 39.2605 69.0222 39.2952C68.9459 39.33 68.8631 39.348 68.7793 39.348C68.6954 39.348 68.6126 39.33 68.5363 39.2952C68.46 39.2605 68.3921 39.2098 68.337 39.1465C67.9048 38.6501 67.3712 38.252 66.7721 37.9793C66.1731 37.7066 65.5225 37.5654 64.8642 37.5654C64.206 37.5654 63.5554 37.7066 62.9564 37.9793C62.3573 38.252 61.8237 38.6501 61.3915 39.1465C61.3366 39.2097 61.2687 39.2604 61.1925 39.2952C61.1163 39.3299 61.0335 39.3479 60.9498 39.3479C60.866 39.3479 60.7833 39.3299 60.7071 39.2952C60.6309 39.2604 60.563 39.2097 60.5081 39.1465C60.1037 38.6821 59.6104 38.3034 59.0571 38.033C58.5039 37.7625 57.902 37.6058 57.2871 37.572C56.6722 37.5382 56.0569 37.6281 55.4773 37.8363C54.8978 38.0445 54.3659 38.3668 53.9131 38.7842C53.8049 38.8843 53.663 38.94 53.5156 38.94C53.3682 38.94 53.2263 38.8843 53.1181 38.7842C52.66 38.3618 52.1208 38.0368 51.5333 37.829C50.9458 37.6211 50.3223 37.5346 49.7004 37.5748C49.0785 37.615 48.4712 37.781 47.9154 38.0628C47.3596 38.3445 46.8667 38.7362 46.4667 39.2141C46.0667 39.6919 45.7678 40.246 45.5882 40.8427C45.4086 41.4394 45.352 42.0664 45.4219 42.6857C45.4917 43.3049 45.6865 43.9036 45.9945 44.4453C46.3025 44.9871 46.7173 45.4606 47.2137 45.8374C47.2855 45.8922 47.3437 45.9628 47.3837 46.0438C47.4238 46.1247 47.4446 46.2138 47.4446 46.3041C47.4446 46.3945 47.4238 46.4836 47.3837 46.5645C47.3437 46.6455 47.2855 46.7161 47.2137 46.7709C46.6459 47.1985 46.1856 47.7527 45.8695 48.3894C45.5533 49.0261 45.39 49.7278 45.3926 50.4387C45.3938 51.1713 45.5693 51.8931 45.9045 52.5445C46.2396 53.1959 46.7249 53.7583 47.3202 54.1853C47.3961 54.2394 47.458 54.3109 47.5007 54.3937C47.5433 54.4766 47.5656 54.5684 47.5656 54.6616C47.5656 54.7548 47.5433 54.8467 47.5007 54.9295C47.458 55.0124 47.3961 55.0838 47.3202 55.1379C46.7249 55.5646 46.2395 56.1268 45.9043 56.7781C45.5692 57.4294 45.3937 58.1511 45.3926 58.8835C45.3893 59.6056 45.5574 60.3181 45.883 60.9626C46.2087 61.6071 46.6826 62.1651 47.2659 62.5908C47.3399 62.6451 47.4001 62.7161 47.4415 62.798C47.483 62.8799 47.5046 62.9704 47.5046 63.0623C47.5046 63.1541 47.483 63.2446 47.4415 63.3265C47.4001 63.4084 47.3399 63.4795 47.2659 63.5338C46.4851 64.109 45.9059 64.916 45.6109 65.8398C45.3158 66.7636 45.3199 67.7569 45.6227 68.6782C45.9254 69.5995 46.5113 70.4017 47.2968 70.9704C48.0823 71.5391 49.0273 71.8453 49.997 71.8453C50.9668 71.8453 51.9118 71.5391 52.6972 70.9704C53.4827 70.4017 54.0686 69.5995 54.3713 68.6782C54.6741 67.7569 54.6782 66.7636 54.3832 65.8398C54.0881 64.916 53.5089 64.109 52.7281 63.5338C52.6545 63.4792 52.5947 63.4081 52.5535 63.3262C52.5123 63.2443 52.4909 63.1539 52.4909 63.0623C52.4909 62.9706 52.5123 62.8802 52.5535 62.7983C52.5947 62.7165 52.6545 62.6454 52.7281 62.5908C53.3114 62.1651 53.7853 61.6071 54.111 60.9626C54.4366 60.3181 54.6048 59.6056 54.6015 58.8835C54.6003 58.1511 54.4249 57.4294 54.0897 56.7781C53.7545 56.1268 53.2692 55.5646 52.6738 55.1379C52.5983 55.0835 52.5368 55.012 52.4944 54.9292C52.4521 54.8464 52.43 54.7547 52.43 54.6616C52.43 54.5686 52.4521 54.4769 52.4944 54.3941C52.5368 54.3113 52.5983 54.2397 52.6738 54.1853C53.2691 53.7583 53.7544 53.1959 54.0896 52.5445C54.4247 51.8931 54.6002 51.1713 54.6015 50.4387C54.604 49.7278 54.4407 49.0261 54.1246 48.3894C53.8084 47.7527 53.3482 47.1985 52.7804 46.7709C52.7086 46.7161 52.6504 46.6455 52.6103 46.5645C52.5703 46.4836 52.5494 46.3945 52.5494 46.3041C52.5494 46.2138 52.5703 46.1247 52.6103 46.0438C52.6504 45.9628 52.7086 45.8922 52.7804 45.8374C52.8974 45.7491 53.0098 45.6549 53.1171 45.555C53.2253 45.4546 53.3675 45.3988 53.5151 45.3988C53.6627 45.3988 53.8049 45.4546 53.9131 45.555C54.3657 45.9727 54.8976 46.2952 55.4772 46.5036C56.0567 46.712 56.6722 46.8019 57.2872 46.7682C57.9021 46.7344 58.5041 46.5775 59.0573 46.3069C59.6106 46.0363 60.1039 45.6574 60.5081 45.1927C60.563 45.1295 60.6309 45.0788 60.7071 45.044C60.7833 45.0093 60.866 44.9913 60.9498 44.9913C61.0335 44.9913 61.1163 45.0093 61.1925 45.044C61.2687 45.0788 61.3366 45.1295 61.3915 45.1927C61.8235 45.6895 62.357 46.0878 62.9561 46.3607C63.5552 46.6337 64.2059 46.7749 64.8642 46.7749C65.5226 46.7749 66.1733 46.6337 66.7724 46.3607C67.3714 46.0878 67.905 45.6895 68.337 45.1927C68.3921 45.1295 68.46 45.0787 68.5363 45.044C68.6126 45.0092 68.6954 44.9913 68.7793 44.9913C68.8631 44.9913 68.9459 45.0092 69.0222 45.044C69.0985 45.0787 69.1665 45.1295 69.2215 45.1927C69.6375 45.6714 70.1478 46.059 70.7207 46.3311C71.2935 46.6032 71.9164 46.754 72.5502 46.774C73.1841 46.794 73.8152 46.6828 74.4041 46.4474C74.9929 46.2119 75.5267 45.8573 75.972 45.4058C76.0264 45.3505 76.0913 45.3065 76.1628 45.2765C76.2343 45.2465 76.3111 45.2311 76.3887 45.2311C76.4663 45.2311 76.5431 45.2465 76.6146 45.2765C76.6861 45.3065 76.751 45.3505 76.8054 45.4058C76.9602 45.5624 77.1258 45.708 77.3008 45.8417C77.3726 45.8963 77.4308 45.9669 77.4709 46.0477C77.5109 46.1286 77.5318 46.2176 77.5318 46.3079C77.5318 46.3981 77.5109 46.4871 77.4709 46.568C77.4308 46.6489 77.3726 46.7194 77.3008 46.7741C76.733 47.2017 76.2728 47.7559 75.9566 48.3926C75.6405 49.0293 75.4772 49.731 75.4798 50.4419C75.4811 51.1715 75.6551 51.8905 75.9875 52.54C76.32 53.1895 76.8014 53.7511 77.3925 54.1789C77.4662 54.2321 77.5264 54.3017 77.5686 54.3822C77.6107 54.4627 77.6336 54.5519 77.6354 54.6427C77.6371 54.7336 77.6177 54.8236 77.5787 54.9056C77.5397 54.9877 77.4822 55.0596 77.4106 55.1156C76.8468 55.5565 76.4007 56.13 76.1121 56.785C75.8236 57.44 75.7014 58.1562 75.7566 58.8699C75.8117 59.5835 76.0425 60.2725 76.4283 60.8753C76.8141 61.4782 77.343 61.9764 77.9679 62.3254C78.0562 62.3747 78.1302 62.4459 78.1828 62.5322C78.2355 62.6185 78.2649 62.717 78.2682 62.818C78.2715 62.919 78.2486 63.0192 78.2018 63.1088C78.155 63.1983 78.0858 63.2743 78.0009 63.3292C77.7816 63.4711 77.5752 63.6319 77.384 63.8098C77.2815 63.9058 77.148 63.9617 77.0077 63.9674C76.8674 63.973 76.7298 63.9281 76.6199 63.8407C75.8548 63.2309 74.9045 62.9004 73.9261 62.904C72.7937 62.9113 71.7083 63.358 70.8988 64.15C70.0893 64.942 69.619 66.0174 69.587 67.1494C69.5851 67.2377 69.5633 67.3245 69.5231 67.4032C69.483 67.482 69.4256 67.5506 69.3552 67.604C69.2848 67.6574 69.2032 67.6941 69.1166 67.7116C69.0299 67.729 68.9405 67.7266 68.8549 67.7046C68.277 67.5557 67.6746 67.5274 67.0853 67.6216C66.496 67.7157 65.9324 67.9302 65.4296 68.2517C64.9268 68.5732 64.4957 68.9949 64.163 69.4903C63.8303 69.9858 63.6033 70.5445 63.496 71.1315C63.4505 71.3876 63.4276 71.6472 63.4278 71.9073V83.9592C63.4278 84.1146 63.3661 84.2637 63.2562 84.3736C63.1463 84.4835 62.9972 84.5453 62.8417 84.5453C62.6863 84.5453 62.5372 84.4835 62.4273 84.3736C62.3174 84.2637 62.2557 84.1146 62.2557 83.9592V71.9073C62.2561 71.124 62.4234 70.3499 62.7463 69.6363C63.0693 68.9227 63.5405 68.2861 64.1287 67.7689C64.7168 67.2516 65.4084 66.8655 66.1573 66.6363C66.9063 66.4072 67.6955 66.3401 68.4724 66.4397C68.5927 65.6261 68.8932 64.8497 69.352 64.1672C69.8108 63.4846 70.4164 62.9132 71.1243 62.4947C71.8323 62.0761 72.6248 61.8211 73.444 61.7481C74.2632 61.6751 75.0883 61.7861 75.8591 62.0729C74.9774 61.0233 74.5184 59.6829 74.5716 58.3132C74.6248 56.9436 75.1864 55.6428 76.1468 54.6648C75.1668 53.7523 74.5335 52.5282 74.3549 51.201C74.1763 49.8739 74.4635 48.5259 75.1675 47.3868C74.1259 47.8795 72.9609 48.0499 71.8218 47.8762C70.6826 47.7025 69.6214 47.1925 68.7739 46.4118C67.7078 47.3956 66.3102 47.9418 64.8595 47.9418C63.4087 47.9418 62.0112 47.3956 60.945 46.4118C60.1616 47.1347 59.1936 47.6267 58.148 47.8336C57.1023 48.0405 56.0198 47.9541 55.0203 47.5839C55.6585 48.7145 55.8983 50.0268 55.701 51.31C55.5036 52.5933 54.8807 53.7729 53.9323 54.6595C54.5077 55.196 54.9674 55.8445 55.2832 56.5651C55.5989 57.2857 55.764 58.0632 55.7684 58.85C55.7728 59.6367 55.6164 60.416 55.3087 61.1401C55.001 61.8642 54.5486 62.5178 53.9792 63.0607C54.8142 63.8573 55.3915 64.8858 55.6365 66.0136C55.8816 67.1413 55.7833 68.3166 55.3542 69.388C54.9251 70.4593 54.185 71.3776 53.2292 72.0244C52.2734 72.6712 51.1458 73.0169 49.9917 73.0169C48.8376 73.0169 47.71 72.6712 46.7542 72.0244C45.7984 71.3776 45.0582 70.4593 44.6292 69.388C44.2001 68.3166 44.1017 67.1413 44.3468 66.0136C44.5919 64.8858 45.1692 63.8573 46.0042 63.0607C45.4348 62.5178 44.9824 61.8642 44.6747 61.1401C44.367 60.416 44.2105 59.6367 44.2149 58.85C44.2193 58.0632 44.3845 57.2857 44.7002 56.5651C45.016 55.8445 45.4757 55.196 46.0511 54.6595C45.4728 54.1184 45.0115 53.4645 44.6957 52.7382C44.3799 52.0119 44.2163 51.2285 44.2151 50.4365C44.2125 49.6655 44.3656 48.9019 44.6652 48.1915C44.9647 47.4811 45.4046 46.8384 45.9584 46.302C44.9059 45.2727 44.2861 43.8804 44.2254 42.4095C44.1648 40.9386 44.6679 39.5001 45.632 38.3876C46.5961 37.2751 47.9485 36.5726 49.4131 36.4235C50.8777 36.2744 52.3439 36.69 53.5124 37.5854C54.5925 36.7564 55.9306 36.3353 57.2908 36.3966C58.651 36.4578 59.9459 36.9973 60.9471 37.92C62.0135 36.9367 63.411 36.3907 64.8616 36.3907C66.3122 36.3907 67.7096 36.9367 68.7761 37.92C69.8056 36.9712 71.1447 36.4285 72.5443 36.3928C73.944 36.3571 75.309 36.8309 76.3855 37.7261C77.533 36.7718 79.0052 36.2985 80.4938 36.4055C81.9824 36.5124 83.3719 37.1912 84.3712 38.2998C85.3705 39.4083 85.9021 40.8605 85.8546 42.3522C85.8071 43.8438 85.1842 45.2593 84.1164 46.302C84.6699 46.8386 85.1093 47.4814 85.4085 48.1918C85.7077 48.9022 85.8604 49.6657 85.8576 50.4365C85.856 51.2303 85.6916 52.0152 85.3745 52.7429C85.0574 53.4705 84.5944 54.1254 84.0141 54.667C84.5367 55.1994 84.9458 55.8323 85.2167 56.5273C85.4876 57.2224 85.6148 57.9652 85.5904 58.7108C85.5659 59.4564 85.3905 60.1893 85.0747 60.8652C84.7589 61.5411 84.3093 62.1459 83.753 62.643C84.6541 63.3516 85.3117 64.3236 85.6345 65.4235C85.9573 66.5234 85.9291 67.6966 85.554 68.7798C85.1788 69.863 84.4753 70.8022 83.5413 71.4669C82.6074 72.1315 81.4894 72.4885 80.3431 72.488C79.2668 72.4921 78.2134 72.1773 77.3158 71.5833C76.3478 72.3433 75.1525 72.7561 73.9218 72.7555C73.6859 72.7557 73.4503 72.7404 73.2164 72.7097C73.0576 73.7496 72.6069 74.7232 71.9167 75.5171C71.2265 76.3111 70.3251 76.8928 69.3174 77.1948V83.9571C69.3157 84.1114 69.2532 84.2588 69.1435 84.3674C69.0338 84.4759 68.8856 84.5368 68.7313 84.5368Z" fill="#F2F2F2"/>
</svg>
