<svg width="130" height="114" viewBox="0 0 130 114" fill="none" xmlns="http://www.w3.org/2000/svg">
<path d="M57.8838 14.8014C57.8838 14.8014 50.8096 41.4226 55.0878 54.5334C59.1557 67.0134 52.9014 73.6372 52.9014 73.6372L114.814 73.6792C114.814 73.6792 106.805 42.3583 108.14 35.8082C109.475 29.258 111.987 8.88212 93.9175 6.45341C75.8481 4.0247 57.8838 14.8014 57.8838 14.8014Z" fill="#EDA83B"/>
<path d="M70.4238 74.8567C70.4238 74.8567 85.6236 67.9386 94.0223 74.8567C102.421 81.7748 79.6004 83.9197 75.1856 81.512C70.7707 79.1043 70.4238 74.8567 70.4238 74.8567Z" fill="#526678"/>
<path d="M72.4212 69.684C72.4212 69.684 72.6314 77.0437 67.9012 78.5157C63.171 79.9876 67.0603 88.8193 80.3048 90.0809C93.5494 91.3426 99.1205 80.8287 96.4926 79.2516C93.8647 77.6745 92.9713 74.2996 92.4982 71.8919C92.0252 69.4842 72.4212 69.684 72.4212 69.684Z" fill="#F6C0A4"/>
<path d="M72.2109 57.6981L72.3161 68.1068L72.7365 79.1464C72.7365 79.1464 81.6714 85.0447 92.0252 78.9676L92.4983 73.8894L92.3932 55.0696L72.2109 57.6981Z" fill="#F6C0A4"/>
<path d="M72.2109 60.4317L72.3161 64.8475C72.3161 64.8475 77.0778 70.8194 82.6594 70.6512C88.2411 70.483 92.3932 64.6372 92.3932 64.6372L92.288 59.2751L72.2109 60.4317Z" fill="#ED9C82"/>
<path d="M59.9858 45.8701C59.9863 45.8586 59.9826 45.8474 59.9753 45.8385C59.9753 45.8385 57.6732 45.0185 56.5275 39.9192C55.3817 34.82 58.1673 34.82 58.1673 34.82C58.1673 34.82 56.0545 29.0478 57.8624 18.5234C59.6704 7.99904 102.726 14.0971 106.184 16.5679C109.642 19.0386 105.007 34.494 105.007 34.494C105.007 34.494 108.623 30.5513 107.803 38.1108C106.983 45.6703 103.693 45.9962 103.693 45.9962C103.693 45.9962 101.643 53.356 98.2794 57.5825C90.6585 67.1712 86.7693 68.1911 81.6711 68.1911C76.573 68.1911 68.5212 60.7998 68.5212 60.7998L67.7854 60.0849C63.8214 56.2344 61.1043 51.2825 59.9858 45.8701Z" fill="#F6C0A4"/>
<path d="M97.6175 34.7253L95.0737 33.8842C94.5061 33.7791 86.1074 33.3901 86.202 32.8223L86.4122 31.6553C86.4363 31.5192 86.487 31.3893 86.5613 31.2729C86.6356 31.1564 86.7322 31.0558 86.8454 30.9767C86.9587 30.8976 87.0864 30.8416 87.2213 30.8119C87.3561 30.7822 87.4956 30.7794 87.6315 30.8036L96.8922 32.4333C97.0282 32.4574 97.1581 32.5081 97.2745 32.5824C97.391 32.6568 97.4916 32.7534 97.5706 32.8666C97.6497 32.9799 97.7057 33.1076 97.7354 33.2425C97.7651 33.3775 97.7679 33.5169 97.7437 33.6529L97.5334 34.8199L97.6175 34.7253Z" fill="#BF7C2E"/>
<path d="M72.9574 42.0534C74.6816 42.0534 76.0793 40.6553 76.0793 38.9307C76.0793 37.2062 74.6816 35.8081 72.9574 35.8081C71.2332 35.8081 69.8354 37.2062 69.8354 38.9307C69.8354 40.6553 71.2332 42.0534 72.9574 42.0534Z" fill="#526778"/>
<path d="M91.8573 42.0534C93.5815 42.0534 94.9792 40.6553 94.9792 38.9307C94.9792 37.2062 93.5815 35.8081 91.8573 35.8081C90.1331 35.8081 88.7354 37.2062 88.7354 38.9307C88.7354 40.6553 90.1331 42.0534 91.8573 42.0534Z" fill="#526778"/>
<path d="M72.6313 49.8967H91.384C91.384 49.8967 90.049 59.6431 81.6713 59.149C73.2936 58.6548 72.6313 49.8967 72.6313 49.8967Z" fill="white"/>
<path d="M93.7598 17.514C96.4718 17.8504 105.459 46.1748 105.964 40.9179C106.468 35.661 110.82 31.897 109.201 20.4789C107.583 9.06081 96.1669 1.44876 86.0758 1.65903C74.839 1.89034 60.2489 6.45337 58.01 14.8014C55.6974 23.4228 55.9812 34.1575 57.0008 34.8409C58.0205 35.5243 59.1767 43.5884 59.1767 43.5884C59.1767 43.5884 61.71 40.245 61.71 36.3444C61.71 32.4437 63.066 25.862 74.9336 21.1202L93.7598 17.514Z" fill="#EDA83B"/>
<path d="M67.3123 34.6938L69.8561 33.8527C70.4238 33.7476 78.8225 33.3586 78.7279 32.7908L78.5177 31.6238C78.4936 31.4877 78.4429 31.3578 78.3686 31.2414C78.2942 31.1249 78.1977 31.0243 78.0844 30.9452C77.9712 30.8661 77.8435 30.8101 77.7086 30.7804C77.5737 30.7507 77.4343 30.7479 77.2983 30.7721L68.0376 32.4018C67.9016 32.4259 67.7717 32.4766 67.6553 32.5509C67.5389 32.6253 67.4383 32.7219 67.3592 32.8351C67.2802 32.9484 67.2242 33.0761 67.1945 33.211C67.1648 33.346 67.162 33.4854 67.1862 33.6214L67.3964 34.7884L67.3123 34.6938Z" fill="#BF7C2E"/>
<path d="M100.781 111.645C100.918 110.657 101.202 108.175 101.349 103.781C101.38 102.75 101.412 101.625 101.423 100.374C101.454 98.1136 101.097 95.4431 100.571 92.7305C100.319 91.4268 100.024 90.123 99.7091 88.8509C99.2466 86.9689 98.7421 85.1605 98.269 83.5624C97.2494 80.1033 96.3664 77.6641 96.3664 77.6641C96.2243 78.057 96.0484 78.4369 95.8409 78.7996C94.7213 80.7906 93.0971 82.4515 91.1317 83.6149C90.629 83.9142 90.1096 84.1845 89.576 84.4245C87.8205 85.213 85.6446 85.7703 82.9747 85.8859C80.1947 86.0099 77.4164 85.6068 74.7862 84.6979C74.3027 84.5296 73.8296 84.3509 73.3882 84.1511C69.4673 82.4689 67.1022 80.0928 66.4821 79.4094C66.3664 79.2832 66.3139 79.2201 66.3139 79.2201C66.3139 79.3673 66.3034 79.5145 66.3034 79.6722C66.2823 80.5974 66.2823 81.5963 66.3034 82.6582C66.3034 82.8054 66.3034 82.9526 66.3139 83.0892C66.3875 86.296 66.6082 89.9969 66.892 93.6557C66.9971 95.0646 67.1233 96.4734 67.2389 97.8402C67.344 99.0388 67.4491 100.206 67.5648 101.331C68.0378 106.146 68.4898 110.089 68.658 111.54L100.781 111.645Z" fill="white"/>
<path d="M70.424 74.8462C70.424 74.8462 43.4933 86.8531 41.4751 91.2163C39.4569 95.5796 35 114 35 114L82.0918 113.117L70.424 74.8462Z" fill="#526678"/>
<path d="M94.0224 74.8462C94.0224 74.8462 121.279 86.8531 123.318 91.2163C125.357 95.5796 129.877 114 129.877 114L82.0918 113.117L94.0224 74.8462Z" fill="#526678"/>
<path d="M54.6989 29.6785C54.6989 29.6785 84.1733 11.3844 109.464 29.7837C109.464 29.7837 111.356 6.54798 105.26 3.28868C99.1628 0.0293716 68.9946 -3.01966 59.1137 5.70687C59.1137 5.70687 53.7528 13.1717 54.6989 29.6785Z" fill="#566A78"/>
<path d="M81.051 18.2184C81.051 18.2184 82.0812 13.424 82.8485 13.424C83.6158 13.424 84.1309 17.9555 84.3832 17.9555C84.6355 17.9555 85.5815 17.3562 86.1807 12.6565C86.1807 12.6565 86.6957 9.57596 87.2949 8.89256C87.8941 8.20915 85.2451 5.64376 83.5318 7.35753C83.5318 7.35753 82.6278 7.65192 81.5871 6.77926C81.5871 6.77926 79.18 6.5059 78.9172 7.95682C78.9172 7.95682 78.318 8.8505 78.9172 10.5432C78.9172 10.5432 79.5163 11.0374 79.5163 12.1413C79.5163 13.2453 79.6845 16.431 81.051 18.2184Z" fill="white"/>
</svg>
