<svg width="123" height="113" viewBox="0 0 123 113" fill="none" xmlns="http://www.w3.org/2000/svg">
<path d="M57.8945 14.7957C57.8945 14.7957 50.8239 41.4137 55.0989 54.5266C59.1667 67.0024 52.9141 73.6262 52.9141 73.6262L114.841 73.6735C114.841 73.6735 106.829 42.3526 108.161 35.8046C109.494 29.2565 112.005 8.87638 93.9403 6.44978C75.8753 4.02317 57.8945 14.7957 57.8945 14.7957Z" fill="#EDA83B"/>
<path d="M70.4336 74.8482C70.4336 74.8482 85.6367 67.93 94.0352 74.8482C102.434 81.7663 79.608 83.9133 75.2016 81.5098C70.7953 79.1063 70.4336 74.8482 70.4336 74.8482Z" fill="#526678"/>
<path d="M72.426 69.6758C72.426 69.6758 72.6363 77.0355 67.905 78.5074C63.1738 79.9794 67.0639 88.811 80.3114 90.0727C93.5589 91.3344 99.1313 80.8205 96.5028 79.2434C93.8744 77.6663 92.9775 74.2882 92.5076 71.8837C92.0376 69.4791 72.426 69.6758 72.426 69.6758Z" fill="#F6C0A4"/>
<path d="M72.2148 57.691L72.32 68.0997L72.7405 79.1393C72.7405 79.1393 81.6773 85.0408 92.0356 78.9595L92.5067 73.8824L92.4015 55.0625L72.2148 57.691Z" fill="#F6C0A4"/>
<path d="M72.2148 60.4261L72.32 64.8419C72.32 64.8419 77.0786 70.8138 82.6678 70.6497C88.2569 70.4857 92.4015 64.6316 92.4015 64.6316L92.2964 59.2695L72.2148 60.4261Z" fill="#ED9C82"/>
<path d="M59.9911 45.8678C59.9858 45.8458 59.9837 45.8352 59.9837 45.8352C59.9837 45.8352 57.6833 45.0131 56.532 39.918C55.3807 34.823 58.1764 34.8219 58.1764 34.8219C58.1764 34.8219 56.0662 29.054 57.8736 18.5254C59.6809 7.99681 102.745 14.0928 106.196 16.5583C109.648 19.0238 105.019 34.4897 105.019 34.4897C105.019 34.4897 108.635 30.5449 107.813 38.1054C106.992 45.666 103.705 45.9908 103.705 45.9908C103.705 45.9908 101.654 53.3506 98.2879 57.5824C90.6664 67.1648 86.7752 68.1794 81.676 68.1794C76.5767 68.1794 68.5262 60.7828 68.5262 60.7828L67.7903 60.0679C63.8275 56.2221 61.1105 51.2753 59.9911 45.8678Z" fill="#F6C0A4"/>
<path d="M97.6257 34.7268L95.0824 33.8857C94.5125 33.7806 86.1119 33.3937 86.2118 32.8249L86.4221 31.6578C86.4461 31.5218 86.4966 31.3918 86.5709 31.2753C86.6451 31.1589 86.7416 31.0582 86.8547 30.979C86.9679 30.8998 87.0955 30.8437 87.2304 30.8139C87.3652 30.784 87.5047 30.7811 87.6407 30.8051L96.9002 32.4348C97.0362 32.4587 97.1662 32.5091 97.2827 32.5832C97.3992 32.6573 97.5 32.7536 97.5793 32.8667C97.6586 32.9798 97.7148 33.1073 97.7448 33.2421C97.7747 33.3769 97.7779 33.5163 97.754 33.6523L97.5437 34.8193L97.6257 34.7268Z" fill="#BF7C2E"/>
<path d="M72.9703 42.0499C74.6949 42.0499 76.0929 40.6519 76.0929 38.9273C76.0929 37.2027 74.6949 35.8047 72.9703 35.8047C71.2457 35.8047 69.8477 37.2027 69.8477 38.9273C69.8477 40.6519 71.2457 42.0499 72.9703 42.0499Z" fill="#526778"/>
<path d="M91.8727 42.0499C93.5972 42.0499 94.9953 40.6519 94.9953 38.9273C94.9953 37.2027 93.5972 35.8047 91.8727 35.8047C90.1481 35.8047 88.75 37.2027 88.75 38.9273C88.75 40.6519 90.1481 42.0499 91.8727 42.0499Z" fill="#526778"/>
<path d="M72.6406 49.8906H91.3995C91.3995 49.8906 90.0632 59.638 81.6815 59.1428C73.2998 58.6476 72.6406 49.8906 72.6406 49.8906Z" fill="white"/>
<path d="M58.1257 33.8828C58.1257 33.8828 56.9639 34.6493 58.1257 36.301C59.2875 37.9527 64.9997 44.2453 65.4854 46.3754C65.9712 48.5055 66.357 49.9575 66.0658 53.1527C65.7746 56.3478 66.6472 59.5441 68.2937 61.0928C69.9402 62.6415 75.9426 67.87 82.7198 68.1613C89.4971 68.4525 96.5824 60.3494 98.2289 57.5422C98.2289 57.5422 99.3738 47.1514 99.7618 46.4732C100.15 45.7951 106.539 36.5975 106.636 35.6292C106.733 34.6608 105.861 35.3379 105.861 35.3379L100.526 43.38C99.5063 44.9182 98.0186 45.4639 96.1787 45.6016C92.3064 45.8918 86.1095 45.795 73.0376 46.0863C70.2714 46.1473 67.2244 46.0159 65.5643 43.8027L58.1257 33.8828Z" fill="#F4F3F2"/>
<path d="M93.7745 17.5066C96.4882 17.8462 105.475 46.1643 105.983 40.9073C106.491 35.6504 110.842 31.8885 109.225 20.4725C107.608 9.05657 96.1875 1.44241 86.0941 1.65269C74.8558 1.88609 60.2636 6.44176 58.0221 14.795C55.709 23.4164 55.996 34.1511 57.0138 34.8292C58.0315 35.5074 59.1943 43.5736 59.1943 43.5736C59.1943 43.5736 61.7261 40.2291 61.7261 36.3285C61.7261 32.4278 63.0803 25.8515 74.9494 21.1034L93.7745 17.5066Z" fill="#EDA83B"/>
<path d="M67.3133 34.6955L69.8566 33.8544C70.4265 33.7545 78.8271 33.3634 78.7272 32.7936L78.5222 31.6276C78.4983 31.4915 78.4478 31.3614 78.3736 31.2448C78.2995 31.1283 78.203 31.0274 78.0899 30.9481C77.9767 30.8688 77.849 30.8126 77.7141 30.7827C77.5792 30.7528 77.4397 30.7498 77.3036 30.7739L68.0493 32.4003C67.9133 32.4242 67.7833 32.4746 67.6668 32.5488C67.5503 32.6229 67.4495 32.7192 67.3702 32.8323C67.2909 32.9454 67.2347 33.0729 67.2048 33.2077C67.1748 33.3425 67.1717 33.4819 67.1956 33.6179L67.4058 34.7838L67.3133 34.6955Z" fill="#BF7C2E"/>
<path d="M100.793 111.645C100.931 110.655 101.214 108.176 101.364 103.784C101.399 102.757 101.424 101.622 101.441 100.382C101.469 98.1266 101.119 95.4477 100.591 92.7351C100.34 91.4356 100.046 90.1276 99.7342 88.8554C99.2727 86.9714 98.7701 85.163 98.298 83.5712C97.274 80.1132 96.3939 77.6719 96.3939 77.6719C96.2493 78.0638 96.0735 78.4435 95.8683 78.8074C94.7485 80.7972 93.1262 82.4584 91.1633 83.6248C90.6623 83.9265 90.1434 84.1972 89.6093 84.4354C87.8535 85.2208 85.6792 85.7843 83.0024 85.8937C80.2228 86.0189 77.4446 85.6157 74.8152 84.7056C74.3288 84.536 73.862 84.3548 73.4148 84.1621C69.491 82.4799 67.1317 80.1037 66.5061 79.4192C66.3936 79.2973 66.3368 79.2289 66.3368 79.2289C66.3368 79.3772 66.3284 79.5275 66.3263 79.68C66.3074 80.6021 66.3084 81.603 66.3263 82.6618C66.3263 82.8058 66.3316 82.9509 66.3347 83.0981C66.4062 86.3069 66.6291 90.0067 66.913 93.6687C67.0181 95.0807 67.1401 96.4875 67.262 97.8585C67.3672 99.056 67.4723 100.226 67.5869 101.349C68.0548 106.167 68.5121 110.104 68.6846 111.556L100.793 111.645Z" fill="white"/>
<path d="M70.4339 74.8438C70.4339 74.8438 43.4984 86.8495 41.4818 91.216C39.4653 95.5824 35 114 35 114L82.1022 113.116L70.4339 74.8438Z" fill="#526678"/>
<path d="M94.0351 74.8438C94.0351 74.8438 121.297 86.8495 123.337 91.216C125.378 95.5824 129.898 114 129.898 114L82.0977 113.116L94.0351 74.8438Z" fill="#526678"/>
<path d="M54.6979 29.6785C54.6979 29.6785 84.182 11.3844 109.475 29.7837C109.475 29.7837 111.368 6.54798 105.27 3.28868C99.1717 0.0293716 68.9968 -3.01966 59.1137 5.70687C59.1137 5.70687 53.7517 13.1717 54.6979 29.6785Z" fill="#566A78"/>
<path d="M81.0635 18.2181C81.0635 18.2181 82.0907 13.429 82.8603 13.429C83.6299 13.429 84.143 17.9616 84.3996 17.9616C84.6561 17.9616 85.5971 17.3633 86.1953 12.6594C86.1953 12.6594 86.7084 9.58092 87.3067 8.89646C87.9049 8.21201 85.2543 5.64666 83.5437 7.35727C83.5437 7.35727 82.6385 7.65481 81.5945 6.779C81.5945 6.779 79.1826 6.50143 78.926 7.9555C78.926 7.9555 78.3278 8.85442 78.926 10.543C78.926 10.543 79.5243 11.034 79.5243 12.1463C79.5243 13.2587 79.6957 16.4223 81.0635 18.2181Z" fill="white"/>
</svg>
