<svg width="123" height="113" viewBox="0 0 123 113" fill="none" xmlns="http://www.w3.org/2000/svg">
<path d="M69.3017 57.8532L68.9922 64.8331V77.9198C68.9922 77.9198 79.3841 83.4452 89.155 77.7065L91.1721 72.7456L90.2414 54.6445L69.3017 57.8532Z" fill="#F6C0A4"/>
<path d="M69.1445 58.3196V61.306C69.1445 61.306 75.039 67.9356 80.3123 67.7809C85.5857 67.6261 90.5485 61.4221 90.5485 61.4221V57.0625L69.1445 58.3196Z" fill="#ED9C82"/>
<path d="M61.701 53.3557C60.4608 51.9598 58.909 44.3598 58.909 44.3598C58.909 44.3598 56.7382 43.5839 55.6528 38.7758C54.5673 33.9678 57.2035 33.9668 57.2035 33.9668C57.2035 33.9668 55.8075 23.2653 57.5131 13.3297C59.2186 3.39416 99.8568 9.14675 103.114 11.4734C106.371 13.8 101.408 33.6533 101.408 33.6533C101.408 33.6533 104.821 29.9307 104.045 37.0653C103.269 44.2 100.167 44.5066 100.167 44.5066C99.5409 47.5062 98.7122 50.46 97.687 53.3478C95.9804 58.1558 84.1935 65.4453 79.3844 65.4453C74.5754 65.4453 66.9764 58.4654 66.9764 58.4654L61.701 53.3557Z" fill="#F6C0A4"/>
<path d="M68.523 69.3281C68.523 69.3281 39.518 82.9774 37.3471 87.9412C35.1762 92.905 30.3672 113.844 30.3672 113.844H73.9511L68.523 69.3281Z" fill="#EDEDED"/>
<path d="M91.4985 69.3281C91.4985 69.3281 120.503 82.9774 122.674 87.9412C124.845 92.905 129.654 113.844 129.654 113.844H86.0703L91.4985 69.3281Z" fill="#EDEDED"/>
<path d="M57.6693 35.0526L59.6854 39.8606C59.6854 39.8606 63.8734 26.9873 62.1658 18.7662C62.1658 18.7662 71.4724 28.2275 82.0191 25.126C92.5659 22.0244 96.9671 18.7662 96.9671 18.7662C96.9671 18.7662 93.9688 32.726 101.41 37.8446L106.063 16.7501C106.063 16.7501 108.544 8.83953 106.529 6.97823C106.529 6.97823 97.996 7.59933 89.3125 2.17019C80.6291 -3.25895 65.5819 2.94606 62.4794 5.11692C59.3769 7.28778 52.2422 7.28878 52.2422 7.28878C52.2422 7.28878 55.6553 24.6606 56.2754 26.8345C56.8955 29.0083 57.6693 35.0526 57.6693 35.0526Z" fill="#865839"/>
<path d="M75.287 29.3125H66.414C65.8661 29.3125 65.4219 29.7567 65.4219 30.3047V31.4228C65.4219 31.9708 65.8661 32.415 66.414 32.415H75.287C75.835 32.415 76.2792 31.9708 76.2792 31.4228V30.3047C76.2792 29.7567 75.835 29.3125 75.287 29.3125Z" fill="#865839"/>
<path d="M93.6179 30.9077L84.7951 29.9648C84.2503 29.9066 83.7614 30.3011 83.7032 30.8459L83.5843 31.9578C83.5261 32.5026 83.9206 32.9915 84.4655 33.0497L93.2882 33.9926C93.833 34.0509 94.3219 33.6564 94.3802 33.1115L94.499 31.9997C94.5572 31.4548 94.1627 30.9659 93.6179 30.9077Z" fill="#865839"/>
<path d="M71.1616 40.0879C72.789 40.0879 74.1083 38.865 74.1083 37.3564C74.1083 35.8479 72.789 34.625 71.1616 34.625C69.5341 34.625 68.2148 35.8479 68.2148 37.3564C68.2148 38.865 69.5341 40.0879 71.1616 40.0879Z" fill="#526778"/>
<path d="M70.8516 48.1875H88.5528C88.5528 48.1875 87.2928 57.3859 79.3822 56.9186C71.4717 56.4513 70.8516 48.1875 70.8516 48.1875Z" fill="white"/>
<path d="M68.7645 66.375L79.8549 79.5867L90.7142 66.3819L93.0289 70.7247L88.7061 113.999H69.4541L66.3516 70.7247L68.7645 66.375Z" fill="#EDEDED"/>
<path d="M75.1922 84.3784L79.6897 79.5703H80.1114L84.4154 84.3784L81.7058 88.4115L85.4284 114.004H74.0234L77.3631 88.4115L75.1922 84.3784Z" fill="#526678"/>
<path d="M63.2523 71.6765L66.9749 69.9531L72.0935 113.848H63.8337L55.9629 96.5978L63.5629 90.9553L54.1016 86.4102L63.2523 71.6765Z" fill="#C4C6C6"/>
<path d="M96.1815 71.0525L92.4589 69.3281L86.875 113.998H95.1348L103.471 95.9738L95.871 90.3313L105.332 85.7862L96.1815 71.0525Z" fill="#C4C6C6"/>
<path d="M30.2826 113.816C30.2826 113.816 28.8013 94.3391 32.6212 81.69C33.2298 79.7394 34.0576 77.8641 35.0887 76.1001L42.1976 76.0078C42.1976 76.0078 51.9813 108.593 45.9886 113.852" fill="#EDEDED"/>
<path d="M31.1317 71.6327C31.2775 70.6405 32.6814 68.1402 33.6994 67.9944C34.7174 67.8485 34.9138 65.9684 35.6252 65.641C36.3366 65.3136 37.7951 66.3434 38.0858 66.9249C38.3765 67.5063 39.8717 68.0926 39.8717 68.0926C39.8717 68.0926 43.3145 69.2515 43.3145 70.5611C43.3145 71.8708 44.6241 78.2712 43.0238 80.453C41.4234 82.6348 40.6961 85.5448 33.8591 82.7806C32.7194 81.6292 31.9579 80.1575 31.6764 78.5619C31.2398 75.9436 30.2734 75.8603 30.2734 74.8413C30.2734 73.8224 30.2953 72.0633 31.0225 72.0633L31.1317 71.6327Z" fill="#F6C0A4"/>
<path d="M41.2449 61.7578C41.2449 61.7578 34.266 78.1127 34.768 78.6326C35.2701 79.1525 38.6127 79.7339 38.6127 79.7339L43.6489 62.371L41.2449 61.7578Z" fill="#607CA8"/>
<path d="M45.006 62.9046C45.006 62.9046 40.6097 80.2199 39.8954 80.3291C39.181 80.4382 36.6758 79.3587 36.6758 79.3587L42.7012 62.0156L45.006 62.9046Z" fill="#496082"/>
<path d="M44.9061 62.099C42.7879 62.1022 40.7419 61.3302 39.1537 59.9287C37.5655 58.5272 36.545 56.5931 36.2846 54.491C36.0242 52.3889 36.5419 50.2642 37.74 48.5176C38.9382 46.7709 40.7341 45.523 42.7889 45.0091C44.8438 44.4953 47.0156 44.751 48.8949 45.7282C50.7742 46.7053 52.2311 48.3362 52.9907 50.3134C53.7504 52.2907 53.7604 54.4775 53.0188 56.4616C52.2772 58.4456 50.8353 60.0898 48.965 61.0841C47.7149 61.7481 46.3215 62.0965 44.9061 62.099ZM44.8823 46.3335C43.3322 46.3348 41.8252 46.8439 40.592 47.783C39.3588 48.7221 38.4673 50.0395 38.0539 51.5334C37.6405 53.0273 37.728 54.6156 38.303 56.055C38.878 57.4945 39.9089 58.7059 41.2378 59.5038C42.5667 60.3018 44.1205 60.6423 45.6613 60.4733C47.2021 60.3042 48.6451 59.635 49.7695 58.5679C50.8938 57.5009 51.6375 56.0948 51.8868 54.5649C52.1361 53.035 51.8772 51.4656 51.1498 50.0968C50.544 48.9606 49.6409 48.0103 48.537 47.3475C47.4331 46.6846 46.1699 46.3342 44.8823 46.3335Z" fill="#BBD2F9"/>
<path d="M44.8914 63.003C42.5639 63.0076 40.3152 62.1605 38.5692 60.6215C36.8232 59.0825 35.7005 56.9579 35.4129 54.6483C35.1253 52.3386 35.6926 50.0036 37.0078 48.0834C38.3231 46.1632 40.2953 44.7905 42.5528 44.2241C44.8103 43.6577 47.197 43.9368 49.263 45.0087C51.3289 46.0806 52.9313 47.8713 53.768 50.0432C54.6048 52.215 54.618 54.618 53.8053 56.7989C52.9926 58.9799 51.4101 60.7882 49.3561 61.8828C47.9817 62.6153 46.4488 62.9999 44.8914 63.003ZM44.8695 45.0368C42.7354 45.0355 40.6797 45.8411 39.1148 47.2921C37.5499 48.7431 36.5914 50.7321 36.4317 52.8602C36.272 54.9884 36.9229 57.0982 38.2537 58.7665C39.5846 60.4348 41.497 61.5382 43.6074 61.8554C45.7178 62.1726 47.8701 61.6801 49.6325 60.4767C51.395 59.2733 52.6373 57.4481 53.1102 55.367C53.5832 53.286 53.2518 51.1031 52.1825 49.2562C51.1132 47.4093 49.3852 46.035 47.345 45.4089C46.5427 45.1645 45.7082 45.0418 44.8695 45.0448V45.0368Z" fill="#3A3C3F"/>
<path d="M44.8346 60.4868C43.7031 60.4876 42.5873 60.223 41.5766 59.7143C40.5659 59.2057 39.6887 58.4671 39.0152 57.5579C38.3417 56.6487 37.8908 55.5943 37.6988 54.4793C37.5067 53.3643 37.5788 52.2197 37.9092 51.1376C38.3275 49.7698 39.1418 48.5567 40.2494 47.6516C41.357 46.7466 42.708 46.1902 44.1317 46.0529C45.5554 45.9156 46.9879 46.2035 48.248 46.8802C49.5081 47.5569 50.5393 48.592 51.2112 49.8547C51.7947 50.9566 52.0838 52.1905 52.0506 53.4369C52.0174 54.6833 51.663 55.9 51.0217 56.9693C50.3804 58.0386 49.4739 58.9242 48.39 59.5404C47.3061 60.1567 46.0814 60.4826 44.8346 60.4868ZM44.8157 47.3098C43.517 47.3126 42.255 47.7407 41.2227 48.5288C40.1904 49.3168 39.4447 50.4214 39.0997 51.6734C38.7548 52.9255 38.8295 54.2561 39.3124 55.4616C39.7954 56.6672 40.66 57.6813 41.774 58.3489C42.888 59.0165 44.19 59.3007 45.4809 59.1581C46.7717 59.0154 47.9803 58.4539 48.9217 57.5592C49.8631 56.6646 50.4855 55.4861 50.6936 54.2042C50.9018 52.9223 50.6842 51.6075 50.0742 50.4609C49.5659 49.5081 48.8081 48.7116 47.8818 48.1565C46.9555 47.6014 45.8956 47.3087 44.8157 47.3098Z" fill="#A9BEDB"/>
<path d="M35.3203 68.008C35.3203 68.008 37.2362 75.0584 38.4129 74.8441C39.5896 74.6298 40.43 73.3558 38.4129 68.2114C36.3958 63.067 35.3203 68.008 35.3203 68.008Z" fill="#F6C0A4"/>
<path d="M32.418 70.5647C32.418 70.5647 36.8907 75.5087 38.5049 74.8082C40.1192 74.1078 34.6652 68.7461 34.6652 68.7461L32.418 70.5647Z" fill="#F6C0A4"/>
<path d="M43.4566 74.8506C43.4566 74.8506 43.7929 70.0366 42.9198 68.8033C42.0467 67.5701 40.6606 68.593 40.6041 70.6498C40.5475 72.7065 41.4603 76.0293 41.4603 76.0293L43.4566 74.8506Z" fill="#F6C0A4"/>
<path d="M88.728 40.1269C90.3554 40.1269 91.6747 38.904 91.6747 37.3955C91.6747 35.887 90.3554 34.6641 88.728 34.6641C87.1005 34.6641 85.7812 35.887 85.7812 37.3955C85.7812 38.904 87.1005 40.1269 88.728 40.1269Z" fill="#526778"/>
</svg>
