<svg width="123" height="113" viewBox="0 0 123 113" fill="none" xmlns="http://www.w3.org/2000/svg">
<path d="M57.594 9.98105C57.594 9.98105 40.8201 34.277 50.3996 59.3322C59.9791 84.3873 45.1207 83.0858 45.663 90.8952C46.2053 98.7046 114.358 92.9289 114.358 92.9289C114.358 92.9289 108.836 76.0617 111.284 68.6601C113.732 61.2585 113.778 23.539 106.077 12.2588C98.3765 0.978539 57.594 9.98105 57.594 9.98105Z" fill="#C66F40"/>
<path d="M70.6106 70.1798C70.6106 70.1798 70.8275 77.7723 65.9466 79.2908C61.0657 80.8093 65.0789 89.9203 78.7454 91.2219C92.4119 92.5235 98.1604 81.677 95.4488 80.0501C92.7372 78.4231 91.811 74.9392 91.3272 72.4576C90.8435 69.9759 70.6106 70.1798 70.6106 70.1798Z" fill="#F6C0A4"/>
<path d="M70.3906 57.8171L70.4991 68.555L70.9329 79.9437C70.9329 79.9437 80.1524 86.0328 90.8383 79.7582L91.3242 74.5205L91.2157 55.1055L70.3906 57.8171Z" fill="#F6C0A4"/>
<path d="M70.3906 60.6345L70.4991 65.19C70.4991 65.19 75.4082 71.3519 81.173 71.1816C86.9379 71.0113 91.2157 64.9731 91.2157 64.9731L91.1072 59.4414L70.3906 60.6345Z" fill="#ED9C82"/>
<path d="M57.7836 45.6156L57.7771 45.582C57.7771 45.582 55.4029 44.7338 54.2163 39.4776C53.0297 34.2215 55.9115 34.2215 55.9115 34.2215C55.9115 34.2215 53.7347 28.27 55.6003 17.4095C57.4658 6.54903 101.889 12.8356 105.45 15.3791C109.011 17.9226 104.234 33.882 104.234 33.882C104.234 33.882 107.964 29.8124 107.116 37.612C106.268 45.4117 102.878 45.7468 102.878 45.7468C102.878 45.7468 100.764 53.3447 97.2927 57.7093C89.4291 67.5947 85.4148 68.6425 80.1554 68.6425C74.896 68.6425 66.5974 61.0121 66.5974 61.0121L65.8382 60.2734C61.7455 56.3047 58.9394 51.1981 57.7836 45.6156Z" fill="#F6C0A4"/>
<path d="M96.6079 34.1246L93.983 33.2569C93.3962 33.1538 84.7288 32.7504 84.833 32.1625L85.0499 30.9585C85.0999 30.6754 85.2603 30.4237 85.4958 30.2587C85.7313 30.0938 86.0227 30.0291 86.3059 30.0789L95.8595 31.7612C96.1426 31.8112 96.3943 31.9716 96.5593 32.2071C96.7242 32.4426 96.7889 32.734 96.7391 33.0172L96.5222 34.22L96.6079 34.1246Z" fill="#A3593A"/>
<path d="M71.1706 41.6771C72.9497 41.6771 74.392 40.2349 74.392 38.4558C74.392 36.6766 72.9497 35.2344 71.1706 35.2344C69.3915 35.2344 67.9492 36.6766 67.9492 38.4558C67.9492 40.2349 69.3915 41.6771 71.1706 41.6771Z" fill="#527770"/>
<path d="M90.6706 41.6771C92.4498 41.6771 93.892 40.2349 93.892 38.4558C93.892 36.6766 92.4498 35.2344 90.6706 35.2344C88.8915 35.2344 87.4492 36.6766 87.4492 38.4558C87.4492 40.2349 88.8915 41.6771 90.6706 41.6771Z" fill="#527770"/>
<path d="M70.832 49.7656H90.1831C90.1831 49.7656 88.8056 59.8213 80.1578 59.3104C71.5099 58.7996 70.832 49.7656 70.832 49.7656Z" fill="white"/>
<path d="M92.6337 16.3597C95.4321 16.71 104.704 45.9237 105.229 40.5005C105.753 35.0773 110.241 31.1975 108.572 19.4194C106.904 7.64133 95.1229 -0.212545 84.7104 0.00438308C73.1156 0.246258 58.0619 4.946 55.7505 13.5624C53.3643 22.4564 53.9728 32.1097 55.0227 32.8039C56.0726 33.4981 56.9588 43.2511 56.9588 43.2511C56.9588 43.2511 59.5706 39.8009 59.5706 35.778C59.5706 31.755 60.9676 24.9685 73.2132 20.0702L92.6337 16.3597Z" fill="#C66F40"/>
<path d="M65.3419 34.0892L67.9667 33.2215C68.5546 33.113 77.2209 32.7139 77.1167 32.126L76.9009 30.9156C76.8509 30.6324 76.6905 30.3807 76.455 30.2157C76.2195 30.0508 75.9281 29.9861 75.6449 30.0359L66.0914 31.7171C65.8082 31.7671 65.5565 31.9275 65.3915 32.163C65.2266 32.3986 65.1619 32.6899 65.2117 32.9731L65.4232 34.1771L65.3419 34.0892Z" fill="#A3593A"/>
<path d="M99.8767 113.47C100.019 112.448 100.311 109.891 100.466 105.364C100.501 104.304 100.527 103.132 100.545 101.85C100.574 99.5235 100.213 96.761 99.6706 93.9626C99.4092 92.622 99.1066 91.2727 98.7845 89.9592C98.3083 88.0155 97.7899 86.1499 97.3029 84.5078C96.2453 80.9404 95.3386 78.4219 95.3386 78.4219C95.1893 78.8262 95.008 79.2179 94.7962 79.5933C93.6411 81.6467 91.967 83.3609 89.9414 84.5642C89.4247 84.8746 88.8897 85.1535 88.3394 85.3994C86.528 86.2096 84.2861 86.791 81.5235 86.9038C78.656 87.0332 75.79 86.6177 73.0774 85.6792C72.5756 85.5042 72.094 85.3177 71.6327 85.1195C67.5859 83.3841 65.1519 80.9339 64.5044 80.2267C64.3883 80.0998 64.3298 80.0293 64.3298 80.0293C64.3298 80.1822 64.3211 80.3373 64.3189 80.4946C64.2994 81.4458 64.3005 82.4763 64.3189 83.5674C64.3189 83.716 64.3244 83.8657 64.3276 84.0175C64.4014 87.3279 64.6313 91.1469 64.9242 94.9258C65.0326 96.3824 65.1584 97.8337 65.2842 99.248C65.3927 100.485 65.5077 101.692 65.6205 102.85C66.1032 107.819 66.575 111.88 66.7529 113.378L99.8767 113.47Z" fill="white"/>
<path d="M68.5539 75.5078C68.5539 75.5078 40.7665 87.3098 38.6861 91.6017C36.6058 95.8936 31.9961 113.998 31.9961 113.998L80.588 113.131L68.5539 75.5078Z" fill="#EDEDED"/>
<path d="M92.8998 75.5078C92.8998 75.5078 121.025 87.3098 123.13 91.6017C125.235 95.8936 129.898 113.998 129.898 113.998L80.5859 113.131L92.8998 75.5078Z" fill="#EDEDED"/>
<path d="M61.4727 78.4224L69.9589 74.3008L80.5883 113.131C80.5883 113.131 63.3686 101.84 63.8437 101.2C64.3188 100.56 69.6454 93.6204 68.8797 92.5856C68.1139 91.5509 61.4727 78.4224 61.4727 78.4224Z" fill="#C4C6C6"/>
<path d="M103.475 86.5058C103.355 86.5058 103.238 86.4697 103.139 86.4022C103.04 86.3347 102.963 86.2389 102.919 86.1273C99.5179 77.4686 95.1946 76.0976 95.1512 76.0846C95.0023 76.0386 94.8772 75.9362 94.8028 75.7993C94.7284 75.6623 94.7106 75.5017 94.7531 75.3518C94.7956 75.2018 94.8951 75.0745 95.0303 74.997C95.1655 74.9195 95.3257 74.898 95.4766 74.937C95.6751 74.9923 100.383 76.411 104.029 85.6912C104.064 85.7817 104.077 85.8794 104.066 85.976C104.056 86.0726 104.021 86.165 103.967 86.2453C103.912 86.3256 103.838 86.3913 103.752 86.4367C103.666 86.4821 103.571 86.5058 103.474 86.5058H103.475Z" fill="#494D56"/>
<path d="M100.323 78.787L91.5435 73.6523L80.7383 113.234C80.7383 113.234 98.1088 102.171 97.6424 101.52C97.176 100.869 91.9448 93.8624 92.7236 92.8429C93.5023 91.8233 100.323 78.787 100.323 78.787Z" fill="#C4C6C6"/>
<path d="M107.848 87.9679C106.812 86.4494 105.358 85.5817 103.526 85.3994C101.791 85.227 100.429 85.7465 99.4829 86.9451C97.6444 89.276 97.4796 94.1612 98.9915 101.464C99.5718 104.264 100.293 106.902 100.861 108.79C100.764 108.966 100.691 109.155 100.645 109.35C100.519 109.971 100.554 110.613 100.746 111.216C100.939 111.819 101.282 112.362 101.743 112.795C102.073 113.099 102.5 113.274 102.948 113.289C103.095 113.289 103.242 113.267 103.382 113.223C103.91 113.053 104.306 112.582 104.467 111.928C104.592 111.307 104.557 110.665 104.365 110.062C104.173 109.46 103.83 108.916 103.368 108.483C102.871 108.054 102.294 107.897 101.777 108.049C101.242 106.227 100.589 103.807 100.059 101.25C98.6347 94.3727 98.7323 89.661 100.341 87.6219C101.051 86.7205 102.06 86.3485 103.426 86.4841C104.944 86.6349 106.098 87.3214 106.956 88.5829C109.92 92.9377 108.366 102.712 107.233 107.931C106.958 107.96 106.619 108.096 106.247 108.464C105.433 109.351 104.99 110.515 105.009 111.718C105.069 112.642 105.535 112.955 105.808 113.058C105.93 113.104 106.059 113.128 106.189 113.127C106.482 113.127 106.868 113.012 107.297 112.585C108.111 111.699 108.555 110.534 108.535 109.331C108.527 108.997 108.426 108.673 108.243 108.394C108.606 106.747 109.02 104.619 109.319 102.342C110.208 95.5441 109.715 90.7088 107.848 87.9679Z" fill="#4B505B"/>
<path d="M70.0683 74.0501C70.0357 73.9789 69.9893 73.9148 69.9319 73.8616C69.8744 73.8084 69.807 73.767 69.7336 73.7399C69.6601 73.7128 69.582 73.7004 69.5037 73.7036C69.4255 73.7068 69.3486 73.7254 69.2776 73.7584C69.0834 73.8473 64.4791 76.0047 60.6232 80.7532C58.3541 83.5527 56.8194 86.6645 56.0764 90.0171C55.2011 93.95 55.4159 98.204 56.712 102.675C55.7934 103.107 55.0665 103.862 54.6704 104.797C54.2744 105.731 54.2371 106.779 54.5658 107.739C54.8944 108.7 55.5659 109.505 56.4515 110.001C57.337 110.497 58.3745 110.649 59.365 110.427C60.3556 110.206 61.2295 109.626 61.8194 108.8C62.4093 107.974 62.6737 106.96 62.5619 105.951C62.4501 104.942 61.97 104.01 61.2136 103.333C60.4572 102.656 59.4776 102.283 58.4626 102.283C58.2586 102.284 58.0548 102.299 57.853 102.329C56.6198 98.0684 56.4105 94.027 57.2337 90.3045C57.9322 87.1417 59.3748 84.1937 61.5202 81.5417C65.196 76.9971 69.7233 74.8658 69.7765 74.8408C69.8476 74.8081 69.9116 74.7617 69.9647 74.7043C70.0179 74.6468 70.0592 74.5794 70.0863 74.506C70.1134 74.4325 70.1258 74.3545 70.1227 74.2763C70.1196 74.198 70.1011 74.1212 70.0683 74.0501Z" fill="#4B505B"/>
</svg>
