<svg width="123" height="113" viewBox="0 0 123 113" fill="none" xmlns="http://www.w3.org/2000/svg">
<path d="M70.2586 14.6641H1.31259C0.594137 14.6641 0.0117188 15.2465 0.0117188 15.9649V84.908C0.0117188 85.6264 0.594137 86.2088 1.31259 86.2088H70.2586C70.9771 86.2088 71.5595 85.6264 71.5595 84.908V15.9649C71.5595 15.2465 70.9771 14.6641 70.2586 14.6641Z" fill="#E1E7EA"/>
<path d="M70.2599 86.2231H1.31388C1.14134 86.2231 0.970484 86.1891 0.811078 86.1231C0.651671 86.0571 0.50683 85.9603 0.384826 85.8383C0.262821 85.7163 0.166038 85.5715 0.100009 85.4121C0.0339808 85.2527 0 85.0818 0 84.9093V15.9662C0 15.7936 0.0339808 15.6228 0.100009 15.4634C0.166038 15.304 0.262821 15.1592 0.384826 15.0372C0.50683 14.9152 0.651671 14.8184 0.811078 14.7524C0.970484 14.6863 1.14134 14.6523 1.31388 14.6523H70.2599C70.6084 14.6523 70.9426 14.7908 71.189 15.0372C71.4354 15.2836 71.5738 15.6177 71.5738 15.9662V84.9093C71.5738 85.2577 71.4354 85.5919 71.189 85.8383C70.9426 86.0847 70.6084 86.2231 70.2599 86.2231ZM1.31388 14.6784C0.972403 14.6787 0.644996 14.8144 0.403537 15.0559C0.162079 15.2973 0.0263034 15.6247 0.0260163 15.9662V84.9093C0.0263034 85.2507 0.162079 85.5781 0.403537 85.8196C0.644996 86.061 0.972403 86.1968 1.31388 86.1971H70.2599C70.6014 86.1968 70.9288 86.061 71.1702 85.8196C71.4117 85.5781 71.5475 85.2507 71.5478 84.9093V15.9662C71.5475 15.6247 71.4117 15.2973 71.1702 15.0559C70.9288 14.8144 70.6014 14.6787 70.2599 14.6784H1.31388Z" fill="#72788E"/>
<path d="M70.7007 70.1369C70.7007 70.1369 70.9175 77.7249 66.0393 79.2426C61.161 80.7602 65.172 89.8659 78.8312 91.1667C92.4903 92.4675 98.2358 81.6274 95.5256 80.0014C92.8155 78.3754 91.8897 74.8935 91.4062 72.4133C90.9227 69.9331 70.7007 70.1369 70.7007 70.1369Z" fill="#F6C08B"/>
<path d="M70.4844 57.7803L70.5928 68.512L71.0264 79.8941C71.0264 79.8941 80.2409 85.9798 90.921 79.7098L91.4067 74.4741L91.2982 55.0703L70.4844 57.7803Z" fill="#F6C08B"/>
<path d="M97.0451 54.9625C97.0451 54.9625 90.88 63.5088 95.8526 72.7457C100.825 81.9826 90.1071 91.7398 91.0827 96.6178C92.0584 101.496 97.1806 106.482 97.1806 106.482C97.1806 106.482 92.9365 96.8964 100.299 90.4151C107.662 83.9338 115.357 71.8785 110.858 62.5658C106.359 53.2531 98.9411 47.7148 98.9411 47.7148L97.0451 54.9625Z" fill="#3A1716"/>
<path d="M64.0494 20.0859H6.76571C6.04726 20.0859 5.46484 20.6683 5.46484 21.3868V78.6681C5.46484 79.3865 6.04726 79.9689 6.76571 79.9689H64.0494C64.7679 79.9689 65.3503 79.3865 65.3503 78.6681V21.3868C65.3503 20.6683 64.7679 20.0859 64.0494 20.0859Z" fill="#858889"/>
<path d="M64.0514 80.1865H6.76768C6.36517 80.1865 5.97914 80.0266 5.69452 79.742C5.4099 79.4574 5.25 79.0714 5.25 78.6689V21.3887C5.25 20.9862 5.4099 20.6002 5.69452 20.3156C5.97914 20.031 6.36517 19.8711 6.76768 19.8711H64.0514C64.4539 19.8711 64.84 20.031 65.1246 20.3156C65.4092 20.6002 65.5691 20.9862 65.5691 21.3887V78.67C65.5688 79.0723 65.4088 79.458 65.1242 79.7424C64.8396 80.0268 64.4538 80.1865 64.0514 80.1865ZM6.76768 20.3047C6.48017 20.3047 6.20444 20.4189 6.00114 20.6222C5.79784 20.8255 5.68362 21.1012 5.68362 21.3887V78.67C5.68362 78.9575 5.79784 79.2332 6.00114 79.4365C6.20444 79.6398 6.48017 79.754 6.76768 79.754H64.0514C64.3389 79.754 64.6147 79.6398 64.818 79.4365C65.0213 79.2332 65.1355 78.9575 65.1355 78.67V21.3887C65.1355 21.1012 65.0213 20.8255 64.818 20.6222C64.6147 20.4189 64.3389 20.3047 64.0514 20.3047H6.76768Z" fill="white"/>
<path d="M70.4844 60.5987L70.5928 65.1515C70.5928 65.1515 75.4992 71.3098 81.261 71.1407C87.0227 70.9716 91.2983 64.9347 91.2983 64.9347L91.1899 59.4062L70.4844 60.5987Z" fill="#D3A57A"/>
<path d="M57.8831 45.5889L57.8766 45.5542C57.8766 45.5542 55.5036 44.7065 54.3177 39.4534C53.1317 34.2003 56.0121 34.2003 56.0121 34.2003C56.0121 34.2003 53.8364 28.2524 55.7009 17.3982C57.5655 6.54395 101.966 12.8269 105.524 15.3689C109.082 17.9109 104.311 33.8566 104.311 33.8566C104.311 33.8566 108.039 29.7895 107.191 37.5857C106.344 45.3819 102.955 45.7158 102.955 45.7158C102.955 45.7158 100.841 53.3038 97.371 57.667C89.5116 67.5467 85.4995 68.5938 80.2429 68.5938C74.9863 68.5938 66.6846 60.9754 66.6846 60.9754L65.9258 60.2372C61.8381 56.2702 59.0362 51.167 57.8831 45.5889Z" fill="#F6C08B"/>
<path d="M96.33 34.9212L93.8648 33.6724C93.299 33.4827 84.7924 31.8036 84.9756 31.2388L85.3626 30.08C85.4077 29.945 85.4791 29.8201 85.5725 29.7127C85.6659 29.6052 85.7796 29.5172 85.9071 29.4537C86.0345 29.3902 86.1732 29.3524 86.3153 29.3425C86.4574 29.3326 86.6 29.3507 86.735 29.396L95.9289 32.4692C96.064 32.5142 96.189 32.5855 96.2966 32.6789C96.4042 32.7722 96.4923 32.8859 96.5559 33.0133C96.6195 33.1408 96.6574 33.2795 96.6674 33.4216C96.6774 33.5637 96.6592 33.7064 96.614 33.8415L96.227 34.9992L96.33 34.9212Z" fill="#3A1716"/>
<path d="M71.2626 41.6539C73.0408 41.6539 74.4823 40.2125 74.4823 38.4344C74.4823 36.6563 73.0408 35.2148 71.2626 35.2148C69.4845 35.2148 68.043 36.6563 68.043 38.4344C68.043 40.2125 69.4845 41.6539 71.2626 41.6539Z" fill="#411E13"/>
<path d="M90.7509 41.6539C92.5291 41.6539 93.9706 40.2125 93.9706 38.4344C93.9706 36.6563 92.5291 35.2148 90.7509 35.2148C88.9727 35.2148 87.5312 36.6563 87.5312 38.4344C87.5312 40.2125 88.9727 41.6539 90.7509 41.6539Z" fill="#411E13"/>
<path d="M70.9219 49.7344H90.2625C90.2625 49.7344 88.8858 59.7853 80.2426 59.2737C71.5994 58.762 70.9219 49.7344 70.9219 49.7344Z" fill="white"/>
<path d="M81.9694 15.5336C83.1174 15.6767 93.3888 20.9536 97.7966 26.5905C104.133 34.6891 104.994 43.6723 105.303 40.4756C105.827 35.0555 109.004 32.6165 107.336 20.8452C106.794 16.9926 106.469 13.2571 104.951 11.1975C100.463 5.10647 91.7963 -0.142312 84.7955 0.00294496C73.2069 0.244679 58.1624 4.9417 55.8512 13.5531C53.4662 22.442 54.0744 32.0897 55.1238 32.7834C56.1731 33.4772 57.0588 43.2257 57.0588 43.2257C57.0588 43.2257 59.6692 39.7764 59.6692 35.7558C59.6692 31.7352 61.0655 24.9525 73.3045 20.0571L81.9694 15.5336Z" fill="#3A1716"/>
<path d="M65.7066 34.7211L68.2097 33.5504C68.781 33.3791 77.3375 31.9709 77.1662 31.3997L76.816 30.23C76.7752 30.0936 76.7079 29.9666 76.6179 29.8563C76.528 29.7459 76.4172 29.6543 76.2919 29.5868C76.1665 29.5193 76.0291 29.4771 75.8875 29.4626C75.7459 29.4482 75.6028 29.4618 75.4664 29.5026L66.1793 32.2821C66.0429 32.3229 65.9159 32.3902 65.8055 32.4802C65.6951 32.5701 65.6036 32.6809 65.536 32.8062C65.4685 32.9315 65.4263 33.0689 65.4118 33.2106C65.3974 33.3522 65.411 33.4953 65.4519 33.6317L65.802 34.8013L65.7066 34.7211Z" fill="#3A1716"/>
<path d="M64.4195 79.9854C64.4195 79.9854 70.5011 87.3123 81.604 86.8559C92.7069 86.3995 95.416 78.3789 95.416 78.3789C95.416 78.3789 100.728 93.1215 100.619 101.794C100.511 110.466 99.8693 113.934 99.8693 113.934H66.914C66.914 113.934 64.1019 91.0228 64.4195 79.9854Z" fill="white"/>
<path d="M32.1562 113.764C32.6256 111.931 36.834 95.5951 38.7961 91.5485C39.2785 90.5533 41.1453 89.1528 43.7296 87.5897C44.663 87.0238 45.6918 86.4373 46.7813 85.8411C51.4308 83.2948 57.2088 80.5685 61.6578 78.5501C65.7024 76.7148 80.8976 87.2796 80.8976 87.2796L81.3313 88.6227L83.9753 96.8861L85.5862 101.922L80.6797 113.065L66.8461 113.311L47.6214 113.655L40.4666 113.782L37.9505 113.827L32.1562 113.764Z" fill="#BEBEBF"/>
<path d="M95.4103 78.4062C95.4103 78.4062 121.092 87.2594 123.196 91.5488C125.3 95.8382 129.96 113.933 129.96 113.933L78.3906 113.095L80.1251 97.9184L79.4747 86.3195L95.4103 78.4062Z" fill="#C9C9C9"/>
<path d="M30.3089 113.762C30.3089 113.762 28.6904 92.4813 32.8629 78.6613C33.5286 76.5302 34.4334 74.4814 35.5601 72.554L43.3273 72.4531C43.3273 72.4531 54.0161 108.054 47.4695 113.801L30.3089 113.762Z" fill="#C9C9C9"/>
<path d="M33.6477 76.2918L32.3945 80.3319C32.3945 80.3319 36.0879 86.1411 45.6948 81.2447L44.266 75.7617L33.6477 76.2918Z" fill="#526678"/>
<path d="M48.491 74.2434C48.4834 74.2561 48.475 74.2684 48.4661 74.2803C48.4097 74.3681 48.3523 74.4548 48.2937 74.5393C48.029 74.9277 47.7412 75.2998 47.4319 75.6537C46.741 76.457 45.9251 77.1437 45.0155 77.6873C44.9473 77.7274 44.88 77.7665 44.8128 77.8033C44.2678 78.1078 43.6913 78.352 43.0935 78.5318C42.9949 78.561 42.8973 78.5892 42.8019 78.6131C41.4598 78.9643 40.5156 78.8516 40.5156 78.8516C40.5156 78.8516 41.4273 78.0635 42.6566 77.0543C43.0577 76.729 43.4924 76.3713 43.9412 76.0136L44.2665 75.7599C44.3987 75.6552 44.5317 75.5507 44.6654 75.4467L44.7836 75.3556L45.1326 75.0846L45.6139 74.7182C46.0183 74.4158 46.4129 74.1285 46.7826 73.8705C47.2487 73.5453 47.6758 73.2721 48.0336 73.0737C49.1187 72.4678 49.5632 72.5848 48.491 74.2434Z" fill="#F6C08B"/>
<path d="M34.599 51.9634C34.5722 51.9631 34.5456 51.9591 34.5199 51.9515C34.4512 51.9305 34.3936 51.883 34.3599 51.8196C34.3261 51.7562 34.319 51.682 34.3399 51.6133C35.3904 48.1607 36.7248 46.7807 38.2707 45.184L38.5157 44.9314C39.7082 43.6924 41.5727 42.8848 44.0531 42.5303C45.1656 42.3694 46.2908 42.3147 47.4136 42.3667C47.4492 42.3691 47.484 42.3785 47.516 42.3943C47.5479 42.4102 47.5764 42.4322 47.5999 42.4591C47.6233 42.486 47.6413 42.5172 47.6527 42.551C47.664 42.5848 47.6687 42.6205 47.6662 42.6561C47.6638 42.6917 47.6544 42.7264 47.6386 42.7584C47.6227 42.7903 47.6007 42.8188 47.5738 42.8423C47.5469 42.8657 47.5157 42.8837 47.4819 42.8951C47.4481 42.9064 47.4124 42.9111 47.3768 42.9087C47.3193 42.9087 41.5641 42.5542 38.9103 45.3087L38.6653 45.5623C37.1064 47.1721 35.876 48.4447 34.8624 51.7726C34.8452 51.8287 34.8102 51.8777 34.7627 51.9122C34.7152 51.9466 34.6577 51.9645 34.599 51.9634Z" fill="white"/>
<path d="M26.9569 58.5245C26.8948 58.5235 26.835 58.5009 26.7878 58.4606C26.732 58.4152 26.6965 58.3496 26.689 58.2781C26.6815 58.2066 26.7026 58.135 26.7476 58.079C28.6415 55.7473 31.718 54.3934 33.9664 53.6617C35.4177 53.1867 36.9083 52.8417 38.4208 52.6308C38.4927 52.6223 38.565 52.6427 38.6218 52.6875C38.6786 52.7324 38.7153 52.7979 38.7238 52.8698C38.7322 52.9416 38.7118 53.014 38.667 53.0708C38.6222 53.1276 38.5566 53.1643 38.4847 53.1728C38.4067 53.1815 30.6405 54.1484 27.1693 58.4248C27.1435 58.4561 27.111 58.4812 27.0743 58.4984C27.0375 58.5157 26.9974 58.5246 26.9569 58.5245Z" fill="white"/>
<path d="M37.0296 67.2912C29.5876 67.2912 24.3808 64.0685 24.0036 61.6967C23.6708 59.5991 22.4686 58.9628 21.4084 58.4023L21.1915 58.2842C20.9921 58.1758 16.3014 55.5817 15.5848 49.4983C14.9604 44.1985 16.6689 42.4305 19.7432 39.7617C22.7005 37.1937 26.3798 37.1709 28.6325 37.9308C32.5113 39.2403 35.1542 41.2208 36.4887 43.817C37.4546 45.6945 36.8356 47.5102 36.4887 48.2614C37.4594 48.4202 38.4025 48.7162 39.2899 49.1406C41.3919 50.179 42.4098 51.8202 42.232 53.8875C42.0575 55.9319 40.4336 57.7899 37.537 59.2663C36.1644 59.9559 34.722 60.4967 33.2343 60.8793C33.1643 60.896 33.0906 60.8842 33.0293 60.8465C32.968 60.8087 32.9242 60.7482 32.9075 60.6782C32.8908 60.6082 32.9026 60.5345 32.9403 60.4732C32.9781 60.4119 33.0386 60.3681 33.1086 60.3514C33.191 60.3319 41.3062 58.3503 41.6922 53.8408C41.8504 51.9926 40.9658 50.5769 39.0622 49.6327C38.1097 49.1781 37.091 48.8777 36.0442 48.7427L35.6182 48.6994L35.835 48.333C35.848 48.3124 37.0925 46.191 35.9987 44.0631C34.7303 41.5969 32.1904 39.7053 28.4504 38.4435C26.1674 37.6728 22.6973 37.907 20.0912 40.1693C17.3225 42.5736 15.4937 44.1606 16.1149 49.4343C16.7989 55.2403 21.2523 57.7042 21.4409 57.8061L21.6577 57.9221C22.7136 58.4804 24.1586 59.2457 24.5348 61.6077C24.8893 63.8365 30.4396 67.0148 37.9999 66.7254C45.8625 66.4251 54.303 63.8202 55.2201 59.4235C56.1491 54.9725 55.2201 53.2522 50.2334 50.2224C46.3948 47.8874 43.9643 47.3541 43.2163 47.3986C43.1445 47.4035 43.0736 47.3796 43.0193 47.3322C42.965 47.2848 42.9318 47.2179 42.9269 47.146C42.922 47.0741 42.9459 47.0032 42.9932 46.9489C43.0406 46.8947 43.1076 46.8615 43.1795 46.8566C43.2738 46.8501 45.5351 46.7287 50.5153 49.7585C55.7036 52.914 56.7302 54.8327 55.7502 59.534C55.2819 61.7747 53.0715 63.7107 49.3543 65.133C46.2181 66.333 42.0857 67.1102 38.0172 67.2663C37.6876 67.2829 37.3584 67.2912 37.0296 67.2912Z" fill="white"/>
<path d="M47.7987 58.5697C47.6415 58.5697 43.9037 58.4841 41.7356 53.258C41.7219 53.2252 41.7149 53.1899 41.7148 53.1543C41.7148 53.1187 41.7218 53.0834 41.7354 53.0505C41.749 53.0176 41.7689 52.9877 41.794 52.9625C41.8192 52.9373 41.8491 52.9172 41.882 52.9036C41.9148 52.8899 41.9501 52.8829 41.9857 52.8828C42.0213 52.8828 42.0566 52.8897 42.0895 52.9033C42.1224 52.9169 42.1523 52.9368 42.1776 52.962C42.2028 52.9871 42.2228 53.017 42.2364 53.0499C42.8218 54.4591 43.9124 56.3605 45.79 57.3957C46.9098 58.0136 47.7944 58.032 47.8042 58.032C47.876 58.032 47.945 58.0606 47.9958 58.1114C48.0466 58.1623 48.0752 58.2312 48.0752 58.303C48.0752 58.3749 48.0466 58.4438 47.9958 58.4946C47.945 58.5455 47.876 58.574 47.8042 58.574L47.7987 58.5697Z" fill="white"/>
<path d="M47.2567 48.2932L46.7472 48.1068C46.7592 48.0732 47.9852 44.8288 50.807 45.6754C51.49 45.8813 52.0537 45.7545 52.4819 45.3014C53.1681 44.5729 53.3676 43.0726 52.9339 41.8867C52.3919 40.3995 51.3252 39.3827 47.7034 38.9133C46.8166 38.7984 46.125 38.9805 45.6437 39.4553C44.5986 40.4884 44.835 42.5989 44.8382 42.6163L44.2962 42.6803C44.2843 42.5838 44.0252 40.2954 45.2577 39.0716C45.8616 38.4732 46.705 38.2412 47.7662 38.3778C51.6472 38.8808 52.8396 40.071 53.437 41.7035C53.9421 43.0878 53.6993 44.7951 52.8689 45.6754C52.3063 46.2727 51.516 46.458 50.6444 46.1968C49.6753 45.9063 48.8156 46.1588 48.0904 46.948C47.7371 47.345 47.4551 47.8002 47.2567 48.2932Z" fill="white"/>
<path d="M38.7122 45.3906C38.6612 45.3906 38.6114 45.3763 38.5682 45.3493C38.5251 45.3222 38.4904 45.2836 38.4682 45.2378C38.4195 45.137 37.2866 42.7575 37.9782 41.151C38.078 40.918 38.1842 40.6947 38.2861 40.479C38.8585 39.2703 39.2715 38.3977 38.3089 37.1489C37.7669 36.4497 36.8617 36.0844 35.899 35.6985C34.7337 35.2291 33.5282 34.7456 32.816 33.6107C31.4772 31.4773 34.2654 28.3706 34.3846 28.2394C34.4335 28.1886 34.5003 28.1588 34.5708 28.1564C34.6413 28.154 34.7099 28.1792 34.7621 28.2266C34.8144 28.2741 34.846 28.34 34.8504 28.4104C34.8548 28.4808 34.8316 28.5501 34.7857 28.6036C34.7597 28.6329 32.1536 31.537 33.2745 33.3223C33.8935 34.3077 35.0155 34.7586 36.1017 35.1955C37.0882 35.5912 38.1094 36.002 38.7382 36.8215C39.9035 38.3337 39.3561 39.4904 38.7761 40.7142C38.6764 40.931 38.5723 41.1478 38.4758 41.37C37.8818 42.7478 38.9452 44.9841 38.9561 45.0069C38.9758 45.0482 38.9848 45.0937 38.9822 45.1394C38.9796 45.1851 38.9655 45.2294 38.9411 45.2682C38.9168 45.3069 38.883 45.3389 38.843 45.3611C38.8029 45.3832 38.7579 45.3949 38.7122 45.395V45.3906Z" fill="white"/>
<path d="M26.8339 53.4738C26.1759 53.4738 25.6414 53.2949 25.2425 52.9383C24.2061 52.0136 24.4837 50.2694 24.4956 50.1957C24.5074 50.1247 24.5469 50.0612 24.6054 50.0194C24.664 49.9775 24.7368 49.9606 24.8078 49.9724C24.8788 49.9842 24.9422 50.0237 24.9841 50.0823C25.026 50.1408 25.0429 50.2136 25.0311 50.2846C25.0311 50.3052 24.7915 51.812 25.6046 52.5339C26.1228 52.9946 26.9792 53.0564 28.1499 52.7182C28.1847 52.7064 28.2214 52.7018 28.258 52.7046C28.2945 52.7075 28.3301 52.7177 28.3626 52.7347C28.3951 52.7517 28.4238 52.7751 28.447 52.8035C28.4702 52.8319 28.4874 52.8647 28.4975 52.8999C28.5076 52.9352 28.5105 52.9721 28.5059 53.0085C28.5014 53.0449 28.4895 53.08 28.471 53.1116C28.4525 53.1433 28.4277 53.1708 28.3983 53.1926C28.3688 53.2145 28.3352 53.2301 28.2995 53.2385C27.8244 53.3851 27.331 53.4643 26.8339 53.4738Z" fill="white"/>
<path d="M34.0747 50.4191C33.6504 50.4259 33.2336 50.3073 32.8764 50.0783C32.5192 49.8492 32.2377 49.5197 32.067 49.1313C32.0398 49.0647 32.0402 48.9901 32.068 48.9238C32.0959 48.8576 32.1489 48.8051 32.2155 48.7779C32.2821 48.7508 32.3567 48.7511 32.423 48.779C32.4892 48.8068 32.5417 48.8598 32.5689 48.9264C32.5938 48.986 33.1445 50.25 34.7804 49.7665C34.8494 49.7462 34.9236 49.7542 34.9867 49.7887C35.0498 49.8231 35.0967 49.8813 35.117 49.9503C35.1372 50.0193 35.1293 50.0935 35.0948 50.1566C35.0604 50.2197 35.0022 50.2666 34.9332 50.2869C34.6549 50.3719 34.3657 50.4164 34.0747 50.4191Z" fill="white"/>
<path d="M31.2357 66.9158C31.395 65.8318 32.929 63.1001 34.0412 62.9408C35.1534 62.7814 35.3681 60.7272 36.1454 60.3695C36.9226 60.0117 38.5162 61.1369 38.8338 61.7722C39.1515 62.4074 40.7851 63.048 40.7851 63.048C40.7851 63.048 44.5468 64.3142 44.5468 65.7451C44.5468 67.176 45.9778 74.1689 44.2292 76.5527C42.4806 78.9364 41.686 82.1158 34.2147 79.0957C32.9695 77.8376 32.1375 76.2297 31.8297 74.4865C31.3527 71.6258 30.2969 71.5348 30.2969 70.4215C30.2969 69.3082 30.3196 67.3863 31.1143 67.3863L31.2357 66.9158Z" fill="#F6C08B"/>
<path d="M38.804 113.999C38.804 113.999 38.804 113.992 38.804 113.985L37.0977 113.669C37.1042 113.635 37.1117 113.602 37.1204 113.571C38.1698 108.934 39.6289 104.596 40.6978 101.43C41.1824 99.9908 41.5651 98.8537 41.7819 98.0569C42.2805 96.2575 42.6437 92.7236 42.8605 87.555C42.9689 84.9588 43.0372 82.006 43.0643 78.7746V78.2249C43.0643 77.7913 43.0643 77.3675 43.0697 76.9696C43.0697 76.6336 43.0697 76.3149 43.0697 76.0136C43.0697 75.7968 43.0697 75.5962 43.0697 75.4C43.0697 75.1106 43.0697 74.845 43.0697 74.6011C43.0697 73.6645 43.06 73.0499 43.0578 72.8743V72.8125H44.7923V72.8547C44.7923 73.0325 44.801 73.6526 44.8042 74.5892C44.8042 74.8331 44.8042 75.103 44.8042 75.3946C44.8042 75.5886 44.8042 75.7957 44.8042 76.0125C44.8042 76.316 44.8042 76.6369 44.8042 76.9718C44.8042 77.374 44.8042 77.7957 44.7988 78.2358V78.7865C44.7717 82.0385 44.7023 85.0076 44.5928 87.6233C44.376 92.9241 43.9868 96.5892 43.4535 98.5165C43.2204 99.3577 42.8312 100.514 42.3391 101.979C41.2843 105.115 39.8403 109.411 38.8094 113.967L38.804 113.999Z" fill="#4D585E"/>
<path d="M45.1746 74.0722C45.2032 73.4143 44.693 72.8578 44.0351 72.8291C43.3771 72.8005 42.8206 73.3107 42.7919 73.9686L42.6365 77.5425C42.6079 78.2004 43.1181 78.757 43.7761 78.7856C44.434 78.8142 44.9906 78.304 45.0192 77.6461L45.1746 74.0722Z" fill="#75858E"/>
<path d="M38.0977 57.7667C38.0977 57.7667 39.0679 50.2686 44.9272 50.4323C50.7865 50.596 51.0706 57.9196 51.0706 57.9196L38.0977 57.7667Z" fill="#B7D6E5"/>
<path d="M50.8781 66.1275C50.8716 66.2424 50.8607 66.3616 50.8466 66.4841C50.5463 69.0717 50.1864 71.0239 49.613 72.4353C49.3084 73.1865 48.9441 73.7839 48.4942 74.2435C48.1328 74.6157 47.6964 74.9068 47.214 75.0977C46.8583 75.2378 46.487 75.3347 46.1082 75.386C45.78 75.4319 45.4489 75.4547 45.1174 75.4543C45.0003 75.4543 44.8789 75.4543 44.7553 75.4543H44.6653C44.506 75.4478 44.3401 75.4381 44.1721 75.424C44.0973 75.4186 44.0214 75.4109 43.9444 75.4033C43.565 75.3665 43.1632 75.3123 42.739 75.2407L42.6306 75.2223C40.8451 74.9155 39.6819 73.8521 38.9263 72.5123C38.2401 71.2971 37.8921 69.8565 37.723 68.5535C37.5898 67.5018 37.5459 66.4408 37.5919 65.3817C37.607 65.0391 37.6266 64.8397 37.6266 64.8397C37.6266 64.8397 38.3854 64.5145 39.5421 64.1155C40.1773 63.8987 40.9329 63.6516 41.7471 63.425C45.7321 62.3128 51.1372 61.6202 50.8781 66.1275Z" fill="#75858E"/>
<path d="M50.3596 56.6259L39.0614 56.1346C38.3436 56.1034 37.7364 56.66 37.7052 57.3777L37.3897 64.6337C37.3584 65.3515 37.915 65.9586 38.6328 65.9898L49.931 66.4811C50.6488 66.5123 51.2559 65.9558 51.2871 65.2381L51.6027 57.982C51.6339 57.2643 51.0773 56.6571 50.3596 56.6259Z" fill="#526678"/>
<path d="M35.8086 62.9559C35.8086 62.9559 37.9008 70.6588 39.1876 70.4247C40.4744 70.1906 41.3915 68.7987 39.1876 63.1781C36.9837 57.5575 35.8086 62.9559 35.8086 62.9559Z" fill="#F6C08B"/>
<path d="M32.6445 65.7487C32.6445 65.7487 35.3124 72.8891 37.0761 72.1248C38.8399 71.3606 35.0999 63.7617 35.0999 63.7617L32.6445 65.7487Z" fill="#F6C08B"/>
<path d="M49.61 72.4371C49.3054 73.1884 48.9412 73.7856 48.4913 74.2452C48.4836 74.2579 48.4753 74.2703 48.4663 74.2821C48.41 74.3699 48.3525 74.4566 48.294 74.5412C48.0292 74.9295 47.7414 75.3017 47.4321 75.6556C47.3584 75.4734 47.2836 75.2881 47.2153 75.0995L47.1763 74.9975L47.1698 74.9791L47.0939 74.7775C47.0217 74.5795 46.9523 74.3815 46.8858 74.1835C46.8652 74.1184 46.8435 74.0534 46.8229 73.9905C46.811 73.9515 46.798 73.9125 46.786 73.8745C46.6655 73.4938 46.5667 73.1066 46.4901 72.7147C46.1779 71.0334 46.8229 69.816 47.6826 69.8203C47.9536 69.8203 48.2474 69.945 48.5379 70.2127C48.9531 70.5943 49.3152 71.4626 49.61 72.4371Z" fill="#F6C08B"/>
<path d="M69.6078 75.8086L61.6562 78.5511L73.2958 89.2471L79.4749 86.3203L85.5814 90.0287L99.2643 79.7869L92.5074 76.2465L80.1134 84.6455L69.6078 75.8086Z" fill="#526678"/>
<path d="M80.7756 97.4844H79.6915C78.973 97.4844 78.3906 98.0668 78.3906 98.7852V99.8692C78.3906 100.588 78.973 101.17 79.6915 101.17H80.7756C81.494 101.17 82.0764 100.588 82.0764 99.8692V98.7852C82.0764 98.0668 81.494 97.4844 80.7756 97.4844Z" fill="#526678"/>
<path d="M80.6701 107.348H79.586C78.8676 107.348 78.2852 107.93 78.2852 108.648V109.732C78.2852 110.451 78.8676 111.033 79.586 111.033H80.6701C81.3885 111.033 81.971 110.451 81.971 109.732V108.648C81.971 107.93 81.3885 107.348 80.6701 107.348Z" fill="#526678"/>
<path d="M4.24137 85.4513C3.79111 85.4513 3.35097 85.3178 2.9766 85.0677C2.60223 84.8175 2.31044 84.462 2.13813 84.046C1.96583 83.63 1.92075 83.1724 2.00859 82.7308C2.09643 82.2892 2.31325 81.8836 2.63162 81.5652C2.95 81.2468 3.35563 81.03 3.79724 80.9422C4.23884 80.8543 4.69658 80.8994 5.11255 81.0717C5.52853 81.244 5.88408 81.5358 6.13422 81.9102C6.38437 82.2845 6.51789 82.7246 6.51789 83.1749C6.51789 83.7786 6.27804 84.3576 5.85111 84.7845C5.42418 85.2115 4.84514 85.4513 4.24137 85.4513ZM4.24137 81.6573C3.9412 81.6573 3.64777 81.7463 3.39819 81.913C3.14861 82.0798 2.95408 82.3168 2.83921 82.5941C2.72434 82.8714 2.69428 83.1766 2.75284 83.471C2.8114 83.7654 2.95595 84.0357 3.16821 84.248C3.38046 84.4602 3.65088 84.6048 3.94528 84.6633C4.23968 84.7219 4.54483 84.6918 4.82215 84.5769C5.09947 84.4621 5.3365 84.2676 5.50327 84.018C5.67003 83.7684 5.75905 83.475 5.75905 83.1749C5.75905 82.7724 5.59915 82.3864 5.31453 82.1018C5.02991 81.8172 4.64388 81.6573 4.24137 81.6573Z" fill="#8D9CA0"/>
</svg>
