<svg width="123" height="113" viewBox="0 0 123 113" fill="none" xmlns="http://www.w3.org/2000/svg">
<path d="M70.4386 14.6758H1.31975C0.599503 14.6758 0.015625 15.2585 0.015625 15.9774V84.9611C0.015625 85.68 0.599503 86.2627 1.31975 86.2627H70.4386C71.1588 86.2627 71.7427 85.68 71.7427 84.9611V15.9774C71.7427 15.2585 71.1588 14.6758 70.4386 14.6758Z" fill="#E1E7EA"/>
<path d="M70.437 86.2742H1.31826C0.968822 86.2742 0.633683 86.1357 0.386493 85.8892C0.139303 85.6427 0.000288075 85.3083 0 84.9596V15.9758C0.000287802 15.627 0.139268 15.2925 0.386427 15.0458C0.633585 14.7992 0.968722 14.6604 1.31826 14.6602H70.437C70.7864 14.6607 71.1213 14.7996 71.3682 15.0462C71.6151 15.2929 71.7539 15.6272 71.7542 15.9758V84.9596C71.7539 85.3082 71.6151 85.6424 71.3681 85.8888C71.1212 86.1353 70.7863 86.2739 70.437 86.2742ZM1.31826 14.6873C0.975928 14.6876 0.6477 14.8234 0.405636 15.065C0.163573 15.3066 0.0274571 15.6342 0.0271693 15.9758V84.9596C0.0277447 85.3011 0.163989 85.6284 0.406021 85.8697C0.648053 86.1111 0.976116 86.2468 1.31826 86.2471H70.437C70.7791 86.2468 71.107 86.111 71.3489 85.8697C71.5908 85.6283 71.7268 85.301 71.7271 84.9596V15.9758C71.7268 15.6344 71.5908 15.3069 71.349 15.0654C71.1071 14.8238 70.7792 14.6878 70.437 14.6873H1.31826Z" fill="#72788E"/>
<path d="M70.8815 70.1798C70.8815 70.1798 71.0988 77.7724 66.2083 79.2909C61.3179 80.8094 65.3389 89.9205 79.0323 91.222C92.7256 92.5236 98.4855 81.6771 95.7686 80.0502C93.0517 78.4232 92.1236 74.9393 91.6389 72.4576C91.1542 69.9759 70.8815 70.1798 70.8815 70.1798Z" fill="#F7C9B5"/>
<path d="M70.6641 57.8132L70.7727 68.5512L71.2074 79.94C71.2074 79.94 80.445 86.0292 91.1519 79.7556L91.6388 74.5168L91.5301 55.1016L70.6641 57.8132Z" fill="#F7C9B5"/>
<path d="M64.2119 20.0977H6.7846C6.06435 20.0977 5.48047 20.6804 5.48047 21.3992V78.7143C5.48047 79.4332 6.06435 80.0159 6.7846 80.0159H64.2119C64.9321 80.0159 65.516 79.4332 65.516 78.7143V21.3992C65.516 20.6804 64.9321 20.0977 64.2119 20.0977Z" fill="#8588A9"/>
<path d="M64.2105 80.2349H6.7832C6.37968 80.2349 5.99269 80.0749 5.70735 79.7902C5.42202 79.5054 5.26172 79.1191 5.26172 78.7164V21.4013C5.26172 20.9986 5.42202 20.6123 5.70735 20.3276C5.99269 20.0428 6.37968 19.8828 6.7832 19.8828H64.2105C64.614 19.8828 65.001 20.0428 65.2864 20.3276C65.5717 20.6123 65.732 20.9986 65.732 21.4013V78.7164C65.732 79.1191 65.5717 79.5054 65.2864 79.7902C65.001 80.0749 64.614 80.2349 64.2105 80.2349ZM6.7832 20.3167C6.49497 20.3167 6.21855 20.4309 6.01474 20.6344C5.81093 20.8378 5.69643 21.1137 5.69643 21.4013V78.7164C5.69643 79.0041 5.81093 79.28 6.01474 79.4834C6.21855 79.6868 6.49497 79.8011 6.7832 79.8011H64.2105C64.4987 79.8011 64.7752 79.6868 64.979 79.4834C65.1828 79.28 65.2973 79.0041 65.2973 78.7164V21.4013C65.2973 21.1137 65.1828 20.8378 64.979 20.6344C64.7752 20.4309 64.4987 20.3167 64.2105 20.3167H6.7832Z" fill="white"/>
<path d="M70.6641 60.6345L70.7727 65.19C70.7727 65.19 75.6915 71.3519 81.4677 71.1827C87.2439 71.0135 91.5301 64.9731 91.5301 64.9731L91.4214 59.4414L70.6641 60.6345Z" fill="#D3AA9C"/>
<path d="M58.0256 45.6131L58.0191 45.5784C58.0191 45.5784 55.6401 44.7302 54.4512 39.474C53.2623 34.2178 56.1498 34.2178 56.1498 34.2178C56.1498 34.2178 53.9687 28.2663 55.8379 17.4057C57.7072 6.54508 102.218 12.8317 105.786 15.3752C109.354 17.9187 104.57 33.8739 104.57 33.8739C104.57 33.8739 108.307 29.8043 107.458 37.6051C106.608 45.4059 103.21 45.74 103.21 45.74C103.21 45.74 101.091 53.3325 97.6124 57.6983C89.7333 67.5838 85.7112 68.6315 80.4414 68.6315C75.1716 68.6315 66.8502 61.001 66.8502 61.001L66.0895 60.2624C61.9924 56.2954 59.1831 51.1919 58.0256 45.6131Z" fill="#F7C9B5"/>
<path d="M97.1485 33.3253L94.4251 32.8188C93.8274 32.796 85.1691 33.578 85.1875 32.9804L85.2343 31.759C85.2396 31.6167 85.273 31.4767 85.3325 31.3472C85.392 31.2177 85.4765 31.1012 85.5812 31.0043C85.6858 30.9074 85.8086 30.832 85.9424 30.7825C86.0763 30.733 86.2186 30.7102 86.3612 30.7156L96.0726 31.0822C96.2153 31.0875 96.3555 31.1209 96.4853 31.1803C96.615 31.2397 96.7318 31.324 96.8289 31.4285C96.9259 31.5329 97.0015 31.6554 97.0511 31.789C97.1007 31.9226 97.1235 32.0646 97.1181 32.207L97.0714 33.4283L97.1485 33.3253Z" fill="#3A1716"/>
<path d="M71.4387 41.6772C73.2213 41.6772 74.6664 40.2349 74.6664 38.4558C74.6664 36.6767 73.2213 35.2344 71.4387 35.2344C69.656 35.2344 68.2109 36.6767 68.2109 38.4558C68.2109 40.2349 69.656 41.6772 71.4387 41.6772Z" fill="#411E13"/>
<path d="M90.9777 41.6772C92.7603 41.6772 94.2054 40.2349 94.2054 38.4558C94.2054 36.6767 92.7603 35.2344 90.9777 35.2344C89.1951 35.2344 87.75 36.6767 87.75 38.4558C87.75 40.2349 89.1951 41.6772 90.9777 41.6772Z" fill="#411E13"/>
<path d="M71.1016 49.7656H90.4907C90.4907 49.7656 89.1105 59.8225 80.4457 59.3105C71.7808 58.7986 71.1016 49.7656 71.1016 49.7656Z" fill="white"/>
<path d="M76.1754 27.2114C77.3263 27.3546 86.2606 25.8643 92.6944 27.3199C102.748 29.5976 105.255 43.6981 105.566 40.4995C106.092 35.0762 109.276 32.6357 107.605 20.8575C107.062 17.0027 106.735 13.265 105.214 11.2041C100.714 5.10948 92.026 -0.142396 85.0076 0.0029467C73.39 0.244824 58.3067 4.94461 55.9907 13.5611C53.5998 22.4552 55.5267 31.4415 55.2615 32.8028C55.0192 34.0414 57.2014 43.2501 57.2014 43.2501C57.2014 43.2501 59.8183 39.7999 59.8183 35.7769C59.8183 33.3343 60.1194 31.46 61.6267 28.8145C63.7914 25.0436 66.9984 21.9747 70.8643 19.9746L76.1754 27.2114Z" fill="#561716"/>
<path d="M65.3438 33.0679L68.0857 32.6645C68.6834 32.6645 77.3048 33.7697 77.3048 33.1732V31.9518C77.3048 31.6642 77.1903 31.3883 76.9865 31.1849C76.7827 30.9815 76.5063 30.8672 76.218 30.8672H66.5033C66.2151 30.8672 65.9387 30.9815 65.7349 31.1849C65.5311 31.3883 65.4166 31.6642 65.4166 31.9518V33.1764L65.3438 33.0679Z" fill="#3A1716"/>
<path d="M64.5837 80.0332C64.5837 80.0332 70.6805 87.3644 81.8101 86.9078C92.9398 86.4511 95.6578 78.4258 95.6578 78.4258C95.6578 78.4258 100.983 93.177 100.874 101.854C100.766 110.531 100.122 114.002 100.122 114.002H67.0843C67.0843 114.002 64.2652 91.0739 64.5837 80.0332Z" fill="white"/>
<path d="M32.2344 113.832C32.7017 111.998 36.9238 95.6532 38.8963 91.6031C39.3799 90.6074 41.2513 89.206 43.8422 87.642C44.7779 87.0758 45.8093 86.489 46.9015 85.8924C51.5626 83.3446 57.3551 80.6167 61.8153 78.5971C65.87 76.7608 81.1033 87.3318 81.1033 87.3318L81.538 88.6756L84.1887 96.9439L85.8036 101.983L80.8849 113.132L67.0209 113.38L47.7481 113.723L40.5754 113.85L38.053 113.896L32.2344 113.832Z" fill="#526678"/>
<path d="M50.1748 58.6666C49.7461 58.6614 49.3284 58.5299 48.9744 58.2884C48.6204 58.0469 48.3459 57.7064 48.1854 57.3095C48.0249 56.9127 47.9855 56.4774 48.0723 56.0583C48.1591 55.6393 48.3682 55.2552 48.6732 54.9544C48.9781 54.6536 49.3655 54.4496 49.7864 54.3679C50.2073 54.2863 50.6429 54.3308 51.0386 54.4957C51.4342 54.6606 51.7722 54.9387 52.0099 55.2948C52.2476 55.651 52.3744 56.0693 52.3745 56.4973C52.3707 57.076 52.1369 57.6295 51.7245 58.0363C51.312 58.443 50.7547 58.6697 50.1748 58.6666ZM50.1748 54.8703C49.8536 54.8754 49.541 54.9752 49.2764 55.1571C49.0117 55.3389 48.8069 55.5948 48.6875 55.8925C48.5681 56.1902 48.5395 56.5165 48.6053 56.8303C48.6711 57.1442 48.8284 57.4317 49.0574 57.6566C49.2864 57.8815 49.5768 58.0339 49.8923 58.0946C50.2078 58.1553 50.5343 58.1216 50.8306 57.9978C51.127 57.8739 51.38 57.6654 51.558 57.3984C51.736 57.1314 51.831 56.8179 51.8311 56.4973C51.8273 56.0624 51.6508 55.6468 51.3403 55.3417C51.0297 55.0367 50.6105 54.8671 50.1748 54.8703Z" fill="white"/>
<path d="M95.6483 78.4531C95.6483 78.4531 121.393 87.3115 123.503 91.6034C125.614 95.8954 130.284 114 130.284 114L78.5859 113.162L80.3248 97.9768L79.6727 86.3711L95.6483 78.4531Z" fill="#526678"/>
<path d="M69.784 75.8516L61.8125 78.5957L73.4812 89.298L79.6758 86.3694L85.7976 90.08L99.5148 79.8322L92.741 76.2898L80.3159 84.6936L69.784 75.8516Z" fill="white"/>
<path d="M21.8114 63.1926C20.4837 63.1854 19.159 63.0638 17.8523 62.8292C15.3125 62.3888 13.528 61.161 12.551 59.1935C11.2469 56.5632 11.3827 52.6856 12.9466 47.6658C13.6755 45.3535 14.5873 43.1027 15.6733 40.9344L16.1558 41.185C16.0939 41.3021 10.0699 52.9621 13.039 58.9537C13.9334 60.7608 15.5853 61.8823 17.9457 62.2956C22.7743 63.1329 26.6725 62.4897 29.5329 60.3822C31.8488 58.675 32.9737 56.3907 33.5094 54.7746C33.5574 54.6206 33.6514 54.4848 33.7788 54.3856C33.9063 54.2864 34.061 54.2283 34.2224 54.2192C34.3833 54.2057 34.5445 54.2409 34.6851 54.3203C34.8256 54.3996 34.9389 54.5194 35.0103 54.6639C35.809 56.2454 37.2751 58.4602 39.7182 60.0091C42.7329 61.9235 46.4083 62.2945 50.6435 61.1133C53.0985 60.4278 54.7113 59.0807 55.434 57.1098C57.7315 50.8482 50.5566 40.1817 50.4838 40.0743L50.9337 39.7695C52.2357 41.7606 53.374 43.8535 54.3374 46.028C56.4121 50.7549 56.9533 54.5457 55.9448 57.2964C55.158 59.4408 53.4235 60.9007 50.7891 61.635C49.2507 62.081 47.6582 62.3145 46.0562 62.3292C39.1357 62.3292 35.7688 57.3702 34.5245 54.908C34.5008 54.8598 34.4632 54.8199 34.4165 54.7934C34.3698 54.7669 34.3161 54.755 34.2626 54.7594C34.2101 54.7629 34.1599 54.7821 34.1184 54.8144C34.077 54.8466 34.0462 54.8906 34.03 54.9405C33.1432 57.6066 30.2785 63.1915 21.8114 63.1926Z" fill="white"/>
<path d="M80.9769 97.543H79.8901C79.1698 97.543 78.5859 98.1257 78.5859 98.8445V99.9292C78.5859 100.648 79.1698 101.231 79.8901 101.231H80.9769C81.6971 101.231 82.281 100.648 82.281 99.9292V98.8445C82.281 98.1257 81.6971 97.543 80.9769 97.543Z" fill="white"/>
<path d="M59.0019 92.8307C60.0886 90.0106 68.0221 84.4789 63.5663 74.7171C60.9722 69.0346 65.429 65.7991 66.0659 60.2912C69.4088 64.2242 62.5339 56.1142 62.4795 55.9526C61.0667 54.0002 59.7626 51.2886 58.7845 48.6855C58.7323 48.577 58.1248 46.5888 58.0238 45.6484C56.8087 45.7493 56.0545 47.0173 55.6872 47.8514C55.4514 48.3914 55.1624 48.9066 54.8243 49.3894C52.8159 52.2442 46.5431 61.9713 49.7165 68.0096C53.4593 75.1509 56.8283 80.9907 57.1 86.2599C57.3717 91.5291 52.7529 99.9265 56.8283 102.267C56.8283 102.267 57.9151 95.6508 59.0019 92.8307Z" fill="#561716"/>
<path d="M80.8675 107.414H79.7807C79.0604 107.414 78.4766 107.997 78.4766 108.716V109.8C78.4766 110.519 79.0604 111.102 79.7807 111.102H80.8675C81.5877 111.102 82.1716 110.519 82.1716 109.8V108.716C82.1716 107.997 81.5877 107.414 80.8675 107.414Z" fill="white"/>
<path d="M4.25098 85.5008C3.7996 85.5008 3.35835 85.3673 2.98304 85.117C2.60773 84.8667 2.31521 84.5109 2.14247 84.0947C1.96974 83.6785 1.92454 83.2206 2.0126 82.7787C2.10066 82.3369 2.31803 81.931 2.6372 81.6125C2.95638 81.2939 3.36303 81.077 3.80573 80.9891C4.24844 80.9012 4.70732 80.9463 5.12434 81.1187C5.54137 81.2911 5.89781 81.583 6.14858 81.9576C6.39935 82.3322 6.5332 82.7726 6.5332 83.2231C6.5332 83.8272 6.29276 84.4065 5.86475 84.8337C5.43675 85.2609 4.85626 85.5008 4.25098 85.5008ZM4.25098 81.7046C3.95006 81.7046 3.65589 81.7936 3.40568 81.9605C3.15548 82.1273 2.96047 82.3645 2.84531 82.642C2.73015 82.9194 2.70002 83.2248 2.75873 83.5193C2.81743 83.8139 2.96234 84.0845 3.17512 84.2968C3.38791 84.5092 3.65901 84.6538 3.95415 84.7124C4.24929 84.771 4.55521 84.7409 4.83322 84.626C5.11124 84.5111 5.34886 84.3164 5.51604 84.0667C5.68323 83.817 5.77246 83.5234 5.77246 83.2231C5.77246 82.8203 5.61216 82.4341 5.32683 82.1493C5.04149 81.8646 4.6545 81.7046 4.25098 81.7046Z" fill="#8D9CA0"/>
<path d="M100.709 93.9163C99.6224 91.0962 91.689 85.5645 96.1447 75.8026C98.7378 70.1201 93.3322 68.7264 92.6953 63.2207C94.2168 61.7022 96.8794 58.8268 96.9337 58.6651C98.3465 56.7128 99.542 55.4112 100.52 52.808C101.172 51.2895 103.02 46.6255 103.237 45.7578C104.08 45.8272 104.028 47.8631 104.196 48.3979C104.591 49.6453 105.153 50.8339 105.866 51.9316C108.379 55.8201 112.752 63.8487 109.996 69.0973C106.25 76.2386 102.881 82.0784 102.606 87.3476C102.331 92.6169 106.953 101.014 102.877 103.355C102.883 103.353 101.796 96.7364 100.709 93.9163Z" fill="#561716"/>
<path d="M17.1657 59.2097C16.7359 59.2097 16.3156 59.0825 15.9582 58.8441C15.6007 58.6057 15.3222 58.267 15.1576 57.8706C14.9931 57.4742 14.9501 57.038 15.034 56.6172C15.1178 56.1964 15.3248 55.8099 15.6288 55.5065C15.9328 55.2031 16.3201 54.9965 16.7417 54.9128C17.1633 54.8291 17.6004 54.872 17.9975 55.0362C18.3947 55.2004 18.7341 55.4785 18.973 55.8352C19.2118 56.1919 19.3393 56.6114 19.3393 57.0404C19.3393 57.6157 19.1103 58.1675 18.7027 58.5743C18.2951 58.9812 17.7422 59.2097 17.1657 59.2097ZM17.1657 55.4134C16.8433 55.4134 16.5281 55.5088 16.2601 55.6876C15.992 55.8664 15.783 56.1205 15.6597 56.4178C15.5363 56.7151 15.504 57.0422 15.5669 57.3578C15.6298 57.6734 15.7851 57.9633 16.013 58.1909C16.241 58.4184 16.5315 58.5733 16.8477 58.6361C17.1639 58.6989 17.4917 58.6667 17.7896 58.5435C18.0874 58.4204 18.342 58.2119 18.5212 57.9443C18.7003 57.6767 18.7959 57.3622 18.7959 57.0404C18.7959 56.6089 18.6242 56.1951 18.3184 55.89C18.0127 55.5848 17.5981 55.4134 17.1657 55.4134Z" fill="white"/>
<path d="M109.106 105.957H94.6518C93.9315 105.957 93.3477 106.54 93.3477 107.259V107.584C93.3477 108.303 93.9315 108.886 94.6518 108.886H109.106C109.826 108.886 110.41 108.303 110.41 107.584V107.259C110.41 106.54 109.826 105.957 109.106 105.957Z" fill="white"/>
</svg>
