<svg width="123" height="113" viewBox="0 0 123 113" fill="none" xmlns="http://www.w3.org/2000/svg">
<path d="M67.9107 13.0703H23.0117V83.7204H67.9107V13.0703Z" fill="#E1E7EA"/>
<path d="M67.9222 83.732H23V13.0586H67.9222V83.732ZM23.0233 83.7087H67.8989V13.0819H23.0233V83.7087Z" fill="#72788E"/>
<path d="M33.0625 37.6328H37.8491V38.5945H34.2097V41.5516H37.5728V42.5016H34.2097V46.5271H33.0625V37.6328Z" fill="#595959"/>
<path d="M46.2253 37.6328V41.3545H50.5252V37.6328H51.6888V46.5281H50.5252V42.3551H46.2253V46.5281H45.0781V37.6328H46.2253Z" fill="#595959"/>
<path d="M70.6551 58.7186L70.3516 65.5458V78.3463C70.3516 78.3463 80.5096 83.7508 90.0596 78.1376L92.0301 73.2853L91.1205 55.5781L70.6551 58.7186Z" fill="#AF7D6D"/>
<path d="M70.5078 59.1749V62.096C70.5078 62.096 76.2681 68.5807 81.4222 68.4293C86.5764 68.2779 91.428 62.2086 91.428 62.2086V57.9453L70.5078 59.1749Z" fill="#846056"/>
<path d="M63.2315 54.3171C62.0183 52.9517 60.5026 45.5179 60.5026 45.5179C60.5026 45.5179 58.3809 44.76 57.319 40.0561C56.2571 35.3522 58.8357 35.3532 58.8357 35.3532C58.8357 35.3532 57.4712 24.8857 59.1382 15.1674C60.8052 5.44917 100.525 11.0759 103.708 13.3517C106.892 15.6274 102.04 35.0465 102.04 35.0465C102.04 35.0465 105.375 31.4053 104.618 38.384C103.861 45.3626 100.828 45.6625 100.828 45.6625C100.216 48.5963 99.4063 51.4852 98.404 54.3094C96.737 59.0122 85.2155 66.1433 80.5161 66.1433C75.8168 66.1433 68.3876 59.316 68.3876 59.316L63.2315 54.3171Z" fill="#AF7D6D"/>
<path d="M75.2047 113.487L39.303 113.516C39.303 113.516 35.9089 108.761 35.2117 102.676C34.5387 96.8001 38.3643 90.5843 39.4271 88.1523C39.8781 87.1197 41.515 85.7038 43.8123 84.1142C52.3218 78.2244 69.8983 69.9453 69.8983 69.9453L75.2047 113.487Z" fill="#8898A8"/>
<path d="M92.3494 69.9414C92.3494 69.9414 120.698 83.2922 122.821 88.1474C124.943 93.0027 129.643 113.482 129.643 113.482H87.0469L92.3494 69.9414Z" fill="#8898A8"/>
<path d="M76.3109 31.3842L67.6483 31.7975C67.1134 31.8231 66.7004 32.2778 66.7259 32.8131L66.7779 33.9056C66.8034 34.441 67.2578 34.8543 67.7928 34.8288L76.4553 34.4154C76.9902 34.3899 77.4032 33.9352 77.3777 33.3998L77.3257 32.3073C77.3002 31.7719 76.8458 31.3586 76.3109 31.3842Z" fill="#411E13"/>
<path d="M94.3407 32.1046L85.7286 31.083C85.1968 31.0199 84.7145 31.4002 84.6515 31.9325L84.5228 33.0186C84.4598 33.5508 84.8398 34.0335 85.3717 34.0965L93.9838 35.1181C94.5156 35.1812 94.9979 34.8009 95.0609 34.2687L95.1896 33.1825C95.2526 32.6503 94.8726 32.1677 94.3407 32.1046Z" fill="#411E13"/>
<path d="M72.4778 42.0302C74.0684 42.0302 75.3579 40.7398 75.3579 39.1479C75.3579 37.5561 74.0684 36.2656 72.4778 36.2656C70.8871 36.2656 69.5977 37.5561 69.5977 39.1479C69.5977 40.7398 70.8871 42.0302 72.4778 42.0302Z" fill="#411E13"/>
<path d="M89.9114 42.0302C91.502 42.0302 92.7915 40.7398 92.7915 39.1479C92.7915 37.5561 91.502 36.2656 89.9114 36.2656C88.3207 36.2656 87.0312 37.5561 87.0312 39.1479C87.0312 40.7398 88.3207 42.0302 89.9114 42.0302Z" fill="#411E13"/>
<path d="M72.1797 49.2695H89.4818C89.4818 49.2695 88.2492 58.2668 80.5185 57.8097C72.7877 57.3526 72.1797 49.2695 72.1797 49.2695Z" fill="white"/>
<path d="M70.3365 67.0312L80.9765 79.954L91.5738 67.0312L93.8527 71.2848L89.6265 113.614H70.8097L67.7773 71.2848L70.3365 67.0312Z" fill="#EDEDED"/>
<path d="M63.6057 104.633L56.9524 113.514L35.1332 113.999C33.1511 112.076 34.6639 111.165 33.3877 106.236C32.127 101.373 34.6619 97.0977 32.6885 92.7315C31.4472 89.9822 31.0273 87.1436 31.0273 87.1436L39.788 82.168C39.788 82.168 40.7577 82.8473 42.0717 84.9823C47.0542 93.0731 64.5163 98.9571 63.6057 104.633Z" fill="#8898A8"/>
<path d="M29.347 74.2872V73.0382L28.418 71.3438H28.8495L29.2646 72.156C29.378 72.3793 29.4653 72.5578 29.5555 72.7636H29.5642C29.6476 72.5695 29.7475 72.3754 29.8609 72.156L30.2847 71.3438H30.7163L29.73 73.0343V74.2872H29.347Z" fill="#595959"/>
<path d="M37.2662 72.7827C37.2662 73.7959 36.6505 74.3354 35.8999 74.3354C35.1241 74.3354 34.5781 73.7328 34.5781 72.8419C34.5781 71.9073 35.16 71.2969 35.9435 71.2969C36.7474 71.2978 37.2662 71.9093 37.2662 72.7827ZM34.9835 72.8302C34.9835 73.4591 35.3239 74.023 35.9222 74.023C36.5205 74.023 36.8648 73.4678 36.8648 72.8001C36.8648 72.2179 36.5593 71.6035 35.9261 71.6035C35.2928 71.6035 34.9844 72.1839 34.9844 72.8302H34.9835Z" fill="#595959"/>
<path d="M42.9912 72.9072H41.8431V73.9679H43.1173V74.2872H41.4688V71.3438H43.0572V71.663H41.8431V72.5928H42.9912V72.9072Z" fill="#595959"/>
<path d="M47.2561 73.8218C47.4611 73.9459 47.6954 74.0129 47.935 74.0159C48.3228 74.0159 48.5498 73.8102 48.5498 73.5132C48.5498 73.2385 48.3927 73.0813 47.996 72.9309C47.516 72.7601 47.2203 72.5107 47.2203 72.0963C47.2203 71.6382 47.5994 71.2976 48.1716 71.2976C48.3968 71.2901 48.6202 71.3395 48.8213 71.4412L48.7166 71.7518C48.5449 71.6593 48.3529 71.6113 48.158 71.612C47.7565 71.612 47.6043 71.8517 47.6043 72.0526C47.6043 72.3282 47.7827 72.4632 48.1861 72.6204C48.6836 72.8145 48.9367 73.0522 48.9367 73.485C48.9367 73.9392 48.6002 74.3323 47.9068 74.3323C47.6446 74.3354 47.386 74.2706 47.1562 74.144L47.2561 73.8218Z" fill="#595959"/>
<path d="M52.9609 74.064L54.593 71.6757V71.663H53.1006V71.3438H55.0856V71.5747L53.4633 73.9553V73.9679H55.1118V74.2872H52.9609V74.064Z" fill="#595959"/>
<path d="M24.3409 80.1216C23.8802 79.2598 23.5282 76.4746 24.2439 75.7681C24.9595 75.0616 24.6803 73.6214 25.0497 72.9537C25.4192 72.286 26.5043 72.091 27.0687 72.3792C27.6331 72.6674 29.8015 74.4055 29.8015 74.4055C29.8015 74.4055 33.3071 71.9202 34.0683 72.9498C34.8296 73.9795 38.8035 77.4916 38.8142 80.1381C38.8249 82.7846 39.9459 85.4961 32.9667 87.3002C31.4009 87.0583 29.9461 86.3439 28.7968 85.2525C26.931 83.4474 26.1232 83.9443 25.5317 83.1436C24.9401 82.343 23.9316 80.9436 24.5028 80.5234L24.3409 80.1216Z" fill="#AF7D6D"/>
<path d="M27.6526 74.1022C27.6526 74.1022 29.3661 67.1653 28.2587 66.7888C27.1512 66.4122 25.8295 67.1012 25.108 72.4582C24.3865 77.8152 27.6526 74.1022 27.6526 74.1022Z" fill="#AF7D6D"/>
<path d="M59.3174 41.9912H61.6303C61.6303 41.9912 59.8847 34.8981 61.1609 32.6281C62.4371 30.3582 63.0034 28.0893 63.0034 26.5287C63.0034 24.9682 63.9955 22.9817 67.2557 23.9745C70.516 24.9673 77.6038 24.5422 83.8383 21.2795C90.0727 18.0168 93.3359 17.1657 95.4625 19.2939C95.4625 19.2939 94.4695 20.7554 95.4625 23.0787C96.4556 25.402 99.4317 26.5326 99.2891 34.7603C99.1466 42.9879 99.295 41.9951 99.295 41.9951L102.107 42.033C102.107 42.033 105.667 19.4395 104.532 15.609C103.396 11.7786 101.271 9.22529 98.4358 10.7858C98.4358 10.7858 98.2942 0.429931 80.4335 5.11147C62.5729 9.79301 52.9327 0.00390625 52.9327 0.00390625C52.9327 0.00390625 50.5229 12.7714 56.3355 17.0279C56.3355 17.0279 57.7901 17.6325 56.992 21.0184C56.1939 24.4044 57.4749 38.4451 59.3174 41.9912Z" fill="#411E13"/>
<path d="M112.714 96.1406H99.816C99.1733 96.1406 98.6523 96.662 98.6523 97.3052V97.5963C98.6523 98.2395 99.1733 98.7609 99.816 98.7609H112.714C113.356 98.7609 113.877 98.2395 113.877 97.5963V97.3052C113.877 96.662 113.356 96.1406 112.714 96.1406Z" fill="white"/>
<path d="M70.3372 67.0312C70.3372 67.0312 67.7586 69.6515 67.7189 71.3013C67.6791 72.9511 78.7739 86.1495 78.7739 86.1495L80.9771 79.954L83.2007 86.1495C83.2007 86.1495 93.7079 74.5699 93.8533 71.2858C93.9988 68.0017 91.5744 67.0312 91.5744 67.0312L80.9267 79.0486L70.3372 67.0312Z" fill="#C9C9C9"/>
<path d="M80.8142 91.9426C81.4494 91.9426 81.9643 91.4273 81.9643 90.7916C81.9643 90.1559 81.4494 89.6406 80.8142 89.6406C80.179 89.6406 79.6641 90.1559 79.6641 90.7916C79.6641 91.4273 80.179 91.9426 80.8142 91.9426Z" fill="#C9C9C9"/>
<path d="M80.7946 97.6965C81.4298 97.6965 81.9448 97.1812 81.9448 96.5455C81.9448 95.9098 81.4298 95.3945 80.7946 95.3945C80.1595 95.3945 79.6445 95.9098 79.6445 96.5455C79.6445 97.1812 80.1595 97.6965 80.7946 97.6965Z" fill="#C9C9C9"/>
<path d="M25.4037 82.5377C25.2675 82.534 25.1339 82.5002 25.0123 82.4386C24.8908 82.3771 24.7845 82.2892 24.701 82.1816C24.6175 82.0739 24.5589 81.9489 24.5295 81.8158C24.5001 81.6828 24.5006 81.5448 24.5309 81.4119C25.9409 75.2426 32.8784 45.031 33.5708 44.9844C34.2632 44.9378 27.4751 76.5149 26.3298 81.8118C26.2843 82.0222 26.1666 82.2101 25.997 82.3427C25.8275 82.4754 25.6168 82.5443 25.4017 82.5377H25.4037Z" fill="#44627A"/>
<path d="M34.0502 72.956C34.0502 72.956 31.5163 68.9771 30.1131 68.5142C28.7099 68.0513 28.2153 69.6622 29.3664 71.312C30.5174 72.9618 33.1668 75.0445 33.1668 75.0445L34.0502 72.956Z" fill="#AF7D6D"/>
<path d="M46.4556 26.7185H41.1957V31.6H47.0617V33.0634H39.4492V19.5273H46.7562V20.9937H41.1957V25.2725H46.4556V26.7185Z" fill="#595959"/>
<path d="M30.172 86.7309C30.172 86.7309 31.8545 88.2923 34.0665 88.1866C37.255 88.0332 39.1518 86.4727 39.8093 82.1861L38.8851 81.0391C38.8851 81.0391 38.7736 85.2819 35.8867 86.2971C32.9998 87.3122 30.0547 86.2262 30.0547 86.2262L30.172 86.7309Z" fill="#778691"/>
<path d="M33.921 53.9462H31.6343V56.0686H34.1828V56.7062H30.875V50.8203H34.0519V51.4569H31.6343V53.3173H33.921V53.9462Z" fill="#595959"/>
<path d="M39.629 51.4657H37.8398V50.8203H42.1949V51.4657H40.397V56.7062H39.629V51.4657Z" fill="#595959"/>
<path d="M46.5508 50.891C47.0316 50.8129 47.5182 50.775 48.0054 50.7775C48.7559 50.7775 49.3058 50.9521 49.6539 51.2627C49.9768 51.5422 50.1679 51.9702 50.1679 52.4942C50.1679 53.0183 50.0118 53.4462 49.715 53.7558C49.3135 54.1838 48.659 54.4021 47.9171 54.4021C47.7121 54.4087 47.5071 54.3911 47.3062 54.3498V56.708H46.5469L46.5508 50.891ZM47.3101 53.7296C47.5162 53.776 47.7273 53.7966 47.9384 53.7908C48.8549 53.7908 49.4134 53.3453 49.4134 52.5292C49.4134 51.7528 48.8636 51.3762 48.0257 51.3762C47.7856 51.3696 47.5456 51.3901 47.3101 51.4374V53.7296Z" fill="#595959"/>
<path d="M29.5379 62.1788H28.2656V61.7188H31.362V62.1788H30.0887V65.9044H29.5428L29.5379 62.1788Z" fill="#595959"/>
<path d="M37.9457 63.9421H36.3175V65.4512H38.129V65.9044H35.7773V61.7188H38.0359V62.1749H36.3175V63.4976H37.9457V63.9421Z" fill="#595959"/>
<path d="M42.7812 61.7188H43.3214V65.4512H45.1086V65.9044H42.7812V61.7188Z" fill="#595959"/>
<path d="M53.23 63.7699C53.23 65.211 52.3572 65.9748 51.2905 65.9748C50.1859 65.9748 49.4102 65.1179 49.4102 63.8504C49.4102 62.5219 50.2354 61.6523 51.3496 61.6523C52.493 61.6523 53.23 62.5277 53.23 63.7699ZM49.9842 63.8378C49.9842 64.7326 50.4691 65.5332 51.3186 65.5332C52.1681 65.5332 52.6588 64.7452 52.6588 63.7942C52.6588 62.9625 52.2243 62.0929 51.3244 62.0929C50.4245 62.0929 49.9842 62.9188 49.9842 63.8378Z" fill="#595959"/>
</svg>
