<svg width="130" height="114" viewBox="0 0 130 114" fill="none" xmlns="http://www.w3.org/2000/svg">
<g clip-path="url(#clip0_4521_35066)">
<path d="M67.9421 13.072H23.0098V83.7216H67.9421V13.072Z" fill="#E1E7EA"/>
<path d="M67.9517 83.7314H23V13.0625H67.9517V83.7314ZM23.0194 83.712H67.9323V13.0819H23.0194V83.712Z" fill="#72788E"/>
<path d="M33.0635 37.6345H37.8576V38.5953H34.2183V41.5552H37.5858V42.5062H34.2183V46.5336H33.0732V37.6345H33.0635Z" fill="#595959"/>
<path d="M46.2423 37.6345V41.3513H50.5415V37.6248H51.706V46.5239H50.5415V42.3509H46.2423V46.5239H45.0972V37.6248H46.2423V37.6345Z" fill="#595959"/>
<path d="M70.6885 58.713L70.3877 65.5353V78.3357C70.3877 78.3357 80.5484 83.7411 90.1075 78.1319L92.0775 73.2796L91.175 55.5784L70.6885 58.713Z" fill="#AF7D6D"/>
<path d="M70.543 59.1691V62.0901C70.543 62.0901 76.3075 68.5728 81.4704 68.4272C86.6332 68.2817 91.4855 62.2066 91.4855 62.2066V57.9463L70.543 59.1691Z" fill="#846056"/>
<path d="M63.2547 54.3167C62.0417 52.9483 60.5277 45.5146 60.5277 45.5146C60.5277 45.5146 58.4024 44.7577 57.3446 40.0509C56.2868 35.3442 58.8585 35.3442 58.8585 35.3442C58.8585 35.3442 57.4902 24.8729 59.1594 15.1586C60.8286 5.4443 100.579 11.0633 103.762 13.3438C106.945 15.6244 102.093 35.0336 102.093 35.0336C102.093 35.0336 105.431 31.3944 104.674 38.372C103.917 45.3496 100.88 45.6505 100.88 45.6505C100.267 48.5843 99.4565 51.4731 98.4534 54.2973C96.7842 59.004 85.2551 66.1272 80.5483 66.1272C75.8416 66.1272 68.4079 59.3049 68.4079 59.3049L63.2547 54.3167Z" fill="#AF7D6D"/>
<path d="M75.2401 113.486L39.3136 113.515C39.3136 113.515 35.917 108.76 35.2183 102.675C34.5487 96.7938 38.3723 90.5829 39.4398 88.147C39.8862 87.1183 41.5263 85.7015 43.8263 84.1099C52.3469 78.2192 69.9317 69.9412 69.9317 69.9412L75.2401 113.486Z" fill="#8898A8"/>
<path d="M92.3978 69.9412C92.3978 69.9412 120.764 83.2947 122.89 88.147C125.015 92.9993 129.712 113.486 129.712 113.486H87.0894L92.3978 69.9412Z" fill="#8898A8"/>
<path d="M76.5212 34.4028L67.8549 34.8201C67.7274 34.8267 67.5999 34.808 67.4797 34.7652C67.3594 34.7223 67.2488 34.6562 67.1541 34.5706C67.0595 34.4849 66.9827 34.3815 66.9281 34.2661C66.8734 34.1507 66.8421 34.0257 66.8359 33.8982L66.7874 32.8016C66.7809 32.6741 66.7995 32.5466 66.8424 32.4263C66.8852 32.3061 66.9513 32.1955 67.037 32.1008C67.1226 32.0061 67.2261 31.9293 67.3415 31.8747C67.4568 31.8201 67.5819 31.7888 67.7093 31.7826L76.3756 31.3653C76.5031 31.3588 76.6306 31.3774 76.7508 31.4203C76.8711 31.4631 76.9817 31.5292 77.0764 31.6148C77.171 31.7005 77.2478 31.804 77.3025 31.9193C77.3571 32.0347 77.3884 32.1597 77.3946 32.2872L77.4431 33.3838C77.4535 33.6406 77.3627 33.8911 77.1903 34.0817C77.0179 34.2722 76.7777 34.3875 76.5212 34.4028Z" fill="#411E13"/>
<path d="M94.0476 35.1113L85.4299 34.0924C85.3031 34.0779 85.1803 34.0385 85.0686 33.9765C84.957 33.9145 84.8587 33.8311 84.7793 33.731C84.7 33.631 84.6412 33.5162 84.6063 33.3934C84.5714 33.2705 84.5611 33.142 84.5759 33.0152L84.7021 31.9282C84.7166 31.8013 84.7559 31.6786 84.8179 31.5669C84.8799 31.4553 84.9633 31.357 85.0634 31.2776C85.1635 31.1983 85.2782 31.1395 85.4011 31.1046C85.5239 31.0697 85.6525 31.0594 85.7793 31.0742L94.397 32.0932C94.5239 32.1077 94.6467 32.147 94.7583 32.209C94.8699 32.271 94.9683 32.3545 95.0476 32.4545C95.1269 32.5546 95.1857 32.6694 95.2206 32.7922C95.2555 32.9151 95.2659 33.0436 95.251 33.1704L95.1248 34.2573C95.0942 34.513 94.9638 34.7461 94.762 34.9061C94.5603 35.066 94.3035 35.1398 94.0476 35.1113Z" fill="#411E13"/>
<path d="M72.5131 42.0306C74.105 42.0306 75.3954 40.7402 75.3954 39.1484C75.3954 37.5565 74.105 36.2661 72.5131 36.2661C70.9213 36.2661 69.6309 37.5565 69.6309 39.1484C69.6309 40.7402 70.9213 42.0306 72.5131 42.0306Z" fill="#411E13"/>
<path d="M89.9619 42.0306C91.5537 42.0306 92.8441 40.7402 92.8441 39.1484C92.8441 37.5565 91.5537 36.2661 89.9619 36.2661C88.37 36.2661 87.0796 37.5565 87.0796 39.1484C87.0796 40.7402 88.37 42.0306 89.9619 42.0306Z" fill="#411E13"/>
<path d="M72.2119 49.2605H89.525C89.525 49.2605 88.2925 58.2567 80.5579 57.8005C72.8233 57.3444 72.2119 49.2605 72.2119 49.2605Z" fill="white"/>
<path d="M70.3682 67.0298L81.0141 79.9466L91.6213 67.0298L93.9018 71.2804L89.6706 113.612H70.8437L67.8062 71.2804L70.3682 67.0298Z" fill="#EDEDED"/>
<path d="M63.6334 104.635L56.9761 113.515L35.1407 114C33.161 112.079 34.6749 111.166 33.3939 106.236C32.1323 101.374 34.6652 97.0946 32.6951 92.7373C31.4529 89.9909 31.0356 87.1474 31.0356 87.1474L39.7989 82.1689C39.7989 82.1689 40.7694 82.8483 42.0795 84.9833C47.0677 93.0769 64.5457 98.9482 63.6334 104.635Z" fill="#8898A8"/>
<path d="M29.3467 74.2889V73.037L28.4248 71.3386H28.8615L29.2788 72.1538C29.3953 72.377 29.4826 72.5517 29.5699 72.7652H29.5797C29.667 72.5711 29.764 72.377 29.8805 72.1538L30.3075 71.3386H30.7442L29.7543 73.0273V74.2792H29.3467V74.2889Z" fill="#595959"/>
<path d="M37.2756 72.7845C37.2756 73.7938 36.6642 74.3372 35.9072 74.3372C35.1309 74.3372 34.5874 73.7355 34.5874 72.8427C34.5874 71.9111 35.1697 71.2997 35.9558 71.2997C36.7612 71.29 37.2756 71.9111 37.2756 72.7845ZM34.995 72.833C34.995 73.4638 35.3347 74.0267 35.9364 74.0267C36.538 74.0267 36.8777 73.4735 36.8777 72.8039C36.8777 72.2216 36.5769 71.6102 35.9364 71.6102C35.2958 71.6102 34.995 72.1828 34.995 72.833Z" fill="#595959"/>
<path d="M43.0011 72.9011H41.856V73.9589H43.1273V74.2792H41.4678V71.3386H43.0593V71.6589H41.8463V72.5905H42.9914V72.9011H43.0011Z" fill="#595959"/>
<path d="M47.2713 73.823C47.4762 73.9476 47.7109 74.0146 47.9506 74.017C48.3388 74.017 48.562 73.8133 48.562 73.5124C48.562 73.2407 48.4067 73.0757 48.0089 72.9301C47.5236 72.7554 47.2325 72.5128 47.2325 72.0955C47.2325 71.6394 47.611 71.2997 48.1835 71.2997C48.4093 71.2902 48.6336 71.3404 48.8337 71.4453L48.727 71.7559C48.5528 71.6665 48.3599 71.6199 48.1641 71.62C47.7662 71.62 47.611 71.8626 47.611 72.0567C47.611 72.3284 47.7856 72.4643 48.1932 72.6196C48.6882 72.8137 48.9405 73.0563 48.9405 73.4833C48.9405 73.9394 48.6008 74.3276 47.9118 74.3276C47.6514 74.328 47.3949 74.2647 47.1646 74.1432L47.2713 73.823Z" fill="#595959"/>
<path d="M52.9775 74.0657L54.6079 71.6783V71.6686H53.1134V71.3386H55.1028V71.5715L53.4822 73.9492V73.9589H55.132V74.2792H52.9872V74.0657H52.9775Z" fill="#595959"/>
<path d="M59.3437 41.9918H61.6534C61.6534 41.9918 59.9065 34.8978 61.1875 32.6269C62.4685 30.356 63.0314 28.0851 63.0314 26.5227C63.0314 24.9602 64.0213 22.9805 67.2917 23.9704C70.5622 24.9602 77.6465 24.5332 83.8866 21.2725C90.1267 18.0117 93.3874 17.1577 95.5224 19.2831C95.5224 19.2831 94.5326 20.7484 95.5224 23.0678C96.5123 25.3872 99.4916 26.5227 99.3558 34.7522C99.2199 42.9817 99.3655 41.9918 99.3655 41.9918L102.18 42.0306C102.18 42.0306 105.741 19.4383 104.606 15.605C103.471 11.7717 101.345 9.21937 98.5018 10.7818C98.5018 10.7818 98.3562 0.427002 80.49 5.10462C62.6238 9.78224 52.958 0 52.958 0C52.958 0 50.5416 12.7713 56.3643 17.0219C56.3643 17.0219 57.82 17.6236 57.0243 21.0105C56.2285 24.3974 57.4998 38.4399 59.3437 41.9918Z" fill="#411E13"/>
<path d="M112.777 98.7638H99.8701C99.5613 98.7638 99.2651 98.6411 99.0467 98.4227C98.8283 98.2043 98.7056 97.9081 98.7056 97.5992V97.3081C98.7056 96.9992 98.8283 96.703 99.0467 96.4846C99.2651 96.2663 99.5613 96.1436 99.8701 96.1436H112.777C113.086 96.1436 113.382 96.2663 113.601 96.4846C113.819 96.703 113.942 96.9992 113.942 97.3081V97.5992C113.942 97.9081 113.819 98.2043 113.601 98.4227C113.382 98.6411 113.086 98.7638 112.777 98.7638Z" fill="white"/>
<path d="M70.3684 67.0298C70.3684 67.0298 67.787 69.65 67.7481 71.2998C67.7093 72.9496 78.8114 86.1479 78.8114 86.1479L81.0143 79.9563L83.2367 86.1479C83.2367 86.1479 93.7565 74.5703 93.902 71.2804C94.0476 67.9905 91.6215 67.0298 91.6215 67.0298L80.9658 79.0441L70.3684 67.0298Z" fill="#C9C9C9"/>
<path d="M80.8492 91.9415C81.487 91.9415 82.004 91.4245 82.004 90.7867C82.004 90.1489 81.487 89.6318 80.8492 89.6318C80.2114 89.6318 79.6943 90.1489 79.6943 90.7867C79.6943 91.4245 80.2114 91.9415 80.8492 91.9415Z" fill="#C9C9C9"/>
<path d="M80.8394 97.6962C81.4772 97.6962 81.9943 97.1791 81.9943 96.5413C81.9943 95.9035 81.4772 95.3865 80.8394 95.3865C80.2016 95.3865 79.6846 95.9035 79.6846 96.5413C79.6846 97.1791 80.2016 97.6962 80.8394 97.6962Z" fill="#C9C9C9"/>
<path d="M46.4656 26.7167H41.2058V31.5982H47.0673V33.0636H39.4492V19.5256H46.7568V20.991H41.196V25.2708H46.4559V26.7167H46.4656Z" fill="#595959"/>
<path d="M30.1717 86.7301C30.1717 86.7301 31.8603 88.2925 34.0729 88.1858C37.2658 88.0305 39.1582 86.4681 39.8181 82.1883L38.8961 81.0432C38.8961 81.0432 38.7894 85.2841 35.8974 86.3031C33.0054 87.3221 30.0649 86.2352 30.0649 86.2352L30.1717 86.7301Z" fill="#778691"/>
<path d="M33.9276 53.9479H31.6373V56.0732H34.1896V56.7137H30.8804V50.823H34.0635V51.4635H31.6373V53.3268H33.9276V53.9479Z" fill="#595959"/>
<path d="M39.6436 51.4634H37.8579V50.8132H42.2153V51.4634H40.4199V56.7039H39.6436V51.4634Z" fill="#595959"/>
<path d="M46.563 50.8909C47.0443 50.813 47.5311 50.774 48.0187 50.7744C48.7659 50.7744 49.3191 50.9491 49.6685 51.2596C49.8381 51.4158 49.9718 51.6068 50.0606 51.8196C50.1494 52.0323 50.1911 52.2618 50.1828 52.4921C50.1828 53.0259 50.0275 53.4432 49.7267 53.7537C49.3288 54.1807 48.6689 54.404 47.9313 54.404C47.7264 54.4091 47.5215 54.3928 47.3199 54.3554V56.7137H46.563V50.8909ZM47.3297 53.7246C47.5364 53.7723 47.7485 53.7919 47.9605 53.7829C48.8727 53.7829 49.4356 53.3364 49.4356 52.5213C49.4356 51.7449 48.8824 51.3664 48.0478 51.3664C47.8071 51.3626 47.5666 51.3821 47.3297 51.4246V53.7246Z" fill="#595959"/>
<path d="M29.5408 62.1773H28.2695V61.7212H31.3653V62.1773H30.094V65.9039H29.5505V62.1773H29.5408Z" fill="#595959"/>
<path d="M37.9546 63.9436H36.3242V65.4575H38.139V65.9136H35.7808V61.731H38.0419V62.1871H36.3242V63.5069H37.9546V63.9436Z" fill="#595959"/>
<path d="M42.7876 61.7212H43.3311V65.4575H45.1167V65.9136H42.7876V61.7212Z" fill="#595959"/>
<path d="M53.2494 63.7689C53.2494 65.2052 52.376 65.9719 51.3085 65.9719C50.2022 65.9719 49.4258 65.1178 49.4258 63.8465C49.4258 62.517 50.2507 61.6436 51.3667 61.6436C52.5118 61.6533 53.2494 62.5267 53.2494 63.7689ZM49.9984 63.8368C49.9984 64.7297 50.4836 65.5351 51.3376 65.5351C52.1916 65.5351 52.6768 64.7491 52.6768 63.798C52.6768 62.9634 52.2401 62.0997 51.3376 62.0997C50.4351 62.0997 49.9984 62.9149 49.9984 63.8368Z" fill="#595959"/>
<path d="M26.6686 75.2301C26.8141 74.2596 28.1825 71.8141 29.1821 71.6685C30.1816 71.523 30.366 69.6888 31.0648 69.3685C31.7635 69.0483 33.1901 70.0576 33.4715 70.6204C33.7529 71.1833 35.2183 71.7656 35.2183 71.7656C35.2183 71.7656 38.5858 72.901 38.5858 74.182C38.5858 75.463 39.8668 81.7225 38.3044 83.8575C36.742 85.9925 36.0238 88.8359 29.3373 86.1381C28.2221 85.0129 27.4771 83.5738 27.2023 82.0136C26.7753 79.4516 25.834 79.374 25.834 78.3744C25.834 77.3748 25.8534 75.6571 26.5618 75.6571L26.6686 75.2301Z" fill="#AF7D6D"/>
<path d="M32.1807 81.7613C31.4431 81.5866 30.8608 80.8782 30.9773 80.2765C32.2001 73.7841 38.2266 41.9919 39.1001 42.1181C39.9929 42.2539 34.2672 75.5989 33.2967 81.1888C33.2094 81.6546 32.7435 81.8972 32.1807 81.7613Z" fill="#44627A"/>
<path d="M30.3174 71.7268C30.3174 71.7268 32.7823 78.3745 33.7625 78.0445C34.7427 77.7146 35.3152 76.3948 32.9861 71.6007C30.657 66.8066 30.3174 71.7268 30.3174 71.7268Z" fill="#AF7D6D"/>
<path d="M28.0171 73.9005C28.0171 73.9005 30.8023 79.8009 32.5103 79.5971C34.2183 79.3933 30.6373 72.833 30.6373 72.833L28.0171 73.9005Z" fill="#AF7D6D"/>
<path d="M38.4984 73.7745C38.4984 73.7745 36.1693 69.6694 34.7815 69.1357C33.3938 68.6019 32.8309 70.1838 33.8984 71.8918C34.9659 73.5998 37.5085 75.8124 37.5085 75.8124L38.4984 73.7745Z" fill="#AF7D6D"/>
</g>
<defs>
<clipPath id="clip0_4521_35066">
<rect width="106.712" height="114" fill="white" transform="translate(23)"/>
</clipPath>
</defs>
</svg>
