<svg width="123" height="113" viewBox="0 0 123 113" fill="none" xmlns="http://www.w3.org/2000/svg">
<path d="M67.7455 15H1.25455C0.561679 15 0 15.5617 0 16.2545V82.7455C0 83.4383 0.561679 84 1.25455 84H67.7455C68.4383 84 69 83.4383 69 82.7455V16.2545C69 15.5617 68.4383 15 67.7455 15Z" fill="#E1E7EA"/>
<path d="M67.7344 84H1.26768C0.931637 83.9994 0.60952 83.8657 0.371904 83.6281C0.134288 83.3905 0.000552696 83.0684 0 82.7323L0 16.2666C0.000276759 15.9308 0.133814 15.6088 0.371293 15.3713C0.608772 15.1338 0.930784 15.0003 1.26663 15H67.7334C68.0692 15.0003 68.3912 15.1338 68.6287 15.3713C68.8662 15.6088 68.9997 15.9308 69 16.2666V82.7323C68.9997 83.0681 68.8664 83.3901 68.6291 83.6277C68.3919 83.8653 68.0702 83.9992 67.7344 84ZM1.26768 15.0261C0.938577 15.0261 0.622943 15.1568 0.390137 15.3894C0.157332 15.622 0.0264039 15.9375 0.0261269 16.2666V82.7323C0.0266786 83.0613 0.157518 83.3766 0.390008 83.6093C0.622498 83.8419 0.937702 83.973 1.26663 83.9739H67.7334C68.0626 83.9736 68.3782 83.8427 68.611 83.6099C68.8438 83.3772 68.9746 83.0615 68.9749 82.7323V16.2666C68.9746 15.9377 68.8439 15.6223 68.6113 15.3898C68.3787 15.1572 68.0633 15.0264 67.7344 15.0261H1.26768Z" fill="#72788E"/>
<path d="M62.7184 20H6.28163C5.57381 20 5 20.5544 5 21.2382V75.7618C5 76.4456 5.57381 77 6.28163 77H62.7184C63.4262 77 64 76.4456 64 75.7618V21.2382C64 20.5544 63.4262 20 62.7184 20Z" fill="#8588A9"/>
<path d="M62.5155 77H6.48449C6.09078 77 5.71319 76.8462 5.4348 76.5726C5.1564 76.2989 5 75.9277 5 75.5407V20.4593C5 20.0723 5.1564 19.7011 5.4348 19.4274C5.71319 19.1537 6.09078 19 6.48449 19H62.5155C62.9092 19 63.2868 19.1537 63.5652 19.4274C63.8436 19.7011 64 20.0723 64 20.4593V75.5407C64 75.9277 63.8436 76.2989 63.5652 76.5726C63.2868 76.8462 62.9092 77 62.5155 77ZM6.48449 19.417C6.20327 19.417 5.93356 19.5268 5.73471 19.7223C5.53586 19.9177 5.42414 20.1829 5.42414 20.4593V75.5407C5.42414 75.8171 5.53586 76.0823 5.73471 76.2777C5.93356 76.4732 6.20327 76.583 6.48449 76.583H62.5155C62.7967 76.583 63.0664 76.4732 63.2653 76.2777C63.4641 76.0823 63.5759 75.8171 63.5759 75.5407V20.4593C63.5759 20.1829 63.4641 19.9177 63.2653 19.7223C63.0664 19.5268 62.7967 19.417 62.5155 19.417H6.48449Z" fill="white"/>
<path d="M21.5192 62C20.2737 61.9926 19.0311 61.8732 17.8052 61.6431C15.4216 61.2106 13.7475 60.0089 12.832 58.0722C11.6086 55.4888 11.7361 51.6804 13.2031 46.7501C13.8872 44.4792 14.7425 42.2685 15.7611 40.1388L16.2127 40.3849C16.1556 40.5 10.5035 51.9531 13.2898 57.8368C14.1288 59.6116 15.6775 60.7131 17.8928 61.119C22.4225 61.9425 26.0794 61.3097 28.7628 59.2398C30.9353 57.563 31.9905 55.3195 32.4921 53.7321C32.5396 53.583 32.6284 53.4518 32.7472 53.3553C32.8659 53.2587 33.0094 53.2011 33.1595 53.1897C33.3096 53.1783 33.4595 53.2137 33.5904 53.2912C33.7213 53.3688 33.8273 53.4852 33.895 53.6256C34.6453 55.1799 36.0206 57.3542 38.3125 58.8755C41.1406 60.7578 44.5875 61.1222 48.5635 59.9663C50.8676 59.293 52.3795 57.971 53.0585 56.0343C55.2107 49.88 48.4799 39.4059 48.4116 39.2994L48.8327 39C50.0558 40.9548 51.125 43.0102 52.0299 45.1458C53.9761 49.7884 54.4838 53.5116 53.5377 56.2132C52.7996 58.3194 51.1725 59.7533 48.7012 60.4745C47.2576 60.9111 45.764 61.1405 44.2612 61.1563C37.7691 61.1563 34.6106 56.2846 33.4433 53.8664C33.421 53.8191 33.3857 53.78 33.3419 53.754C33.2981 53.728 33.2478 53.7163 33.1976 53.7204C33.1483 53.7235 33.101 53.7421 33.062 53.7739C33.023 53.8056 32.9942 53.8491 32.9794 53.8983C32.1496 56.5137 29.4622 61.9989 21.5192 62Z" fill="white"/>
<path d="M4 83C3.60444 83 3.21776 82.8534 2.88886 82.5787C2.55996 82.304 2.30362 81.9135 2.15224 81.4567C2.00087 80.9999 1.96126 80.4972 2.03843 80.0123C2.1156 79.5273 2.30608 79.0819 2.58579 78.7322C2.86549 78.3826 3.22186 78.1445 3.60982 78.048C3.99778 77.9516 4.39991 78.0011 4.76537 78.1903C5.13082 78.3795 5.44318 78.7 5.66294 79.1111C5.8827 79.5222 6 80.0055 6 80.5C6 81.163 5.78929 81.7989 5.41421 82.2678C5.03914 82.7366 4.53043 83 4 83ZM4 78.8333C3.73629 78.8333 3.47851 78.9311 3.25924 79.1142C3.03997 79.2973 2.86908 79.5576 2.76816 79.8622C2.66724 80.1667 2.64084 80.5018 2.69229 80.8252C2.74373 81.1485 2.87072 81.4454 3.05719 81.6785C3.24366 81.9116 3.48124 82.0703 3.73988 82.1346C3.99852 82.1989 4.26661 82.1659 4.51025 82.0398C4.75388 81.9136 4.96212 81.7 5.10863 81.4259C5.25513 81.1519 5.33333 80.8296 5.33333 80.5C5.33333 80.058 5.19286 79.634 4.94281 79.3215C4.69276 79.0089 4.35362 78.8333 4 78.8333Z" fill="#8D9CA0"/>
<path d="M17 58C16.6044 58 16.2178 57.8534 15.8889 57.5787C15.56 57.304 15.3036 56.9135 15.1522 56.4567C15.0009 55.9999 14.9613 55.4972 15.0384 55.0123C15.1156 54.5273 15.3061 54.0819 15.5858 53.7322C15.8655 53.3826 16.2219 53.1445 16.6098 53.048C16.9978 52.9516 17.3999 53.0011 17.7654 53.1903C18.1308 53.3795 18.4432 53.7 18.6629 54.1111C18.8827 54.5222 19 55.0055 19 55.5C19 55.8283 18.9483 56.1534 18.8478 56.4567C18.7473 56.76 18.5999 57.0356 18.4142 57.2678C18.2285 57.4999 18.008 57.6841 17.7654 57.8097C17.5227 57.9353 17.2626 58 17 58ZM17 53.625C16.7033 53.625 16.4133 53.735 16.1666 53.941C15.92 54.147 15.7277 54.4399 15.6142 54.7825C15.5006 55.1251 15.4709 55.5021 15.5288 55.8658C15.5867 56.2295 15.7296 56.5636 15.9393 56.8258C16.1491 57.0881 16.4164 57.2666 16.7074 57.339C16.9983 57.4113 17.2999 57.3742 17.574 57.2323C17.8481 57.0904 18.0824 56.85 18.2472 56.5417C18.412 56.2334 18.5 55.8708 18.5 55.5C18.5 55.0027 18.342 54.5258 18.0607 54.1742C17.7794 53.8225 17.3978 53.625 17 53.625Z" fill="white"/>
<path d="M116 91C116 91 115.881 49.3348 109.006 22.863C104.304 4.75429 98.6141 7.06492 82.6356 3.15715C66.9234 -0.685085 61.0869 4.7025 53.7289 24.4231C44.3202 49.6434 47.5269 91 47.5269 91H116Z" fill="#804828"/>
<path d="M73.4193 71.004C73.4193 71.004 73.6285 78.5412 68.9222 80.0486C64.2159 81.556 68.0855 90.6006 81.2632 91.8927C94.4409 93.1847 99.9839 82.4174 97.3693 80.8023C94.7547 79.1872 93.8615 75.7287 93.3951 73.2652C92.9286 70.8016 73.4193 71.004 73.4193 71.004Z" fill="#F7BB9E"/>
<path d="M73 58.7619L73.1088 69.6991L73.544 81.2991C73.544 81.2991 82.7927 87.5002 93.5125 81.1102L94 75.7753L93.8912 56L73 58.7619Z" fill="#F7BB9E"/>
<path opacity="0.77" d="M73 62.1176L73.1042 66.3846C73.1042 66.3846 77.8188 72.1563 83.3552 71.9968C88.8917 71.8372 93 66.1814 93 66.1814L92.8958 61L73 62.1176Z" fill="#F08A73"/>
<path d="M61.6918 47.9406C61.6924 47.9291 61.6899 47.9176 61.6846 47.9073C61.6846 47.9073 59.4135 47.0964 58.2754 42.0585C57.1373 37.0206 59.8949 37.0195 59.8949 37.0195C59.8949 37.0195 57.8106 31.3131 59.592 20.9098C61.3733 10.5064 103.868 16.5039 107.275 18.9418C110.682 21.3797 106.122 36.6723 106.122 36.6723C106.122 36.6723 109.688 32.7706 108.881 40.2465C108.074 47.7223 104.827 48.0508 104.827 48.0508C104.827 48.0508 102.807 55.328 99.4876 59.5145C91.972 68.9916 88.1323 69.9969 83.1046 70C78.0769 70.0031 70.1256 62.6926 70.1256 62.6926L69.3994 61.9857C65.4841 58.1834 62.7989 53.2903 61.6918 47.9406Z" fill="#F7BB9E"/>
<path d="M97.6754 37.9172L95.3572 36.5921C94.8251 36.3921 86.8245 34.6118 87.0029 34.0119L87.3669 32.7844C87.4527 32.4955 87.6367 32.2568 87.8785 32.1209C88.1203 31.9849 88.4001 31.9627 88.6565 32.0592L97.3033 35.3175C97.5598 35.414 97.7717 35.6214 97.8925 35.894C98.0133 36.1667 98.0332 36.4823 97.9476 36.7714L97.5847 38L97.6754 37.9172Z" fill="#804828"/>
<path d="M74 44C75.6569 44 77 42.6569 77 41C77 39.3431 75.6569 38 74 38C72.3431 38 71 39.3431 71 41C71 42.6569 72.3431 44 74 44Z" fill="#602A1F"/>
<path d="M93 44C94.6569 44 96 42.6569 96 41C96 39.3431 94.6569 38 93 38C91.3431 38 90 39.3431 90 41C90 42.6569 91.3431 44 93 44Z" fill="#602A1F"/>
<path d="M73 51H92C92 51 90.6475 61.5145 82.1565 60.9803C73.6656 60.4461 73 51 73 51Z" fill="white"/>
<path d="M68.2827 37.9123L70.6239 36.5988C71.1581 36.4065 79.1578 34.8251 78.9976 34.1835L78.6703 32.87C78.6323 32.7167 78.5695 32.574 78.4856 32.4499C78.4017 32.3258 78.2982 32.2227 78.1811 32.1466C78.0641 32.0706 77.9357 32.0229 77.8032 32.0065C77.6708 31.99 77.537 32.005 77.4094 32.0507L68.7256 35.1745C68.468 35.2661 68.2513 35.4769 68.123 35.7604C67.9947 36.0439 67.9654 36.377 68.0415 36.6865L68.3689 38L68.2827 37.9123Z" fill="#804828"/>
<path d="M68.0235 80.5814C68.0235 80.5814 73.7313 87.7927 84.1507 87.3445C94.5702 86.8963 97.1148 79 97.1148 79C97.1148 79 102.1 93.5122 101.998 102.049C101.897 110.585 101.294 114 101.294 114H70.3646C70.3646 114 67.7254 91.4495 68.0235 80.5814Z" fill="white"/>
<path d="M37 113.937C37.4481 112.129 41.4653 96.0198 43.3384 92.0293C43.7989 91.048 45.5809 89.6668 48.0479 88.1254C48.9389 87.5674 49.921 86.9891 50.961 86.4011C55.3994 83.8901 60.9151 81.2016 65.158 79.2112C69.019 77.4014 83.5243 87.8197 83.5243 87.8197L83.9383 89.1441L86.4622 97.2929L88 102.259L83.3163 113.247L70.1149 113.491L51.763 113.83L44.9331 113.955L42.5312 114L37 113.937Z" fill="#A3D0D1"/>
<path d="M98.172 79C98.172 79 122.574 87.722 124.573 91.9479C126.573 96.1737 131 114 131 114L82 113.174L83.6481 98.2231L83.0301 86.7961L98.172 79Z" fill="#BBE0E3"/>
<path d="M35.2841 113.961C35.2841 113.961 33.7961 92.8605 37.6306 79.1569C38.2423 77.0439 39.0736 75.0123 40.1086 73.101L47.2437 73C47.2437 73 57.065 108.302 51.0503 114L35.2841 113.961Z" fill="#BBE0E3"/>
<path d="M38.225 77.4984L37 81.297C37 81.297 40.6103 86.7591 50 82.1542L48.6044 77L38.225 77.4984Z" fill="#526678"/>
<path d="M52.4265 75.2268L52.4033 75.2568C52.3508 75.3284 52.2973 75.3991 52.2428 75.4681C51.9943 75.7846 51.7246 76.088 51.4352 76.3767C50.7931 77.0316 50.0352 77.5921 49.1902 78.0367C49.1266 78.0694 49.064 78.1012 49.0014 78.1312C48.4939 78.3793 47.9571 78.5785 47.4005 78.7252C47.3086 78.7491 47.2178 78.772 47.1289 78.7915C45.8792 79.0779 45 78.9859 45 78.9859C45 78.9859 45.8489 78.3434 46.9937 77.5205C47.3671 77.2553 47.7719 76.9636 48.1898 76.6719L48.4927 76.4651C48.6158 76.3785 48.7397 76.2933 48.8642 76.2096L48.9742 76.1354L49.2992 75.9144L49.7474 75.6157C50.1239 75.3691 50.4914 75.1348 50.8356 74.9245C51.2697 74.6593 51.6674 74.4366 52.0005 74.2748C53.015 73.7789 53.4248 73.8744 52.4265 75.2268Z" fill="#F7BB9E"/>
<path d="M35.8813 68.6041C36.0321 67.5217 37.4828 64.7952 38.5364 64.6361C39.5901 64.4769 39.7912 62.4258 40.5278 62.0686C41.2644 61.7114 42.7715 62.8339 43.0721 63.4692C43.3727 64.1046 44.9188 64.7421 44.9188 64.7421C44.9188 64.7421 48.4789 66.0074 48.4789 67.4351C48.4789 68.8628 49.8321 75.8464 48.1773 78.2276C46.5224 80.6089 45.7735 83.7825 38.7088 80.7691C37.5303 79.5128 36.743 77.9073 36.4517 76.1668C36.0003 73.3093 35 73.2194 35 72.1078C35 70.9962 35.0226 69.0771 35.7746 69.0771L35.8813 68.6041Z" fill="#F7BB9E"/>
<path d="M42.7704 114V113.986L41 113.678C41.0068 113.646 41.0146 113.615 41.0225 113.584C42.1131 109.081 43.628 104.868 44.7366 101.795C45.2397 100.398 45.637 99.2937 45.8621 98.52C46.3799 96.7726 46.7558 93.3411 46.9809 88.3221C47.0934 85.7958 47.1654 82.9337 47.1936 79.7958V79.2632C47.1936 78.8421 47.1936 78.4305 47.1992 78.0442V75.7432C47.1992 74.8337 47.1891 74.2368 47.1868 74.0653V74H48.9876V74.0411C48.9876 74.2137 48.9966 74.8147 49 75.7253V78.0411C49 78.4326 49 78.8421 48.9944 79.2695V79.8042C48.9662 82.9621 48.8942 85.8453 48.7805 88.3853C48.5554 93.5326 48.1514 97.0916 47.5976 98.9621C47.3557 99.78 46.9516 100.902 46.4406 102.324C45.3455 105.371 43.852 109.542 42.776 113.965L42.7704 114Z" fill="#4D585E"/>
<path d="M47.653 74.001C47.8378 74.0067 48.0192 74.0382 48.1868 74.0937C48.3544 74.1493 48.505 74.2277 48.63 74.3246C48.755 74.4215 48.8518 74.5349 48.9151 74.6584C48.9783 74.7818 49.0067 74.913 48.9987 75.0442L48.8156 78.0458C48.7983 78.3104 48.634 78.5594 48.3587 78.7381C48.0834 78.9168 47.7196 79.0106 47.347 78.999C47.1622 78.9933 46.9808 78.9618 46.8132 78.9063C46.6456 78.8507 46.495 78.7723 46.37 78.6754C46.245 78.5785 46.1482 78.4651 46.0849 78.3416C46.0217 78.2182 45.9933 78.087 46.0013 77.9558L46.1844 74.9542C46.2017 74.6896 46.366 74.4406 46.6413 74.2619C46.9166 74.0832 47.2804 73.9894 47.653 74.001Z" fill="#75858E"/>
<path d="M42 59.8356C42 59.8356 42.8978 51.8291 48.32 52.0028C53.7422 52.1764 54 60 54 60L42 59.8356Z" fill="#B7D6E5"/>
<path d="M53.9918 67.2951C53.986 67.4023 53.9762 67.5136 53.9635 67.6279C53.6929 70.0429 53.3686 71.8651 52.8518 73.1823C52.5773 73.8835 52.249 74.4409 51.8436 74.8699C51.5179 75.2173 51.1246 75.489 50.6899 75.6671C50.3692 75.7975 50.0347 75.8878 49.6934 75.9363C49.3975 75.9787 49.0992 76 48.8005 76H48.3931C48.2495 75.9939 48.1001 75.9848 47.9486 75.9717C47.8812 75.9717 47.8128 75.9595 47.7435 75.9525C47.4016 75.9181 47.0394 75.8675 46.6571 75.8007L46.5595 75.7835C44.9505 75.4972 43.9022 74.5047 43.2213 73.2542C42.6029 72.12 42.2893 70.7754 42.1369 69.5593C42.0157 68.5769 41.9749 67.5856 42.0148 66.596C42.0285 66.2763 42.0461 66.0901 42.0461 66.0901C42.0461 66.0901 42.7299 65.7866 43.7723 65.4143C44.3448 65.2119 45.0257 64.9813 45.7594 64.7698C49.3544 63.7348 54.2263 63.0883 53.9918 67.2951Z" fill="#75858E"/>
<path d="M41.789 59.1152L41.4843 66.1237C41.4541 66.8169 41.9917 67.4033 42.6849 67.4335L53.5972 67.908C54.2905 67.9382 54.8769 67.4006 54.907 66.7074L55.2118 59.6989C55.242 59.0057 54.7044 58.4192 54.0111 58.3891L43.0989 57.9145C42.4056 57.8844 41.8192 58.4219 41.789 59.1152Z" fill="#526678"/>
<path d="M40 65.1422C40 65.1422 42.2218 72.21 43.5871 71.9952C44.9524 71.7804 45.9275 70.5033 43.5871 65.3461C41.2467 60.189 40 65.1422 40 65.1422Z" fill="#F7BB9E"/>
<path d="M53 73.6907C52.7149 74.4631 52.374 75.0773 51.9529 75.5499L51.9296 75.5878C51.8768 75.6781 51.823 75.7672 51.7682 75.8542C51.5185 76.2534 51.2474 76.636 50.9565 77C50.8875 76.8127 50.8175 76.6222 50.7536 76.4282L50.7171 76.3234L50.711 76.3045L50.64 76.0972C50.572 75.8921 50.5071 75.6892 50.4452 75.4864C50.4259 75.4195 50.4056 75.3526 50.3863 75.2879C50.3752 75.2478 50.363 75.2077 50.3518 75.1687C50.2394 74.7771 50.1469 74.3789 50.0748 73.976C49.7826 72.2473 50.3863 70.9956 51.1909 71C51.4446 71 51.7195 71.1282 51.9915 71.4035C52.3851 71.7958 52.724 72.6887 53 73.6907Z" fill="#F7BB9E"/>
<path d="M72.6105 77L65 79.6999L76.1408 90.2295L82.0557 87.3482L87.9011 91L101 80.9165L94.531 77.4311L82.6669 85.6994L72.6105 77Z" fill="#526678"/>
<path d="M83.9412 98H83.0588C82.4741 98 82 98.4741 82 99.0588V99.9412C82 100.526 82.4741 101 83.0588 101H83.9412C84.5259 101 85 100.526 85 99.9412V99.0588C85 98.4741 84.5259 98 83.9412 98Z" fill="#526678"/>
<path d="M83.9412 108H83.0588C82.4741 108 82 108.474 82 109.059V109.941C82 110.526 82.4741 111 83.0588 111H83.9412C84.5259 111 85 110.526 85 109.941V109.059C85 108.474 84.5259 108 83.9412 108Z" fill="#526678"/>
<path d="M53.2339 40.8675C51.033 16.1582 64.6625 -1.00753 81.492 0.0459469C98.3216 1.09942 103.638 6.2995 108.795 22.9858C113.953 39.6721 100.833 50.2321 101.668 47.5984C103.896 40.5605 102.692 32.8939 98.309 31.1875C91.8941 28.6916 87.9321 27.2481 83.8441 25.3598C77.8291 22.5831 71.2348 18.6825 71.2348 18.6825C71.2348 18.6825 59.6341 28.8146 61.3868 40.4049C61.3868 40.4049 58.5824 39.3535 58.2319 31.975C58.2319 31.975 51.8317 30.6818 53.2339 40.8675Z" fill="#804828"/>
</svg>
