<?xml version="1.0" encoding="utf-8"?>
<!-- Generator: Adobe Illustrator 26.5.0, SVG Export Plug-In . SVG Version: 6.00 Build 0)  -->
<svg version="1.1" id="Layer_1" xmlns="http://www.w3.org/2000/svg" xmlns:xlink="http://www.w3.org/1999/xlink" x="0px" y="0px"
	 width="1024px" height="1024px" viewBox="0 0 1024 1024" enable-background="new 0 0 1024 1024" xml:space="preserve">
<path fill="#F6C0A4" d="M706.6182,296.6173c0,0,81.4474-204.8943-193.5695-204.8943S304.8806,299.4365,304.8806,299.4365
	s-23.9633,0-14.0961,43.6978c9.8672,43.6978,29.6017,50.7458,29.6017,50.7458s14.096,69.0707,25.3729,81.7571l47.9266,46.517
	c0,0,7.9441,7.2935,20.1409,16.9311l-1.8161,40.8628v118.9337c0,0,94.4436,50.219,183.2488-1.9364l18.3249-45.1074l-5.6539-109.9658
	c30.9794-21.0567,57.695-46.0503,64.8573-66.235c15.5057-43.6978,22.5537-80.3475,22.5537-80.3475s28.1921-2.8192,35.2401-67.6611
	S706.6182,296.6173,706.6182,296.6173z"/>
<path fill="#ED9C82" d="M506.4542,585.5865c-29.0493,0-69.3047-28.0287-93.034-46.8231v9.1213c0,0,53.5651,60.2554,101.4916,58.8458
	s93.034-57.7938,93.034-57.7938v-7.075C571.8546,566.3957,529.9707,585.5865,506.4542,585.5865z"/>
<path fill="#FFFFFF" d="M428.9259,428.6903h160.8727c0,0-11.4545,83.5967-83.3444,79.3679
	C434.5643,503.8294,428.9259,428.6903,428.9259,428.6903z"/>
<path fill="#EDEDED" d="M963.3182,1025.3835c0,0-43.6978-190.2968-63.4323-235.4042
	c-17.4557-39.8989-225.7017-141.5555-273.562-164.5004l-17.0179-31.7404l-98.5341,120.0728l-98.937-120.0728l-20.9083,34.744
	c-58.4406,28.218-249.775,122.918-266.4754,161.0904c-19.7345,45.1074-63.4323,235.4041-63.4323,235.4041L963.3182,1025.3835z"/>
<path fill="#411E13" d="M509.442,13.2755c-203.783,0-234.4406,153.2881-204.1714,295.26c0.9959,4.671,3.9952,9.5128,9.4054,9.5128
	c10.8203,0,12.3835-8.4139,12.3835-15.5546c0-83.6318,8.3555-132.3233,182.3826-132.3233s182.3826,48.6915,182.3826,132.3233
	c0,7.1407,1.5632,15.5546,12.3835,15.5546c5.4102,0,8.4095-4.8418,9.4054-9.5128C743.8826,166.5637,713.225,13.2755,509.442,13.2755
	z"/>
<ellipse transform="matrix(0.9991 -0.0433 0.0433 0.9991 -13.9627 18.855)" fill="#411E13" cx="428.6845" cy="332.0513" rx="26.7825" ry="24.8232"/>
<path fill="#C4C6C6" d="M411.8348,593.7385c0,0-23.9749,24.3517-24.3458,39.6746
	c-0.3709,15.3228,102.7932,137.9593,102.7932,137.9593l20.4896-57.5611l20.6726,57.5611c0,0,97.7062-107.5936,99.0551-138.1053
	c1.3489-30.5117-21.1935-39.5286-21.1935-39.5286l-99.01,111.6561L411.8348,593.7385z"/>
<circle fill="#C4C6C6" cx="509.2565" cy="814.5249" r="10.6915"/>
<circle fill="#C4C6C6" cx="509.0891" cy="867.9825" r="10.6915"/>
<path fill="#411E13" d="M478.2224,278.4955l-1.7613-10.0044c-0.8599-4.8842-5.5595-8.1768-10.4438-7.317l-79.4172,13.9815
	c-4.8842,0.8599-8.1768,5.5596-7.317,10.4438l1.7613,10.0044C420.1742,280.1772,433.6996,293.7027,478.2224,278.4955z"/>
<path fill="#411E13" d="M542.0967,278.4955l1.7613-10.0044c0.8599-4.8842,5.5596-8.1768,10.4438-7.317l79.4172,13.9815
	c4.8842,0.8599,8.1769,5.5596,7.317,10.4438l-1.7612,10.0044C600.145,280.1772,586.6195,293.7027,542.0967,278.4955z"/>
<path fill="#526678" d="M704.4679,839.0991v-41.9717c0-4.6169,2.938-8.3943,6.5289-8.3943h1.6322
	c3.5909,0,6.5289,3.7775,6.5289,8.3943v41.9717H704.4679z"/>
<ellipse fill="#411E13" cx="591.6346" cy="332.4038" rx="26.7825" ry="24.8232"/>
<path fill="#FFFFFF" d="M697.896,873.2786v-43.4575c0-8.7478,5.5668-15.905,12.3706-15.905h3.0927
	c6.8038,0,12.3705,7.1572,12.3705,15.905v43.4575H697.896z"/>
<path fill="#C4C6C6" d="M805.4836,888.5927H686.3419c-6.1667,0-11.2122-5.0455-11.2122-11.2122v-1.9214
	c0-6.1667,5.0455-11.2122,11.2122-11.2122h119.1417c6.1667,0,11.2122,5.0455,11.2122,11.2122v1.9214
	C816.6958,883.5472,811.6503,888.5927,805.4836,888.5927z"/>
<path fill="#526678" d="M719.103,828.2278v84.6243c0,3.0933-2.5309,5.6243-5.6243,5.6243h-3.6605
	c-3.0933,0-5.6242-2.5309-5.6242-5.6243v-84.6243c0-3.0933,2.5309-5.6242,5.6242-5.6242h3.6605
	C716.5721,822.6036,719.103,825.1345,719.103,828.2278z"/>
<g>
</g>
<g>
</g>
<g>
</g>
<g>
</g>
<g>
</g>
<g>
</g>
<g>
</g>
<g>
</g>
<g>
</g>
<g>
</g>
<g>
</g>
<g>
</g>
<g>
</g>
<g>
</g>
<g>
</g>
</svg>
