<svg width="123" height="113" viewBox="0 0 123 113" fill="none" xmlns="http://www.w3.org/2000/svg">
<path d="M58.856 18.1758H12.0117V92.0923H58.856V18.1758Z" fill="#E1E7EA"/>
<path d="M58.8686 92.105H12V18.1641H58.8686V92.105ZM12.0243 92.0806H58.8443V18.1884H12.0243V92.0806Z" fill="#72788E"/>
<path d="M68.5774 56.1605L68.2617 63.3034V76.6957C68.2617 76.6957 78.8589 82.3511 88.8226 76.4784L90.8795 71.4017L89.9305 52.8789L68.5774 56.1605Z" fill="#F4C984"/>
<path d="M68.418 56.638V59.6942C68.418 59.6942 74.4278 66.4796 79.8063 66.3212C85.1848 66.1629 90.2446 59.813 90.2446 59.813V55.3516L68.418 56.638Z" fill="#D3AD75"/>
<path d="M60.8269 51.5577C59.5622 50.1291 57.9798 42.3516 57.9798 42.3516C57.9798 42.3516 55.7661 41.5576 54.6582 36.6373C53.5504 31.717 56.2406 31.717 56.2406 31.717C56.2406 31.717 54.8171 20.7646 56.5563 10.598C58.2955 0.431427 99.736 6.31632 103.058 8.69729C106.379 11.0783 101.317 31.3951 101.317 31.3951C101.317 31.3951 104.798 27.5856 104.007 34.8869C103.215 42.1882 100.053 42.5019 100.053 42.5019C99.4142 45.5717 98.5691 48.5945 97.5233 51.5496C95.7841 56.4699 83.7634 63.9306 78.8604 63.9306C73.9575 63.9306 66.2064 56.7877 66.2064 56.7877L60.8269 51.5577Z" fill="#F4C984"/>
<path d="M73.3237 113.461L35.8665 113.492C35.8665 113.492 32.3254 108.517 31.5979 102.151C30.8957 96.0016 34.8871 89.4994 35.996 86.955C36.4665 85.8747 38.1743 84.3933 40.5712 82.7302C49.4493 76.5681 67.7874 67.9062 67.7874 67.9062L73.3237 113.461Z" fill="#C9C9C9"/>
<path d="M91.2111 67.9062C91.2111 67.9062 120.789 81.8742 123.003 86.9529C125.216 92.0317 130.12 113.46 130.12 113.46H85.6758L91.2111 67.9062Z" fill="#C9C9C9"/>
<path d="M74.4899 27.5621L65.452 27.9946C64.8939 28.0213 64.463 28.497 64.4896 29.0572L64.5439 30.2001C64.5705 30.7603 65.0446 31.1927 65.6027 31.166L74.6406 30.7335C75.1987 30.7068 75.6296 30.2311 75.603 29.6709L75.5487 28.528C75.522 27.9678 75.048 27.5354 74.4899 27.5621Z" fill="#411E13"/>
<path d="M93.2907 28.3212L84.3055 27.2523C83.7506 27.1863 83.2475 27.5842 83.1817 28.1411L83.0475 29.2774C82.9817 29.8343 83.3782 30.3392 83.9331 30.4052L92.9183 31.474C93.4732 31.5401 93.9764 31.1421 94.0421 30.5853L94.1764 29.449C94.2421 28.8921 93.8456 28.3872 93.2907 28.3212Z" fill="#411E13"/>
<path d="M70.376 37.6848C72.0356 37.6848 73.3809 36.6588 73.3809 35.3932C73.3809 34.1276 72.0356 33.1016 70.376 33.1016C68.7164 33.1016 67.3711 34.1276 67.3711 35.3932C67.3711 36.6588 68.7164 37.6848 70.376 37.6848Z" fill="#411E13"/>
<path d="M88.5635 37.6848C90.2231 37.6848 91.5684 36.6588 91.5684 35.3932C91.5684 34.1276 90.2231 33.1016 88.5635 33.1016C86.9039 33.1016 85.5586 34.1276 85.5586 35.3932C85.5586 36.6588 86.9039 37.6848 88.5635 37.6848Z" fill="#411E13"/>
<path d="M70.1602 46.2734H88.2109C88.2109 46.2734 86.9249 55.6876 78.8592 55.2084C70.7935 54.7292 70.1602 46.2734 70.1602 46.2734Z" fill="white"/>
<path d="M68.2432 64.8594L79.3442 78.3796L90.4007 64.8594L92.7783 69.3106L88.3701 113.596H68.737L65.5742 69.3106L68.2432 64.8594Z" fill="#C9C9C9"/>
<path d="M61.2204 104.199L54.2788 113.491L31.5142 113.998C29.4462 111.986 31.0246 111.033 29.6931 105.876C28.3778 100.788 31.0225 96.3142 28.9646 91.7473C27.6686 88.8708 27.2305 85.8999 27.2305 85.8999L36.3707 80.6953C36.3707 80.6953 37.3824 81.406 38.7534 83.6398C43.9528 92.1046 62.1745 98.2545 61.2204 104.199Z" fill="#C9C9C9"/>
<path d="M20.2534 78.5565C19.7728 77.6548 19.4055 74.7408 20.1522 74.0017C20.8989 73.2625 20.6085 71.7547 20.9929 71.0572C21.3774 70.3596 22.5106 70.1535 23.0994 70.4551C23.6883 70.7566 25.9506 72.5802 25.9506 72.5802C25.9506 72.5802 29.608 69.9799 30.4023 71.0572C31.1965 72.1345 35.3427 75.808 35.3599 78.5778C35.3771 81.3476 36.5396 84.1835 29.258 86.071C27.715 85.5647 26.2505 84.8436 24.9074 83.9286C22.7382 82.4503 22.2323 82.4554 21.4988 81.7182C20.0065 80.2165 19.8294 79.4165 20.4254 78.9768L20.2534 78.5565Z" fill="#F4C984"/>
<path d="M78.7882 0.0724388C89.2973 0.580107 93.9291 2.30617 95.9699 3.76724C97.2194 4.64092 98.6048 5.30039 100.069 5.71873C102.086 6.31778 103.849 8.81753 104.694 11.6798C105.725 15.1715 102.457 33.0953 101.6 37.648C101.544 37.9431 101.387 38.209 101.155 38.399C100.923 38.5889 100.632 38.6908 100.333 38.6867L98.4638 38.6623C98.4638 38.6623 98.3101 39.701 98.4588 31.093C98.6075 22.485 95.5004 21.297 94.4654 18.8704C93.8583 17.456 93.9595 16.3452 94.1507 15.666C94.2258 15.385 94.2042 15.0868 94.0895 14.8196C93.9747 14.5524 93.7735 14.3319 93.5184 14.1937C91.2925 12.9682 95.1645 16.4346 89.5179 19.3963C83.0103 22.8099 68.436 20.8513 65.0334 19.8126C61.6309 18.7739 60.5969 20.8513 60.5969 22.484C60.5969 24.1166 60.005 26.4915 58.6745 28.8664C57.7235 30.563 58.3811 34.8386 58.8344 37.1393C58.8707 37.3243 58.8657 37.515 58.8199 37.6978C58.774 37.8806 58.6883 38.0509 58.5691 38.1965C58.4498 38.3421 58.2999 38.4594 58.13 38.54C57.9602 38.6205 57.7747 38.6623 57.5869 38.6623C57.3254 38.6618 57.0704 38.5806 56.8563 38.4299C56.6423 38.2792 56.4795 38.0662 56.39 37.8196C54.7024 33.209 53.5965 20.5518 54.2865 16.926C54.3126 16.7895 54.3171 16.6497 54.2997 16.5117C54.0255 14.5308 52.7031 -1.19369 78.7882 0.0724388Z" fill="#411E13"/>
<path d="M112.456 95.3203H98.9993C98.3287 95.3203 97.7852 95.8658 97.7852 96.5387V96.8433C97.7852 97.5162 98.3287 98.0617 98.9993 98.0617H112.456C113.126 98.0617 113.67 97.5162 113.67 96.8433V96.5387C113.67 95.8658 113.126 95.3203 112.456 95.3203Z" fill="#778691"/>
<path d="M68.2397 64.8594C68.2397 64.8594 65.5494 67.6008 65.5079 69.3269C65.4664 71.0529 77.0419 84.8615 77.0419 84.8615L79.3406 78.3796L81.6606 84.8615C81.6606 84.8615 92.624 72.7455 92.7758 69.3096C92.9275 65.8737 90.3971 64.8594 90.3971 64.8594L79.2931 77.4323L68.2397 64.8594Z" fill="#778691"/>
<path d="M79.1726 90.924C79.8353 90.924 80.3726 90.3849 80.3726 89.7198C80.3726 89.0548 79.8353 88.5156 79.1726 88.5156C78.5099 88.5156 77.9727 89.0548 77.9727 89.7198C77.9727 90.3849 78.5099 90.924 79.1726 90.924Z" fill="#778691"/>
<path d="M79.1531 96.9435C79.8158 96.9435 80.353 96.4044 80.353 95.7393C80.353 95.0743 79.8158 94.5352 79.1531 94.5352C78.4904 94.5352 77.9531 95.0743 77.9531 95.7393C77.9531 96.4044 78.4904 96.9435 79.1531 96.9435Z" fill="#778691"/>
<path d="M30.3824 71.057C30.3824 71.057 27.7387 66.8941 26.2747 66.4088C24.8107 65.9234 24.2947 67.6109 25.4956 69.337C26.6966 71.0631 29.4607 73.242 29.4607 73.242L30.3824 71.057Z" fill="#F4C984"/>
<path d="M26.3373 85.4706C26.3373 85.4706 28.0927 87.1042 30.4005 86.9936C33.7281 86.8332 35.7061 85.1995 36.3921 80.7147L35.4279 79.5156C35.4279 79.5156 35.3115 83.9537 32.2995 85.0167C29.2875 86.0798 26.2148 84.9426 26.2148 84.9426L26.3373 85.4706Z" fill="#778691"/>
<path d="M22.6365 81.5333C22.2917 81.6003 21.9357 81.5816 21.5997 81.4787C21.2638 81.3759 20.958 81.1921 20.7091 80.9434C18.7099 78.9432 13.6501 73.4787 14.0497 69.7818C14.5424 65.1864 23.1171 64.3488 28.4035 72.3953C32.6772 78.8995 25.5291 80.9779 22.6365 81.5333Z" fill="#F4C984"/>
<path d="M26.12 57.9031C25.3491 57.9031 24.5548 57.6594 23.7646 57.169C20.3085 55.0256 17.9562 49.027 19.0944 45.2814C20.0404 42.1806 21.1482 40.021 22.4797 38.6817C24.0065 37.1445 25.8833 36.6704 28.0585 37.2724C30.5323 37.9568 31.3973 40.155 31.1575 42.0293C31.0574 42.9005 30.6921 43.7195 30.1114 44.3747C29.8124 44.7038 29.4486 44.967 29.043 45.1475C28.6373 45.3281 28.1987 45.4221 27.755 45.4236C27.7013 45.4236 27.6499 45.4022 27.6119 45.3641C27.574 45.326 27.5527 45.2743 27.5527 45.2205C27.5527 45.1666 27.574 45.115 27.6119 45.0769C27.6499 45.0388 27.7013 45.0174 27.755 45.0174C29.0612 45.0002 30.4989 44.0518 30.765 41.9714C30.9825 40.2707 30.1994 38.2776 27.9594 37.6583C24.1147 36.5942 21.4255 39.0523 19.491 45.3951C18.9608 47.1324 19.1875 49.4504 20.1243 51.7572C21.0248 53.991 22.4676 55.8785 23.9822 56.8177C25.1487 57.5426 26.9163 58.0513 28.6757 56.3669C30.0638 55.0418 30.6709 53.7432 30.4776 52.5086C30.1488 50.3957 27.5759 49.1265 27.5506 49.1143C27.5022 49.091 27.465 49.0494 27.4471 48.9985C27.4293 48.9477 27.4323 48.8918 27.4555 48.8432C27.4787 48.7946 27.5202 48.7572 27.5709 48.7393C27.6216 48.7215 27.6772 48.7245 27.7257 48.7478C28.2376 49.0112 28.7176 49.3328 29.1563 49.7062C30.1316 50.5297 30.7265 51.477 30.8763 52.4477C31.0918 53.8234 30.4453 55.2419 28.9539 56.6654C28.0879 57.4888 27.1237 57.9031 26.12 57.9031Z" fill="#333333"/>
<path d="M36.8211 64.3546H34.3727C34.3458 64.3548 34.3192 64.3496 34.2943 64.3393C34.2695 64.329 34.2469 64.3138 34.228 64.2947C34.2092 64.2754 34.1944 64.2525 34.1845 64.2274C34.1746 64.2023 34.1698 64.1755 34.1703 64.1485C34.1703 64.1485 34.3241 54.9729 34.3727 51.7726C34.401 50.0241 34.1046 48.9509 33.3811 48.1854C32.5454 47.301 31.0541 46.7639 28.6846 46.4827C27.0749 46.2948 26.0388 45.7394 25.6068 44.8317C24.935 43.4234 25.9842 41.7248 26.0287 41.6537C26.0429 41.6311 26.0613 41.6115 26.083 41.5961C26.1047 41.5806 26.1292 41.5696 26.1551 41.5637C26.1811 41.5577 26.2079 41.557 26.2341 41.5615C26.2604 41.5659 26.2854 41.5755 26.308 41.5897C26.3305 41.6039 26.35 41.6225 26.3654 41.6442C26.3808 41.666 26.3917 41.6906 26.3977 41.7166C26.4036 41.7426 26.4043 41.7696 26.3999 41.7959C26.3954 41.8222 26.3858 41.8474 26.3717 41.87C26.3616 41.8852 25.3964 43.4529 25.9721 44.6581C26.3413 45.4298 27.2691 45.908 28.7311 46.0796C33.881 46.6806 34.829 48.5468 34.7774 51.7786C34.7308 54.6957 34.5993 62.5727 34.575 63.9485H36.6127L36.3678 51.5918C36.3957 50.6907 36.6275 49.8078 37.0457 49.0098C38.188 46.8573 40.3177 46.3578 41.9022 46.3172C43.4613 46.2776 44.5014 45.8501 44.9931 45.0449C45.7863 43.7473 44.9081 41.8679 44.899 41.8497C44.8758 41.8011 44.8727 41.7452 44.8906 41.6944C44.9084 41.6435 44.9456 41.6019 44.9941 41.5786C45.0425 41.5553 45.0982 41.5522 45.1489 41.5701C45.1995 41.588 45.241 41.6254 45.2642 41.674C45.3047 41.7593 46.2446 43.7737 45.3381 45.2582C44.7705 46.1872 43.6181 46.6796 41.9123 46.7233C39.7623 46.7781 38.2447 47.6117 37.4009 49.2007C37.0166 49.9388 36.8012 50.7536 36.7705 51.5857L37.0194 64.1475C37.02 64.1745 37.0152 64.2013 37.0053 64.2264C36.9954 64.2515 36.9806 64.2744 36.9618 64.2937C36.9246 64.3317 36.8741 64.3536 36.8211 64.3546Z" fill="#333333"/>
<path d="M44.816 57.5566C43.1284 57.5566 41.5936 56.3869 40.2439 54.0719C40.2327 54.0512 40.2245 54.029 40.2196 54.0059C40.1211 53.3276 40.1638 52.6362 40.3451 51.9753C40.6182 50.9711 41.3568 49.6278 43.2923 48.9293C43.3175 48.9193 43.3444 48.9145 43.3714 48.9152C43.3985 48.9158 43.4251 48.9219 43.4498 48.9331C43.4744 48.9443 43.4966 48.9603 43.515 48.9802C43.5334 49.0002 43.5476 49.0236 43.5568 49.0491C43.566 49.0747 43.57 49.1018 43.5686 49.1289C43.5671 49.156 43.5603 49.1825 43.5485 49.207C43.5366 49.2314 43.5201 49.2532 43.4997 49.2711C43.4793 49.2889 43.4556 49.3025 43.4299 49.311C42.0023 49.8268 41.0958 50.7599 40.7356 52.0849C40.5765 52.6751 40.5345 53.2909 40.6122 53.8973C42.0286 56.3047 43.6201 57.384 45.3583 57.1037C48.1346 56.657 50.6083 52.7835 51.1597 50.1994C51.9985 46.2711 51.9408 43.2149 49.1615 39.2196C48.5413 38.3291 46.0089 36.7625 43.9004 36.9757C42.6154 37.1057 41.6745 37.8479 41.0948 39.1841C40.5343 40.4806 40.4756 41.6341 40.9207 42.6139C41.6553 44.2323 43.527 44.8476 43.5452 44.8476C43.5714 44.8549 43.5958 44.8675 43.6171 44.8845C43.6383 44.9015 43.6559 44.9227 43.6688 44.9466C43.6818 44.9706 43.6897 44.997 43.6923 45.0241C43.6948 45.0513 43.6919 45.0787 43.6837 45.1047C43.6755 45.1306 43.6621 45.1547 43.6444 45.1754C43.6267 45.1961 43.605 45.213 43.5807 45.2251C43.5564 45.2372 43.5298 45.2443 43.5027 45.2459C43.4756 45.2475 43.4484 45.2436 43.4228 45.2344C43.3399 45.208 41.3599 44.5603 40.5525 42.7804C40.0577 41.6919 40.1154 40.4268 40.7235 39.0236C41.3538 37.5636 42.4384 36.7158 43.8599 36.5726C46.1546 36.3411 48.8175 38.0052 49.4974 38.9881C52.3607 43.1053 52.4214 46.2478 51.5594 50.2858C51.2659 51.6595 50.4464 53.3429 49.4286 54.6801C48.2054 56.2823 46.7839 57.2845 45.4261 57.5028C45.2245 57.5374 45.0205 57.5554 44.816 57.5566Z" fill="#333333"/>
<path d="M21.7297 46.742C21.676 46.742 21.6246 46.7207 21.5866 46.6826C21.5487 46.6445 21.5273 46.5928 21.5273 46.539C21.5273 46.4851 21.5487 46.4335 21.5866 46.3954C21.6246 46.3573 21.676 46.3359 21.7297 46.3359H24.508C22.3155 43.9509 24.3137 41.6552 24.335 41.6308C24.3708 41.5904 24.4211 41.566 24.4749 41.5628C24.5287 41.5597 24.5816 41.5781 24.6218 41.6141C24.6621 41.65 24.6864 41.7006 24.6896 41.7545C24.6927 41.8085 24.6743 41.8615 24.6385 41.9019C24.5576 41.9933 22.6899 44.157 25.1373 46.3887C25.1675 46.4162 25.1887 46.4523 25.1981 46.4921C25.2075 46.532 25.2047 46.5737 25.19 46.612C25.1754 46.6502 25.1495 46.683 25.1159 46.7063C25.0823 46.7295 25.0425 46.7419 25.0017 46.742H21.7327H21.7297Z" fill="#333333"/>
<path d="M24.4422 52.6988C24.4099 52.6988 24.3781 52.6911 24.3494 52.6763C24.3208 52.6614 24.296 52.6399 24.2773 52.6135C23.5994 51.6622 23.3536 50.7341 23.5458 49.8528C23.7259 49.0284 24.254 48.4313 24.6587 48.078H21.7297C21.676 48.078 21.6246 48.0566 21.5866 48.0185C21.5487 47.9804 21.5273 47.9288 21.5273 47.8749C21.5273 47.8211 21.5487 47.7694 21.5866 47.7314C21.6246 47.6933 21.676 47.6719 21.7297 47.6719H25.2708C25.3153 47.672 25.3585 47.6867 25.3938 47.7139C25.4291 47.7411 25.4544 47.7792 25.4659 47.8224C25.4774 47.8655 25.4745 47.9112 25.4575 47.9524C25.4405 47.9937 25.4105 48.0282 25.372 48.0506C25.3599 48.0577 24.2004 48.738 23.9394 49.9432C23.7734 50.7057 23.998 51.5251 24.6061 52.38C24.6277 52.4104 24.6405 52.4461 24.6431 52.4833C24.6458 52.5205 24.6381 52.5577 24.6211 52.5909C24.6041 52.624 24.5783 52.6518 24.5465 52.6712C24.5148 52.6906 24.4784 52.7009 24.4412 52.7008L24.4422 52.6988Z" fill="#333333"/>
<path d="M34.6757 73.803C34.622 73.803 34.5705 73.7816 34.5326 73.7435C34.4946 73.7054 34.4733 73.6538 34.4733 73.5999V71.5693C33.6852 71.3347 30.1855 70.1691 30.14 67.9141C30.1177 66.7972 30.6307 65.8428 31.6232 65.1442C32.0373 64.8561 32.4909 64.63 32.9698 64.4731C32.9506 63.0333 32.8009 51.9895 32.8009 50.8442C32.8009 50.2502 32.2829 49.0166 31.1699 48.2703C30.4303 47.7708 29.1677 47.3311 27.3576 48.0673C26.2993 48.4998 25.6791 49.0877 25.5132 49.8126C25.2289 51.0615 26.3712 52.351 26.3823 52.3642C26.4001 52.3842 26.4138 52.4075 26.4226 52.4328C26.4315 52.4581 26.4352 52.4849 26.4337 52.5117C26.4322 52.5385 26.4255 52.5647 26.4139 52.5889C26.4023 52.613 26.386 52.6347 26.3661 52.6525C26.3462 52.6704 26.3229 52.6841 26.2977 52.693C26.2725 52.7019 26.2458 52.7056 26.2191 52.7041C26.1924 52.7026 26.1663 52.6959 26.1422 52.6842C26.1181 52.6726 26.0966 52.6563 26.0788 52.6363C26.0252 52.5774 24.7837 51.1803 25.1146 49.7243C25.3109 48.8613 26.012 48.1769 27.2008 47.6936C29.1768 46.8814 30.57 47.3768 31.3915 47.9312C32.64 48.7739 33.2015 50.1406 33.2015 50.8422C33.2015 52.0606 33.3705 64.4934 33.3725 64.6193C33.3739 64.6655 33.3595 64.7109 33.3318 64.7478C33.304 64.7847 33.2645 64.811 33.2197 64.8224C32.7279 64.9677 32.2626 65.1916 31.8417 65.4854C30.9585 66.1108 30.5265 66.9261 30.5406 67.908C30.5851 70.095 34.6817 71.2139 34.7232 71.2251C34.7665 71.2365 34.8048 71.2621 34.8321 71.2977C34.8594 71.3334 34.8741 71.3771 34.874 71.422V73.6101C34.8714 73.6615 34.8495 73.71 34.8127 73.7458C34.7759 73.7816 34.7269 73.8021 34.6757 73.803Z" fill="#333333"/>
<path d="M36.6399 73.8017C36.5862 73.8017 36.5347 73.7803 36.4968 73.7422C36.4588 73.7042 36.4375 73.6525 36.4375 73.5987V71.2218C36.4371 71.1723 36.4546 71.1244 36.4868 71.0871C36.519 71.0497 36.5637 71.0254 36.6125 71.0187C36.653 71.0187 40.5827 70.443 40.5827 67.7625C40.5827 65.082 38.0361 64.7256 37.9278 64.7114C37.8788 64.705 37.8339 64.6808 37.8015 64.6434C37.769 64.6059 37.7514 64.5579 37.7518 64.5084L37.7852 50.6084C37.7837 50.5935 37.7837 50.5786 37.7852 50.5637C37.7922 50.5353 38.4772 47.668 41.4599 47.668H41.4862C44.4314 47.6842 45.6344 49.3037 45.69 49.3727C45.6995 49.3855 45.7074 49.3995 45.7133 49.4144C45.8925 49.9253 45.9416 50.4731 45.856 51.0079C45.7705 51.5427 45.5531 52.0476 45.2236 52.4766C45.1904 52.5165 45.1433 52.542 45.0919 52.5481C45.0405 52.5541 44.9887 52.5402 44.9473 52.5091C44.9058 52.478 44.8778 52.4322 44.8689 52.381C44.8601 52.3298 44.8712 52.2772 44.8998 52.2339C45.1817 51.8631 45.3698 51.4292 45.4478 50.9694C45.5259 50.5096 45.4916 50.0377 45.348 49.5941C45.2064 49.4194 44.0469 48.0893 41.4841 48.0711C38.9214 48.0528 38.2465 50.3667 38.1848 50.6307L38.1514 64.3378C38.7969 64.4809 40.9843 65.1571 40.9843 67.7584C40.9843 70.4379 37.6455 71.2339 36.8361 71.3873V73.5926C36.8369 73.6192 36.8325 73.6458 36.8231 73.6708C36.8137 73.6957 36.7994 73.7186 36.7812 73.738C36.763 73.7574 36.7411 73.773 36.7168 73.784C36.6926 73.7949 36.6664 73.801 36.6399 73.8017Z" fill="#333333"/>
<path d="M49.527 46.4869H46.1082C46.0638 46.4868 46.0206 46.4721 45.9853 46.4449C45.95 46.4177 45.9247 46.3795 45.9132 46.3364C45.9016 46.2933 45.9046 46.2476 45.9216 46.2063C45.9385 46.1651 45.9686 46.1306 46.0071 46.1082C46.2439 45.9798 46.4521 45.8041 46.6188 45.592C46.7855 45.3798 46.9072 45.1357 46.9763 44.8746C47.3304 43.5303 46.3824 41.8824 46.3693 41.8651C46.3472 41.819 46.3433 41.7663 46.3584 41.7174C46.3734 41.6686 46.4062 41.6272 46.4502 41.6016C46.4943 41.576 46.5464 41.568 46.5961 41.5792C46.6458 41.5904 46.6894 41.62 46.7183 41.662C46.7608 41.7351 47.7604 43.4744 47.3638 44.9802C47.256 45.4019 47.0311 45.7842 46.7153 46.0828H49.527C49.5806 46.0828 49.6321 46.1042 49.67 46.1423C49.708 46.1804 49.7293 46.232 49.7293 46.2859C49.7293 46.3397 49.708 46.3914 49.67 46.4295C49.6321 46.4676 49.5806 46.4889 49.527 46.4889V46.4869Z" fill="#333333"/>
<path d="M46.649 52.6997C46.6104 52.6997 46.5725 52.6885 46.5399 52.6676C46.5073 52.6467 46.4814 52.6168 46.4652 52.5815C46.449 52.5463 46.4433 52.5071 46.4486 52.4687C46.4539 52.4302 46.4701 52.3941 46.4952 52.3646C47.0011 51.7747 47.2227 51.1371 47.166 50.471C47.0507 49.1074 45.7951 48.0423 45.783 48.0342C45.7513 48.0074 45.7285 47.9715 45.7178 47.9314C45.7071 47.8912 45.7089 47.8487 45.7231 47.8096C45.7372 47.7705 45.7629 47.7367 45.7968 47.7128C45.8307 47.6889 45.871 47.6759 45.9125 47.6758H49.4223C49.4759 47.6758 49.5274 47.6972 49.5653 47.7353C49.6033 47.7733 49.6246 47.825 49.6246 47.8788C49.6246 47.9327 49.6033 47.9844 49.5653 48.0224C49.5274 48.0605 49.4759 48.0819 49.4223 48.0819H46.4123C46.8352 48.5398 47.4807 49.3958 47.5697 50.4375C47.6365 51.2163 47.3795 51.9544 46.8038 52.6316C46.7844 52.6535 46.7606 52.6709 46.7338 52.6826C46.7071 52.6944 46.6782 52.7002 46.649 52.6997Z" fill="#333333"/>
</svg>
