<svg width="149" height="238" viewBox="0 0 149 238" fill="none" xmlns="http://www.w3.org/2000/svg">
    <g clip-path="url(#clip0_6338_149532)">
        <path d="M44.867 114.417C44.867 114.417 62.0517 107.596 71.4937 108.316C80.9357 109.036 114.44 105.944 124.97 111.339C135.501 116.735 130.396 116.07 130.396 116.07L129.438 237.999H38.4854L44.867 114.417Z" fill="#F5F5F5" />
        <path d="M69.7027 108.715C69.7027 108.715 81.6593 115.055 91.6635 113.734C101.668 112.413 105.572 109.683 105.572 109.683C105.572 109.683 116.31 109.408 118.75 109.683C121.19 109.959 88.0567 173.882 88.0567 173.882L64.8223 108.715H69.7027Z" fill="white" />
        <path d="M72.4697 92.9398V108.249C72.4697 108.249 77.5919 120.267 91.0979 120.422C104.604 120.578 106.933 111.058 106.933 111.058V91.3945L72.4697 92.9398Z" fill="#F6C2B3" />
        <path d="M72.3134 93.6618V96.003C72.3134 96.003 82.5612 107.708 91.0975 106.927C99.6338 106.146 106.932 96.4706 106.932 96.4706V88.8242L71.6924 89.5929L72.3134 93.6618Z" fill="#F1977E" />
        <path d="M55.2406 62.0197C55.2406 62.0197 54.2921 81.229 67.9155 91.3073C81.5389 101.386 85.3209 104.24 91.5642 103.48C95.418 103.01 104.743 96.2417 111.32 91.126C115.903 87.5604 119.326 82.7055 121.157 77.1786L123.535 70.0042C123.535 70.0042 128.454 64.2994 128.454 62.0171C128.454 59.7348 129.593 52.8879 126.752 52.1271C123.91 51.3664 122.4 18.8438 115.779 18.8438C109.157 18.8438 74.3497 29.1176 67.3479 29.1176C60.3461 29.1176 55.9694 30.8293 55.2266 34.4429C54.4839 38.0565 54.2921 49.6573 54.2921 49.6573C54.2921 49.6573 50.1299 51.9396 50.1299 55.363C50.1299 58.7865 50.8893 66.9647 55.2406 62.0197Z" fill="#F6C2B3" />
        <path d="M74.9954 61.6765C77.6544 61.6765 79.8101 59.5094 79.8101 56.8363C79.8101 54.1631 77.6544 51.9961 74.9954 51.9961C72.3363 51.9961 70.1807 54.1631 70.1807 56.8363C70.1807 59.5094 72.3363 61.6765 74.9954 61.6765Z" fill="#50687A" />
        <path d="M103.915 61.6765C106.574 61.6765 108.73 59.5094 108.73 56.8363C108.73 54.1631 106.574 51.9961 103.915 51.9961C101.256 51.9961 99.1006 54.1631 99.1006 56.8363C99.1006 59.5094 101.256 61.6765 103.915 61.6765Z" fill="#50687A" />
        <path d="M81.2773 43.875H66.1106C65.5301 43.875 65.0596 44.3481 65.0596 44.9316V47.5265C65.0596 48.11 65.5301 48.5831 66.1106 48.5831H81.2773C81.8578 48.5831 82.3284 48.11 82.3284 47.5265V44.9316C82.3284 44.3481 81.8578 43.875 81.2773 43.875Z" fill="#451D14" />
        <path d="M110.912 44.1367H95.7454C95.1649 44.1367 94.6943 44.6098 94.6943 45.1933V47.7882C94.6943 48.3718 95.1649 48.8448 95.7454 48.8448H110.912C111.493 48.8448 111.963 48.3718 111.963 47.7882V45.1933C111.963 44.6098 111.493 44.1367 110.912 44.1367Z" fill="#451D14" />
        <path d="M54.3791 65.0576H55.8427C55.8427 65.0576 54.8179 51.6738 55.8427 49.6099C56.8675 47.546 59.2052 42.8423 59.3515 39.7543C59.4977 36.6664 60.3754 32.9867 65.9372 34.7521C71.499 36.5175 85.1084 34.7521 90.3742 31.2213C95.64 27.6904 110.131 22.6882 114.082 27.5425C114.082 27.5425 113.936 32.3976 117.156 36.9587C120.376 41.5197 120.376 64.6174 121.254 65.0594C122.133 65.5014 125.79 56.2313 126.23 54.9079C126.67 53.5845 138.523 10.6234 121.839 11.9477C121.839 11.9477 118.62 -0.704382 103.912 0.0308459C89.204 0.766074 72.9617 6.64702 65.0587 6.64702C57.1556 6.64702 44.5693 4.29605 45.594 13.5643C46.6188 22.8326 49.546 27.0996 49.546 27.0996C49.546 27.0996 47.4973 28.865 47.6436 33.5731C47.7899 38.2812 54.3791 65.0576 54.3791 65.0576Z" fill="#451D14" />
        <path d="M74.5901 73.5195H104.225C104.225 73.5195 102.162 88.0374 90.4593 88.4522C74.9965 89.0007 74.4491 75.6275 74.5901 73.5195Z" fill="white" />
        <path d="M5.77457 143.012H17.0673C17.0673 143.012 15.7456 135.77 17.0673 135.538C18.389 135.305 23.0872 130.084 23.0872 127.101C23.0872 124.117 26.0222 115.825 19.1142 113.012C14.5009 111.132 9.57675 110.356 4.95562 113.998C-1.34019 118.958 -1.66689 128.416 4.15244 133.934C4.19799 133.977 4.24441 134.022 4.29171 134.065L5.77457 143.012Z" fill="#F6C2B3" />
        <path d="M72.1341 108.16L87.8123 170.73L108.559 108.16C108.559 108.16 120.139 108.628 120.622 110.213C121.104 111.798 123.999 133.868 123.999 133.868L111.455 139.446L115.797 152.784L88.0567 173.884L57.4185 155.041L61.2785 138.961L49.4541 135.08C49.4541 135.08 55.9715 112.993 62.0002 110.213C68.0288 107.432 72.1341 108.16 72.1341 108.16Z" fill="#E2E2E1" />
        <path d="M128.09 112.918V237.998H147.061C147.061 237.998 157.959 119.838 128.09 112.918Z" fill="#E2E2E1" />
        <path d="M23.7062 152.755C23.7062 152.755 31.6828 114.908 46.0411 114.266L42.9343 183.534C42.6987 188.802 38.0084 192.737 32.8136 192.004C22.1042 190.498 6.13344 185.113 4.24417 166.548L1.37305 138.322L21.4727 138.964L23.7062 152.755Z" fill="#E2E2E1" />
        <path d="M92.6776 132.832C92.3187 132.832 91.9696 132.714 91.6835 132.496C83.4748 126.24 76.2575 118.658 70.2324 109.963C65.415 103.015 61.3501 95.3467 58.1452 87.1677C52.6798 73.2327 51.6164 62.7722 51.5762 62.3372C51.5338 61.9008 51.6655 61.4655 51.9425 61.1268C52.2194 60.7881 52.6188 60.5739 53.0529 60.5313C53.4869 60.4887 53.92 60.6211 54.2569 60.8995C54.5938 61.1779 54.8069 61.5795 54.8493 62.0158C54.8554 62.0748 55.1208 64.6864 56.0326 68.9155C57.3116 74.7627 59.0558 80.4972 61.2485 86.0635C64.3657 93.9881 68.3116 101.413 72.9765 108.134C78.5401 116.152 85.1512 123.191 92.6391 129.062C95.1021 126.925 101.841 120.715 108.37 111.452C113.135 104.692 116.858 97.6493 119.437 90.5198C122.646 81.646 124.079 72.6066 123.704 63.6536C123.691 63.4343 123.721 63.2145 123.793 63.0071C123.865 62.7997 123.978 62.6089 124.124 62.4458C124.271 62.2826 124.448 62.1504 124.646 62.0569C124.843 61.9634 125.058 61.9104 125.276 61.9011C125.494 61.8918 125.712 61.9264 125.917 62.0027C126.122 62.0791 126.31 62.1957 126.47 62.3458C126.629 62.496 126.757 62.6765 126.847 62.877C126.936 63.0775 126.985 63.2939 126.99 63.5136C127.387 72.9201 125.879 82.4067 122.506 91.7085C119.817 99.125 115.944 106.439 110.994 113.448C102.575 125.368 94.0606 132.194 93.7024 132.48C93.4101 132.71 93.049 132.834 92.6776 132.832Z" fill="#464646" />
        <path d="M55.6207 151.651C41.7591 151.651 28.19 144.612 15.2585 130.708C14.9607 130.387 14.8017 129.961 14.8164 129.523C14.8311 129.085 15.0183 128.671 15.3369 128.371C15.6555 128.072 16.0794 127.912 16.5152 127.927C16.9511 127.942 17.3632 128.13 17.661 128.45C30.4165 142.166 43.6939 148.852 57.1237 148.314C61.7816 148.129 66.4772 147.063 71.0791 145.145C74.7832 143.602 78.4365 141.508 81.94 138.921C87.9073 134.511 91.36 130.19 91.3942 130.147C91.5287 129.977 91.6952 129.835 91.8841 129.73C92.073 129.625 92.2807 129.559 92.4952 129.534C92.7098 129.51 92.927 129.528 93.1346 129.588C93.3421 129.648 93.5358 129.748 93.7048 129.883C93.8737 130.019 94.0144 130.186 94.119 130.376C94.2236 130.566 94.2899 130.775 94.3142 130.99C94.3386 131.206 94.3204 131.424 94.2607 131.633C94.2011 131.842 94.1012 132.036 93.9666 132.206C93.816 132.396 90.2004 136.917 83.8879 141.585C80.1742 144.329 76.2897 146.554 72.3412 148.199C67.3794 150.266 62.3045 151.416 57.2577 151.616C56.7103 151.64 56.1646 151.651 55.6207 151.651Z" fill="#464646" />
        <path d="M11.4958 132.259C15.3961 132.259 18.558 129.005 18.558 124.993C18.558 120.98 15.3961 117.727 11.4958 117.727C7.59545 117.727 4.43359 120.98 4.43359 124.993C4.43359 129.005 7.59545 132.259 11.4958 132.259Z" fill="#464646" />
    </g>
    <defs>
        <clipPath id="clip0_6338_149532">
            <rect width="149" height="238" fill="white" />
        </clipPath>
    </defs>
</svg>
