<svg width="170" height="557" viewBox="0 0 170 557" fill="none" xmlns="http://www.w3.org/2000/svg">
<g clip-path="url(#clip0_6192_82634)">
<path d="M186.1 145.652C172.516 179.591 153.946 191.832 137.985 195.224C119.666 199.121 104.779 191.37 104.779 191.37L115.417 172.245C116.305 170.649 116.765 168.849 116.751 167.022C116.736 165.194 116.248 163.401 115.335 161.818L112.126 155.646L111.247 153.949L109.403 150.406L108.988 149.605L141.53 123.513L144.13 127.528L147.963 133.444L148 133.509L150.458 137.3C152.113 139.854 154.38 141.953 157.052 143.408C159.725 144.863 162.718 145.627 165.76 145.631L186.1 145.652Z" fill="#F6C0A4"/>
<path d="M144.442 127.336L148.739 134.779C148.739 134.779 146.388 150.247 137.547 155.704C137.441 155.765 137.339 155.825 137.234 155.885C128.392 160.99 112.378 155.729 112.127 155.647L109.184 150.551L109.405 150.406L144.145 127.531L144.442 127.336Z" fill="#ED9C82"/>
<path d="M274.483 289.653C274.483 289.653 374.539 479.399 368.308 482.997C362.076 486.595 360.482 501.046 347.343 489.234C338.962 481.702 246.709 343.582 212.536 288.569C243.064 345.694 316.058 497.629 318.333 508.691C321.898 526.03 312.12 517.694 305.755 521.369C299.39 525.044 183.751 342.152 183.751 342.152L218.068 299.479L219.405 297.817L221.294 297.535L274.483 289.653Z" fill="#F6C0A4"/>
<path d="M91.6026 149.411C88.1113 148.251 77.9814 136.813 77.9814 136.813C77.9814 136.813 73.5132 137.628 66.923 130.486C60.3328 123.344 64.8319 120.756 64.8319 120.756C64.8319 120.756 51.9107 103.873 45.0374 85.2501C38.1641 66.6268 113.119 36.4285 120.964 37.1902C128.809 37.952 139.901 76.7093 139.901 76.7093C139.901 76.7093 142.053 67 147.757 79.9353C153.461 92.8705 148.478 96.4552 148.478 96.4552C150.364 102.189 151.86 108.044 152.954 113.98C154.781 123.862 141.857 147.907 133.664 152.638C125.47 157.368 105.633 152.95 105.633 152.95L91.6026 149.411Z" fill="#F6C0A4"/>
<path d="M85.3259 91.7728L74.202 104.926C73.4616 105.802 73.5712 107.112 74.4469 107.853L75.9404 109.117C76.8161 109.858 78.1262 109.749 78.8666 108.874L89.9905 95.7202C90.7309 94.8446 90.6213 93.5341 89.7456 92.7931L88.2521 91.5292C87.3764 90.7882 86.0663 90.8972 85.3259 91.7728Z" fill="#4C558C"/>
<path d="M123.069 78.6292L105.841 78.6255C104.694 78.6252 103.765 79.5549 103.765 80.7019L103.766 82.6584C103.766 83.8054 104.696 84.7355 105.842 84.7357L123.07 84.7395C124.217 84.7397 125.146 83.8101 125.146 82.663L125.146 80.7066C125.145 79.5595 124.216 78.6294 123.069 78.6292Z" fill="#4C558C"/>
<path d="M95.3584 118.666C98.1338 117.064 99.0841 113.514 97.4809 110.737C95.8777 107.96 92.3281 107.008 89.5527 108.61C86.7773 110.213 85.827 113.763 87.4302 116.54C89.0334 119.316 92.583 120.268 95.3584 118.666Z" fill="#411E13"/>
<path d="M125.773 101.107C128.549 99.5051 129.499 95.955 127.896 93.1782C126.293 90.4014 122.743 89.4493 119.968 91.0517C117.192 92.6541 116.242 96.2042 117.845 98.981C119.448 101.758 122.998 102.71 125.773 101.107Z" fill="#411E13"/>
<path d="M109.19 38.0124C111.063 41.5405 118.127 32.1664 123.964 37.7046C129.068 42.5505 142.915 78.0315 146.301 86.8408C146.512 87.3886 146.518 87.9939 146.319 88.5459C146.12 89.0978 145.729 89.5594 145.217 89.8461L142.124 91.5888C142.124 91.5888 142.868 93.4685 134.838 78.9697C126.807 64.4708 120.44 65.4919 116.376 62.4512C114.004 60.6763 113.104 58.7277 112.765 57.4127C112.639 56.8923 112.343 56.4284 111.925 56.0941C111.507 55.7598 110.989 55.5741 110.454 55.5661C105.486 55.5563 100.954 60.5237 94.2894 71.0295C86.693 83.0017 74.7573 90.8834 68.0702 92.4345C61.383 93.9855 61.6501 98.4509 63.2214 101.173C64.7928 103.894 66.0899 108.425 66.1488 113.667C66.1916 117.42 71.4234 123.924 74.3925 127.319C74.6289 127.59 74.8023 127.911 74.9003 128.257C74.9983 128.604 75.0184 128.968 74.9593 129.323C74.9001 129.678 74.7631 130.015 74.5581 130.311C74.3531 130.607 74.0851 130.854 73.7735 131.034C73.3283 131.291 72.8136 131.4 72.3024 131.348C71.7912 131.295 71.3096 131.082 70.926 130.74C63.7676 124.375 51.2882 102.702 47.1903 97.6009C44.4249 94.1607 45.0692 94.9112 44.472 94.2007C44.1244 93.7897 41.9988 90.9634 41.9729 90.4243C40.3705 57.2379 86.1079 37.7127 88.5244 36.7037C88.5873 36.6674 88.6599 36.6519 88.7229 36.6323C90.1638 36.1841 105.718 31.4758 109.19 38.0124Z" fill="#4C558C"/>
<path d="M160.163 197.329C161.271 196.689 161.65 195.272 161.01 194.163C160.37 193.055 158.953 192.674 157.844 193.314C156.736 193.954 156.357 195.371 156.997 196.48C157.637 197.589 159.054 197.969 160.163 197.329Z" fill="#C9C9C9"/>
<path d="M165.926 207.38C167.034 206.74 167.414 205.323 166.774 204.214C166.134 203.105 164.716 202.725 163.608 203.365C162.5 204.005 162.12 205.422 162.761 206.531C163.401 207.64 164.818 208.02 165.926 207.38Z" fill="#C9C9C9"/>
<path d="M267.678 270.054C267.678 270.054 327.941 376.279 321.157 380.195C314.373 384.112 291.097 404.972 281.154 399.662C274.813 396.279 251.605 350.646 231.206 319.847C247.64 352.938 275.465 396.121 275.162 403.347C274.683 414.671 244.619 424.447 237.7 428.442C230.782 432.436 168.906 327.142 168.906 327.142L211.393 289.591L213.049 288.129L214.922 287.508L267.678 270.054Z" fill="#8898A8"/>
<path d="M278.284 325.277L208.044 365.83C196.607 372.433 181.069 367.129 173.514 354.044L86.7778 203.812C86.2336 202.869 97.2575 194.01 103.522 189.173C106.158 187.143 109.279 185.837 112.575 185.385L132.274 182.61C133.855 182.395 135.402 181.98 136.879 181.376C144.939 178.038 152.467 173.539 159.225 168.021C159.634 167.687 160.027 167.333 160.409 166.961L180.092 147.905C181.517 146.522 183.15 145.372 184.932 144.495C189.51 142.243 198.048 138.28 198.608 139.249L285.343 289.479C292.896 302.565 289.721 318.674 278.284 325.277Z" fill="#79B193"/>
<path d="M114.136 136.885L130.798 127.265C130.798 127.265 124.763 119.551 117.564 124.273C110.365 128.995 114.136 136.885 114.136 136.885Z" fill="white"/>
<path d="M137.353 279.085L144.705 276.04C135.535 281.334 126.302 285.355 117.262 272.936L85.1198 234.43C83.5744 231.753 82.383 228.887 81.5756 225.904C79.9341 219.696 80.8103 213.092 84.0132 207.529L84.7142 206.302C88.8559 199.047 98.2038 196.511 105.318 200.882C108.192 202.65 110.71 205.267 112.6 208.541L148.653 261.278C148.716 274.683 146.518 273.794 137.353 279.085Z" fill="#F6C0A4"/>
<path d="M120.659 166.881C108.355 168.708 103.782 174.78 105.602 187.087L111.575 260.028C113.397 272.339 124.957 280.926 137.265 279.109C149.573 277.291 151.548 264.751 149.728 252.438L139.745 184.98C137.924 172.669 132.967 165.064 120.659 166.881Z" fill="#EDB9A2"/>
<path d="M136.768 181.328C141.831 173.155 135.034 150.139 126.864 145.072C118.694 140.006 114.047 141.226 108.985 149.399C103.922 157.572 104.699 179.578 112.871 184.643C121.043 189.709 131.705 189.504 136.768 181.328Z" fill="#EDB9A2"/>
<path d="M106.908 164.707C106.908 164.707 106.595 167.168 107.267 170.537C107.939 173.905 109.766 182.796 107.499 182.489C102.312 181.785 98.2427 169.547 96.256 162.215C95.7235 160.246 97.7512 158.651 99.3992 159.741L106.908 164.707Z" fill="#EDB9A2"/>
</g>
<defs>
<clipPath id="clip0_6192_82634">
<rect width="174" height="542" fill="white" transform="translate(0 87) rotate(-30)"/>
</clipPath>
</defs>
</svg>
