<svg width="19" height="23" viewBox="0 0 19 23" fill="none" xmlns="http://www.w3.org/2000/svg">
<path d="M12.9102 3.93359C13.5898 3.11328 14.0703 1.98828 14.0703 0.863281C14.0703 0.699219 14.0586 0.546875 14.0234 0.417969C12.9219 0.464844 11.5977 1.15625 10.8008 2.09375C10.1797 2.79688 9.59375 3.93359 9.59375 5.05859C9.59375 5.23438 9.62891 5.39844 9.64062 5.45703C9.71094 5.46875 9.82812 5.48047 9.93359 5.48047C10.9297 5.48047 12.1719 4.82422 12.9102 3.93359ZM13.6836 5.72656C12.0312 5.72656 10.6836 6.73438 9.82812 6.73438C8.90234 6.73438 7.70703 5.78516 6.25391 5.78516C3.52344 5.78516 0.757812 8.04688 0.757812 12.3008C0.757812 14.9609 1.77734 17.7734 3.04297 19.5781C4.13281 21.1016 5.08203 22.3672 6.45312 22.3672C7.8125 22.3672 8.41016 21.4648 10.0977 21.4648C11.8086 21.4648 12.1836 22.3438 13.6836 22.3438C15.1719 22.3438 16.168 20.9844 17.0938 19.6367C18.1484 18.0898 18.582 16.5898 18.5938 16.5195C18.5117 16.4961 15.6641 15.3359 15.6641 12.0781C15.6641 9.26562 17.9023 8 18.0312 7.90625C16.5547 5.78516 14.3047 5.72656 13.6836 5.72656Z" fill="#1A1919"/>
</svg>
