<svg width="24" height="20" viewBox="0 0 24 20" fill="none" xmlns="http://www.w3.org/2000/svg">
<path d="M1.11625 10.8839L9.86625 19.6339C10.3544 20.122 11.1456 20.122 11.6338 19.6339C12.1219 19.1458 12.1219 18.3545 11.6338 17.8664L5.0175 11.2502L22 11.2502C22.69 11.2502 23.25 10.6902 23.25 10.0002C23.25 9.31016 22.69 8.75016 22 8.75016L5.0175 8.75016L11.6337 2.13391C12.1219 1.64578 12.1219 0.854531 11.6337 0.366407C11.3894 0.122031 11.07 0.000157467 10.75 0.000157495C10.43 0.000157523 10.1106 0.122031 9.86625 0.366407L1.11625 9.11641C0.628125 9.60453 0.628125 10.3958 1.11625 10.8839Z" fill="#141313"/>
</svg>
