<svg width="13" height="13" viewBox="0 0 13 13" fill="none" xmlns="http://www.w3.org/2000/svg">
<path d="M12.498 5.8735C12.498 8.1425 11.3955 9.547 9.60055 9.547C8.67105 9.547 8.00755 9.1435 7.81305 8.4595H7.67605C7.38055 9.187 6.81855 9.5545 5.98955 9.5545C4.49055 9.5545 3.49605 8.3445 3.49605 6.515C3.49605 4.7645 4.45455 3.5835 5.88155 3.5835C6.66005 3.5835 7.27255 3.958 7.56105 4.6065H7.69805V3.7565H9.35555V7.4155C9.35555 7.927 9.58605 8.2295 9.97555 8.2295C10.6095 8.2295 11.0135 7.387 11.0135 6.047C11.0135 3.4395 9.30555 1.7685 6.64605 1.7685C3.87105 1.7685 1.98305 3.7135 1.98305 6.544C1.98305 9.4105 3.88555 11.2045 6.94155 11.2045C7.60455 11.2045 8.28905 11.118 8.66405 11.003V12.285C8.14505 12.421 7.46755 12.5 6.78255 12.5C3.01355 12.5 0.498047 10.1015 0.498047 6.507C0.498047 2.956 3.02055 0.5 6.66755 0.5C10.1415 0.5 12.498 2.6755 12.498 5.8735ZM5.39155 6.565C5.39155 7.5015 5.78055 8.063 6.43655 8.063C7.09955 8.063 7.50305 7.494 7.50305 6.565C7.50305 5.636 7.09205 5.067 6.43655 5.067C5.78105 5.067 5.39155 5.6285 5.39155 6.565Z" fill="#635D58"/>
</svg>
