<svg width="375" height="253" xmlns="http://www.w3.org/2000/svg" fill="none">
 <defs>
  <clipPath id="clip0">
   <path fill="#fff" d="m186,3l109,0l0,158l-109,0l0,-158z" id="svg_1"/>
  </clipPath>
  <clipPath id="clip1">
   <path fill="#fff" d="m-78,82l147.89,0l0,174.35l-147.89,0l0,-174.35z" id="svg_2"/>
  </clipPath>
  <clipPath id="clip2">
   <path fill="#fff" d="m294,16l140,0l0,358l-140,0l0,-358z" id="svg_3"/>
  </clipPath>
  <clipPath id="clip3">
   <path fill="#fff" d="m5,32l120.96,0l0,349.44l-120.96,0l0,-349.44z" id="svg_4"/>
  </clipPath>
  <clipPath id="clip4">
   <path fill="#fff" d="m43,95l118.68,0l0,357.85l-118.68,0l0,-357.85z" id="svg_5"/>
  </clipPath>
  <clipPath id="clip5">
   <path fill="#fff" d="m244,103l116.21,0l0,163.27l-116.21,0l0,-163.27z" id="svg_6"/>
  </clipPath>
  <clipPath id="clip6">
   <path fill="#fff" d="m134,103l128.4,0l0,166.76l-128.4,0l0,-166.76z" id="svg_7"/>
  </clipPath>
  <linearGradient id="paint0_linear" x1="0.233" y1="1.17155" x2="0.6146" y2="-0.424">
   <stop stop-color="#7779A4"/>
   <stop offset="0.33" stop-color="#696B92"/>
   <stop offset="0.79" stop-color="#4F5172"/>
  </linearGradient>
  <linearGradient id="paint1_linear" x1="0.63377" y1="1.109" x2="0.40847" y2="-0.66534">
   <stop stop-color="#7779A4"/>
   <stop offset="0.58" stop-color="#545678"/>
   <stop offset="0.66" stop-color="#4F5172"/>
  </linearGradient>
 </defs>
 <g>
  <title>Layer 1</title>
  <g id="svg_137">
   <g clip-path="url(#clip0)" id="svg_8">
    <path d="m248.761,129.439l-5.156,3.886l2.211,27.637l49.193,0s-5.975,-32.485 -11.47,-36.116c-2.757,-1.83 -14.792,-4.886 -25.406,-7.348l-5.824,15.827l-3.548,-3.886zm-16.08,0.001l-3.567,3.886l-5.815,-15.922c-10.736,2.481 -23.034,5.594 -25.829,7.442c-5.495,3.632 -11.47,36.117 -11.47,36.117l49.711,0l2.126,-27.637l-5.156,-3.886z" fill="#D84248" id="svg_9"/>
    <path d="m240.716,120.658l9.871,-9.894l0,-6.603c-3.094,1.485 -6.446,2.35 -9.871,2.547c-3.547,-0.208 -7.018,-1.122 -10.209,-2.688l-0.151,6.602l10.36,10.036z" fill="#FFBE9F" id="svg_10"/>
    <path d="m243.605,133.326l5.157,-3.886l-8.046,-8.782l-8.035,8.782l5.156,3.886l-2.126,27.636l10.105,0l-2.211,-27.636z" fill="#fff" id="svg_11"/>
    <path d="m232.671,129.439l8.045,-8.782l-10.359,-10.026l-7.095,6.687l0.037,0.085l5.815,15.922l3.557,-3.886zm8.045,-8.781l8.036,8.782l3.566,3.886l5.787,-15.828l0.066,-0.179l-7.584,-6.555l-9.871,9.894z" fill="#D84248" id="svg_12"/>
    <path d="m276.247,100.021c-3.362,-3.991 -5.548,-8.841 -6.314,-14.007c-3.112,5.355 -7.22,10.061 -12.101,13.865c16.937,19.223 -5.297,61.121 -5.297,61.121l32.933,0c4.197,-14.035 4.611,-44.624 -9.221,-60.979z" fill="#3F1414" id="svg_13"/>
    <path opacity="0.77" d="m230.356,104.057l0,0.849s5.439,5.121 10.351,5.376c4.912,0.255 9.871,-4.886 9.871,-4.886l0,-1.311" fill="#F98D72" id="svg_14"/>
    <path d="m276.529,55.68l0,0.424c-1.298,1.226 -2.672,4.037 -3.764,5.499c0.876,-5.103 1.882,-10.432 0.16,-18.0153c-0.169,-0.5754 -0.348,-1.1508 -0.545,-1.7356c-1.882,-4.7161 -6.389,-5.8668 -11.292,-7.4232c-6.586,-2.1128 -13.493,-0.547 -20.117,-2.2165c-4.159,-1.047 -7.424,-4.7162 -11.574,-5.018c-19.064,-1.2922 -22.677,19.4022 -20.343,34.4086c-1.385,-1.829 -2.642,-3.751 -3.764,-5.753c-4.244,-2.208 -8.949,1.405 -8.111,7.734c1.882,14.535 9.202,12.045 9.202,12.045c12.477,31.278 34.317,31.127 34.317,31.127s21.839,0.16 34.326,-31.127c0,0 7.273,2.49 9.202,-12.045c0.828,-6.131 -3.566,-9.706 -7.697,-7.904z" fill="#FFBE9F" id="svg_15"/>
    <path d="m229.406,34.665c4.15,0.2264 7.415,3.1221 11.574,3.9427c6.586,1.3111 13.502,0.0755 20.117,1.7261c4.874,1.2262 9.41,2.1223 11.292,5.8197c0.216,0.4194 0.393,0.8585 0.527,1.3115l0,0.056c1.722,5.943 0.715,10.121 -0.16,14.149c1.072,-1.151 2.446,-3.349 3.763,-4.311l0,-0.339c0.734,-7.141 3.294,-12.2058 1.816,-19.8648c-1.759,-9.6964 -6.454,-15.6387 -17.878,-19.7512c0.565,-9.8945 -13.512,-15.7802 -24.596,-14.0258c-6.587,1.0375 -10.351,4.0936 -14.049,8.1778c-2.653,2.9617 -2.333,3.2541 -5.532,5.4235c-2.437,1.6507 -5.26,2.6222 -7.528,4.5464c-12.232,10.234 -11.386,24.4578 -3.416,35.6351c1.143,1.593 2.401,3.1 3.764,4.509c-2.371,-11.828 1.242,-28.052 20.306,-27.005z" fill="#3F1414" id="svg_16"/>
    <path d="m228.55,69.177c2.38,0 4.309,-1.934 4.309,-4.32s-1.929,-4.32 -4.309,-4.32s-4.31,1.934 -4.31,4.32s1.93,4.32 4.31,4.32zm25.453,0c2.38,0 4.309,-1.934 4.309,-4.32s-1.929,-4.32 -4.309,-4.32s-4.31,1.934 -4.31,4.32s1.93,4.32 4.31,4.32z" fill="#4D677A" id="svg_17"/>
    <path d="m253.391,81.77c-0.089,3.268 -1.447,6.373 -3.785,8.654c-2.339,2.28 -5.472,3.556 -8.734,3.556c-3.262,0 -6.396,-1.276 -8.734,-3.556c-2.338,-2.281 -3.696,-5.386 -3.785,-8.654" fill="#fff" id="svg_18"/>
    <path d="m223.139,56.189c0.894,-1.047 2.974,-1.792 5.392,-1.792c1.807,-0.09 3.592,0.428 5.072,1.471m15.168,0.321c0.894,-1.047 2.973,-1.792 5.392,-1.792c1.807,-0.09 3.592,0.428 5.071,1.471" stroke="#471C0E" stroke-width="5" stroke-linecap="round" stroke-linejoin="round" id="svg_19"/>
   </g>
   <g clip-path="url(#clip1)" id="svg_20">
    <path d="m-2.6701,82.051c-21.06,0 -37.56,9.08 -43.33,32.12c-4.25,16.94 -0.11,21.93 -2.73,31.41c-2.67,9.63 -3.88,14.14 -2.4,20.43c1.48,6.29 4.44,8.51 0.37,15.54c-4.07,7.03 -3.7,16.65 -1.48,18.87c2.22,2.22 5.92,3.7 3,10s1.48,16.64 10.73,12.2c9.25,-4.44 57.34,-12.57 66.22,-6.66c8.88,5.91 20.72,13.69 24,6.66c3.28,-7.03 -4.81,-19.23 -1.85,-23.67c2.96,-4.44 3.33,-6.66 -0.74,-13.32s-4.81,-10.73 -1.11,-13.69c3.7,-2.96 8.88,-5.18 4.07,-10.36c-4.81,-5.18 -9.62,-8.88 -8.51,-16.65c1.11,-7.77 2.59,-12.95 1.48,-18.87c-1.11,-5.92 -1.8,-43.91 -47.72,-44.01z" fill="#F7A600" id="svg_21"/>
    <path fill-rule="evenodd" clip-rule="evenodd" d="m14.3798,193.15c-0.33,0.52 -32.65,1 -33,1.54c-10.14,14.48 -12.25,13 -29.69,16.85c-17.44,3.85 -29.66,30.13 -29.68,44.81l147.87,0c0,-14.68 -4.94,-40.61 -22.65,-44.57c-17.71,-3.96 -23.22,-3.49 -32.85,-18.63z" fill="#EDEDED" id="svg_22"/>
    <path fill-rule="evenodd" clip-rule="evenodd" d="m-18.5601,158.55l0,41.53c8.5,17.37 23.74008,17.82 33.9101,0l0,-41.53c-0.02,-22.4 -33.9101,-22.4 -33.9101,0z" fill="#FFBE9F" id="svg_23"/>
    <path opacity="0.77" fill-rule="evenodd" clip-rule="evenodd" d="m-18.5601,179.211l0,1.15s10.64006,10.62 16.80006,10.62c6.16,0 17.09004,-10.74 17.09004,-10.74l0,-1l-33.8901,-0.03z" fill="#F98D72" id="svg_24"/>
    <path fill-rule="evenodd" clip-rule="evenodd" d="m-1.57018,187.28c-10.53002,0 -32.77002,-17.36 -39.64002,-42.2c-6.94,-25.1 6.13,-61.09 39.64002,-61.09c33.50998,0 46.57998,36 39.63998,61.09c-6.88,24.84 -29.11997,42.2 -39.63998,42.2z" fill="#FFBE9F" id="svg_25"/>
    <path d="m-39.5402,154.691c-15.26,-40 11.5801,-74.22 36.85005,-72.64c25.26995,1.58 35.26005,11.05 42.11005,36.32c6.85,25.27 -16.32,50 -11.58,40c4.7399,-10 2.6299,-19 -3.6901,-22.11c-6.32,-3.11 -22.09996,-19.47 -22.09996,-19.47c3.15,6.31 10.51996,14.74 10.51996,14.74c-13.67997,-6.32 -26.84,-16.85 -26.84,-16.85s-14.74,9 -12.11,26.32c0,0 -4.21,-1.58 -4.73,-12.63c0,0 -10.56,11.05 -8.43,26.32z" fill="#F7A600" id="svg_26"/>
    <path d="m12.3598,149.75c2.5295,0 4.58,-2.051 4.58,-4.58c0,-2.53 -2.0505,-4.58 -4.58,-4.58c-2.52948,0 -4.58001,2.05 -4.58001,4.58c0,2.529 2.05053,4.58 4.58001,4.58z" fill="#4D677A" id="svg_27"/>
    <path d="m11.7001,163.09c0,3.527 -1.4012,6.91 -3.89547,9.404c-2.49424,2.495 -5.87713,3.896 -9.40451,3.896s-6.91031,-1.401 -9.40452,-3.896c-2.4943,-2.494 -3.8955,-5.877 -3.8955,-9.404" fill="#fff" id="svg_28"/>
    <path d="m6.8002,138.151c-0.51709,0.001 -1.0174,-0.184 -1.41,-0.52c-0.44126,-0.373 -0.71648,-0.906 -0.76523,-1.482c-0.04875,-0.575 0.13295,-1.147 0.50522,-1.588c1.42,-1.68 4.18002,-2.67 7.40001,-2.67c2.4409,-0.105 4.844,0.629 6.81,2.08c0.4376,0.378 0.7071,0.914 0.7493,1.491c0.0422,0.576 -0.1464,1.146 -0.5243,1.584c-0.3779,0.437 -0.9142,0.707 -1.4909,0.749c-0.5767,0.042 -1.1465,-0.146 -1.5841,-0.524c-1.1935,-0.75 -2.5943,-1.1 -4,-1c-1.4457,-0.112 -2.88501,0.284 -4.07,1.12c-0.20047,0.234 -0.44865,0.423 -0.728,0.554c-0.27935,0.131 -0.58346,0.201 -0.892,0.206z" fill="#CA790D" id="svg_29"/>
    <path d="m39.8798,244.801l-32.10001,0l0,11.26l32.10001,0l0,-11.26z" fill="#C4C6C6" id="svg_30"/>
    <path fill-rule="evenodd" clip-rule="evenodd" d="m-4.10016,230.91c18.87996,0 34.17996,-10.26 34.17996,-22.91l0,-0.38c-6,-2.19 -10.1599,-5.72 -15.7199,-14.47c-0.33,0.52 -32.6501,1 -33.0001,1.54c-7.73,11 -10.81,12.77 -19.54,14.7c1.05,12 15.9,21.52 34.08004,21.52z" fill="#FFBE9F" id="svg_31"/>
   </g>
   <g clip-path="url(#clip2)" id="svg_32">
    <path d="m312.119,258.891s11.14,20.11 53.278,17.104c42.137,-3.006 54.169,-18.156 54.169,-18.156s-16.677,-10.206 -46.547,-7.786c-29.869,2.42 -60.9,8.838 -60.9,8.838z" fill="#7EA5A3" id="svg_33"/>
    <path d="m404.578,259.511l-21.532,109.017l-10.503,0l-3.209,-120.333s25.956,-8.838 35.244,11.316z" fill="url(#paint0_linear)" id="svg_34"/>
    <path d="m331.983,31.1322s-20.728,19.1698 -10.269,55.5468c10.459,36.377 -1.698,27.416 0,39.051c1.698,11.635 10.269,20.343 10.269,20.343l74.889,-3.025s-2.187,-9.453 0.346,-16.835c2.533,-7.382 6.244,-28.924 4.23,-37.61c-2.014,-8.686 2.014,-16.92 0,-23.693s1.598,-33.9525 -20.265,-33.7747c-21.863,0.1778 -56.121,-3.5448 -59.2,-0.0031z" fill="#3A1716" id="svg_35"/>
    <path d="m400.357,130.737s-10.66,17.676 -33.93,19.377c-23.27,1.7 -36.998,-17.694 -36.998,-17.694l13.152,-4.748c1.865,-0.359 3.588,-1.243 4.965,-2.547c1.377,-1.304 2.351,-2.974 2.807,-4.812c0.889,-3.578 1.769,-8.186 1.769,-12.408c0,-8.523 12.349,-17.782 19.526,-11.364c7.177,6.418 8.761,12.311 8.761,12.311s-0.236,7.575 -0.278,8.01c-0.039,0.407 -0.356,5.668 1.966,8.93c0.621,0.872 2.773,1.32 4.222,1.527c1.108,0.158 2.206,0.382 3.287,0.673l10.751,2.745z" fill="#F6C0A4" id="svg_36"/>
    <path d="m351.699,112.324s9.99,9.277 13.915,9.006c3.924,-0.272 14.663,-9.006 14.663,-9.006l0.764,-9.89s-6.86,-6.524 -18.048,-1.684l-11.188,4.84l-0.106,6.734z" fill="#ED9C82" id="svg_37"/>
    <path d="m329.006,77.075s14.882,36.406 35.675,39.457c0,0 21.532,-0.737 36.414,-34.512c0,0 21.32,-47.0319 -32.087,-48.2945c-53.406,-1.2626 -40.002,43.3495 -40.002,43.3495z" fill="#F6C0A4" id="svg_38"/>
    <path d="m366.426,23.1308s33.047,-6.3552 38.871,17.3241c3.227,13.1191 1.882,27.6291 -0.825,36.4101c-2.177,7.068 -8.76,22.096 -8.76,22.096s4.222,-17.39 3.483,-31.422c-0.739,-14.032 -12.976,-39.222 -32.769,-44.4082zm-28.237,74.6722c-2.036,-6.764 -5.374,-30.265 -5.374,-30.265s4.213,-35.4506 13.079,-36.1576c0,0 -23.37,-3.7205 -24.139,17.5716c-0.77,21.292 8.066,39.466 13.268,43.485" fill="#3A1716" id="svg_39"/>
    <path d="m345.895,31.3809s0.899,-1.0722 2.488,-2.6504c6.338,-6.2963 23.643,-20.6448 38.576,-7.1022c18.675,16.9379 6.537,28.0907 11.498,31.8787c4.961,3.788 5.966,1.102 5.966,1.102s-4.709,12.693 -10.403,9.899c-5.694,-2.795 -19.151,-23.929 -18.861,-30.4083" fill="#4C2323" id="svg_40"/>
    <path d="m345.895,31.3819s7.916,-14.9104 29.236,-8.1764c21.321,6.7339 11.562,38.2395 18.658,37.3745c7.096,-0.865 10.634,-5.97 10.634,-5.97s-5.741,18.074 -17.464,11.484c-11.723,-6.589 -21.538,-45.1581 -41.064,-34.7121z" fill="#3A1716" id="svg_41"/>
    <path d="m326.579,261.494l19.421,107.14l12.616,0l3.209,-118.264s-25.958,-8.684 -35.246,11.124z" fill="url(#paint1_linear)" id="svg_42"/>
    <path d="m345.894,31.3796s-10.554,6.0279 -10.238,14.2349c0.317,8.2065 1.666,25.1475 -7.505,22.9925c-9.171,-2.155 -2.205,-7.21 -2.205,-7.21s-0.528,5.892 2.639,3.683c3.166,-2.21 -1.317,-14.205 -2.322,-19.4655c-0.845,-4.4191 3.272,-22.8922 19.631,-14.2349zm0.001,0.002s12.048,-12.2494 23.492,-0.0063c11.445,12.2431 7.433,23.7107 9.755,25.0787c4.275,2.518 7.388,-2.42 7.388,-2.42s1.583,4.63 -1.334,6.546c-3.984,2.617 -12.792,2.539 -17.656,-9.26c-4.863,-11.7987 -21.645,-19.9384 -21.645,-19.9384z" fill="#4C2323" id="svg_43"/>
    <path d="m303.887,242.584s-0.528,19.149 7.599,20.517c8.127,1.368 3.969,0 3.969,0l1.064,-21.818l-12.632,1.301z" fill="#F6C0A4" id="svg_44"/>
    <path d="m344.154,31.4628s-0.242,11.2172 5.647,16.6772c4.538,4.208 12.243,1.495 13.298,7.26c2.428,13.249 22.098,5.178 22.098,5.178s-13.39,2.555 -14.023,-7.756c-0.633,-10.3114 -10.133,-22.6218 -27.02,-21.3592z" fill="#3A1716" id="svg_45"/>
    <path d="m314.634,248.332s-4.48,-0.926 -10.249,-2.158c-2.955,-0.631 8.684,-6.699 12.206,-4.348c3.522,2.35 -1.957,6.506 -1.957,6.506z" fill="#ED9C82" id="svg_46"/>
    <path d="m350.433,35.6214s-2.689,-4.7158 -7.178,-4.3139c-3.285,0.2946 -9.419,8.3564 -10.132,12.6261c-1.689,10.1014 3.377,22.6214 -3.378,23.3584c-6.755,0.736 -6.178,-2.783 -6.178,-2.783s-2.265,11.937 9.345,6.255c11.61,-5.682 17.521,-35.1426 17.521,-35.1426z" fill="#3A1716" id="svg_47"/>
    <path d="m345.895,31.3803s4.539,-8.2964 -1.742,-9.0256c-6.28,-0.7291 -4.767,4.5128 -4.767,4.5128s1.637,-5.0778 3.967,-2.582c2.331,2.4957 -0.097,7.0201 -0.097,7.0201l2.639,0.0747z" fill="#3A1716" id="svg_48"/>
    <path d="m333.756,130.843s18.738,16.536 36.836,13.362c18.098,-3.173 26.733,-14.242 26.733,-14.242s11.475,1.09 14.641,3.405c3.167,2.315 2.533,112.793 3.589,114.582c1.055,1.789 4.011,4.735 4.011,9.89c0,2.535 -37.671,14.356 -64.49,14.52c-20.567,0.126 -30.101,-11.142 -39.491,-11.28c-0.603,-0.008 -1.196,-0.156 -1.732,-0.432c-0.536,-0.275 -1,-0.671 -1.357,-1.156c-0.356,-0.485 -0.595,-1.046 -0.697,-1.638c-0.102,-0.592 -0.065,-1.2 0.108,-1.776l2.961,-9.838l1.684,-108.243s7.599,-7.365 17.204,-7.154z" fill="#9CCCCB" id="svg_49"/>
    <path d="m316.552,137.998s-9.394,3.683 -9.816,26.936c-0.422,23.253 -5.594,65.55 -5.594,65.55s-6.966,-0.841 -6.966,2.841c0,3.683 -1.478,9.785 4.116,11.153c5.594,1.368 16.58,1.763 16.58,1.763l1.68,-108.243z" fill="#7EA5A3" id="svg_50"/>
    <path d="m349.316,363.162l5.585,0c1.753,0 3.435,0.695 4.675,1.931c1.24,1.236 1.937,2.913 1.937,4.661l0,2.983c0,0.335 -0.133,0.656 -0.371,0.893c-0.237,0.236 -0.559,0.37 -0.895,0.37l-17.099,0c-0.336,0 -0.658,-0.134 -0.896,-0.37c-0.237,-0.237 -0.371,-0.558 -0.371,-0.893l0,-2.167c0,-0.973 0.193,-1.936 0.566,-2.835c0.374,-0.899 0.922,-1.716 1.612,-2.404c0.691,-0.688 1.51,-1.234 2.412,-1.606c0.902,-0.372 1.869,-0.563 2.845,-0.563zm37.319,10.734l-17.098,0c-0.336,0 -0.658,-0.133 -0.896,-0.369c-0.237,-0.237 -0.371,-0.558 -0.371,-0.893l0,-2.983c0,-1.748 0.697,-3.425 1.937,-4.661c1.24,-1.236 2.922,-1.931 4.676,-1.931l5.586,0c1.971,0 3.862,0.781 5.255,2.17c1.394,1.389 2.177,3.274 2.177,5.238l0,2.167c0,0.335 -0.134,0.656 -0.371,0.893c-0.238,0.236 -0.56,0.369 -0.896,0.369l0.001,0z" fill="#595B7C" id="svg_51"/>
    <path d="m343.571,371.528s1,-4.542 3.816,-5.366c2.816,-0.825 4.943,0 4.943,0s-8.603,2.806 -8.759,5.366z" fill="#fff" id="svg_52"/>
    <path d="m326.499,160.609c5.765,0.042 11.531,-0.035 17.296,-0.232c0.677,-0.023 0.68,-1.076 0,-1.052c-5.763,0.197 -11.529,0.275 -17.296,0.232c-0.68,0 -0.68,1.052 0,1.052zm39.978,-8.67c1.195,0 2.163,-0.966 2.163,-2.157s-0.968,-2.157 -2.163,-2.157c-1.195,0 -2.164,0.966 -2.164,2.157s0.969,2.157 2.164,2.157zm0.051,15.728c1.195,0 2.164,-0.965 2.164,-2.157c0,-1.191 -0.969,-2.156 -2.164,-2.156c-1.195,0 -2.164,0.965 -2.164,2.156c0,1.192 0.969,2.157 2.164,2.157zm-5.987,-19.669l0.527,26.351c0.014,0.677 1.07,0.679 1.056,0l-0.528,-26.351c-0.014,-0.676 -1.069,-0.678 -1.055,0z" fill="#7EA5A3" id="svg_53"/>
    <path d="m353.968,81.863c2.332,0 4.222,-1.885 4.222,-4.209s-1.89,-4.209 -4.222,-4.209c-2.332,0 -4.222,1.885 -4.222,4.209s1.89,4.209 4.222,4.209zm25.174,0.052c2.332,0 4.222,-1.884 4.222,-4.208c0,-2.325 -1.89,-4.209 -4.222,-4.209c-2.332,0 -4.222,1.884 -4.222,4.209c0,2.324 1.89,4.208 4.222,4.208z" fill="#526778" id="svg_54"/>
    <path d="m353.972,79.799c1.168,0 2.115,-0.944 2.115,-2.108c0,-1.165 -0.947,-2.109 -2.115,-2.109c-1.169,0 -2.116,0.944 -2.116,2.109c0,1.164 0.947,2.108 2.116,2.108z" fill="#000" id="svg_55"/>
    <path opacity="0.56" d="m355.491,77.716c0.819,0 1.482,-0.661 1.482,-1.477c0,-0.816 -0.663,-1.477 -1.482,-1.477c-0.818,0 -1.482,0.661 -1.482,1.477c0,0.816 0.664,1.477 1.482,1.477z" fill="#fff" id="svg_56"/>
    <path d="m373.251,99.145l-0.251,0.21l-0.867,0.713c-0.266,0.086 -0.545,0.173 -0.833,0.259c-0.479,0.145 -0.982,0.287 -1.485,0.421c-1.212,0.316 -1.875,0.476 -2.761,0.465c-1.03,-0.012 -3.049,-0.309 -4.444,-0.747c-0.155,-0.047 -0.308,-0.097 -0.46,-0.147c-1.531,-0.501 -2.896,-1.052 -3.377,-1.248c-0.014,-0.028 -0.027,-0.056 -0.041,-0.083l7.121,-0.428c0.535,-0.033 1.073,-0.023 1.607,0.029l5.791,0.556z" fill="#fff" id="svg_57"/>
    <path d="m371.3,100.328c-0.479,0.146 -0.981,0.288 -1.485,0.421c-1.211,0.316 -1.874,0.476 -2.761,0.465c-1.03,-0.012 -3.049,-0.309 -4.443,-0.747c-0.156,-0.047 -0.309,-0.096 -0.461,-0.147c1.456,-0.083 3.238,-0.156 4.856,-0.145c1.513,0.002 3.045,0.073 4.294,0.153z" fill="#3A1716" id="svg_58"/>
    <path d="m374.363,99.253c-0.317,0.132 -1.188,0.48 -2.231,0.814c-0.266,0.085 -0.544,0.173 -0.832,0.259c-0.48,0.145 -0.982,0.287 -1.485,0.421c-2.194,-0.24 -5.018,-0.289 -7.205,-0.282c-0.155,-0.047 -0.308,-0.097 -0.46,-0.147c-1.532,-0.501 -2.897,-1.053 -3.378,-1.248c0.061,0.122 0.129,0.249 0.202,0.383c-0.197,-0.224 -0.323,-0.381 -0.369,-0.437l-0.006,-0.018l-0.006,-0.016l0.035,0l0.089,0.009l0.019,0c1.046,0.099 7.494,0.7 8.339,0.7c1.128,0 4.116,-0.2 5.93,-0.33c0.648,-0.054 1.144,-0.092 1.358,-0.108zm0.103,-0.009c-0.004,0.006 -0.007,0.011 -0.01,0.017l-0.093,-0.009l0.103,-0.008z" fill="#3A1716" id="svg_59"/>
    <path d="m367.208,104.117c-0.112,0 -0.223,0.007 -0.335,0c0.11,0.008 0.222,0.007 0.335,0z" fill="#D6605B" id="svg_60"/>
    <path d="m374.456,99.26c-0.28,0.427 -0.584,0.838 -0.911,1.23c-0.118,0.142 -0.247,0.293 -0.387,0.446c-0.446,0.495 -0.931,0.952 -1.452,1.368c-1.179,0.931 -2.703,1.737 -4.497,1.82l-0.367,0c-1.818,-0.037 -3.572,-0.955 -4.992,-2.006c-0.665,-0.497 -1.295,-1.038 -1.886,-1.621l-0.037,-0.036c-0.402,-0.397 -0.726,-0.751 -0.957,-1.012c-0.073,-0.133 -0.141,-0.261 -0.202,-0.383c0.483,0.199 1.848,0.747 3.378,1.248c0.152,0.051 0.305,0.106 0.46,0.148c1.394,0.437 3.413,0.736 4.443,0.747c0.887,0.01 1.55,-0.154 2.761,-0.465c0.504,-0.13 1.006,-0.272 1.485,-0.421c0.289,-0.087 0.567,-0.174 0.833,-0.259c1.043,-0.335 1.909,-0.682 2.23,-0.815l0.098,0.011z" fill="#D6605B" id="svg_61"/>
    <path d="m358.97,99.45c-0.196,-0.224 -0.323,-0.381 -0.368,-0.437l-0.016,-0.021l0.009,0l0.175,0.073c0.06,0.124 0.127,0.251 0.2,0.385zm15.499,-0.211c-0.004,0.006 -0.007,0.011 -0.01,0.017l-0.093,-0.009l0.078,-0.032l0.025,0.024z" fill="#D6605B" id="svg_62"/>
    <path d="m374.44,99.221l-0.077,0.032l-1.11,-0.105l-5.798,-0.563c-0.534,-0.052 -1.072,-0.062 -1.607,-0.03l-7.121,0.429c-0.008,-0.016 -0.016,-0.032 -0.023,-0.048c0.309,-0.142 1.178,-0.541 2.2,-0.984c1.875,-0.815 4.263,-1.781 4.635,-1.595c1.531,0.763 2.017,-0.485 3.965,0.211c0.851,0.303 1.915,0.857 2.843,1.387c0.519,0.295 0.997,0.582 1.372,0.813c0.345,0.211 0.603,0.377 0.721,0.453z" fill="#D6605B" id="svg_63"/>
    <path d="m358.704,98.932c0.007,0.015 0.015,0.031 0.023,0.047l-0.018,0l-0.117,0.007l-0.009,0l0.008,0l0.028,-0.012l0.085,-0.042zm15.765,0.307c-0.004,0.006 -0.007,0.011 -0.01,0.017l-0.093,-0.009l0.078,-0.032l0.025,0.024z" fill="#D6605B" id="svg_64"/>
    <path d="m359.425,70.698l-6.29,0.21l-4.666,0.4c-0.622,0.058 -1.208,0.317 -1.669,0.736c-0.293,0.258 -0.536,0.421 -0.606,0.077l-0.234,-1.133c-0.14,-0.681 0.192,-1.328 0.739,-1.44l5.87,-1.205l6.111,-1.252c0.546,-0.112 1.108,0.353 1.248,1.033l0.233,1.134c0.141,0.68 -0.191,1.328 -0.736,1.44zm14.516,0.475l6.29,0.211l4.666,0.399c0.622,0.059 1.208,0.317 1.67,0.736c0.292,0.259 0.535,0.421 0.604,0.078l0.235,-1.133c0.14,-0.681 -0.191,-1.329 -0.739,-1.441l-5.873,-1.203l-6.111,-1.252c-0.546,-0.113 -1.106,0.352 -1.246,1.033l-0.235,1.133c-0.138,0.68 0.193,1.328 0.739,1.439z" fill="#3A1716" id="svg_65"/>
    <path d="m362.231,86.531s1.547,1.959 4.057,2.459c2.51,0.5 4.483,-2.459 4.483,-2.459" fill="#ED9C82" id="svg_66"/>
    <path d="m340.375,62.186s-3.37,6.364 -4.222,13.573c-0.852,7.208 0.818,15.256 0,18.518c-0.106,0.421 -7.753,-19.608 -7.465,-22.588c0.287,-2.98 11.687,-9.503 11.687,-9.503z" fill="#3A1716" id="svg_67"/>
    <path d="m347.379,31.1426c1.483,-1.4212 3.235,-2.533 5.155,-3.2701c1.919,-0.7372 3.967,-1.0849 6.023,-1.0228c3.935,0.1389 7.779,1.8939 10.487,4.7348c2.667,2.802 4.059,6.4814 5.066,10.1472c1.021,3.7342 1.689,7.5673 2.962,11.2303c0.616,1.771 1.434,3.987 3.386,4.666c1.569,0.547 3.588,-0.322 3.75,-2.082c0.061,-0.675 -0.996,-0.671 -1.056,0c-0.063,0.692 -0.773,1.077 -1.398,1.168c-0.83,0.119 -1.532,-0.28 -2.078,-0.878c-0.598,-0.65 -0.97,-1.497 -1.281,-2.315c-0.34,-0.89 -0.633,-1.798 -0.904,-2.712c-1.08,-3.661 -1.726,-7.4349 -2.864,-11.0785c-1.103,-3.5301 -2.737,-6.9791 -5.488,-9.538c-2.846,-2.6392 -6.532,-4.1955 -10.414,-4.396c-4.446,-0.2105 -8.895,1.5225 -12.09,4.5948c-0.49,0.4714 0.257,1.2153 0.746,0.7439l-0.002,0.0074zm-9.594,33.3904c-3.4,4.163 -5.344,9.357 -5.671,14.707c-0.166,2.674 0.089,5.357 0.756,7.953c0.701,2.711 1.911,5.249 3.399,7.616c3.09,4.916 7.289,9.103 10.027,14.249c1.1,2.071 1.803,4.547 0.727,6.772c-0.749,1.549 -2.11,2.7 -3.483,3.694c-3.313,2.405 -7.493,4.504 -8.549,8.81c-0.161,0.657 0.856,0.938 1.018,0.28c1.778,-7.228 14.08,-8.032 12.469,-16.71c-0.276,-1.49 -0.967,-2.882 -1.723,-4.181c-0.738,-1.263 -1.551,-2.481 -2.405,-3.669c-1.678,-2.335 -3.504,-4.561 -5.196,-6.886c-1.671,-2.296 -3.244,-4.713 -4.31,-7.354c-1.003,-2.5 -1.576,-5.15 -1.695,-7.839c-0.271,-5.969 1.584,-12.046 5.383,-16.698c0.422,-0.526 -0.316,-1.269 -0.746,-0.744l-0.001,0z" fill="#663030" id="svg_68"/>
    <path opacity="0.38" d="m347.847,92.648c2.943,0 5.33,-2.378 5.33,-5.313c0,-2.935 -2.387,-5.314 -5.33,-5.314c-2.944,0 -5.33,2.379 -5.33,5.314s2.386,5.313 5.33,5.313z" fill="#D65B5D" id="svg_69"/>
   </g>
   <g clip-path="url(#clip3)" id="svg_70">
    <path d="m41.7202,130.8l8.62,-2.37l12.98,7.7l13.97,-3.85l5.18,-3.85l8.47,2.12l-3.03,17.98l-14.96,11.27l-15.39,0l-11.83,-7.67l-1.48,-10.66l-2.53,-10.67z" fill="#FFBE9F" id="svg_71"/>
    <path d="m31.8001,240.36c-0.32,17 -0.48,34.25 -0.6,47.75c0,8.82 -0.33,61.78 -0.39,73.47c7,7 21.74,6.45 29.38,1.87c0,-2.79 0.09,-47 0.12,-69.43l0,-17c-0.15,-5.43 7.65,-4.24 7.65,0c0,45.13 0.2,43.88 -1.19,86c6.62,7.81 25.8,5.6 29,-0.34l0,-121.57c-27.66,-8.51 -44.07,-6.81 -63.97,-0.75z" fill="#4D667A" id="svg_72"/>
    <path d="m35.5599,364.78c-3,5.2 -4.24,9.8 -1.52,15c4.59,1.53 21.36,3.17 25.13,-1.35c1.1,-6.3 1.13,-7.86 -2.63,-13.24c-1.86,-2.67 -15.87,-4.25 -20.98,-0.41zm57.16,0.791c3,5.19 4,8.7 1.92,14.39c-4.59,1.52 -22.2,3 -26,-1.57c-1.1,-6.3 -0.38,-7.73 2.26,-12.23c2.18,-3.64 16.71,-4.43 21.82,-0.59z" fill="#3F1414" id="svg_73"/>
    <path d="m86.9303,129.57l13.9197,3.39c-0.41,55.21 1.88,67.6 4.34,112.36c-28.6097,10.65 -53.8497,9 -81.9097,-5.54c5.73,-34.43 6,-62.43 4.71,-105l18,-5.2c1.63,26.39 39.63,27.22 40.94,-0.01z" fill="#EDEDED" id="svg_74"/>
    <path fill-rule="evenodd" clip-rule="evenodd" d="m50.3198,103.879l0,36.64c8.83,10.45 23.29,10.82 32.12,0l0,-36.67c0.02,-19.77 -32.12,-19.77 -32.12,0.03z" fill="#FFBE9F" id="svg_75"/>
    <path opacity="0.77" d="m50.3203,126.029c4,2.83 10.09,6.34 16,6.55c5.91,0.21 12.1,-3.17 16.1,-5.94l0,-5.28l-32.12,0l0.02,4.67z" fill="#F98D72" id="svg_76"/>
    <path d="m96.49,70.7c-1.64,-13.68 -3,-21.09 -7.1,-31.9c-5.79,-7 -33,-10.7501 -42.64,-0.4501c-5.52,12.0001 -6.91,15.5801 -9.78,32.3901c-1.6,57.19 49.35,86.78 59.52,-0.04z" fill="#FFBE9F" id="svg_77"/>
    <path d="m96.9703,74.759c-0.16,-1.43 -0.32,-2.76 -0.48,-4.06c-1.21,5.16 -2.53,10.62 -3.31,13.27c-1.7077,6.39 -4.1261,12.569 -7.21,18.42c-3.08,-2.22 -11.19,-10.09 -13.88,-8.53c-6,3.46 -6.15,2.59 -10.82,0.21c-2.49,-1.27 -1.91,-1.61 -14.52,8.32c-5.27,-13.7 -8.28,-19.48 -9.78,-31.65c-0.29,1.69 -0.59,3.52 -0.92,5.5c-2.53,16.45 1.74,44.07 17.53,49.33c8.47,2.83 10,2.83 21.55,1.49c21.27,-2.46 24.19,-43.23 21.84,-52.3zm-42.65,35.76c6.68,-9.88 4.17,-6.67 12.07,-6.31c6.92,0.31 4.89,-4.83 14.08,6.31c-6.57,5.07 -18.61,6.73 -26.15,0z" fill="#313131" id="svg_78"/>
    <path d="m36.0503,76.24c5,-5.54 10.7,-33.0501 10.7,-37.8901c-9.75,-6.74 -29.43,19.1701 -10.7,37.8901zm53.3399,-37.4406c-1.74,6.32 4.08,30.7096 7.58,35.9996c14.1098,-7.61 6.7498,-45.7296 -7.58,-35.9996z" fill="#313131" id="svg_79"/>
    <path d="m55.3601,81.74c2.2036,0 3.99,-1.787 3.99,-3.99c0,-2.204 -1.7864,-3.99 -3.99,-3.99c-2.2036,0 -3.99,1.786 -3.99,3.99c0,2.203 1.7864,3.99 3.99,3.99z" fill="#4D677A" id="svg_80"/>
    <path d="m59.1637,65.621l-9.8329,2.859c-1.0553,0.306 -1.6622,1.411 -1.3554,2.466c0.3069,1.055 1.4111,1.662 2.4665,1.355l9.8329,-2.858c1.0553,-0.307 1.6621,-1.411 1.3553,-2.467c-0.3068,-1.055 -1.411,-1.662 -2.4664,-1.355z" fill="#471C0E" id="svg_81"/>
    <path d="m78.8801,81.74c2.2037,0 3.99,-1.787 3.99,-3.99c0,-2.204 -1.7863,-3.99 -3.99,-3.99c-2.2036,0 -3.99,1.786 -3.99,3.99c0,2.203 1.7864,3.99 3.99,3.99z" fill="#4D677A" id="svg_82"/>
    <path d="m86.501,68.869l-10.24,0.512c-1.0991,0.055 -1.9455,0.99 -1.8905,2.089c0.0549,1.1 0.9904,1.946 2.0895,1.891l10.24,-0.512c1.099,-0.055 1.9454,-0.99 1.8905,-2.09c-0.055,-1.099 -0.9905,-1.945 -2.0895,-1.89z" fill="#471C0E" id="svg_83"/>
    <path d="m35.4899,156.97c-18.29,-2.94 -23.29,35.2 -23.47,49c-0.15,12.07 18.79,57.68 18.79,57.68c4.56,-2.3 10.4,1.32 13.09,-13.64c-15.94,-27.7 2.85,-73.04 -8.41,-93.04zm64.6001,2.92c18.4,-2.15 21.75,36.17 21.33,49.93c-0.37,12.07 -21.27,56.81 -21.27,56.81c-4.4601,-2.5 -11.0801,0 -12.5001,-11c17.1301,-26.93 0.33,-76.25 12.4401,-95.74z" fill="#EDEDED" id="svg_84"/>
    <path d="m96.3203,255.74c-18.59,29.56 18.5597,36.88 16.6697,6.77c-3.98,-4.33 -8.52,-7.41 -16.6697,-6.77z" fill="#FFBE9F" id="svg_85"/>
    <path d="m100.37,132.84c28,1.93 25.58,51.93 25.5,71.48c-0.06,12.08 -10,58.76 -10,58.76c-4,1.1 -20.91,1.19 -24.91,-6.65c17.46,-27.76 4.82,-104 9.41,-123.59z" fill="#EDEDED" id="svg_86"/>
    <path d="m35.0199,256.431c20.2,28.5 -16.49,37.86 -16.26,7.69c3.7,-4.54 8.06,-7.87 16.26,-7.69z" fill="#FFBE9F" id="svg_87"/>
    <path d="m31.5001,133.76c-24.64004,2.38 -25.09004,57.08 -26.42004,70.78c-1.17,12 11.11004,59.54 11.11004,59.54c4,1.1 18.44,-4.28 22.44,-12.12c-17.48,-27.76 5.1,-100.02 -7.13,-118.2z" fill="#EDEDED" id="svg_88"/>
   </g>
   <g clip-path="url(#clip4)" id="svg_89">
    <path d="m158.14,249.891l1.22,26.68s-5.66,46.8 -9.82,51.07c-4.16,4.27 -14.38,5.84 -13.63,-6.2s4.94,-66.46 4.94,-66.46l17.29,-5.09z" fill="#F8BCA0" id="svg_90"/>
    <path d="m69.7402,309.41c-0.31,17.3 -0.4799,34.83 -0.5999,48.55c0,9 -0.3401,62.811 -0.4001,74.701c7.13,7.11 22.1,6.559 29.87,1.899c0,-2.84 0.09,-47.8 0.13,-70.59l0,-17.239c-0.15,-5.52 7.7898,-4.31 7.7898,0c0,45.88 0.2,44.609 -1.21,87.489c6.73,7.94 26.23,5.701 29.51,-0.339l0,-123.701c-28.17,-8.66 -44.8498,-6.94 -65.0898,-0.77z" fill="#4E687B" id="svg_91"/>
    <path d="m73.5698,435.91c-3,5.28 -4.31,10 -1.54,15.21c4.66,1.56 21.71,3.22 25.54,-1.38c1.13,-6.4 1.16,-8 -2.67,-13.45c-1.89,-2.7 -16.14,-4.28 -21.33,-0.38zm58.1202,0.801c3,5.28 4.06,8.85 1.95,14.63c-4.66,1.55 -22.57,3 -26.4,-1.6c-1.13,-6.4 -0.39,-7.85 2.29,-12.43c2.19,-3.74 16.97,-4.5 22.16,-0.6z" fill="#461D12" id="svg_92"/>
    <path d="m47.0498,248.881l0,27.69s5.66,46.8 9.83,51.07c4.17,4.27 14.37,5.84 13.62,-6.2s-4.55,-64.6 -4.55,-64.6l-18.9,-7.96z" fill="#F8BCA0" id="svg_93"/>
    <path d="m161.59,251.539c0,-7.69 1,-31.32 -4.3,-36c-3.47,-3.07 -7.64,-7.18 -36.9,-20l-30.74,-0.51c-29.27,12.82 -36.46,19 -39.93,22c-5.35,4.73 -6.48,29.91 -6.72,31.26c9.22,7.14 9.81,8.15 22.78,10.83c-0.81,12.94 -1.14,45.13 -2.37,58.6c28.86,9.39 47.68,10.57 78.46,2.68c-1.08,-19.61 -0.68,-67.27 -0.25,-63c9.01,-1.73 12.04,-1.16 19.97,-5.86z" fill="#CB90C0" id="svg_94"/>
    <path fill-rule="evenodd" clip-rule="evenodd" d="m89.6499,169.01l0,35.09c8.45,10 22.2801,10.35 30.7401,0l0,-35.09c0,-18.94 -30.7401,-18.94 -30.7401,0zm-16.6901,-22.049c2.71,-0.9 6.1599,2.18 7.6999,6.86s0.59,9.2 -2.11,10.09c-2.7,0.89 -6.15,-2.18 -7.7,-6.87c-1.55,-4.69 -0.5899,-9.19 2.1101,-10.08zm63.9702,0c-2.71,-0.9 -6.15,2.18 -7.69,6.86s-0.6,9.2 2.11,10.09c2.71,0.89 6.15,-2.18 7.69,-6.87c1.54,-4.69 0.6,-9.19 -2.11,-10.08z" fill="#F8BCA0" id="svg_95"/>
    <path opacity="0.77" d="m89.6499,186l0,1.11s7.85,9.32 15.3401,9.66c7.49,0.34 15.4,-9 15.4,-9l0,-1.71" fill="#F18C73" id="svg_96"/>
    <path fill-rule="evenodd" clip-rule="evenodd" d="m105.04,106.02c-47.28,0 -29.16,64.77 -26.07,69.73c3.4,5.47 18.43,17.53 26.07,17.53c7.64,0 22.67,-12.06 26.07,-17.53c3.09,-4.96 21.22,-69.73 -26.07,-69.73z" fill="#F8BCA0" id="svg_97"/>
    <path d="m92.2699,155.71c2.4245,0 4.39,-1.966 4.39,-4.39c0,-2.425 -1.9655,-4.39 -4.39,-4.39c-2.4245,0 -4.39,1.965 -4.39,4.39c0,2.424 1.9655,4.39 4.39,4.39z" fill="#4E687B" id="svg_98"/>
    <path d="m98.7347,138.709l-14.2798,1.418c-0.3572,0.036 -0.618,0.354 -0.5826,0.711l0.3043,3.065c0.0355,0.357 0.3539,0.618 0.7111,0.583l14.2798,-1.418c0.3572,-0.035 0.618,-0.354 0.5826,-0.711l-0.3043,-3.065c-0.0355,-0.357 -0.3539,-0.618 -0.7111,-0.583z" fill="#F28F35" id="svg_99"/>
    <path d="m118.15,155.71c2.424,0 4.39,-1.966 4.39,-4.39c0,-2.425 -1.966,-4.39 -4.39,-4.39c-2.425,0 -4.39,1.965 -4.39,4.39c0,2.424 1.965,4.39 4.39,4.39z" fill="#4E687B" id="svg_100"/>
    <path d="m125.346,141.787l-14.256,-1.635c-0.357,-0.041 -0.679,0.215 -0.72,0.572l-0.351,3.06c-0.041,0.356 0.215,0.679 0.572,0.72l14.256,1.634c0.357,0.041 0.679,-0.215 0.72,-0.572l0.351,-3.06c0.041,-0.356 -0.215,-0.679 -0.572,-0.719zm-55.536,-26.488c-3.36,7.63 0.59,28.63 1.37,33.09c1.12,-0.23 3.05,3.35 4.17,3.81c-0.22,-6.69 -1.14,-13.87 2.21,-19.18c1.57,-2.31 -0.95,-9.32 6.53,-8.45l1.11,0.18c-6.14,-3.09 -11.66,-7.71 -17.47,-11.38c0.6528,0.686 1.3475,1.33 2.08,1.93z" fill="#F28F35" id="svg_101"/>
    <path d="m132.31,104.461c-0.28,-10.57 -14.28,-8.92 -23.72,-9.37c-24.6599,-1.17 -49.28,9.44 -40.86,18.29c5.81,3.67 11.33,8.29 17.47,11.38c6.1886,1.034 12.5363,0.54 18.49,-1.44c6.53,-2.11 16.46,-11.33 23.86,-5.34c-1,5.58 0.83,5.7 3.69,11.18c2.85,5.06 2.51,17 2.51,22.69c0.89,-0.23 3.34,-3.64 4,-5.73c1.22,-9.27 2.12,-12.53 3.48,-21.78c3.52,-23.86 -8.92,-19.88 -8.92,-19.88z" fill="#F28F35" id="svg_102"/>
    <path d="m117.98,166.85c0,3.432 -1.363,6.723 -3.79,9.15c-2.427,2.426 -5.718,3.79 -9.15,3.79c-3.432,0 -6.7231,-1.364 -9.1499,-3.79c-2.4267,-2.427 -3.79,-5.718 -3.79,-9.15" fill="#fff" id="svg_103"/>
   </g>
   <g clip-path="url(#clip5)" id="svg_104">
    <path d="m250.41,241.191c-9.75,-26 8.7,-43.41 5.2,-67.12c-13.7,-92.93 89.16,-86.46 93.33,-28.08c1.74,24.45 -6.77,26.87 0.38,49c5.38,16.63 9.47,21.62 3.57,46.18c-28.17,34.09 -95.77,17.82 -102.48,0.02z" fill="#D36A32" id="svg_105"/>
    <path d="m286.8,208.291l1.17,5.16c-2.29,5 13.83,35.37 16.65,40.38c5.64,-11.1 14.36,-27.17 17.22,-40.38l1.35,-5.14c-11.96,-3.05 -31.94,-2.35 -36.39,-0.02z" fill="#FFBE9F" id="svg_106"/>
    <path d="m302.91,216.719l10,-10l0,-8.11c-5.81,2.6 -9.88,2.28 -9.88,2.28c-3.648,0.124 -7.27,-0.659 -10.54,-2.28l-0.15,10.55l10.57,7.56z" fill="#FFBE9F" id="svg_107"/>
    <path opacity="0.77" d="m292.41,199.401l0,0.86s5.52,5.19 10.54,5.46c5.02,0.27 10,-5 10,-5l0,-1.33" fill="#F98D72" id="svg_108"/>
    <path d="m339.33,150.3l0,0.44c-1.32,1.24 -2.72,4.09 -3.8,5.57c0.88,-5.17 1.91,-10.58 0.16,-18.28c-0.17,-0.58 -0.36,-1.16 -0.55,-1.76c-1.91,-4.79 -6.51,-5.95 -11.47,-7.53c-6.73,-2.14 -13.72,-0.55 -20.46,-2.24c-4.22,-1.07 -7.55,-4.81 -11.77,-5.1c-19.39,-1.31 -23.07,19.69 -20.69,34.91c-1.413,-1.848 -2.69,-3.796 -3.82,-5.83c-4.32,-2.24 -9.11,1.43 -8.25,7.85c2,14.75 9.36,12.22 9.36,12.22c12.69,31.73 34.91,31.57 34.91,31.57s22.21,0.16 34.91,-31.57c0,0 7.39,2.53 9.36,-12.22c0.79,-6.23 -3.68,-9.85 -7.89,-8.03z" fill="#FFBE9F" id="svg_109"/>
    <path d="m314.7,128.95c-4.22,0.22 -7.54,3.16 -11.77,4c-7.121,1.513 -14.048,3.824 -20.65,6.89c-5.31,2.45 -12.55,12.41 -11.67,16.46c-1.08,-1.16 -2.52,-5 -3.84,-6c0,-0.11 -2.3,-4.28 -2.31,-4.4c-0.75,-7.24 0.27,-15.31 5.94,-20.85c10.08,-9.86 52.88,-9.08 55.22,-7.12c12.39,10.38 21.7,22.47 13.6,33.81c-1.161,1.616 -2.441,3.144 -3.83,4.57c2.38,-11.93 -1.29,-28.39 -20.69,-27.36z" fill="#D36A32" id="svg_110"/>
    <path d="m290.54,164.02c2.424,0 4.39,-1.965 4.39,-4.39c0,-2.424 -1.966,-4.39 -4.39,-4.39c-2.425,0 -4.39,1.966 -4.39,4.39c0,2.425 1.965,4.39 4.39,4.39zm25.88,0c2.424,0 4.39,-1.965 4.39,-4.39c0,-2.424 -1.966,-4.39 -4.39,-4.39c-2.425,0 -4.39,1.966 -4.39,4.39c0,2.425 1.965,4.39 4.39,4.39z" fill="#4D677A" id="svg_111"/>
    <path d="m315.79,176.779c0,3.377 -1.341,6.614 -3.728,9.002c-2.388,2.387 -5.626,3.728 -9.002,3.728c-3.376,0 -6.614,-1.341 -9.001,-3.728c-2.388,-2.388 -3.729,-5.625 -3.729,-9.002" fill="#fff" id="svg_112"/>
    <path d="m285.08,153.28c-0.366,-0.001 -0.723,-0.107 -1.031,-0.304c-0.308,-0.198 -0.553,-0.479 -0.706,-0.811c-0.153,-0.332 -0.209,-0.701 -0.16,-1.063c0.049,-0.362 0.201,-0.703 0.437,-0.982c1.26,-1.49 3.83,-2.42 6.71,-2.42c2.218,-0.093 4.402,0.574 6.19,1.89c0.386,0.333 0.624,0.805 0.661,1.313c0.038,0.509 -0.128,1.011 -0.461,1.397c-0.333,0.386 -0.805,0.624 -1.313,0.661c-0.509,0.038 -1.011,-0.128 -1.397,-0.461c-1.088,-0.718 -2.378,-1.069 -3.68,-1c-1.347,-0.116 -2.69,0.26 -3.78,1.06c-0.176,0.221 -0.4,0.401 -0.654,0.525c-0.254,0.125 -0.533,0.191 -0.816,0.195zm26.33,0c-0.368,0.003 -0.728,-0.1 -1.038,-0.297c-0.311,-0.197 -0.558,-0.479 -0.712,-0.812c-0.154,-0.334 -0.209,-0.705 -0.157,-1.069c0.051,-0.363 0.206,-0.705 0.447,-0.982c1.26,-1.49 3.83,-2.42 6.71,-2.42c2.218,-0.091 4.401,0.575 6.19,1.89c0.386,0.332 0.624,0.805 0.661,1.313c0.038,0.508 -0.128,1.011 -0.461,1.397c-0.333,0.386 -0.806,0.623 -1.314,0.661c-0.508,0.037 -1.01,-0.129 -1.396,-0.461c-1.089,-0.718 -2.378,-1.069 -3.68,-1c-1.347,-0.118 -2.691,0.258 -3.78,1.06c-0.177,0.221 -0.4,0.401 -0.654,0.525c-0.254,0.125 -0.533,0.191 -0.816,0.195z" fill="#914A1E" id="svg_113"/>
    <path d="m287.65,208.189s14.14,19.39 33.87,0l1.71,11l-7.13,24.4l-12,17.531l-12.1,-15.661l-5.57,-17.19l-6.31,-9.83l7.53,-10.25z" fill="#fff" id="svg_114"/>
    <path d="m360.21,266.19c0.029,-6.277 -0.372,-12.548 -1.2,-18.77c-1.83,-13 -7.49,-30.68 -13.89,-30.68c-3.16,12.78 -4.86,30.94 -5.42,49.45l20.51,0z" fill="#EDEDED" id="svg_115"/>
    <path d="m344.41,266.191c0.19,-13.29 0.38,-29.14 0.72,-49.45c-5.41,-4.75 -12.55,-7.75 -21.93,-8.43l-18.73,45.53l-2.77,-7.14c-1.22,2.3 -2.24,9.44 -3,19.5l45.71,-0.01z" fill="#EDEDED" id="svg_116"/>
    <path d="m301.7,266.189l0,-19.5l-14.9,-38.4c-14.22,1.15 -20.37,3.17 -27.53,8.9l1.23,49l41.2,0z" fill="#EDEDED" id="svg_117"/>
    <path d="m264.49,266.26c-0.43,-18.35 -2,-36.33 -5,-49c-6.39,0 -12.19,17.59 -14.12,30.58c-0.853,6.063 -1.298,12.177 -1.33,18.3l20.45,0.12z" fill="#EDEDED" id="svg_118"/>
    <path d="m332.94,210.39c-2.27,-2.2 -8.26,-3 -11.1,-2.2l-17.37,43.71c-0.61,2.86 -1.35,9.56 0,12.55l23.84,-24.51l-5.41,-8.88l10,-2.51l0.04,-18.16z" fill="#C4C6C6" id="svg_119"/>
    <path d="m287.97,208.191c-3.13,-0.82 -10.86,0.38 -12.27,2l-1.44,21.24l8.3,-1.36l-2.89,9.46l24.8,24.9l0,-12.55l-16.5,-43.69z" fill="#C4C6C6" id="svg_120"/>
    <path d="m267.71,212.029s-12.92,4.89 -15.38,8.34c-2.46,3.45 -6.92,25.54 -7.41,30.49c-0.49,4.95 9.32,3 9.32,3l13.47,-41.83zm70.28,0s8.47,2.85 10.34,4.71c1.87,1.86 6.88,6.35 7.69,17c0.81,10.65 -16.32,-13.34 -16.32,-13.34l-1.71,-8.37z" fill="#EDEDED" id="svg_121"/>
   </g>
   <g clip-path="url(#clip6)" id="svg_122">
    <path d="m253.33,168.8c0,-1.232 -0.298,-2.446 -0.869,-3.538c-0.571,-1.092 -1.398,-2.029 -2.411,-2.732c1.214,-0.792 2.177,-1.913 2.776,-3.233c0.598,-1.321 0.808,-2.784 0.605,-4.219c-0.204,-1.435 -0.813,-2.782 -1.755,-3.884c-0.943,-1.101 -2.179,-1.911 -3.566,-2.334c1.051,-0.953 1.814,-2.182 2.203,-3.546c0.39,-1.364 0.39,-2.81 0.001,-4.175c-0.389,-1.364 -1.152,-2.593 -2.202,-3.547c-1.05,-0.954 -2.346,-1.595 -3.742,-1.852c0.701,-1.155 1.081,-2.477 1.103,-3.829c0.021,-1.351 -0.317,-2.684 -0.981,-3.862c-0.663,-1.177 -1.628,-2.157 -2.795,-2.839c-1.168,-0.681 -2.495,-1.04 -3.847,-1.04l-0.13,0c0.319,-0.864 0.481,-1.778 0.48,-2.7c-0.01,-2.021 -0.823,-3.956 -2.259,-5.38c-1.437,-1.423 -3.379,-2.218 -5.401,-2.21c-0.648,0.009 -1.293,0.096 -1.92,0.26c-0.225,-1.178 -0.726,-2.287 -1.46,-3.235c-0.735,-0.948 -1.684,-1.71 -2.768,-2.223c-1.085,-0.512 -2.276,-0.762 -3.475,-0.727c-1.199,0.034 -2.373,0.351 -3.427,0.925c-0.49,-1.061 -1.217,-1.995 -2.126,-2.729c-0.909,-0.735 -1.975,-1.25 -3.115,-1.506c-1.14,-0.257 -2.324,-0.247 -3.459,0.028c-1.136,0.275 -2.193,0.808 -3.09,1.557c-0.703,-0.998 -1.636,-1.813 -2.721,-2.376c-1.084,-0.562 -2.287,-0.856 -3.509,-0.856c-1.221,0 -2.425,0.294 -3.509,0.856c-1.084,0.563 -2.018,1.378 -2.721,2.376c-0.896,-0.749 -1.954,-1.282 -3.089,-1.557c-1.136,-0.275 -2.32,-0.285 -3.46,-0.028c-1.14,0.256 -2.206,0.771 -3.115,1.506c-0.909,0.734 -1.636,1.668 -2.126,2.729c-1.056,-0.584 -2.236,-0.909 -3.442,-0.948c-1.206,-0.039 -2.404,0.209 -3.496,0.723c-1.092,0.515 -2.046,1.281 -2.783,2.237c-0.738,0.955 -1.237,2.072 -1.459,3.258c-0.627,-0.163 -1.272,-0.25 -1.92,-0.26c-2.022,-0.008 -3.964,0.787 -5.4,2.21c-1.437,1.424 -2.249,3.359 -2.26,5.38c-0.001,0.922 0.162,1.836 0.48,2.7l-0.13,0c-1.353,-0.004 -2.682,0.351 -3.852,1.03s-2.138,1.657 -2.805,2.834c-0.667,1.177 -1.009,2.51 -0.99,3.863c0.019,1.352 0.398,2.676 1.097,3.833c-1.395,0.257 -2.692,0.898 -3.742,1.852c-1.05,0.954 -1.813,2.183 -2.202,3.547c-0.389,1.365 -0.389,2.811 0.001,4.175c0.389,1.364 1.152,2.593 2.203,3.546c-1.386,0.423 -2.623,1.233 -3.566,2.334c-0.942,1.102 -1.551,2.449 -1.754,3.884c-0.204,1.435 0.006,2.898 0.605,4.219c0.598,1.32 1.561,2.441 2.775,3.233c-1.071,0.751 -1.932,1.764 -2.499,2.942c-0.567,1.179 -0.821,2.483 -0.739,3.788c0.083,1.306 0.499,2.568 1.21,3.666c0.71,1.098 1.691,1.995 2.848,2.604c-0.918,0.937 -1.579,2.094 -1.918,3.36c-0.34,1.266 -0.348,2.599 -0.022,3.869c0.326,1.27 0.974,2.434 1.881,3.38c0.908,0.947 2.044,1.643 3.299,2.021c-0.746,1.107 -1.189,2.391 -1.283,3.723c-0.094,1.332 0.163,2.666 0.746,3.867c0.584,1.201 1.473,2.228 2.578,2.977c1.105,0.75 2.387,1.196 3.719,1.293c-0.556,1.076 -0.844,2.27 -0.84,3.48c0,2.021 0.803,3.96 2.232,5.389c1.429,1.429 3.367,2.231 5.388,2.231c0.756,0.001 1.508,-0.113 2.23,-0.34c0.035,1.45 0.482,2.86 1.29,4.064c0.808,1.204 1.943,2.153 3.271,2.734c1.328,0.582 2.795,0.773 4.228,0.55c1.433,-0.223 2.772,-0.85 3.861,-1.808c0.376,0.928 0.93,1.773 1.632,2.486c0.702,0.714 1.538,1.282 2.46,1.672c0.921,0.391 1.911,0.596 2.912,0.604c1.001,0.008 1.993,-0.181 2.921,-0.557c0.928,-0.375 1.773,-0.93 2.486,-1.632c0.714,-0.702 1.282,-1.538 1.672,-2.459c0.391,-0.922 0.596,-1.911 0.604,-2.912c0.008,-1.001 -0.181,-1.994 -0.557,-2.922l10.07,0c-0.358,0.89 -0.541,1.841 -0.54,2.8c-0.002,1.76 0.604,3.467 1.715,4.831c1.112,1.364 2.661,2.302 4.384,2.655c1.724,0.353 3.517,0.099 5.076,-0.718c1.558,-0.818 2.786,-2.149 3.475,-3.768c1.093,0.948 2.432,1.565 3.862,1.779c1.43,0.215 2.891,0.018 4.214,-0.567c1.322,-0.586 2.45,-1.535 3.253,-2.737c0.803,-1.203 1.248,-2.609 1.281,-4.055c0.722,0.227 1.474,0.341 2.23,0.34c1.306,0.001 2.59,-0.335 3.729,-0.974c1.139,-0.638 2.094,-1.559 2.775,-2.674c0.681,-1.114 1.064,-2.385 1.112,-3.689c0.048,-1.305 -0.24,-2.601 -0.836,-3.763c1.332,-0.097 2.615,-0.543 3.72,-1.293c1.105,-0.749 1.993,-1.776 2.577,-2.977c0.583,-1.201 0.841,-2.535 0.746,-3.867c-0.094,-1.332 -0.536,-2.616 -1.283,-3.723c1.255,-0.38 2.39,-1.077 3.296,-2.023c0.906,-0.947 1.553,-2.112 1.878,-3.381c0.325,-1.27 0.316,-2.602 -0.024,-3.868c-0.341,-1.266 -1.002,-2.422 -1.92,-3.358c1.242,-0.642 2.283,-1.613 3.01,-2.807c0.726,-1.194 1.11,-2.565 1.11,-3.963z" fill="#3F1414" id="svg_123"/>
    <path d="m210.23,198.35l-24.27,0l0,27.13l24.27,0l0,-27.13z" fill="#FFBE9F" id="svg_124"/>
    <path d="m247.41,226.529c0.31,0.14 0.59,0.27 0.84,0.4c-0.25,-0.13 -0.53,-0.26 -0.84,-0.4zm0.84,0.401c0.223,0.115 0.44,0.242 0.65,0.38c-0.21,-0.138 -0.427,-0.265 -0.65,-0.38zm-100.09,-0.001c0.25,-0.13 0.53,-0.26 0.84,-0.4c-0.31,0.14 -0.59,0.27 -0.84,0.4zm-0.67,0.381c0.18,-0.12 0.4,-0.25 0.64,-0.38c-0.24,0.13 -0.46,0.26 -0.64,0.38c-6.48,4.27 -13.51,42.45 -13.51,42.45s7.05,-38.18 13.51,-42.45z" fill="#7F3F95" id="svg_125"/>
    <path d="m238.19,258.409c0.75,-13.92 4.46,-24.25 9.21,-31.88c-4.38,-1.93 -14.72,-4.62 -24.79,-7l-4.14,-1l-6.85,18.71l-13.54,-14.75l-13.59,14.79l-6.83,-18.65c-1.68,0.38 -3.377,0.777 -5.09,1.19c-9.69,2.3 -19.39,4.86 -23.61,6.71c4.76,7.63 8.47,18 9.21,31.88c0.233,3.78 0.233,7.571 0,11.35l80,0c-0.231,-3.78 -0.225,-7.571 0.02,-11.35z" fill="#E85652" id="svg_126"/>
    <path d="m198.21,220.62l10.83,-10.46l0,-6.75s-8,-6.67 -10.72,-6.79c-2.72,-0.12 -10.63,6 -10.63,6c6,2 10.86,3.43 10.86,3.43c3.571,0.132 7.134,-0.432 10.49,-1.66c8,-2.81 18.2,-10.18 23.58,-29.16c1.34,-4.74 2.5,-16 2.31,-22.93c0,-8.54 -3.06,-20.92 -15.82,-23.78c-53.62,-14.82 -59.37,12.39 -57.72,23.4c-2.33,5.32 -1.85,14.91 -0.64,19.68c5.41,21.27 18,29.34 26.92,32.41l-0.2,6.25l10.74,10.36z" fill="#FFBE9F" id="svg_127"/>
    <path d="m210.16,210.609l-0.08,0.08l-12,11.58l-11.9,-11.48l-0.18,-0.18l-8.36,7.86l0.06,0.16l6.83,18.65l13.55,-14.75l13.54,14.75l6.85,-18.71l0.04,-0.1l-8.35,-7.86z" fill="#fff" id="svg_128"/>
    <path d="m158.21,258.409c-0.74,-13.92 -4.45,-24.25 -9.21,-31.88c-0.31,0.14 -0.59,0.27 -0.84,0.4c-0.24,0.13 -0.46,0.26 -0.64,0.38c-6.48,4.27 -13.51,42.45 -13.51,42.45l24.18,0c0.24,-3.779 0.246,-7.57 0.02,-11.35zm90.69,-31.1c-0.21,-0.138 -0.427,-0.265 -0.65,-0.38c-0.25,-0.13 -0.53,-0.26 -0.84,-0.4c-4.75,7.63 -8.46,18 -9.21,31.88c-0.238,3.78 -0.238,7.571 0,11.35l24.17,0s-6.99,-38.18 -13.47,-42.45z" fill="#D84248" id="svg_129"/>
    <path opacity="0.77" d="m198.32,205.69c-4.172,-0.167 -8.297,-0.935 -12.25,-2.28l-0.11,2.76c4.06,1.67 9.48,3.68 12.41,3.81c3.08,0.13 7.73,-1.88 11.78,-3.88l0,-2.29c-3.785,1.385 -7.802,2.023 -11.83,1.88z" fill="#F98D72" id="svg_130"/>
    <path fill-rule="evenodd" clip-rule="evenodd" d="m159.49,165.11c2.55,-0.84 5.8,2.06 7.25,6.47c1.45,4.41 0.57,8.68 -2,9.52c-2.57,0.84 -5.8,-2.06 -7.25,-6.47c-1.45,-4.41 -0.57,-8.68 2,-9.52zm75.67,0c-2.55,-0.84 -5.8,2.06 -7.26,6.47s-0.56,8.68 2,9.52c2.56,0.84 5.81,-2.06 7.26,-6.47c1.45,-4.41 0.55,-8.68 -2,-9.52z" fill="#FFBE9F" id="svg_131"/>
    <path d="m186.41,171.28c2.286,0 4.14,-1.854 4.14,-4.14c0,-2.286 -1.854,-4.14 -4.14,-4.14c-2.286,0 -4.14,1.854 -4.14,4.14c0,2.286 1.854,4.14 4.14,4.14zm24.41,0c2.287,0 4.14,-1.854 4.14,-4.14c0,-2.286 -1.853,-4.14 -4.14,-4.14c-2.286,0 -4.14,1.854 -4.14,4.14c0,2.286 1.854,4.14 4.14,4.14z" fill="#471C0E" id="svg_132"/>
    <path d="m210.23,183.311c0,3.182 -1.264,6.234 -3.515,8.485c-2.25,2.25 -5.302,3.515 -8.485,3.515s-6.235,-1.265 -8.485,-3.515c-2.251,-2.251 -3.515,-5.303 -3.515,-8.485" fill="#fff" id="svg_133"/>
    <path d="m181.2,158.84c0.85,-1 2.85,-1.71 5.17,-1.71c1.731,-0.09 3.442,0.403 4.86,1.4m14.57,0.31c0.86,-1 2.85,-1.71 5.17,-1.71c1.731,-0.09 3.442,0.403 4.86,1.4" stroke="#471C0E" stroke-width="5" stroke-linecap="round" stroke-linejoin="round" id="svg_134"/>
    <path d="m160.54,173.411c-15.67,-36.11 11.88,-67 37.81,-65.57c25.93,1.43 36.19,10 43.22,32.79c7.03,22.79 -16.75,45.13 -11.89,36.1c4.86,-9.03 2.7,-17.1 -3.78,-19.95c-6.48,-2.85 -22.69,-17.58 -22.69,-17.58c3.24,5.7 10.81,13.3 10.81,13.3c-14,-5.7 -27.55,-15.2 -27.55,-15.2s-15.13,8.08 -12.43,23.75c0,0 -4.32,-1.42 -4.86,-11.4c0,-0.02 -10.8,9.96 -8.64,23.76z" fill="#3F1414" id="svg_135"/>
   </g>
   <path fill="#fff" d="m0,257l375,0l0,152l-375,0l0,-152z" id="svg_136" opacity="0"/>
  </g>
 </g>
</svg>