<svg width="347" height="312" viewBox="0 0 347 312" fill="none" xmlns="http://www.w3.org/2000/svg">
<path d="M173.454 154.693C173.48 159.249 173.523 179.301 172.466 198.953C171.793 179.355 173.064 159.255 173.379 154.693L173.429 153.988C173.442 153.821 173.448 153.734 173.448 153.734C173.448 153.734 173.448 153.839 173.448 154.054L173.657 154.691L173.454 154.693Z" fill="#EEEDED"/>
<path d="M172.466 198.952C171.793 179.354 173.064 159.254 173.379 154.692H173.319H172.976L173.312 153.668L173.326 153.675L173.446 153.736C173.446 153.736 173.446 153.84 173.446 154.055C173.446 154.212 173.446 154.425 173.446 154.693C173.48 159.248 173.523 179.3 172.466 198.952Z" fill="#EEEDED"/>
<path d="M153.641 65.5805C153.641 65.5805 139.286 86.3217 147.484 107.714C155.682 129.107 142.966 127.996 143.431 134.664C143.896 141.332 202.219 136.401 202.219 136.401C202.219 136.401 197.493 122 199.588 115.68C201.682 109.361 201.723 77.156 195.132 67.5258C188.542 57.8955 153.641 65.5805 153.641 65.5805Z" fill="#C67040"/>
<path d="M164.779 116.976C164.779 116.976 164.965 123.459 160.789 124.755C156.613 126.051 160.046 133.831 171.741 134.942C183.437 136.053 188.356 126.797 186.036 125.403C183.716 124.01 182.922 121.04 182.509 118.921C182.095 116.803 164.779 116.976 164.779 116.976Z" fill="#F6C0A4"/>
<path d="M164.594 106.42L164.686 115.588L165.058 125.311C165.058 125.311 172.95 130.51 182.092 125.154L182.511 120.681L182.418 104.105L164.594 106.42Z" fill="#F6C0A4"/>
<path d="M164.594 108.827L164.686 112.716C164.686 112.716 168.887 117.977 173.821 117.833C178.755 117.688 182.416 112.531 182.416 112.531L182.323 107.809L164.594 108.827Z" fill="#EE9D83"/>
<path d="M153.803 96.0026L153.797 95.9733C153.797 95.9733 151.765 95.2487 150.75 90.7609C149.735 86.2731 152.201 86.271 152.201 86.271C152.201 86.271 150.338 81.1901 151.934 71.9211C153.53 62.6521 191.549 68.017 194.595 70.1878C197.642 72.3586 193.556 85.9818 193.556 85.9818C193.556 85.9818 196.748 82.5079 196.023 89.1665C195.298 95.8251 192.396 96.1153 192.396 96.1153C192.396 96.1153 190.586 102.599 187.615 106.325C180.885 114.765 177.449 115.66 172.951 115.66C168.452 115.66 161.343 109.144 161.343 109.144L160.692 108.518C157.19 105.129 154.79 100.769 153.803 96.0026Z" fill="#F6C0A4"/>
<path d="M187.03 86.1911L184.784 85.4477C184.28 85.3589 176.864 85.0143 176.952 84.5079L177.134 83.4804C177.177 83.2387 177.314 83.0238 177.516 82.8828C177.717 82.7419 177.966 82.6865 178.209 82.7286L186.384 84.1644C186.626 84.2077 186.841 84.3447 186.982 84.5456C187.123 84.7465 187.179 84.995 187.137 85.2367L186.956 86.2642L187.03 86.1911Z" fill="#A45A3B"/>
<path d="M168.018 89.8948C168.018 91.413 166.783 90.7249 165.26 90.7249C163.737 90.7249 162.503 91.413 162.503 89.8948C162.496 89.5291 162.562 89.1656 162.697 88.8256C162.833 88.4856 163.035 88.1759 163.291 87.9147C163.548 87.6536 163.854 87.4461 164.192 87.3044C164.531 87.1628 164.894 87.0898 165.26 87.0898C165.627 87.0898 165.99 87.1628 166.328 87.3044C166.666 87.4461 166.972 87.6536 167.229 87.9147C167.486 88.1759 167.688 88.4856 167.823 88.8256C167.959 89.1656 168.025 89.5291 168.018 89.8948Z" fill="#547871"/>
<path d="M184.705 89.8948C184.705 91.413 183.47 91.1656 181.947 91.1656C180.424 91.1656 179.19 91.413 179.19 89.8948C179.183 89.5291 179.249 89.1656 179.385 88.8256C179.52 88.4856 179.722 88.1759 179.979 87.9147C180.236 87.6536 180.542 87.4461 180.88 87.3044C181.218 87.1628 181.581 87.0898 181.948 87.0898C182.314 87.0898 182.677 87.1628 183.015 87.3044C183.354 87.4461 183.66 87.6536 183.917 87.9147C184.173 88.1759 184.375 88.4856 184.511 88.8256C184.646 89.1656 184.712 89.5291 184.705 89.8948Z" fill="#547871"/>
<path d="M164.966 99.5469H181.526C181.526 99.5469 180.347 108.132 172.944 107.698C165.541 107.263 164.966 99.5469 164.966 99.5469Z" fill="white"/>
<path d="M173.548 71.1032C175.944 71.4018 193.957 96.2674 194.403 91.6376C194.849 87.0078 198.694 83.6937 197.264 73.6384C195.835 63.5831 185.752 56.8765 176.844 57.0624C166.921 57.2712 154.038 61.2808 152.06 68.6379C150.018 76.2311 150.539 84.4684 151.432 85.0657C152.326 85.6629 153.089 93.9859 153.089 93.9859C153.089 93.9859 155.325 91.0404 155.325 87.6051C155.325 84.8756 156.257 83.9505 161.754 78.9699C165.276 75.7825 169.25 73.1316 173.548 71.1032Z" fill="#C67040"/>
<path d="M160.272 86.1623L162.518 85.4178C163.02 85.3301 170.438 84.9855 170.349 84.4843L170.168 83.4568C170.124 83.2152 169.987 83.0005 169.786 82.8596C169.584 82.7187 169.335 82.6631 169.093 82.705L160.917 84.1408C160.675 84.1841 160.46 84.3212 160.319 84.5221C160.178 84.723 160.122 84.9714 160.164 85.2131L160.345 86.2406L160.272 86.1623Z" fill="#A45A3B"/>
<path d="M189.827 153.939C189.948 153.066 190.201 150.884 190.331 147.018C190.362 146.114 190.385 145.113 190.399 144.018C190.424 142.034 190.115 139.673 189.65 137.284C189.427 136.135 189.168 134.987 188.892 133.865C188.484 132.206 188.041 130.614 187.624 129.211C186.72 126.166 185.943 124.016 185.943 124.016C185.814 124.361 185.657 124.695 185.475 125.015C184.487 126.768 183.054 128.232 181.32 129.259C180.878 129.524 180.421 129.763 179.95 129.973C178.399 130.664 176.481 131.161 174.117 131.257C171.663 131.368 169.21 131.013 166.889 130.213C166.459 130.063 166.047 129.904 165.653 129.734C162.189 128.256 160.106 126.161 159.552 125.558C159.447 125.453 159.402 125.39 159.402 125.39C159.402 125.52 159.395 125.653 159.394 125.787C159.377 126.599 159.377 127.479 159.394 128.41C159.394 128.538 159.394 128.665 159.401 128.795C159.465 131.621 159.662 134.882 159.912 138.109C160.008 139.352 160.113 140.591 160.226 141.799C160.32 142.854 160.416 143.887 160.514 144.874C160.926 149.116 161.33 152.583 161.482 153.862L189.827 153.939Z" fill="white"/>
<path d="M214.588 246.339H136.49L136.128 184.493L136.942 154.427L137.465 135.267C138.125 133.909 141.802 131.674 146.17 129.395C149.757 127.525 153.81 125.627 157.041 124.163C158.34 123.574 159.508 123.056 160.458 122.64C162.042 121.943 163.026 121.527 163.026 121.527L163.394 122.675L165.658 129.735L167.037 134.038L168.35 138.132L171.974 149.437L173.323 153.644L174.034 151.48L174.243 150.854L178.512 137.843L179.805 133.901L181.329 129.255L183.567 122.435L183.866 121.523C183.866 121.523 185.959 122.401 188.967 123.734C189.299 123.881 189.642 124.034 189.996 124.192C193.057 125.562 196.832 127.308 200.265 129.054C204.975 131.446 209.037 133.839 209.737 135.264L211.247 154.417L211.279 154.834L211.97 177.868V178.023L214.588 246.339Z" fill="#D2D2D2"/>
<path d="M173.45 154.055L173.659 154.692H173.324H172.981L173.317 153.667V153.648L173.325 153.675L173.446 153.735C173.446 153.735 173.449 153.844 173.45 154.055Z" fill="#EEEDED"/>
<path d="M215.517 154.392L210.3 154.429L209.725 135.27C211.529 138.935 215.517 154.392 215.517 154.392Z" fill="#EEEDED"/>
<path d="M131.738 154.392C131.738 154.392 135.68 138.939 137.46 135.27L136.937 154.43L131.738 154.392Z" fill="#EEEDED"/>
<path d="M173.655 154.697L173.454 154.695H173.379L173.319 154.694L172.978 154.692L173.314 153.667L173.319 153.648L173.328 153.675L173.429 153.989L173.45 154.055L173.654 154.692L173.655 154.697Z" fill="#EEEDED"/>
<path d="M158.477 123.282L162.433 121.365C162.652 121.26 162.891 121.203 163.133 121.199C163.376 121.196 163.616 121.246 163.838 121.345C164.059 121.445 164.255 121.592 164.413 121.776C164.571 121.96 164.687 122.176 164.752 122.41L172.157 149.401C172.561 150.875 170.915 152.058 169.645 151.209C165.309 148.313 158.722 143.824 158.996 143.454C159.402 142.902 163.96 136.98 163.306 136.098C162.801 135.418 159.302 128.594 157.73 125.51C157.631 125.315 157.572 125.102 157.556 124.884C157.54 124.666 157.567 124.447 157.637 124.24C157.706 124.033 157.816 123.842 157.961 123.677C158.105 123.513 158.28 123.379 158.477 123.282Z" fill="#B4B6B6"/>
<path d="M192.911 130.917C192.808 130.917 192.708 130.886 192.623 130.829C192.538 130.771 192.473 130.689 192.435 130.594C189.524 123.201 185.824 122.032 185.786 122.02C185.656 121.982 185.546 121.895 185.48 121.777C185.414 121.659 185.398 121.519 185.435 121.389C185.472 121.259 185.56 121.149 185.678 121.084C185.797 121.018 185.936 121.002 186.067 121.039C186.236 121.087 190.266 122.298 193.386 130.221C193.416 130.299 193.427 130.382 193.418 130.465C193.408 130.547 193.379 130.626 193.332 130.694C193.285 130.763 193.222 130.819 193.149 130.858C193.076 130.897 192.994 130.917 192.911 130.917Z" fill="#494E57"/>
<path d="M189.539 123.935L183.607 120.474C183.5 120.411 183.379 120.374 183.255 120.365C183.131 120.357 183.006 120.376 182.891 120.423C182.776 120.47 182.673 120.543 182.591 120.636C182.508 120.729 182.449 120.84 182.416 120.96L174.002 151.708C173.959 151.866 173.965 152.033 174.019 152.187C174.073 152.341 174.172 152.476 174.304 152.572C174.436 152.669 174.595 152.723 174.759 152.729C174.922 152.734 175.084 152.689 175.222 152.601C179.153 150.075 188.227 144.175 187.914 143.739C187.515 143.182 183.038 137.201 183.704 136.325C184.271 135.583 188.568 127.441 189.848 125.007C189.944 124.823 189.966 124.609 189.908 124.409C189.851 124.21 189.719 124.04 189.539 123.935Z" fill="#B4B6B6"/>
<path d="M195.852 152.725C195.809 152.725 195.766 152.719 195.725 152.707C195.606 152.673 195.506 152.594 195.446 152.487C195.387 152.38 195.372 152.254 195.405 152.136C195.446 151.993 199.411 137.858 195.881 132.685C195.149 131.608 194.158 131.022 192.859 130.893C191.691 130.777 190.827 131.095 190.219 131.864C188.843 133.605 188.754 137.629 189.979 143.501C190.595 146.396 191.375 149.255 192.317 152.063C192.337 152.12 192.345 152.181 192.341 152.242C192.338 152.302 192.322 152.362 192.296 152.416C192.269 152.471 192.232 152.52 192.186 152.56C192.141 152.601 192.088 152.632 192.03 152.652C191.972 152.671 191.911 152.68 191.851 152.676C191.79 152.673 191.73 152.657 191.675 152.63C191.621 152.604 191.572 152.567 191.531 152.521C191.491 152.476 191.46 152.423 191.44 152.365C190.485 149.52 189.694 146.623 189.069 143.687C187.776 137.453 187.918 133.281 189.488 131.291C190.297 130.268 191.462 129.829 192.949 129.971C194.519 130.127 195.76 130.864 196.647 132.164C198.244 134.506 198.667 138.638 197.902 144.434C197.539 147.117 197.003 149.774 196.297 152.388C196.269 152.485 196.211 152.57 196.131 152.631C196.051 152.691 195.953 152.724 195.852 152.725Z" fill="#494E57"/>
<path d="M192.661 153.251C193.247 153.064 193.475 152.143 193.172 151.193C192.868 150.243 192.147 149.624 191.561 149.811C190.975 149.997 190.746 150.918 191.05 151.868C191.354 152.818 192.075 153.437 192.661 153.251Z" fill="#4D515A"/>
<path d="M192.453 153.783C192.07 153.772 191.704 153.624 191.422 153.366C191.02 153.002 190.724 152.535 190.568 152.017C190.172 150.779 190.543 149.594 191.41 149.319C191.863 149.175 192.372 149.307 192.81 149.683C193.205 150.052 193.499 150.517 193.664 151.031C193.829 151.546 193.859 152.095 193.752 152.624C193.612 153.183 193.274 153.586 192.822 153.729C192.703 153.766 192.578 153.785 192.453 153.783ZM191.782 150.277C191.761 150.277 191.741 150.28 191.721 150.285C191.492 150.359 191.303 150.961 191.541 151.703C191.641 152.042 191.83 152.348 192.088 152.59C192.248 152.728 192.402 152.789 192.506 152.756C192.611 152.723 192.705 152.581 192.755 152.376C192.825 152.03 192.801 151.672 192.686 151.338C192.586 150.999 192.397 150.694 192.14 150.452C192.043 150.355 191.917 150.293 191.782 150.276V150.277Z" fill="#4C515C"/>
<path d="M196.501 151.732C196.856 150.8 196.799 149.914 196.374 149.753C195.949 149.592 195.316 150.216 194.961 151.148C194.606 152.08 194.663 152.967 195.088 153.128C195.514 153.289 196.146 152.664 196.501 151.732Z" fill="#4D515A"/>
<path d="M195.226 153.642C195.114 153.642 195.003 153.622 194.899 153.582C194.177 153.309 193.998 152.2 194.48 150.946C194.654 150.466 194.926 150.027 195.278 149.656C195.842 149.1 196.318 149.166 196.552 149.254C197.275 149.528 197.453 150.638 196.97 151.892C196.796 152.372 196.524 152.81 196.172 153.18C195.805 153.543 195.476 153.642 195.226 153.642ZM196.174 150.236C196.014 150.323 195.676 150.663 195.431 151.307C195.186 151.951 195.211 152.431 195.273 152.601C195.434 152.514 195.771 152.174 196.017 151.53C196.263 150.885 196.237 150.407 196.174 150.232V150.236Z" fill="#4C515C"/>
<path d="M153.587 145.788C153.479 145.789 153.373 145.754 153.286 145.69C153.198 145.627 153.133 145.536 153.101 145.433C151.802 141.361 151.545 137.482 152.341 133.917C152.978 131.058 154.287 128.397 156.232 126.008C159.532 121.953 163.471 120.111 163.638 120.035C163.699 120.007 163.764 119.991 163.831 119.989C163.898 119.986 163.965 119.997 164.028 120.02C164.091 120.043 164.149 120.078 164.198 120.123C164.247 120.169 164.287 120.223 164.315 120.284C164.343 120.344 164.359 120.41 164.362 120.477C164.364 120.544 164.354 120.61 164.331 120.673C164.308 120.736 164.272 120.793 164.227 120.842C164.181 120.892 164.127 120.931 164.066 120.959C164.021 120.98 160.146 122.8 157 126.68C155.165 128.945 153.93 131.461 153.332 134.162C152.583 137.543 152.833 141.231 154.074 145.125C154.094 145.189 154.102 145.256 154.096 145.323C154.09 145.389 154.072 145.454 154.041 145.513C154.01 145.573 153.968 145.626 153.917 145.669C153.865 145.712 153.806 145.744 153.742 145.764C153.692 145.78 153.64 145.789 153.587 145.788Z" fill="#494E57"/>
<path d="M154.384 150.917C156.049 150.917 157.4 149.57 157.4 147.908C157.4 146.246 156.049 144.898 154.384 144.898C152.718 144.898 151.367 146.246 151.367 147.908C151.367 149.57 152.718 150.917 154.384 150.917Z" fill="#4D515A"/>
<path d="M154.384 151.428C153.686 151.428 153.004 151.222 152.424 150.835C151.844 150.449 151.392 149.899 151.125 149.256C150.858 148.613 150.789 147.906 150.925 147.223C151.061 146.54 151.397 145.913 151.89 145.421C152.383 144.929 153.012 144.594 153.696 144.458C154.38 144.322 155.089 144.392 155.734 144.658C156.378 144.925 156.929 145.376 157.317 145.955C157.704 146.533 157.911 147.213 157.911 147.909C157.91 148.842 157.538 149.737 156.877 150.397C156.216 151.056 155.319 151.427 154.384 151.428ZM154.384 145.41C153.888 145.41 153.404 145.556 152.991 145.831C152.579 146.106 152.258 146.497 152.068 146.954C151.878 147.411 151.829 147.914 151.926 148.399C152.022 148.884 152.261 149.329 152.612 149.679C152.963 150.029 153.409 150.267 153.896 150.363C154.382 150.46 154.886 150.41 155.344 150.221C155.802 150.031 156.193 149.71 156.469 149.299C156.744 148.888 156.891 148.404 156.891 147.909C156.889 147.247 156.624 146.612 156.155 146.143C155.685 145.675 155.048 145.411 154.384 145.41Z" fill="#4C515C"/>
<path d="M238.395 173.172L218.264 177.533C217.297 177.686 216.325 177.801 215.367 177.867C214.772 177.908 214.185 177.929 213.604 177.929C211.348 177.929 209.235 177.603 207.526 176.802C205.857 175.832 204.662 174.348 203.813 172.619C200.729 166.336 202.223 156.802 202.223 156.802L209.733 135.27C209.733 135.27 214.419 150.336 217.098 159.54L236.191 157.408C242.68 156.375 234.231 158.727 235.588 164.395C236.946 170.064 244.882 172.141 238.395 173.172Z" fill="#B4B6B6"/>
<path d="M207.522 176.8C205.752 175.971 204.418 174.63 203.809 172.617C204.657 174.346 205.853 175.83 207.522 176.8Z" fill="#C5C6C6"/>
<path d="M241.276 153.647C245.943 154.084 247.098 159.254 248.831 163.954C250.659 168.909 244.154 173.117 239.487 172.68C234.82 172.244 230.514 168.824 231.01 163.569C231.506 158.314 236.609 153.211 241.276 153.647Z" fill="#F6C0A4"/>
<path d="M232.07 160.911C232.07 160.911 233.147 153.001 233.365 151.846C233.583 150.691 234.132 147.637 235.113 148.137C238.328 149.776 238.578 155.469 238.578 155.469L232.07 160.911Z" fill="#F6C0A4"/>
<path d="M215.366 177.866C214.215 178.099 212.782 178.139 211.007 177.927C209.781 177.796 208.596 177.412 207.526 176.801C209.234 177.602 211.347 177.927 213.603 177.927C214.181 177.927 214.769 177.907 215.366 177.866Z" fill="#C5C6C6"/>
<path d="M173.655 173.683C174.378 173.683 174.964 173.098 174.964 172.377C174.964 171.655 174.378 171.07 173.655 171.07C172.932 171.07 172.346 171.655 172.346 172.377C172.346 173.098 172.932 173.683 173.655 173.683Z" fill="#C5C6C6"/>
<path opacity="0.38" d="M186.453 180.919C186.382 182.107 182.457 182.703 181.265 182.673L173.737 182.488C173.559 182.488 177.618 181.908 177.678 182.075L178.281 184.155C178.295 184.195 178.299 184.237 178.293 184.279C178.286 184.32 178.27 184.36 178.244 184.393C178.219 184.427 178.185 184.453 178.147 184.471C178.109 184.488 178.066 184.495 178.024 184.492C175.775 184.338 160.204 185.149 147.233 184.995C144.465 184.961 145.23 182.673 143.484 179.618L145.787 173.178C145.804 173.13 145.835 173.089 145.876 173.059C145.917 173.029 145.966 173.012 146.017 173.011C154.809 172.733 167.277 170.996 169.025 170.747C169.083 170.739 169.142 170.751 169.193 170.781C169.243 170.812 169.281 170.859 169.3 170.914L169.907 172.64C169.922 172.685 169.95 172.724 169.987 172.754C170.024 172.784 170.068 172.803 170.115 172.808C170.162 172.814 170.21 172.807 170.253 172.787C170.296 172.767 170.332 172.736 170.358 172.697C170.436 172.592 175.616 165.867 176.268 166.599C176.673 167.053 175.954 169.261 175.346 170.89C175.329 170.934 175.325 170.981 175.334 171.027C175.343 171.073 175.364 171.116 175.396 171.151C175.428 171.185 175.468 171.21 175.514 171.223C175.559 171.236 175.607 171.236 175.652 171.223L177.445 170.725C177.461 170.721 177.478 170.717 177.495 170.716C177.843 170.692 183.45 170.272 184.7 174.833C185.343 177.161 186.533 179.615 186.453 180.919Z" fill="#867554"/>
<path d="M137.46 135.27C137.46 135.27 117.346 176.632 121.794 182.088C126.242 187.543 177.682 182.077 177.682 182.077L172.277 166.691C172.277 166.691 140.509 171.302 140.276 167.552L137.46 135.27Z" fill="#B4B6B6"/>
<path d="M172.272 166.688C172.272 166.688 169.415 175.703 177.678 182.073L172.272 166.688Z" fill="#9E9E9E"/>
<path d="M184.301 178.643L174.181 178.394L173.58 177.492C172.416 175.753 171.799 173.706 171.808 171.615V171.068L173.398 168.666C173.474 168.562 178.655 161.836 179.307 162.567C179.752 163.067 178.841 165.688 178.207 167.328L180.509 166.687C180.509 166.687 184.612 166.285 185.922 171.073C186.56 173.402 186.646 175.27 186.568 176.575C186.531 177.145 186.275 177.679 185.852 178.064C185.43 178.45 184.874 178.658 184.301 178.643Z" fill="#F6C0A4"/>
<path d="M131.998 144.774V151.143L131.475 163.059C131.475 163.059 121.769 167.675 113.081 162.06L111.439 157.459L113.015 141.016L131.998 144.774Z" fill="#F6C0A4"/>
<path d="M132.118 145.203L131.998 147.918C131.998 147.918 126.353 153.719 121.546 153.367C116.739 153.015 112.458 147.167 112.458 147.167L112.633 143.199L132.118 145.203Z" fill="#EE9D83"/>
<path d="M139.115 140.983C140.304 139.761 142.024 132.903 142.024 132.903C142.024 132.903 144.037 132.284 145.22 127.949C146.403 123.613 143.997 123.509 143.997 123.509C143.997 123.509 145.7 113.82 144.542 104.714C143.383 95.608 106.063 99.2124 102.998 101.2C99.9321 103.189 103.665 121.464 103.665 121.464C103.665 121.464 100.7 117.938 101.122 124.465C101.544 130.992 104.367 131.4 104.367 131.4C104.819 134.154 105.457 136.875 106.278 139.544C107.638 143.99 118.104 151.099 122.5 151.292C126.896 151.485 134.091 145.432 134.091 145.432L139.115 140.983Z" fill="#F6C0A4"/>
<path d="M132.243 155.254C132.243 155.254 158.167 168.842 159.951 173.447C161.734 178.053 164.225 207.921 164.225 207.921L124.447 206.179L132.243 155.254Z" fill="#A7CBCA"/>
<path d="M111.275 154.336C111.275 154.336 84.256 165.604 82.0749 170.037C79.8938 174.469 73.6089 203.951 73.6089 203.951L113.387 205.695L111.275 154.336Z" fill="#A7CBCA"/>
<path d="M143.436 124.665C142.788 126.033 140.764 125.776 140.483 124.289C139.895 121.176 139.311 116.917 139.541 113.076C139.556 112.789 139.492 112.503 139.356 112.25C139.219 111.997 139.016 111.786 138.767 111.64C138.518 111.495 138.235 111.421 137.946 111.426C137.658 111.431 137.377 111.515 137.134 111.668C133.748 113.844 127.854 116.566 121.696 114.462C116.563 112.708 113.068 110.985 110.94 109.771C110.697 109.635 110.422 109.565 110.144 109.57C109.865 109.574 109.593 109.653 109.354 109.798C109.116 109.942 108.921 110.147 108.789 110.392C108.656 110.637 108.591 110.912 108.601 111.19C108.742 114.5 108.458 119.725 105.783 123.182C104.953 124.255 103.238 123.828 103.005 122.493L100.104 105.938C100.097 105.897 100.088 105.857 100.078 105.817L100.071 105.793C98.9912 101.573 101.798 97.3581 106.109 96.6793C109.573 96.1395 112.911 94.9844 115.966 93.2691C124.111 88.6748 137.593 94.9241 140.337 97.0281C140.372 97.0542 140.406 97.0803 140.442 97.1054C145.421 100.714 147.778 106.92 146.256 112.872C145.733 114.904 145.314 116.507 145.13 117.049C144.552 118.776 143.741 123.263 143.56 124.273C143.536 124.409 143.495 124.541 143.436 124.665Z" fill="#898C8C"/>
<path d="M127.676 121.386L135.494 121.728C136.072 121.753 136.561 121.306 136.586 120.73L136.618 119.992C136.644 119.416 136.196 118.928 135.619 118.903L127.801 118.561C127.223 118.536 126.734 118.982 126.709 119.558L126.677 120.297C126.651 120.873 127.099 121.361 127.676 121.386Z" fill="#898C8C"/>
<path d="M111.193 122.057L119.003 121.569C119.58 121.533 120.019 121.037 119.982 120.462L119.936 119.724C119.9 119.148 119.403 118.711 118.826 118.747L111.016 119.235C110.439 119.271 110.001 119.766 110.037 120.342L110.083 121.08C110.119 121.655 110.616 122.093 111.193 122.057Z" fill="#898C8C"/>
<path d="M128.428 125.921C128.369 127.295 129.619 127.383 131.104 127.449C132.59 127.516 133.747 127.53 133.808 126.157C133.869 124.784 132.713 123.617 131.228 123.546C129.743 123.475 128.489 124.549 128.428 125.921Z" fill="#485968"/>
<path d="M128.897 139.094L117.229 138.363C117.229 138.363 119.154 143.341 122.831 143.517C126.765 143.712 128.897 139.094 128.897 139.094Z" fill="white"/>
<path d="M132.141 152.555L121.489 164.141L112.107 151.684L109.82 155.545L110.975 205.73L128.545 206.5L134.169 156.612L132.141 152.555Z" fill="white"/>
<path d="M124.358 206.373L117.06 235.318C117.034 235.419 116.974 235.507 116.89 235.567C116.805 235.627 116.702 235.655 116.599 235.646C116.495 235.638 116.398 235.593 116.325 235.519C116.252 235.446 116.208 235.349 116.2 235.245L113.967 205.911C113.963 205.876 113.963 205.841 113.967 205.806L119.41 172.254C119.426 172.151 119.405 172.046 119.351 171.957L117.312 168.608C117.261 168.526 117.24 168.428 117.251 168.332C117.262 168.236 117.305 168.146 117.373 168.077L121.12 164.252C121.163 164.208 121.214 164.174 121.272 164.151C121.329 164.129 121.39 164.119 121.451 164.122C121.511 164.124 121.57 164.139 121.624 164.165C121.678 164.191 121.726 164.228 121.765 164.274L125.35 168.451C125.409 168.52 125.445 168.606 125.453 168.697C125.461 168.788 125.44 168.88 125.393 168.958L123.475 172.158C123.432 172.23 123.41 172.311 123.413 172.394L124.374 206.252C124.374 206.293 124.369 206.334 124.358 206.373Z" fill="#536779"/>
<path d="M136.962 157.599L133.634 155.879L124.436 206.181L133.684 206.581L142.616 180.582L135.906 175.139L144.723 171.379L136.962 157.599Z" fill="#CE88AB"/>
<path d="M106.933 155.718L110.399 154.297L113.935 205.911L105.11 205.473L99.2812 178.118L106.443 173.285L97.9907 168.768L106.933 155.718Z" fill="#CE88AB"/>
<path d="M112.393 125.253C112.332 126.627 113.613 126.698 115.098 126.763C116.583 126.827 117.715 126.867 117.771 125.489C117.828 124.11 116.676 122.949 115.191 122.878C113.706 122.807 112.452 123.88 112.393 125.253Z" fill="#485968"/>
<path d="M131.789 139.774C131.789 139.774 128.021 135.674 122.562 135.439C117.103 135.204 113.666 139.334 113.666 139.334C114.016 139.954 114.585 140.423 115.261 140.649C115.938 140.875 116.674 140.844 117.329 140.56C118.979 139.844 121.168 139.049 122.754 139.052C124.141 139.052 125.84 139.901 127.23 140.779C127.968 141.243 128.86 141.397 129.712 141.209C130.564 141.021 131.307 140.505 131.78 139.774H131.789Z" fill="#898C8C"/>
<path d="M93.4828 204.843L80.935 144.281L80.9099 144.177C80.8629 143.98 80.7397 143.81 80.5673 143.704C80.3949 143.598 80.1873 143.564 79.99 143.61L64.7985 147.199C64.6013 147.246 64.4307 147.369 64.3242 147.541C64.2178 147.713 64.1839 147.921 64.2302 148.118L64.2867 148.358L73.6015 203.976C73.6015 203.976 76.9726 223.498 93.4828 204.843Z" fill="#A7CBCA"/>
<path d="M71.6914 148.205C71.0912 148.338 70.4665 148.312 69.8797 148.128C69.293 147.945 68.7646 147.611 68.3475 147.161C66 144.63 61.396 139.656 60.6602 138.808C59.6638 137.652 59.8962 133.544 61.059 129.736C62.2217 125.928 65.5771 123.269 69.2832 129.066C72.9892 134.862 74.8302 139.428 74.8302 139.428C74.8302 139.428 75.0144 130.782 77.4938 131.701C79.3777 132.401 79.2102 140.632 79.0208 144.553C78.9924 145.14 78.7711 145.703 78.391 146.153C78.0109 146.603 77.493 146.916 76.9171 147.044L71.6914 148.205Z" fill="#F6C0A4"/>
<path d="M105.109 205.473L116.211 235.23L113.934 205.91L105.109 205.473Z" fill="#CE88AB"/>
<path d="M124.436 206.184L117.083 235.332L133.684 206.584L124.436 206.184Z" fill="#CE88AB"/>
<path d="M81.8804 203.318L75.2773 257.404L117.885 256.36L117.083 235.33L104.262 201.496L81.8804 203.318Z" fill="#A7CBCA"/>
<path d="M164.225 207.921L158.733 258.151L117.885 256.361L117.083 235.331L133.684 206.582L164.225 207.921Z" fill="#A7CBCA"/>
<path d="M97.3415 160.604L92.2005 197.913C91.2471 204.834 88.8326 211.16 82.0798 213.007L79.9395 220.4L73.5971 203.956L64.23 148.117C64.23 148.117 69.463 152.755 75.4622 150.092C81.4613 147.429 80.9349 144.281 80.9349 144.281L84.9873 165.401C85.8246 169.027 86.2286 165.819 89.7222 164.517L97.3415 160.604Z" fill="#8BAEAD"/>
<path d="M149.927 165.375C149.927 165.375 156.766 185.442 156.344 195.039C155.922 204.635 158.732 258.159 158.732 258.159C158.732 258.159 160.087 260.627 163.619 248.674C167.151 236.72 169.612 187.875 165.503 178.832C161.394 169.79 149.927 165.375 149.927 165.375Z" fill="#8BAEAD"/>
<path d="M37.4444 213.682C37.4444 213.682 27.7612 214.66 29.8293 210.483C31.8974 206.306 25.0421 206.322 26.9909 202.817C28.9397 199.311 21.94 198.356 23.3508 195.322C24.7617 192.287 18.2696 189.593 21.6407 186.371C25.0118 183.149 18.4517 177.037 24.0081 174.064C29.5645 171.09 23.3623 165.645 28.8172 164.808C34.2722 163.972 33.6902 159.96 38.9076 158.425C44.1249 156.89 40.8155 149.231 48.26 152.254C55.7045 155.277 62.8958 149.303 64.0732 154.564C65.2506 159.824 68.0168 153.297 70.7621 159.68C73.5073 166.063 79.8424 165.274 78.5729 169.374C77.3033 173.475 83.5139 182.442 81.0397 183.128C78.5655 183.814 85.7735 185.579 82.888 190.074C80.0025 194.569 86.8222 200.123 80.6085 201.388C74.3948 202.654 79.0679 208.146 73.1295 208.213C67.191 208.28 71.5125 214.877 64.0575 213.632C56.6025 212.387 57.1384 215.206 53.9442 213.638C50.7499 212.071 53.0702 220.924 48.3281 216.748C43.5859 212.571 41.2258 216.444 39.3398 215.056C37.4538 213.669 37.4444 213.682 37.4444 213.682Z" fill="#6E6E6E"/>
<path d="M49.4092 218.064C49.4092 218.064 50.4862 223.928 46.8722 225.686C43.2583 227.444 47.4688 234.039 58.252 233.413C69.0352 232.786 72.2074 223.692 69.9039 222.753C67.6003 221.814 66.4647 219.222 65.7917 217.355C65.1188 215.488 49.4092 218.064 49.4092 218.064Z" fill="#F6C0A4"/>
<path d="M47.7617 208.495L49.1307 216.812L50.8304 225.596C50.8304 225.596 58.7301 229.219 66.2856 223.077L66.0375 218.956L63.6304 203.906L47.7617 208.495Z" fill="#F6C0A4"/>
<path d="M48.1001 210.689L48.7281 214.21C48.7281 214.21 53.2818 218.404 57.7446 217.584C62.2073 216.765 64.8112 211.57 64.8112 211.57L64.065 207.289L48.1001 210.689Z" fill="#B28D7C"/>
<path d="M36.4984 200.537C36.4921 200.521 36.4879 200.511 36.4879 200.511C36.4879 200.511 34.5412 200.136 32.9891 196.201C31.437 192.265 33.6799 191.92 33.6799 191.92C33.6799 191.92 31.2727 187.563 31.4276 178.918C31.5825 170.273 65.1105 165.323 68.1844 166.871C71.2582 168.42 71.2195 185.891 71.2195 185.891C71.2195 185.891 73.633 182.29 73.9072 188.441C74.1814 194.592 71.5837 195.261 71.5837 195.261C71.5837 195.261 70.8511 201.404 68.6689 205.205C63.7373 213.812 60.7409 215.102 56.6529 215.73C52.5648 216.357 45.1925 211.429 45.1925 211.429L44.5133 210.947C40.8564 208.357 38.064 204.73 36.4984 200.537Z" fill="#F6C0A4"/>
<path d="M65.3145 183.103L63.169 182.739C62.7001 182.729 55.9129 183.45 55.9234 182.981L55.9432 182.023C55.9485 181.797 56.0431 181.582 56.2064 181.426C56.3698 181.269 56.5886 181.184 56.8151 181.188L64.4448 181.353C64.6712 181.358 64.8864 181.452 65.0433 181.615C65.2002 181.778 65.286 181.996 65.2821 182.222L65.2612 183.182L65.3145 183.103Z" fill="#6E6E6E"/>
<path d="M47.1411 202.203L62.1892 199.895C62.1892 199.895 62.32 207.86 55.5349 208.497C48.7497 209.134 47.1411 202.203 47.1411 202.203Z" fill="white"/>
<path d="M57.9872 170.04C59.097 169.847 60.2395 170.009 61.2519 170.502C62.2642 170.995 63.0948 171.794 63.6253 172.785C67.2528 179.572 72.9652 194.209 72.7799 190.909C72.5392 186.639 75.565 183.093 72.8595 174.155C70.154 165.217 60.0532 160.529 51.9818 161.939C42.9956 163.51 31.8514 168.951 31.0842 175.913C30.2919 183.096 31.8472 191.652 32.7462 192.07C33.6453 192.488 35.5721 198.801 35.5721 198.801C35.5721 198.801 37.1901 195.812 36.7097 192.69C36.2293 189.568 33.1806 181.87 42.1165 176.605L57.9872 170.04Z" fill="#6E6E6E"/>
<path d="M38.2577 188.854L40.1939 187.864C40.6377 187.713 47.3287 186.366 47.1779 185.924L46.8702 185.015C46.7971 184.802 46.6422 184.626 46.4394 184.526C46.2367 184.426 46.0025 184.41 45.7881 184.482L38.5602 186.926C38.3464 186.999 38.1702 187.154 38.0702 187.356C37.9703 187.558 37.9545 187.792 38.0264 188.006L38.3404 188.914L38.2577 188.854Z" fill="#6E6E6E"/>
<path d="M46.9086 225.907L30.3586 229.83L31.0986 264.814C31.296 274.193 29.4759 283.506 25.7609 292.124L20.4546 304.434L94.7939 305.681L85.2751 221.375L67.7109 221.148L60.6317 234.972L46.9086 225.907Z" fill="#AAA988"/>
<path d="M46.8722 225.69L60.3577 233.193L67.7111 221.15L71.2036 221.113L61.1646 237.199L43.7993 226.381L46.8722 225.69Z" fill="#E5E2C5"/>
<path d="M23.0776 252.787C23.0776 252.787 32.2344 295.542 52.6537 302.812C68.5977 308.488 54.2236 297.934 48.5447 290.4C42.8658 282.867 35.976 255.864 35.976 255.864L25.3739 252.434L23.0776 252.787Z" fill="#F6C0A4"/>
<path d="M32.7461 192.069C32.7461 192.069 22.0582 169.585 49.8749 165.185C77.6916 160.785 73.4863 185.72 73.4863 185.72C73.4863 185.72 71.2507 164.556 49.2888 168.596C29.0924 172.311 32.7461 192.069 32.7461 192.069Z" fill="#D9D48B"/>
<path d="M32.6803 229.027C32.6803 229.027 23.557 229.034 24.007 240.372C24.4571 251.711 20.458 258.245 20.458 258.245L35.976 255.864L32.6803 229.027Z" fill="#928F64"/>
<path d="M98.57 243.981C98.57 243.981 89.8926 295.95 68.2593 298.786C46.626 301.621 66.749 293.49 72.5504 285.219C78.3517 276.948 85.6089 247.5 85.6089 247.5L96.2843 243.629L98.57 243.981Z" fill="#F6C0A4"/>
<path d="M82.71 221.325C82.71 221.325 91.5925 219.247 93.7579 230.387C95.9234 241.527 101.317 246.973 101.317 246.973L85.6645 248.202L82.71 221.325Z" fill="#928F64"/>
<path d="M47.2397 300.208C47.2397 300.208 54.6058 312.024 58.4876 311.999C62.3695 311.974 63.3271 303.437 55.3844 296.392C47.4417 289.347 47.2397 300.208 47.2397 300.208Z" fill="#F6C0A4"/>
<path d="M70.4104 298.323C70.4104 298.323 60.9114 310.644 57.0296 310.624C53.1477 310.604 52.19 302.062 60.1327 295.018C68.0754 287.974 70.4104 298.323 70.4104 298.323Z" fill="#F6C0A4"/>
<path d="M46.5444 200.58C45.2308 200.907 43.8496 200.837 42.5755 200.381C41.3013 199.924 40.1915 199.101 39.3863 198.015C38.581 196.93 38.1167 195.63 38.0518 194.281C37.987 192.932 38.3246 191.594 39.0219 190.436C39.7193 189.279 40.7451 188.353 41.9696 187.777C43.1941 187.201 44.5624 187 45.9013 187.2C47.2402 187.4 48.4897 187.991 49.4916 188.9C50.4936 189.808 51.2032 190.992 51.5305 192.303C51.967 194.06 51.6873 195.918 50.7526 197.47C49.8179 199.021 48.3046 200.14 46.5444 200.58ZM43.5219 188.478C42.4378 188.749 41.4585 189.333 40.7077 190.159C39.9568 190.985 39.4681 192.014 39.3033 193.116C39.1385 194.219 39.305 195.346 39.7817 196.354C40.2585 197.362 41.0241 198.207 41.9819 198.781C42.9396 199.355 44.0465 199.633 45.1627 199.58C46.2788 199.527 47.3541 199.145 48.2526 198.482C49.1512 197.82 49.8327 196.906 50.211 195.857C50.5893 194.808 50.6475 193.671 50.3782 192.589C50.0137 191.138 49.0872 189.89 47.8019 189.119C46.5166 188.349 44.9774 188.118 43.5219 188.478Z" fill="#575756"/>
<path d="M62.9011 196.814C61.5875 197.141 60.2062 197.072 58.932 196.615C57.6578 196.159 56.5479 195.336 55.7427 194.25C54.9374 193.164 54.473 191.864 54.4082 190.515C54.3434 189.166 54.6811 187.828 55.3786 186.67C56.076 185.513 57.1019 184.587 58.3266 184.011C59.5512 183.435 60.9195 183.235 62.2584 183.435C63.5974 183.635 64.8468 184.226 65.8487 185.135C66.8506 186.043 67.56 187.227 67.8872 188.538C68.3237 190.295 68.0439 192.153 67.1092 193.705C66.1745 195.256 64.6612 196.374 62.9011 196.814ZM59.8785 184.712C58.7946 184.983 57.8152 185.568 57.0643 186.393C56.3134 187.219 55.8247 188.248 55.6598 189.35C55.4949 190.453 55.6613 191.579 56.138 192.588C56.6146 193.596 57.3801 194.441 58.3378 195.015C59.2955 195.589 60.4023 195.868 61.5184 195.815C62.6345 195.762 63.7098 195.38 64.6084 194.717C65.507 194.055 66.1887 193.141 66.5672 192.092C66.9456 191.043 67.004 189.906 66.7349 188.824C66.3704 187.373 65.444 186.125 64.1587 185.354C62.8734 184.583 61.3342 184.353 59.8785 184.712Z" fill="#575756"/>
<path d="M55.2535 191.987L51.0985 193.021C50.9497 193.049 50.7959 193.018 50.6686 192.937C50.5413 192.855 50.45 192.728 50.4133 192.582C50.3766 192.435 50.3972 192.28 50.4711 192.148C50.5449 192.017 50.6664 191.918 50.8106 191.872L54.9657 190.84C55.1174 190.804 55.2768 190.83 55.4097 190.911C55.5426 190.992 55.6383 191.122 55.6761 191.273C55.7138 191.423 55.6907 191.583 55.6116 191.717C55.5326 191.851 55.404 191.948 55.2535 191.988V191.987Z" fill="#575756"/>
<path d="M67.4547 189.257C67.3214 189.291 67.1807 189.277 67.0566 189.218C66.9324 189.159 66.8325 189.059 66.7738 188.935C66.7151 188.811 66.7012 188.671 66.7345 188.538C66.7678 188.405 66.8463 188.288 66.9565 188.206L72.132 184.367C72.1943 184.316 72.2661 184.279 72.3432 184.257C72.4203 184.235 72.501 184.229 72.5806 184.239C72.6601 184.249 72.7368 184.275 72.806 184.315C72.8752 184.356 72.9355 184.41 72.9833 184.474C73.0311 184.538 73.0654 184.611 73.0842 184.689C73.1029 184.767 73.1057 184.847 73.0924 184.926C73.079 185.005 73.0498 185.08 73.0066 185.148C72.9633 185.215 72.9068 185.273 72.8406 185.318L67.663 189.157C67.6007 189.204 67.53 189.238 67.4547 189.257Z" fill="#575756"/>
<path d="M38.9672 196.035C38.8325 196.069 38.6903 196.054 38.5653 195.993L32.5997 193.113C32.4641 193.041 32.3617 192.919 32.314 192.773C32.2663 192.628 32.2771 192.469 32.3439 192.331C32.4108 192.193 32.5286 192.086 32.6727 192.033C32.8167 191.98 32.9759 191.984 33.1167 192.046L39.0824 194.926C39.1922 194.98 39.2829 195.065 39.3421 195.172C39.4014 195.278 39.4264 195.4 39.4137 195.521C39.401 195.643 39.3513 195.757 39.2712 195.849C39.1911 195.941 39.0846 196.006 38.9662 196.035H38.9672Z" fill="#575756"/>
<path d="M45.1653 196.262C46.6098 196.262 47.7807 195.093 47.7807 193.652C47.7807 192.211 46.6098 191.043 45.1653 191.043C43.7208 191.043 42.5498 192.211 42.5498 193.652C42.5498 195.093 43.7208 196.262 45.1653 196.262Z" fill="#411F14"/>
<path d="M60.7117 192.629C62.1561 192.629 63.3271 191.461 63.3271 190.019C63.3271 188.578 62.1561 187.41 60.7117 187.41C59.2672 187.41 58.0962 188.578 58.0962 190.019C58.0962 191.461 59.2672 192.629 60.7117 192.629Z" fill="#411F14"/>
<path d="M217.803 164.722C217.803 164.722 206.716 163.661 209.972 159.43C213.228 155.199 205.531 153.693 208.507 150.193C211.482 146.693 203.837 144.061 206.1 140.97C208.362 137.88 201.68 133.409 206.184 130.543C210.689 127.678 204.696 119.357 211.597 117.259C218.499 115.16 212.758 107.665 219.067 107.942C225.376 108.218 225.623 103.587 231.822 103.027C238.021 102.466 236.022 93.1333 243.7 98.186C251.378 103.239 260.788 98.1348 260.931 104.302C261.075 110.468 265.641 103.759 267.294 111.532C268.946 119.306 276.232 119.833 273.887 124.153C271.543 128.473 276.504 139.92 273.573 140.139C270.643 140.358 278.337 143.944 274.097 148.346C269.856 152.748 276.263 160.501 269.006 160.537C261.749 160.572 265.761 167.778 259.083 166.53C252.405 165.283 255.776 173.648 247.688 170.59C239.599 167.532 239.569 170.815 236.335 168.344C233.101 165.874 233.719 176.336 229.335 170.583C224.952 164.829 221.432 168.658 219.626 166.681C217.82 164.703 217.803 164.722 217.803 164.722Z" fill="#524452"/>
<path d="M197.791 195.98C197.791 195.98 196.012 239.594 217.179 246.241C238.347 252.888 219.146 238.514 214.951 229.824C210.756 221.133 210.121 201.641 210.121 201.641L200.166 196.085L197.791 195.98Z" fill="#D7AA91"/>
<path d="M231.173 166.379C231.173 166.379 231.08 172.48 227.1 173.526C223.12 174.572 226.027 182.026 236.974 183.55C247.92 185.075 252.928 176.574 250.805 175.173C248.681 173.772 248.059 170.943 247.758 168.935C247.457 166.927 231.173 166.379 231.173 166.379Z" fill="#D7AA91"/>
<path d="M231.436 156.446L231.144 165.066L231.09 174.222C231.09 174.222 238.294 179.433 247.103 174.774L247.679 170.588L248.278 155.004L231.436 156.446Z" fill="#D7AA91"/>
<path d="M231.337 158.709L231.262 162.364C231.262 162.364 234.993 167.48 239.635 167.548C244.277 167.616 247.933 162.919 247.933 162.919L248.037 158.477L231.337 158.709Z" fill="#B28D7C"/>
<path d="M221.724 146.21C221.724 146.192 221.724 146.183 221.724 146.183C221.724 146.183 219.84 145.419 219.076 141.159C218.312 136.898 220.625 137.001 220.625 137.001C220.625 137.001 219.076 132.147 220.96 123.502C222.843 114.856 257.486 116.571 260.265 118.737C263.044 120.904 259.5 138.432 259.5 138.432C259.5 138.432 262.64 135.3 261.687 141.527C260.735 147.755 257.989 147.909 257.989 147.909C257.989 147.909 256.02 153.929 253.07 157.306C246.396 164.962 243.128 165.66 238.903 165.476C234.677 165.292 228.261 158.875 228.261 158.875L227.675 158.256C224.527 154.925 222.454 150.729 221.724 146.21Z" fill="#D7AA91"/>
<path d="M253.36 138.357L251.279 137.564C250.811 137.46 243.854 136.833 243.953 136.363L244.163 135.406C244.213 135.18 244.351 134.984 244.546 134.86C244.741 134.736 244.978 134.694 245.204 134.743L252.828 136.429C253.055 136.48 253.253 136.618 253.377 136.814C253.502 137.01 253.544 137.247 253.493 137.473L253.284 138.431L253.36 138.357Z" fill="#524452"/>
<path d="M235.338 141.053C235.275 142.481 234.353 142.704 232.921 142.641C231.49 142.578 230.096 142.253 230.155 140.826C230.185 140.14 230.487 139.495 230.994 139.031C231.246 138.802 231.54 138.624 231.86 138.507C232.18 138.391 232.52 138.339 232.86 138.354C233.2 138.369 233.534 138.451 233.843 138.594C234.152 138.738 234.429 138.941 234.659 139.191C234.889 139.442 235.068 139.735 235.184 140.055C235.301 140.374 235.353 140.713 235.338 141.053Z" fill="#4C3D33"/>
<path d="M251.022 141.74C250.959 143.169 249.858 143.202 248.427 143.14C246.997 143.079 245.776 142.941 245.839 141.514C245.869 140.828 246.171 140.182 246.679 139.719C246.93 139.489 247.224 139.311 247.544 139.195C247.864 139.079 248.204 139.027 248.544 139.042C248.885 139.056 249.219 139.138 249.527 139.282C249.836 139.425 250.113 139.628 250.343 139.879C250.573 140.129 250.752 140.423 250.868 140.742C250.985 141.062 251.037 141.401 251.022 141.74Z" fill="#4C3D33"/>
<path d="M232.073 150.004L247.639 150.686C247.639 150.686 246.174 158.707 239.238 157.995C232.302 157.283 232.073 150.004 232.073 150.004Z" fill="white"/>
<path d="M249.4 119.889C250.552 119.916 251.667 120.306 252.584 121.002C253.501 121.699 254.175 122.666 254.509 123.767C256.791 131.302 259.594 147.132 260.069 143.782C260.682 139.449 264.429 136.493 263.503 126.982C262.577 117.471 253.378 110.753 244.995 110.56C235.66 110.351 223.385 113.588 221.221 120.42C218.988 127.474 218.834 136.372 219.651 136.97C220.468 137.568 221.142 144.289 221.142 144.289C221.142 144.289 223.364 141.611 223.507 138.383C223.649 135.154 222.13 126.814 232.154 123.315L249.4 119.889Z" fill="#524452"/>
<path d="M228.211 137.23L230.352 136.623C230.829 136.561 237.815 136.542 237.752 136.067L237.624 135.094C237.593 134.865 237.473 134.658 237.289 134.517C237.106 134.376 236.874 134.314 236.645 134.343L228.9 135.357C228.67 135.387 228.463 135.507 228.321 135.69C228.18 135.873 228.118 136.104 228.147 136.333L228.276 137.306L228.211 137.23Z" fill="#524452"/>
<path d="M278.321 199.119C278.231 200.308 278.059 202.217 277.755 204.604C276.167 217.072 270.952 242.553 254.68 246.136C233.015 250.907 253.399 238.272 258.343 229.977C262.388 223.19 264.693 209 265.397 204.062C265.553 202.964 265.632 202.324 265.632 202.324L276.036 197.66L277.815 197.738C277.981 198.223 278.149 198.683 278.321 199.119Z" fill="#D7AA91"/>
<path d="M227.09 173.751L209.692 174.39L193.233 262.069L278.32 270.602L266.509 176.85L248.925 173.121L239.052 185.585L227.09 173.751Z" fill="#AB71A6"/>
<path d="M227.1 173.525L239.133 183.743L248.926 173.121L252.438 173.781L239.141 187.924L223.877 173.606L227.1 173.525Z" fill="#E3C3DE"/>
<path d="M219.653 136.971C219.653 136.971 213.428 112.272 242.23 113.401C271.031 114.53 261.817 138.718 261.817 138.718C261.817 138.718 263.806 117.03 240.958 116.708C219.943 116.407 219.653 136.971 219.653 136.971Z" fill="#D7ACD1"/>
<path d="M212.187 174.046C212.187 174.046 203.029 172.233 201.21 183.704C199.391 195.176 194.068 200.933 194.068 200.933L210.12 201.637L212.187 174.046Z" fill="#AD84A9"/>
<path d="M281.27 204.758L265.217 204.055L265.583 176.385C265.583 176.385 274.865 175.381 275.67 186.967C275.972 191.338 276.844 194.942 277.812 197.737C277.98 198.225 278.149 198.685 278.321 199.118C279.779 202.832 281.27 204.758 281.27 204.758Z" fill="#AD84A9"/>
<path d="M113.146 158.375C113.146 158.375 87.1132 162.644 94.6948 184.486C102.276 206.329 109.243 204.108 109.243 204.108L106.226 188.991L114.048 170.03L113.146 158.375Z" fill="#455664"/>
<path d="M113.915 206.03L114.822 211.938L117.013 222.919C117.013 222.919 126.678 225.821 133.936 219.369L134.801 214.868L130.988 199.832L113.915 206.03Z" fill="#F4CA8E"/>
<path d="M113.861 206.442L114.362 208.948C114.362 208.948 120.432 213.528 124.838 212.517C129.244 211.506 132.384 205.471 132.384 205.471L131.652 201.816L113.861 206.442Z" fill="#D4AE76"/>
<path d="M106.769 203.525C105.492 202.561 102.915 196.443 102.915 196.443C102.915 196.443 100.959 196.155 99.2406 192.302C97.522 188.449 99.7398 188.007 99.7398 188.007C99.7398 188.007 96.7748 179.26 96.5466 170.642C96.3184 162.023 129.096 161.48 132.226 162.888C135.357 164.295 136.868 180.364 136.868 180.364C136.868 180.364 139.115 176.671 139.657 182.787C140.199 188.904 137.642 189.679 137.642 189.679C137.617 192.3 137.414 194.916 137.035 197.51C136.407 201.83 127.71 209.916 123.666 210.719C119.622 211.522 112.061 206.934 112.061 206.934L106.769 203.525Z" fill="#F4CA8E"/>
<path d="M113.923 181.651L106.92 183.392C106.359 183.532 106.018 184.098 106.157 184.658L106.294 185.207C106.434 185.766 107.002 186.107 107.563 185.968L114.566 184.227C115.127 184.087 115.469 183.521 115.329 182.961L115.192 182.412C115.052 181.853 114.484 181.512 113.923 181.651Z" fill="#455664"/>
<path d="M129.554 179.162L122.359 179.727C121.783 179.772 121.352 180.275 121.398 180.85L121.442 181.414C121.487 181.989 121.991 182.418 122.568 182.373L129.763 181.808C130.339 181.763 130.769 181.26 130.724 180.685L130.679 180.121C130.634 179.546 130.13 179.116 129.554 179.162Z" fill="#455664"/>
<path d="M114.478 188.212C114.687 189.25 114.097 189.538 112.728 189.811C111.359 190.083 109.727 190.235 109.52 189.197C109.313 188.159 110.252 187.097 111.624 186.825C112.995 186.554 114.27 187.174 114.478 188.212Z" fill="#411F14"/>
<path d="M129.48 185.232C129.689 186.27 128.727 186.485 127.358 186.753C125.989 187.021 124.729 187.254 124.522 186.216C124.315 185.178 125.254 184.117 126.627 183.845C127.999 183.574 129.276 184.194 129.48 185.232Z" fill="#411F14"/>
<path d="M114.415 197.695L129.303 194.738C129.303 194.738 129.783 202.668 123.052 203.598C116.32 204.528 114.415 197.695 114.415 197.695Z" fill="white"/>
<path d="M113.159 158.364C121.91 157.062 126.013 157.717 127.934 158.579C129.104 159.101 130.898 159.763 131.622 160.819C135.872 167.008 133.677 164.082 134.842 166.29C136.263 168.984 138.086 181.565 138.121 185.439C138.123 185.69 138.037 185.934 137.877 186.128C137.717 186.322 137.493 186.453 137.246 186.498L135.7 186.784C135.7 186.784 135.744 187.661 134.458 180.578C133.171 173.494 130.415 173.031 129.164 171.211C128.431 170.15 128.336 169.227 128.381 168.635C128.397 168.392 128.33 168.151 128.192 167.95C128.053 167.75 127.851 167.602 127.618 167.531C125.581 166.891 129.343 169.097 125.17 172.452C120.356 176.315 108.019 177.099 105.044 176.803C102.068 176.508 101.553 178.382 101.821 179.72C102.089 181.059 101.989 183.104 101.279 185.269C100.773 186.817 102.012 190.213 102.765 192.026C102.825 192.172 102.852 192.329 102.844 192.486C102.836 192.644 102.793 192.797 102.719 192.936C102.644 193.075 102.54 193.196 102.413 193.29C102.286 193.384 102.14 193.449 101.985 193.479C101.769 193.522 101.545 193.497 101.344 193.408C101.143 193.32 100.974 193.172 100.86 192.984C98.713 189.48 95.7312 179.283 95.7071 176.197C95.7069 176.081 95.6874 175.965 95.6495 175.855C95.1022 174.275 91.4391 161.597 113.159 158.364Z" fill="#455664"/>
<path d="M89.8447 305.707C89.8447 305.707 91.7956 305.742 101.912 305.707C112.029 305.673 151.136 302.532 164.306 303.097C177.475 303.662 179.761 299.096 179.761 299.096C179.761 299.096 177.854 254.278 167.62 251.065C157.386 247.851 150.665 231.77 150.665 231.77L99.3134 244.4C99.3134 244.4 94.8611 271.676 93.2839 280.256C91.7066 288.836 89.8447 305.707 89.8447 305.707Z" fill="#464476"/>
<path d="M109.768 222.16L116.299 219.356C116.299 219.356 122.738 222.593 127.378 220.631C132.019 218.669 134.799 214.876 134.799 214.876L138.399 214.203C138.399 214.203 155.445 238.63 159.927 251.446C164.408 264.262 159.457 303.383 159.457 303.383L101.94 305.731C101.94 305.731 112.208 278.298 107.235 263.609C102.263 248.919 99.3115 244.405 99.3115 244.405L109.768 222.16Z" fill="#CE88AB"/>
<path d="M100.538 225.596L109.768 222.16C109.768 222.16 108.449 251.128 101.971 259.139C95.4924 267.15 89.8449 305.709 89.8449 305.709L83.7244 298.685C71.8977 292.547 71.9637 289.183 85.6564 277.951C93.9246 271.164 92.5159 254.439 92.6101 252.301C92.8058 247.852 100.538 225.596 100.538 225.596Z" fill="#565690"/>
<path d="M138.401 214.196C138.401 214.196 144.922 227.321 148.808 235.783C152.694 244.245 156.377 252.415 159.308 267.032C162.058 280.754 173.25 303.085 173.25 303.085C173.25 303.085 195.418 255.443 184.376 249.052C173.334 242.661 168.893 251.337 162.683 242.64C156.474 233.943 153.501 225.933 153.501 225.933C153.501 225.933 182.312 198.089 202.731 183.732C215.977 174.417 197.526 158.008 197.526 158.008L138.401 214.196Z" fill="#565690"/>
<path d="M40.0181 274.644C40.0181 274.644 45.5148 295.062 66.3297 278.698C86.7385 262.657 94.249 258.384 97.2664 255.925C99.9436 253.743 101.139 231.074 101.373 226.001C101.377 225.913 101.356 225.827 101.312 225.752C101.268 225.676 101.203 225.615 101.125 225.576C101.046 225.536 100.959 225.521 100.872 225.53C100.785 225.539 100.702 225.574 100.634 225.629L40.0181 274.644Z" fill="#6061A3"/>
<path d="M197.526 158.012C197.526 158.012 188.027 165.255 195.365 174.509C202.703 183.764 206.935 178.843 206.935 178.843C206.935 178.843 212.114 172.402 197.526 158.012Z" fill="#464476"/>
<path d="M200.09 172.017C200.601 172.472 201.222 172.786 201.892 172.926C202.562 173.066 203.258 173.029 203.909 172.817C207.572 171.628 214.758 169.287 215.945 168.856C217.542 168.272 219.554 164.151 220.498 159.816C221.442 155.482 219.626 151.077 212.857 154.7C206.089 158.323 201.815 161.769 201.815 161.769C201.815 161.769 206.344 153.26 203.432 152.811C201.219 152.471 196.898 160.567 194.947 164.483C194.654 165.07 194.563 165.737 194.688 166.381C194.812 167.026 195.146 167.611 195.637 168.048L200.09 172.017Z" fill="#F5D5AF"/>
<path d="M40.0181 274.644C40.0181 274.644 52.7532 269.16 57.7989 283.833C57.7989 283.838 45.2898 288.871 40.0181 274.644Z" fill="#464476"/>
<path d="M52.6745 279.114C53.1606 279.596 53.5112 280.197 53.6914 280.857C53.8716 281.516 53.875 282.212 53.7012 282.873C52.73 286.59 50.8157 293.888 50.4567 295.09C49.968 296.715 45.9636 298.964 41.6841 300.162C37.4045 301.36 32.8874 299.814 36.1151 292.863C39.3428 285.912 42.5308 281.445 42.5308 281.445C42.5308 281.445 34.2867 286.463 33.6639 283.588C33.1919 281.406 41.0352 276.619 44.8375 274.443C45.4076 274.117 46.0694 273.987 46.7211 274.073C47.3727 274.158 47.9781 274.455 48.4441 274.918L52.6745 279.114Z" fill="#F5D5AF"/>
<path d="M116.299 219.356C116.299 219.356 123.027 222.459 127.378 220.631C131.729 218.802 134.798 214.875 134.798 214.875L136.765 214.508C136.765 214.508 134.442 221.448 128.706 222.735C122.971 224.021 117.682 221.943 114.938 220.4L114.514 220.117L116.299 219.356Z" fill="#A56A8A"/>
<g opacity="0.82">
<path opacity="0.82" d="M91.694 49.791L88.5542 55.1162C87.2983 55.325 86.147 55.2206 84.8911 55.0118C84.4724 54.9074 84.0538 54.803 83.5305 54.6985C81.0186 53.9676 78.9254 52.5058 77.2508 50.4175C75.8902 48.6424 75.3669 46.6585 74.3203 44.6746C74.111 44.4658 74.0064 44.257 73.797 43.9437C72.4364 42.1686 70.3432 41.4377 68.25 41.2289C67.0988 41.2289 65.9475 41.2289 64.9009 41.6466C65.7382 39.7671 66.9941 38.0964 67.936 36.2169C70.5526 36.0081 73.0644 36.5302 75.4716 37.6788C77.6695 38.8273 79.344 40.8112 80.4953 43.004C81.1233 44.257 81.4373 45.5099 82.1699 46.6585C82.7724 47.5729 83.5559 48.3546 84.4724 48.9557C86.6703 50.3131 89.2868 50.4175 91.694 49.791Z" fill="#A7CBCA"/>
</g>
<g opacity="0.82">
<path opacity="0.82" d="M46.1667 128.627C44.1781 129.149 42.0849 129.462 40.0964 129.985C36.5379 126.956 34.7587 121.944 36.1193 117.35C36.7472 115.471 37.7938 113.904 38.2125 112.025C38.4218 110.876 38.4218 109.832 38.1078 108.788C37.6892 107.431 36.9565 106.387 36.1193 105.342C35.4913 104.507 34.654 104.194 33.9214 103.463C35.9099 102.941 38.0031 102.628 39.9917 102.105C41.0383 103.045 41.8756 104.194 42.7129 105.447C43.7595 107.222 44.1781 109.101 44.3874 111.085C44.4921 112.756 44.1781 114.322 43.5502 115.888C42.6082 117.977 41.4569 119.961 41.7709 122.362C42.0849 124.45 43.0269 126.226 44.7014 127.583C45.0399 127.793 45.3556 128.038 45.6434 128.314C45.803 128.441 45.979 128.546 46.1667 128.627Z" fill="#D96159"/>
</g>
<g opacity="0.82">
<path opacity="0.82" d="M85.8336 91.6642C85.3103 91.9774 84.6823 91.9774 84.0543 92.1863C82.5891 92.6039 81.1238 92.6039 79.7632 93.2304C78.5073 91.6642 77.4607 89.7847 77.2514 87.6964C77.1467 86.8611 77.2514 86.1302 77.356 85.2948C77.67 83.9374 78.0887 82.7888 78.1933 81.4314C78.298 79.7608 77.1467 78.299 75.7861 77.3592C76.1517 77.1744 76.5382 77.0341 76.9374 76.9415C77.67 76.8371 78.4026 76.5239 79.1353 76.4195C79.6586 76.4195 80.1819 76.4195 80.6005 76.2106C80.9661 76.0258 81.3526 75.8856 81.7518 75.793C84.473 78.4034 84.6823 82.6844 83.6357 86.2346C83.1124 87.6964 83.4264 89.1582 84.3683 90.4112C84.787 90.9333 85.3103 91.2465 85.8336 91.6642Z" fill="#C294BC"/>
</g>
<g opacity="0.82">
<path opacity="0.82" d="M126.337 67.1249C124.872 66.394 123.616 65.3499 122.15 64.4101C121.732 64.2013 121.418 63.9925 120.999 63.7836C120.895 61.9041 121.522 60.1291 122.464 58.4584C123.511 56.7878 124.872 55.5348 126.546 54.6994C128.325 53.9685 130.105 53.1332 131.047 51.3581C131.675 50.0007 131.884 48.4345 131.465 46.9727C132.616 47.7036 133.663 48.3301 134.814 49.1654C135.442 49.5831 136.07 50.0007 136.803 50.314C136.698 51.9846 136.384 53.6553 135.652 55.1171C134.605 56.9966 133.14 58.4584 131.256 59.3982C129.477 60.1291 127.697 60.9644 126.755 62.7395C126.128 64.0969 125.918 65.6631 126.337 67.1249Z" fill="#7AB193"/>
</g>
<g opacity="0.82">
<path opacity="0.82" d="M179.295 35.9052L174.586 39.9774C171.341 39.0377 168.829 36.4273 167.783 33.2948C167.05 31.3109 167.259 28.9093 165.69 27.3431C165.585 27.2387 165.585 27.0298 165.48 26.9254C164.748 26.5077 164.329 25.8813 163.492 25.6724C162.759 25.568 162.131 25.1503 161.398 25.1503L166.108 21.0781C168.306 21.7046 170.19 23.1664 171.551 25.0459C173.12 27.1342 173.225 29.4314 173.853 31.833C174.586 34.2345 176.888 35.6963 179.295 35.9052Z" fill="#F4C984"/>
</g>
<g opacity="0.82">
<path opacity="0.82" d="M237.696 39.246C236.335 37.6798 235.498 35.6959 234.137 34.1297C235.199 31.8383 236.956 29.9386 239.161 28.7C241.359 27.447 243.871 27.5515 246.278 27.3426C249.208 27.0294 251.615 24.6278 252.139 21.8086C252.35 22.1463 252.595 22.4613 252.871 22.7483C253.918 24.2102 254.651 25.672 255.697 26.925C255.069 28.178 254.337 29.3265 253.29 30.3707L252.348 31.3104C251.302 32.1458 250.255 32.6678 248.999 33.0855C248.58 33.1899 248.266 33.2943 247.848 33.3988C246.382 33.712 245.022 33.6076 243.557 33.712C240.626 33.9208 238.219 36.4268 237.696 39.246Z" fill="#CE88AB"/>
</g>
<g opacity="0.82">
<path opacity="0.82" d="M225.345 90.4101C223.566 89.3659 221.892 88.1129 220.112 87.0688C220.104 84.7272 220.877 82.4494 222.31 80.595C223.88 78.8199 225.869 77.8802 227.962 76.836C230.264 75.583 231.102 72.7638 230.578 70.2578C232.358 71.1976 233.927 72.555 235.811 73.4947C235.916 75.583 235.183 77.5669 234.032 79.4464C232.672 81.5347 230.578 82.4745 228.381 83.6231C227.753 83.9363 227.02 84.2495 226.601 84.876C226.497 85.1893 226.287 85.3981 226.078 85.607C225.031 87.0688 225.136 88.7394 225.345 90.4101Z" fill="#7AB193"/>
</g>
<g opacity="0.82">
<path opacity="0.82" d="M281.234 98.346C279.246 97.6151 277.362 96.7798 275.373 96.0489C274.431 92.4987 274.955 88.7397 277.152 85.6073C278.199 84.041 279.56 82.9969 281.13 82.0571C283.118 81.013 285.002 79.5511 285.735 77.4628C286.467 75.1657 286.153 72.8685 285.211 70.6758C287.2 71.3023 288.979 72.3464 290.968 72.8685C291.805 75.5833 291.491 78.6114 290.444 81.2218C290.235 81.6395 290.13 81.9527 289.921 82.3704C289.413 83.2893 288.779 84.1328 288.037 84.8764C287.878 85.0036 287.702 85.109 287.514 85.1896L286.677 86.0249C285.944 86.6514 285.107 86.8603 284.374 87.4868C284.165 87.5912 283.955 87.5912 283.851 87.6956C283.641 87.9044 283.432 88.0088 283.118 88.2177C279.769 90.5148 279.56 95.0047 281.234 98.346Z" fill="#D96159"/>
</g>
<g opacity="0.82">
<path opacity="0.82" d="M297.875 136.456L298.189 136.77C298.922 138.545 299.864 140.215 300.701 141.99C301.539 139.902 303.318 138.023 305.62 137.814C307.19 137.709 308.656 138.023 310.225 137.814C311.481 137.709 312.633 137.605 313.784 137.083C315.668 136.143 317.342 134.786 318.494 133.011C317.447 131.236 316.714 129.252 315.668 127.477C315.563 127.79 315.354 128.103 315.144 128.416C315.04 128.625 315.04 128.73 314.935 128.938C313.889 130.296 312.528 131.549 310.749 131.653C308.865 131.758 306.981 131.34 304.992 131.653C303.537 131.918 302.153 132.481 300.928 133.308C299.702 134.135 298.663 135.207 297.875 136.456Z" fill="#F4C984"/>
</g>
<path d="M274.85 256.146C274.096 256.617 273.295 257.009 272.46 257.315C270.344 258.098 267.726 258.464 264.634 258.036C263.072 257.827 261.536 257.453 260.052 256.921C256.208 255.514 253.994 253.282 253.302 251.387C253.299 251.381 253.297 251.375 253.295 251.369C252.95 250.414 252.993 249.547 253.408 248.917C253.455 248.844 253.508 248.774 253.566 248.708C253.71 248.543 253.879 248.402 254.068 248.291C254.088 248.278 254.108 248.267 254.129 248.255C254.327 248.146 254.538 248.062 254.757 248.006C255.836 247.722 256.629 247.066 257.212 246.264L257.277 246.173C257.594 245.708 257.857 245.208 258.059 244.683C258.447 243.659 258.693 242.588 258.792 241.498C258.829 241.103 258.833 240.859 258.833 240.859C258.833 240.859 261.067 240.935 263.897 241.132C265.716 241.258 267.782 241.436 269.654 241.676C272.678 242.063 275.207 242.616 275.41 243.377C275.414 243.389 275.417 243.402 275.419 243.414C275.504 243.988 275.616 244.626 275.782 245.28C275.908 245.791 276.07 246.292 276.266 246.781C276.616 247.638 277.095 248.451 277.77 249.097C277.83 249.154 277.892 249.21 277.954 249.265C278.116 249.405 278.287 249.535 278.465 249.653C279.739 250.5 278.448 253.893 274.85 256.146Z" fill="#F6C0A4"/>
<path d="M259.097 230.93L258.805 239.552L258.751 248.706C258.751 248.706 265.955 253.917 274.765 249.259L275.34 245.072L275.939 229.488L259.097 230.93Z" fill="#F6C0A4"/>
<path d="M258.997 233.197L258.924 236.851C258.924 236.851 262.655 241.968 267.297 242.037C271.938 242.105 275.594 237.408 275.594 237.408L275.699 232.965L258.997 233.197Z" fill="#EE9D83"/>
<path d="M260.945 188.948C260.945 188.948 252.944 173.209 271.516 174.023C290.088 174.836 280.935 188.921 280.935 188.921L260.945 188.948Z" fill="#57362E"/>
<path d="M249.385 220.697C249.385 220.678 249.385 220.668 249.385 220.668C249.385 220.668 247.501 219.904 246.736 215.645C245.971 211.386 248.286 211.486 248.286 211.486C248.286 211.486 246.744 206.634 248.628 197.987C250.512 189.34 286.025 195.948 288.799 198.114C291.574 200.281 287.169 212.916 287.169 212.916C287.169 212.916 290.308 209.784 289.356 216.012C288.404 222.241 285.658 222.394 285.658 222.394C285.658 222.394 283.69 228.413 280.739 231.792C274.064 239.448 270.797 240.145 266.57 239.961C262.344 239.777 255.928 233.36 255.928 233.36L255.343 232.741C252.193 229.412 250.117 225.216 249.385 220.697Z" fill="#F6C0A4"/>
<path d="M280.487 213.647L278.589 212.486C278.147 212.297 271.427 210.398 271.615 209.956L272.002 209.054C272.048 208.948 272.113 208.852 272.196 208.772C272.278 208.692 272.376 208.629 272.483 208.586C272.59 208.543 272.704 208.522 272.819 208.524C272.934 208.525 273.048 208.549 273.154 208.594L280.336 211.658C280.548 211.749 280.715 211.921 280.802 212.135C280.888 212.349 280.885 212.589 280.795 212.801L280.408 213.704L280.487 213.647Z" fill="#57362E"/>
<path d="M268.697 198.312C275.081 198.765 287.117 222.601 287.73 218.266C288.342 213.932 292.09 210.977 291.165 201.467C290.239 191.956 281.039 185.238 272.655 185.045C263.321 184.83 251.046 188.073 248.882 194.904C246.648 201.959 246.495 210.856 247.312 211.454C248.128 212.052 248.802 218.773 248.802 218.773C248.802 218.773 251.025 216.096 251.167 212.867C251.284 210.223 255.861 208.998 260.037 204.367C262.425 201.72 265.386 199.649 268.694 198.311L268.697 198.312Z" fill="#57362E"/>
<path d="M256.197 212.524L258.195 211.545C258.652 211.399 265.521 210.134 265.375 209.678L265.075 208.738C265.002 208.52 264.845 208.339 264.639 208.235C264.433 208.131 264.195 208.112 263.975 208.183L256.544 210.558C256.324 210.629 256.141 210.784 256.035 210.99C255.929 211.195 255.909 211.434 255.979 211.654L256.279 212.593L256.197 212.524Z" fill="#57362E"/>
<path d="M234.153 305.004L234.086 305.003L234.082 304.762L234.153 305.004Z" fill="#EE9D83"/>
<path d="M280.802 250.329C280.779 250.37 278.814 253.91 274.85 256.148C274.096 256.619 273.295 257.011 272.46 257.317C270.344 258.1 267.726 258.466 264.634 258.038C263.072 257.829 261.536 257.455 260.052 256.923C256.208 255.516 253.995 253.284 253.302 251.389C253.299 251.383 253.297 251.377 253.296 251.371C252.596 250.762 251.93 250.116 251.302 249.435L254.068 248.297C254.088 248.284 254.109 248.273 254.13 248.261L254.758 248.012L254.767 248.022L254.773 248.029L254.781 248.038L254.789 248.048L254.802 248.062L254.832 248.095C254.837 248.102 254.843 248.108 254.849 248.115C255.629 248.967 261.111 254.693 267.881 254.821H267.888C271.102 254.881 274.609 253.681 278.04 250.103V250.098C278.17 249.962 278.3 249.824 278.431 249.68L278.44 249.67L278.448 249.661L278.454 249.653L278.494 249.664L278.532 249.675L278.587 249.691L278.607 249.696L278.678 249.716L278.732 249.731L278.764 249.741L278.824 249.759H278.835L278.903 249.778L278.981 249.8L279.043 249.818L279.252 249.878C279.523 249.954 279.855 250.049 280.238 250.16L280.343 250.19L280.414 250.211L280.768 250.315L280.802 250.329Z" fill="#EE9D83"/>
<path d="M260.045 186.687L259.653 185.31C259.653 185.31 269.59 179.567 282.245 186.3L281.636 187.633L260.045 186.687Z" fill="#EE9D83"/>
<path d="M327.721 200.155L288.306 305.877L234.158 305H234.153L234.082 304.759L211.178 196.555L223.62 194.18L244.377 244.145C245.136 245.971 246.584 247.425 248.408 248.196C250.233 248.966 252.288 248.989 254.129 248.261C254.108 248.272 254.088 248.284 254.068 248.296L251.301 249.435C251.931 250.116 252.598 250.762 253.299 251.37C253.301 251.377 253.303 251.382 253.306 251.388C253.999 253.282 257.283 253.189 261.127 254.597C262.458 255.083 264.33 255.441 266.056 255.681C269.147 256.111 270.861 256.464 272.979 255.681C273.863 255.354 274.147 256.59 274.854 256.146C278.814 253.909 280.783 250.369 280.806 250.327L280.852 250.341C282.483 250.811 284.226 250.703 285.786 250.037C287.347 249.371 288.628 248.187 289.414 246.686L315.537 196.698L327.721 200.155Z" fill="#84ABCB"/>
<path d="M234.159 305.001L234.156 305.012L234.153 305L234.159 305.001Z" fill="#EE9D83"/>
<path d="M262.21 224.5L272.975 224.972C272.975 224.972 271.963 230.519 267.164 230.026C262.365 229.533 262.21 224.5 262.21 224.5Z" fill="white"/>
<path d="M211.178 196.555C211.178 196.555 218.516 203.225 223.62 194.18L211.178 196.555Z" fill="#C98870"/>
<path d="M315.537 196.699C315.537 196.699 317.377 205.453 327.722 200.154L315.537 196.699Z" fill="#C98870"/>
<path d="M323.155 200.059C323.73 200.24 324.342 200.269 324.932 200.14C325.521 200.012 326.066 199.732 326.513 199.328C329.024 197.056 333.954 192.59 334.747 191.817C335.82 190.773 335.947 186.739 335.139 182.918C334.331 179.096 331.281 176.209 327.158 181.56C323.036 186.912 320.839 191.211 320.839 191.211C320.839 191.211 321.404 182.744 318.902 183.432C317.001 183.955 316.454 192.014 316.301 195.858C316.278 196.435 316.446 197.004 316.779 197.476C317.112 197.949 317.591 198.299 318.143 198.474L323.155 200.059Z" fill="#F6C0A4"/>
<path d="M214.081 197.048C213.597 197.139 213.097 197.096 212.635 196.923C212.174 196.75 211.769 196.454 211.465 196.067C209.568 193.65 205.595 188.596 204.856 187.74C203.88 186.606 204.108 182.576 205.249 178.84C206.39 175.104 209.681 172.494 213.318 178.182C216.955 183.869 218.761 188.349 218.761 188.349C218.761 188.349 218.942 179.865 221.377 180.769C223.211 181.45 223.063 189.412 222.88 193.291C222.852 193.888 222.623 194.459 222.23 194.91C221.837 195.362 221.303 195.669 220.715 195.781L214.081 197.048Z" fill="#F6C0A4"/>
<path d="M280.802 250.329C280.779 250.37 278.814 253.91 274.85 256.148C272.587 257.439 270 258.055 267.396 257.923C261.305 257.642 256.029 253.789 253.296 251.371C252.596 250.762 251.93 250.116 251.302 249.435L254.068 248.297L254.761 248.012L254.77 248.022L254.777 248.029L254.784 248.038L254.792 248.048L254.805 248.062C254.813 248.072 254.824 248.083 254.835 248.095C254.847 248.108 254.847 248.108 254.852 248.115C255.633 248.983 261.103 254.78 267.884 254.821H267.892C272.915 254.848 276.802 251.363 278.044 250.103V250.098C278.253 249.889 278.383 249.74 278.434 249.68L278.443 249.67L278.451 249.661L278.457 249.653L278.497 249.664L278.536 249.675L278.59 249.691L278.61 249.696L278.681 249.716L278.735 249.731L278.767 249.741L278.827 249.759H278.838L278.906 249.778L278.984 249.8L279.046 249.818L279.256 249.878L280.241 250.16L280.346 250.19L280.417 250.211L280.771 250.315L280.802 250.329Z" fill="#616C9F"/>
<path d="M260.161 217.734C261.605 217.734 262.776 216.566 262.776 215.125C262.776 213.684 261.605 212.516 260.161 212.516C258.716 212.516 257.545 213.684 257.545 215.125C257.545 216.566 258.716 217.734 260.161 217.734Z" fill="#411F14"/>
<path d="M275.516 217.973C276.96 217.973 278.131 216.804 278.131 215.363C278.131 213.922 276.96 212.754 275.516 212.754C274.071 212.754 272.9 213.922 272.9 215.363C272.9 216.804 274.071 217.973 275.516 217.973Z" fill="#411F14"/>
<path d="M185.365 196.327C184.81 196.472 184.292 196.735 183.848 197.097C183.404 197.46 183.043 197.914 182.791 198.428C180.339 203.422 177.589 221.833 178.471 231.288C178.884 235.698 177.553 238.896 175.833 241.135C174.053 243.447 170.837 243.962 173.685 244.604L212.006 253.243C214.68 253.847 229.944 251.973 229.656 249.255C229.511 247.868 224.909 245.167 223.649 243.655C217.348 236.095 222.28 229.85 223.327 227.531C225.605 222.481 228.517 201.933 214.326 196.672C202.92 192.445 190.001 195.115 185.365 196.327Z" fill="#D96159"/>
<path d="M187.806 251.42C187.806 251.42 200.679 246.246 207.391 252.279C214.103 258.311 195.089 259.26 191.517 257.106C187.945 254.952 187.806 251.42 187.806 251.42Z" fill="#536779"/>
<path d="M189.648 247.211C189.648 247.211 189.555 253.312 185.574 254.358C181.594 255.404 184.501 262.858 195.448 264.382C206.396 265.907 211.403 257.407 209.279 256.006C207.155 254.605 206.533 251.776 206.231 249.767C205.93 247.758 189.648 247.211 189.648 247.211Z" fill="#F6C0A4"/>
<path d="M189.911 237.282L189.619 245.902L189.565 255.058C189.565 255.058 196.769 260.269 205.579 255.611L206.155 251.424L206.754 235.84L189.911 237.282Z" fill="#F6C0A4"/>
<path d="M189.812 239.547L189.737 243.207C189.737 243.207 194.154 247.921 198.584 246.533C205.056 244.507 206.546 241.95 206.546 241.95L206.518 239.32L189.812 239.547Z" fill="#EE9D83"/>
<path d="M179.605 222.334C179.605 222.316 179.605 222.307 179.605 222.307C179.605 222.307 177.891 221.222 177.892 216.893C177.893 212.564 180.156 213.075 180.156 213.075C180.156 213.075 179.502 208.027 182.894 199.851C186.286 191.675 220.06 204.464 222.405 207.087C224.749 209.71 218.168 221.366 218.168 221.366C218.168 221.366 221.82 218.838 219.769 224.799C217.719 230.76 214.994 230.427 214.994 230.427C214.994 230.427 211.986 236.002 208.484 238.808C200.554 245.16 197.215 245.27 193.087 244.342C188.959 243.413 183.788 235.961 183.788 235.961L183.322 235.248C180.814 231.412 179.519 226.913 179.605 222.334Z" fill="#F6C0A4"/>
<path d="M212.136 220.202L210.23 219.053C209.787 218.869 203.052 217.017 203.237 216.576L203.617 215.67C203.707 215.458 203.878 215.289 204.092 215.202C204.306 215.114 204.546 215.115 204.76 215.204L211.964 218.213C212.177 218.303 212.346 218.473 212.434 218.686C212.522 218.9 212.521 219.14 212.433 219.353L212.053 220.258L212.136 220.202Z" fill="#D96159"/>
<path d="M193.92 219.667C193.606 221.061 192.315 220.589 190.918 220.274C189.521 219.958 188.544 219.92 188.859 218.526C189.022 217.868 189.437 217.3 190.015 216.944C190.593 216.589 191.288 216.473 191.95 216.622C192.612 216.772 193.19 217.174 193.558 217.744C193.926 218.313 194.056 219.003 193.92 219.667Z" fill="#536878"/>
<path d="M209.237 223.115C208.923 224.509 207.949 224.202 206.551 223.888C205.154 223.573 203.862 223.366 204.177 221.975C204.328 221.305 204.74 220.723 205.322 220.357C205.904 219.99 206.607 219.869 207.278 220.021C207.949 220.172 208.533 220.583 208.9 221.163C209.267 221.743 209.389 222.445 209.237 223.115Z" fill="#536878"/>
<path d="M190.772 230.215L202.528 232.285C202.528 232.285 200.17 238.398 194.694 236.744C189.603 235.204 190.772 230.215 190.772 230.215Z" fill="white"/>
<path d="M212.168 205.581C214.304 206.35 216.4 230.882 217.775 226.725C219.149 222.568 223.363 220.323 224.142 210.799C224.922 201.276 217.064 193.036 208.848 191.362C199.7 189.499 187.043 190.516 183.698 196.858C180.244 203.404 178.512 212.133 179.212 212.867C179.913 213.601 179.378 220.334 179.378 220.334C179.378 220.334 182.041 218.093 182.755 214.941C183.469 211.788 185.772 206.718 196.256 205.048L212.168 205.581Z" fill="#D96159"/>
<path d="M187.586 214.641L189.802 214.422C190.282 214.445 197.161 215.664 197.184 215.186L197.231 214.205C197.241 213.974 197.16 213.749 197.004 213.578C196.848 213.407 196.631 213.304 196.4 213.293L188.6 212.919C188.368 212.908 188.142 212.99 187.971 213.145C187.799 213.3 187.696 213.517 187.685 213.748L187.638 214.728L187.586 214.641Z" fill="#D96159"/>
<path d="M209.357 305.477C209.517 304.447 211.822 287.343 212.146 282.763C212.221 281.692 212.295 280.509 212.366 279.213C212.494 276.859 212.326 274.049 212.012 271.196C211.864 269.83 211.68 268.453 211.479 267.114C211.183 265.13 210.851 263.222 210.531 261.543C209.84 257.895 209.222 255.312 209.222 255.312C209.084 255.712 208.92 256.102 208.73 256.48C208.102 257.747 206.836 259.797 204.604 261.339C204.181 261.633 203.737 261.897 203.277 262.13C201.785 262.886 199.954 263.395 197.73 263.412C195.394 263.436 193.085 262.909 190.991 261.874C190.594 261.68 190.215 261.472 189.853 261.255C187.663 259.933 185.783 258.159 184.339 256.051C184.251 255.919 184.207 255.842 184.207 255.842C184.196 255.996 184.186 256.155 184.178 256.313C184.12 257.274 184.073 258.32 184.043 259.426C184.043 259.577 184.033 259.728 184.029 259.883C183.941 263.237 183.956 267.108 184.023 270.943C184.048 272.421 184.082 273.894 184.12 275.328C184.154 276.581 184.19 277.808 184.225 278.983C184.392 284.031 182.637 302.685 182.713 304.206L209.357 305.477Z" fill="white"/>
<path d="M226.128 306.036L230.169 306.335C230.479 306.283 230.786 306.213 231.088 306.126C231.088 306.055 231.095 305.971 231.099 305.875C231.27 301.739 232.338 274.724 230.96 270.447C230.79 269.92 230.354 269.278 229.713 268.553C229.627 268.456 229.538 268.358 229.445 268.258C228.16 266.874 226.201 265.221 223.971 263.515L223.935 263.486C216.972 258.154 207.398 252.285 207.398 252.285L207.076 253.114L205.45 257.3L203.644 261.945L202.924 263.799L197.778 277.042C196.606 280.054 195.102 282.925 193.292 285.604C190.918 289.122 188.041 292.274 184.752 294.96L183.268 296.173L173.363 304.263L196.435 305.222L226.128 306.036Z" fill="#7AB193"/>
<path d="M231.095 306.113C231.091 306.114 231.088 306.114 231.084 306.113C230.782 306.201 230.476 306.27 230.165 306.322L226.129 306.029L215.13 305.689L223.931 263.469L223.967 263.498C224.317 263.786 227.12 266.108 229.604 268.85C230.072 269.366 230.529 269.894 230.956 270.43C233.651 273.812 231.355 302.932 231.095 306.113Z" fill="#6E9C80"/>
<path d="M250.859 258.228L250.782 258.459L236.734 300.707C236.303 301.996 235.564 303.162 234.582 304.104C233.6 305.046 232.403 305.735 231.094 306.113C231.091 306.114 231.087 306.114 231.084 306.113C230.945 306.154 230.805 306.192 230.665 306.225C230.364 306.295 230.055 306.319 229.746 306.296L226.13 306.033C224.011 305.332 222.257 303.821 221.253 301.831C220.249 299.842 220.076 297.536 220.773 295.42L229.606 268.855L229.711 268.542L234.864 253.042L234.898 252.938C234.961 252.75 235.096 252.594 235.274 252.505C235.451 252.416 235.657 252.401 235.846 252.464L250.384 257.275C250.478 257.306 250.565 257.356 250.64 257.421C250.715 257.486 250.776 257.565 250.82 257.653C250.864 257.742 250.89 257.838 250.897 257.937C250.903 258.036 250.89 258.135 250.859 258.228Z" fill="#6E9C80"/>
<path d="M250.859 258.226L250.782 258.457C249.633 259.889 248.069 260.932 246.304 261.445C244.538 261.958 242.658 261.916 240.917 261.324C239.177 260.732 237.662 259.619 236.579 258.137C235.495 256.655 234.896 254.876 234.862 253.042L234.896 252.938C234.959 252.75 235.094 252.594 235.272 252.505C235.449 252.416 235.655 252.401 235.844 252.464L250.382 257.275C250.476 257.306 250.563 257.356 250.638 257.42C250.713 257.485 250.774 257.564 250.818 257.652C250.863 257.74 250.889 257.837 250.896 257.935C250.903 258.034 250.89 258.133 250.859 258.226Z" fill="#658571"/>
<path d="M243.559 257.676C244.134 257.858 244.746 257.886 245.335 257.758C245.925 257.63 246.47 257.349 246.916 256.945C249.428 254.673 254.359 250.207 255.152 249.435C256.224 248.391 256.351 244.356 255.543 240.535C254.735 236.713 251.686 233.826 247.562 239.177C243.438 244.529 241.244 248.829 241.244 248.829C241.244 248.829 241.809 240.363 239.306 241.05C237.406 241.572 236.858 249.632 236.706 253.475C236.683 254.052 236.851 254.621 237.184 255.094C237.516 255.566 237.996 255.917 238.548 256.091L243.559 257.676Z" fill="#F6C0A4"/>
</svg>
