<svg width="184" height="184" viewBox="0 0 184 184" fill="none" xmlns="http://www.w3.org/2000/svg">
<path d="M93.4971 104.686L51.4013 86.1426L18.9512 159.812L44.6335 158.561L61.0469 178.355L93.4971 104.686Z" fill="#85CBF8"/>
<path d="M61.0473 181.233C60.1992 181.233 59.3855 180.856 58.8335 180.192L43.3373 161.502L19.0867 162.686C18.0977 162.724 17.1432 162.267 16.5768 161.441C16.0133 160.619 15.9155 159.567 16.3152 158.653L48.771 84.9866C49.4122 83.5376 51.0912 82.8677 52.5603 83.5146L94.6589 102.058C95.3547 102.366 95.9038 102.938 96.1798 103.648C96.4558 104.361 96.4385 105.149 96.1281 105.85L63.6779 179.517C63.2754 180.428 62.4302 181.066 61.4469 181.204C61.3118 181.224 61.1795 181.233 61.0473 181.233ZM44.6339 155.686C45.4878 155.686 46.2985 156.065 46.8477 156.726L60.294 172.941L89.7082 106.158L52.8737 89.9316L23.4567 156.718L44.493 155.691C44.5419 155.689 44.5879 155.686 44.6339 155.686Z" fill="#8D6C9F"/>
<path d="M90.8262 104.686L132.922 86.1426L165.372 159.812L139.687 158.561L123.276 178.355L90.8262 104.686Z" fill="#7BBEEB"/>
<path d="M123.276 181.232C123.144 181.232 123.012 181.223 122.877 181.203C121.891 181.065 121.045 180.427 120.646 179.516L88.1956 105.847C87.888 105.148 87.8707 104.357 88.1438 103.644C88.4227 102.934 88.969 102.362 89.6647 102.054L131.763 83.5106C133.221 82.8638 134.917 83.5336 135.553 84.9826L168.003 158.655C168.405 159.566 168.305 160.621 167.741 161.443C167.178 162.266 166.214 162.726 165.231 162.688L140.981 161.504L125.484 180.194C124.938 180.855 124.124 181.232 123.276 181.232ZM94.6155 106.16L124.03 172.943L137.476 156.728C138.054 156.03 138.911 155.659 139.828 155.69L160.864 156.717L131.453 89.9334L94.6155 106.16Z" fill="#8D6C9F"/>
<path d="M95.6225 4.31247L105.196 12.075C106.461 13.0985 108.103 13.5383 109.71 13.2825L121.9 11.3562C124.582 10.9307 127.196 12.443 128.167 14.9787L132.595 26.4787C133.179 27.9996 134.38 29.2013 135.901 29.785L147.401 34.2125C149.937 35.1842 151.449 37.7976 151.024 40.48L149.097 52.67C148.842 54.2771 149.281 55.9187 150.305 57.1837L158.125 66.815C159.838 68.9252 159.838 71.9497 158.125 74.06L150.362 83.6337C149.339 84.8987 148.899 86.5403 149.155 88.1475L151.081 100.337C151.507 103.02 149.994 105.633 147.459 106.605L135.959 111.032C134.438 111.616 133.236 112.818 132.652 114.339L128.225 125.839C127.253 128.374 124.64 129.887 121.957 129.461L109.767 127.535C108.16 127.279 106.519 127.719 105.254 128.742L95.6225 136.562C93.5122 138.276 90.4877 138.276 88.3775 136.562L78.8037 128.8C77.5387 127.776 75.8971 127.337 74.29 127.592L62.1 129.519C59.4176 129.944 56.8042 128.432 55.8325 125.896L51.405 114.396C50.8213 112.875 49.6196 111.674 48.0987 111.09L36.5987 106.662C34.063 105.691 32.5507 103.077 32.9762 100.395L34.9025 88.205C35.1583 86.5978 34.7185 84.9562 33.695 83.6912L25.875 74.06C24.1615 71.9497 24.1615 68.9252 25.875 66.815L33.6375 57.2412C34.661 55.9762 35.1008 54.3346 34.845 52.7275L32.9187 40.5375C32.4932 37.8551 34.0055 35.2417 36.5412 34.27L48.0412 29.8425C49.5621 29.2588 50.7638 28.0571 51.3475 26.5362L55.775 15.0362C56.7496 12.4746 59.3975 10.9595 62.1 11.4137L74.29 13.34C75.8971 13.5958 77.5387 13.156 78.8037 12.1325L88.3775 4.31247C90.4877 2.59897 93.5122 2.59897 95.6225 4.31247Z" fill="#F6D397"/>
<path d="M134.727 70.6463C134.727 94.2415 115.6 113.372 92.0018 113.372C87.2235 113.383 82.4798 112.584 77.9689 111.006C70.3962 108.358 63.7233 103.631 58.7093 97.3666C56.7083 94.8941 54.9862 92.2031 53.5832 89.3482C50.78 83.512 49.3109 77.1237 49.2793 70.6492C49.2793 47.0541 68.4067 27.9238 92.0047 27.9238C98.4792 27.9555 104.867 29.4275 110.704 32.2277C113.559 33.6336 116.25 35.3528 118.722 37.3538C124.987 42.365 129.713 49.0407 132.361 56.6135C133.939 61.1243 134.739 65.8681 134.727 70.6463Z" fill="#F9E3AE"/>
<path d="M127.302 46.6367L67.996 105.942C64.6323 103.645 61.5963 100.876 58.9944 97.6938L119.053 37.635C122.236 40.2369 125.004 43.27 127.302 46.6367ZM92.0023 113.368C115.597 113.368 134.728 94.2409 134.728 70.6429C134.739 65.8647 133.94 61.1209 132.362 56.61C132.063 55.7562 131.729 54.9195 131.378 54.0887L75.4481 110.019C76.2789 110.37 77.1156 110.703 77.9694 111.002C82.4803 112.578 87.2241 113.38 92.0023 113.368ZM110.704 32.2243C107.832 30.8443 104.825 29.7978 101.74 29.0762L50.4355 80.3777C51.1572 83.4625 52.2065 86.4698 53.5837 89.3419C53.828 89.8393 54.1357 90.3022 54.3973 90.788L112.147 33.0379C111.662 32.7763 111.202 32.4687 110.704 32.2243Z" fill="#FFEFCA"/>
<path d="M91.9995 140.71C90.0703 140.71 88.1412 140.071 86.5657 138.795L76.992 131.032C76.3652 130.526 75.5458 130.305 74.738 130.432L62.548 132.358C58.5402 132.982 54.5928 130.705 53.1467 126.924L48.7192 115.43C48.426 114.668 47.8251 114.064 47.069 113.774L35.5661 109.343C31.7912 107.897 29.5027 103.944 30.1352 99.9422L32.0615 87.7522C32.188 86.9472 31.9695 86.1279 31.4577 85.4954L23.6435 75.8699C21.0876 72.7217 21.0876 68.1505 23.6435 65.0023L31.406 55.4286C31.912 54.799 32.1333 53.9767 32.0068 53.1746L30.0806 40.9846C29.4452 36.9855 31.7308 33.0295 35.5143 31.5833L47.0086 27.1558C47.7733 26.8626 48.3742 26.2588 48.6646 25.5027L53.0921 13.9998C54.5468 10.1818 58.5402 7.8991 62.5767 8.57472L74.738 10.4952C75.5487 10.6246 76.3623 10.4032 76.9977 9.89147L86.5571 2.08297C89.711 -0.47578 94.2851 -0.478655 97.4303 2.07722L107.004 9.83972C107.634 10.3457 108.459 10.5728 109.258 10.4406L121.448 8.51435C125.45 7.8761 129.4 10.1646 130.849 13.9481L135.277 25.4423C135.57 26.2042 136.171 26.808 136.927 27.0983L148.43 31.5287C152.205 32.9748 154.493 36.928 153.861 40.93L151.935 53.12C151.808 53.925 152.027 54.7443 152.538 55.3768L160.355 65.0052C162.911 68.1534 162.911 72.7246 160.355 75.8727L152.593 85.4465C152.087 86.0761 151.866 86.8983 151.992 87.7005L153.918 99.8905C154.554 103.89 152.268 107.846 148.485 109.292L136.99 113.719C136.226 114.012 135.625 114.616 135.334 115.372L130.907 126.875C129.458 130.653 125.479 132.921 121.506 132.303L109.316 130.377C108.516 130.256 107.694 130.472 107.059 130.981L97.4303 138.795C95.8606 140.071 93.9286 140.71 91.9995 140.71ZM75.1807 124.644C77.1415 124.644 79.0648 125.314 80.6087 126.559L90.1882 134.327C91.2376 135.178 92.7614 135.181 93.8107 134.327L103.445 126.507C105.345 124.969 107.818 124.311 110.215 124.693L122.405 126.619C123.762 126.838 125.056 126.07 125.539 124.811L129.967 113.305C130.844 111.028 132.652 109.223 134.929 108.349L146.426 103.921C147.688 103.438 148.453 102.119 148.243 100.785L146.317 88.5946C145.934 86.1911 146.596 83.7243 148.125 81.8269L155.893 72.2473C156.744 71.198 156.744 69.6742 155.893 68.6248L148.073 58.9936C146.538 57.0932 145.874 54.6236 146.259 52.2172L148.186 40.0301C148.395 38.6961 147.634 37.3793 146.371 36.8963L134.866 32.466C132.592 31.592 130.786 29.7836 129.909 27.5066L125.482 16.0095C124.999 14.7445 123.665 13.9883 122.348 14.1953L110.158 16.1216C107.752 16.4982 105.285 15.8398 103.39 14.3132L93.8107 6.54497C92.7614 5.6911 91.2376 5.6911 90.1882 6.54497L80.6231 14.3592C78.7141 15.9002 76.2473 16.5528 73.841 16.1791L61.651 14.2528C60.2968 14.0228 58.9513 14.7818 58.4655 16.0555L54.0351 27.567C53.1582 29.844 51.3498 31.6495 49.0728 32.5235L37.5757 36.951C36.3136 37.434 35.5488 38.7536 35.7587 40.0876L37.685 52.2776C38.0673 54.6811 37.4061 57.1478 35.8766 59.0453L28.1055 68.6248C27.2545 69.6742 27.2545 71.198 28.1055 72.2473L35.9255 81.8786C37.4607 83.779 38.1248 86.2486 37.7396 88.655L35.8133 100.842C35.6035 102.176 36.3653 103.493 37.6275 103.976L49.1332 108.406C51.4073 109.28 53.2128 111.089 54.0897 113.366L58.5172 124.863C59.0002 126.131 60.3285 126.89 61.651 126.677L73.841 124.751C74.2866 124.682 74.7351 124.644 75.1807 124.644Z" fill="#8D6C9F"/>
<path d="M118.716 40.2269C118.08 40.2269 117.442 40.017 116.91 39.5858C114.604 37.7199 112.089 36.1128 109.429 34.8047C108.006 34.1032 107.42 32.381 108.118 30.955C108.817 29.5319 110.528 28.9368 111.968 29.644C115.013 31.1419 117.891 32.9819 120.527 35.1152C121.763 36.1157 121.953 37.9269 120.952 39.1603C120.383 39.8647 119.555 40.2269 118.716 40.2269ZM52.7286 97.218C51.7598 97.218 50.8139 96.7293 50.2734 95.8409C49.4454 94.4839 49.8738 92.7158 51.2308 91.8878L56.1384 88.892C57.4896 88.064 59.2606 88.4924 60.0886 89.8494C60.9166 91.2064 60.4883 92.9745 59.1313 93.8025L54.2236 96.7983C53.755 97.0829 53.2404 97.218 52.7286 97.218ZM62.7566 108.784C62.1126 108.784 61.4658 108.569 60.9281 108.126C59.7034 107.114 59.5309 105.303 60.54 104.078L64.1999 99.6417C65.2119 98.4198 67.0203 98.2415 68.2479 99.2535C69.4726 100.266 69.6451 102.077 68.636 103.302L64.9761 107.738C64.4069 108.428 63.5846 108.784 62.7566 108.784ZM76.0305 116.437C75.6999 116.437 75.3635 116.377 75.03 116.259C73.5408 115.707 72.7818 114.054 73.3338 112.565L75.329 107.174C75.881 105.685 77.5255 104.929 79.0234 105.475C80.5126 106.027 81.2716 107.68 80.7196 109.169L78.7244 114.56C78.296 115.719 77.2006 116.437 76.0305 116.437ZM91.084 119.275C91.0639 119.275 91.0466 119.275 91.0265 119.275C89.4366 119.243 88.1774 117.93 88.209 116.343L88.324 110.593C88.3556 109.026 89.6379 107.775 91.199 107.775C91.2191 107.775 91.2364 107.775 91.2594 107.775C92.8464 107.807 94.1056 109.121 94.074 110.708L93.959 116.458C93.9274 118.027 92.6451 119.275 91.084 119.275ZM106.238 117.05C105.025 117.05 103.901 116.276 103.504 115.063L101.724 109.595C101.233 108.086 102.058 106.464 103.57 105.972C105.077 105.478 106.704 106.306 107.196 107.815L108.975 113.284C109.467 114.793 108.642 116.414 107.129 116.906C106.833 117.004 106.534 117.05 106.238 117.05ZM119.814 109.94C118.946 109.94 118.089 109.549 117.522 108.804L114.041 104.227C113.081 102.965 113.325 101.16 114.587 100.199C115.846 99.2392 117.652 99.4835 118.615 100.746L122.097 105.323C123.057 106.585 122.813 108.39 121.55 109.351C121.033 109.747 120.421 109.94 119.814 109.94Z" fill="#8D6C9F"/>
<path d="M49.2689 79.189C47.8515 79.189 46.6181 78.1425 46.4226 76.7021C46.1437 74.6408 46 72.5334 46 70.4375C46 45.0743 66.6368 24.4375 92 24.4375C93.5899 24.4375 94.875 25.7255 94.875 27.3125C94.875 28.8995 93.5899 30.1875 92 30.1875C69.805 30.1875 51.75 48.2425 51.75 70.4375C51.75 72.2746 51.8736 74.1232 52.1209 75.9287C52.3336 77.5014 51.2296 78.9504 49.6599 79.1631C49.5276 79.1833 49.3982 79.189 49.2689 79.189Z" fill="#8D6C9F"/>
<path d="M128.07 96.9525C127.53 96.9525 126.98 96.8001 126.495 96.481C125.166 95.6099 124.798 93.8274 125.669 92.4991C129.973 85.947 132.247 78.3167 132.247 70.4392C132.247 64.3241 130.911 58.4562 128.28 52.9908C127.59 51.5591 128.191 49.8427 129.62 49.1527C131.06 48.4685 132.774 49.0636 133.458 50.4953C136.471 56.7427 137.997 63.453 137.997 70.4392C137.997 79.4437 135.398 88.1636 130.476 95.6559C129.922 96.4954 129.004 96.9525 128.07 96.9525Z" fill="#8D6C9F"/>
<path d="M86.2507 89.1257C85.5147 89.1257 84.7787 88.844 84.2181 88.2834L66.9681 71.0333C65.844 69.9092 65.844 68.0922 66.9681 66.9681C68.0922 65.844 69.9092 65.844 71.0333 66.9681L86.2507 82.1855L112.968 55.4681C114.092 54.344 115.909 54.344 117.033 55.4681C118.157 56.5922 118.157 58.4092 117.033 59.5333L88.2834 88.2834C87.7227 88.844 86.9867 89.1257 86.2507 89.1257Z" fill="#8D6C9F"/>
<path d="M113.562 77.5977L109.997 84.0952L103.5 87.6602L109.997 91.2252L113.562 97.7514L117.128 91.2252L123.625 87.6602L117.128 84.0952L113.562 77.5977Z" fill="#FFF8F8"/>
<path d="M75.7555 40.25L74.088 43.3262L71.0117 44.9937L74.088 46.6612L75.7555 49.7375L77.423 46.6612L80.4992 44.9937L77.423 43.3262L75.7555 40.25Z" fill="#FFF8F8"/>
</svg>
