<svg width="354" height="168" viewBox="0 0 354 168" fill="none" xmlns="http://www.w3.org/2000/svg">
<path d="M16.9997 56L16.0323 55.747L16.0259 55.7714L16.0208 55.796L16.9997 56ZM353.5 102.499L342.519 98.9272L344.916 110.223L353.5 102.499ZM124.724 6.02481C124.084 5.87782 123.439 5.7311 122.789 5.58502L122.351 7.5363C122.997 7.68164 123.639 7.82767 124.276 7.97403L124.724 6.02481ZM118.889 4.73034C117.6 4.45579 116.295 4.18636 114.976 3.92472L114.586 5.88649C115.895 6.14614 117.191 6.41368 118.472 6.68648L118.889 4.73034ZM111.048 3.17832C109.745 2.94197 108.43 2.7154 107.106 2.50107L106.787 4.47537C108.097 4.68755 109.399 4.91196 110.691 5.14623L111.048 3.17832ZM103.149 1.90299C101.832 1.71858 100.508 1.54829 99.1775 1.39446L98.9477 3.38122C100.261 3.53311 101.57 3.70134 102.872 3.88367L103.149 1.90299ZM95.1915 0.986412C93.8621 0.868546 92.5287 0.769147 91.1929 0.6905L91.0753 2.68704C92.3904 2.76447 93.7041 2.86238 95.0149 2.9786L95.1915 0.986412ZM87.1839 0.519194C85.8456 0.484301 84.5064 0.472426 83.1682 0.485862L83.1883 2.48576C84.5013 2.47258 85.8163 2.48422 87.1318 2.51851L87.1839 0.519194ZM79.1506 0.604775C77.8099 0.671537 76.4717 0.76617 75.1378 0.891017L75.3241 2.88231C76.6279 2.76029 77.9371 2.66768 79.2501 2.6023L79.1506 0.604775ZM71.1382 1.36028C69.8065 1.54924 68.4808 1.77117 67.1628 2.02848L67.5461 3.99142C68.8288 3.74099 70.1203 3.52474 71.4192 3.34044L71.1382 1.36028ZM63.2252 2.91115C61.9205 3.24281 60.6254 3.61249 59.3416 4.02263L59.9502 5.92777C61.1944 5.53027 62.4509 5.17159 63.718 4.8495L63.2252 2.91115ZM55.5309 5.37498C54.2783 5.86573 53.0389 6.39888 51.8144 6.97679L52.668 8.78548C53.8507 8.22727 55.0488 7.7119 56.2605 7.23716L55.5309 5.37498ZM48.2148 8.83174C47.0445 9.488 45.8905 10.1895 44.7544 10.9384L45.8552 12.6082C46.9508 11.886 48.0639 11.2094 49.1931 10.5762L48.2148 8.83174ZM41.4547 13.2888C40.3956 14.1023 39.355 14.9617 38.3342 15.8689L39.6628 17.3638C40.6478 16.4884 41.6517 15.6594 42.6731 14.8748L41.4547 13.2888ZM35.4065 18.6605C34.4779 19.6096 33.5685 20.603 32.6797 21.6424L34.1997 22.9422C35.0597 21.9365 35.9389 20.9761 36.836 20.0592L35.4065 18.6605ZM30.1564 24.7925C29.3628 25.8499 28.5883 26.9488 27.8339 28.0904L29.5025 29.1931C30.2352 28.0842 30.9867 27.018 31.756 25.993L30.1564 24.7925ZM25.7055 31.5184C25.0389 32.6612 24.3906 33.8423 23.7615 35.0626L25.5391 35.9791C26.1527 34.789 26.7843 33.6383 27.4331 32.526L25.7055 31.5184ZM22.0014 38.6898C21.4578 39.881 20.9309 41.1061 20.4214 42.366L22.2755 43.1158C22.7743 41.8824 23.2897 40.6842 23.8209 39.5202L22.0014 38.6898ZM18.9916 46.1216C18.5451 47.369 18.1143 48.6478 17.6999 49.9586L19.6069 50.5615C20.0139 49.274 20.4367 48.019 20.8746 46.7957L18.9916 46.1216ZM16.5657 53.7735C16.3841 54.424 16.2063 55.0817 16.0323 55.747L17.9672 56.253C18.1384 55.5983 18.3134 54.9511 18.492 54.3113L16.5657 53.7735ZM16.0208 55.796C15.878 56.4813 15.7459 57.1654 15.6243 57.8483L17.5933 58.1989C17.7115 57.5352 17.8399 56.8702 17.9787 56.204L16.0208 55.796ZM15.0164 61.9595C14.8533 63.3457 14.7331 64.7263 14.6548 66.1008L16.6516 66.2146C16.7276 64.8802 16.8443 63.5396 17.0027 62.1933L15.0164 61.9595ZM14.5445 70.2574C14.5499 71.6501 14.598 73.0357 14.6875 74.4137L16.6833 74.284C16.5964 72.9464 16.5497 71.6014 16.5445 70.2496L14.5445 70.2574ZM15.083 78.5537C15.2569 79.9318 15.4719 81.3015 15.7269 82.6621L17.6927 82.2937C17.445 80.9718 17.2361 79.6416 17.0673 78.3034L15.083 78.5537ZM16.6125 86.7245C16.9468 88.0687 17.3199 89.4032 17.7306 90.7275L19.6408 90.1351C19.2412 88.8465 18.8784 87.5486 18.5533 86.2417L16.6125 86.7245ZM19.0703 94.6595C19.5514 95.9542 20.0682 97.2383 20.6196 98.5113L22.4549 97.7163C21.9173 96.4752 21.4136 95.2239 20.9451 93.9629L19.0703 94.6595ZM22.366 102.275C22.9773 103.51 23.6212 104.734 24.2964 105.946L26.0435 104.972C25.3838 103.788 24.7551 102.593 24.1584 101.388L22.366 102.275ZM26.3984 109.518C27.1233 110.688 27.8774 111.845 28.6596 112.99L30.311 111.862C29.5452 110.741 28.8073 109.608 28.0983 108.465L26.3984 109.518ZM31.0684 116.359C31.8912 117.46 32.7401 118.548 33.614 119.624L35.1662 118.362C34.309 117.307 33.4768 116.24 32.6705 115.161L31.0684 116.359ZM36.2861 122.784C37.1931 123.816 38.1232 124.835 39.0755 125.84L40.5276 124.465C39.592 123.477 38.6786 122.476 37.7883 121.464L36.2861 122.784ZM41.9735 128.792C42.9526 129.755 43.9523 130.704 44.9715 131.64L46.3242 130.167C45.3215 129.246 44.3383 128.313 43.3757 127.366L41.9735 128.792ZM48.0598 134.383C49.1004 135.277 50.159 136.157 51.2349 137.024L52.4893 135.466C51.4298 134.613 50.3874 133.746 49.3631 132.866L48.0598 134.383ZM54.4909 139.564C55.5859 140.392 56.6967 141.205 57.8225 142.004L58.9802 140.373C57.8704 139.586 56.7757 138.784 55.6968 137.968L54.4909 139.564ZM61.2246 144.345C62.367 145.107 63.5232 145.854 64.6925 146.587L65.7544 144.892C64.6011 144.169 63.4607 143.432 62.3343 142.681L61.2246 144.345ZM68.2209 148.73C69.4038 149.426 70.5987 150.107 71.8047 150.773L72.7716 149.022C71.5814 148.365 70.4023 147.693 69.2352 147.006L68.2209 148.73ZM75.4432 152.719C76.6631 153.35 77.8932 153.966 79.1327 154.567L80.0045 152.767C78.7809 152.174 77.5666 151.566 76.3625 150.943L75.4432 152.719ZM82.87 156.316C84.1223 156.882 85.3832 157.433 86.6519 157.967L87.4278 156.123C86.1752 155.596 84.9304 155.053 83.694 154.494L82.87 156.316ZM90.475 159.517C91.7557 160.018 93.0433 160.501 94.3372 160.968L95.0158 159.086C93.7383 158.626 92.467 158.148 91.2025 157.654L90.475 159.517ZM98.2365 162.317C98.8892 162.533 99.5433 162.745 100.199 162.953L100.803 161.046C100.156 160.841 99.51 160.632 98.8656 160.418L98.2365 162.317ZM100.199 162.953C100.881 163.169 101.552 163.36 102.214 163.528L102.705 161.589C102.083 161.432 101.449 161.251 100.803 161.046L100.199 162.953ZM106.195 164.264C107.603 164.424 108.963 164.467 110.277 164.4L110.175 162.402C108.975 162.464 107.725 162.425 106.421 162.277L106.195 164.264ZM114.345 163.815C115.695 163.49 116.989 163.042 118.234 162.483L117.415 160.659C116.279 161.169 115.102 161.576 113.877 161.871L114.345 163.815ZM121.812 160.498C122.926 159.757 123.997 158.926 125.032 158.017L123.713 156.514C122.737 157.37 121.736 158.146 120.704 158.832L121.812 160.498ZM127.92 155.194C128.813 154.23 129.681 153.21 130.53 152.141L128.964 150.897C128.143 151.932 127.307 152.913 126.453 153.834L127.92 155.194ZM132.923 148.935C133.678 147.866 134.42 146.762 135.153 145.629L133.473 144.542C132.753 145.657 132.026 146.739 131.289 147.782L132.923 148.935ZM137.258 142.265C137.934 141.153 138.606 140.019 139.276 138.871L137.548 137.863C136.883 139.004 136.217 140.127 135.548 141.227L137.258 142.265ZM141.247 135.45C141.894 134.315 142.544 133.17 143.197 132.021L141.458 131.033C140.804 132.184 140.156 133.326 139.51 134.459L141.247 135.45ZM145.149 128.599C145.8 127.466 146.457 126.333 147.123 125.204L145.4 124.188C144.729 125.325 144.068 126.465 143.415 127.603L145.149 128.599ZM149.143 121.842C149.828 120.728 150.523 119.622 151.232 118.529L149.554 117.441C148.835 118.549 148.131 119.669 147.439 120.796L149.143 121.842ZM153.408 115.284C154.153 114.213 154.913 113.16 155.692 112.129L154.096 110.923C153.3 111.977 152.524 113.052 151.766 114.143L153.408 115.284ZM158.112 109.077C158.946 108.076 159.801 107.104 160.681 106.165L159.221 104.798C158.313 105.768 157.432 106.768 156.576 107.796L158.112 109.077ZM163.417 103.428C164.361 102.547 165.332 101.703 166.333 100.903L165.085 99.3408C164.041 100.175 163.031 101.052 162.052 101.966L163.417 103.428ZM169.442 98.6286C170.505 97.9199 171.601 97.2588 172.733 96.6499L171.786 94.8886C170.596 95.5284 169.446 96.2221 168.332 96.9642L169.442 98.6286ZM176.191 95.0043C177.355 94.52 178.555 94.0883 179.795 93.7139L179.216 91.7993C177.911 92.1935 176.648 92.6479 175.422 93.1578L176.191 95.0043ZM183.527 92.7868C184.758 92.5448 186.026 92.3563 187.333 92.2249L187.133 90.2349C185.764 90.3725 184.435 90.5702 183.142 90.8244L183.527 92.7868ZM191.144 92.0088C192.399 91.9908 193.687 92.0227 195.012 92.1075L195.139 90.1116C193.764 90.0235 192.423 89.9902 191.115 90.009L191.144 92.0088ZM198.873 92.4933C200.103 92.6589 201.363 92.868 202.654 93.1226L203.041 91.1604C201.712 90.8982 200.412 90.6824 199.139 90.5111L198.873 92.4933ZM206.521 94.0001C207.714 94.305 208.932 94.6469 210.174 95.0272L210.76 93.1148C209.488 92.7257 208.241 92.3753 207.017 92.0624L206.521 94.0001ZM213.957 96.277C215.122 96.6897 216.309 97.1345 217.516 97.6127L218.253 95.7531C217.023 95.2663 215.814 94.8128 214.625 94.3917L213.957 96.277ZM221.205 99.1478C222.345 99.6447 223.503 100.17 224.679 100.725L225.532 98.9155C224.338 98.3529 223.162 97.8195 222.004 97.3145L221.205 99.1478ZM228.224 102.455C228.824 102.758 229.428 103.069 230.038 103.386L230.962 101.613C230.345 101.291 229.733 100.977 229.125 100.67L228.224 102.455ZM230.038 103.386C230.649 103.705 231.255 104.02 231.855 104.332L232.776 102.557C232.177 102.245 231.573 101.931 230.962 101.613L230.038 103.386ZM235.39 106.159C236.558 106.76 237.704 107.347 238.828 107.921L239.736 106.139C238.614 105.567 237.471 104.981 236.305 104.381L235.39 106.159ZM242.429 109.747C243.605 110.339 244.756 110.915 245.882 111.476L246.773 109.685C245.65 109.126 244.502 108.552 243.33 107.961L242.429 109.747ZM249.5 113.262C250.688 113.843 251.847 114.405 252.978 114.949L253.845 113.147C252.718 112.605 251.563 112.045 250.379 111.465L249.5 113.262ZM256.622 116.682C257.833 117.251 259.01 117.797 260.155 118.32L260.987 116.501C259.849 115.981 258.678 115.438 257.473 114.872L256.622 116.682ZM263.8 119.96C265.056 120.514 266.27 121.04 267.443 121.536L268.222 119.694C267.059 119.202 265.855 118.681 264.608 118.13L263.8 119.96ZM271.065 123.026C272.351 123.54 273.586 124.016 274.771 124.455L275.465 122.579C274.297 122.147 273.079 121.677 271.807 121.169L271.065 123.026ZM278.545 125.78C279.883 126.222 281.152 126.611 282.362 126.948L282.899 125.022C281.724 124.694 280.484 124.314 279.174 123.881L278.545 125.78ZM286.241 127.901C287.649 128.195 288.969 128.408 290.215 128.545L290.433 126.557C289.258 126.428 288.002 126.226 286.649 125.944L286.241 127.901ZM294.309 128.722C295.761 128.677 297.109 128.509 298.386 128.232L297.962 126.277C296.808 126.528 295.582 126.682 294.247 126.723L294.309 128.722ZM302.309 126.974C303.553 126.444 304.747 125.812 305.932 125.104L304.906 123.387C303.778 124.061 302.667 124.648 301.526 125.134L302.309 126.974ZM309.284 122.927C310.324 122.212 311.401 121.447 312.526 120.658L311.377 119.021C310.24 119.818 309.18 120.571 308.151 121.279L309.284 122.927ZM315.748 118.441C316.785 117.748 317.88 117.04 319.048 116.324L318.002 114.619C316.808 115.352 315.691 116.074 314.637 116.779L315.748 118.441ZM322.419 114.36C323.504 113.761 324.65 113.16 325.866 112.56L324.981 110.766C323.737 111.38 322.564 111.996 321.452 112.609L322.419 114.36ZM329.403 110.914C330.551 110.41 331.756 109.91 333.023 109.416L332.297 107.553C331.004 108.057 329.773 108.568 328.599 109.083L329.403 110.914ZM336.672 108.074C337.852 107.664 339.08 107.261 340.361 106.865L339.77 104.954C338.468 105.357 337.218 105.767 336.016 106.184L336.672 108.074ZM344.115 105.769C345.349 105.429 346.627 105.097 347.951 104.772L347.475 102.83C346.133 103.159 344.836 103.496 343.584 103.841L344.115 105.769Z" fill="#FDE4D3"/>
<circle cx="75" cy="143" r="25" fill="#FFFAF7"/>
<mask id="mask0" mask-type="alpha" maskUnits="userSpaceOnUse" x="50" y="118" width="50" height="50">
<circle cx="75" cy="143" r="25" fill="#FCECE5"/>
</mask>
<g mask="url(#mask0)">
<g clip-path="url(#clip0)">
<path d="M85.6534 151.157C80.1946 137.637 83.8562 126.666 71.8323 126.666C59.8084 126.666 63.47 137.642 58.0111 151.157C53.776 161.659 89.8886 161.659 85.6534 151.157Z" fill="#925B31"/>
<path d="M71.8325 152.781C76.9915 152.781 81.1737 147.538 81.1737 141.069C81.1737 134.601 76.9915 129.357 71.8325 129.357C66.6734 129.357 62.4912 134.601 62.4912 141.069C62.4912 147.538 66.6734 152.781 71.8325 152.781Z" fill="#FFBE9F"/>
<path d="M69.4715 153.078C68.958 154.302 68.6628 154.812 67.3119 155.21C67.1536 156.084 69.6251 158.924 71.8254 161.43C74.0233 158.924 76.4972 156.084 76.3389 155.21C74.9951 154.812 74.7 154.302 74.1793 153.078C74.1553 152.987 69.5459 153.076 69.4715 153.078Z" fill="#FFBE9F"/>
<path d="M68.154 143.264C68.8285 143.264 69.3753 142.714 69.3753 142.036C69.3753 141.357 68.8285 140.807 68.154 140.807C67.4794 140.807 66.9326 141.357 66.9326 142.036C66.9326 142.714 67.4794 143.264 68.154 143.264Z" fill="#4D677A"/>
<path d="M75.3532 143.264C76.0277 143.264 76.5745 142.714 76.5745 142.036C76.5745 141.357 76.0277 140.807 75.3532 140.807C74.6787 140.807 74.1318 141.357 74.1318 142.036C74.1318 142.714 74.6787 143.264 75.3532 143.264Z" fill="#4D677A"/>
<path d="M66.6191 139.573C66.8591 139.276 67.4566 139.066 68.1428 139.066C68.6554 139.038 69.1625 139.184 69.5825 139.481" stroke="#471C0E" stroke-width="5" stroke-linecap="round" stroke-linejoin="round"/>
<path d="M73.875 139.573C74.115 139.276 74.7148 139.066 75.3987 139.066C75.9112 139.038 76.4181 139.185 76.8384 139.481" stroke="#471C0E" stroke-width="5" stroke-linecap="round" stroke-linejoin="round"/>
<path d="M62.4987 141.222C62.4987 141.222 67.5736 142.625 74.0163 136.152C74.0163 136.152 72.6486 139.327 70.417 140.066C70.417 140.066 74.6785 140.146 76.9917 135.5C76.9917 135.5 76.5861 137.915 75.4176 139.062C75.4176 139.062 77.5243 138.996 78.5369 134.926C78.5369 134.926 78.7409 134.602 78.9065 135.261C78.9065 135.261 80.7493 140.841 81.1908 141.338L81.9802 139.062L79.168 132.205L76.3534 130.16L72.1543 128.525L68.1543 129.168L65.4093 130.616L63.3193 133.378L61.6396 140.189L62.4987 141.222Z" fill="#925B31"/>
<path opacity="0.77" d="M74.4291 153.613C74.3523 153.452 74.2755 153.275 74.1891 153.08C74.1508 152.988 69.5413 153.08 69.4669 153.08C69.3934 153.258 69.3214 153.419 69.251 153.563C69.9924 154.111 70.885 154.594 71.7608 154.632C72.6991 154.685 73.6565 154.176 74.4291 153.613Z" fill="#F98D72"/>
<path d="M81.0923 142.438L78.0833 144.975C74.964 145.262 68.7013 145.265 65.5819 144.975L62.5729 142.438C62.4554 142.715 62.4986 143.193 62.7097 143.377L65.3492 145.463C65.3492 145.463 65.3276 148.278 65.5891 149.907C65.8507 151.537 69.8794 153.852 71.8542 153.86C74.0306 153.86 78.1745 151.158 78.1193 149.907C78.3593 148.278 78.3473 145.463 78.3473 145.463L80.9867 143.377C81.079 143.241 81.1368 143.084 81.1552 142.92C81.1736 142.757 81.152 142.591 81.0923 142.438Z" fill="white"/>
<path d="M61.6929 167.996H81.9735C81.1745 165.55 81.9375 160.27 83.0581 158.114C82.0503 156.687 80.6418 155.717 78.5446 155.359C75.7044 157.324 73.3954 159.969 71.826 163.056C70.7486 160.07 66.6527 155.767 64.8338 155.412C62.8255 156.117 61.8417 156.818 60.6035 158.114C61.8801 160.835 62.0336 164.865 61.6929 167.996Z" fill="#84BCC1"/>
<path d="M61.9586 167.996V167.579C61.318 167.579 59.4871 166.941 58.6953 166.145L58.7289 167.996H61.9586Z" fill="#FBCBA6"/>
<path d="M84.9241 167.996L84.9577 166.145C84.1658 166.941 82.3326 167.579 81.6943 167.579V167.996H84.9241Z" fill="#FBCBA6"/>
<path d="M81.9709 167.997C83.4106 167.514 84.5408 167.031 85.6542 166.111C85.479 163.057 83.8809 158.354 83.0579 158.115C81.5198 159.028 80.1329 165.46 81.9709 167.997Z" fill="#6CADB5"/>
<path d="M60.6094 158.115C58.949 159.028 58.1163 163.441 58.0107 166.111C59.1241 167.027 60.2543 167.514 61.6916 167.997C62.9441 166.145 62.3323 158.89 60.6094 158.115Z" fill="#6CADB5"/>
<path d="M78.5424 155.36C78.5424 155.06 76.9299 154.758 76.3445 155.21C74.8352 157.383 74.0338 158.349 71.831 161.079C69.6283 158.341 68.8268 157.39 67.3175 155.21C66.7705 154.751 64.8389 155.019 64.8389 155.413L71.831 164.399L78.5424 155.36Z" fill="#6CADB5"/>
</g>
</g>
<circle cx="174" cy="99" r="25" fill="#FFFAF7"/>
<mask id="mask1" mask-type="alpha" maskUnits="userSpaceOnUse" x="149" y="74" width="50" height="50">
<circle cx="174" cy="99" r="25" fill="#FCECE5"/>
</mask>
<g mask="url(#mask1)">
<g clip-path="url(#clip1)">
<path d="M172.449 115.907L171.126 116.904L171.694 123.989H184.32C184.32 123.989 182.786 115.661 181.376 114.73C180.668 114.26 177.579 113.477 174.855 112.846L173.36 116.904L172.449 115.907Z" fill="#D84248"/>
<path d="M168.323 115.908L167.408 116.904L165.915 112.822C163.16 113.458 160.003 114.256 159.286 114.73C157.875 115.661 156.342 123.99 156.342 123.99H169.101L169.646 116.904L168.323 115.908Z" fill="#D84248"/>
<path d="M170.385 113.657L172.918 111.12V109.427C172.124 109.808 171.263 110.029 170.385 110.08C169.474 110.027 168.583 109.792 167.764 109.391L167.726 111.083L170.385 113.657Z" fill="#FFBE9F"/>
<path d="M171.127 116.904L172.451 115.908L170.386 113.656L168.323 115.908L169.647 116.904L169.101 123.99H171.695L171.127 116.904Z" fill="white"/>
<path d="M168.32 115.908L170.385 113.657L167.726 111.086L165.905 112.801L165.915 112.822L167.407 116.904L168.32 115.908Z" fill="#D84248"/>
<path d="M170.386 113.656L172.448 115.907L173.364 116.904L174.849 112.846L174.866 112.8L172.919 111.119L170.386 113.656Z" fill="#D84248"/>
<path d="M179.504 108.365C178.641 107.342 178.08 106.098 177.883 104.773C177.085 106.146 176.03 107.353 174.778 108.328C179.125 113.257 173.418 123.999 173.418 123.999C173.418 123.999 177.313 123.999 181.871 123.999C182.948 120.401 183.054 112.558 179.504 108.365Z" fill="#3F1414"/>
<path opacity="0.77" d="M167.726 109.4V109.618C167.726 109.618 169.121 110.931 170.382 110.996C171.643 111.062 172.916 109.744 172.916 109.744V109.408" fill="#F98D72"/>
<path d="M179.577 96.9959C179.577 97.0322 179.577 97.0684 179.577 97.1047C179.244 97.4191 178.891 98.1398 178.611 98.5146C178.835 97.2063 179.094 95.8399 178.652 93.8956C178.608 93.7481 178.563 93.6005 178.512 93.4506C178.029 92.2414 176.872 91.9464 175.614 91.5474C173.923 91.0057 172.151 91.4071 170.45 90.9791C169.383 90.7106 168.545 89.7699 167.48 89.6925C162.587 89.3612 161.659 94.667 162.258 98.5146C161.903 98.0456 161.58 97.5527 161.292 97.0394C160.203 96.4735 158.996 97.3997 159.211 99.0224C159.694 102.749 161.573 102.111 161.573 102.111C164.775 110.13 170.38 110.091 170.38 110.091C170.38 110.091 175.986 110.132 179.191 102.111C179.191 102.111 181.057 102.749 181.552 99.0224C181.765 97.4505 180.637 96.534 179.577 96.9959Z" fill="#FFBE9F"/>
<path d="M167.483 91.6084C168.548 91.6664 169.386 92.4088 170.453 92.6192C172.144 92.9554 173.919 92.6386 175.617 93.0618C176.868 93.3762 178.032 93.6059 178.515 94.5539C178.57 94.6614 178.616 94.774 178.65 94.89C178.65 94.89 178.65 94.89 178.65 94.9046C179.092 96.4281 178.834 97.4994 178.609 98.5321C178.884 98.237 179.237 97.6735 179.575 97.4269C179.575 97.3979 179.575 97.3688 179.575 97.3398C179.763 95.5091 180.42 94.2105 180.041 92.2468C179.59 89.7608 178.384 88.2372 175.453 87.1828C175.597 84.646 171.984 83.1369 169.14 83.5868C167.449 83.8528 166.483 84.6363 165.534 85.6834C164.853 86.4428 164.935 86.5178 164.114 87.074C163.488 87.4972 162.764 87.7463 162.182 88.2396C159.042 90.8635 159.259 94.5104 161.305 97.3761C161.598 97.7846 161.921 98.1709 162.271 98.5321C161.662 95.4995 162.59 91.3399 167.483 91.6084Z" fill="#3F1414"/>
<path d="M167.263 100.457C167.874 100.457 168.369 99.9615 168.369 99.3498C168.369 98.7381 167.874 98.2422 167.263 98.2422C166.652 98.2422 166.157 98.7381 166.157 99.3498C166.157 99.9615 166.652 100.457 167.263 100.457Z" fill="#4D677A"/>
<path d="M173.796 100.457C174.406 100.457 174.902 99.9615 174.902 99.3498C174.902 98.7381 174.406 98.2422 173.796 98.2422C173.185 98.2422 172.689 98.7381 172.689 99.3498C172.689 99.9615 173.185 100.457 173.796 100.457Z" fill="#4D677A"/>
<path d="M173.638 103.686C173.615 104.524 173.267 105.32 172.667 105.904C172.067 106.489 171.262 106.816 170.425 106.816C169.588 106.816 168.784 106.489 168.184 105.904C167.583 105.32 167.235 104.524 167.212 103.686" fill="white"/>
<path d="M165.875 97.1261C166.104 96.8577 166.638 96.6666 167.259 96.6666C167.723 96.6437 168.181 96.7764 168.561 97.0439" stroke="#471C0E" stroke-width="5" stroke-linecap="round" stroke-linejoin="round"/>
<path d="M172.453 97.1261C172.683 96.8577 173.216 96.6666 173.837 96.6666C174.301 96.6437 174.759 96.7764 175.139 97.0439" stroke="#471C0E" stroke-width="5" stroke-linecap="round" stroke-linejoin="round"/>
</g>
</g>
<circle cx="292" cy="114" r="25" fill="#FFFAF7"/>
<mask id="mask2" mask-type="alpha" maskUnits="userSpaceOnUse" x="267" y="89" width="50" height="50">
<circle cx="292" cy="114" r="25" fill="#FCECE5"/>
</mask>
<g mask="url(#mask2)">
<g clip-path="url(#clip2)">
<path d="M290.449 130.907L289.126 131.904L289.694 138.989H302.32C302.32 138.989 300.786 130.661 299.376 129.73C298.668 129.26 295.579 128.477 292.855 127.846L291.36 131.904L290.449 130.907Z" fill="#D84248"/>
<path d="M286.323 130.908L285.408 131.904L283.915 127.822C281.16 128.458 278.003 129.256 277.286 129.73C275.875 130.661 274.342 138.99 274.342 138.99H287.101L287.646 131.904L286.323 130.908Z" fill="#D84248"/>
<path d="M288.385 128.657L290.918 126.12V124.427C290.124 124.808 289.263 125.029 288.385 125.08C287.474 125.027 286.583 124.792 285.764 124.391L285.726 126.083L288.385 128.657Z" fill="#FFBE9F"/>
<path d="M289.127 131.904L290.451 130.908L288.386 128.656L286.323 130.908L287.647 131.904L287.101 138.99H289.695L289.127 131.904Z" fill="white"/>
<path d="M286.32 130.908L288.385 128.657L285.726 126.086L283.905 127.801L283.915 127.822L285.407 131.904L286.32 130.908Z" fill="#D84248"/>
<path d="M288.386 128.656L290.448 130.907L291.364 131.904L292.849 127.846L292.866 127.8L290.919 126.119L288.386 128.656Z" fill="#D84248"/>
<path d="M297.504 123.365C296.641 122.342 296.08 121.098 295.883 119.773C295.085 121.146 294.03 122.353 292.778 123.328C297.125 128.257 291.418 138.999 291.418 138.999C291.418 138.999 295.313 138.999 299.871 138.999C300.948 135.401 301.054 127.558 297.504 123.365Z" fill="#3F1414"/>
<path opacity="0.77" d="M285.726 124.4V124.618C285.726 124.618 287.121 125.931 288.382 125.996C289.643 126.062 290.916 124.744 290.916 124.744V124.408" fill="#F98D72"/>
<path d="M297.577 111.996C297.577 112.032 297.577 112.068 297.577 112.105C297.244 112.419 296.891 113.14 296.611 113.515C296.835 112.206 297.094 110.84 296.652 108.896C296.608 108.748 296.563 108.601 296.512 108.451C296.029 107.241 294.872 106.946 293.614 106.547C291.923 106.006 290.151 106.407 288.45 105.979C287.383 105.711 286.545 104.77 285.48 104.693C280.587 104.361 279.659 109.667 280.258 113.515C279.903 113.046 279.58 112.553 279.292 112.039C278.203 111.474 276.996 112.4 277.211 114.022C277.694 117.749 279.573 117.111 279.573 117.111C282.775 125.13 288.38 125.091 288.38 125.091C288.38 125.091 293.986 125.132 297.191 117.111C297.191 117.111 299.057 117.749 299.552 114.022C299.765 112.451 298.637 111.534 297.577 111.996Z" fill="#FFBE9F"/>
<path d="M285.483 106.608C286.548 106.666 287.386 107.409 288.453 107.619C290.144 107.955 291.919 107.639 293.617 108.062C294.868 108.376 296.032 108.606 296.515 109.554C296.57 109.661 296.616 109.774 296.65 109.89C296.65 109.89 296.65 109.89 296.65 109.905C297.092 111.428 296.834 112.499 296.609 113.532C296.884 113.237 297.237 112.674 297.575 112.427C297.575 112.398 297.575 112.369 297.575 112.34C297.763 110.509 298.42 109.21 298.041 107.247C297.59 104.761 296.384 103.237 293.453 102.183C293.597 99.646 289.984 98.1369 287.14 98.5868C285.449 98.8528 284.483 99.6363 283.534 100.683C282.853 101.443 282.935 101.518 282.114 102.074C281.488 102.497 280.764 102.746 280.182 103.24C277.042 105.864 277.259 109.51 279.305 112.376C279.598 112.785 279.921 113.171 280.271 113.532C279.662 110.499 280.59 106.34 285.483 106.608Z" fill="#3F1414"/>
<path d="M285.263 115.457C285.874 115.457 286.369 114.961 286.369 114.35C286.369 113.738 285.874 113.242 285.263 113.242C284.652 113.242 284.157 113.738 284.157 114.35C284.157 114.961 284.652 115.457 285.263 115.457Z" fill="#4D677A"/>
<path d="M291.796 115.457C292.406 115.457 292.902 114.961 292.902 114.35C292.902 113.738 292.406 113.242 291.796 113.242C291.185 113.242 290.689 113.738 290.689 114.35C290.689 114.961 291.185 115.457 291.796 115.457Z" fill="#4D677A"/>
<path d="M291.638 118.686C291.615 119.524 291.267 120.32 290.667 120.904C290.067 121.489 289.262 121.816 288.425 121.816C287.588 121.816 286.784 121.489 286.184 120.904C285.583 120.32 285.235 119.524 285.212 118.686" fill="white"/>
<path d="M283.875 112.126C284.104 111.858 284.638 111.667 285.259 111.667C285.723 111.644 286.181 111.776 286.561 112.044" stroke="#471C0E" stroke-width="5" stroke-linecap="round" stroke-linejoin="round"/>
<path d="M290.453 112.126C290.683 111.858 291.216 111.667 291.837 111.667C292.301 111.644 292.759 111.776 293.139 112.044" stroke="#471C0E" stroke-width="5" stroke-linecap="round" stroke-linejoin="round"/>
</g>
</g>
<circle cx="25" cy="64" r="25" fill="#FFFAF7"/>
<mask id="mask3" mask-type="alpha" maskUnits="userSpaceOnUse" x="0" y="39" width="50" height="50">
<circle cx="25" cy="64" r="25" fill="#FCECE5"/>
</mask>
<g mask="url(#mask3)">
<g clip-path="url(#clip3)">
<path d="M21.5546 74.3017L21.8855 76.9218C20.9909 79.5394 16.2752 80.0835 14.8291 76.7845L15.0742 73.9487C16.7825 73.3409 20.2164 73.2134 21.5546 74.3017Z" fill="#FFBE9F"/>
<path opacity="0.77" d="M15.0958 73.9166L15.0713 74.1862C15.6718 74.5906 17.0517 75.4117 18.3728 75.4657C19.6424 75.5122 20.9487 74.772 21.5762 74.3578V74.272C21.2678 74.0389 20.9187 73.8652 20.5468 73.7598H15.6448C15.4463 73.8039 15.2674 73.8578 15.0958 73.9166Z" fill="#F98D72"/>
<path d="M27.1793 58.4821C26.716 54.6291 26.3361 52.5409 25.1768 49.4919C23.5469 47.5311 15.8631 46.4624 13.167 49.3669C11.6131 52.7541 11.2209 53.7566 10.4121 58.4943C9.95378 74.612 24.2994 82.9625 27.1793 58.4821Z" fill="#FFBE9F"/>
<path d="M27.3145 59.627C27.2679 59.2251 27.2238 58.8501 27.1797 58.4824C26.839 59.9359 26.4664 61.4775 26.2459 62.2226C25.766 64.0247 25.0844 65.7669 24.214 67.4162C23.3463 66.7888 21.062 64.5731 20.2924 65.0118C18.6086 65.9922 18.5571 65.7471 17.2434 65.0707C16.5424 64.7128 16.7066 64.6148 13.1503 67.4162C11.665 63.5535 10.8169 61.9236 10.3954 58.4947C10.312 58.9726 10.2262 59.4751 10.1356 60.0461C9.42232 64.681 10.6258 72.4653 15.0767 73.9481C17.464 74.7447 17.8831 74.7447 21.1478 74.3672C27.1552 73.676 27.9762 62.1834 27.3145 59.627ZM15.3047 69.6981C17.1895 66.9138 16.4811 67.8182 18.7091 67.9187C20.6699 68.0069 20.0865 66.5584 22.6748 69.6981C20.812 71.1344 17.4199 71.6025 15.2949 69.6981H15.3047Z" fill="#313131"/>
<path d="M10.1458 60.0469C11.56 58.4832 13.1605 50.7332 13.1605 49.368C10.4129 47.4783 4.86146 54.7626 10.1458 60.0469Z" fill="#313131"/>
<path d="M25.1762 49.4919C24.686 51.2737 26.3282 58.1487 27.3135 59.6267C31.289 57.4943 29.2154 46.7419 25.1762 49.4919Z" fill="#313131"/>
<path d="M26.3091 77.9896C27.7674 77.5288 31.4439 89.3891 34.6105 99.4185L30.1816 102.401L26.3091 94.1416C25.9095 91.1587 25.5958 80.6685 26.3091 77.9896Z" fill="#6FAEB4"/>
<path d="M9.64278 77.8213C7.66484 77.4341 2.64769 84.6841 4.61827 102.905C5.84376 103.299 7.09621 103.326 8.40014 103.25C9.10847 99.0738 10.4835 81.2772 9.64278 77.8213Z" fill="#6FAEB4"/>
<path d="M14.834 76.7852C14.834 80.5131 15.6967 84.2361 17.9345 90.1896C19.9247 86.2288 21.8855 80.4518 21.8855 76.9224C20.3928 78.116 17.0472 78.2754 14.834 76.7852Z" fill="white"/>
<path d="M26.3095 77.9893C25.7025 77.7156 25.0715 77.4981 24.4247 77.3398L17.9345 89.0653C16.5276 92.509 16.0595 113.832 17.0326 116.367C17.4664 117.122 24.6968 117.014 25.1992 116.994C26.2213 116.957 25.9051 117.975 26.3095 95.2197C26.3512 92.8545 26.3095 77.9893 26.3095 77.9893Z" fill="#91C1C6"/>
<path d="M25.1159 81.82L24.4248 77.3397C24.4248 77.173 22.6355 76.6901 21.8905 76.9205L17.9346 89.0651L23.4811 85.4205L22.562 82.771L25.1159 81.82Z" fill="#6FAEB4"/>
<path d="M12.4905 77.0879C11.5101 77.1933 9.64243 77.8232 9.64243 77.8232C7.74537 117.833 7.45861 116.47 8.86793 116.578C9.37038 116.617 16.2993 117.186 17.0321 116.37L17.9341 89.0683L12.4905 77.0879Z" fill="#91C1C6"/>
<path d="M12.4909 77.0888L10.334 82.177L12.7629 82.7848L11.9247 86.0937L17.9345 89.0667L14.834 76.7848C14.3855 76.5446 12.856 76.7456 12.4909 77.0888Z" fill="#6FAEB4"/>
<path d="M15.5864 61.5947C16.2064 61.5947 16.709 61.0921 16.709 60.4722C16.709 59.8522 16.2064 59.3496 15.5864 59.3496C14.9664 59.3496 14.4639 59.8522 14.4639 60.4722C14.4639 61.0921 14.9664 61.5947 15.5864 61.5947Z" fill="#4D677A"/>
<path d="M16.6737 57.051L13.9013 57.857C13.6036 57.9435 13.4325 58.255 13.519 58.5526C13.6055 58.8503 13.917 59.0214 14.2146 58.9349L16.9871 58.1289C17.2848 58.0424 17.4559 57.7309 17.3694 57.4333C17.2829 57.1356 16.9714 56.9644 16.6737 57.051Z" fill="#471C0E"/>
<path d="M22.2143 61.5947C22.8343 61.5947 23.3369 61.0921 23.3369 60.4722C23.3369 59.8522 22.8343 59.3496 22.2143 59.3496C21.5944 59.3496 21.0918 59.8522 21.0918 60.4722C21.0918 61.0921 21.5944 61.5947 22.2143 61.5947Z" fill="#4D677A"/>
<path d="M23.5501 57.7588L20.6661 57.8953C20.3565 57.91 20.1173 58.1729 20.132 58.4825C20.1467 58.7922 20.4096 59.0313 20.7192 59.0166L23.6032 58.8801C23.9129 58.8655 24.152 58.6026 24.1373 58.2929C24.1227 57.9833 23.8598 57.7442 23.5501 57.7588Z" fill="#471C0E"/>
</g>
</g>
<defs>
<clipPath id="clip0">
<rect width="28.3333" height="41.3333" fill="white" transform="translate(57.666 126.666)"/>
</clipPath>
<clipPath id="clip1">
<rect width="27.9762" height="40.5095" fill="white" transform="translate(156.342 83.4902)"/>
</clipPath>
<clipPath id="clip2">
<rect width="27.9762" height="40.5095" fill="white" transform="translate(274.342 98.4902)"/>
</clipPath>
<clipPath id="clip3">
<rect width="42.9265" height="89.4289" fill="white" transform="translate(4.16699 47.5781)"/>
</clipPath>
</defs>
</svg>
