<svg width="60" height="60" viewBox="0 0 60 60" fill="none" xmlns="http://www.w3.org/2000/svg">
    <path d="M47.8374 0H12.1691C8.94324 0.00516001 5.85098 1.28892 3.56995 3.56995C1.28892 5.85098 0.00516001 8.94324 0 12.1691V47.8374C0.0051641 51.0627 1.28913 54.1543 3.57035 56.4343C5.85156 58.7143 8.94384 59.9966 12.1691 60H47.8374C51.0621 59.9966 54.1537 58.714 56.4339 56.4339C58.714 54.1537 59.9966 51.0621 60 47.8374V12.1691C59.9966 8.94384 58.7143 5.85156 56.4343 3.57035C54.1543 1.28913 51.0627 0.0051641 47.8374 0ZM12.1691 5.20325H47.8374C49.6832 5.20669 51.4523 5.94191 52.7569 7.2477C54.0615 8.55349 54.795 10.3233 54.7967 12.1691V14.6732H5.20325V12.1691C5.20669 10.3227 5.9417 8.55291 7.2473 7.2473C8.55291 5.9417 10.3227 5.20669 12.1691 5.20325ZM47.8374 54.7967H12.1691C10.3233 54.795 8.55349 54.0615 7.2477 52.7569C5.94191 51.4523 5.20669 49.6832 5.20325 47.8374V17.2683H54.7967V47.8374C54.795 49.6826 54.0613 51.4517 52.7565 52.7565C51.4517 54.0613 49.6826 54.795 47.8374 54.7967Z" fill="#BE5713"/>
    <path d="M37.9179 26.0003C37.6386 26.0069 37.3733 26.1238 37.1799 26.3254L29.9998 33.5056L22.8196 26.3254C22.721 26.2241 22.6031 26.1435 22.4727 26.0885C22.3424 26.0336 22.2024 26.0053 22.061 26.0055C21.8508 26.0057 21.6454 26.0686 21.4712 26.1862C21.2969 26.3037 21.1617 26.4705 21.0827 26.6653C21.0037 26.86 20.9845 27.0739 21.0277 27.2796C21.0709 27.4853 21.1744 27.6735 21.325 27.8201L28.5051 35.0002L21.325 42.1804C21.2235 42.2778 21.1425 42.3944 21.0868 42.5235C21.031 42.6526 21.0015 42.7915 21.0001 42.9321C20.9986 43.0728 21.0253 43.2123 21.0784 43.3425C21.1316 43.4727 21.2102 43.5909 21.3096 43.6904C21.4091 43.7898 21.5273 43.8684 21.6575 43.9216C21.7877 43.9747 21.9272 44.0014 22.0679 43.9999C22.2085 43.9985 22.3474 43.969 22.4765 43.9132C22.6056 43.8574 22.7222 43.7765 22.8196 43.675L29.9998 36.4949L37.1799 43.675C37.2773 43.7765 37.394 43.8574 37.523 43.9132C37.6521 43.969 37.7911 43.9985 37.9317 43.9999C38.0723 44.0014 38.2118 43.9747 38.342 43.9216C38.4722 43.8684 38.5905 43.7898 38.6899 43.6904C38.7894 43.5909 38.868 43.4727 38.9211 43.3425C38.9743 43.2123 39.0009 43.0728 38.9995 42.9321C38.9981 42.7915 38.9686 42.6526 38.9128 42.5235C38.857 42.3944 38.776 42.2778 38.6746 42.1804L31.4944 35.0002L38.6746 27.8201C38.8284 27.6726 38.934 27.4821 38.9776 27.2735C39.0213 27.0649 39.0008 26.848 38.919 26.6513C38.8372 26.4545 38.6978 26.2871 38.5192 26.1709C38.3406 26.0547 38.131 25.9953 37.9179 26.0003Z" fill="#BE5713" stroke="#BE5713"/>
</svg>
