<svg xmlns="http://www.w3.org/2000/svg" width="24" height="25" viewBox="0 0 24 25" fill="none">
<path fill-rule="evenodd" clip-rule="evenodd" d="M6.96214 14.4315C8.30352 15.8195 10.1228 16.5992 12.0198 16.5992C13.9168 16.5992 15.7361 15.8195 17.0775 14.4315C17.1735 14.3322 17.2665 14.2303 17.3564 14.126C18.0847 14.5808 18.7632 15.1282 19.3747 15.761C21.3628 17.8181 22.4797 20.6082 22.4797 23.5174C22.4797 23.7473 22.4695 23.9958 22.449 24.2918C22.4428 24.3785 22.4532 24.4656 22.4797 24.5481C22.5061 24.6306 22.5481 24.7069 22.6032 24.7725C22.6583 24.8381 22.7254 24.8918 22.8007 24.9304C22.8759 24.969 22.9579 24.9919 23.0417 24.9976H23.0877C23.2489 24.9973 23.4041 24.934 23.5221 24.8202C23.6401 24.7065 23.7121 24.5508 23.7238 24.3843C23.757 24.046 23.757 23.7817 23.757 23.5174C23.757 21.9033 23.4497 20.3051 22.8528 18.8139C22.2558 17.3227 21.3808 15.9678 20.2778 14.8265C19.6259 14.1519 18.9019 13.5598 18.1211 13.0608C18.803 11.9074 19.1724 10.5726 19.1724 9.19829V7.40092C19.1724 5.43808 18.4189 3.55562 17.0775 2.16767C15.7361 0.779732 13.9168 0 12.0198 0C10.1228 0 8.30352 0.779732 6.96214 2.16767C5.62076 3.55562 4.86719 5.43808 4.86719 7.40092V9.19829C4.86719 10.5213 5.20956 11.8078 5.84354 12.931C4.98327 13.4561 4.1885 14.0925 3.47913 14.8265C2.37611 15.9678 1.50115 17.3227 0.904198 18.8139C0.307248 20.3051 0 21.9033 0 23.5174C0 23.7791 0.0102193 24.0566 0.0332099 24.3843C0.046297 24.5588 0.125166 24.7208 0.252785 24.8356C0.380404 24.9503 0.546525 25.0085 0.71526 24.9976C0.798867 24.9915 0.880505 24.9685 0.955471 24.9297C1.03044 24.8909 1.09725 24.8372 1.15209 24.7716C1.20692 24.706 1.24869 24.6299 1.27499 24.5476C1.3013 24.4652 1.31162 24.3783 1.30536 24.2918C1.27726 23.9958 1.27726 23.7473 1.27726 23.5174C1.27726 20.6082 2.39416 17.8181 4.38228 15.761C5.04568 15.0745 5.78795 14.4885 6.58705 14.0122C6.7064 14.1564 6.83148 14.2963 6.96214 14.4315ZM7.8653 3.0969C8.96715 1.9568 10.4616 1.3163 12.0198 1.3163V1.32423C13.5776 1.32423 15.0717 1.96437 16.1734 3.10389C17.2752 4.24341 17.8945 5.78904 17.8952 7.40092V9.19829C17.8952 10.8106 17.2762 12.3569 16.1743 13.497C15.0725 14.6371 13.5781 15.2776 12.0198 15.2776C10.4616 15.2776 8.96715 14.6371 7.8653 13.497C6.76345 12.3569 6.14444 10.8106 6.14444 9.19829V7.39563C6.14444 5.78329 6.76345 4.23699 7.8653 3.0969Z" fill="#EFAD89"/>
</svg>