<svg width="24" height="25" viewBox="0 0 24 25" fill="none" xmlns="http://www.w3.org/2000/svg">
<path d="M23.0877 24.9976H23.0417C22.9579 24.9919 22.8759 24.969 22.8007 24.9304C22.7254 24.8918 22.6583 24.8381 22.6032 24.7725C22.5481 24.7069 22.5061 24.6306 22.4797 24.5481C22.4532 24.4656 22.4428 24.3785 22.449 24.2918C22.4695 23.9958 22.4797 23.7473 22.4797 23.5174C22.4797 20.6082 21.3628 17.8181 19.3747 15.761C17.3866 13.7038 14.6901 12.5482 11.8785 12.5482C9.06687 12.5482 6.37039 13.7038 4.38228 15.761C2.39416 17.8181 1.27726 20.6082 1.27726 23.5174C1.27726 23.7473 1.27726 23.9958 1.30536 24.2918C1.31162 24.3783 1.3013 24.4652 1.27499 24.5476C1.24869 24.6299 1.20692 24.706 1.15209 24.7716C1.09725 24.8372 1.03044 24.8909 0.955471 24.9297C0.880505 24.9685 0.798867 24.9915 0.71526 24.9976C0.546525 25.0085 0.380404 24.9503 0.252785 24.8356C0.125166 24.7208 0.046297 24.5588 0.0332099 24.3843C0.0102193 24.0566 0 23.7791 0 23.5174C-6.5745e-08 21.9033 0.307248 20.3051 0.904198 18.8139C1.50115 17.3227 2.37611 15.9678 3.47913 14.8265C4.58215 13.6852 5.89162 12.7798 7.33278 12.1621C8.77395 11.5445 10.3186 11.2266 11.8785 11.2266C13.4384 11.2266 14.983 11.5445 16.4242 12.1621C17.8653 12.7798 19.1748 13.6852 20.2778 14.8265C21.3808 15.9678 22.2558 17.3227 22.8528 18.8139C23.4497 20.3051 23.757 21.9033 23.757 23.5174C23.757 23.7817 23.757 24.046 23.7238 24.3843C23.7121 24.5508 23.6401 24.7065 23.5221 24.8202C23.4041 24.934 23.2489 24.9973 23.0877 24.9976Z" fill="#EFAD89"/>
<path d="M18.3901 7.40154C18.3901 3.68054 15.4748 0.664062 11.8786 0.664062C8.28246 0.664062 5.36719 3.68054 5.36719 7.40154V9.20949C5.36719 12.9305 8.28246 15.947 11.8786 15.947C15.4748 15.947 18.3901 12.9305 18.3901 9.20949V7.40154Z"/>
<path d="M12.0198 16.5992C10.1228 16.5992 8.30352 15.8195 6.96214 14.4315C5.62076 13.0436 4.86719 11.1611 4.86719 9.19829V7.40092C4.86719 5.43808 5.62076 3.55562 6.96214 2.16767C8.30352 0.779732 10.1228 0 12.0198 0C13.9168 0 15.7361 0.779732 17.0775 2.16767C18.4189 3.55562 19.1724 5.43808 19.1724 7.40092V9.19829C19.1724 11.1611 18.4189 13.0436 17.0775 14.4315C15.7361 15.8195 13.9168 16.5992 12.0198 16.5992ZM12.0198 1.3163C10.4616 1.3163 8.96715 1.9568 7.8653 3.0969C6.76345 4.23699 6.14444 5.78329 6.14444 7.39563V9.19829C6.14444 10.8106 6.76345 12.3569 7.8653 13.497C8.96715 14.6371 10.4616 15.2776 12.0198 15.2776C13.5781 15.2776 15.0725 14.6371 16.1743 13.497C17.2762 12.3569 17.8952 10.8106 17.8952 9.19829V7.40092C17.8945 5.78904 17.2752 4.24341 16.1734 3.10389C15.0717 1.96437 13.5776 1.32423 12.0198 1.32423V1.3163Z" fill="#EFAD89"/>
</svg>
