<svg width="297" height="407" viewBox="0 0 297 407" fill="none" xmlns="http://www.w3.org/2000/svg">
<path d="M12.2417 222.186L9.01611 406.999H154.936L147.67 217.353L12.2417 222.186Z" fill="#EEEDED"/>
<path d="M63.4397 175.602L62.8721 188.172V211.739C62.8721 211.739 81.9068 221.689 99.8048 211.355L103.497 202.416L101.793 169.821L63.4397 175.602Z" fill="#F6C0A4"/>
<path d="M62.0191 196.275C62.0191 196.275 8.89418 220.85 4.91786 229.788C0.941542 238.726 2.84883 276.429 2.84883 276.429H71.969L62.0191 196.275Z" fill="#EEEDED"/>
<path d="M162.281 239.202C162.281 241.942 162.148 244.843 162.148 246.929L159.536 276.443H94.1514L103.264 202.987L103.448 201.499L104.097 196.275C104.097 196.275 104.695 196.523 105.775 196.976L105.978 197.061C107.574 197.737 110.098 198.817 113.188 200.179C122.712 204.38 137.665 211.28 147.557 217.356C152.646 220.481 156.395 223.387 157.376 225.595C158.49 228.095 160.279 233.178 162.281 239.202Z" fill="#EEEDED"/>
<path d="M62.4613 190.951L82.7762 214.744L102.667 190.963L106.906 198.784L98.9882 276.714H63.7232L58.0425 198.784L62.4613 190.951Z" fill="#EEEDED"/>
<path d="M74.2349 223.365L82.4744 214.707H83.2449L91.1304 223.365L86.1684 230.628L92.9858 276.715H72.0957L78.2128 230.628L74.2349 223.365Z" fill="#536779"/>
<path d="M52.3604 200.494L59.1778 197.388L68.554 276.434H53.4239L39.0078 245.371L52.928 235.21L35.5991 227.025L52.3604 200.494Z" fill="#C5C6C6"/>
<path d="M112.675 199.375L105.858 196.27L95.6299 276.714H110.759L126.028 244.255L112.107 234.093L129.438 225.907L112.675 199.375Z" fill="#C5C6C6"/>
<path d="M101.646 176.765V184.854C101.646 184.854 92.4561 196.369 82.6892 196.657C82.5748 196.657 82.4634 196.657 82.349 196.657C72.7469 196.657 62.1775 184.822 62.0127 184.637V179.094L62.2599 179.078L101.304 176.785L101.646 176.765Z" fill="#EE9D83"/>
<path d="M48.224 169.886C45.9261 167.295 43.0545 153.19 43.0545 153.19C43.0545 153.19 39.0324 151.751 37.0229 142.828C35.0134 133.905 39.8945 133.903 39.8945 133.903C39.8945 133.903 37.3097 114.042 40.4682 95.612C43.6267 77.1819 118.879 87.8467 124.911 92.1651C130.942 96.4836 121.751 133.328 121.751 133.328C121.751 133.328 128.071 126.42 126.633 139.661C125.196 152.902 119.453 153.477 119.453 153.477C118.293 159.045 116.758 164.527 114.859 169.886C111.699 178.809 89.87 192.338 80.9668 192.338C72.0636 192.338 57.9893 179.385 57.9893 179.385L48.224 169.886Z" fill="#F6C0A4"/>
<path d="M73.4425 127.005L56.7817 130.655C55.9584 130.835 55.4369 131.65 55.6168 132.475L56.1919 135.112C56.3719 135.937 57.1851 136.46 58.0084 136.28L74.6692 132.63C75.4925 132.449 76.014 131.634 75.834 130.809L75.259 128.172C75.079 127.347 74.2657 126.825 73.4425 127.005Z" fill="#411F14"/>
<path d="M107.486 131.77L91.7748 125.122C90.9985 124.794 90.1034 125.158 89.7756 125.936L88.7281 128.423C88.4004 129.201 88.764 130.098 89.5403 130.426L105.252 137.074C106.028 137.403 106.923 137.038 107.251 136.26L108.298 133.774C108.626 132.996 108.262 132.099 107.486 131.77Z" fill="#411F14"/>
<path d="M71.2012 142.432C71.2012 145.452 68.7339 145.521 65.7204 145.521C62.7069 145.521 60.2869 145.452 60.2869 142.432C60.2748 141.706 60.407 140.985 60.6758 140.31C60.9446 139.636 61.3446 139.022 61.8526 138.505C62.3605 137.987 62.9662 137.576 63.6343 137.295C64.3024 137.015 65.0196 136.87 65.744 136.87C66.4685 136.87 67.1856 137.015 67.8537 137.295C68.5218 137.576 69.1275 137.987 69.6355 138.505C70.1434 139.022 70.5434 139.636 70.8123 140.31C71.0811 140.985 71.2133 141.706 71.2012 142.432Z" fill="#3B5772"/>
<path d="M102.956 141.517C102.956 144.538 100.244 143.94 97.2306 143.94C94.2171 143.94 92.0428 144.538 92.0428 141.517C92.0306 140.792 92.1628 140.07 92.4317 139.396C92.7005 138.722 93.1005 138.108 93.6084 137.591C94.1164 137.073 94.7221 136.662 95.3902 136.381C96.0583 136.101 96.7755 135.956 97.4999 135.956C98.2243 135.956 98.9415 136.101 99.6096 136.381C100.278 136.662 100.883 137.073 101.391 137.591C101.899 138.108 102.299 138.722 102.568 139.396C102.837 140.07 102.969 140.792 102.957 141.517H102.956Z" fill="#3B5772"/>
<path d="M114.939 87.2812C114.807 91.0431 124.967 86.7215 127.115 93.9883C128.995 100.345 123.588 135.817 122.204 144.605C122.119 145.151 121.841 145.647 121.421 146.003C121 146.36 120.466 146.552 119.915 146.546L116.567 146.501C116.567 146.501 116.29 148.385 116.558 132.774C116.827 117.162 111.187 115.009 109.307 110.609C108.21 108.043 108.392 106.022 108.735 104.798C108.879 104.314 108.857 103.795 108.673 103.324C108.49 102.854 108.155 102.458 107.722 102.199C103.679 99.8575 97.6516 101.767 87.276 107.199C75.4599 113.389 62.0311 114.197 55.8545 112.313C49.6779 110.429 47.7935 114.197 47.7935 117.157C47.7935 120.118 46.7255 124.426 44.3024 128.732C42.5721 131.815 43.7745 139.589 44.5969 143.754C44.6634 144.087 44.6551 144.431 44.5727 144.76C44.4903 145.09 44.3359 145.397 44.1205 145.66C43.9051 145.922 43.6342 146.134 43.3274 146.278C43.0205 146.423 42.6854 146.498 42.3463 146.497C41.8626 146.498 41.3908 146.346 40.9988 146.062C40.6068 145.778 40.3147 145.377 40.1644 144.916C37.3279 136.352 37.3538 112.788 36.4139 106.696C35.7791 102.59 35.9561 103.503 35.8036 102.642C35.7151 102.142 35.3122 98.8359 35.5442 98.3833C49.8458 70.5516 96.2723 76.1669 98.7212 76.4819C98.7899 76.4911 98.857 76.5033 98.9241 76.5186C100.302 76.826 115.185 80.3126 114.939 87.2812Z" fill="#411F14"/>
<path d="M74.2148 167.924H89.3938C89.3938 167.924 88.3135 162.609 81.5297 162.878C74.7458 163.147 74.2148 167.924 74.2148 167.924Z" fill="white"/>
<path d="M64.9394 149.697C64.9394 149.697 58.1144 160.804 65.063 161.108C72.0117 161.413 64.9394 149.697 64.9394 149.697Z" fill="#7494CD"/>
<path d="M32.3722 329.358L28.3089 328.78C18.3559 328.78 8.94155 327.442 7.41725 309.429L0.660864 260.657C-0.448567 252.649 -0.158395 244.509 1.51838 236.6C1.51838 236.567 1.53211 236.533 1.53822 236.501C3.09304 229.19 5.88531 226.849 11.0945 223.035L12.2419 222.195C19.0273 217.228 22.1034 229.528 22.4238 238.966C22.5871 243.802 24.534 247.154 24.7537 251.082L38.4633 316.051C32.2151 329.76 42.3252 329.358 32.3722 329.358Z" fill="#C5C6C6"/>
<path d="M162.281 239.203C162.281 241.943 162.148 244.844 162.148 246.93L159.536 276.444L156.28 313.244C155.183 326.2 148.865 326.371 141.698 325.444C138.902 325.085 135.979 324.559 133.187 324.559L132.819 324.611L129.12 325.134C119.167 325.134 129.273 325.538 123.031 311.821L123.157 311.371L126.191 300.615L126.801 298.46L127.164 297.169L133.014 276.436L137.374 260.982C139.032 255.63 138.725 252.953 139.705 248.866C141.705 240.515 142.351 217.684 147.557 217.356H147.67C148.157 217.356 148.682 217.551 149.252 217.968C151.085 218.492 152.828 219.292 154.42 220.341C158.093 222.762 160.577 226.86 161.897 233.045C162.213 234.551 162.29 236.817 162.281 239.203Z" fill="#D9D9D9"/>
<path d="M59.2801 315.919C51.0635 320.153 27.2895 314.478 21.8545 307.65C16.4195 300.822 17.5257 296.946 25.7423 292.705C33.9589 288.465 56.5153 289.116 61.9487 295.944C67.3822 302.772 67.4967 311.686 59.2801 315.919Z" fill="#F6C0A4"/>
<path d="M48.9256 291.411C48.9256 291.411 43.7759 287.161 41.861 286.068C39.9461 284.975 34.9093 282.054 34.3097 283.864C32.3444 289.805 40.0346 296.838 40.0346 296.838L48.9256 291.411Z" fill="#F6C0A4"/>
<path d="M72.0957 276.713C72.0957 276.713 73.5574 322.546 81.8046 322.546C90.0517 322.546 92.9858 276.713 92.9858 276.713H72.0957Z" fill="#536779"/>
<path d="M189.804 103.707C189.804 103.707 172.175 142.49 178.31 191.96C184.261 239.876 277.863 210.423 278.626 202.817C279.389 195.211 285.95 104.237 260.608 97.9132C235.265 91.5899 189.804 103.707 189.804 103.707Z" fill="#63535C"/>
<path d="M264.559 224.872C264.559 224.872 263.009 242.594 230.031 245.071C197.054 247.548 185.292 226.759 194.295 224.918C199.496 223.847 204.701 219.175 208.168 215.416C210.832 212.522 212.242 208.688 212.091 204.753L212.014 202.724L211.83 184.5L247.105 179.897L247.049 197.574C247.032 202.505 247.942 207.395 249.731 211.988L249.965 212.586C250.27 217.274 277.915 212.586 254.431 221.608C248.947 223.703 264.559 224.872 264.559 224.872Z" fill="#F6C0A4"/>
<path d="M211.831 189.284L212.014 197.018C212.014 197.018 220.33 207.479 230.095 207.19C239.861 206.901 247.107 196.651 247.107 196.651L246.922 187.26L211.831 189.284Z" fill="#EE9D83"/>
<path d="M190.471 163.784C190.471 163.745 190.459 163.726 190.459 163.726C190.459 163.726 186.438 162.287 184.427 153.362C182.416 144.438 187.3 144.436 187.3 144.436C187.3 144.436 183.612 134.333 186.772 115.903C189.932 97.4725 265.182 108.139 271.213 112.456C277.245 116.773 269.156 143.86 269.156 143.86C269.156 143.86 275.475 136.952 274.039 150.194C272.603 163.435 266.859 164.01 266.859 164.01C266.859 164.01 263.276 176.9 257.398 184.31C244.078 201.092 237.279 202.87 228.374 202.87C219.469 202.87 205.397 189.916 205.397 189.916L204.109 188.664C197.178 181.927 192.427 173.259 190.471 163.784Z" fill="#F6C0A4"/>
<path d="M255.556 147.188L250.735 145.904C249.773 145.598 235.92 142.208 236.225 141.241L236.849 139.264C236.997 138.799 237.323 138.412 237.756 138.188C238.188 137.963 238.691 137.919 239.156 138.065L254.82 143.035C255.284 143.184 255.67 143.511 255.894 143.944C256.118 144.377 256.162 144.882 256.016 145.347L255.392 147.325L255.556 147.188Z" fill="#63535C"/>
<path d="M213.15 157.103C216.163 157.103 218.606 154.655 218.606 151.634C218.606 148.614 216.163 146.166 213.15 146.166C210.136 146.166 207.693 148.614 207.693 151.634C207.693 154.655 210.136 157.103 213.15 157.103Z" fill="#411F14"/>
<path d="M246.179 157.103C249.193 157.103 251.635 154.655 251.635 151.634C251.635 148.614 249.193 146.166 246.179 146.166C243.166 146.166 240.723 148.614 240.723 151.634C240.723 154.655 243.166 157.103 246.179 157.103Z" fill="#411F14"/>
<path d="M270.838 155.104C271.728 145.896 277.111 141.752 274.285 121.758C273.361 115.213 272.814 108.868 270.243 105.369C262.636 95.0225 247.948 86.101 236.083 86.3549C216.443 86.7647 190.862 91.7071 186.951 106.337C182.909 121.437 184.022 140.848 185.799 142.037C187.577 143.225 189.08 159.775 189.08 159.775C189.08 159.775 193.505 153.919 193.505 147.083C193.505 140.801 191.536 136.837 210.655 127.509C214.591 125.583 218.298 123.221 221.708 120.466L231.3 112.735C232.084 112.833 241.877 113.908 250.111 115.838C252.778 116.464 255.237 117.771 257.251 119.631C259.265 121.49 260.765 123.84 261.606 126.452L270.838 155.104Z" fill="#63535C"/>
<path d="M203.962 147.481L208.584 145.951C209.535 145.609 223.394 141.752 223.052 140.8L222.352 138.847C222.186 138.388 221.845 138.014 221.405 137.806C220.965 137.598 220.46 137.573 220.002 137.737L204.539 143.306C204.082 143.472 203.708 143.812 203.5 144.253C203.292 144.694 203.266 145.2 203.428 145.659L204.129 147.612L203.962 147.481Z" fill="#63535C"/>
<path d="M229.645 251.938H227.06C226.049 251.938 225.229 252.76 225.229 253.774V256.364C225.229 257.378 226.049 258.199 227.06 258.199H229.645C230.656 258.199 231.476 257.378 231.476 256.364V253.774C231.476 252.76 230.656 251.938 229.645 251.938Z" fill="#536779"/>
<path d="M229.462 268.694H226.877C225.866 268.694 225.046 269.516 225.046 270.529V273.12C225.046 274.133 225.866 274.955 226.877 274.955H229.462C230.473 274.955 231.293 274.133 231.293 273.12V270.529C231.293 269.516 230.473 268.694 229.462 268.694Z" fill="#536779"/>
<path d="M281.336 256.408H260.531C259.52 256.408 258.7 257.23 258.7 258.243V259.425C258.7 260.439 259.52 261.26 260.531 261.26H281.336C282.347 261.26 283.167 260.439 283.167 259.425V258.243C283.167 257.23 282.347 256.408 281.336 256.408Z" fill="white"/>
<path d="M230.033 248.63C231.053 248.63 231.881 247.676 231.881 246.499C231.881 245.323 231.053 244.369 230.033 244.369C229.012 244.369 228.185 245.323 228.185 246.499C228.185 247.676 229.012 248.63 230.033 248.63Z" fill="#CAC9C9"/>
<path d="M230.004 259.283C231.025 259.283 231.852 258.329 231.852 257.153C231.852 255.976 231.025 255.022 230.004 255.022C228.984 255.022 228.156 255.976 228.156 257.153C228.156 258.329 228.984 259.283 230.004 259.283Z" fill="#CAC9C9"/>
<path d="M231.322 343.676C231.322 343.676 231.31 344.135 231.287 345L229.676 344.339L231.322 343.676Z" fill="#8999A9"/>
<path d="M229.673 344.338L227.872 345.068C227.848 344.097 227.835 343.586 227.835 343.586L229.673 344.338Z" fill="#8999A9"/>
<path d="M280.025 356.051C280.025 356.051 280.025 357.133 279.996 359.088C279.996 359.268 279.996 359.455 279.996 359.65C279.964 362.472 279.909 366.812 279.819 372.172C279.784 374.216 279.744 376.409 279.7 378.723C279.687 379.347 279.674 379.979 279.662 380.62C279.577 384.739 279.473 389.199 279.357 393.854C279.242 398.109 279.11 402.525 278.959 406.996H229.215C229.102 397.57 228.869 388.118 228.353 379.493C227.828 388.111 227.575 397.563 227.437 406.996H176.743C176.049 386.982 175.776 368.05 175.684 360.071C175.655 357.529 175.645 356.095 175.645 356.095L226.488 345.471L228.472 345.059L230.24 345.435L274.128 354.786L280.025 356.051Z" fill="#8999A9"/>
<path d="M275.142 365.406H180.149C169.62 365.406 176.746 317.065 176.746 309.151L178.119 217.6C178.119 217.03 187.885 216.593 194.141 216.039C196.747 215.806 199.374 216.027 201.906 216.69L216.621 220.591C217.824 220.912 219.053 221.128 220.293 221.237C227.206 221.834 234.16 221.765 241.06 221.032C241.477 220.986 241.89 220.929 242.3 220.861L262.077 216.132C263.621 215.878 269.317 216.692 270.894 216.761C274.955 216.938 279.714 217.119 279.714 217.706L279.744 309.153C279.758 317.06 285.671 365.406 275.142 365.406Z" fill="#B1B4D1"/>
<path d="M222.349 180.272H237.528C237.528 180.272 236.447 174.957 229.665 175.226C222.883 175.495 222.349 180.272 222.349 180.272Z" fill="white"/>
<path d="M247.067 160.387C247.067 160.387 240.242 174.761 247.191 175.151C254.14 175.541 247.067 160.387 247.067 160.387Z" fill="#7494CD"/>
<path d="M188.304 289.38C180.04 289.38 172.223 288.488 170.957 276.496L164.255 237.695C164.255 235.269 164.569 232.853 165.189 230.508C166.499 225.648 169.669 221.502 174.012 218.97L174.964 218.41C180.597 215.104 187.909 217.049 191.011 222.821C192.264 225.151 192.946 227.919 192.946 230.889L196.734 280.894C195.193 283.608 194.12 285.492 193.377 286.798C192.877 287.679 192.129 288.393 191.227 288.852C190.325 289.311 189.309 289.494 188.304 289.38Z" fill="#7E7FB6"/>
<path d="M220.032 196.868C210.348 195.117 204.389 198.376 200.325 207.726L172.759 261.949C168.694 271.303 174.73 278.755 181.052 284.157C184.819 288.003 189.622 287.155 193.106 283.928C196.444 280.842 201.651 270.537 203.634 265.964L221.566 212.586C225.638 203.231 229.718 198.621 220.032 196.868Z" fill="#EEB9A3"/>
<path d="M223.058 209.65C224.48 203.761 237.859 188.02 233.539 182.209C229.219 176.398 224.912 176.049 217.15 180.603C209.388 185.157 200.126 201.223 204.452 207.032C208.778 212.842 220.943 218.413 223.058 209.65Z" fill="#EEB9A3"/>
<path d="M203.945 201.443C203.945 201.443 203.367 193.722 202.542 192.222C201.716 190.722 200.1 183.418 202.175 183.085C208.958 181.99 211.239 191.828 211.239 191.828L203.945 201.443Z" fill="#EEB9A3"/>
<path d="M295.445 355.85C295.643 365.16 295.891 388.881 290.744 393.987C285.597 399.093 282.302 398.512 278.09 392.087C273.879 385.663 272.42 366.943 277.565 361.844C282.71 356.746 295.283 348.164 295.445 355.85Z" fill="#F6C0A4"/>
<path d="M284.934 370.731C279.7 370.622 276.45 375.999 275.016 371.998C274.333 370.087 274.116 360.457 274.198 357.523L272.72 304.198C272.975 295.12 279.508 287.824 287.243 287.988C294.976 288.141 297.084 297.036 296.831 306.114L295.442 355.851C295.191 364.926 292.667 370.891 284.934 370.731Z" fill="#F6C0A4"/>
<path d="M275.373 369.335C275.373 369.335 271.934 377.654 271.203 379.336C270.472 381.018 268.508 385.442 270.054 385.777C275.121 386.88 280.236 379.897 280.236 379.897L275.373 369.335Z" fill="#F6C0A4"/>
<path d="M281.879 307.634C282.062 307.577 287.067 306.479 287.259 306.449C295.309 305.135 297.847 303.741 296.762 288.947L295.782 240.107C295.311 237.132 294.53 234.215 293.452 231.403C291.225 225.61 287.25 221.03 282.482 218.585L281.43 218.047C275.22 214.863 268.382 218.41 266.448 226.008C265.667 229.075 265.533 232.583 266.117 236.253L272.169 298.428C270.934 302.049 271.456 303.998 272.448 305.489C273.478 307.041 280.106 308.181 281.879 307.634Z" fill="#7E7FB6"/>
<path d="M53.4238 276.434L81.8043 322.547L68.554 276.434H53.4238Z" fill="#C5C6C6"/>
<path d="M95.6298 276.713L81.8042 322.546L110.758 276.713H95.6298Z" fill="#C5C6C6"/>
<path d="M49.4153 300.898C50.2133 294.628 44.2061 290.041 49.1696 288.836C51.5408 288.261 63.0761 289.233 66.5718 289.706L130.481 294.752C141.296 296.217 149.179 304.998 147.998 314.256C146.817 323.517 135.925 324.912 125.11 323.447L65.8546 315.415C55.0395 313.953 48.2343 310.161 49.4153 300.898Z" fill="#D9D9D9"/>
<path d="M105.981 329.285C112.411 334.705 134.086 332.732 139.989 326.838C145.893 320.945 145.594 316.944 139.164 311.523C132.734 306.102 112.983 303.307 107.08 309.206C101.177 315.106 99.5531 323.864 105.981 329.285Z" fill="#EEB9A3"/>
<path d="M115.859 307.436C115.859 307.436 123.679 301.402 125.251 300.14C126.822 298.879 130.95 295.511 131.659 297.259C138.254 313.406 123.708 316.11 127.962 310.687L115.859 307.436Z" fill="#EEB9A3"/>
<path d="M111.288 315.402C111.712 306.074 116.757 308.034 105.47 307.603L39.4093 301.486C28.1182 301.053 18.5406 308.329 18.1164 317.658C17.8982 322.426 13.4962 325.369 17.7273 327.4C21.7723 329.341 34.3222 330.469 39.8396 330.68L101.679 333.055C112.965 333.488 110.863 324.73 111.288 315.402Z" fill="#C5C6C6"/>
<path d="M82.5398 346.152C84.7224 346.152 86.4917 344.378 86.4917 342.191C86.4917 340.004 84.7224 338.23 82.5398 338.23C80.3572 338.23 78.5879 340.004 78.5879 342.191C78.5879 344.378 80.3572 346.152 82.5398 346.152Z" fill="#C5C6C6"/>
<path d="M82.5398 361.048C84.7224 361.048 86.4917 359.275 86.4917 357.088C86.4917 354.9 84.7224 353.127 82.5398 353.127C80.3572 353.127 78.5879 354.9 78.5879 357.088C78.5879 359.275 80.3572 361.048 82.5398 361.048Z" fill="#C5C6C6"/>
<path d="M82.5398 379.583C84.7224 379.583 86.4917 377.809 86.4917 375.622C86.4917 373.434 84.7224 371.661 82.5398 371.661C80.3572 371.661 78.5879 373.434 78.5879 375.622C78.5879 377.809 80.3572 379.583 82.5398 379.583Z" fill="#C5C6C6"/>
<path d="M156.16 70.7793C156.16 68.0389 152.65 64.9086 149.326 63.5384C152.058 59.4294 154.011 54.9274 157.135 51.2099C154.793 46.3164 151.863 41.423 151.082 36.3368C150.229 30.7766 151.967 25.6323 153.879 20.4467C125.137 -14.6013 106.386 2.50602 102.931 21.2771C99.0205 42.5332 147.717 94.0676 153.912 100.518C153.927 100.536 153.941 100.55 153.958 100.567C152.667 96.5771 151.681 92.5537 151.472 88.5869C150.887 82.5206 156.16 76.6499 156.16 70.7793Z" fill="#4D568E"/>
<path d="M157.778 100.375C163.972 93.9229 212.67 42.393 208.759 21.1339C205.291 2.28483 186.4 -14.8867 157.456 20.7363C157.339 20.5834 157.812 21.1691 157.456 20.7363C155.545 25.9203 153.451 30.6334 154.306 36.1936C155.087 41.2813 158.015 46.1748 160.359 51.0667C157.234 54.7842 155.282 59.2847 152.548 63.3952C155.868 64.7715 159.382 67.8957 159.382 70.6361C159.382 76.5067 154.11 82.3774 154.696 88.4437C154.904 92.4105 155.891 96.4339 157.18 100.424L157.456 100.71C157.546 100.618 157.653 100.506 157.778 100.375Z" fill="#4D568E"/>
</svg>
