<svg width="204" height="204" viewBox="0 0 204 204" fill="none" xmlns="http://www.w3.org/2000/svg">
<circle cx="102" cy="102" r="102" fill="#FFFAF7"/>
<mask id="mask0" mask-type="alpha" maskUnits="userSpaceOnUse" x="0" y="0" width="204" height="204">
<circle cx="75" cy="75" r="75" fill="#FCECE5"/>
</mask>
<g mask="url(#mask0)">
<g clip-path="url(#clip0)">
<path d="M106.963 99.4729C90.5866 58.9122 101.572 26 65.4998 26C29.4281 26 40.413 58.9266 24.0364 99.4729C11.331 130.98 119.669 130.98 106.963 99.4729Z" fill="#925B31"/>
<path d="M65.5004 104.348C80.9775 104.348 93.5242 88.6169 93.5242 69.2119C93.5242 49.807 80.9775 34.0762 65.5004 34.0762C50.0232 34.0762 37.4766 49.807 37.4766 69.2119C37.4766 88.6169 50.0232 104.348 65.5004 104.348Z" fill="#FFBE9F"/>
<path d="M58.4164 105.239C56.8759 108.911 55.9905 110.44 51.9377 111.635C51.4626 114.257 58.8771 122.774 65.4782 130.293C72.072 122.774 79.4936 114.257 79.0185 111.635C74.9873 110.44 74.1019 108.911 72.5398 105.239C72.4679 104.964 58.6395 105.232 58.4164 105.239Z" fill="#FFBE9F"/>
<path d="M54.4648 75.7952C56.4884 75.7952 58.1289 74.1447 58.1289 72.1086C58.1289 70.0725 56.4884 68.4219 54.4648 68.4219C52.4412 68.4219 50.8008 70.0725 50.8008 72.1086C50.8008 74.1447 52.4412 75.7952 54.4648 75.7952Z" fill="#4D677A"/>
<path d="M76.0605 75.7952C78.0841 75.7952 79.7246 74.1447 79.7246 72.1086C79.7246 70.0725 78.0841 68.4219 76.0605 68.4219C74.0369 68.4219 72.3965 70.0725 72.3965 72.1086C72.3965 74.1447 74.0369 75.7952 76.0605 75.7952Z" fill="#4D677A"/>
<path d="M49.8574 64.7206C50.5773 63.8297 52.3697 63.1996 54.4285 63.1996C55.9663 63.1158 57.4874 63.5546 58.7476 64.4454" stroke="#471C0E" stroke-width="5" stroke-linecap="round" stroke-linejoin="round"/>
<path d="M71.626 64.7202C72.3458 63.8294 74.1454 63.1992 76.197 63.1992C77.7346 63.1171 79.2553 63.5557 80.5161 64.445" stroke="#471C0E" stroke-width="5" stroke-linecap="round" stroke-linejoin="round"/>
<path d="M37.4979 69.669C37.4979 69.669 52.7228 73.8772 72.0508 54.4587C72.0508 54.4587 67.9476 63.9833 61.253 66.1996C61.253 66.1996 74.0376 66.4387 80.9769 52.5031C80.9769 52.5031 79.7604 59.7461 76.2547 63.1866C76.2547 63.1866 82.575 62.991 85.6127 50.7793C85.6127 50.7793 86.2246 49.8087 86.7213 51.786C86.7213 51.786 92.2498 68.5246 93.5743 70.0167L95.9426 63.1866L87.506 42.6164L79.0621 36.4816L66.4647 31.5781L54.4648 33.5047L46.2297 37.8505L39.9599 46.1365L34.9209 66.569L37.4979 69.669Z" fill="#925B31"/>
<path opacity="0.77" d="M73.2892 106.838C73.0589 106.353 72.8285 105.824 72.5694 105.238C72.4542 104.962 58.6259 105.238 58.4028 105.238C58.182 105.774 57.966 106.256 57.7549 106.686C59.9792 108.33 62.657 109.779 65.2845 109.895C68.0991 110.054 70.9713 108.526 73.2892 106.838Z" fill="#F98D72"/>
<path d="M93.2789 73.3105L84.2519 80.9229C74.8938 81.7849 56.1058 81.7921 46.7477 80.9229L37.7207 73.3105C37.368 74.1435 37.4976 75.5776 38.1311 76.1281L46.0495 82.386C46.0495 82.386 45.9847 90.8313 46.7693 95.7204C47.5539 100.609 59.6402 107.555 65.5646 107.577C72.0937 107.577 84.5255 99.4722 84.3599 95.7204C85.0798 90.8313 85.0437 82.386 85.0437 82.386L92.9621 76.1281C93.2389 75.7199 93.4124 75.2498 93.4676 74.7588C93.5228 74.2678 93.458 73.7706 93.2789 73.3105Z" fill="white"/>
<path d="M35.0787 149.994H95.9205C93.5234 142.657 95.8125 126.816 99.1742 120.348C96.1508 116.068 91.9253 113.156 85.6338 112.084C77.1133 117.977 70.1861 125.913 65.478 135.175C62.2459 126.215 49.958 113.308 44.5015 112.243C38.4764 114.358 35.525 116.459 31.8105 120.348C35.6402 128.511 36.1009 140.6 35.0787 149.994Z" fill="#84BCC1"/>
<path d="M35.8778 149.993V148.74C33.9558 148.74 28.4634 146.828 26.0879 144.438L26.1887 149.993H35.8778Z" fill="#FBCBA6"/>
<path d="M104.775 149.993L104.876 144.438C102.5 146.828 97.0007 148.74 95.0859 148.74V149.993H104.775Z" fill="#FBCBA6"/>
<path d="M95.9138 149.993C100.233 148.545 103.623 147.096 106.963 144.336C106.438 135.174 101.644 121.065 99.1747 120.348C94.5604 123.086 90.3997 142.381 95.9138 149.993Z" fill="#6CADB5"/>
<path d="M31.8322 120.348C26.8508 123.086 24.3529 136.326 24.0361 144.336C27.3762 147.081 30.7668 148.545 35.0787 149.993C38.8363 144.438 37.0007 122.673 31.8322 120.348Z" fill="#6CADB5"/>
<path d="M85.6273 112.083C85.6273 111.185 80.7898 110.279 79.0334 111.634C74.5056 118.152 72.1013 121.05 65.4931 129.241C58.8848 121.028 56.4805 118.174 51.9526 111.634C50.3114 110.258 44.5166 111.062 44.5166 112.242L65.4931 139.201L85.6273 112.083Z" fill="#6CADB5"/>
</g>
</g>
<defs>
<clipPath id="clip0">
<rect width="85" height="124" fill="white" transform="translate(23 26)"/>
</clipPath>
</defs>
</svg>
