<svg width="150" height="150" viewBox="0 0 150 150" fill="none" xmlns="http://www.w3.org/2000/svg">
<circle cx="75" cy="75" r="75" fill="#FFFAF7"/>
<mask id="mask0" style="mask-type:alpha" maskUnits="userSpaceOnUse" x="0" y="0" width="150" height="150">
<circle cx="75" cy="75" r="75" fill="#FFFAF7"/>
</mask>
<g mask="url(#mask0)">
<path d="M28.0604 44.7364C28.0604 44.7364 20.8028 73.2877 25.1908 87.3531C29.3662 100.735 22.9482 107.84 22.9482 107.84L86.5126 107.891C86.5126 107.891 78.2892 74.2948 79.6565 67.2712C81.0238 60.2475 83.602 38.3871 65.0593 35.7842C46.5167 33.1814 28.0604 44.7364 28.0604 44.7364Z" fill="#EDA83B"/>
<path d="M40.9326 109.154C40.9326 109.154 56.5377 101.733 65.1583 109.154C73.7789 116.574 50.3496 118.877 45.8267 116.299C41.3039 113.721 40.9326 109.154 40.9326 109.154Z" fill="#526678"/>
<path d="M42.9756 103.602C42.9756 103.602 43.1914 111.496 38.335 113.075C33.4787 114.654 37.4717 124.127 51.0695 125.48C64.6673 126.834 70.387 115.556 67.6891 113.864C64.9911 112.173 64.0705 108.549 63.5881 105.97C63.1057 103.391 42.9756 103.602 42.9756 103.602Z" fill="#F6C0A4"/>
<path d="M42.7588 90.7491L42.8667 101.914L43.2984 113.755C43.2984 113.755 52.4715 120.085 63.1037 113.562L63.5872 108.117L63.4793 87.9297L42.7588 90.7491Z" fill="#F6C0A4"/>
<path d="M42.7588 93.6819L42.8667 98.4185C42.8667 98.4185 47.7511 104.824 53.4881 104.648C59.2251 104.472 63.4793 98.193 63.4793 98.193L63.3713 92.4414L42.7588 93.6819Z" fill="#ED9C82"/>
<path d="M30.211 78.0648C30.2056 78.0411 30.2034 78.0299 30.2034 78.0299C30.2034 78.0299 27.8421 77.148 26.6604 71.6829C25.4787 66.2178 28.3483 66.2166 28.3483 66.2166C28.3483 66.2166 26.1824 60.0298 28.0375 48.7364C29.8926 37.4431 74.0952 43.9818 77.6382 46.6264C81.1812 49.271 76.4295 65.8602 76.4295 65.8602C76.4295 65.8602 80.1408 61.6289 79.298 69.7386C78.4551 77.8483 75.0805 78.1968 75.0805 78.1968C75.0805 78.1968 72.9761 86.091 69.5205 90.6303C61.6974 100.909 57.7034 101.997 52.4693 101.997C47.2352 101.997 38.9718 94.0631 38.9718 94.0631L38.2164 93.2963C34.1488 89.1712 31.36 83.865 30.211 78.0648Z" fill="#F6C0A4"/>
<path d="M68.8426 66.1144L66.232 65.2122C65.6471 65.0994 57.0244 64.6844 57.1269 64.0743L57.3427 62.8225C57.3673 62.6766 57.4192 62.5372 57.4954 62.4122C57.5716 62.2873 57.6706 62.1793 57.7868 62.0944C57.9029 62.0095 58.034 61.9492 58.1724 61.9172C58.3108 61.8852 58.4539 61.8821 58.5935 61.9079L68.0979 63.6559C68.2375 63.6815 68.3709 63.7356 68.4905 63.8151C68.6101 63.8946 68.7136 63.9979 68.7949 64.1192C68.8763 64.2404 68.934 64.3773 68.9648 64.5219C68.9956 64.6664 68.9988 64.8159 68.9742 64.9618L68.7584 66.2136L68.8426 66.1144Z" fill="#BF7C2E"/>
<path d="M43.5333 73.9723C45.3035 73.9723 46.7385 72.4727 46.7385 70.6229C46.7385 68.773 45.3035 67.2734 43.5333 67.2734C41.7631 67.2734 40.3281 68.773 40.3281 70.6229C40.3281 72.4727 41.7631 73.9723 43.5333 73.9723Z" fill="#526778"/>
<path d="M62.9377 73.9723C64.7079 73.9723 66.1429 72.4727 66.1429 70.6229C66.1429 68.773 64.7079 67.2734 62.9377 67.2734C61.1675 67.2734 59.7324 68.773 59.7324 70.6229C59.7324 72.4727 61.1675 73.9723 62.9377 73.9723Z" fill="#526778"/>
<path d="M43.1943 82.3828H62.4493C62.4493 82.3828 61.0776 92.8382 52.4743 92.3071C43.871 91.7759 43.1943 82.3828 43.1943 82.3828Z" fill="white"/>
<path d="M28.2976 65.2109C28.2976 65.2109 27.1051 66.0331 28.2976 67.8048C29.4901 69.5765 35.3533 76.3261 35.8519 78.6109C36.3505 80.8957 36.7466 82.4532 36.4476 85.8804C36.1487 89.3077 37.0444 92.7361 38.7344 94.3972C40.4245 96.0584 46.5856 101.667 53.542 101.979C60.4985 102.292 67.7712 93.5999 69.4612 90.5888C69.4612 90.5888 70.6364 79.4432 71.0346 78.7158C71.4329 77.9884 77.9911 68.1228 78.0904 67.0841C78.1897 66.0455 77.295 66.7717 77.295 66.7717L71.8192 75.398C70.7724 77.0479 69.2453 77.6332 67.3568 77.7809C63.3821 78.0922 57.0213 77.9884 43.6038 78.3008C40.7644 78.3662 37.6369 78.2253 35.9329 75.8513L28.2976 65.2109Z" fill="#F4F3F2"/>
<path d="M64.8878 47.6467C67.6732 48.011 76.8981 78.3859 77.4194 72.7471C77.9406 67.1083 82.4063 63.0732 80.7465 50.8281C79.0867 38.5829 67.3645 30.4157 57.0043 30.6413C45.4688 30.8916 30.4907 35.7782 28.1899 44.7382C25.8157 53.9858 26.1103 65.5001 27.155 66.2276C28.1996 66.955 29.3932 75.6071 29.3932 75.6071C29.3932 75.6071 31.9919 72.0197 31.9919 67.8357C31.9919 63.6517 33.3819 56.5977 45.5649 51.5047L64.8878 47.6467Z" fill="#EDA83B"/>
<path d="M37.725 66.0831L40.3356 65.1809C40.9205 65.0738 49.5433 64.6543 49.4407 64.043L49.2303 62.7923C49.2058 62.6463 49.154 62.5068 49.0778 62.3818C49.0017 62.2567 48.9027 62.1485 48.7866 62.0635C48.6704 61.9784 48.5393 61.9181 48.4008 61.8861C48.2623 61.854 48.1192 61.8508 47.9795 61.8766L38.4805 63.6212C38.3409 63.6468 38.2075 63.7009 38.0879 63.7804C37.9683 63.8599 37.8648 63.9633 37.7835 64.0845C37.7021 64.2058 37.6444 64.3426 37.6136 64.4872C37.5829 64.6318 37.5796 64.7813 37.6042 64.9272L37.82 66.1778L37.725 66.0831Z" fill="#BF7C2E"/>
<path d="M72.0924 148.621C72.2338 147.558 72.5241 144.899 72.6784 140.189C72.7144 139.086 72.7407 137.87 72.7572 136.539C72.7864 134.12 72.427 131.247 71.8852 128.337C71.6273 126.943 71.3262 125.54 71.0057 124.176C70.5319 122.155 70.0161 120.215 69.5315 118.507C68.4804 114.798 67.5771 112.18 67.5771 112.18C67.4286 112.6 67.2481 113.007 67.0375 113.398C65.8882 115.532 64.2229 117.314 62.2081 118.565C61.6939 118.889 61.1612 119.179 60.6131 119.434C58.8108 120.277 56.579 120.881 53.8314 120.999C50.9783 121.133 48.1267 120.701 45.4278 119.724C44.9285 119.542 44.4493 119.348 43.9903 119.141C39.9627 117.337 37.541 114.788 36.8989 114.054C36.7834 113.923 36.7252 113.85 36.7252 113.85C36.7252 114.009 36.7165 114.17 36.7144 114.334C36.6949 115.323 36.696 116.396 36.7144 117.532C36.7144 117.687 36.7198 117.842 36.723 118C36.7964 121.442 37.0252 125.41 37.3165 129.338C37.4245 130.853 37.5497 132.362 37.6748 133.833C37.7828 135.117 37.8907 136.372 38.0083 137.577C38.4886 142.744 38.958 146.967 39.135 148.525L72.0924 148.621Z" fill="white"/>
<path d="M40.9295 109.148C40.9295 109.148 13.2817 122.026 11.2118 126.71C9.14192 131.393 4.55859 151.148 4.55859 151.148L52.9063 150.201L40.9295 109.148Z" fill="#526678"/>
<path d="M65.1555 109.148C65.1555 109.148 93.1378 122.026 95.2325 126.71C97.3273 131.393 101.967 151.148 101.967 151.148L52.9023 150.201L65.1555 109.148Z" fill="#526678"/>
<path d="M24.777 60.7014C24.777 60.7014 55.0408 41.0784 81.0029 60.8142C81.0029 60.8142 82.9454 35.8908 76.6861 32.3947C70.4268 28.8987 39.454 25.6282 29.3096 34.9886C29.3096 34.9886 23.8058 42.9956 24.777 60.7014Z" fill="#566A78"/>
<path d="M51.8409 48.4099C51.8409 48.4099 52.8953 43.273 53.6853 43.273C54.4752 43.273 55.0019 48.1347 55.2652 48.1347C55.5285 48.1347 56.4944 47.493 57.1085 42.4474C57.1085 42.4474 57.6351 39.1453 58.2492 38.4112C58.8632 37.677 56.1426 34.9253 54.3867 36.7602C54.3867 36.7602 53.4576 37.0793 52.3859 36.1399C52.3859 36.1399 49.9103 35.8422 49.6469 37.4019C49.6469 37.4019 49.0329 38.3661 49.6469 40.1773C49.6469 40.1773 50.261 40.7039 50.261 41.8971C50.261 43.0902 50.4369 46.4837 51.8409 48.4099Z" fill="white"/>
</g>
</svg>
