<svg width="40" height="40" viewBox="0 0 40 40" fill="none" xmlns="http://www.w3.org/2000/svg">
<path d="M23 0V2H36.5625L23.1562 15.4062C20.6992 13.2812 17.4961 12 14 12C6.28125 12 0 18.2812 0 26C0 33.7188 6.28125 40 14 40C21.7188 40 28 33.7188 28 26C28 22.5039 26.7188 19.3008 24.5938 16.8438L38 3.4375V17H40V0H23ZM14 14C17.2227 14 20.1602 15.25 22.3125 17.3125C22.3164 17.3164 22.3086 17.3398 22.3125 17.3438C22.3984 17.4844 22.5156 17.6016 22.6562 17.6875C24.7266 19.8438 26 22.7695 26 26C26 32.6406 20.6406 38 14 38C7.35938 38 2 32.6406 2 26C2 19.3594 7.35938 14 14 14Z" fill="#1A1919"/>
</svg>
