<svg width="62" height="65" viewBox="0 0 62 65" fill="none" xmlns="http://www.w3.org/2000/svg">
<path d="M40 5V7H53.5625L40.1562 20.4062C37.6992 18.2812 34.4961 17 31 17C23.2812 17 17 23.2812 17 31C17 38.7188 23.2812 45 31 45C38.7188 45 45 38.7188 45 31C45 27.5039 43.7188 24.3008 41.5938 21.8438L55 8.4375V22H57V5H40ZM31 19C34.2227 19 37.1602 20.25 39.3125 22.3125C39.3164 22.3164 39.3086 22.3398 39.3125 22.3438C39.3984 22.4844 39.5156 22.6016 39.6562 22.6875C41.7266 24.8438 43 27.7695 43 31C43 37.6406 37.6406 43 31 43C24.3594 43 19 37.6406 19 31C19 24.3594 24.3594 19 31 19Z" fill="#1A1919"/>
<path d="M5 22L7 22L7 8.4375L20.4062 21.8437C18.2812 24.3008 17 27.5039 17 31C17 38.7187 23.2812 45 31 45C38.7188 45 45 38.7187 45 31C45 23.2812 38.7187 17 31 17C27.5039 17 24.3008 18.2812 21.8437 20.4062L8.4375 7L22 7L22 5L5 5L5 22ZM19 31C19 27.7773 20.25 24.8398 22.3125 22.6875C22.3164 22.6836 22.3398 22.6914 22.3437 22.6875C22.4844 22.6016 22.6016 22.4844 22.6875 22.3437C24.8437 20.2734 27.7695 19 31 19C37.6406 19 43 24.3594 43 31C43 37.6406 37.6406 43 31 43C24.3594 43 19 37.6406 19 31Z" fill="#1A1919"/>
<line x1="10.2929" y1="21.6073" x2="21.6066" y2="10.2936" stroke="#1A1919" stroke-width="2"/>
<path d="M31 17C23.2812 17 17 23.2812 17 31C17 38.3828 22.7422 44.457 30 44.9688V52H22V54H30V62H32V54H40V52H32V44.9688C39.2578 44.457 45 38.3828 45 31C45 23.2812 38.7188 17 31 17ZM31 19C37.6406 19 43 24.3594 43 31C43 37.6406 37.6406 43 31 43C24.3594 43 19 37.6406 19 31C19 24.3594 24.3594 19 31 19Z" fill="#1A1919"/>
</svg>
