<svg width="150" height="150" viewBox="0 0 150 150" fill="none" xmlns="http://www.w3.org/2000/svg">
<circle cx="75" cy="75" r="75" fill="#FFFAF7"/>
<mask id="mask0" mask-type="alpha" maskUnits="userSpaceOnUse" x="0" y="0" width="150" height="150">
<circle cx="75" cy="75" r="75" fill="#FCECE5"/>
</mask>
<g mask="url(#mask0)">
<g clip-path="url(#clip0)">
<path d="M70.3483 125.724L66.3779 128.713L68.0806 149.97H105.959C105.959 149.97 101.358 124.984 97.1266 122.191C95.0038 120.783 85.7371 118.433 77.5645 116.539L73.0798 128.713L70.3483 125.724Z" fill="#D84248"/>
<path d="M57.967 125.724L55.221 128.713L50.7435 116.467C42.4767 118.375 33.0072 120.769 30.8554 122.191C26.6242 124.984 22.0234 149.97 22.0234 149.97H60.2999L61.9373 128.713L57.967 125.724Z" fill="#D84248"/>
<path d="M64.1537 118.97L71.754 111.359V106.281C69.372 107.423 66.7903 108.088 64.1537 108.24C61.4223 108.08 58.7499 107.377 56.2927 106.172L56.1768 111.25L64.1537 118.97Z" fill="#FFBE9F"/>
<path d="M66.3795 128.712L70.3498 125.723L64.1552 118.969L57.9678 125.723L61.9381 128.712L60.3007 149.969H68.0821L66.3795 128.712Z" fill="white"/>
<path d="M57.9601 125.724L64.1547 118.97L56.1777 111.258L50.7148 116.402L50.7438 116.467L55.2214 128.713L57.9601 125.724Z" fill="#D84248"/>
<path d="M64.1543 118.97L70.3417 125.724L73.0877 128.713L77.5435 116.539L77.5942 116.402L71.7545 111.359L64.1543 118.97Z" fill="#D84248"/>
<path d="M91.5109 103.096C88.9226 100.027 87.2391 96.2959 86.6494 92.3223C84.2531 96.4411 81.0902 100.061 77.332 102.987C90.3734 117.773 73.2529 150 73.2529 150C73.2529 150 84.9395 150 98.6112 150C101.843 139.204 102.161 115.676 91.5109 103.096Z" fill="#3F1414"/>
<path opacity="0.77" d="M56.1768 106.201V106.854C56.1768 106.854 60.3645 110.794 64.1465 110.989C67.9285 111.185 71.7467 107.231 71.7467 107.231V106.223" fill="#F98D72"/>
<path d="M91.7307 68.9896C91.7307 69.0985 91.7307 69.2073 91.7307 69.3161C90.7309 70.2592 89.6731 72.4212 88.8326 73.5458C89.5065 69.6208 90.2817 65.5217 88.9558 59.6887C88.8254 59.2462 88.6877 58.8036 88.5356 58.3538C87.0865 54.7263 83.6161 53.8412 79.8413 52.6441C74.7697 51.019 69.4517 52.2233 64.3511 50.9392C61.1487 50.1339 58.6346 47.3117 55.4395 47.0795C40.7606 46.0856 37.9785 62.0031 39.7753 73.5458C38.7094 72.1386 37.7411 70.66 36.8772 69.1202C33.6096 67.4226 29.987 70.2012 30.6318 75.0693C32.0809 86.2493 37.7177 84.334 37.7177 84.334C47.3248 108.392 64.141 108.275 64.141 108.275C64.141 108.275 80.9571 108.399 90.5715 84.334C90.5715 84.334 96.1721 86.2493 97.6573 75.0693C98.2949 70.3535 94.9114 67.6039 91.7307 68.9896Z" fill="#FFBE9F"/>
<path d="M55.4454 52.827C58.6405 53.0012 61.1546 55.2284 64.357 55.8596C69.4287 56.8681 74.7539 55.9177 79.8473 57.1873C83.6003 58.1305 87.0925 58.8197 88.5415 61.6636C88.7084 61.9862 88.8442 62.3238 88.9473 62.6721C88.9473 62.6721 88.9473 62.6721 88.9473 62.7156C90.2731 67.2863 89.4979 70.5002 88.8241 73.5981C89.6501 72.713 90.7079 71.0226 91.7222 70.2826C91.7222 70.1955 91.7222 70.1085 91.7222 70.0214C92.2873 64.5294 94.258 60.6334 93.1205 54.7424C91.7657 47.2842 88.1503 42.7136 79.3546 39.5504C79.7893 31.9399 68.9505 27.4128 60.4156 28.7622C55.344 29.5603 52.4459 31.9109 49.5985 35.0523C47.5554 37.3304 47.8017 37.5553 45.3383 39.2239C43.4618 40.4935 41.2883 41.2408 39.5422 42.7208C30.1234 50.5925 30.7754 61.533 36.9121 70.1302C37.792 71.3557 38.7607 72.5148 39.8102 73.5981C37.9844 64.5004 40.7666 52.0217 55.4454 52.827Z" fill="#3F1414"/>
<path d="M54.7861 79.3722C56.6187 79.3722 58.1044 77.8845 58.1044 76.0494C58.1044 74.2142 56.6187 72.7266 54.7861 72.7266C52.9534 72.7266 51.4678 74.2142 51.4678 76.0494C51.4678 77.8845 52.9534 79.3722 54.7861 79.3722Z" fill="#4D677A"/>
<path d="M74.3847 79.3722C76.2174 79.3722 77.703 77.8845 77.703 76.0494C77.703 74.2142 76.2174 72.7266 74.3847 72.7266C72.5521 72.7266 71.0664 74.2142 71.0664 76.0494C71.0664 77.8845 72.5521 79.3722 74.3847 79.3722Z" fill="#4D677A"/>
<path d="M73.9133 89.0566C73.8445 91.5709 72.7986 93.9591 70.9983 95.7131C69.198 97.467 66.7854 98.4484 64.2735 98.4484C61.7617 98.4484 59.349 97.467 57.5487 95.7131C55.7484 93.9591 54.7026 91.5709 54.6338 89.0566" fill="white"/>
<path d="M50.6201 69.3822C51.3084 68.5769 52.9096 68.0037 54.7716 68.0037C56.1629 67.9349 57.5373 68.3332 58.6768 69.1355" stroke="#471C0E" stroke-width="5" stroke-linecap="round" stroke-linejoin="round"/>
<path d="M70.3564 69.3822C71.0447 68.5769 72.6459 68.0037 74.508 68.0037C75.8993 67.9349 77.2737 68.3332 78.4131 69.1355" stroke="#471C0E" stroke-width="5" stroke-linecap="round" stroke-linejoin="round"/>
</g>
</g>
<defs>
<clipPath id="clip0">
<rect width="83.9286" height="121.529" fill="white" transform="translate(22.0234 28.4707)"/>
</clipPath>
</defs>
</svg>
