<svg width="150" height="150" viewBox="0 0 150 150" fill="none" xmlns="http://www.w3.org/2000/svg">
<circle cx="75" cy="75" r="75" fill="#FFFAF7"/>
<mask id="mask0" style="mask-type:alpha" maskUnits="userSpaceOnUse" x="0" y="0" width="150" height="150">
<circle cx="75" cy="75" r="75" fill="#FFFAF7"/>
</mask>
<g mask="url(#mask0)">
<path d="M73.7509 42.9375H2.98175C2.2443 42.9375 1.64648 43.5622 1.64648 44.3328V118.283C1.64648 119.054 2.2443 119.679 2.98175 119.679H73.7509C74.4884 119.679 75.0862 119.054 75.0862 118.283V44.3328C75.0862 43.5622 74.4884 42.9375 73.7509 42.9375Z" fill="#E1E7EA"/>
<path d="M73.7516 119.695H2.98241C2.80531 119.695 2.62994 119.658 2.46631 119.588C2.30269 119.517 2.15402 119.413 2.02879 119.282C1.90356 119.151 1.80422 118.996 1.73644 118.825C1.66867 118.654 1.63379 118.471 1.63379 118.286V44.335C1.63379 44.15 1.66867 43.9667 1.73644 43.7957C1.80422 43.6248 1.90356 43.4694 2.02879 43.3386C2.15402 43.2077 2.30269 43.1039 2.46631 43.0331C2.62994 42.9622 2.80531 42.9258 2.98241 42.9258H73.7516C74.1093 42.9258 74.4523 43.0743 74.7052 43.3386C74.9581 43.6028 75.1002 43.9613 75.1002 44.335V118.286C75.1002 118.659 74.9581 119.018 74.7052 119.282C74.4523 119.546 74.1093 119.695 73.7516 119.695ZM2.98241 42.9537C2.63191 42.954 2.29584 43.0996 2.048 43.3586C1.80015 43.6176 1.66079 43.9688 1.66049 44.335V118.286C1.66079 118.652 1.80015 119.003 2.048 119.262C2.29584 119.521 2.63191 119.667 2.98241 119.667H73.7516C74.1021 119.667 74.4381 119.521 74.686 119.262C74.9338 119.003 75.0732 118.652 75.0735 118.286V44.335C75.0732 43.9688 74.9338 43.6176 74.686 43.3586C74.4381 43.0996 74.1021 42.954 73.7516 42.9537H2.98241Z" fill="#72788E"/>
<path d="M74.2048 102.438C74.2048 102.438 74.4273 110.577 69.4201 112.205C64.4128 113.833 68.5299 123.6 82.5502 124.995C96.5705 126.391 102.468 114.763 99.6861 113.019C96.9043 111.275 95.9541 107.54 95.4578 104.88C94.9615 102.219 74.2048 102.438 74.2048 102.438Z" fill="#F6C08B"/>
<path d="M73.9824 89.1842L74.0937 100.695L74.5388 112.904C74.5388 112.904 83.9969 119.432 94.9594 112.707L95.4579 107.09L95.3467 86.2773L73.9824 89.1842Z" fill="#F6C08B"/>
<path d="M101.247 86.1608C101.247 86.1608 94.9193 95.3279 100.023 105.236C105.127 115.143 94.1259 125.609 95.1274 130.842C96.1288 136.074 101.386 141.423 101.386 141.423C101.386 141.423 97.0301 131.14 104.588 124.188C112.145 117.236 120.043 104.305 115.426 94.3163C110.808 84.3272 103.194 78.3867 103.194 78.3867L101.247 86.1608Z" fill="#3A1716"/>
<path d="M67.3779 48.75H8.57941C7.84196 48.75 7.24414 49.3747 7.24414 50.1453V111.587C7.24414 112.358 7.84196 112.982 8.57941 112.982H67.3779C68.1154 112.982 68.7132 112.358 68.7132 111.587V50.1453C68.7132 49.3747 68.1154 48.75 67.3779 48.75Z" fill="#858889"/>
<path d="M67.3778 113.22H8.5793C8.16614 113.22 7.76991 113.048 7.47776 112.743C7.18561 112.438 7.02148 112.024 7.02148 111.592V50.1513C7.02148 49.7196 7.18561 49.3055 7.47776 49.0002C7.76991 48.695 8.16614 48.5234 8.5793 48.5234H67.3778C67.791 48.5234 68.1872 48.695 68.4793 49.0002C68.7715 49.3055 68.9356 49.7196 68.9356 50.1513V111.593C68.9353 112.025 68.7711 112.438 68.4789 112.743C68.1868 113.048 67.7908 113.22 67.3778 113.22ZM8.5793 48.9885C8.28418 48.9885 8.00116 49.111 7.79248 49.3291C7.58381 49.5471 7.46657 49.8429 7.46657 50.1513V111.593C7.46657 111.901 7.58381 112.197 7.79248 112.415C8.00116 112.633 8.28418 112.756 8.5793 112.756H67.3778C67.6729 112.756 67.9559 112.633 68.1646 112.415C68.3733 112.197 68.4905 111.901 68.4905 111.593V50.1513C68.4905 49.8429 68.3733 49.5471 68.1646 49.3291C67.9559 49.111 67.6729 48.9885 67.3778 48.9885H8.5793Z" fill="white"/>
<path d="M73.9824 92.2087L74.0937 97.0922C74.0937 97.0922 79.1299 103.698 85.044 103.516C90.9581 103.335 95.3467 96.8597 95.3467 96.8597L95.2354 90.9297L73.9824 92.2087Z" fill="#D3A57A"/>
<path d="M61.0465 76.1071L61.0398 76.0698C61.0398 76.0698 58.6041 75.1606 57.3868 69.5259C56.1695 63.8913 59.126 63.8913 59.126 63.8913C59.126 63.8913 56.8927 57.5113 58.8066 45.8687C60.7205 34.2261 106.295 40.9654 109.947 43.692C113.599 46.4187 108.702 63.5226 108.702 63.5226C108.702 63.5226 112.529 59.1601 111.659 67.5225C110.789 75.885 107.31 76.2431 107.31 76.2431C107.31 76.2431 105.14 84.3823 101.579 89.0624C93.5113 99.6596 89.3931 100.783 83.9975 100.783C78.6019 100.783 70.0807 92.6111 70.0807 92.6111L69.3018 91.8193C65.106 87.5642 62.23 82.0903 61.0465 76.1071Z" fill="#F6C08B"/>
<path d="M100.509 64.6664L97.9789 63.327C97.3981 63.1235 88.6665 61.3224 88.8546 60.7166L89.2518 59.4736C89.2982 59.3287 89.3714 59.1949 89.4673 59.0796C89.5632 58.9643 89.6799 58.8699 89.8107 58.8018C89.9415 58.7337 90.0839 58.6931 90.2297 58.6825C90.3755 58.6719 90.5219 58.6914 90.6605 58.7399L100.098 62.0363C100.236 62.0846 100.364 62.1611 100.475 62.2612C100.585 62.3614 100.676 62.4833 100.741 62.62C100.806 62.7567 100.845 62.9055 100.856 63.058C100.866 63.2104 100.847 63.3634 100.801 63.5084L100.404 64.7501L100.509 64.6664Z" fill="#3A1716"/>
<path d="M74.7814 71.8872C76.6065 71.8872 78.0862 70.3411 78.0862 68.4338C78.0862 66.5266 76.6065 64.9805 74.7814 64.9805C72.9562 64.9805 71.4766 66.5266 71.4766 68.4338C71.4766 70.3411 72.9562 71.8872 74.7814 71.8872Z" fill="#411E13"/>
<path d="M94.7853 71.8872C96.6104 71.8872 98.09 70.3411 98.09 68.4338C98.09 66.5266 96.6104 64.9805 94.7853 64.9805C92.9601 64.9805 91.4805 66.5266 91.4805 68.4338C91.4805 70.3411 92.9601 71.8872 94.7853 71.8872Z" fill="#411E13"/>
<path d="M74.4297 80.5547H94.2818C94.2818 80.5547 92.8686 91.3357 83.9969 90.7869C75.1251 90.238 74.4297 80.5547 74.4297 80.5547Z" fill="white"/>
<path d="M85.773 43.8689C86.9514 44.0223 97.4945 49.6826 102.019 55.7289C108.523 64.4157 109.406 74.0514 109.723 70.6225C110.262 64.8087 113.522 62.1926 111.811 49.5663C111.254 45.4339 110.921 41.4271 109.363 39.2179C104.756 32.6844 95.8599 27.0544 88.6739 27.2102C76.7789 27.4695 61.3365 32.5077 58.9642 41.7445C56.5162 51.279 57.1404 61.6275 58.2176 62.3716C59.2947 63.1158 60.2038 73.5724 60.2038 73.5724C60.2038 73.5724 62.8832 69.8725 62.8832 65.5599C62.8832 61.2472 64.3164 53.9719 76.879 48.721L85.773 43.8689Z" fill="#3A1716"/>
<path d="M69.0778 64.4511L71.6471 63.1953C72.2335 63.0116 81.0162 61.5012 80.8404 60.8884L80.481 59.6338C80.4391 59.4875 80.37 59.3513 80.2777 59.2329C80.1854 59.1145 80.0716 59.0163 79.943 58.9439C79.8144 58.8714 79.6733 58.8262 79.5279 58.8107C79.3826 58.7952 79.2357 58.8098 79.0957 58.8536L69.563 61.8349C69.423 61.8787 69.2926 61.9509 69.1794 62.0474C69.0661 62.1439 68.9721 62.2627 68.9027 62.3971C68.8334 62.5315 68.7901 62.6789 68.7753 62.8308C68.7604 62.9828 68.7744 63.1363 68.8164 63.2825L69.1758 64.5372L69.0778 64.4511Z" fill="#3A1716"/>
<path d="M67.7561 113.004C67.7561 113.004 73.9985 120.863 85.395 120.374C96.7915 119.884 99.5722 111.281 99.5722 111.281C99.5722 111.281 105.025 127.095 104.913 136.397C104.802 145.699 104.143 149.419 104.143 149.419H70.3165C70.3165 149.419 67.4301 124.843 67.7561 113.004Z" fill="white"/>
<path d="M34.6426 149.232C35.1244 147.266 39.444 129.743 41.458 125.403C41.9532 124.335 43.8693 122.833 46.522 121.156C47.4801 120.549 48.536 119.92 49.6543 119.281C54.4268 116.549 60.3576 113.625 64.9242 111.46C69.0758 109.492 84.6728 120.824 84.6728 120.824L85.1179 122.264L87.8319 131.128L89.4854 136.53L84.4492 148.482L70.2497 148.746L50.5167 149.115L43.1727 149.251L40.5901 149.299L34.6426 149.232Z" fill="#BEBEBF"/>
<path d="M99.5674 111.309C99.5674 111.309 125.928 120.805 128.088 125.406C130.247 130.007 135.031 149.415 135.031 149.415L82.0977 148.516L83.878 132.238L83.2104 119.797L99.5674 111.309Z" fill="#C9C9C9"/>
<path d="M32.7438 149.231C32.7438 149.231 31.0825 126.405 35.3654 111.581C36.0487 109.295 36.9774 107.097 38.1339 105.03L46.1065 104.922C46.1065 104.922 57.078 143.109 50.3582 149.273L32.7438 149.231Z" fill="#C9C9C9"/>
<path d="M36.172 109.041L34.8857 113.375C34.8857 113.375 38.6768 119.606 48.5377 114.354L47.0712 108.473L36.172 109.041Z" fill="#526678"/>
<path d="M51.4051 106.841C51.3972 106.855 51.3886 106.868 51.3795 106.881C51.3216 106.975 51.2626 107.068 51.2025 107.158C50.9308 107.575 50.6354 107.974 50.3179 108.354C49.6087 109.215 48.7712 109.952 47.8377 110.535C47.7676 110.578 47.6986 110.62 47.6296 110.659C47.0702 110.986 46.4784 111.248 45.8648 111.441C45.7635 111.472 45.6634 111.502 45.5655 111.528C44.1879 111.905 43.2188 111.784 43.2188 111.784C43.2188 111.784 44.1546 110.939 45.4164 109.856C45.8281 109.507 46.2743 109.123 46.735 108.74L47.0688 108.468C47.2045 108.355 47.341 108.243 47.4783 108.132L47.5995 108.034L47.9578 107.743L48.4519 107.35C48.8669 107.026 49.272 106.718 49.6514 106.441C50.1299 106.092 50.5683 105.799 50.9355 105.586C52.0493 104.936 52.5055 105.062 51.4051 106.841Z" fill="#F6C08B"/>
<path d="M37.1491 82.9431C37.1216 82.9427 37.0943 82.9384 37.0679 82.9303C36.9974 82.9077 36.9383 82.8569 36.9037 82.7889C36.8691 82.7208 36.8617 82.6412 36.8832 82.5675C37.9614 78.8641 39.3312 77.384 40.9179 75.6712L41.1694 75.4004C42.3934 74.0713 44.3073 73.2051 46.8532 72.8248C47.9951 72.6523 49.1501 72.5935 50.3026 72.6493C50.3392 72.6519 50.3749 72.662 50.4077 72.679C50.4405 72.696 50.4697 72.7196 50.4938 72.7484C50.5179 72.7772 50.5363 72.8107 50.548 72.847C50.5597 72.8832 50.5644 72.9216 50.5619 72.9597C50.5594 72.9979 50.5498 73.0352 50.5335 73.0695C50.5172 73.1038 50.4946 73.1343 50.467 73.1595C50.4395 73.1846 50.4074 73.2039 50.3727 73.2161C50.338 73.2283 50.3013 73.2333 50.2648 73.2307C50.2058 73.2307 44.2984 72.8505 41.5744 75.805L41.323 76.0771C39.7229 77.8037 38.4599 79.1688 37.4195 82.7384C37.4019 82.7986 37.3659 82.8512 37.3171 82.8881C37.2684 82.925 37.2094 82.9443 37.1491 82.9431Z" fill="white"/>
<path d="M29.3048 89.984C29.2411 89.9829 29.1797 89.9587 29.1312 89.9154C29.074 89.8667 29.0376 89.7963 29.0299 89.7196C29.0221 89.643 29.0438 89.5662 29.0901 89.5061C31.034 87.005 34.1919 85.5528 36.4997 84.7679C37.9894 84.2584 39.5194 83.8884 41.0719 83.6622C41.1456 83.6531 41.2199 83.675 41.2782 83.723C41.3365 83.7711 41.3742 83.8414 41.3829 83.9185C41.3916 83.9956 41.3706 84.0732 41.3246 84.1341C41.2786 84.1951 41.2113 84.2345 41.1375 84.2435C41.0574 84.2529 33.0858 85.29 29.5229 89.877C29.4963 89.9105 29.463 89.9375 29.4253 89.956C29.3876 89.9745 29.3465 89.984 29.3048 89.984Z" fill="white"/>
<path d="M39.645 99.385C32.0061 99.385 26.6617 95.9282 26.2745 93.3841C25.9329 91.1342 24.6989 90.4517 23.6106 89.8505L23.3881 89.7238C23.1834 89.6075 18.3686 86.825 17.6331 80.2997C16.9922 74.615 18.7458 72.7186 21.9015 69.8559C24.937 67.1014 28.7136 67.077 31.0258 67.892C35.0072 69.2966 37.72 71.421 39.0897 74.2058C40.0812 76.2197 39.4458 78.1673 39.0897 78.9731C40.0861 79.1433 41.0542 79.4608 41.965 79.916C44.1226 81.0299 45.1674 82.7903 44.9849 85.0077C44.8058 87.2006 43.1389 89.1936 40.1657 90.7773C38.7569 91.5169 37.2763 92.097 35.7493 92.5074C35.6775 92.5253 35.6018 92.5126 35.5389 92.4721C35.4759 92.4317 35.431 92.3668 35.4139 92.2917C35.3967 92.2166 35.4089 92.1375 35.4476 92.0718C35.4863 92.006 35.5484 91.959 35.6203 91.9411C35.7048 91.9202 44.0347 89.7947 44.4308 84.9577C44.5933 82.9752 43.6853 81.4567 41.7313 80.4439C40.7536 79.9563 39.708 79.6341 38.6335 79.4893L38.1962 79.4428L38.4188 79.0498C38.4321 79.0277 39.7095 76.7522 38.5868 74.4697C37.2849 71.8245 34.6778 69.7955 30.8389 68.442C28.4955 67.6153 24.9337 67.8665 22.2587 70.2932C19.4168 72.8721 17.5396 74.5744 18.1772 80.2311C18.8794 86.4588 23.4504 89.1017 23.644 89.211L23.8666 89.3354C24.9504 89.9342 26.4336 90.7551 26.8197 93.2887C27.1836 95.6793 32.8807 99.0886 40.6409 98.7781C48.7115 98.456 57.3751 95.6619 58.3165 90.9458C59.2701 86.1716 58.3165 84.3263 53.198 81.0764C49.2578 78.5719 46.7631 77.9998 45.9953 78.0475C45.9215 78.0528 45.8488 78.0271 45.7931 77.9763C45.7373 77.9255 45.7032 77.8537 45.6982 77.7766C45.6932 77.6995 45.7177 77.6234 45.7663 77.5652C45.8149 77.507 45.8837 77.4714 45.9575 77.4661C46.0543 77.4592 48.3754 77.3289 53.4873 80.5788C58.8128 83.9636 59.8665 86.0216 58.8606 91.0644C58.3799 93.4678 56.1111 95.5445 52.2955 97.07C49.0764 98.3572 44.8347 99.1909 40.6587 99.3583C40.3204 99.3761 39.9825 99.385 39.645 99.385Z" fill="white"/>
<path d="M50.695 90.0296C50.5336 90.0296 46.697 89.9378 44.4715 84.3322C44.4575 84.2969 44.4502 84.2591 44.4502 84.2209C44.4502 84.1827 44.4573 84.1449 44.4713 84.1096C44.4852 84.0742 44.5057 84.0422 44.5315 84.0151C44.5573 83.9881 44.588 83.9666 44.6217 83.9519C44.6555 83.9373 44.6917 83.9297 44.7282 83.9297C44.7648 83.9296 44.801 83.9371 44.8348 83.9517C44.8686 83.9662 44.8993 83.9876 44.9251 84.0146C44.951 84.0416 44.9716 84.0737 44.9856 84.1089C45.5865 85.6205 46.7059 87.6599 48.6331 88.7704C49.7825 89.4331 50.6905 89.4529 50.7005 89.4529C50.7743 89.4529 50.8451 89.4836 50.8972 89.5381C50.9494 89.5926 50.9787 89.6665 50.9787 89.7436C50.9787 89.8207 50.9494 89.8946 50.8972 89.9491C50.8451 90.0036 50.7743 90.0343 50.7005 90.0343L50.695 90.0296Z" fill="white"/>
<path d="M50.1405 79.0084L49.6175 78.8084C49.6298 78.7724 50.8883 75.2922 53.7847 76.2004C54.4857 76.4213 55.0643 76.2852 55.5038 75.7992C56.2082 75.0178 56.4129 73.4086 55.9678 72.1365C55.4115 70.5412 54.3166 69.4506 50.599 68.9472C49.6888 68.8239 48.9788 69.0192 48.4848 69.5285C47.4121 70.6366 47.6547 72.9005 47.658 72.9191L47.1017 72.9877C47.0894 72.8842 46.8235 70.4297 48.0887 69.1169C48.7084 68.4751 49.5741 68.2263 50.6635 68.3728C54.647 68.9123 55.871 70.1889 56.4842 71.94C57.0027 73.4249 56.7534 75.2562 55.9011 76.2004C55.3236 76.841 54.5124 77.0399 53.6178 76.7596C52.623 76.448 51.7406 76.7189 50.9962 77.5654C50.6336 77.9913 50.3441 78.4795 50.1405 79.0084Z" fill="white"/>
<path d="M41.3689 75.8924C41.3166 75.8924 41.2654 75.877 41.2211 75.848C41.1769 75.819 41.1413 75.7776 41.1185 75.7285C41.0684 75.6203 39.9056 73.0681 40.6156 71.3449C40.7179 71.0949 40.827 70.8554 40.9316 70.624C41.5191 69.3276 41.943 68.3915 40.9549 67.052C40.3986 66.3021 39.4695 65.9102 38.4814 65.4963C37.2852 64.9928 36.0478 64.4742 35.3168 63.2568C33.9426 60.9685 36.8045 57.6361 36.9269 57.4954C36.9771 57.4409 37.0456 57.409 37.118 57.4064C37.1904 57.4039 37.2608 57.4309 37.3144 57.4818C37.368 57.5326 37.4005 57.6033 37.405 57.6788C37.4096 57.7543 37.3857 57.8287 37.3386 57.8861C37.3119 57.9175 34.6369 61.0325 35.7875 62.9476C36.4228 64.0045 37.5745 64.4882 38.6894 64.9568C39.702 65.3812 40.7502 65.8219 41.3956 66.7009C42.5918 68.3229 42.0298 69.5636 41.4345 70.8763C41.3322 71.1089 41.2253 71.3414 41.1263 71.5798C40.5165 73.0576 41.6081 75.4564 41.6192 75.4808C41.6395 75.5251 41.6488 75.574 41.6461 75.623C41.6434 75.672 41.6289 75.7195 41.6039 75.7611C41.5789 75.8026 41.5442 75.8369 41.5031 75.8607C41.462 75.8845 41.4158 75.897 41.3689 75.8971V75.8924Z" fill="white"/>
<path d="M29.1752 84.5643C28.4997 84.5643 27.9512 84.3724 27.5417 83.9899C26.4779 82.9981 26.7628 81.1272 26.775 81.0481C26.7871 80.9719 26.8277 80.9039 26.8878 80.859C26.9479 80.8141 27.0226 80.796 27.0955 80.8086C27.1684 80.8213 27.2335 80.8636 27.2765 80.9264C27.3195 80.9892 27.3368 81.0673 27.3247 81.1435C27.3247 81.1656 27.0788 82.7818 27.9133 83.5562C28.4452 84.0503 29.3243 84.1166 30.526 83.7538C30.5617 83.7412 30.5994 83.7362 30.6369 83.7393C30.6744 83.7423 30.711 83.7533 30.7443 83.7715C30.7777 83.7898 30.8071 83.8149 30.8309 83.8453C30.8547 83.8758 30.8724 83.911 30.8828 83.9488C30.8932 83.9866 30.8961 84.0262 30.8914 84.0652C30.8867 84.1042 30.8745 84.1419 30.8556 84.1758C30.8366 84.2098 30.8112 84.2393 30.7809 84.2627C30.7507 84.2861 30.7162 84.3029 30.6796 84.312C30.1919 84.4692 29.6855 84.5541 29.1752 84.5643Z" fill="white"/>
<path d="M36.6107 81.2897C36.1752 81.297 35.7474 81.1699 35.3808 80.9242C35.0142 80.6784 34.7251 80.3251 34.5499 79.9084C34.522 79.837 34.5224 79.757 34.551 79.6859C34.5796 79.6148 34.6341 79.5585 34.7024 79.5294C34.7707 79.5002 34.8473 79.5006 34.9153 79.5305C34.9834 79.5604 35.0372 79.6172 35.0651 79.6886C35.0907 79.7526 35.656 81.1083 37.3351 80.5898C37.4059 80.568 37.4821 80.5766 37.5469 80.6135C37.6117 80.6505 37.6598 80.7129 37.6806 80.7869C37.7014 80.8609 37.6932 80.9405 37.6578 81.0082C37.6225 81.0759 37.5628 81.1262 37.492 81.1479C37.2062 81.2391 36.9094 81.2868 36.6107 81.2897Z" fill="white"/>
<path d="M33.6951 98.9822C33.8586 97.8195 35.4331 94.8894 36.5748 94.7184C37.7164 94.5475 37.9368 92.3441 38.7346 91.9604C39.5324 91.5767 41.1681 92.7836 41.4941 93.465C41.8202 94.1463 43.497 94.8335 43.497 94.8335C43.497 94.8335 47.3582 96.1917 47.3582 97.7265C47.3582 99.2613 48.827 106.762 47.0322 109.319C45.2373 111.876 44.4217 115.286 36.7528 112.047C35.4747 110.697 34.6208 108.973 34.3048 107.103C33.8152 104.034 32.7314 103.937 32.7314 102.743C32.7314 101.548 32.7548 99.4868 33.5704 99.4868L33.6951 98.9822Z" fill="#F6C08B"/>
<path d="M41.4643 149.487C41.4643 149.487 41.4643 149.479 41.4643 149.472L39.7129 149.132C39.7196 149.096 39.7274 149.061 39.7363 149.028C40.8134 144.054 42.3111 139.4 43.4082 136.005C43.9056 134.461 44.2984 133.241 44.521 132.387C45.0328 130.456 45.4056 126.666 45.6281 121.122C45.7394 118.337 45.8095 115.17 45.8373 111.704V111.114C45.8373 110.649 45.8373 110.194 45.8429 109.768C45.8429 109.407 45.8429 109.065 45.8429 108.742C45.8429 108.51 45.8429 108.294 45.8429 108.084C45.8429 107.774 45.8429 107.489 45.8429 107.227C45.8429 106.223 45.8329 105.563 45.8306 105.375V105.309H47.611V105.354C47.611 105.545 47.6199 106.21 47.6232 107.214C47.6232 107.476 47.6232 107.765 47.6232 108.078C47.6232 108.286 47.6232 108.508 47.6232 108.741C47.6232 109.067 47.6232 109.411 47.6232 109.77C47.6232 110.201 47.6232 110.654 47.6177 111.126V111.716C47.5899 115.205 47.5186 118.389 47.4063 121.195C47.1837 126.881 46.7842 130.812 46.2368 132.88C45.9975 133.782 45.5981 135.023 45.0929 136.593C44.0102 139.957 42.5281 144.565 41.4699 149.452L41.4643 149.487Z" fill="#4D585E"/>
<path d="M48.0048 106.658C48.0342 105.953 47.5105 105.356 46.8351 105.325C46.1598 105.294 45.5885 105.842 45.5591 106.547L45.3996 110.381C45.3702 111.086 45.8939 111.683 46.5693 111.714C47.2446 111.745 47.8159 111.198 47.8453 110.492L48.0048 106.658Z" fill="#75858E"/>
<path d="M40.7383 89.1707C40.7383 89.1707 41.7342 81.128 47.7484 81.3036C53.7627 81.4792 54.0542 89.3347 54.0542 89.3347L40.7383 89.1707Z" fill="#B7D6E5"/>
<path d="M53.8578 98.1378C53.8511 98.261 53.84 98.3889 53.8255 98.5203C53.5173 101.296 53.1479 103.39 52.5593 104.904C52.2466 105.71 51.8727 106.35 51.4109 106.843C51.0399 107.242 50.592 107.555 50.0968 107.759C49.7317 107.91 49.3507 108.014 48.9618 108.069C48.6249 108.118 48.285 108.142 47.9448 108.142C47.8246 108.142 47.7 108.142 47.5731 108.142H47.4808C47.3172 108.135 47.147 108.125 46.9745 108.11C46.8977 108.104 46.8198 108.096 46.7408 108.087C46.3514 108.048 45.9389 107.99 45.5035 107.913L45.3922 107.893C43.5595 107.564 42.3656 106.423 41.59 104.986C40.8857 103.683 40.5285 102.138 40.3549 100.74C40.2181 99.6119 40.1731 98.4738 40.2203 97.3378C40.2358 96.9704 40.2559 96.7564 40.2559 96.7564C40.2559 96.7564 41.0348 96.4076 42.2221 95.9797C42.8741 95.7471 43.6497 95.482 44.4853 95.239C48.5757 94.046 54.1237 93.3031 53.8578 98.1378Z" fill="#75858E"/>
<path d="M53.3265 87.947L41.7295 87.42C40.9928 87.3865 40.3695 87.9835 40.3375 88.7534L40.0136 96.5364C39.9816 97.3063 40.5528 97.9575 41.2896 97.991L52.8866 98.518C53.6233 98.5515 54.2465 97.9545 54.2786 97.1846L54.6025 89.4016C54.6345 88.6317 54.0632 87.9805 53.3265 87.947Z" fill="#526678"/>
<path d="M38.3877 94.7348C38.3877 94.7348 40.5353 102.997 41.8561 102.746C43.1769 102.495 44.1182 101.002 41.8561 94.9732C39.5939 88.9443 38.3877 94.7348 38.3877 94.7348Z" fill="#F6C08B"/>
<path d="M35.1416 97.7329C35.1416 97.7329 37.88 105.392 39.6904 104.572C41.5008 103.752 37.6619 95.6016 37.6619 95.6016L35.1416 97.7329Z" fill="#F6C08B"/>
<path d="M52.555 104.905C52.2423 105.71 51.8684 106.351 51.4067 106.844C51.3988 106.858 51.3902 106.871 51.3811 106.884C51.3232 106.978 51.2642 107.071 51.2041 107.161C50.9324 107.578 50.637 107.977 50.3195 108.357C50.2439 108.161 50.1671 107.963 50.097 107.76L50.0569 107.651L50.0502 107.631L49.9724 107.415C49.8982 107.203 49.827 106.99 49.7587 106.778C49.7376 106.708 49.7153 106.638 49.6942 106.571C49.6819 106.529 49.6686 106.487 49.6563 106.446C49.5326 106.038 49.4312 105.623 49.3526 105.202C49.0321 103.399 49.6942 102.093 50.5766 102.098C50.8547 102.098 51.1563 102.231 51.4545 102.519C51.8807 102.928 52.2523 103.859 52.555 104.905Z" fill="#F6C08B"/>
<path d="M73.0817 108.52L64.9199 111.461L76.8672 122.934L83.2097 119.795L89.4777 123.772L103.522 112.787L96.5869 108.989L83.8651 117.998L73.0817 108.52Z" fill="#526678"/>
<path d="M84.5457 131.773H83.4329C82.6955 131.773 82.0977 132.398 82.0977 133.169V134.331C82.0977 135.102 82.6955 135.727 83.4329 135.727H84.5457C85.2831 135.727 85.8809 135.102 85.8809 134.331V133.169C85.8809 132.398 85.2831 131.773 84.5457 131.773Z" fill="#526678"/>
<path d="M84.4363 142.352H83.3235C82.5861 142.352 81.9883 142.976 81.9883 143.747V144.91C81.9883 145.68 82.5861 146.305 83.3235 146.305H84.4363C85.1737 146.305 85.7715 145.68 85.7715 144.91V143.747C85.7715 142.976 85.1737 142.352 84.4363 142.352Z" fill="#526678"/>
<path d="M5.98613 118.864C5.52398 118.864 5.07219 118.721 4.68792 118.453C4.30365 118.184 4.00415 117.803 3.82729 117.357C3.65043 116.91 3.60415 116.42 3.69431 115.946C3.78448 115.472 4.00703 115.037 4.33383 114.696C4.66062 114.354 5.07698 114.122 5.53026 114.027C5.98354 113.933 6.45338 113.982 6.88036 114.166C7.30734 114.351 7.67228 114.664 7.92905 115.066C8.18581 115.467 8.32285 115.939 8.32285 116.422C8.32285 117.07 8.07666 117.691 7.63844 118.149C7.20022 118.607 6.60587 118.864 5.98613 118.864ZM5.98613 114.794C5.67803 114.794 5.37684 114.89 5.12066 115.069C4.86448 115.248 4.66481 115.502 4.5469 115.799C4.429 116.097 4.39814 116.424 4.45825 116.74C4.51836 117.056 4.66673 117.346 4.8846 117.573C5.10246 117.801 5.38003 117.956 5.68222 118.019C5.98441 118.082 6.29763 118.049 6.58228 117.926C6.86693 117.803 7.11023 117.594 7.28141 117.327C7.45258 117.059 7.54395 116.744 7.54395 116.422C7.54395 115.991 7.37982 115.576 7.08767 115.271C6.79553 114.966 6.39929 114.794 5.98613 114.794Z" fill="#8D9CA0"/>
</g>
</svg>
