<svg width="167" height="48" viewBox="0 0 167 48" fill="none" xmlns="http://www.w3.org/2000/svg">
<g clip-path="url(#clip0)">
<path d="M75.5541 26.8023L68.5473 28.8016H68.5315L62.3132 30.5787L38.4374 37.4056L38.075 37.5089L37.0166 37.8111L35.9925 38.103L35.1987 38.3277L34.4445 38.5421L31.5603 39.3686L30.1843 39.7613C15.9563 43.8321 1.47694 47.9881 1.47694 47.9881V47.952L0.892165 39.9292L0.587891 35.7628C19.2508 24.1702 34.987 16.9817 47.548 12.5312C49.2432 11.9319 50.8785 11.3801 52.4538 10.8755H52.4882C54.6686 10.1755 56.7379 9.56593 58.6933 9.03125L66.8116 17.5913L75.5541 26.8023Z" fill="#4D5E91"/>
<path d="M75.553 26.806L83.4251 24.5537V24.5795L75.5689 26.8216L68.5621 28.8208H68.5436L62.3253 30.5953L38.4337 37.4119L38.0712 37.5152L37.0127 37.8174L35.9887 38.1093L35.1949 38.334L34.4408 38.5484L31.5565 39.375L30.1806 39.7676L1.47052 47.9583L1.38847 47.9816L1.06559 41.431L0.885742 39.9355L52.4448 22.4563L60.4069 19.757H60.4306L66.8077 17.5977L75.553 26.806Z" fill="#839AE2"/>
<path d="M60.71 11.3911L83.4266 0V35.3407L60.71 11.3911Z" fill="#9CB3EF"/>
<path d="M0 26.7303L47.5476 5.41016V18.4156L0.590078 35.7708L0 26.7303Z" fill="#839AE2"/>
<path d="M83.426 35.1074L83.5504 45.2251L68.5603 28.823L68.547 28.8075L60.4394 19.754L52.4932 10.8788L48.9766 6.97333L56.5179 6.73828L58.6983 9.03716L66.8165 17.5947L75.5539 26.8082L75.5697 26.8237L83.426 35.1074Z" fill="#5C73A5"/>
<path d="M47.5479 18.4156L83.5505 47.7379V45.16L47.5479 5.41016V18.4156Z" fill="#9CB3EF"/>
<path d="M33.7197 38.7695C33.7197 38.7695 63.5755 32.8079 83.5508 47.8101L62.3821 30.5039L33.7197 38.7695Z" fill="#4D5E91"/>
<path d="M91.4463 26.4299L98.4531 28.4292H98.469L104.687 30.2063L128.563 37.0332L128.926 37.1365L129.984 37.4387L131.008 37.7306L131.802 37.9553L132.556 38.1697L135.44 38.9963L136.816 39.3889C151.044 43.4597 165.524 47.6158 165.524 47.6158V47.5796L166.108 39.5542L166.413 35.3904C147.75 23.7978 132.014 16.6093 119.453 12.1588C117.757 11.5596 116.122 11.0068 114.547 10.5005H114.512C112.332 9.80053 110.263 9.19093 108.307 8.65625L100.189 17.2163L91.4463 26.4299Z" fill="#4D5E91"/>
<path d="M91.4463 26.4389L83.5742 24.1866V24.2124L91.4304 26.4544L98.4373 28.4537H98.4559L104.674 30.2282L128.566 37.0448L128.928 37.1481L129.987 37.4503L131.011 37.7422L131.804 37.9669L132.559 38.1813L135.443 39.0079L136.819 39.4005L165.529 47.5912L165.611 47.6144L165.989 40.9658L166.114 39.5658L114.555 22.0892L106.585 19.3977H106.561L100.184 17.2383L91.4463 26.4389Z" fill="#9CB3EF"/>
<path d="M106.291 11.018L83.2861 0.0195312V35.1484L106.291 11.018Z" fill="#839AE2"/>
<path d="M167 26.3631L119.45 5.04297V18.0458L166.408 35.4036L167 26.3631Z" fill="#839AE2"/>
<path d="M83.2861 35.1483L83.5746 45.049L98.4377 28.448L98.4535 28.4325L106.559 19.379L114.507 10.5038L118.024 6.59833L110.48 6.36328L108.302 8.65957L100.184 17.2197L91.4467 26.4332L91.4308 26.4487L83.2861 35.1483Z" fill="#5C73A5"/>
<path d="M119.45 18.0458L83.5742 47.629V45.0511L119.45 5.04297V18.0458Z" fill="#839AE2"/>
<path d="M133.281 38.3935C133.281 38.3935 103.552 32.6256 83.5742 47.6303L104.767 30.1562L133.281 38.3935Z" fill="#4D5E91"/>
<path opacity="0.19" d="M32.7617 23.8286L47.6195 17.9548L55.0338 24.4924L47.5639 5.44531L32.7617 23.8286Z" fill="white"/>
<path opacity="0.19" d="M134.885 23.7856L119.273 17.8447L110.806 25.0771L119.538 4.92969L134.885 23.7856Z" fill="white"/>
</g>
<defs>
<clipPath id="clip0">
<rect width="167" height="48" fill="white"/>
</clipPath>
</defs>
</svg>
