<svg width="37" height="37" viewBox="0 0 37 37" fill="none" xmlns="http://www.w3.org/2000/svg">
<path d="M18.2429 0.277344C14.6348 0.277344 11.1077 1.34623 8.1077 3.34883C5.10767 5.35144 2.76943 8.19781 1.38867 11.528C0.00790368 14.8582 -0.353366 18.5227 0.350541 22.058C1.05445 25.5934 2.79192 28.8408 5.34323 31.3896C7.89455 33.9384 11.1451 35.6742 14.6839 36.3774C18.2227 37.0806 21.8907 36.7197 25.2242 35.3403C28.5576 33.9609 31.4068 31.6249 33.4114 28.6278C35.4159 25.6307 36.4858 22.1071 36.4858 18.5025C36.4812 13.6703 34.5577 9.03735 31.1375 5.62047C27.7173 2.2036 23.0798 0.281972 18.2429 0.277344ZM18.2429 3.19057C20.6771 3.19437 23.0752 3.77774 25.2386 4.89234C27.402 6.00693 29.2684 7.62063 30.6829 9.59966C28.0642 10.3047 26.3671 12.239 24.7224 14.1326C22.8736 16.2127 21.159 18.2519 18.1904 18.2636H18.0563C15.1402 18.2636 13.4314 16.2476 11.606 14.1268C9.99046 12.2507 8.3283 10.3396 5.77382 9.62297C7.18832 7.63528 9.0581 6.01434 11.2272 4.89538C13.3963 3.77643 15.8017 3.1919 18.2429 3.19057ZM2.91608 18.5025C2.91545 16.1738 3.4481 13.8759 4.47325 11.7846C7.38932 12.14 9.21478 14.22 10.9528 16.2418C12.2242 17.7217 13.5306 19.225 15.2627 20.0407V33.5172C11.7856 32.8241 8.65584 30.9499 6.40515 28.2128C4.15447 25.4757 2.92163 22.0447 2.91608 18.5025ZM17.6597 33.7969V20.6583H17.7939H18.4762H18.9078V33.8144C18.6862 33.8144 18.4645 33.8144 18.2429 33.8144L17.6597 33.7969ZM21.264 33.5114V19.9882C21.264 19.9882 21.264 19.9416 21.264 19.9241C22.9086 19.0793 24.18 17.646 25.4048 16.2302C27.1544 14.1909 29.009 12.0817 32.0184 11.7438C33.0575 13.8483 33.598 16.1634 33.5979 18.51C33.5979 20.8566 33.0574 23.1717 32.0182 25.2761C30.9791 27.3806 29.4692 29.2179 27.6053 30.646C25.7415 32.074 23.5737 33.0545 21.2698 33.5114H21.264Z" fill="#BE5713"/>
</svg>
