<svg width="30" height="30" viewBox="0 0 30 30" fill="none" xmlns="http://www.w3.org/2000/svg">
<path d="M15 16.25C15.6904 16.25 16.25 15.6904 16.25 15C16.25 14.3096 15.6904 13.75 15 13.75C14.3096 13.75 13.75 14.3096 13.75 15C13.75 15.6904 14.3096 16.25 15 16.25Z" fill="#1A1919" stroke="#1A1919" stroke-width="2" stroke-linecap="round" stroke-linejoin="round"/>
<path d="M15 7.5C15.6904 7.5 16.25 6.94036 16.25 6.25C16.25 5.55964 15.6904 5 15 5C14.3096 5 13.75 5.55964 13.75 6.25C13.75 6.94036 14.3096 7.5 15 7.5Z" stroke="#1A1919" stroke-width="2" stroke-linecap="round" stroke-linejoin="round"/>
<path d="M15 25C15.6904 25 16.25 24.4404 16.25 23.75C16.25 23.0596 15.6904 22.5 15 22.5C14.3096 22.5 13.75 23.0596 13.75 23.75C13.75 24.4404 14.3096 25 15 25Z" stroke="#1A1919" stroke-width="2" stroke-linecap="round" stroke-linejoin="round"/>
</svg>
