<svg width="203" height="339" viewBox="0 0 203 339" fill="none" xmlns="http://www.w3.org/2000/svg">
<g clip-path="url(#clip0_11109_90261)">
<path d="M93.1893 243.079C93.227 249.699 93.289 278.841 91.7552 307.402C90.7803 278.92 92.6224 249.709 93.0803 243.079C93.1112 242.632 93.1355 242.289 93.153 242.055C93.1705 241.821 93.1799 241.688 93.1799 241.688C93.1799 241.688 93.1799 241.845 93.1799 242.15L93.4762 243.076V243.083L93.1893 243.079Z" fill="#EEEDED"/>
<path d="M91.7552 307.4C90.7803 278.918 92.6224 249.707 93.0803 243.077H92.9927H92.4959V243.071L92.9833 241.582L93.0035 241.593L93.1772 241.682C93.1772 241.682 93.1772 241.839 93.1772 242.145C93.1772 242.373 93.1795 242.682 93.184 243.072C93.2271 249.697 93.289 278.839 91.7552 307.4Z" fill="#EEEDED"/>
<path d="M64.4468 113.57C64.4468 113.57 43.6217 143.717 55.5162 174.805C67.4106 205.894 48.961 204.279 49.6343 213.969C50.3076 223.659 134.919 216.492 134.919 216.492C134.919 216.492 128.062 195.565 131.102 186.38C134.141 177.194 134.199 130.393 124.638 116.396C115.077 102.4 64.4468 113.57 64.4468 113.57Z" fill="#C67040"/>
<path d="M80.6061 188.263C80.6061 188.263 80.8754 197.684 74.8157 199.568C68.7561 201.452 73.7385 212.757 90.7055 214.372C107.673 215.987 114.81 202.529 111.443 200.51C108.077 198.491 106.927 194.168 106.326 191.089C105.725 188.01 80.6061 188.263 80.6061 188.263Z" fill="#F6C0A4"/>
<path d="M80.3359 172.923L80.4706 186.247L81.0092 200.378C81.0092 200.378 92.4553 207.934 105.722 200.149L106.325 193.649L106.19 169.559L80.3359 172.923Z" fill="#F6C0A4"/>
<path d="M80.3359 176.422L80.4706 182.074C80.4706 182.074 86.5653 189.72 93.7224 189.51C100.88 189.3 106.191 181.805 106.191 181.805L106.056 174.941L80.3359 176.422Z" fill="#EE9D83"/>
<path d="M64.6812 157.783L64.6731 157.74C64.6731 157.74 61.7254 156.689 60.2523 150.166C58.7791 143.643 62.357 143.644 62.357 143.644C62.357 143.644 59.6544 136.261 61.9705 122.783C64.2867 109.306 119.44 117.109 123.861 120.265C128.282 123.421 122.353 143.219 122.353 143.219C122.353 143.219 126.984 138.169 125.932 147.847C124.881 157.525 120.668 157.941 120.668 157.941C120.668 157.941 118.043 167.361 113.732 172.777C103.969 185.043 98.987 186.343 92.456 186.343C85.925 186.343 75.6155 176.875 75.6155 176.875L74.6729 175.959C69.5967 171.037 66.1159 164.705 64.6812 157.783Z" fill="#F6C0A4"/>
<path d="M112.883 143.525L109.625 142.448C108.896 142.32 98.1356 141.819 98.2648 141.09L98.5341 139.597C98.5647 139.423 98.6293 139.257 98.7242 139.108C98.8192 138.959 98.9425 138.83 99.0873 138.728C99.2321 138.627 99.3955 138.555 99.5682 138.516C99.7408 138.478 99.9193 138.474 100.093 138.505L111.954 140.592C112.306 140.654 112.618 140.853 112.823 141.145C113.028 141.438 113.108 141.799 113.046 142.151L112.784 143.644L112.883 143.525Z" fill="#A45A3B"/>
<path d="M85.3025 148.903C85.3025 151.112 83.5115 150.115 81.3031 150.115C79.0947 150.115 77.3037 151.115 77.3037 148.903C77.3037 148.378 77.4072 147.859 77.6081 147.374C77.8091 146.889 78.1037 146.448 78.4751 146.077C78.8465 145.706 79.2874 145.411 79.7726 145.211C80.2578 145.01 80.7779 144.906 81.3031 144.906C81.8283 144.906 82.3484 145.01 82.8336 145.211C83.3188 145.411 83.7597 145.706 84.1311 146.077C84.5024 146.448 84.797 146.889 84.998 147.374C85.199 147.859 85.3025 148.378 85.3025 148.903Z" fill="#547871"/>
<path d="M109.512 148.902C109.512 151.11 107.721 150.749 105.512 150.749C103.304 150.749 101.512 151.11 101.512 148.902C101.531 147.854 101.961 146.856 102.709 146.122C103.457 145.388 104.463 144.977 105.512 144.977C106.56 144.977 107.567 145.388 108.315 146.122C109.063 146.856 109.493 147.854 109.512 148.902Z" fill="#547871"/>
<path d="M80.8818 162.934H104.906C104.906 162.934 103.196 175.411 92.4598 174.777C81.7235 174.143 80.8818 162.934 80.8818 162.934Z" fill="white"/>
<path d="M93.3311 121.596C96.8066 122.029 122.933 158.167 123.585 151.438C124.237 144.709 129.808 139.894 127.736 125.279C125.665 110.665 111.039 100.92 98.1115 101.189C83.7178 101.489 65.0284 107.321 62.1575 118.012C59.195 129.048 59.9504 141.026 61.2539 141.887C62.5574 142.748 63.6589 154.851 63.6589 154.851C63.6589 154.851 66.9002 150.57 66.9002 145.577C66.9002 141.611 68.2468 140.263 76.2294 133.029C81.3355 128.395 87.0982 124.54 93.3311 121.589V121.596Z" fill="#C67040"/>
<path d="M74.0663 143.486L77.3237 142.409C78.0536 142.274 88.8128 141.78 88.6849 141.051L88.4156 139.557C88.3535 139.206 88.1544 138.893 87.862 138.689C87.5696 138.484 87.2078 138.404 86.8562 138.466L74.9968 140.552C74.8225 140.582 74.6559 140.647 74.5066 140.742C74.3572 140.837 74.2281 140.96 74.1265 141.105C74.025 141.25 73.953 141.413 73.9147 141.586C73.8764 141.759 73.8726 141.937 73.9034 142.112L74.1727 143.604L74.0663 143.486Z" fill="#A45A3B"/>
<path d="M116.942 241.98C117.118 240.712 117.48 237.539 117.673 231.923C117.717 230.606 117.75 229.153 117.771 227.562C117.808 224.675 117.359 221.248 116.686 217.775C116.361 216.112 115.986 214.438 115.586 212.808C114.995 210.396 114.351 208.081 113.746 206.044C112.433 201.617 111.308 198.492 111.308 198.492C111.122 198.994 110.897 199.48 110.634 199.946C109.2 202.494 107.122 204.621 104.607 206.114C103.966 206.499 103.301 206.845 102.618 207.15C100.369 208.155 97.5859 208.877 94.1561 209.017C90.5946 209.179 87.0346 208.665 83.6648 207.501C83.0409 207.285 82.443 207.053 81.8712 206.807C76.847 204.653 73.8253 201.613 73.0214 200.736C72.8773 200.578 72.8046 200.491 72.8046 200.491C72.8046 200.68 72.7938 200.873 72.7911 201.068C72.7669 202.248 72.7682 203.527 72.7911 204.881C72.7911 205.065 72.7979 205.251 72.8019 205.439C72.8935 209.547 73.1789 214.286 73.5425 218.974C73.6772 220.782 73.8334 222.583 73.9896 224.338C74.1242 225.872 74.267 227.37 74.407 228.807C75.0063 234.972 75.592 240.011 75.8129 241.87L116.942 241.98Z" fill="white"/>
<path d="M150.915 338.999H37.6172L39.0419 286.386L40.2228 242.691L40.9756 214.846C41.9317 212.874 47.2655 209.624 53.6039 206.313C58.8058 203.595 64.685 200.836 69.3739 198.708C71.2591 197.853 72.9531 197.1 74.332 196.494C76.6293 195.482 78.0567 194.879 78.0567 194.879L78.5953 196.547L81.8797 206.806L83.8807 213.059L85.7848 219.009L91.0432 235.438L92.9917 241.551V241.559L94.0219 238.415L94.3195 237.504L100.514 218.595L102.39 212.866L104.601 206.116L107.853 196.197L108.286 194.871C108.286 194.871 111.33 196.147 115.693 198.084L117.186 198.757C121.63 200.748 127.104 203.285 132.083 205.822C138.913 209.3 144.809 212.777 145.818 214.847L148.009 242.682L148.057 243.283L149.058 276.758V276.983L150.915 338.999Z" fill="#D2D2D2"/>
<path d="M93.1829 242.147L93.4791 243.073H92.993H92.4961V243.066L92.9836 241.578L92.9916 241.551L93.0038 241.588L93.1775 241.677C93.1775 241.677 93.1815 241.841 93.1829 242.147Z" fill="#EEEDED"/>
<path d="M154.215 242.634L146.646 242.688L145.812 214.844C148.426 220.169 154.215 242.634 154.215 242.634Z" fill="#EEEDED"/>
<path d="M32.6709 242.634C32.6709 242.634 38.3899 220.169 40.9726 214.844L40.2199 242.689L32.6709 242.634Z" fill="#EEEDED"/>
<path d="M93.482 243.081L93.1898 243.078H93.0808L92.9932 243.077L92.499 243.074L92.9865 241.586L92.9946 241.559L93.0067 241.596L93.1535 242.053L93.1831 242.148L93.4794 243.074L93.482 243.081Z" fill="#EEEDED"/>
<path d="M71.4594 197.426L77.1972 194.64C77.5146 194.486 77.862 194.403 78.2149 194.399C78.5678 194.394 78.9174 194.467 79.2389 194.612C79.5603 194.758 79.8457 194.973 80.0747 195.241C80.3037 195.509 80.4706 195.825 80.5637 196.165L91.3082 235.392C91.8953 237.535 89.5051 239.255 87.6589 238.019C81.3649 233.811 71.8095 227.285 72.2054 226.746C72.7952 225.939 79.4083 217.342 78.459 216.059C77.7251 215.069 72.6498 205.158 70.3687 200.67C70.2243 200.386 70.138 200.076 70.1148 199.758C70.0916 199.44 70.1319 199.121 70.2334 198.819C70.335 198.517 70.4957 198.239 70.7062 197.999C70.9167 197.76 71.1727 197.565 71.4594 197.426Z" fill="#B4B6B6"/>
<path d="M121.408 208.519C121.259 208.519 121.114 208.474 120.991 208.39C120.868 208.306 120.773 208.188 120.718 208.049C116.495 197.305 111.128 195.604 111.074 195.588C110.889 195.531 110.734 195.404 110.642 195.234C110.549 195.064 110.527 194.865 110.58 194.679C110.633 194.493 110.756 194.335 110.924 194.239C111.092 194.143 111.291 194.116 111.478 194.164C111.724 194.234 117.57 195.993 122.096 207.508C122.14 207.62 122.156 207.742 122.143 207.862C122.129 207.981 122.086 208.096 122.018 208.196C121.951 208.295 121.859 208.377 121.753 208.433C121.646 208.49 121.527 208.519 121.406 208.519H121.408Z" fill="#494E57"/>
<path d="M116.526 198.376L107.919 193.344C107.763 193.253 107.588 193.199 107.408 193.187C107.228 193.174 107.048 193.203 106.881 193.271C106.714 193.339 106.565 193.445 106.445 193.58C106.326 193.715 106.239 193.876 106.191 194.05L93.9856 238.731C93.9232 238.96 93.9317 239.203 94.0101 239.427C94.0884 239.651 94.2329 239.847 94.4245 239.987C94.6161 240.128 94.8458 240.207 95.0834 240.214C95.3209 240.222 95.5551 240.157 95.7551 240.028C101.458 236.357 114.621 227.781 114.167 227.15C113.589 226.343 107.093 217.649 108.06 216.384C108.882 215.307 115.116 203.472 116.973 199.935C117.114 199.667 117.146 199.356 117.062 199.066C116.979 198.776 116.787 198.529 116.526 198.376Z" fill="#B4B6B6"/>
<path d="M125.682 240.215C125.621 240.215 125.559 240.206 125.499 240.189C125.328 240.141 125.182 240.026 125.095 239.87C125.008 239.715 124.986 239.531 125.035 239.359C125.094 239.152 130.845 218.61 125.726 211.097C124.659 209.531 123.225 208.674 121.341 208.492C119.647 208.324 118.395 208.787 117.511 209.906C115.514 212.434 115.395 218.282 117.163 226.815C118.056 231.023 119.188 235.178 120.555 239.258C120.613 239.427 120.602 239.612 120.524 239.772C120.447 239.933 120.308 240.056 120.139 240.115C119.97 240.173 119.785 240.162 119.625 240.084C119.464 240.007 119.341 239.868 119.282 239.699C117.897 235.564 116.749 231.353 115.843 227.088C113.966 218.025 114.17 211.963 116.454 209.071C117.627 207.584 119.317 206.939 121.474 207.153C123.742 207.369 125.553 208.445 126.839 210.329C129.157 213.733 129.769 219.733 128.66 228.162C128.132 232.061 127.354 235.922 126.33 239.721C126.291 239.863 126.207 239.988 126.09 240.077C125.973 240.166 125.83 240.215 125.682 240.215Z" fill="#494E57"/>
<path d="M121.049 240.975C121.9 240.704 122.232 239.365 121.791 237.984C121.35 236.603 120.304 235.703 119.454 235.974C118.603 236.245 118.271 237.584 118.712 238.965C119.153 240.346 120.199 241.246 121.049 240.975Z" fill="#4D515A"/>
<path d="M120.752 241.751C120.196 241.733 119.665 241.516 119.256 241.14C118.673 240.611 118.245 239.933 118.018 239.179C117.445 237.382 117.982 235.66 119.241 235.259C119.897 235.049 120.636 235.242 121.27 235.788C121.843 236.325 122.269 237 122.508 237.748C122.747 238.496 122.791 239.292 122.636 240.062C122.434 240.869 121.942 241.46 121.289 241.669C121.116 241.724 120.934 241.752 120.752 241.751ZM119.78 236.656C119.75 236.655 119.72 236.66 119.691 236.669C119.358 236.774 119.085 237.65 119.43 238.73C119.574 239.222 119.848 239.667 120.223 240.017C120.454 240.217 120.685 240.307 120.837 240.258C120.989 240.21 121.124 240.004 121.198 239.707C121.299 239.204 121.265 238.683 121.098 238.198C120.953 237.706 120.679 237.261 120.305 236.91C120.163 236.769 119.978 236.679 119.78 236.656Z" fill="#4C515C"/>
<path d="M125.66 241.135C126.182 239.787 126.107 238.501 125.493 238.264C124.879 238.026 123.958 238.926 123.436 240.274C122.913 241.622 122.988 242.907 123.602 243.145C124.216 243.383 125.138 242.483 125.66 241.135Z" fill="#4D515A"/>
<path d="M124.774 241.551C124.612 241.551 124.452 241.522 124.301 241.466C123.252 241.062 122.993 239.455 123.687 237.633C123.938 236.935 124.333 236.297 124.845 235.76C125.661 234.952 126.353 235.046 126.692 235.175C127.74 235.579 127.999 237.185 127.307 239.007C127.054 239.705 126.66 240.343 126.148 240.88C125.615 241.407 125.136 241.551 124.774 241.551ZM126.15 236.601C125.917 236.727 125.427 237.223 125.073 238.159C124.718 239.096 124.753 239.79 124.844 240.043C125.077 239.917 125.567 239.422 125.921 238.486C126.275 237.551 126.24 236.848 126.15 236.599V236.601Z" fill="#4C515C"/>
<path d="M64.3685 230.134C64.2113 230.133 64.0582 230.083 63.9314 229.99C63.8045 229.897 63.7105 229.767 63.6629 229.617C61.7777 223.695 61.4073 218.062 62.56 212.88C63.4851 208.726 65.3879 204.858 68.2063 201.385C72.9934 195.493 78.7097 192.815 78.9494 192.705C79.1279 192.623 79.3319 192.614 79.5164 192.683C79.7009 192.751 79.8507 192.889 79.9331 193.067C80.0154 193.246 80.0234 193.45 79.9553 193.634C79.8873 193.819 79.7487 193.968 79.5702 194.051C79.5055 194.08 73.8835 196.725 69.3199 202.364C66.6563 205.654 64.8654 209.314 63.9982 213.237C62.9115 218.15 63.2737 223.511 65.0755 229.17C65.1049 229.263 65.1159 229.36 65.1076 229.457C65.0993 229.554 65.072 229.649 65.0273 229.735C64.9825 229.821 64.9211 229.898 64.8467 229.961C64.7722 230.023 64.6861 230.071 64.5934 230.1C64.5205 230.122 64.4447 230.134 64.3685 230.134Z" fill="#494E57"/>
<path d="M65.5239 237.592C67.9409 237.592 69.9003 235.633 69.9003 233.218C69.9003 230.802 67.9409 228.844 65.5239 228.844C63.1069 228.844 61.1475 230.802 61.1475 233.218C61.1475 235.633 63.1069 237.592 65.5239 237.592Z" fill="#4D515A"/>
<path d="M65.5243 238.33C64.5122 238.33 63.5229 238.03 62.6814 237.468C61.8399 236.906 61.184 236.107 60.7967 235.173C60.4094 234.238 60.3081 233.21 60.5056 232.218C60.703 231.226 61.1903 230.315 61.906 229.599C62.6216 228.884 63.5334 228.397 64.526 228.2C65.5186 228.002 66.5475 228.104 67.4825 228.491C68.4175 228.878 69.2167 229.533 69.7789 230.374C70.3412 231.215 70.6413 232.204 70.6413 233.216C70.6413 234.572 70.1022 235.873 69.1426 236.832C68.1829 237.791 66.8814 238.33 65.5243 238.33ZM65.5243 229.582C64.8052 229.582 64.1022 229.795 63.5043 230.194C62.9064 230.594 62.4404 231.161 62.1652 231.825C61.8901 232.489 61.818 233.22 61.9583 233.925C62.0986 234.63 62.4449 235.277 62.9534 235.785C63.4619 236.293 64.1097 236.639 64.815 236.78C65.5202 236.92 66.2513 236.848 66.9156 236.573C67.58 236.298 68.1478 235.832 68.5473 235.235C68.9468 234.637 69.1601 233.934 69.1601 233.216C69.1601 232.252 68.777 231.328 68.0952 230.646C67.4133 229.965 66.4885 229.582 65.5243 229.582Z" fill="#4C515C"/>
<path d="M187.402 269.938L158.195 276.276C156.793 276.5 155.384 276.667 153.993 276.762C153.131 276.822 152.277 276.853 151.434 276.853C148.16 276.853 145.094 276.379 142.617 275.215C140.193 273.804 138.461 271.648 137.23 269.136C132.755 260.004 134.924 246.149 134.924 246.149L145.817 214.855C145.817 214.855 152.618 236.751 156.503 250.127L184.202 247.032C193.613 245.531 181.358 248.948 183.327 257.186C185.295 265.424 196.811 268.438 187.402 269.938Z" fill="#B4B6B6"/>
<path d="M176.628 247.867C176.628 247.867 165.426 261.808 182.945 270.677L191.053 269.264C191.053 269.264 188.819 246.504 176.628 247.867Z" fill="#9E9E9E"/>
<path d="M142.612 275.204C140.045 273.993 138.109 272.051 137.226 269.125C138.456 271.638 140.191 273.794 142.612 275.204Z" fill="#C5C6C6"/>
<path d="M191.581 241.553C198.352 242.188 200.029 249.702 202.543 256.532C205.194 263.732 195.757 269.848 188.987 269.212C182.216 268.577 175.968 263.61 176.684 255.972C177.4 248.335 184.812 240.924 191.581 241.553Z" fill="#F6C0A4"/>
<path d="M178.226 252.117C178.226 252.117 179.789 240.621 180.111 238.942C180.433 237.264 181.223 232.826 182.646 233.552C187.311 235.936 187.673 244.209 187.673 244.209L178.226 252.117Z" fill="#F6C0A4"/>
<path d="M153.992 276.755C152.322 277.094 150.243 277.159 147.663 276.845C145.885 276.653 144.165 276.095 142.613 275.207C145.091 276.371 148.157 276.845 151.431 276.845C152.276 276.845 153.13 276.81 153.992 276.755Z" fill="#C5C6C6"/>
<path d="M93.4821 270.677C94.5314 270.677 95.3821 269.827 95.3821 268.778C95.3821 267.729 94.5314 266.879 93.4821 266.879C92.4327 266.879 91.582 267.729 91.582 268.778C91.582 269.827 92.4327 270.677 93.4821 270.677Z" fill="#C5C6C6"/>
<path d="M70.8866 237.859C75.2387 236.703 77.9309 232.622 76.8998 228.743C75.8687 224.865 71.5048 222.658 67.1527 223.814C62.8005 224.969 60.1083 229.05 61.1394 232.929C62.1705 236.807 66.5345 239.014 70.8866 237.859Z" fill="#7F73B3"/>
<path opacity="0.32" d="M76.8995 228.737C77.931 232.614 75.2378 236.696 70.887 237.852C70.6069 237.926 70.3268 237.986 70.0467 238.034C72.5231 236.21 71.124 233.385 70.3618 230.516C69.3976 226.882 68.1857 224.566 64.123 225.251C65.0329 224.584 66.0603 224.094 67.1515 223.807C71.5037 222.651 75.868 224.863 76.8995 228.737Z" fill="#4F68AF"/>
<path d="M114.543 285.777L56.1708 301.284C55.5864 301.438 54.9952 301.195 54.7528 300.732C54.7021 300.632 54.6701 300.523 54.6586 300.412L51.0497 272.29C50.7723 270.124 50.402 267.973 49.9805 265.83C47.1608 251.476 52.8259 235.127 68.6402 230.925L68.7749 230.891C84.3563 226.753 95.599 236.11 100.239 249.489C101.197 252.251 103.8 258.349 104.997 261.02L115.394 284.22C115.458 284.358 115.491 284.509 115.489 284.662C115.488 284.814 115.453 284.964 115.386 285.101C115.301 285.267 115.183 285.414 115.037 285.53C114.892 285.647 114.723 285.731 114.543 285.777Z" fill="#B39DCB"/>
<path d="M89.6715 308.514C94.0236 307.358 96.5141 302.518 95.2342 297.704C93.9542 292.889 89.3885 289.924 85.0364 291.079C80.6843 292.235 78.1938 297.075 79.4738 301.889C80.7537 306.704 85.3194 309.67 89.6715 308.514Z" fill="#735FA6"/>
<path opacity="0.29" d="M115.394 285.105C115.309 285.271 115.189 285.417 115.043 285.533C114.897 285.649 114.728 285.732 114.547 285.778L108.602 287.358C108.782 287.312 108.952 287.229 109.098 287.113C109.244 286.997 109.363 286.851 109.449 286.685C109.515 286.548 109.55 286.398 109.552 286.245C109.553 286.093 109.521 285.942 109.457 285.804L99.0556 262.599C97.8571 259.926 95.2542 253.828 94.2968 251.068C89.9715 238.584 82.6474 228.703 68.6442 230.931C69.5289 230.589 67.6854 231.186 68.6442 230.931L68.7788 230.896C84.3549 226.755 95.5989 236.114 100.239 249.492C101.197 252.253 103.8 258.351 104.997 261.023L115.394 284.224C115.459 284.361 115.493 284.512 115.493 284.664C115.493 284.817 115.459 284.967 115.394 285.105Z" fill="#6774AB"/>
<path opacity="0.44" d="M84.9358 302.696C86.3955 304.912 90.3222 305.222 88.1986 306.437C86.075 307.652 83.1637 306.841 81.7026 304.625C80.2416 302.41 80.7829 299.626 82.9145 298.41C85.0462 297.195 83.4788 300.479 84.9358 302.696Z" fill="#D6CEE7"/>
<path opacity="0.47" d="M95.288 297.775C96.5673 302.589 94.0761 307.429 89.7252 308.585C88.8505 308.818 87.9404 308.888 87.0401 308.793C89.8222 306.796 91.1809 302.957 90.1656 299.136C89.1503 295.315 86.0612 292.657 82.6543 292.303C83.3886 291.773 84.2138 291.383 85.0889 291.151C89.4411 289.999 94.0074 292.96 95.288 297.775Z" fill="#49509C"/>
<path d="M117.283 279.387L50.5546 297.107C47.625 297.885 45.881 300.889 46.6595 303.817C47.4379 306.745 50.4439 308.488 53.3736 307.71L120.102 289.99C123.032 289.212 124.776 286.208 123.997 283.28C123.219 280.352 120.213 278.609 117.283 279.387Z" fill="#7F73B3"/>
<path opacity="0.34" d="M123.817 283.255C124.205 284.713 123.887 286.216 123.064 287.464C122.172 288.788 120.824 289.739 119.277 290.136L106.745 293.466C108.291 293.067 109.638 292.117 110.531 290.793C111.354 289.547 111.67 288.042 111.283 286.585C110.507 283.67 107.196 281.995 103.925 282.864L116.459 279.534C119.73 278.666 123.041 280.34 123.817 283.255Z" fill="#5864AC"/>
<path d="M51.919 302.354C52.4845 304.481 55.9964 305.457 53.6089 306.092C51.2214 306.727 48.8258 305.515 48.2603 303.387C47.6947 301.259 49.1719 299.02 51.5594 298.386C53.9469 297.752 51.352 300.23 51.919 302.354Z" fill="#D6CEE7"/>
<path d="M64.5298 228.81C63.901 230.653 65.3755 232.662 63.8013 232.296C62.2271 231.93 61.4623 230.143 62.0911 228.297C62.72 226.452 64.515 225.259 66.0824 225.625C67.6499 225.991 65.1654 226.969 64.5298 228.81Z" fill="#D6CEE7"/>
<path d="M52.1787 257.413C52.1787 257.413 52.2595 239.917 64.5795 234.328C64.5795 234.328 56.2912 244.1 52.1787 257.413Z" fill="#FAFDFD"/>
<path d="M40.9736 214.844C40.9736 214.844 11.7983 274.955 18.2445 282.885C24.6906 290.815 99.3173 282.87 99.3173 282.87L91.4748 260.509C91.4748 260.509 45.3891 267.211 45.0511 261.759L40.9736 214.844Z" fill="#B4B6B6"/>
<path d="M91.4755 260.512C91.4755 260.512 87.3321 273.613 99.3181 282.873L91.4755 260.512Z" fill="#9E9E9E"/>
<path d="M108.93 277.888L94.2523 277.526L93.3784 276.217C91.6909 273.689 90.7959 270.715 90.8077 267.676V266.88L93.1144 263.388C93.2262 263.243 100.742 253.463 101.688 254.526C102.335 255.253 101.015 259.062 100.091 261.444L103.429 260.514C103.429 260.514 109.381 259.93 111.281 266.881C112.208 270.267 112.333 272.982 112.224 274.876C112.172 275.707 111.8 276.485 111.186 277.047C110.571 277.609 109.763 277.911 108.93 277.888Z" fill="#F6C0A4"/>
<path d="M38.7654 70.1314C39.2064 68.2101 37.8163 66.2519 35.6605 65.7577C33.5047 65.2634 31.3996 66.4202 30.9586 68.3415C30.5176 70.2628 31.9078 72.221 34.0635 72.7152C36.2193 73.2095 38.3244 72.0526 38.7654 70.1314Z" fill="#9391C7"/>
<path opacity="0.32" d="M38.7537 70.132C38.3121 72.0538 36.2073 73.2099 34.0514 72.716C33.9168 72.6837 33.7821 72.646 33.6475 72.6029C35.1408 72.3782 35.1812 70.8305 35.5071 69.4093C35.9205 67.6113 35.9259 66.326 34.0043 65.6921C34.5526 65.6112 35.1111 65.6336 35.6512 65.758C37.8044 66.2533 39.1941 68.2101 38.7537 70.132Z" fill="#6798B0"/>
<path d="M42.0309 103.534L13.1142 96.9041C12.9808 96.8786 12.86 96.8089 12.7711 96.7064C12.6822 96.6039 12.6304 96.4744 12.624 96.3389C12.6246 96.2839 12.6356 96.2296 12.6563 96.1787L17.535 83.1336C17.9107 82.1283 18.2433 81.1148 18.5517 80.0826C20.6174 73.2 26.8265 67.3928 34.661 69.1894L34.7243 69.2043C42.447 70.974 45.1886 77.617 44.1356 84.4888C43.9188 85.9073 43.6522 89.1535 43.5593 90.5882L42.7594 103.053C42.7554 103.128 42.7348 103.201 42.6992 103.267C42.6636 103.333 42.6138 103.39 42.5534 103.434C42.4784 103.487 42.393 103.523 42.3029 103.54C42.2128 103.557 42.1201 103.555 42.0309 103.534Z" fill="#BCB1D8"/>
<path d="M30.9229 104.292C31.4703 101.907 30.1665 99.5729 28.0107 99.0786C25.8549 98.5844 23.6636 100.117 23.1162 102.502C22.5688 104.887 23.8726 107.221 26.0284 107.715C28.1841 108.209 30.3755 106.677 30.9229 104.292Z" fill="#7E78B7"/>
<path opacity="0.29" d="M42.5533 103.437C42.4784 103.489 42.393 103.525 42.3029 103.543C42.2128 103.56 42.12 103.558 42.0309 103.536L39.0859 102.863C39.175 102.885 39.2678 102.887 39.3579 102.87C39.4481 102.853 39.5335 102.817 39.6084 102.764C39.6687 102.719 39.7184 102.662 39.7541 102.596C39.7897 102.53 39.8103 102.457 39.8144 102.383L40.6143 89.919C40.7072 88.483 40.9738 85.2368 41.1906 83.8183C42.1723 77.4041 41.2566 71.4367 34.661 69.1945C35.1242 69.2497 34.1856 69.0855 34.661 69.1945L34.7243 69.2093C42.447 70.9791 45.1886 77.6221 44.1369 84.494C43.9188 85.9125 43.6522 89.1586 43.5593 90.5933L42.7594 103.058C42.755 103.133 42.7342 103.205 42.6986 103.27C42.663 103.336 42.6134 103.393 42.5533 103.437Z" fill="#7794A9"/>
<path opacity="0.44" d="M25.2894 104.107C25.416 105.404 27.0521 106.439 25.8482 106.481C24.6444 106.522 23.5685 105.504 23.4419 104.205C23.3153 102.906 24.1892 101.823 25.3917 101.782C26.5943 101.742 25.1628 102.809 25.2894 104.107Z" fill="#DDDEF1"/>
<path opacity="0.47" d="M30.9134 104.338C30.3667 106.723 28.1745 108.255 26.0186 107.76C25.5859 107.661 25.1751 107.484 24.8066 107.237C26.4737 107.005 27.9442 105.649 28.3791 103.755C28.8141 101.861 28.0815 100 26.6811 99.0661C27.1217 99.0049 27.5699 99.0245 28.0034 99.124C30.154 99.6179 31.4615 101.952 30.9134 104.338Z" fill="#546D9C"/>
<path d="M44.7057 101.384L11.6491 93.8056C10.1979 93.4728 8.75161 94.3789 8.41871 95.8293C8.08581 97.2796 8.99237 98.7251 10.4436 99.0578L43.5002 106.637C44.9514 106.969 46.3977 106.063 46.7306 104.613C47.0635 103.163 46.1569 101.717 44.7057 101.384Z" fill="#9391C7"/>
<path opacity="0.34" d="M46.6387 104.563C46.5536 104.914 46.3943 105.244 46.1717 105.529C45.949 105.815 45.668 106.05 45.3474 106.218C44.6561 106.589 43.8526 106.694 43.0891 106.513L36.8867 105.083C37.6502 105.265 38.4537 105.16 39.145 104.789C39.4651 104.62 39.7458 104.385 39.9684 104.1C40.191 103.814 40.3505 103.485 40.4363 103.133C40.7676 101.689 39.7132 100.203 38.0919 99.832L44.293 101.26C45.9156 101.631 46.97 103.117 46.6387 104.563Z" fill="#678DC2"/>
<path d="M11.0222 96.3953C10.7798 97.4491 12.0819 98.6832 10.8996 98.4059C9.71731 98.1287 8.9538 97.0601 9.19484 96.0063C9.43588 94.9526 10.5926 94.316 11.7749 94.5851C12.9572 94.8543 11.2632 95.3401 11.0222 96.3953Z" fill="#DDDEF1"/>
<path d="M33.3621 67.3293C32.6659 67.986 32.8464 69.1959 32.2458 68.6751C31.6452 68.1542 31.7233 67.2028 32.4195 66.5473C33.1157 65.8919 34.1701 65.7802 34.7666 66.2997C35.3632 66.8192 34.0597 66.6738 33.3621 67.3293Z" fill="#DDDEF1"/>
<path d="M21.4375 76.9281C21.4375 76.9281 25.484 69.3457 32.1187 69.7373C32.1187 69.7373 26.2758 72.0858 21.4375 76.9281Z" fill="#FEFEFE"/>
<path d="M152.2 71.4635C153.888 70.0344 154.222 67.6567 152.947 66.1529C151.671 64.6491 149.27 64.5886 147.583 66.0178C145.895 67.4469 145.561 69.8245 146.836 71.3283C148.111 72.8321 150.513 72.8927 152.2 71.4635Z" fill="#9391C7"/>
<path opacity="0.32" d="M152.939 66.1414C154.214 67.646 153.882 70.0228 152.193 71.452C152.086 71.5435 151.975 71.6293 151.859 71.7091C152.574 70.3794 151.358 69.4212 150.414 68.3082C149.221 66.9004 148.194 66.1266 146.536 67.2854C146.799 66.7976 147.152 66.3638 147.576 66.0068C149.263 64.5762 151.664 64.6381 152.939 66.1414Z" fill="#6798B0"/>
<path d="M181.669 83.5244L159.037 102.696C158.936 102.787 158.808 102.842 158.673 102.852C158.538 102.862 158.403 102.827 158.291 102.751C158.248 102.716 158.211 102.675 158.181 102.628L150.653 90.9103C150.072 90.0073 149.454 89.1311 148.816 88.2698C144.538 82.4935 143.606 74.0457 149.737 68.8522L149.787 68.8104C155.83 63.6963 162.795 65.4741 167.671 70.4254C168.677 71.4496 171.118 73.607 172.213 74.5396L181.72 82.6469C181.777 82.6948 181.824 82.755 181.855 82.8229C181.887 82.8909 181.902 82.965 181.902 83.0399C181.9 83.1327 181.878 83.224 181.838 83.3076C181.798 83.3913 181.74 83.4652 181.669 83.5244Z" fill="#BCB1D8"/>
<path d="M175.432 98.8597C177.119 97.4306 177.204 94.7588 175.621 92.8921C174.038 91.0253 171.387 90.6706 169.7 92.0998C168.012 93.5289 167.928 96.2008 169.511 98.0675C171.093 99.9342 173.744 100.289 175.432 98.8597Z" fill="#7E78B7"/>
<path opacity="0.29" d="M181.902 83.0466C181.899 83.1383 181.877 83.2283 181.837 83.3107C181.797 83.3931 181.739 83.466 181.669 83.5244L179.363 85.4772C179.434 85.4187 179.491 85.3459 179.532 85.2635C179.572 85.1811 179.595 85.0911 179.598 84.9994C179.598 84.9245 179.582 84.8503 179.55 84.7823C179.519 84.7144 179.472 84.6543 179.415 84.6064L169.908 76.4992C168.813 75.5665 166.371 73.4038 165.366 72.385C160.814 67.7566 155.482 64.9143 149.737 68.8522C150.057 68.5143 149.365 69.1671 149.737 68.8522L149.787 68.8104C155.83 63.6963 162.795 65.4741 167.671 70.4254C168.677 71.4483 171.118 73.607 172.213 74.5396L181.72 82.6469C181.779 82.6954 181.825 82.7565 181.857 82.8258C181.888 82.8951 181.904 82.9706 181.902 83.0466Z" fill="#7794A9"/>
<path opacity="0.44" d="M172.098 97.2646C173.213 97.9375 175.022 97.2498 174.335 98.2376C173.648 99.2255 172.18 99.4771 171.07 98.8015C169.959 98.1259 169.609 96.7828 170.295 95.7895C170.982 94.7963 170.982 96.5876 172.098 97.2646Z" fill="#DDDEF1"/>
<path opacity="0.47" d="M175.653 92.9026C177.237 94.7693 177.152 97.4421 175.465 98.8713C175.125 99.1587 174.737 99.3818 174.317 99.5294C175.125 98.0571 174.925 96.0666 173.667 94.5849C172.409 93.1031 170.481 92.5742 168.895 93.1354C169.109 92.7457 169.393 92.3985 169.732 92.1112C171.419 90.6833 174.071 91.0359 175.653 92.9026Z" fill="#546D9C"/>
<path d="M181.545 80.1208L155.671 102.035C154.535 102.997 154.395 104.698 155.357 105.833C156.32 106.968 158.021 107.108 159.157 106.146L185.031 84.2318C186.166 83.2697 186.307 81.5695 185.344 80.4343C184.382 79.2991 182.681 79.1587 181.545 80.1208Z" fill="#9391C7"/>
<path opacity="0.34" d="M185.25 80.4558C185.481 80.7338 185.649 81.0576 185.744 81.4057C185.84 81.7537 185.86 82.1181 185.804 82.4746C185.688 83.2502 185.29 83.9562 184.688 84.4583L179.828 88.5752C180.43 88.0728 180.828 87.3671 180.945 86.5914C181.001 86.235 180.98 85.8708 180.885 85.5229C180.789 85.175 180.621 84.8511 180.392 84.5727C179.433 83.4422 177.611 83.3964 176.343 84.4718L181.201 80.3549C182.47 79.2755 184.293 79.3213 185.25 80.4558Z" fill="#678DC2"/>
<path d="M157.375 104.067C158.075 104.892 159.839 104.586 158.913 105.37C157.987 106.155 156.67 106.121 155.969 105.296C155.269 104.471 155.454 103.167 156.373 102.382C157.293 101.598 156.676 103.242 157.375 104.067Z" fill="#DDDEF1"/>
<path d="M147.468 68.7789C147.576 69.7291 148.654 70.3091 147.872 70.4787C147.09 70.6483 146.38 70.0144 146.271 69.0642C146.162 68.1141 146.702 67.207 147.483 67.0455C148.264 66.884 147.359 67.8288 147.468 68.7789Z" fill="#DDDEF1"/>
<path d="M148.016 84.0702C148.016 84.0702 144.364 76.2913 148.652 71.2148C148.655 71.2148 147.039 77.2967 148.016 84.0702Z" fill="#FEFEFE"/>
<path d="M97.6981 13.0267C99.3322 12.8904 100.558 11.5994 100.437 10.1432C100.315 8.68696 98.892 7.61694 97.2578 7.75323C95.6236 7.88952 94.3974 9.18051 94.519 10.6367C94.6406 12.093 96.0639 13.163 97.6981 13.0267Z" fill="#9391C7"/>
<path opacity="0.32" d="M100.43 10.1413C100.552 11.5974 99.3262 12.8881 97.6928 13.024C97.589 13.0334 97.4847 13.0374 97.3804 13.0361C98.385 12.5409 98.0645 11.4386 97.9743 10.362C97.8598 8.99863 97.5703 8.0902 96.0742 8.07405C96.4432 7.8933 96.8429 7.78329 97.2525 7.74971C98.8859 7.61512 100.312 8.68506 100.43 10.1413Z" fill="#6798B0"/>
<path d="M110.276 32.9916L88.363 34.8206C88.263 34.8322 88.1621 34.8099 88.0762 34.7575C87.9903 34.7051 87.9244 34.6254 87.889 34.5313C87.8778 34.4924 87.8733 34.4519 87.8756 34.4115L88.3819 24.1011C88.4209 23.307 88.425 22.5116 88.4115 21.7176C88.3186 16.3922 91.3956 10.8944 97.3327 10.3992H97.3798C103.232 9.91063 106.665 13.9845 107.471 19.0731C107.637 20.1241 108.181 22.4767 108.439 23.5143L110.68 32.4883C110.694 32.5419 110.696 32.5979 110.686 32.6524C110.675 32.7068 110.653 32.7583 110.621 32.8032C110.58 32.8574 110.528 32.9022 110.469 32.9347C110.409 32.9672 110.344 32.9866 110.276 32.9916Z" fill="#BCB1D8"/>
<path d="M99.9126 39.5481C101.547 39.4118 102.749 37.8362 102.598 36.0289C102.447 34.2216 101 32.8669 99.3662 33.0032C97.732 33.1395 96.5296 34.7151 96.6805 36.5224C96.8313 38.3298 98.2784 39.6844 99.9126 39.5481Z" fill="#7E78B7"/>
<path opacity="0.29" d="M110.621 32.8047C110.58 32.8588 110.527 32.9034 110.467 32.9356C110.407 32.9679 110.341 32.987 110.273 32.9918L108.042 33.1775C108.11 33.1726 108.176 33.1534 108.235 33.1212C108.295 33.0889 108.347 33.0444 108.388 32.9904C108.421 32.9454 108.443 32.8937 108.453 32.839C108.464 32.7843 108.462 32.728 108.447 32.6742L106.204 23.6934C105.945 22.6585 105.396 20.306 105.236 19.2522C104.484 14.5014 102.491 10.4908 97.3286 10.3953C97.668 10.3293 96.9691 10.4249 97.3286 10.3953H97.3771C103.229 9.90673 106.662 13.9806 107.468 19.0691C107.634 20.1202 108.178 22.4728 108.435 23.5104L110.68 32.4884C110.694 32.5423 110.696 32.5985 110.686 32.6531C110.675 32.7078 110.653 32.7595 110.621 32.8047Z" fill="#7794A9"/>
<path opacity="0.44" d="M98.5801 37.1621C98.9625 38.049 100.351 38.4111 99.5106 38.7112C98.6703 39.0113 97.6792 38.5349 97.2981 37.6466C96.917 36.7584 97.2887 35.7961 98.129 35.4933C98.9692 35.1905 98.199 36.2739 98.5801 37.1621Z" fill="#DDDEF1"/>
<path opacity="0.47" d="M102.601 36.0622C102.752 37.8696 101.55 39.4456 99.9162 39.5815C99.5876 39.6092 99.2567 39.5764 98.9399 39.4846C100.066 38.9463 100.798 37.657 100.678 36.2223C100.559 34.7877 99.6213 33.6383 98.4229 33.2938C98.7189 33.1517 99.0383 33.0646 99.3655 33.0367C101.007 32.9008 102.455 34.2547 102.601 36.0622Z" fill="#546D9C"/>
<path d="M111.673 30.8736L86.6223 32.9628C85.5225 33.0545 84.7053 34.02 84.797 35.1192C84.8888 36.2184 85.8548 37.0351 86.9546 36.9434L112.006 34.8542C113.106 34.7625 113.923 33.797 113.831 32.6978C113.739 31.5986 112.773 30.7819 111.673 30.8736Z" fill="#9391C7"/>
<path opacity="0.34" d="M113.759 32.6795C113.778 32.9472 113.74 33.216 113.648 33.4678C113.555 33.7196 113.409 33.9487 113.22 34.1397C112.816 34.5573 112.273 34.812 111.693 34.8557L106.987 35.2487C107.567 35.2051 108.111 34.9498 108.515 34.5314C108.704 34.3404 108.85 34.1113 108.943 33.8594C109.035 33.6076 109.073 33.3388 109.054 33.0712C108.962 31.977 107.882 31.1655 106.654 31.2677L111.361 30.8761C112.589 30.7725 113.669 31.5853 113.759 32.6795Z" fill="#678DC2"/>
<path d="M86.7672 34.9313C86.8345 35.7307 88.0303 36.3041 87.1348 36.3794C86.2393 36.4548 85.457 35.8667 85.3842 35.0686C85.3115 34.2705 85.9902 33.5613 86.887 33.4859C87.7839 33.4105 86.7012 34.1319 86.7672 34.9313Z" fill="#DDDEF1"/>
<path d="M95.9914 9.3755C95.6481 9.99593 96.048 10.8102 95.508 10.5787C94.968 10.3472 94.8064 9.65544 95.1512 9.03636C95.4959 8.41728 96.2109 8.09427 96.7523 8.33249C97.2936 8.5707 96.3348 8.75508 95.9914 9.3755Z" fill="#DDDEF1"/>
<path d="M89.7354 18.8383C89.7354 18.8383 90.884 12.5734 95.6604 11.3555C95.6563 11.3555 92.0609 14.3284 89.7354 18.8383Z" fill="#FEFEFE"/>
<path opacity="0.35" d="M0.623239 78.1843C0.30679 78.0927 0.0630571 77.8451 0.046898 77.5692C-0.157784 74.2046 0.308138 71.1092 1.43254 68.3435C5.81435 57.5769 18.6595 55.651 22.4919 55.3159C22.8891 55.2809 23.2891 55.5205 23.3847 55.8542C23.4803 56.188 23.2365 56.48 22.838 56.515C19.2022 56.834 6.99396 58.6684 2.84511 68.8536C1.76784 71.4847 1.3302 74.4509 1.52545 77.6715C1.54565 78.0026 1.23055 78.2489 0.822534 78.2219C0.755052 78.2158 0.688316 78.2031 0.623239 78.1843Z" fill="#524294"/>
<path opacity="0.35" d="M8.39291 79.362C8.07646 79.2705 7.83407 79.0242 7.81656 78.7483C7.65767 76.1293 8.02125 73.7095 8.89384 71.5588C12.3115 63.1622 22.3301 61.6562 25.3223 61.3938C25.7195 61.3601 26.1194 61.5997 26.215 61.9321C26.3106 62.2645 26.0656 62.5593 25.6683 62.5943C22.8701 62.8392 13.4938 64.2456 10.3078 72.0689C9.48499 74.0877 9.1443 76.3756 9.29378 78.8492C9.31397 79.1803 9.00022 79.4266 8.59085 79.3997C8.52366 79.3946 8.45726 79.3819 8.39291 79.362Z" fill="#524294"/>
<path opacity="0.35" d="M61.1757 94.24C61.1107 94.2218 61.0479 94.1965 60.9885 94.1646C60.6276 93.9695 60.493 93.594 60.6855 93.3249C62.5707 90.7018 63.7692 87.9536 64.2621 85.157C66.1729 74.3258 56.8154 66.2844 53.9014 64.0786C53.5836 63.8377 53.5351 63.4568 53.791 63.2281C54.0468 62.9993 54.5141 63.0087 54.8319 63.2496C57.8994 65.5712 67.747 74.0378 65.7298 85.4773C65.2114 88.4126 63.9537 91.2886 61.9904 94.0274C61.8301 94.2521 61.4921 94.3315 61.1757 94.24Z" fill="#524294"/>
<path opacity="0.35" d="M54.1018 91.6253C54.0363 91.6073 53.9731 91.582 53.9133 91.5499C53.5537 91.3548 53.4177 90.9793 53.6116 90.7101C55.0579 88.6914 55.983 86.5784 56.3627 84.4291C57.8291 76.1119 50.6397 69.9332 48.4017 68.2388C48.0825 67.9979 48.034 67.617 48.2899 67.3882C48.5457 67.1594 49.013 67.1688 49.3322 67.4097C51.7237 69.2212 59.4033 75.8239 57.8292 84.7494C57.4252 87.0374 56.4449 89.2795 54.9165 91.4126C54.7549 91.632 54.4182 91.7114 54.1018 91.6253Z" fill="#524294"/>
<path opacity="0.35" d="M134.138 102.392C134.016 102.492 133.866 102.551 133.708 102.561C133.55 102.57 133.394 102.529 133.261 102.444C130.14 100.257 127.631 97.6879 125.804 94.8065C118.684 83.5756 124.274 71.4254 126.158 67.9693C126.248 67.7973 126.399 67.6643 126.58 67.5952C126.762 67.526 126.963 67.5255 127.145 67.5938C127.228 67.6318 127.302 67.6871 127.362 67.7558C127.422 67.8246 127.466 67.9053 127.493 67.9926C127.519 68.0799 127.526 68.1718 127.514 68.2622C127.503 68.3526 127.472 68.4395 127.424 68.5171C125.635 71.8009 120.322 83.3427 127.063 93.9761C128.804 96.7216 131.202 99.1764 134.192 101.271C134.499 101.486 134.539 101.923 134.283 102.248C134.241 102.301 134.192 102.35 134.138 102.392Z" fill="#524294"/>
<path opacity="0.35" d="M139.619 96.6849C139.497 96.7852 139.346 96.8443 139.188 96.854C139.031 96.8637 138.874 96.8233 138.741 96.7388C136.31 95.035 134.355 93.0324 132.931 90.7862C127.375 82.0235 131.734 72.5475 133.201 69.8518C133.292 69.68 133.442 69.5472 133.623 69.4781C133.805 69.409 134.006 69.4083 134.188 69.4763C134.271 69.514 134.345 69.5691 134.405 69.6378C134.466 69.7064 134.51 69.7872 134.537 69.8745C134.563 69.9619 134.571 70.0539 134.559 70.1445C134.547 70.235 134.516 70.322 134.468 70.3995C133.093 72.923 129.01 81.7906 134.187 89.9558C135.525 92.0661 137.37 93.9529 139.668 95.5652C139.977 95.7806 140.017 96.2179 139.76 96.5423C139.719 96.5953 139.671 96.6431 139.619 96.6849Z" fill="#524294"/>
<path opacity="0.35" d="M182.977 62.7592C182.923 62.8011 182.865 62.8363 182.802 62.8642C182.423 63.0297 182.011 62.8803 181.879 62.529C180.606 59.1093 178.835 56.17 176.617 53.7932C168.025 44.5878 155.51 46.8124 151.878 47.7128C151.791 47.7397 151.699 47.7478 151.608 47.7365C151.518 47.7252 151.43 47.6947 151.353 47.647C151.275 47.5994 151.208 47.5358 151.157 47.4603C151.105 47.3848 151.071 47.2993 151.055 47.2094C151.035 47.0161 151.086 46.8221 151.199 46.6637C151.312 46.5054 151.478 46.3936 151.668 46.3494C155.489 45.4074 168.664 43.0629 177.739 52.7852C180.067 55.279 181.922 58.3543 183.251 61.9248C183.299 62.0749 183.299 62.2365 183.25 62.3863C183.201 62.5362 183.105 62.6668 182.977 62.7592Z" fill="#524294"/>
<path opacity="0.35" d="M176.605 66.8676C176.552 66.9097 176.493 66.9445 176.43 66.9712C176.052 67.1381 175.639 66.9887 175.508 66.6361C174.529 64.0064 173.168 61.7454 171.468 59.9191C164.87 52.8508 155.254 54.5587 152.464 55.2518C152.376 55.2787 152.284 55.2868 152.194 55.2754C152.103 55.264 152.016 55.2333 151.938 55.1856C151.86 55.1378 151.793 55.074 151.742 54.9984C151.691 54.9228 151.656 54.8371 151.641 54.7471C151.621 54.5539 151.672 54.3601 151.785 54.202C151.898 54.0438 152.064 53.9323 152.254 53.8884C155.234 53.1482 165.508 51.3314 172.587 58.9111C174.401 60.8558 175.846 63.2514 176.882 66.0332C176.93 66.1836 176.929 66.3454 176.88 66.4954C176.83 66.6454 176.734 66.7757 176.605 66.8676Z" fill="#524294"/>
<path opacity="0.35" d="M75.8282 26.0684C75.716 26.083 75.6021 26.0624 75.502 26.0097C75.402 25.9569 75.3207 25.8745 75.2694 25.7737C74.2325 23.3512 73.7262 20.9206 73.7626 18.5695C73.9053 9.39763 82.2178 4.41805 84.7615 3.11124C84.8852 3.04478 85.0282 3.02333 85.166 3.05058C85.3038 3.07783 85.4279 3.15209 85.517 3.26064C85.6718 3.47866 85.5816 3.76532 85.3177 3.90125C82.9005 5.14345 75.0041 9.87404 74.8681 18.5547C74.8331 20.7955 75.3192 23.1116 76.3117 25.4386C76.414 25.6768 76.2632 25.946 75.975 26.0388C75.9275 26.0546 75.8782 26.0645 75.8282 26.0684Z" fill="#524294"/>
<path opacity="0.35" d="M81.4827 24.7901C81.3703 24.805 81.256 24.7846 81.1557 24.7318C81.0554 24.679 80.9739 24.5964 80.9225 24.4954C80.1145 22.6032 79.72 20.7136 79.7496 18.8806C79.8614 11.7275 86.3479 7.84479 88.3261 6.82195C88.45 6.75565 88.5932 6.7343 88.7311 6.76153C88.8691 6.78876 88.9934 6.8629 89.0828 6.97134C89.2364 7.18936 89.1475 7.47603 88.8835 7.61196C87.0266 8.56615 80.9588 12.2012 80.8552 18.8658C80.8282 20.5885 81.2012 22.365 81.9647 24.1603C82.0671 24.3985 81.9163 24.6677 81.6281 24.7605C81.581 24.7763 81.5322 24.7863 81.4827 24.7901Z" fill="#524294"/>
<path opacity="0.35" d="M121.713 21.1895C121.663 21.1956 121.613 21.1956 121.563 21.1895C121.264 21.1465 121.07 20.9056 121.131 20.6512C121.725 18.1924 121.819 15.8277 121.412 13.6233C119.839 5.08532 111.267 1.73017 108.676 0.903832C108.393 0.813661 108.259 0.545841 108.375 0.306283C108.445 0.184646 108.555 0.0912107 108.686 0.042078C108.818 -0.00705469 108.962 -0.00880826 109.095 0.0371166C111.82 0.905178 120.844 4.44067 122.506 13.4577C122.933 15.7699 122.834 18.2449 122.215 20.8127C122.18 20.9194 122.113 21.0128 122.023 21.0802C121.933 21.1476 121.825 21.1857 121.713 21.1895Z" fill="#524294"/>
<path opacity="0.35" d="M116.155 21.2086C116.105 21.214 116.055 21.214 116.005 21.2086C115.705 21.1642 115.512 20.9233 115.573 20.6703C116.029 18.7861 116.102 16.9612 115.79 15.2668C114.578 8.70989 107.996 6.13262 106.005 5.49739C105.723 5.40722 105.587 5.1394 105.702 4.89984C105.773 4.77829 105.883 4.68497 106.015 4.63587C106.147 4.58677 106.291 4.58493 106.424 4.63068C108.549 5.30359 115.581 8.06524 116.883 15.1012C117.216 16.9033 117.139 18.8319 116.657 20.8318C116.622 20.9385 116.555 21.0318 116.465 21.0992C116.375 21.1666 116.267 21.2048 116.155 21.2086Z" fill="#524294"/>
</g>
<defs>
<clipPath id="clip0_11109_90261">
<rect width="203" height="339" fill="white"/>
</clipPath>
</defs>
</svg>
