<svg width="175" height="175" viewBox="0 0 175 175" fill="none" xmlns="http://www.w3.org/2000/svg">
<g clip-path="url(#clip0)">
<path d="M66.4929 122.684C64.3109 121.424 61.7178 121.082 59.2841 121.735C56.8504 122.387 54.7754 123.979 53.5156 126.161C52.2558 128.343 51.9145 130.936 52.5666 133.37C53.2187 135.803 54.8109 137.878 56.9929 139.138C59.1749 140.398 61.7679 140.739 64.2016 140.087C66.6354 139.435 68.7103 137.843 69.9701 135.661C71.2299 133.479 71.5713 130.886 70.9192 128.452C70.2671 126.018 68.6749 123.943 66.4929 122.684Z" fill="white"/>
<path d="M55.4923 141.735C49.5167 138.285 47.467 130.635 50.917 124.66C51.767 123.187 53.5428 122.712 55.0151 123.562C56.4873 124.412 56.9631 126.187 56.1131 127.66C54.3131 130.777 55.3746 134.739 58.4923 136.539C61.61 138.339 65.5715 137.277 67.3715 134.16C68.2215 132.687 69.9973 132.212 71.4696 133.062C72.9418 133.912 73.4176 135.687 72.5676 137.16C69.1176 143.135 61.4679 145.185 55.4923 141.735ZM118.72 51.2222C117.247 50.3722 116.771 48.5964 117.621 47.1241C119.421 44.0065 118.36 40.045 115.242 38.245C112.125 36.445 108.163 37.5065 106.363 40.6241C105.513 42.0964 103.737 42.5722 102.265 41.7222C100.793 40.8722 100.317 39.0964 101.167 37.6241C104.617 31.6486 112.267 29.5988 118.242 33.0488C124.218 36.4988 126.268 44.1486 122.818 50.1241C121.968 51.5964 120.192 52.0722 118.72 51.2222Z" fill="#444B54"/>
<path d="M39.5004 84.2346L76.3362 54.2331C85.3735 46.98 97.9302 46.0312 107.976 51.8312C118.022 57.6312 123.429 69.0666 121.579 80.4697L114.015 127.371L39.4504 84.3212L39.5004 84.2346Z" fill="#FCCA3D"/>
<path d="M107.219 127.143C106.179 126.543 105.577 125.387 105.744 124.098L112.704 79.0418C112.935 77.4428 114.528 76.2839 116.127 76.5143C117.726 76.7447 118.885 78.3375 118.654 79.9366L111.694 124.993C111.463 126.592 109.87 127.751 108.271 127.52C107.825 127.493 107.565 127.343 107.219 127.143Z" fill="#FF6B57"/>
<path d="M106.416 145.733L28.4737 100.733C23.7106 97.9826 22.0635 91.8355 24.8135 87.0724C27.5635 82.3092 33.7106 80.6621 38.4737 83.4121L116.416 128.412C121.179 131.162 122.826 137.309 120.076 142.072C117.326 146.836 111.179 148.483 106.416 145.733Z" fill="#FCCA3D"/>
<path d="M117.916 125.813L117.483 125.563L124.554 80.9171C126.52 68.3114 120.474 55.5832 109.389 49.1832C98.3038 42.7832 84.2579 43.9114 74.3241 51.9171L47.7952 73.6665C46.5256 74.6656 46.3184 76.6244 47.3175 77.894C48.3165 79.1636 50.2754 79.3708 51.545 78.3718L78.2471 56.7224C86.2514 50.2585 97.642 49.3294 106.475 54.4294C115.309 59.5294 120.286 69.9085 118.604 80.0224L111.854 122.313L39.974 80.8134C33.7386 77.2134 25.8156 79.3363 22.2156 85.5717C18.6156 91.8071 20.7386 99.73 26.974 103.33L104.916 148.33C111.152 151.93 119.075 149.807 122.675 143.572C126.275 137.336 124.152 129.413 117.916 125.813ZM107.916 143.134L29.974 98.1339C26.5965 96.1839 25.4618 91.9492 27.4118 88.5717C29.3618 85.1942 33.5965 84.0595 36.974 86.0095L114.916 131.01C118.294 132.96 119.428 137.194 117.478 140.572C115.528 143.949 111.207 145.034 107.916 143.134Z" fill="#444B54"/>
<path d="M78.5853 61.5369C78.2389 61.3369 78.0291 61.1003 77.7327 60.8137C76.7336 59.544 76.8908 57.6718 78.2104 56.5862C86.2147 50.1223 97.6054 49.1932 106.439 54.2932C107.911 55.1432 108.387 56.919 107.537 58.3912C106.687 59.8635 104.911 60.3393 103.439 59.4893C96.6838 55.5893 87.9984 56.2328 82.0102 61.2048C81.0138 62.1306 79.6245 62.1369 78.5853 61.5369Z" fill="white"/>
<path d="M107.916 143.135C106.444 142.285 105.968 140.509 106.818 139.037C107.668 137.565 109.444 137.089 110.916 137.939C111.436 138.239 111.982 138.092 112.282 137.573C113.132 136.1 114.908 135.625 116.381 136.475C117.853 137.325 118.329 139.1 117.479 140.573C115.529 143.95 111.207 145.035 107.916 143.135Z" fill="#FF6B57"/>
<path d="M69.9086 65.7656C69.2196 65.3678 68.4007 65.26 67.6322 65.4659C66.8636 65.6719 66.2084 66.1746 65.8106 66.8637C65.4127 67.5528 65.3049 68.3716 65.5109 69.1402C65.7168 69.9087 66.2196 70.564 66.9086 70.9618C67.5977 71.3596 68.4166 71.4674 69.1851 71.2615C69.9536 71.0555 70.6089 70.5528 71.0067 69.8637C71.4045 69.1746 71.5123 68.3558 71.3064 67.5872C71.1005 66.8187 70.5977 66.1634 69.9086 65.7656ZM34.2221 85.5765C33.533 85.1787 32.7142 85.0709 31.9456 85.2768C31.1771 85.4827 30.5218 85.9855 30.124 86.6746C29.7262 87.3636 29.6184 88.1825 29.8243 88.951C30.0302 89.7196 30.533 90.3748 31.2221 90.7727C31.9112 91.1705 32.73 91.2783 33.4986 91.0724C34.2671 90.8664 34.9224 90.3636 35.3202 89.6746C35.718 88.9855 35.8258 88.1667 35.6199 87.3981C35.4139 86.6296 34.9112 85.9743 34.2221 85.5765Z" fill="white"/>
</g>
<defs>
<clipPath id="clip0">
<rect width="128" height="128" fill="white" transform="translate(64) rotate(30)"/>
</clipPath>
</defs>
</svg>
