<svg width="376" height="312" viewBox="0 0 376 312" fill="none" xmlns="http://www.w3.org/2000/svg">
<path d="M173.454 154.693C173.48 159.249 173.523 179.301 172.466 198.953C171.793 179.355 173.064 159.255 173.379 154.693L173.429 153.988C173.442 153.821 173.448 153.735 173.448 153.735C173.448 153.735 173.448 153.839 173.448 154.054L173.657 154.691L173.454 154.693Z" fill="#EEEDED"/>
<path d="M172.466 198.953C171.793 179.355 173.064 159.255 173.379 154.693L173.319 154.693H172.976L173.312 153.669L173.325 153.676L173.446 153.737C173.446 153.737 173.446 153.841 173.446 154.056C173.446 154.213 173.446 154.426 173.446 154.694C173.48 159.249 173.523 179.301 172.466 198.953Z" fill="#EEEDED"/>
<path d="M153.641 65.5811C153.641 65.5811 139.287 86.3223 147.485 107.715C155.683 129.108 142.966 127.997 143.431 134.665C143.896 141.333 202.219 136.401 202.219 136.401C202.219 136.401 197.493 122 199.588 115.681C201.682 109.362 201.723 77.1567 195.132 67.5264C188.542 57.8961 153.641 65.5811 153.641 65.5811Z" fill="#C67040"/>
<path d="M164.78 116.977C164.78 116.977 164.965 123.46 160.789 124.756C156.613 126.052 160.046 133.832 171.742 134.943C183.437 136.054 188.356 126.799 186.036 125.405C183.716 124.011 182.922 121.041 182.509 118.923C182.096 116.804 164.78 116.977 164.78 116.977Z" fill="#F6C0A4"/>
<path d="M164.594 106.421L164.687 115.588L165.058 125.312C165.058 125.312 172.951 130.51 182.093 125.154L182.511 120.682L182.418 104.106L164.594 106.421Z" fill="#F6C0A4"/>
<path d="M164.594 108.828L164.687 112.717C164.687 112.717 168.888 117.978 173.821 117.834C178.755 117.69 182.416 112.533 182.416 112.533L182.323 107.81L164.594 108.828Z" fill="#EE9D83"/>
<path d="M153.803 96.0021L153.797 95.9728C153.797 95.9728 151.765 95.2482 150.75 90.7604C149.735 86.2726 152.201 86.2705 152.201 86.2705C152.201 86.2705 150.338 81.1897 151.934 71.9207C153.53 62.6517 191.549 68.0165 194.595 70.1874C197.642 72.3582 193.556 85.9813 193.556 85.9813C193.556 85.9813 196.748 82.5074 196.023 89.166C195.298 95.8246 192.395 96.1149 192.395 96.1149C192.395 96.1149 190.586 102.598 187.615 106.325C180.885 114.765 177.449 115.659 172.951 115.659C168.452 115.659 161.343 109.144 161.343 109.144L160.692 108.517C157.19 105.128 154.79 100.768 153.803 96.0021Z" fill="#F6C0A4"/>
<path d="M187.029 86.191L184.783 85.4475C184.28 85.3588 176.864 85.0142 176.952 84.5078L177.134 83.4803C177.177 83.2386 177.314 83.0236 177.515 82.8827C177.717 82.7418 177.966 82.6863 178.209 82.7285L186.384 84.1642C186.626 84.2076 186.841 84.3446 186.982 84.5455C187.123 84.7464 187.179 84.9948 187.137 85.2366L186.956 86.2641L187.029 86.191Z" fill="#A45A3B"/>
<path d="M168.018 89.893C168.018 91.4112 166.783 90.7231 165.26 90.7231C163.737 90.7231 162.503 91.4112 162.503 89.893C162.496 89.5272 162.562 89.1637 162.697 88.8237C162.833 88.4837 163.035 88.1741 163.291 87.9129C163.548 87.6517 163.855 87.4442 164.193 87.3026C164.531 87.1609 164.894 87.088 165.26 87.088C165.627 87.088 165.99 87.1609 166.328 87.3026C166.666 87.4442 166.973 87.6517 167.229 87.9129C167.486 88.1741 167.688 88.4837 167.823 88.8237C167.959 89.1637 168.025 89.5272 168.018 89.893Z" fill="#547871"/>
<path d="M184.705 89.893C184.705 91.4112 183.47 91.1637 181.947 91.1637C180.424 91.1637 179.191 91.4112 179.191 89.893C179.183 89.5272 179.249 89.1637 179.385 88.8237C179.52 88.4837 179.722 88.1741 179.979 87.9129C180.236 87.6517 180.542 87.4442 180.88 87.3026C181.218 87.1609 181.581 87.088 181.948 87.088C182.314 87.088 182.677 87.1609 183.016 87.3026C183.354 87.4442 183.66 87.6517 183.917 87.9129C184.173 88.1741 184.375 88.4837 184.511 88.8237C184.646 89.1637 184.712 89.5272 184.705 89.893Z" fill="#547871"/>
<path d="M164.966 99.5477H181.526C181.526 99.5477 180.347 108.133 172.944 107.698C165.542 107.264 164.966 99.5477 164.966 99.5477Z" fill="white"/>
<path d="M173.548 71.1045C175.944 71.4032 193.957 96.2688 194.403 91.639C194.849 87.0092 198.694 83.695 197.264 73.6397C195.835 63.5845 185.752 56.8779 176.844 57.0637C166.921 57.2726 154.038 61.2821 152.06 68.6393C150.018 76.2324 150.539 84.4698 151.432 85.067C152.326 85.6643 153.089 93.9873 153.089 93.9873C153.089 93.9873 155.325 91.0417 155.325 87.6064C155.325 84.877 156.257 83.9519 161.754 78.9712C165.276 75.7838 169.25 73.133 173.548 71.1045Z" fill="#C67040"/>
<path d="M160.272 86.1634L162.518 85.4189C163.02 85.3312 170.438 84.9866 170.349 84.4854L170.168 83.458C170.125 83.2164 169.987 83.0016 169.786 82.8607C169.584 82.7199 169.335 82.6643 169.093 82.7062L160.917 84.1419C160.675 84.1852 160.46 84.3223 160.319 84.5232C160.178 84.7242 160.122 84.9726 160.164 85.2143L160.345 86.2417L160.272 86.1634Z" fill="#A45A3B"/>
<path d="M189.827 153.94C189.948 153.067 190.201 150.885 190.33 147.019C190.362 146.114 190.385 145.114 190.398 144.018C190.424 142.034 190.115 139.673 189.65 137.284C189.427 136.136 189.168 134.987 188.892 133.866C188.484 132.207 188.04 130.614 187.624 129.212C186.72 126.166 185.943 124.016 185.943 124.016C185.814 124.361 185.657 124.695 185.475 125.015C184.487 126.769 183.054 128.233 181.32 129.26C180.878 129.525 180.421 129.763 179.95 129.973C178.399 130.664 176.481 131.161 174.116 131.257C171.663 131.368 169.21 131.014 166.889 130.213C166.459 130.064 166.047 129.904 165.653 129.735C162.189 128.257 160.106 126.162 159.552 125.558C159.447 125.454 159.402 125.39 159.402 125.39C159.402 125.521 159.395 125.653 159.394 125.787C159.377 126.599 159.377 127.48 159.394 128.411C159.394 128.538 159.394 128.666 159.401 128.795C159.465 131.622 159.662 134.883 159.912 138.109C160.008 139.353 160.113 140.591 160.226 141.799C160.32 142.855 160.416 143.888 160.514 144.874C160.926 149.117 161.33 152.583 161.482 153.862L189.827 153.94Z" fill="white"/>
<path d="M214.588 246.339H136.49L136.128 184.493L137.465 135.267C138.125 133.91 141.801 131.674 146.17 129.396C149.757 127.526 153.81 125.627 157.041 124.163C158.34 123.574 159.508 123.057 160.458 122.64C162.042 121.944 163.026 121.527 163.026 121.527L173.323 153.644L174.034 151.481L174.243 150.854L183.866 121.524C183.866 121.524 185.959 122.401 188.967 123.734C189.299 123.882 189.642 124.035 189.996 124.193C193.057 125.563 196.832 127.308 200.265 129.054C204.975 131.446 209.036 133.84 209.737 135.264L211.247 154.417L211.279 154.835L211.97 177.869V178.023L214.588 246.339Z" fill="#D2D2D2"/>
<path d="M173.45 154.054L173.659 154.691H172.981L173.317 153.667V153.648L173.325 153.674L173.446 153.735C173.446 153.735 173.449 153.844 173.45 154.054Z" fill="#EEEDED"/>
<path d="M215.517 154.392L210.3 154.428L209.725 135.269C211.529 138.934 215.517 154.392 215.517 154.392Z" fill="#EEEDED"/>
<path d="M131.738 154.392C131.738 154.392 135.68 138.938 137.46 135.269L136.937 154.43L131.738 154.392Z" fill="#EEEDED"/>
<path d="M173.655 154.697L173.454 154.695H173.379L173.319 154.693L172.978 154.691L173.314 153.667L173.319 153.648L173.327 153.674L173.429 153.988L173.45 154.054L173.654 154.691L173.655 154.697Z" fill="#EEEDED"/>
<path d="M158.477 123.282L162.433 121.365C162.652 121.259 162.891 121.203 163.133 121.199C163.376 121.196 163.616 121.246 163.838 121.345C164.059 121.445 164.255 121.592 164.413 121.776C164.571 121.96 164.687 122.176 164.751 122.409L172.157 149.401C172.561 150.875 170.915 152.058 169.645 151.208C165.309 148.313 158.722 143.824 158.996 143.453C159.402 142.902 163.96 136.979 163.306 136.098C162.801 135.417 159.302 128.594 157.73 125.509C157.631 125.314 157.572 125.102 157.556 124.884C157.54 124.666 157.567 124.447 157.637 124.24C157.706 124.033 157.816 123.841 157.961 123.677C158.105 123.513 158.28 123.378 158.477 123.282Z" fill="#B4B6B6"/>
<path d="M192.91 130.915C192.808 130.915 192.708 130.885 192.623 130.827C192.538 130.77 192.473 130.688 192.435 130.593C189.524 123.199 185.824 122.03 185.786 122.018C185.656 121.981 185.546 121.894 185.48 121.775C185.414 121.657 185.398 121.518 185.435 121.388C185.472 121.258 185.56 121.148 185.678 121.082C185.797 121.016 185.936 121 186.067 121.037C186.236 121.086 190.266 122.297 193.385 130.22C193.416 130.297 193.427 130.38 193.417 130.463C193.408 130.545 193.379 130.624 193.332 130.693C193.285 130.761 193.222 130.817 193.149 130.856C193.075 130.895 192.993 130.915 192.91 130.915Z" fill="#494E57"/>
<path d="M189.539 123.936L183.607 120.475C183.5 120.412 183.379 120.375 183.255 120.366C183.131 120.357 183.007 120.377 182.891 120.424C182.776 120.471 182.673 120.544 182.591 120.637C182.508 120.73 182.449 120.841 182.416 120.96L174.002 151.709C173.959 151.866 173.965 152.033 174.019 152.188C174.073 152.342 174.172 152.476 174.305 152.573C174.437 152.67 174.595 152.724 174.759 152.729C174.922 152.734 175.084 152.69 175.222 152.602C179.153 150.076 188.227 144.176 187.914 143.74C187.515 143.183 183.038 137.202 183.704 136.326C184.271 135.584 188.568 127.441 189.848 125.007C189.944 124.824 189.966 124.61 189.908 124.41C189.851 124.211 189.719 124.041 189.539 123.936Z" fill="#B4B6B6"/>
<path d="M195.852 152.723C195.809 152.723 195.766 152.717 195.725 152.705C195.606 152.672 195.506 152.593 195.446 152.486C195.387 152.379 195.372 152.252 195.405 152.134C195.446 151.991 199.411 137.856 195.882 132.684C195.149 131.606 194.158 131.02 192.859 130.892C191.691 130.776 190.828 131.093 190.219 131.863C188.843 133.604 188.754 137.628 189.979 143.499C190.595 146.395 191.376 149.254 192.317 152.061C192.337 152.119 192.345 152.179 192.342 152.24C192.338 152.301 192.322 152.36 192.296 152.415C192.269 152.47 192.232 152.518 192.186 152.559C192.141 152.599 192.088 152.63 192.03 152.65C191.972 152.67 191.912 152.678 191.851 152.675C191.79 152.671 191.73 152.656 191.676 152.629C191.621 152.602 191.572 152.565 191.531 152.52C191.491 152.474 191.46 152.421 191.44 152.364C190.485 149.518 189.694 146.621 189.069 143.686C187.776 137.451 187.918 133.28 189.488 131.29C190.297 130.266 191.462 129.828 192.949 129.97C194.519 130.125 195.76 130.863 196.647 132.163C198.244 134.505 198.667 138.636 197.903 144.432C197.539 147.116 197.003 149.773 196.297 152.387C196.27 152.484 196.211 152.569 196.131 152.629C196.051 152.69 195.953 152.723 195.852 152.723Z" fill="#494E57"/>
<path d="M192.66 153.25C193.246 153.063 193.475 152.142 193.172 151.192C192.868 150.242 192.147 149.624 191.561 149.81C190.975 149.996 190.746 150.918 191.05 151.868C191.353 152.817 192.075 153.436 192.66 153.25Z" fill="#4D515A"/>
<path d="M192.453 153.783C192.07 153.771 191.704 153.623 191.422 153.365C191.02 153.002 190.724 152.535 190.568 152.016C190.172 150.779 190.543 149.594 191.41 149.318C191.863 149.174 192.372 149.307 192.81 149.683C193.205 150.052 193.499 150.516 193.664 151.031C193.829 151.546 193.859 152.094 193.752 152.624C193.613 153.183 193.274 153.586 192.822 153.729C192.703 153.766 192.578 153.784 192.453 153.783ZM191.782 150.277C191.761 150.277 191.741 150.28 191.721 150.285C191.492 150.358 191.303 150.961 191.541 151.703C191.641 152.042 191.83 152.348 192.088 152.59C192.248 152.727 192.402 152.789 192.506 152.756C192.611 152.722 192.705 152.58 192.755 152.376C192.825 152.03 192.801 151.671 192.686 151.338C192.586 150.999 192.397 150.693 192.14 150.451C192.044 150.355 191.918 150.293 191.782 150.276V150.277Z" fill="#4C515C"/>
<path d="M196.501 151.732C196.856 150.799 196.799 149.913 196.374 149.752C195.949 149.591 195.316 150.216 194.961 151.148C194.606 152.08 194.663 152.966 195.088 153.127C195.513 153.288 196.146 152.664 196.501 151.732Z" fill="#4D515A"/>
<path d="M195.225 153.642C195.114 153.642 195.003 153.622 194.899 153.583C194.177 153.309 193.998 152.2 194.48 150.946C194.654 150.466 194.925 150.027 195.278 149.657C195.842 149.1 196.318 149.166 196.551 149.255C197.275 149.528 197.453 150.638 196.97 151.892C196.796 152.372 196.524 152.811 196.172 153.181C195.805 153.543 195.476 153.642 195.225 153.642ZM196.174 150.236C196.014 150.323 195.675 150.663 195.431 151.307C195.186 151.952 195.211 152.431 195.273 152.601C195.434 152.514 195.771 152.174 196.017 151.53C196.263 150.886 196.236 150.407 196.174 150.232V150.236Z" fill="#4C515C"/>
<path d="M153.587 145.787C153.479 145.787 153.373 145.753 153.286 145.689C153.198 145.625 153.133 145.535 153.101 145.432C151.802 141.36 151.545 137.481 152.341 133.916C152.978 131.057 154.288 128.395 156.232 126.006C159.532 121.952 163.471 120.11 163.638 120.034C163.699 120.006 163.764 119.99 163.831 119.987C163.898 119.985 163.965 119.995 164.028 120.018C164.091 120.041 164.149 120.076 164.198 120.122C164.247 120.167 164.287 120.222 164.315 120.282C164.343 120.343 164.359 120.409 164.362 120.475C164.364 120.542 164.354 120.609 164.331 120.672C164.308 120.734 164.272 120.792 164.227 120.841C164.181 120.89 164.127 120.93 164.066 120.958C164.021 120.979 160.146 122.799 157 126.679C155.165 128.944 153.93 131.46 153.332 134.16C152.583 137.541 152.833 141.229 154.074 145.124C154.094 145.188 154.102 145.255 154.096 145.321C154.09 145.388 154.072 145.453 154.041 145.512C154.01 145.571 153.968 145.624 153.917 145.667C153.865 145.71 153.806 145.743 153.742 145.763C153.692 145.779 153.64 145.787 153.587 145.787Z" fill="#494E57"/>
<path d="M154.384 150.918C156.05 150.918 157.4 149.571 157.4 147.909C157.4 146.247 156.05 144.9 154.384 144.9C152.718 144.9 151.367 146.247 151.367 147.909C151.367 149.571 152.718 150.918 154.384 150.918Z" fill="#4D515A"/>
<path d="M154.384 151.427C153.686 151.427 153.004 151.22 152.424 150.834C151.844 150.447 151.392 149.897 151.125 149.255C150.858 148.612 150.788 147.904 150.924 147.221C151.061 146.539 151.397 145.912 151.89 145.42C152.383 144.928 153.011 144.592 153.696 144.457C154.38 144.321 155.089 144.391 155.734 144.657C156.378 144.923 156.929 145.374 157.316 145.953C157.704 146.532 157.911 147.212 157.911 147.908C157.91 148.841 157.538 149.735 156.877 150.395C156.216 151.055 155.319 151.426 154.384 151.427ZM154.384 145.408C153.888 145.408 153.403 145.555 152.991 145.83C152.579 146.105 152.258 146.495 152.068 146.952C151.878 147.409 151.829 147.912 151.925 148.397C152.022 148.882 152.261 149.328 152.612 149.678C152.962 150.027 153.409 150.265 153.895 150.362C154.382 150.458 154.886 150.408 155.344 150.219C155.802 150.03 156.193 149.709 156.468 149.298C156.744 148.886 156.891 148.403 156.89 147.908C156.889 147.245 156.624 146.61 156.154 146.142C155.685 145.673 155.048 145.41 154.384 145.408Z" fill="#4C515C"/>
<path d="M238.395 173.173L218.263 177.533C217.296 177.686 216.325 177.801 215.366 177.867C214.772 177.908 214.184 177.929 213.604 177.929C211.347 177.929 209.234 177.603 207.526 176.802C205.857 175.832 204.662 174.348 203.813 172.619C200.729 166.336 202.223 156.802 202.223 156.802L209.733 135.27C209.733 135.27 214.419 150.336 217.098 159.54L236.191 157.408C242.68 156.375 234.23 158.727 235.588 164.395C236.945 170.064 244.882 172.141 238.395 173.173Z" fill="#B4B6B6"/>
<path d="M207.522 176.8C205.752 175.971 204.418 174.63 203.809 172.617C204.657 174.346 205.853 175.83 207.522 176.8Z" fill="#C5C6C6"/>
<path d="M241.276 153.646C245.943 154.083 247.098 159.253 248.831 163.953C250.659 168.908 244.154 173.116 239.487 172.679C234.821 172.243 230.514 168.823 231.01 163.568C231.506 158.313 236.609 153.21 241.276 153.646Z" fill="#F6C0A4"/>
<path d="M232.07 160.913C232.07 160.913 233.147 153.002 233.365 151.847C233.582 150.693 234.132 147.638 235.113 148.139C238.328 149.778 238.578 155.471 238.578 155.471L232.07 160.913Z" fill="#F6C0A4"/>
<path d="M215.366 177.867C214.215 178.1 212.782 178.141 211.007 177.929C209.781 177.797 208.596 177.413 207.526 176.802C209.234 177.603 211.347 177.929 213.604 177.929C214.182 177.929 214.769 177.908 215.366 177.867Z" fill="#C5C6C6"/>
<path d="M173.655 173.683C174.378 173.683 174.964 173.098 174.964 172.377C174.964 171.655 174.378 171.07 173.655 171.07C172.932 171.07 172.345 171.655 172.345 172.377C172.345 173.098 172.932 173.683 173.655 173.683Z" fill="#C5C6C6"/>
<path d="M186.453 180.92C186.382 182.107 182.457 182.703 181.265 182.674L173.736 182.488C173.559 182.488 177.618 181.909 177.678 182.076L178.281 184.156C178.295 184.195 178.299 184.238 178.293 184.279C178.286 184.321 178.27 184.36 178.244 184.394C178.219 184.427 178.185 184.454 178.147 184.471C178.109 184.489 178.066 184.496 178.024 184.493C175.775 184.339 160.204 185.15 147.233 184.995C144.465 184.962 145.23 182.674 143.484 179.619L145.787 173.179C145.804 173.131 145.835 173.089 145.876 173.06C145.917 173.03 145.966 173.013 146.017 173.012C154.809 172.734 167.277 170.996 169.025 170.748C169.083 170.739 169.142 170.751 169.193 170.782C169.243 170.812 169.281 170.859 169.3 170.915L169.907 172.641C169.922 172.686 169.95 172.725 169.987 172.755C170.024 172.784 170.068 172.803 170.115 172.809C170.162 172.815 170.21 172.808 170.253 172.788C170.295 172.768 170.332 172.737 170.358 172.697C170.435 172.593 175.616 165.867 176.268 166.599C176.673 167.054 175.954 169.262 175.346 170.891C175.329 170.935 175.325 170.982 175.334 171.028C175.343 171.074 175.364 171.117 175.396 171.151C175.428 171.186 175.468 171.211 175.514 171.224C175.559 171.237 175.607 171.237 175.652 171.224L177.445 170.726C177.461 170.721 177.478 170.718 177.495 170.716C177.843 170.692 183.45 170.273 184.7 174.834C185.343 177.162 186.533 179.616 186.453 180.92Z" fill="#867554"/>
<path d="M137.46 135.269C137.46 135.269 117.345 176.632 121.794 182.087C126.242 187.543 177.682 182.077 177.682 182.077L172.277 166.691C172.277 166.691 140.509 171.302 140.276 167.551L137.46 135.269Z" fill="#B4B6B6"/>
<path d="M172.272 166.689C172.272 166.689 169.415 175.704 177.678 182.075L172.272 166.689Z" fill="#9E9E9E"/>
<path d="M184.301 178.645L174.181 178.395L173.58 177.494C172.416 175.754 171.799 173.708 171.808 171.616V171.069L173.398 168.668C173.474 168.563 178.655 161.838 179.307 162.569C179.753 163.069 178.841 165.69 178.207 167.329L180.509 166.689C180.509 166.689 184.612 166.287 185.922 171.075C186.56 173.404 186.647 175.272 186.568 176.576C186.531 177.146 186.275 177.68 185.852 178.066C185.43 178.452 184.874 178.659 184.301 178.645Z" fill="#F6C0A4"/>
<path d="M131.998 144.772V151.141L131.475 163.057C131.475 163.057 121.77 167.673 113.081 162.058L111.44 157.457L113.015 141.014L131.998 144.772Z" fill="#F6C0A4"/>
<path d="M132.118 145.203L131.998 147.917C131.998 147.917 126.353 153.719 121.546 153.367C116.739 153.015 112.459 147.167 112.459 147.167L112.633 143.199L132.118 145.203Z" fill="#EE9D83"/>
<path d="M139.115 140.981C140.304 139.759 142.023 132.901 142.023 132.901C142.023 132.901 144.037 132.282 145.22 127.947C146.402 123.611 143.997 123.507 143.997 123.507C143.997 123.507 145.7 113.818 144.542 104.712C143.383 95.606 106.063 99.2105 102.998 101.199C99.9321 103.187 103.665 121.463 103.665 121.463C103.665 121.463 100.7 117.936 101.122 124.463C101.544 130.99 104.367 131.398 104.367 131.398C104.819 134.152 105.457 136.873 106.278 139.542C107.638 143.988 118.104 151.097 122.5 151.29C126.896 151.483 134.091 145.43 134.091 145.43L139.115 140.981Z" fill="#F6C0A4"/>
<path d="M132.243 155.254C132.243 155.254 158.167 168.841 159.951 173.447C161.734 178.053 164.225 207.921 164.225 207.921L124.447 206.178L132.243 155.254Z" fill="#A7CBCA"/>
<path d="M111.275 154.335C111.275 154.335 84.2561 165.604 82.0749 170.036C79.8938 174.469 73.6089 203.951 73.6089 203.951L113.387 205.694L111.275 154.335Z" fill="#A7CBCA"/>
<path d="M143.436 124.666C142.788 126.033 140.764 125.777 140.483 124.29C139.894 121.177 139.31 116.918 139.541 113.077C139.556 112.789 139.492 112.504 139.356 112.251C139.219 111.997 139.015 111.787 138.767 111.641C138.518 111.496 138.234 111.422 137.946 111.426C137.658 111.431 137.377 111.515 137.133 111.669C133.748 113.845 127.854 116.567 121.696 114.463C116.562 112.709 113.068 110.986 110.94 109.772C110.697 109.635 110.422 109.566 110.144 109.571C109.865 109.575 109.592 109.654 109.354 109.798C109.116 109.943 108.921 110.148 108.788 110.393C108.656 110.637 108.591 110.913 108.601 111.191C108.742 114.501 108.458 119.726 105.782 123.183C104.952 124.255 103.238 123.828 103.005 122.494L100.104 105.939C100.097 105.898 100.088 105.857 100.077 105.818L100.071 105.794C98.991 101.574 101.798 97.3588 106.109 96.6801C109.572 96.1402 112.911 94.9852 115.966 93.2698C124.111 88.6755 137.593 94.9248 140.337 97.0288C140.372 97.0549 140.406 97.081 140.442 97.1061C145.42 100.715 147.777 106.921 146.256 112.873C145.732 114.905 145.314 116.508 145.13 117.05C144.552 118.777 143.741 123.263 143.56 124.274C143.536 124.41 143.495 124.541 143.436 124.666Z" fill="#898C8C"/>
<path d="M127.676 121.388L135.494 121.73C136.072 121.755 136.561 121.308 136.586 120.732L136.618 119.994C136.644 119.417 136.196 118.93 135.619 118.905L127.801 118.563C127.223 118.538 126.734 118.984 126.709 119.56L126.677 120.299C126.651 120.875 127.099 121.362 127.676 121.388Z" fill="#898C8C"/>
<path d="M111.193 122.057L119.003 121.569C119.58 121.533 120.019 121.038 119.982 120.462L119.936 119.724C119.9 119.149 119.403 118.711 118.826 118.747L111.016 119.235C110.439 119.271 110.001 119.767 110.037 120.342L110.083 121.08C110.119 121.656 110.616 122.093 111.193 122.057Z" fill="#898C8C"/>
<path d="M128.428 125.919C128.368 127.293 129.619 127.381 131.104 127.448C132.589 127.514 133.747 127.528 133.808 126.155C133.868 124.782 132.713 123.615 131.228 123.544C129.743 123.473 128.489 124.547 128.428 125.919Z" fill="#485968"/>
<path d="M128.897 139.094L117.228 138.363C117.228 138.363 119.154 143.34 122.831 143.517C126.765 143.712 128.897 139.094 128.897 139.094Z" fill="white"/>
<path d="M132.141 152.556L121.489 164.142L112.107 151.684L109.82 155.545L110.975 205.731L128.545 206.5L134.168 156.613L132.141 152.556Z" fill="white"/>
<path d="M124.358 206.374L117.06 235.319C117.034 235.419 116.974 235.507 116.889 235.567C116.805 235.627 116.702 235.656 116.598 235.647C116.495 235.638 116.398 235.593 116.325 235.519C116.252 235.446 116.207 235.349 116.199 235.246L113.967 205.911C113.963 205.877 113.963 205.842 113.967 205.807L119.409 172.255C119.426 172.152 119.405 172.046 119.351 171.957L117.312 168.609C117.261 168.526 117.24 168.429 117.251 168.333C117.262 168.236 117.305 168.146 117.373 168.077L121.119 164.252C121.162 164.209 121.214 164.174 121.271 164.152C121.329 164.129 121.39 164.119 121.451 164.122C121.511 164.124 121.57 164.139 121.624 164.166C121.678 164.192 121.726 164.229 121.765 164.274L125.35 168.451C125.409 168.521 125.445 168.607 125.453 168.698C125.461 168.789 125.44 168.88 125.393 168.958L123.474 172.159C123.432 172.23 123.41 172.312 123.413 172.395L124.373 206.253C124.374 206.294 124.368 206.334 124.358 206.374Z" fill="#536779"/>
<path d="M136.962 157.6L133.634 155.88L124.436 206.183L133.684 206.583L142.616 180.583L135.906 175.141L144.724 171.381L136.962 157.6Z" fill="#CE88AB"/>
<path d="M106.933 155.718L110.399 154.297L113.935 205.911L105.11 205.474L99.2811 178.119L106.443 173.285L97.9907 168.768L106.933 155.718Z" fill="#CE88AB"/>
<path d="M112.393 125.252C112.332 126.626 113.613 126.697 115.098 126.762C116.583 126.827 117.715 126.866 117.771 125.488C117.828 124.11 116.676 122.949 115.191 122.878C113.706 122.807 112.452 123.879 112.393 125.252Z" fill="#485968"/>
<path d="M131.789 139.776C131.789 139.776 128.021 135.676 122.562 135.441C117.103 135.206 113.666 139.336 113.666 139.336C114.016 139.956 114.585 140.424 115.261 140.651C115.938 140.877 116.674 140.846 117.329 140.562C118.979 139.846 121.168 139.051 122.754 139.054C124.141 139.054 125.84 139.903 127.23 140.781C127.968 141.245 128.86 141.399 129.712 141.211C130.564 141.023 131.307 140.507 131.78 139.776H131.789Z" fill="#898C8C"/>
<path d="M93.4828 204.841L80.935 144.28L80.9099 144.176C80.8629 143.979 80.7397 143.809 80.5673 143.703C80.3949 143.596 80.1873 143.563 79.9899 143.609L64.7985 147.198C64.6012 147.245 64.4307 147.368 64.3242 147.54C64.2177 147.712 64.1839 147.919 64.2302 148.116L64.2867 148.357L73.6015 203.975C73.6015 203.975 76.9726 223.496 93.4828 204.841Z" fill="#A7CBCA"/>
<path d="M71.6913 148.204C71.0911 148.337 70.4664 148.31 69.8796 148.127C69.2929 147.944 68.7645 147.61 68.3474 147.16C65.9999 144.629 61.3958 139.655 60.6601 138.806C59.6637 137.651 59.8961 133.543 61.0588 129.735C62.2216 125.927 65.577 123.268 69.2831 129.064C72.9891 134.861 74.8301 139.427 74.8301 139.427C74.8301 139.427 75.0143 130.781 77.4937 131.7C79.3776 132.4 79.2101 140.631 79.0207 144.551C78.9923 145.139 78.771 145.702 78.3909 146.152C78.0108 146.602 77.4929 146.915 76.917 147.043L71.6913 148.204Z" fill="#F6C0A4"/>
<path d="M105.11 205.474L116.211 235.231L113.935 205.911L105.11 205.474Z" fill="#CE88AB"/>
<path d="M124.436 206.183L117.083 235.331L133.684 206.583L124.436 206.183Z" fill="#CE88AB"/>
<path d="M81.8803 203.318L75.2773 257.404L117.885 256.361L117.083 235.331L104.262 201.496L81.8803 203.318Z" fill="#A7CBCA"/>
<path d="M164.225 207.921L158.732 258.151L117.885 256.361L117.083 235.331L133.684 206.583L164.225 207.921Z" fill="#A7CBCA"/>
<path d="M97.3415 160.603L92.2006 197.913C91.2471 204.833 88.8326 211.159 82.0799 213.006L79.9396 220.4L73.5972 203.955L64.2302 148.116C64.2302 148.116 69.4631 152.754 75.4622 150.091C81.4614 147.429 80.935 144.28 80.935 144.28L84.9874 165.401C85.8247 169.026 86.2286 165.818 89.7222 164.516L97.3415 160.603Z" fill="#8BAEAD"/>
<path d="M149.927 165.374C149.927 165.374 156.766 185.44 156.344 195.037C155.922 204.634 158.732 258.158 158.732 258.158C158.732 258.158 160.087 260.626 163.619 248.673C167.151 236.719 169.612 187.873 165.503 178.831C161.394 169.788 149.927 165.374 149.927 165.374Z" fill="#8BAEAD"/>
<path d="M37.4444 213.681C37.4444 213.681 27.7612 214.658 29.8293 210.482C31.8974 206.305 25.0421 206.321 26.9909 202.815C28.9397 199.31 21.94 198.355 23.3508 195.32C24.7616 192.286 18.2695 189.592 21.6407 186.37C25.0118 183.148 18.4517 177.036 24.0081 174.062C29.5645 171.089 23.3623 165.643 28.8172 164.807C34.2721 163.971 33.6902 159.959 38.9076 158.424C44.1249 156.889 40.8155 149.23 48.26 152.253C55.7045 155.276 62.8958 149.302 64.0732 154.563C65.2506 159.823 68.0168 153.296 70.762 159.679C73.5073 166.062 79.8424 165.273 78.5729 169.373C77.3033 173.473 83.5139 182.441 81.0397 183.127C78.5655 183.813 85.7735 185.577 82.888 190.072C80.0025 194.568 86.8222 200.121 80.6085 201.387C74.3948 202.652 79.0679 208.145 73.1295 208.212C67.191 208.278 71.5125 214.875 64.0575 213.631C56.6025 212.386 57.1384 215.204 53.9441 213.637C50.7499 212.07 53.0702 220.923 48.3281 216.747C43.5859 212.57 41.2258 216.443 39.3398 215.055C37.4538 213.667 37.4444 213.681 37.4444 213.681Z" fill="#6E6E6E"/>
<path d="M49.4092 218.063C49.4092 218.063 50.4861 223.927 46.8722 225.686C43.2583 227.444 47.4687 234.039 58.2519 233.412C69.0351 232.786 72.2074 223.691 69.9038 222.753C67.6002 221.814 66.4646 219.221 65.7917 217.354C65.1187 215.487 49.4092 218.063 49.4092 218.063Z" fill="#F6C0A4"/>
<path d="M47.7618 208.496L49.1308 216.813L50.8305 225.596C50.8305 225.596 58.7302 229.219 66.2857 223.078L66.0376 218.956L63.6304 203.907L47.7618 208.496Z" fill="#F6C0A4"/>
<path d="M48.0999 210.689L48.7279 214.21C48.7279 214.21 53.2816 218.405 57.7444 217.585C62.2071 216.765 64.811 211.571 64.811 211.571L64.0648 207.29L48.0999 210.689Z" fill="#B28D7C"/>
<path d="M36.4985 200.536C36.4922 200.519 36.488 200.51 36.488 200.51C36.488 200.51 34.5413 200.135 32.9892 196.199C31.4371 192.264 33.68 191.918 33.68 191.918C33.68 191.918 31.2728 187.561 31.4277 178.916C31.5826 170.272 65.1106 165.322 68.1844 166.87C71.2583 168.419 71.2196 185.889 71.2196 185.889C71.2196 185.889 73.6331 182.288 73.9073 188.439C74.1815 194.59 71.5838 195.26 71.5838 195.26C71.5838 195.26 70.8512 201.402 68.669 205.203C63.7374 213.81 60.741 215.101 56.6529 215.728C52.5649 216.356 45.1926 211.427 45.1926 211.427L44.5134 210.945C40.8565 208.355 38.0641 204.729 36.4985 200.536Z" fill="#F6C0A4"/>
<path d="M65.3145 183.101L63.169 182.737C62.7001 182.727 55.9129 183.448 55.9233 182.98L55.9432 182.021C55.9484 181.795 56.043 181.581 56.2064 181.424C56.3698 181.268 56.5886 181.182 56.815 181.186L64.4448 181.351C64.6712 181.356 64.8864 181.45 65.0432 181.613C65.2001 181.776 65.286 181.995 65.282 182.221L65.2611 183.18L65.3145 183.101Z" fill="#6E6E6E"/>
<path d="M47.1413 202.201L62.1894 199.893C62.1894 199.893 62.3202 207.859 55.5351 208.495C48.75 209.132 47.1413 202.201 47.1413 202.201Z" fill="white"/>
<path d="M57.9871 170.04C59.0969 169.847 60.2394 170.009 61.2518 170.502C62.2641 170.995 63.0947 171.794 63.6252 172.785C67.2527 179.572 72.9651 194.209 72.7799 190.909C72.5391 186.639 75.5649 183.093 72.8594 174.155C70.1539 165.217 60.0531 160.529 51.9817 161.938C42.9955 163.51 31.8513 168.951 31.0841 175.912C30.2918 183.096 31.8471 191.652 32.7461 192.07C33.6452 192.487 35.572 198.8 35.572 198.8C35.572 198.8 37.19 195.812 36.7096 192.69C36.2292 189.568 33.1805 181.869 42.1164 176.605L57.9871 170.04Z" fill="#6E6E6E"/>
<path d="M38.2577 188.852L40.194 187.862C40.6377 187.712 47.3287 186.365 47.178 185.922L46.8703 185.014C46.7971 184.8 46.6422 184.624 46.4395 184.524C46.2367 184.424 46.0025 184.409 45.7881 184.48L38.5602 186.925C38.3464 186.998 38.1703 187.152 38.0703 187.355C37.9703 187.557 37.9545 187.79 38.0264 188.004L38.3404 188.913L38.2577 188.852Z" fill="#6E6E6E"/>
<path d="M46.9087 225.908L30.3588 229.83L31.0987 264.815C31.2961 274.194 29.476 283.507 25.761 292.125L20.4547 304.435L94.7941 305.682L85.2752 221.376L67.7111 221.149L60.6318 234.973L46.9087 225.908Z" fill="#AAA988"/>
<path d="M46.8723 225.689L60.3578 233.192L67.7111 221.149L71.2038 221.112L61.1647 237.198L43.7995 226.38L46.8723 225.689Z" fill="#E5E2C5"/>
<path d="M23.0777 252.787C23.0777 252.787 32.2345 295.542 52.6538 302.812C68.5977 308.488 54.2237 297.934 48.5448 290.4C42.8659 282.867 35.9761 255.864 35.9761 255.864L25.374 252.434L23.0777 252.787Z" fill="#F6C0A4"/>
<path d="M32.7461 192.07C32.7461 192.07 22.0583 169.586 49.875 165.186C77.6916 160.786 73.4864 185.721 73.4864 185.721C73.4864 185.721 71.2508 164.557 49.2889 168.597C29.0925 172.312 32.7461 192.07 32.7461 192.07Z" fill="#D9D48B"/>
<path d="M32.6802 229.026C32.6802 229.026 23.5569 229.032 24.007 240.371C24.457 251.709 20.4579 258.244 20.4579 258.244L35.9761 255.864L32.6802 229.026Z" fill="#928F64"/>
<path d="M98.5703 243.982C98.5703 243.982 89.8928 295.951 68.2595 298.787C46.6262 301.623 66.7493 293.491 72.5506 285.22C78.3519 276.95 85.6091 247.501 85.6091 247.501L96.2845 243.631L98.5703 243.982Z" fill="#F6C0A4"/>
<path d="M82.7101 221.325C82.7101 221.325 91.5927 219.246 93.7581 230.387C95.9235 241.527 101.317 246.973 101.317 246.973L85.6647 248.202L82.7101 221.325Z" fill="#928F64"/>
<path d="M47.2397 300.208C47.2397 300.208 54.6057 312.025 58.4876 311.999C62.3694 311.974 63.3271 303.437 55.3844 296.392C47.4417 289.347 47.2397 300.208 47.2397 300.208Z" fill="#F6C0A4"/>
<path d="M70.4104 298.321C70.4104 298.321 60.9114 310.642 57.0295 310.622C53.1476 310.603 52.19 302.06 60.1327 295.017C68.0754 287.973 70.4104 298.321 70.4104 298.321Z" fill="#F6C0A4"/>
<path d="M46.5446 200.58C45.231 200.907 43.8497 200.838 42.5756 200.381C41.3014 199.925 40.1916 199.102 39.3864 198.016C38.5812 196.93 38.1168 195.631 38.0519 194.281C37.9871 192.932 38.3247 191.594 39.022 190.437C39.7194 189.279 40.7452 188.354 41.9697 187.778C43.1943 187.202 44.5625 187.001 45.9014 187.201C47.2403 187.4 48.4898 187.992 49.4918 188.9C50.4938 189.808 51.2033 190.993 51.5306 192.303C51.9672 194.06 51.6874 195.919 50.7527 197.47C49.818 199.022 48.3047 200.14 46.5446 200.58ZM43.522 188.479C42.438 188.749 41.4586 189.334 40.7078 190.16C39.9569 190.985 39.4682 192.014 39.3034 193.117C39.1386 194.22 39.3051 195.346 39.7819 196.354C40.2586 197.363 41.0243 198.207 41.982 198.781C42.9398 199.356 44.0466 199.634 45.1628 199.581C46.2789 199.527 47.3542 199.145 48.2527 198.483C49.1513 197.82 49.8328 196.907 50.2111 195.858C50.5895 194.809 50.6476 193.671 50.3783 192.589C50.0139 191.138 49.0874 189.89 47.802 189.12C46.5167 188.349 44.9775 188.118 43.522 188.479Z" fill="#575756"/>
<path d="M62.901 196.814C61.5874 197.141 60.2061 197.071 58.9319 196.615C57.6577 196.158 56.5478 195.335 55.7426 194.249C54.9373 193.164 54.4729 191.864 54.4081 190.515C54.3433 189.166 54.681 187.827 55.3785 186.67C56.0759 185.512 57.1018 184.587 58.3265 184.011C59.5511 183.435 60.9194 183.234 62.2583 183.434C63.5973 183.634 64.8467 184.226 65.8486 185.134C66.8505 186.043 67.5599 187.227 67.8871 188.538C68.3236 190.295 68.0438 192.153 67.1091 193.704C66.1744 195.256 64.6611 196.374 62.901 196.814ZM59.8784 184.712C58.7945 184.982 57.8151 185.567 57.0642 186.393C56.3133 187.218 55.8246 188.247 55.6597 189.35C55.4948 190.452 55.6612 191.579 56.1379 192.587C56.6145 193.596 57.38 194.44 58.3377 195.015C59.2954 195.589 60.4022 195.867 61.5183 195.814C62.6344 195.761 63.7097 195.379 64.6083 194.717C65.5069 194.054 66.1886 193.141 66.567 192.092C66.9455 191.043 67.0039 189.906 66.7347 188.824C66.3703 187.373 65.4439 186.125 64.1586 185.354C62.8733 184.583 61.3341 184.352 59.8784 184.712Z" fill="#575756"/>
<path d="M55.2534 191.987L51.0984 193.021C50.9496 193.048 50.7958 193.018 50.6685 192.937C50.5412 192.855 50.4499 192.728 50.4132 192.582C50.3765 192.435 50.3971 192.28 50.471 192.148C50.5448 192.017 50.6663 191.918 50.8106 191.872L54.9656 190.84C55.1173 190.804 55.2767 190.83 55.4096 190.911C55.5425 190.992 55.6382 191.122 55.676 191.273C55.7137 191.423 55.6906 191.583 55.6115 191.717C55.5325 191.851 55.4039 191.948 55.2534 191.988V191.987Z" fill="#575756"/>
<path d="M67.4546 189.257C67.3213 189.291 67.1806 189.276 67.0565 189.218C66.9324 189.159 66.8324 189.059 66.7737 188.935C66.715 188.811 66.7011 188.671 66.7345 188.538C66.7678 188.405 66.8462 188.288 66.9564 188.206L72.1319 184.367C72.1942 184.316 72.266 184.279 72.3431 184.257C72.4202 184.235 72.5009 184.229 72.5805 184.239C72.66 184.249 72.7367 184.275 72.8059 184.315C72.8751 184.356 72.9354 184.41 72.9832 184.474C73.031 184.538 73.0654 184.611 73.0841 184.689C73.1028 184.767 73.1056 184.847 73.0923 184.926C73.0789 185.005 73.0498 185.08 73.0065 185.148C72.9632 185.215 72.9067 185.273 72.8405 185.318L67.6629 189.157C67.6006 189.204 67.5299 189.238 67.4546 189.257Z" fill="#575756"/>
<path d="M38.9671 196.036C38.8324 196.07 38.6901 196.055 38.5652 195.995L32.5996 193.114C32.464 193.042 32.3616 192.92 32.3139 192.774C32.2662 192.629 32.2769 192.47 32.3438 192.332C32.4107 192.194 32.5285 192.087 32.6726 192.034C32.8166 191.981 32.9758 191.985 33.1166 192.047L39.0823 194.927C39.192 194.981 39.2827 195.066 39.342 195.173C39.4013 195.279 39.4263 195.401 39.4136 195.523C39.4009 195.644 39.3512 195.758 39.2711 195.85C39.191 195.942 39.0845 196.007 38.9661 196.036H38.9671Z" fill="#575756"/>
<path d="M45.1651 196.262C46.6096 196.262 47.7806 195.094 47.7806 193.652C47.7806 192.211 46.6096 191.043 45.1651 191.043C43.7207 191.043 42.5497 192.211 42.5497 193.652C42.5497 195.094 43.7207 196.262 45.1651 196.262Z" fill="#411F14"/>
<path d="M60.7116 192.629C62.1561 192.629 63.3271 191.461 63.3271 190.02C63.3271 188.579 62.1561 187.411 60.7116 187.411C59.2671 187.411 58.0961 188.579 58.0961 190.02C58.0961 191.461 59.2671 192.629 60.7116 192.629Z" fill="#411F14"/>
<path d="M217.803 164.721C217.803 164.721 206.716 163.66 209.972 159.429C213.228 155.198 205.531 153.692 208.507 150.192C211.482 146.692 203.837 144.06 206.1 140.969C208.362 137.879 201.68 133.408 206.184 130.542C210.689 127.677 204.696 119.356 211.598 117.258C218.499 115.159 212.758 107.664 219.067 107.941C225.376 108.217 225.623 103.586 231.822 103.026C238.021 102.465 236.022 93.1323 243.7 98.185C251.378 103.238 260.788 98.1338 260.931 104.301C261.075 110.467 265.641 103.758 267.294 111.531C268.946 119.305 276.232 119.832 273.887 124.152C271.543 128.472 276.504 139.919 273.573 140.138C270.643 140.357 278.337 143.943 274.097 148.345C269.856 152.747 276.263 160.5 269.006 160.536C261.749 160.571 265.761 167.777 259.083 166.529C252.405 165.282 255.776 173.647 247.688 170.589C239.599 167.531 239.569 170.814 236.335 168.343C233.101 165.873 233.719 176.335 229.335 170.582C224.952 164.828 221.432 168.657 219.626 166.68C217.82 164.702 217.803 164.721 217.803 164.721Z" fill="#524452"/>
<path d="M197.791 195.979C197.791 195.979 196.012 239.592 217.179 246.24C238.347 252.887 219.146 238.513 214.951 229.822C210.756 221.132 210.121 201.639 210.121 201.639L200.166 196.083L197.791 195.979Z" fill="#D7AA91"/>
<path d="M231.173 166.378C231.173 166.378 231.08 172.479 227.1 173.526C223.12 174.572 226.027 182.025 236.974 183.549C247.92 185.074 252.928 176.573 250.804 175.172C248.681 173.771 248.059 170.942 247.758 168.934C247.456 166.926 231.173 166.378 231.173 166.378Z" fill="#D7AA91"/>
<path d="M231.436 156.446L231.144 165.067L231.09 174.222C231.09 174.222 238.294 179.434 247.104 174.775L247.679 170.589L248.278 155.004L231.436 156.446Z" fill="#D7AA91"/>
<path d="M231.337 158.71L231.262 162.365C231.262 162.365 234.993 167.481 239.635 167.549C244.277 167.617 247.933 162.92 247.933 162.92L248.037 158.477L231.337 158.71Z" fill="#B28D7C"/>
<path d="M221.723 146.211C221.723 146.193 221.723 146.184 221.723 146.184C221.723 146.184 219.84 145.419 219.075 141.159C218.311 136.899 220.624 137.001 220.624 137.001C220.624 137.001 219.075 132.148 220.959 123.502C222.843 114.857 257.486 116.571 260.265 118.738C263.043 120.905 259.5 138.433 259.5 138.433C259.5 138.433 262.639 135.3 261.687 141.528C260.735 147.755 257.989 147.91 257.989 147.91C257.989 147.91 256.02 153.929 253.07 157.307C246.396 164.963 243.128 165.66 238.902 165.477C234.677 165.293 228.26 158.875 228.26 158.875L227.674 158.256C224.527 154.926 222.453 150.73 221.723 146.211Z" fill="#D7AA91"/>
<path d="M253.36 138.357L251.28 137.564C250.811 137.46 243.854 136.834 243.953 136.364L244.163 135.406C244.213 135.181 244.351 134.985 244.546 134.86C244.741 134.736 244.978 134.694 245.204 134.743L252.829 136.429C253.055 136.48 253.253 136.619 253.377 136.814C253.502 137.01 253.544 137.247 253.493 137.474L253.284 138.431L253.36 138.357Z" fill="#524452"/>
<path d="M235.338 141.053C235.275 142.481 234.353 142.704 232.921 142.641C231.489 142.579 230.095 142.254 230.155 140.826C230.185 140.141 230.487 139.495 230.994 139.031C231.245 138.802 231.539 138.624 231.86 138.508C232.18 138.392 232.52 138.339 232.86 138.354C233.2 138.369 233.534 138.451 233.843 138.594C234.152 138.738 234.429 138.941 234.659 139.192C234.889 139.442 235.067 139.736 235.184 140.055C235.3 140.374 235.353 140.713 235.338 141.053Z" fill="#4C3D33"/>
<path d="M251.022 141.74C250.959 143.168 249.858 143.202 248.428 143.14C246.997 143.079 245.776 142.941 245.839 141.513C245.869 140.828 246.171 140.182 246.679 139.718C246.93 139.489 247.224 139.311 247.544 139.195C247.864 139.079 248.204 139.026 248.544 139.041C248.885 139.056 249.219 139.138 249.527 139.281C249.836 139.425 250.113 139.628 250.343 139.879C250.573 140.129 250.752 140.423 250.868 140.742C250.985 141.061 251.037 141.4 251.022 141.74Z" fill="#4C3D33"/>
<path d="M232.073 150.003L247.639 150.685C247.639 150.685 246.174 158.706 239.238 157.994C232.302 157.282 232.073 150.003 232.073 150.003Z" fill="white"/>
<path d="M249.4 119.887C250.552 119.915 251.666 120.305 252.584 121.001C253.501 121.697 254.175 122.665 254.509 123.765C256.791 131.301 259.594 147.13 260.069 143.781C260.682 139.447 264.429 136.491 263.503 126.98C262.576 117.469 253.378 110.752 244.994 110.559C235.66 110.35 223.385 113.587 221.221 120.419C218.987 127.472 218.834 136.37 219.651 136.969C220.468 137.567 221.142 144.287 221.142 144.287C221.142 144.287 223.364 141.61 223.507 138.381C223.649 135.153 222.13 126.812 232.154 123.313L249.4 119.887Z" fill="#524452"/>
<path d="M228.211 137.23L230.353 136.623C230.829 136.561 237.815 136.542 237.752 136.067L237.624 135.094C237.593 134.865 237.473 134.658 237.29 134.517C237.106 134.376 236.874 134.314 236.645 134.343L228.9 135.357C228.671 135.387 228.463 135.507 228.322 135.69C228.181 135.873 228.118 136.104 228.147 136.333L228.276 137.306L228.211 137.23Z" fill="#524452"/>
<path d="M278.321 199.118C278.231 200.307 278.059 202.216 277.755 204.603C276.167 217.071 270.952 242.552 254.68 246.135C233.015 250.906 253.399 238.271 258.343 229.976C262.388 223.189 264.693 208.999 265.397 204.061C265.553 202.963 265.632 202.323 265.632 202.323L276.036 197.659L277.815 197.737C277.981 198.222 278.149 198.682 278.321 199.118Z" fill="#D7AA91"/>
<path d="M227.09 173.75L209.693 174.389L193.234 262.068L278.321 270.601L266.51 176.849L248.926 173.12L239.052 185.585L227.09 173.75Z" fill="#AB71A6"/>
<path d="M227.1 173.526L239.133 183.743L248.926 173.12L252.438 173.78L239.141 187.924L223.877 173.605L227.1 173.526Z" fill="#E3C3DE"/>
<path d="M219.653 136.971C219.653 136.971 213.428 112.272 242.23 113.401C271.031 114.53 261.817 138.718 261.817 138.718C261.817 138.718 263.805 117.031 240.958 116.708C219.943 116.407 219.653 136.971 219.653 136.971Z" fill="#D7ACD1"/>
<path d="M212.187 174.046C212.187 174.046 203.029 172.234 201.21 183.705C199.391 195.176 194.068 200.933 194.068 200.933L210.12 201.637L212.187 174.046Z" fill="#AD84A9"/>
<path d="M281.27 204.758L265.217 204.056L265.582 176.385C265.582 176.385 274.865 175.381 275.67 186.967C275.972 191.338 276.844 194.942 277.812 197.737C277.979 198.225 278.149 198.685 278.321 199.118C279.779 202.832 281.27 204.758 281.27 204.758Z" fill="#AD84A9"/>
<path d="M113.146 158.376C113.146 158.376 87.1132 162.645 94.6948 184.488C102.276 206.33 109.243 204.109 109.243 204.109L106.226 188.992L114.048 170.031L113.146 158.376Z" fill="#455664"/>
<path d="M113.915 206.029L114.822 211.937L117.013 222.918C117.013 222.918 126.678 225.82 133.936 219.368L134.801 214.867L130.988 199.831L113.915 206.029Z" fill="#F4CA8E"/>
<path d="M113.861 206.443L114.362 208.949C114.362 208.949 120.432 213.529 124.838 212.518C129.244 211.508 132.384 205.472 132.384 205.472L131.651 201.818L113.861 206.443Z" fill="#D4AE76"/>
<path d="M106.769 203.525C105.492 202.56 102.915 196.442 102.915 196.442C102.915 196.442 100.959 196.154 99.2404 192.301C97.5218 188.448 99.7396 188.006 99.7396 188.006C99.7396 188.006 96.7746 179.259 96.5464 170.641C96.3182 162.022 129.096 161.479 132.226 162.887C135.357 164.294 136.868 180.363 136.868 180.363C136.868 180.363 139.115 176.67 139.657 182.786C140.199 188.903 137.641 189.678 137.641 189.678C137.617 192.299 137.414 194.915 137.034 197.509C136.406 201.829 127.71 209.915 123.666 210.718C119.622 211.521 112.061 206.933 112.061 206.933L106.769 203.525Z" fill="#F4CA8E"/>
<path d="M113.923 181.653L106.92 183.394C106.359 183.533 106.017 184.1 106.157 184.659L106.294 185.208C106.434 185.768 107.002 186.109 107.563 185.969L114.566 184.228C115.127 184.089 115.468 183.522 115.329 182.963L115.192 182.414C115.052 181.854 114.484 181.514 113.923 181.653Z" fill="#455664"/>
<path d="M129.554 179.162L122.359 179.727C121.783 179.772 121.352 180.275 121.398 180.85L121.442 181.414C121.487 181.989 121.991 182.418 122.568 182.373L129.763 181.808C130.339 181.763 130.769 181.26 130.724 180.685L130.68 180.121C130.634 179.546 130.13 179.116 129.554 179.162Z" fill="#455664"/>
<path d="M114.478 188.214C114.687 189.251 114.097 189.54 112.728 189.812C111.359 190.085 109.727 190.236 109.52 189.198C109.313 188.16 110.253 187.098 111.624 186.827C112.995 186.555 114.271 187.176 114.478 188.214Z" fill="#411F14"/>
<path d="M129.48 185.233C129.689 186.271 128.727 186.486 127.358 186.755C125.989 187.023 124.729 187.256 124.522 186.218C124.315 185.18 125.255 184.118 126.627 183.847C127.999 183.575 129.277 184.195 129.48 185.233Z" fill="#411F14"/>
<path d="M114.415 197.696L129.303 194.739C129.303 194.739 129.783 202.669 123.052 203.599C116.32 204.529 114.415 197.696 114.415 197.696Z" fill="white"/>
<path d="M113.159 158.363C121.91 157.061 126.013 157.716 127.934 158.578C129.104 159.101 130.898 159.763 131.622 160.818C135.872 167.007 133.677 164.081 134.842 166.29C136.263 168.984 138.086 181.565 138.121 185.438C138.123 185.689 138.037 185.933 137.877 186.127C137.717 186.321 137.493 186.452 137.246 186.497L135.7 186.783C135.7 186.783 135.744 187.66 134.458 180.577C133.171 173.493 130.415 173.03 129.164 171.21C128.431 170.149 128.336 169.226 128.381 168.634C128.397 168.391 128.33 168.15 128.192 167.95C128.053 167.749 127.851 167.601 127.618 167.53C125.581 166.89 129.343 169.096 125.17 172.451C120.356 176.315 108.019 177.098 105.044 176.802C102.068 176.507 101.553 178.381 101.821 179.72C102.089 181.058 101.989 183.103 101.279 185.268C100.773 186.816 102.012 190.212 102.765 192.025C102.825 192.171 102.852 192.328 102.844 192.485C102.836 192.643 102.793 192.797 102.719 192.936C102.644 193.074 102.54 193.195 102.413 193.289C102.286 193.383 102.14 193.448 101.985 193.478C101.769 193.521 101.545 193.496 101.344 193.407C101.143 193.319 100.974 193.171 100.859 192.984C98.7129 189.479 95.7311 179.282 95.707 176.197C95.7068 176.08 95.6874 175.964 95.6495 175.854C95.1021 174.274 91.439 161.596 113.159 158.363Z" fill="#455664"/>
<path d="M89.8447 305.709C89.8447 305.709 91.7956 305.744 101.912 305.709C112.029 305.675 151.136 302.534 164.306 303.099C177.475 303.664 179.761 299.097 179.761 299.097C179.761 299.097 177.854 254.28 167.62 251.066C157.386 247.852 150.665 231.771 150.665 231.771L99.3134 244.401C99.3134 244.401 94.8611 271.678 93.2839 280.258C91.7067 288.838 89.8447 305.709 89.8447 305.709Z" fill="#464476"/>
<path d="M109.768 222.159L116.299 219.355C116.299 219.355 122.738 222.592 127.378 220.63C132.019 218.668 134.799 214.875 134.799 214.875L138.399 214.202C138.399 214.202 155.445 238.629 159.927 251.445C164.408 264.261 159.457 303.382 159.457 303.382L101.939 305.73C101.939 305.73 112.208 278.297 107.235 263.608C102.263 248.918 99.3115 244.404 99.3115 244.404L109.768 222.159Z" fill="#CE88AB"/>
<path d="M100.538 225.596L109.768 222.16C109.768 222.16 108.449 251.128 101.971 259.139C95.4924 267.149 89.8447 305.709 89.8447 305.709L83.7244 298.684C71.8978 292.547 71.9637 289.182 85.6564 277.95C93.9246 271.163 92.5159 254.439 92.6101 252.3C92.8058 247.851 100.538 225.596 100.538 225.596Z" fill="#565690"/>
<path d="M138.401 214.198C138.401 214.198 144.922 227.323 148.809 235.785C152.695 244.247 156.378 252.417 159.308 267.033C162.059 280.756 173.25 303.087 173.25 303.087C173.25 303.087 195.418 255.445 184.376 249.054C173.335 242.663 168.893 251.339 162.683 242.642C156.474 233.945 153.502 225.935 153.502 225.935C153.502 225.935 182.313 198.091 202.731 183.734C215.978 174.419 197.526 158.01 197.526 158.01L138.401 214.198Z" fill="#565690"/>
<path d="M40.0181 274.645C40.0181 274.645 45.5149 295.063 66.3298 278.699C86.7386 262.658 94.2491 258.385 97.2664 255.926C99.9436 253.744 101.139 231.075 101.373 226.002C101.377 225.914 101.356 225.828 101.312 225.752C101.268 225.677 101.203 225.616 101.125 225.577C101.047 225.537 100.959 225.521 100.872 225.531C100.785 225.54 100.702 225.575 100.634 225.63L40.0181 274.645Z" fill="#6061A3"/>
<path d="M197.526 158.012C197.526 158.012 188.027 165.255 195.365 174.509C202.702 183.764 206.935 178.843 206.935 178.843C206.935 178.843 212.113 172.402 197.526 158.012Z" fill="#464476"/>
<path d="M200.09 172.019C200.601 172.474 201.222 172.787 201.893 172.928C202.563 173.068 203.258 173.031 203.909 172.819C207.572 171.63 214.758 169.289 215.945 168.858C217.542 168.274 219.554 164.153 220.498 159.818C221.442 155.484 219.626 151.079 212.858 154.702C206.089 158.325 201.815 161.771 201.815 161.771C201.815 161.771 206.345 153.262 203.432 152.813C201.219 152.473 196.898 160.569 194.947 164.485C194.654 165.072 194.563 165.739 194.688 166.383C194.813 167.027 195.146 167.613 195.637 168.049L200.09 172.019Z" fill="#F5D5AF"/>
<path d="M40.0181 274.645C40.0181 274.645 52.7532 269.161 57.7989 283.834C57.7989 283.839 45.2899 288.872 40.0181 274.645Z" fill="#464476"/>
<path d="M52.6746 279.114C53.1607 279.596 53.5114 280.197 53.6916 280.857C53.8718 281.516 53.8751 282.212 53.7014 282.873C52.7301 286.59 50.8159 293.888 50.4569 295.09C49.9681 296.716 45.9638 298.965 41.6842 300.162C37.4047 301.36 32.8875 299.815 36.1152 292.864C39.343 285.913 42.5309 281.445 42.5309 281.445C42.5309 281.445 34.2868 286.463 33.6641 283.588C33.1921 281.406 41.0353 276.62 44.8377 274.444C45.4078 274.117 46.0696 273.987 46.7212 274.073C47.3729 274.158 47.9783 274.455 48.4443 274.918L52.6746 279.114Z" fill="#F5D5AF"/>
<path d="M116.299 219.356C116.299 219.356 123.027 222.459 127.378 220.631C131.729 218.803 134.798 214.876 134.798 214.876L136.765 214.508C136.765 214.508 134.442 221.449 128.706 222.735C122.971 224.021 117.682 221.944 114.938 220.4L114.514 220.117L116.299 219.356Z" fill="#A56A8A"/>
<path d="M91.6942 49.7906L88.5544 55.1158C87.2985 55.3246 86.1472 55.2202 84.8913 55.0114C84.4726 54.9069 84.054 54.8025 83.5307 54.6981C81.0188 53.9672 78.9256 52.5054 77.2511 50.4171C75.8905 48.642 75.3672 46.6581 74.3206 44.6742C74.1112 44.4654 74.0066 44.2565 73.7973 43.9433C72.4367 42.1682 70.3435 41.4373 68.2503 41.2285C67.099 41.2285 65.9477 41.2285 64.9011 41.6461C65.7384 39.7666 66.9943 38.096 67.9363 36.2165C70.5528 36.0077 73.0646 36.5297 75.4718 37.6783C77.6697 38.8269 79.3443 40.8108 80.4955 43.0035C81.1235 44.2565 81.4375 45.5095 82.1701 46.6581C82.7726 47.5724 83.5562 48.3541 84.4726 48.9552C86.6705 50.3126 89.287 50.4171 91.6942 49.7906Z" fill="#A7CBCA"/>
<path d="M46.1668 128.626C44.1782 129.148 42.085 129.461 40.0965 129.983C36.538 126.955 34.7588 121.943 36.1194 117.349C36.7473 115.47 37.7939 113.903 38.2126 112.024C38.4219 110.875 38.4219 109.831 38.1079 108.787C37.6893 107.43 36.9566 106.385 36.1194 105.341C35.4914 104.506 34.6541 104.193 33.9215 103.462C35.91 102.94 38.0032 102.626 39.9918 102.104C41.0384 103.044 41.8757 104.193 42.713 105.446C43.7596 107.221 44.1782 109.1 44.3875 111.084C44.4922 112.755 44.1782 114.321 43.5502 115.887C42.6083 117.976 41.457 119.959 41.771 122.361C42.085 124.449 43.0269 126.224 44.7015 127.582C45.04 127.792 45.3557 128.037 45.6435 128.313C45.8031 128.44 45.9791 128.545 46.1668 128.626Z" fill="#D96159"/>
<path d="M85.8333 91.6627C85.31 91.976 84.6821 91.976 84.0541 92.1848C82.5889 92.6025 81.1236 92.6025 79.763 93.229C78.5071 91.6627 77.4605 89.7832 77.2512 87.6949C77.1465 86.8596 77.2512 86.1287 77.3558 85.2933C77.6698 83.9359 78.0884 82.7874 78.1931 81.43C78.2978 79.7593 77.1465 78.2975 75.7859 77.3577C76.1515 77.1729 76.538 77.0327 76.9372 76.9401C77.6698 76.8356 78.4024 76.5224 79.135 76.418C79.6584 76.418 80.1817 76.418 80.6003 76.2092C80.9658 76.0243 81.3524 75.8841 81.7516 75.7915C84.4727 78.4019 84.6821 82.6829 83.6355 86.2331C83.1121 87.6949 83.4261 89.1567 84.3681 90.4097C84.7867 90.9318 85.31 91.2451 85.8333 91.6627Z" fill="#C294BC"/>
<path d="M126.337 67.1236C124.872 66.3927 123.616 65.3486 122.15 64.4088C121.732 64.2 121.418 63.9912 120.999 63.7823C120.894 61.9028 121.522 60.1278 122.464 58.4571C123.511 56.7865 124.872 55.5335 126.546 54.6982C128.325 53.9672 130.105 53.1319 131.047 51.3568C131.674 49.9994 131.884 48.4332 131.465 46.9714C132.616 47.7023 133.663 48.3288 134.814 49.1641C135.442 49.5818 136.07 49.9994 136.803 50.3127C136.698 51.9833 136.384 53.654 135.652 55.1158C134.605 56.9953 133.14 58.4571 131.256 59.3969C129.477 60.1278 127.697 60.9631 126.755 62.7382C126.127 64.0956 125.918 65.6618 126.337 67.1236Z" fill="#7AB193"/>
<path d="M179.295 35.9052L174.585 39.9774C171.341 39.0377 168.829 36.4273 167.783 33.2948C167.05 31.3109 167.259 28.9093 165.689 27.3431C165.585 27.2387 165.585 27.0298 165.48 26.9254C164.747 26.5078 164.329 25.8813 163.491 25.6724C162.759 25.568 162.131 25.1504 161.398 25.1504L166.108 21.0781C168.306 21.7046 170.19 23.1665 171.55 25.0459C173.12 27.1343 173.225 29.4314 173.853 31.833C174.585 34.2345 176.888 35.6964 179.295 35.9052Z" fill="#F4C984"/>
<path d="M237.696 39.2448C236.335 37.6785 235.498 35.6946 234.137 34.1284C235.199 31.837 236.956 29.9373 239.161 28.6988C241.359 27.4458 243.871 27.5502 246.278 27.3414C249.208 27.0281 251.616 24.6265 252.139 21.8073C252.35 22.145 252.595 22.46 252.872 22.7471C253.918 24.2089 254.651 25.6707 255.697 26.9237C255.069 28.1767 254.337 29.3253 253.29 30.3694L252.348 31.3092C251.302 32.1445 250.255 32.6666 248.999 33.0842C248.58 33.1886 248.266 33.2931 247.848 33.3975C246.383 33.7107 245.022 33.6063 243.557 33.7107C240.626 33.9196 238.219 36.4255 237.696 39.2448Z" fill="#CE88AB"/>
<path d="M225.346 90.4095C223.566 89.3653 221.892 88.1124 220.113 87.0682C220.104 84.7266 220.877 82.4488 222.31 80.5944C223.88 78.8193 225.869 77.8796 227.962 76.8354C230.265 75.5824 231.102 72.7632 230.579 70.2572C232.358 71.197 233.928 72.5544 235.812 73.4941C235.916 75.5824 235.184 77.5663 234.032 79.4458C232.672 81.5341 230.579 82.4739 228.381 83.6225C227.753 83.9357 227.02 84.249 226.601 84.8755C226.497 85.1887 226.288 85.3975 226.078 85.6064C225.032 87.0682 225.136 88.7389 225.346 90.4095Z" fill="#7AB193"/>
<path d="M281.234 98.3446C279.246 97.6137 277.362 96.7784 275.373 96.0475C274.431 92.4973 274.955 88.7384 277.152 85.6059C278.199 84.0397 279.56 82.9955 281.13 82.0557C283.118 81.0116 285.002 79.5498 285.735 77.4614C286.467 75.1643 286.153 72.8671 285.211 70.6744C287.2 71.3009 288.979 72.3451 290.968 72.8671C291.805 75.582 291.491 78.61 290.444 81.2204C290.235 81.6381 290.13 81.9513 289.921 82.369C289.413 83.2879 288.779 84.1315 288.037 84.875C287.878 85.0022 287.702 85.1076 287.514 85.1882L286.677 86.0236C285.944 86.6501 285.107 86.8589 284.374 87.4854C284.165 87.5898 283.955 87.5898 283.851 87.6942C283.641 87.903 283.432 88.0075 283.118 88.2163C279.769 90.5134 279.56 95.0033 281.234 98.3446Z" fill="#D96159"/>
<path d="M297.875 136.458L298.189 136.771C298.922 138.546 299.864 140.217 300.701 141.992C301.538 139.903 303.318 138.024 305.62 137.815C307.19 137.711 308.655 138.024 310.225 137.815C311.481 137.711 312.632 137.606 313.784 137.084C315.668 136.144 317.342 134.787 318.493 133.012C317.447 131.237 316.714 129.253 315.668 127.478C315.563 127.791 315.354 128.104 315.144 128.418C315.04 128.626 315.04 128.731 314.935 128.94C313.888 130.297 312.528 131.55 310.749 131.654C308.865 131.759 306.981 131.341 304.992 131.654C303.537 131.919 302.153 132.483 300.928 133.309C299.702 134.136 298.663 135.208 297.875 136.458Z" fill="#F4C984"/>
<path d="M274.85 256.146C274.096 256.617 273.295 257.009 272.46 257.315C270.343 258.099 267.726 258.464 264.634 258.036C263.072 257.827 261.536 257.453 260.052 256.921C256.208 255.514 253.994 253.282 253.302 251.387C253.299 251.381 253.297 251.375 253.295 251.369C252.95 250.415 252.993 249.547 253.408 248.917C253.455 248.844 253.508 248.774 253.566 248.708C253.71 248.543 253.879 248.402 254.068 248.291C254.088 248.278 254.108 248.267 254.129 248.255C254.327 248.146 254.538 248.062 254.757 248.006C255.836 247.722 256.629 247.066 257.212 246.264L257.277 246.173C257.594 245.708 257.857 245.208 258.059 244.683C258.447 243.66 258.693 242.588 258.792 241.498C258.829 241.103 258.833 240.859 258.833 240.859C258.833 240.859 261.067 240.935 263.897 241.132C265.716 241.258 267.782 241.436 269.654 241.676C272.678 242.063 275.207 242.616 275.41 243.377C275.414 243.389 275.417 243.402 275.418 243.415C275.504 243.988 275.616 244.626 275.782 245.28C275.908 245.791 276.07 246.292 276.266 246.781C276.616 247.638 277.095 248.452 277.77 249.097C277.83 249.154 277.892 249.21 277.954 249.265C278.116 249.405 278.287 249.535 278.465 249.653C279.739 250.5 278.448 253.893 274.85 256.146Z" fill="#F6C0A4"/>
<path d="M259.097 230.931L258.805 239.553L258.751 248.707C258.751 248.707 265.955 253.919 274.764 249.261L275.34 245.074L275.939 229.49L259.097 230.931Z" fill="#F6C0A4"/>
<path d="M258.997 233.196L258.924 236.85C258.924 236.85 262.655 241.967 267.297 242.036C271.938 242.104 275.594 237.407 275.594 237.407L275.699 232.964L258.997 233.196Z" fill="#EE9D83"/>
<path d="M260.945 188.948C260.945 188.948 252.944 173.209 271.516 174.023C290.088 174.836 280.935 188.921 280.935 188.921L260.945 188.948Z" fill="#57362E"/>
<path d="M249.385 220.698C249.385 220.679 249.385 220.67 249.385 220.67C249.385 220.67 247.501 219.905 246.736 215.646C245.971 211.387 248.286 211.487 248.286 211.487C248.286 211.487 246.745 206.635 248.629 197.989C250.512 189.342 286.025 195.949 288.799 198.116C291.574 200.283 287.169 212.918 287.169 212.918C287.169 212.918 290.309 209.785 289.356 216.014C288.404 222.242 285.659 222.396 285.659 222.396C285.659 222.396 283.69 228.414 280.739 231.793C274.064 239.449 270.797 240.146 266.571 239.963C262.344 239.779 255.929 233.362 255.929 233.362L255.344 232.742C252.193 229.414 250.117 225.218 249.385 220.698Z" fill="#F6C0A4"/>
<path d="M280.487 213.646L278.589 212.485C278.147 212.296 271.427 210.397 271.615 209.955L272.002 209.053C272.047 208.947 272.113 208.851 272.196 208.771C272.278 208.691 272.375 208.628 272.482 208.585C272.589 208.542 272.704 208.521 272.819 208.522C272.934 208.524 273.048 208.548 273.153 208.593L280.335 211.657C280.548 211.748 280.715 211.92 280.801 212.134C280.887 212.348 280.885 212.588 280.795 212.8L280.408 213.702L280.487 213.646Z" fill="#57362E"/>
<path d="M268.697 198.311C275.081 198.764 287.117 222.599 287.73 218.265C288.342 213.931 292.09 210.976 291.165 201.466C290.239 191.955 281.039 185.237 272.655 185.044C263.321 184.829 251.046 188.072 248.882 194.903C246.648 201.957 246.495 210.855 247.312 211.453C248.128 212.051 248.802 218.771 248.802 218.771C248.802 218.771 251.025 216.095 251.168 212.866C251.284 210.222 255.862 208.997 260.037 204.366C262.426 201.719 265.386 199.648 268.694 198.31L268.697 198.311Z" fill="#57362E"/>
<path d="M256.197 212.525L258.195 211.545C258.652 211.399 265.521 210.135 265.375 209.678L265.075 208.739C265.002 208.52 264.845 208.339 264.639 208.235C264.434 208.131 264.195 208.112 263.975 208.183L256.544 210.559C256.324 210.63 256.141 210.785 256.035 210.99C255.929 211.195 255.909 211.434 255.979 211.654L256.279 212.594L256.197 212.525Z" fill="#57362E"/>
<path d="M234.153 305.002L234.086 305.001L234.082 304.76L234.153 305.002Z" fill="#EE9D83"/>
<path d="M280.802 250.327C280.779 250.369 278.814 253.908 274.85 256.146C274.096 256.617 273.295 257.009 272.46 257.315C270.343 258.099 267.726 258.464 264.634 258.036C263.072 257.827 261.536 257.453 260.052 256.921C256.208 255.514 253.994 253.282 253.302 251.387C253.299 251.381 253.297 251.375 253.295 251.369C252.596 250.761 251.93 250.115 251.302 249.434L254.068 248.295C254.088 248.283 254.109 248.271 254.129 248.26L254.757 248.01L254.767 248.021L254.773 248.028L254.78 248.036L254.789 248.047L254.801 248.06L254.832 248.094C254.837 248.1 254.843 248.106 254.848 248.114C255.629 248.966 261.11 254.692 267.881 254.819H267.888C271.102 254.88 274.608 253.68 278.04 250.102V250.097C278.17 249.961 278.3 249.823 278.431 249.679L278.44 249.668L278.447 249.66L278.454 249.652L278.493 249.662L278.532 249.674L278.587 249.689L278.606 249.695L278.678 249.714L278.732 249.73L278.763 249.739L278.824 249.757H278.835L278.903 249.777L278.981 249.799L279.043 249.817L279.252 249.876C279.523 249.953 279.855 250.048 280.238 250.158L280.343 250.188L280.414 250.209L280.768 250.314L280.802 250.327Z" fill="#EE9D83"/>
<path d="M260.045 186.686L259.653 185.309C259.653 185.309 269.59 179.566 282.245 186.299L281.636 187.632L260.045 186.686Z" fill="#EE9D83"/>
<path d="M327.721 200.155L288.306 305.876L234.158 305H234.153L234.082 304.76L211.178 196.555L223.62 194.179L244.377 244.145C245.136 245.97 246.584 247.425 248.408 248.195C250.233 248.965 252.288 248.988 254.129 248.26C254.109 248.271 254.088 248.283 254.068 248.295L251.302 249.434C251.931 250.115 252.598 250.762 253.299 251.37C253.301 251.376 253.303 251.382 253.306 251.388C253.999 253.282 257.283 253.189 261.127 254.597C262.458 255.083 264.33 255.44 266.056 255.68C269.147 256.111 270.861 256.464 272.979 255.68C273.863 255.354 274.147 256.59 274.854 256.146C278.814 253.909 280.783 250.369 280.806 250.327L280.852 250.341C282.483 250.81 284.226 250.703 285.786 250.037C287.347 249.371 288.628 248.187 289.414 246.686L315.537 196.698L327.721 200.155Z" fill="#84ABCB"/>
<path d="M234.159 305.002L234.155 305.012L234.153 305L234.159 305.002Z" fill="#EE9D83"/>
<path d="M262.21 224.501L272.975 224.973C272.975 224.973 271.963 230.519 267.164 230.026C262.365 229.533 262.21 224.501 262.21 224.501Z" fill="white"/>
<path d="M211.178 196.555C211.178 196.555 218.515 203.225 223.62 194.179L211.178 196.555Z" fill="#C98870"/>
<path d="M315.537 196.699C315.537 196.699 317.377 205.453 327.722 200.154L315.537 196.699Z" fill="#C98870"/>
<path d="M323.155 200.058C323.73 200.24 324.342 200.268 324.931 200.14C325.521 200.011 326.066 199.731 326.512 199.327C329.024 197.055 333.954 192.589 334.747 191.816C335.82 190.772 335.947 186.739 335.139 182.917C334.331 179.095 331.281 176.208 327.158 181.56C323.036 186.911 320.839 191.211 320.839 191.211C320.839 191.211 321.404 182.744 318.901 183.432C317.001 183.954 316.453 192.014 316.301 195.857C316.278 196.435 316.446 197.003 316.779 197.476C317.112 197.948 317.591 198.299 318.143 198.473L323.155 200.058Z" fill="#F6C0A4"/>
<path d="M214.081 197.046C213.597 197.138 213.096 197.095 212.635 196.922C212.174 196.749 211.769 196.453 211.464 196.066C209.568 193.648 205.595 188.595 204.856 187.739C203.88 186.605 204.108 182.574 205.249 178.838C206.389 175.102 209.681 172.493 213.318 178.18C216.955 183.868 218.76 188.347 218.76 188.347C218.76 188.347 218.941 179.863 221.377 180.768C223.211 181.449 223.063 189.41 222.88 193.289C222.851 193.887 222.622 194.457 222.23 194.909C221.837 195.361 221.303 195.667 220.714 195.78L214.081 197.046Z" fill="#F6C0A4"/>
<path d="M280.802 250.327C280.779 250.369 278.814 253.908 274.85 256.146C272.587 257.437 270 258.053 267.396 257.922C261.305 257.641 256.029 253.787 253.295 251.369C252.596 250.761 251.93 250.115 251.302 249.434L254.068 248.295L254.761 248.01L254.77 248.021L254.776 248.028L254.784 248.036L254.792 248.047L254.805 248.06C254.813 248.071 254.823 248.081 254.835 248.094C254.846 248.106 254.846 248.106 254.852 248.114C255.632 248.981 261.103 254.779 267.884 254.819H267.891C272.915 254.846 276.802 251.362 278.043 250.102V250.097C278.253 249.888 278.382 249.738 278.434 249.679L278.443 249.668L278.451 249.66L278.457 249.652L278.497 249.662L278.535 249.674L278.59 249.689L278.61 249.695L278.681 249.714L278.735 249.73L278.767 249.739L278.827 249.757H278.838L278.906 249.777L278.984 249.799L279.046 249.817L279.255 249.876L280.241 250.158L280.346 250.188L280.417 250.209L280.771 250.314L280.802 250.327Z" fill="#616C9F"/>
<path d="M260.161 217.736C261.605 217.736 262.776 216.568 262.776 215.127C262.776 213.686 261.605 212.518 260.161 212.518C258.716 212.518 257.545 213.686 257.545 215.127C257.545 216.568 258.716 217.736 260.161 217.736Z" fill="#411F14"/>
<path d="M275.516 217.973C276.96 217.973 278.131 216.805 278.131 215.364C278.131 213.923 276.96 212.755 275.516 212.755C274.071 212.755 272.9 213.923 272.9 215.364C272.9 216.805 274.071 217.973 275.516 217.973Z" fill="#411F14"/>
<path d="M185.365 196.328C184.81 196.473 184.293 196.736 183.848 197.098C183.404 197.461 183.043 197.915 182.791 198.429C180.34 203.423 177.589 221.834 178.471 231.288C178.884 235.699 177.553 238.896 175.833 241.136C174.054 243.448 170.837 243.963 173.685 244.605L212.007 253.244C214.68 253.848 229.944 251.973 229.657 249.255C229.511 247.869 224.909 245.167 223.649 243.656C217.348 236.096 222.28 229.851 223.327 227.532C225.605 222.482 228.517 201.934 214.326 196.673C202.92 192.446 190.001 195.116 185.365 196.328Z" fill="#D96159"/>
<path d="M187.806 251.421C187.806 251.421 200.679 246.247 207.391 252.279C214.103 258.311 195.089 259.26 191.517 257.106C187.945 254.952 187.806 251.421 187.806 251.421Z" fill="#536779"/>
<path d="M189.648 247.211C189.648 247.211 189.555 253.312 185.575 254.359C181.594 255.405 184.501 262.858 195.448 264.382C206.396 265.907 211.403 257.407 209.279 256.006C207.156 254.605 206.533 251.776 206.231 249.767C205.93 247.758 189.648 247.211 189.648 247.211Z" fill="#F6C0A4"/>
<path d="M189.911 237.282L189.619 245.903L189.565 255.058C189.565 255.058 196.769 260.269 205.578 255.611L206.155 251.424L206.754 235.84L189.911 237.282Z" fill="#F6C0A4"/>
<path d="M189.811 239.545L189.737 243.205C189.737 243.205 194.154 247.919 198.584 246.531C205.056 244.505 206.546 241.948 206.546 241.948L206.517 239.318L189.811 239.545Z" fill="#EE9D83"/>
<path d="M179.605 222.332C179.605 222.314 179.605 222.305 179.605 222.305C179.605 222.305 177.89 221.22 177.891 216.891C177.893 212.562 180.156 213.073 180.156 213.073C180.156 213.073 179.502 208.025 182.894 199.849C186.286 191.673 220.06 204.462 222.405 207.085C224.749 209.708 218.168 221.364 218.168 221.364C218.168 221.364 221.82 218.836 219.769 224.797C217.719 230.758 214.994 230.425 214.994 230.425C214.994 230.425 211.986 236 208.484 238.806C200.554 245.158 197.215 245.268 193.087 244.34C188.959 243.411 183.788 235.959 183.788 235.959L183.322 235.246C180.814 231.41 179.519 226.911 179.605 222.332Z" fill="#F6C0A4"/>
<path d="M212.136 220.202L210.23 219.053C209.787 218.868 203.052 217.017 203.237 216.575L203.617 215.67C203.707 215.457 203.878 215.289 204.092 215.202C204.306 215.114 204.546 215.115 204.76 215.203L211.964 218.213C212.177 218.302 212.346 218.473 212.434 218.686C212.522 218.9 212.521 219.14 212.433 219.353L212.053 220.258L212.136 220.202Z" fill="#D96159"/>
<path d="M193.919 219.669C193.605 221.063 192.315 220.591 190.918 220.275C189.52 219.96 188.544 219.921 188.859 218.527C189.022 217.87 189.437 217.302 190.015 216.946C190.593 216.59 191.287 216.475 191.95 216.624C192.612 216.773 193.19 217.176 193.558 217.745C193.926 218.314 194.056 219.005 193.919 219.669Z" fill="#536878"/>
<path d="M209.237 223.114C208.923 224.508 207.949 224.201 206.552 223.887C205.154 223.572 203.862 223.364 204.177 221.974C204.328 221.304 204.74 220.722 205.322 220.356C205.904 219.989 206.607 219.868 207.279 220.02C207.95 220.171 208.533 220.582 208.9 221.162C209.268 221.742 209.389 222.444 209.237 223.114Z" fill="#536878"/>
<path d="M190.772 230.214L202.528 232.285C202.528 232.285 200.17 238.397 194.694 236.743C189.603 235.203 190.772 230.214 190.772 230.214Z" fill="white"/>
<path d="M212.168 205.582C214.304 206.352 216.4 230.883 217.775 226.727C219.149 222.57 223.362 220.325 224.142 210.801C224.922 201.277 217.064 193.038 208.848 191.364C199.7 189.5 187.043 190.517 183.698 196.859C180.244 203.405 178.512 212.134 179.212 212.868C179.913 213.602 179.378 220.335 179.378 220.335C179.378 220.335 182.041 218.094 182.755 214.942C183.469 211.79 185.771 206.719 196.256 205.05L212.168 205.582Z" fill="#D96159"/>
<path d="M187.586 214.64L189.802 214.422C190.282 214.445 197.161 215.664 197.184 215.185L197.231 214.205C197.241 213.974 197.16 213.748 197.004 213.577C196.848 213.406 196.631 213.304 196.4 213.292L188.599 212.918C188.368 212.908 188.142 212.989 187.971 213.145C187.799 213.3 187.696 213.517 187.685 213.747L187.638 214.728L187.586 214.64Z" fill="#D96159"/>
<path d="M209.357 305.476C209.517 304.446 211.821 287.342 212.146 282.762C212.221 281.691 212.295 280.507 212.366 279.212C212.493 276.857 212.326 274.048 212.012 271.195C211.863 269.829 211.68 268.452 211.479 267.112C211.183 265.128 210.851 263.221 210.531 261.542C209.84 257.893 209.222 255.311 209.222 255.311C209.084 255.711 208.92 256.101 208.73 256.479C208.102 257.746 206.835 259.796 204.604 261.338C204.18 261.632 203.737 261.896 203.277 262.129C201.784 262.884 199.954 263.394 197.73 263.411C195.393 263.435 193.084 262.908 190.991 261.873C190.594 261.678 190.215 261.471 189.853 261.254C187.663 259.932 185.783 258.158 184.339 256.049C184.251 255.918 184.207 255.841 184.207 255.841C184.196 255.995 184.186 256.154 184.177 256.311C184.12 257.273 184.073 258.318 184.042 259.425C184.042 259.576 184.033 259.727 184.029 259.882C183.941 263.235 183.956 267.107 184.022 270.941C184.048 272.42 184.082 273.893 184.12 275.327C184.153 276.58 184.19 277.807 184.224 278.981C184.392 284.03 182.637 302.684 182.713 304.205L209.357 305.476Z" fill="white"/>
<path d="M226.129 306.035L230.17 306.334C230.48 306.282 230.787 306.212 231.089 306.125C231.089 306.054 231.095 305.969 231.099 305.873C231.271 301.737 232.338 274.723 230.96 270.446C230.79 269.919 230.354 269.277 229.713 268.552C229.627 268.455 229.538 268.357 229.445 268.256C228.16 266.873 226.201 265.22 223.972 263.514L223.935 263.485C216.972 258.153 207.399 252.284 207.399 252.284L197.778 277.041C196.606 280.052 195.102 282.924 193.292 285.603C190.918 289.121 188.041 292.273 184.752 294.959L173.363 304.262L196.435 305.221L226.129 306.035Z" fill="#7AB193"/>
<path d="M231.095 306.112C231.091 306.113 231.088 306.113 231.084 306.112C230.782 306.199 230.476 306.269 230.165 306.32L226.129 306.027L215.13 305.688L223.931 263.467L223.967 263.496C224.317 263.785 227.12 266.107 229.604 268.849C230.072 269.365 230.529 269.893 230.956 270.429C233.651 273.811 231.355 302.93 231.095 306.112Z" fill="#6E9C80"/>
<path d="M250.859 258.227L250.782 258.458L236.734 300.706C236.303 301.995 235.565 303.161 234.582 304.102C233.6 305.044 232.403 305.733 231.095 306.112C231.091 306.113 231.088 306.113 231.084 306.112C230.945 306.152 230.805 306.19 230.665 306.224C230.364 306.294 230.055 306.318 229.746 306.295L226.13 306.032C224.011 305.33 222.257 303.819 221.253 301.83C220.249 299.841 220.076 297.535 220.773 295.419L229.606 268.853L229.711 268.54L234.864 253.041L234.898 252.936C234.961 252.748 235.096 252.593 235.274 252.504C235.452 252.415 235.657 252.4 235.846 252.462L250.385 257.274C250.479 257.305 250.565 257.355 250.64 257.42C250.715 257.484 250.776 257.563 250.82 257.652C250.864 257.741 250.89 257.837 250.897 257.936C250.903 258.034 250.89 258.133 250.859 258.227Z" fill="#6E9C80"/>
<path d="M250.859 258.227L250.782 258.458C249.633 259.889 248.069 260.933 246.304 261.445C244.539 261.958 242.658 261.916 240.918 261.324C239.177 260.732 237.662 259.619 236.579 258.138C235.495 256.656 234.896 254.876 234.863 253.042L234.896 252.938C234.959 252.75 235.094 252.595 235.272 252.506C235.45 252.417 235.655 252.402 235.844 252.464L250.383 257.276C250.477 257.307 250.564 257.356 250.638 257.421C250.713 257.485 250.774 257.564 250.819 257.653C250.863 257.741 250.89 257.837 250.897 257.936C250.903 258.034 250.89 258.133 250.859 258.227Z" fill="#658571"/>
<path d="M243.559 257.677C244.133 257.859 244.746 257.887 245.335 257.759C245.925 257.631 246.47 257.351 246.916 256.946C249.428 254.674 254.359 250.208 255.152 249.437C256.224 248.392 256.351 244.358 255.543 240.536C254.735 236.715 251.686 233.827 247.562 239.179C243.438 244.53 241.244 248.83 241.244 248.83C241.244 248.83 241.809 240.364 239.306 241.051C237.406 241.573 236.858 249.633 236.706 253.476C236.683 254.054 236.851 254.622 237.183 255.095C237.516 255.567 237.996 255.918 238.548 256.092L243.559 257.677Z" fill="#F6C0A4"/>
<path d="M271.867 179.418C271.867 179.418 289.052 172.597 298.494 173.317C307.936 174.037 341.44 170.945 351.97 176.341C362.501 181.736 357.396 181.071 357.396 181.071L356.438 303H265.485L271.867 179.418Z" fill="#F5F5F5"/>
<path d="M296.703 173.714C296.703 173.714 308.659 180.053 318.663 178.733C328.668 177.412 332.572 174.682 332.572 174.682C332.572 174.682 343.31 174.407 345.75 174.682C348.19 174.958 315.057 238.881 315.057 238.881L291.822 173.714H296.703Z" fill="white"/>
<path d="M299.469 157.94V173.249C299.469 173.249 304.591 185.266 318.098 185.422C331.604 185.578 333.933 176.058 333.933 176.058V156.394L299.469 157.94Z" fill="#F6C2B3"/>
<path d="M299.314 158.662V161.003C299.314 161.003 309.561 172.708 318.098 171.927C326.634 171.145 333.933 161.47 333.933 161.47V153.824L298.693 154.593L299.314 158.662Z" fill="#F1977E"/>
<path d="M282.241 127.019C282.241 127.019 281.292 146.228 294.916 156.306C308.539 166.385 312.321 169.239 318.564 168.479C322.418 168.009 331.743 161.241 338.321 156.125C342.903 152.56 346.327 147.705 348.157 142.178L350.536 135.003C350.536 135.003 355.455 129.298 355.455 127.016C355.455 124.734 356.593 117.887 353.752 117.126C350.911 116.366 349.401 83.8429 342.779 83.8429C336.157 83.8429 301.35 94.1167 294.348 94.1167C287.346 94.1167 282.97 95.8284 282.227 99.442C281.484 103.056 281.292 114.656 281.292 114.656C281.292 114.656 277.13 116.939 277.13 120.362C277.13 123.786 277.889 131.964 282.241 127.019Z" fill="#F6C2B3"/>
<path d="M301.996 126.676C304.655 126.676 306.81 124.509 306.81 121.836C306.81 119.163 304.655 116.996 301.996 116.996C299.336 116.996 297.181 119.163 297.181 121.836C297.181 124.509 299.336 126.676 301.996 126.676Z" fill="#50687A"/>
<path d="M330.915 126.676C333.574 126.676 335.73 124.509 335.73 121.836C335.73 119.163 333.574 116.996 330.915 116.996C328.256 116.996 326.101 119.163 326.101 121.836C326.101 124.509 328.256 126.676 330.915 126.676Z" fill="#50687A"/>
<path d="M308.277 108.873H293.11C292.53 108.873 292.059 109.346 292.059 109.93V112.525C292.059 113.108 292.53 113.581 293.11 113.581H308.277C308.857 113.581 309.328 113.108 309.328 112.525V109.93C309.328 109.346 308.857 108.873 308.277 108.873Z" fill="#451D14"/>
<path d="M337.912 109.139H322.746C322.165 109.139 321.695 109.612 321.695 110.195V112.79C321.695 113.374 322.165 113.847 322.746 113.847H337.912C338.493 113.847 338.963 113.374 338.963 112.79V110.195C338.963 109.612 338.493 109.139 337.912 109.139Z" fill="#451D14"/>
<path d="M281.379 130.058H282.843C282.843 130.058 281.818 116.675 282.843 114.611C283.868 112.547 286.206 107.843 286.352 104.755C286.498 101.667 287.376 97.9874 292.938 99.7528C298.499 101.518 312.109 99.7528 317.375 96.222C322.64 92.6911 337.132 87.6889 341.083 92.5432C341.083 92.5432 340.937 97.3983 344.156 101.959C347.376 106.52 347.376 129.618 348.255 130.06C349.133 130.502 352.791 121.232 353.23 119.909C353.67 118.585 365.523 75.6241 348.84 76.9484C348.84 76.9484 345.62 64.2963 330.912 65.0316C316.204 65.7668 299.962 71.6477 292.059 71.6477C284.156 71.6477 271.57 69.2968 272.594 78.565C273.619 87.8333 276.546 92.1003 276.546 92.1003C276.546 92.1003 274.498 93.8657 274.644 98.5738C274.79 103.282 281.379 130.058 281.379 130.058Z" fill="#451D14"/>
<path d="M301.59 138.521H331.225C331.225 138.521 329.162 153.039 317.459 153.453C301.996 154.002 301.449 140.629 301.59 138.521Z" fill="white"/>
<path d="M232.775 208.011H244.067C244.067 208.011 242.746 200.769 244.067 200.536C245.389 200.304 250.087 195.082 250.087 192.099C250.087 189.116 253.022 180.823 246.114 178.011C241.501 176.131 236.577 175.354 231.956 178.996C225.66 183.957 225.333 193.415 231.153 198.933C231.198 198.976 231.244 199.021 231.292 199.063L232.775 208.011Z" fill="#F6C2B3"/>
<path d="M299.134 173.161L314.812 235.731L335.559 173.161C335.559 173.161 347.139 173.629 347.621 175.213C348.104 176.798 350.999 198.868 350.999 198.868L338.454 204.446L342.796 217.784L315.056 238.884L284.418 220.041L288.278 203.961L276.454 200.081C276.454 200.081 282.971 177.994 289 175.213C295.028 172.433 299.134 173.161 299.134 173.161Z" fill="#E2E2E1"/>
<path d="M355.089 177.919V302.999H374.061C374.061 302.999 384.959 184.839 355.089 177.919Z" fill="#E2E2E1"/>
<path d="M250.706 217.756C250.706 217.756 258.682 179.909 273.041 179.267L269.934 248.535C269.698 253.803 265.008 257.739 259.813 257.006C249.104 255.499 233.133 250.115 231.244 231.549L228.373 203.324L248.472 203.966L250.706 217.756Z" fill="#E2E2E1"/>
<path d="M319.677 197.83C319.318 197.83 318.969 197.713 318.683 197.495C310.475 191.238 303.257 183.657 297.232 174.962C292.415 168.013 288.35 160.345 285.145 152.166C279.68 138.231 278.616 127.77 278.576 127.336C278.534 126.899 278.665 126.464 278.942 126.125C279.219 125.786 279.619 125.572 280.053 125.53C280.487 125.487 280.92 125.619 281.257 125.898C281.594 126.176 281.807 126.578 281.849 127.014C281.855 127.073 282.121 129.685 283.032 133.914C284.311 139.761 286.056 145.495 288.248 151.062C291.366 158.986 295.311 166.411 299.976 173.133C305.54 181.151 312.151 188.19 319.639 194.061C322.102 191.924 328.841 185.714 335.37 176.451C340.134 169.69 343.858 162.648 346.436 155.518C349.646 146.644 351.079 137.605 350.704 128.652C350.69 128.433 350.721 128.213 350.793 128.005C350.865 127.798 350.978 127.607 351.124 127.444C351.27 127.281 351.448 127.149 351.645 127.055C351.843 126.962 352.058 126.909 352.276 126.899C352.494 126.89 352.712 126.925 352.917 127.001C353.122 127.077 353.31 127.194 353.469 127.344C353.629 127.494 353.757 127.675 353.847 127.875C353.936 128.076 353.985 128.292 353.99 128.512C354.387 137.918 352.878 147.405 349.505 156.707C346.817 164.123 342.943 171.438 337.994 178.447C329.575 190.366 321.06 197.193 320.702 197.478C320.41 197.708 320.049 197.833 319.677 197.83Z" fill="#464646"/>
<path d="M282.621 216.649C268.759 216.649 255.19 209.611 242.259 195.706C241.961 195.386 241.802 194.96 241.817 194.522C241.831 194.084 242.019 193.669 242.337 193.37C242.656 193.071 243.08 192.911 243.516 192.926C243.951 192.94 244.364 193.129 244.661 193.449C257.417 207.165 270.694 213.851 284.124 213.313C288.782 213.127 293.478 212.062 298.079 210.143C301.783 208.601 305.437 206.507 308.94 203.92C314.908 199.509 318.36 195.189 318.394 195.146C318.529 194.976 318.695 194.834 318.884 194.729C319.073 194.624 319.281 194.557 319.496 194.533C319.71 194.508 319.927 194.527 320.135 194.587C320.342 194.647 320.536 194.747 320.705 194.882C320.874 195.018 321.015 195.185 321.119 195.375C321.224 195.565 321.29 195.773 321.315 195.989C321.339 196.205 321.321 196.423 321.261 196.632C321.201 196.841 321.101 197.035 320.967 197.205C320.816 197.395 317.201 201.916 310.888 206.583C307.174 209.328 303.29 211.553 299.342 213.198C294.38 215.264 289.305 216.414 284.258 216.615C283.711 216.639 283.165 216.649 282.621 216.649Z" fill="#464646"/>
<path d="M238.496 197.258C242.396 197.258 245.558 194.005 245.558 189.992C245.558 185.98 242.396 182.726 238.496 182.726C234.595 182.726 231.434 185.98 231.434 189.992C231.434 194.005 234.595 197.258 238.496 197.258Z" fill="#464646"/>
</svg>
