<svg width="16" height="16" viewBox="0 0 16 16" fill="none" xmlns="http://www.w3.org/2000/svg">
<g clip-path="url(#clip0_11505_36461)">
<path d="M8.00128 0C6.41878 0 4.87181 0.469266 3.55601 1.34846C2.24021 2.22765 1.21466 3.47728 0.609064 4.93932C0.00346653 6.40136 -0.154985 8.01015 0.153746 9.56225C0.462477 11.1143 1.22452 12.54 2.34352 13.659C3.46252 14.778 4.88821 15.5401 6.44031 15.8488C7.99241 16.1575 9.6012 15.9991 11.0632 15.3935C12.5253 14.7879 13.7749 13.7624 14.6541 12.4466C15.5333 11.1307 16.0026 9.58378 16.0026 8.00128C16.0005 5.87983 15.1569 3.84585 13.6568 2.34576C12.1567 0.845673 10.1227 0.00203172 8.00128 0ZM8.00128 1.27898C9.06889 1.28064 10.1207 1.53676 11.0696 2.02609C12.0184 2.51543 12.837 3.22388 13.4574 4.09273C12.3089 4.40224 11.5645 5.25148 10.8432 6.08281C10.0323 6.996 9.28026 7.89129 7.97826 7.8964H7.91943C6.64045 7.8964 5.89097 7.01135 5.09033 6.08026C4.38178 5.25659 3.65276 4.41759 2.53238 4.10296C3.15277 3.23031 3.97285 2.51868 4.9242 2.02743C5.87555 1.53618 6.93058 1.27956 8.00128 1.27898ZM1.27898 8.00128C1.27871 6.97895 1.51232 5.9701 1.96195 5.05196C3.24093 5.20799 4.04157 6.12118 4.80384 7.00879C5.36147 7.65851 5.93446 8.31846 6.69417 8.67658V14.5931C5.16911 14.2888 3.79642 13.466 2.80928 12.2643C1.82213 11.0627 1.28142 9.55639 1.27898 8.00128ZM7.74549 14.7159V8.94772H7.80432H8.1036H8.29289V14.7236C8.19569 14.7236 8.09848 14.7236 8.00128 14.7236L7.74549 14.7159ZM9.3263 14.5906V8.65356C9.3263 8.65356 9.3263 8.63309 9.3263 8.62542C10.0476 8.25452 10.6053 7.62526 11.1424 7.00368C11.9098 6.10839 12.7233 5.18241 14.0432 5.03405C14.4989 5.95797 14.736 6.97437 14.7359 8.00457C14.7359 9.03478 14.4989 10.0512 14.0431 10.9751C13.5873 11.899 12.9251 12.7056 12.1076 13.3326C11.2901 13.9595 10.3393 14.39 9.32886 14.5906H9.3263Z" fill="#BE5713"/>
</g>
<defs>
<clipPath id="clip0_11505_36461">
<rect width="16" height="16" fill="white"/>
</clipPath>
</defs>
</svg>
