<svg width="150" height="150" viewBox="0 0 150 150" fill="none" xmlns="http://www.w3.org/2000/svg">
<circle cx="75" cy="75" r="75" fill="#FFFAF7"/>
<mask id="mask0" mask-type="alpha" maskUnits="userSpaceOnUse" x="0" y="0" width="150" height="150">
<circle cx="75" cy="75" r="75" fill="#FCECE5"/>
</mask>
<g mask="url(#mask0)">
<g clip-path="url(#clip0)">
<path d="M64.6618 105.905L65.6545 113.765C62.9707 121.618 48.8236 123.251 44.4854 113.354L45.2206 104.846C50.3456 103.023 60.6471 102.64 64.6618 105.905Z" fill="#FFBE9F"/>
<path opacity="0.77" d="M45.2869 104.752L45.2134 105.561C47.0148 106.774 51.1546 109.237 55.1178 109.399C58.9266 109.539 62.8457 107.318 64.7281 106.075V105.818C63.8029 105.119 62.7557 104.597 61.6399 104.281H46.934C46.3384 104.414 45.8016 104.575 45.2869 104.752Z" fill="#F98D72"/>
<path d="M81.5368 58.4501C80.1471 46.8913 79.0074 40.6265 75.5295 31.4795C70.6398 25.5971 47.5883 22.3912 39.5 31.1045C34.8383 41.2662 33.6618 44.2736 31.2354 58.4868C29.8604 106.84 72.8971 131.891 81.5368 58.4501Z" fill="#FFBE9F"/>
<path d="M81.941 61.883C81.8013 60.6771 81.6689 59.5522 81.5366 58.4492C80.5145 62.8095 79.3969 67.4345 78.7351 69.6698C77.2955 75.0761 75.2507 80.3027 72.6395 85.2507C70.0366 83.3683 63.1836 76.7212 60.8748 78.0374C55.8234 80.9786 55.6689 80.2433 51.7278 78.2139C49.6248 77.1404 50.1175 76.8462 39.4483 85.2507C34.9925 73.6624 32.4484 68.7727 31.1836 58.486C30.9336 59.9198 30.6763 61.4272 30.4042 63.1404C28.2645 77.0448 31.8748 100.398 45.2278 104.846C52.3895 107.236 53.6469 107.236 63.441 106.104C81.4631 104.03 83.9263 69.5521 81.941 61.883ZM45.9116 92.0962C51.566 83.7433 49.441 86.4566 56.1248 86.758C62.0072 87.0228 60.2572 82.6771 68.0219 92.0962C62.4337 96.4051 52.2572 97.8095 45.8822 92.0962H45.9116Z" fill="#313131"/>
<path d="M30.4339 63.1407C34.6765 58.4495 39.478 35.1995 39.478 31.1039C31.2354 25.4348 14.581 47.2877 30.4339 63.1407Z" fill="#313131"/>
<path d="M75.5292 31.4795C74.0586 36.8251 78.9851 57.4502 81.9409 61.884C93.8674 55.4869 87.6468 23.2295 75.5292 31.4795Z" fill="#313131"/>
<path d="M78.9262 116.971C83.3012 115.588 94.3306 151.169 103.831 181.257L90.5439 190.206L78.9262 165.427C77.7277 156.478 76.7865 125.007 78.9262 116.971Z" fill="#6FAEB4"/>
<path d="M28.9269 116.464C22.9931 115.302 7.94159 137.052 13.8534 191.714C17.5298 192.898 21.2872 192.979 25.1989 192.751C27.3239 180.221 31.4489 126.832 28.9269 116.464Z" fill="#6FAEB4"/>
<path d="M44.5 113.354C44.5 124.537 47.0882 135.706 53.8015 153.567C59.7721 141.684 65.6544 124.354 65.6544 113.765C61.1765 117.346 51.1397 117.824 44.5 113.354Z" fill="white"/>
<path d="M78.9266 116.972C77.1054 116.151 75.2127 115.498 73.2721 115.023L53.8016 150.2C49.581 160.531 48.1766 224.501 51.0957 232.104C52.3972 234.369 74.0883 234.045 75.5957 233.987C78.6619 233.876 77.7133 236.928 78.9266 168.663C79.0516 161.568 78.9266 116.972 78.9266 116.972Z" fill="#91C1C6"/>
<path d="M75.3454 128.464L73.2719 115.023C73.2719 114.523 67.9042 113.074 65.6689 113.766L53.8013 150.199L70.441 139.265L67.6836 131.317L75.3454 128.464Z" fill="#6FAEB4"/>
<path d="M37.4705 114.266C34.5293 114.582 28.9263 116.472 28.9263 116.472C23.2351 236.501 22.3749 232.413 26.6028 232.736C28.1102 232.854 48.8969 234.56 51.0955 232.111L53.8013 150.207L37.4705 114.266Z" fill="#91C1C6"/>
<path d="M37.4706 114.266L31 129.531L38.2868 131.354L35.7721 141.281L53.8015 150.2L44.5 113.354C43.1544 112.634 38.5662 113.237 37.4706 114.266Z" fill="#6FAEB4"/>
<path d="M46.7573 67.788C48.6172 67.788 50.1249 66.2803 50.1249 64.4204C50.1249 62.5605 48.6172 61.0527 46.7573 61.0527C44.8974 61.0527 43.3896 62.5605 43.3896 64.4204C43.3896 66.2803 44.8974 67.788 46.7573 67.788Z" fill="#4D677A"/>
<path d="M50.0212 54.1549L41.7038 56.5729C40.8108 56.8325 40.2974 57.7669 40.557 58.6598C40.8166 59.5528 41.7509 60.0663 42.6439 59.8067L50.9613 57.3886C51.8543 57.129 52.3678 56.1947 52.1082 55.3017C51.8486 54.4087 50.9142 53.8953 50.0212 54.1549Z" fill="#471C0E"/>
<path d="M66.6396 67.788C68.4995 67.788 70.0073 66.2803 70.0073 64.4204C70.0073 62.5605 68.4995 61.0527 66.6396 61.0527C64.7797 61.0527 63.272 62.5605 63.272 64.4204C63.272 66.2803 64.7797 67.788 66.6396 67.788Z" fill="#4D677A"/>
<path d="M70.649 56.2784L61.9969 56.688C61.068 56.7319 60.3506 57.5206 60.3946 58.4495C60.4385 59.3784 61.2272 60.0958 62.1561 60.0519L70.8082 59.6423C71.7371 59.5984 72.4545 58.8097 72.4105 57.8807C72.3665 56.9518 71.5779 56.2345 70.649 56.2784Z" fill="#471C0E"/>
</g>
</g>
<defs>
<clipPath id="clip0">
<rect width="128.779" height="268.287" fill="white" transform="translate(12.5 25.7363)"/>
</clipPath>
</defs>
</svg>
