<svg width="150" height="150" viewBox="0 0 150 150" fill="none" xmlns="http://www.w3.org/2000/svg">
<circle cx="75" cy="75" r="75" fill="#FFFAF7"/>
<mask id="mask0" style="mask-type:alpha" maskUnits="userSpaceOnUse" x="0" y="0" width="150" height="150">
<circle cx="75" cy="75" r="75" fill="#FFFAF7"/>
</mask>
<g mask="url(#mask0)">
<path d="M27.7517 39.572C27.7517 39.572 10.5342 65.6326 20.367 92.5076C30.1999 119.383 14.9485 117.987 15.5052 126.363C16.0618 134.74 86.0163 128.545 86.0163 128.545C86.0163 128.545 80.3483 110.452 82.8611 102.513C85.3739 94.5738 85.4217 54.1147 77.5172 42.0151C69.6126 29.9156 27.7517 39.572 27.7517 39.572Z" fill="#C66F40"/>
<path d="M41.1118 104.145C41.1118 104.145 41.3345 112.289 36.3245 113.918C31.3146 115.547 35.4339 125.319 49.4617 126.715C63.4896 128.111 69.3902 116.477 66.6069 114.732C63.8236 112.987 62.8728 109.25 62.3763 106.588C61.8797 103.926 41.1118 104.145 41.1118 104.145Z" fill="#F6C0A4"/>
<path d="M40.8848 90.8812L40.9961 102.399L41.4414 114.615C41.4414 114.615 50.9047 121.146 61.8731 114.416L62.3719 108.798L62.2605 87.9727L40.8848 90.8812Z" fill="#F6C0A4"/>
<path d="M40.8848 93.9048L40.9961 98.7911C40.9961 98.7911 46.035 105.401 51.9523 105.218C57.8696 105.035 62.2605 98.5585 62.2605 98.5585L62.1492 92.625L40.8848 93.9048Z" fill="#ED9C82"/>
<path d="M27.9432 77.7953L27.9365 77.7592C27.9365 77.7592 25.4994 76.8494 24.2815 71.2115C23.0635 65.5735 26.0216 65.5735 26.0216 65.5735C26.0216 65.5735 23.7871 59.1898 25.7021 47.5405C27.617 35.8912 73.2152 42.6344 76.8703 45.3626C80.5253 48.0908 75.6222 65.2094 75.6222 65.2094C75.6222 65.2094 79.451 60.8442 78.5803 69.2104C77.7097 77.5765 74.2295 77.936 74.2295 77.936C74.2295 77.936 72.0596 86.0858 68.497 90.7674C60.4254 101.371 56.305 102.495 50.9065 102.495C45.508 102.495 36.99 94.31 36.99 94.31L36.2107 93.5177C32.0098 89.2608 29.1295 83.7833 27.9432 77.7953Z" fill="#F6C0A4"/>
<path d="M67.7962 65.4704L65.102 64.5397C64.4997 64.4292 55.6031 63.9964 55.7099 63.3658L55.9326 62.0744C55.9839 61.7707 56.1486 61.5007 56.3903 61.3237C56.6321 61.1468 56.9312 61.0774 57.2218 61.1309L67.028 62.9353C67.3187 62.989 67.577 63.161 67.7464 63.4136C67.9157 63.6663 67.982 63.9788 67.9309 64.2826L67.7082 65.5728L67.7962 65.4704Z" fill="#A3593A"/>
<path d="M41.6864 73.5709C43.5126 73.5709 44.993 72.0239 44.993 70.1155C44.993 68.2072 43.5126 66.6602 41.6864 66.6602C39.8603 66.6602 38.3799 68.2072 38.3799 70.1155C38.3799 72.0239 39.8603 73.5709 41.6864 73.5709Z" fill="#527770"/>
<path d="M61.7021 73.5709C63.5283 73.5709 65.0087 72.0239 65.0087 70.1155C65.0087 68.2072 63.5283 66.6602 61.7021 66.6602C59.8759 66.6602 58.3955 68.2072 58.3955 70.1155C58.3955 72.0239 59.8759 73.5709 61.7021 73.5709Z" fill="#527770"/>
<path d="M41.3389 82.25H61.2016C61.2016 82.25 59.7877 93.0361 50.9112 92.4881C42.0347 91.9401 41.3389 82.25 41.3389 82.25Z" fill="white"/>
<path d="M63.7181 46.4151C66.5905 46.7909 76.1072 78.1265 76.646 72.3094C77.1848 66.4923 81.7907 62.3307 80.0784 49.6971C78.3661 37.0635 66.2732 28.6392 55.5853 28.8719C43.6839 29.1313 28.2321 34.1724 25.8596 43.4147C23.4103 52.9547 24.0349 63.3091 25.1126 64.0537C26.1903 64.7983 27.0999 75.2598 27.0999 75.2598C27.0999 75.2598 29.7807 71.559 29.7807 67.2438C29.7807 62.9287 31.2147 55.6492 43.7841 50.3952L63.7181 46.4151Z" fill="#C66F40"/>
<path d="M35.7012 65.4317L38.3954 64.501C38.9989 64.3846 47.8943 63.9565 47.7874 63.3259L47.5659 62.0275C47.5146 61.7238 47.3499 61.4538 47.1082 61.2769C46.8664 61.0999 46.5673 61.0306 46.2767 61.084L36.4705 62.8873C36.1799 62.9409 35.9215 63.113 35.7522 63.3656C35.5829 63.6182 35.5165 63.9308 35.5676 64.2345L35.7847 65.5259L35.7012 65.4317Z" fill="#A3593A"/>
<path d="M71.1513 150.578C71.2972 149.482 71.5967 146.739 71.7559 141.884C71.7922 140.746 71.8193 139.489 71.8371 138.114C71.8672 135.619 71.4965 132.655 70.9398 129.654C70.6715 128.216 70.3609 126.769 70.0302 125.36C69.5415 123.275 69.0093 121.274 68.5094 119.512C67.4239 115.686 66.4932 112.984 66.4932 112.984C66.34 113.418 66.1538 113.838 65.9365 114.241C64.7508 116.443 63.0325 118.282 60.9533 119.573C60.4229 119.906 59.8738 120.205 59.3089 120.469C57.4497 121.338 55.1484 121.961 52.3128 122.082C49.3695 122.221 46.4277 121.775 43.6434 120.769C43.1283 120.581 42.6339 120.381 42.1604 120.168C38.0066 118.307 35.5083 115.679 34.8437 114.92C34.7245 114.784 34.6644 114.709 34.6644 114.709C34.6644 114.873 34.6555 115.039 34.6533 115.208C34.6332 116.228 34.6344 117.333 34.6533 118.504C34.6533 118.663 34.6589 118.824 34.6622 118.986C34.7379 122.537 34.9739 126.634 35.2745 130.687C35.3859 132.249 35.515 133.806 35.6441 135.323C35.7555 136.65 35.8735 137.944 35.9893 139.187C36.4847 144.517 36.969 148.872 37.1516 150.479L71.1513 150.578Z" fill="white"/>
<path d="M39.0001 109.859C39.0001 109.859 10.4779 122.519 8.34254 127.122C6.20719 131.726 1.47559 151.146 1.47559 151.146L51.3524 150.215L39.0001 109.859Z" fill="#EDEDED"/>
<path d="M63.9921 109.859C63.9921 109.859 92.8604 122.519 95.0214 127.122C97.1823 131.726 101.968 151.146 101.968 151.146L51.3525 150.215L63.9921 109.859Z" fill="#EDEDED"/>
<path d="M31.7295 112.987L40.4401 108.566L51.3507 150.217C51.3507 150.217 33.6756 138.106 34.1632 137.419C34.6509 136.733 40.1184 129.289 39.3324 128.179C38.5464 127.069 31.7295 112.987 31.7295 112.987Z" fill="#C4C6C6"/>
<path d="M74.8465 121.656C74.7234 121.656 74.6033 121.617 74.5016 121.545C74.3999 121.472 74.3214 121.37 74.2765 121.25C70.7851 111.962 66.3475 110.492 66.3029 110.478C66.1501 110.429 66.0217 110.319 65.9454 110.172C65.869 110.025 65.8507 109.853 65.8943 109.692C65.938 109.531 66.0401 109.394 66.1789 109.311C66.3176 109.228 66.4821 109.205 66.6369 109.247C66.8407 109.306 71.6736 110.828 75.4154 120.782C75.4519 120.879 75.4651 120.984 75.4539 121.088C75.4427 121.191 75.4076 121.291 75.3514 121.377C75.2952 121.463 75.2197 121.533 75.1315 121.582C75.0434 121.631 74.9451 121.656 74.8454 121.656H74.8465Z" fill="#494D56"/>
<path d="M71.61 113.379L62.5987 107.871L51.5078 150.328C51.5078 150.328 69.3377 138.461 68.8589 137.763C68.3802 137.065 63.0107 129.549 63.81 128.455C64.6094 127.362 71.61 113.379 71.61 113.379Z" fill="#C4C6C6"/>
<path d="M79.3334 123.223C78.2702 121.594 76.7784 120.664 74.898 120.468C73.1167 120.283 71.7183 120.84 70.7475 122.126C68.8605 124.626 68.6912 129.866 70.2432 137.7C70.8388 140.702 71.5792 143.533 72.1626 145.557C72.0624 145.746 71.9875 145.949 71.9399 146.159C71.8111 146.824 71.847 147.513 72.0444 148.159C72.2418 148.806 72.594 149.389 73.0677 149.854C73.4058 150.18 73.8448 150.368 74.3046 150.383C74.4556 150.384 74.6059 150.36 74.7499 150.312C75.2921 150.131 75.6984 149.625 75.8632 148.923C75.992 148.258 75.9561 147.569 75.7587 146.923C75.5613 146.276 75.2091 145.693 74.7354 145.228C74.2255 144.769 73.6333 144.6 73.1022 144.763C72.5533 142.808 71.8831 140.213 71.3387 137.47C69.8769 130.093 69.9771 125.039 71.6282 122.852C72.3574 121.885 73.3928 121.486 74.7944 121.632C76.3531 121.793 77.5377 122.53 78.4183 123.883C81.461 128.554 79.8656 139.039 78.7022 144.636C78.4205 144.667 78.072 144.813 77.6902 145.208C76.855 146.159 76.4004 147.408 76.4199 148.699C76.4811 149.69 76.9598 150.025 77.2404 150.135C77.3652 150.185 77.4976 150.21 77.6312 150.21C77.9318 150.21 78.3281 150.087 78.7679 149.628C79.6039 148.678 80.059 147.429 80.0393 146.138C80.0313 145.78 79.9275 145.432 79.7398 145.133C80.1116 143.367 80.5369 141.084 80.8442 138.641C81.756 131.35 81.2506 126.163 79.3334 123.223Z" fill="#4B505B"/>
<path d="M40.5553 108.294C40.5219 108.218 40.4743 108.149 40.4154 108.092C40.3564 108.035 40.2872 107.99 40.2118 107.961C40.1364 107.932 40.0562 107.919 39.9759 107.922C39.8956 107.926 39.8167 107.946 39.7437 107.981C39.5444 108.077 34.8184 110.391 30.8605 115.484C28.5315 118.487 26.9561 121.825 26.1935 125.421C25.295 129.639 25.5155 134.202 26.8459 138.998C25.903 139.461 25.1569 140.272 24.7504 141.274C24.3439 142.276 24.3056 143.4 24.6429 144.43C24.9803 145.46 25.6695 146.324 26.5785 146.856C27.4875 147.388 28.5524 147.551 29.5691 147.313C30.5858 147.076 31.4829 146.454 32.0884 145.568C32.6939 144.682 32.9653 143.594 32.8505 142.512C32.7358 141.43 32.243 140.43 31.4666 139.704C30.6901 138.978 29.6846 138.577 28.6428 138.578C28.4334 138.578 28.2242 138.595 28.0171 138.627C26.7513 134.057 26.5364 129.722 27.3814 125.729C28.0984 122.337 29.5791 119.174 31.7813 116.33C35.5543 111.455 40.2013 109.169 40.2559 109.142C40.3289 109.107 40.3945 109.057 40.4491 108.996C40.5037 108.934 40.5461 108.862 40.5739 108.783C40.6017 108.704 40.6144 108.621 40.6112 108.537C40.608 108.453 40.589 108.37 40.5553 108.294Z" fill="#4B505B"/>
</g>
</svg>
