<svg width="204" height="204" viewBox="0 0 204 204" fill="none" xmlns="http://www.w3.org/2000/svg">
<circle cx="102" cy="102" r="102" fill="#FFFAF7"/>
<mask id="mask0" mask-type="alpha" maskUnits="userSpaceOnUse" x="0" y="0" width="204" height="204">
<circle cx="102" cy="102" r="102" fill="#FCECE5"/>
</mask>
<g mask="url(#mask0)">
<g clip-path="url(#clip0)">
<path d="M87.94 144.03L89.29 154.72C85.64 165.4 66.4 167.62 60.5 154.16L61.5 142.59C68.47 140.11 82.48 139.59 87.94 144.03Z" fill="#FFBE9F"/>
<path opacity="0.77" d="M61.5902 142.46L61.4902 143.56C63.9402 145.21 69.5702 148.56 74.9602 148.78C80.1402 148.97 85.4702 145.95 88.0302 144.26V143.91C86.772 142.959 85.3478 142.25 83.8302 141.82H63.8302C63.0202 142 62.2902 142.22 61.5902 142.46Z" fill="#F98D72"/>
<path d="M110.889 79.49C108.999 63.77 107.449 55.25 102.719 42.81C96.0694 34.81 64.7194 30.45 53.7194 42.3C47.3794 56.12 45.7794 60.21 42.4794 79.54C40.6094 145.3 99.1394 179.37 110.889 79.49Z" fill="#FFBE9F"/>
<path d="M111.44 84.1602C111.25 82.5202 111.071 80.9902 110.891 79.4902C109.501 85.4202 107.981 91.7102 107.081 94.7502C105.123 102.103 102.342 109.211 98.7905 115.94C95.2505 113.38 85.9305 104.34 82.7905 106.13C75.9205 110.13 75.7105 109.13 70.3505 106.37C67.4905 104.91 68.1605 104.51 53.6505 115.94C47.5905 100.18 44.1305 93.5302 42.4105 79.5402C42.0705 81.4902 41.7205 83.5402 41.3505 85.8702C38.4405 104.78 43.3505 136.54 61.5105 142.59C71.2505 145.84 72.9605 145.84 86.2805 144.3C110.79 141.48 114.14 94.5902 111.44 84.1602ZM62.4405 125.25C70.1305 113.89 67.2405 117.58 76.3305 117.99C84.3305 118.35 81.9505 112.44 92.5105 125.25C84.9105 131.11 71.0705 133.02 62.4005 125.25H62.4405Z" fill="#313131"/>
<path d="M41.3898 85.871C47.1598 79.491 53.6898 47.871 53.6898 42.301C42.4798 34.591 19.8298 64.311 41.3898 85.871Z" fill="#313131"/>
<path d="M102.72 42.8099C100.72 50.0799 107.42 78.1299 111.44 84.1599C127.66 75.4599 119.2 31.5899 102.72 42.8099Z" fill="#313131"/>
<path d="M107.341 159.08C113.291 157.2 128.291 205.59 141.211 246.51L123.141 258.68L107.341 224.98C105.711 212.81 104.431 170.01 107.341 159.08Z" fill="#6FAEB4"/>
<path d="M39.3392 158.39C31.2692 156.81 10.7992 186.39 18.8392 260.73C23.8392 262.34 28.9492 262.45 34.2692 262.14C37.1592 245.1 42.7692 172.49 39.3392 158.39Z" fill="#6FAEB4"/>
<path d="M60.5195 154.16C60.5195 169.37 64.0395 184.56 73.1695 208.85C81.2895 192.69 89.2895 169.12 89.2895 154.72C83.1995 159.59 69.5495 160.24 60.5195 154.16Z" fill="white"/>
<path d="M107.34 159.08C104.863 157.963 102.289 157.076 99.6497 156.43L73.1697 204.27C67.4297 218.32 65.5197 305.32 69.4897 315.66C71.2597 318.74 100.76 318.3 102.81 318.22C106.98 318.07 105.69 322.22 107.34 229.38C107.51 219.73 107.34 159.08 107.34 159.08Z" fill="#91C1C6"/>
<path d="M102.47 174.71L99.6499 156.43C99.6499 155.75 92.3499 153.78 89.3099 154.72L73.1699 204.27L95.7999 189.4L92.0499 178.59L102.47 174.71Z" fill="#6FAEB4"/>
<path d="M50.9592 155.4C46.9592 155.83 39.3392 158.4 39.3392 158.4C31.5992 321.64 30.4292 316.08 36.1792 316.52C38.2292 316.68 66.4992 319 69.4892 315.67L73.1692 204.28L50.9592 155.4Z" fill="#91C1C6"/>
<path d="M50.9602 155.399L42.1602 176.159L52.0702 178.639L48.6501 192.139L73.1702 204.269L60.5202 154.159C58.6902 153.179 52.4502 153.999 50.9602 155.399Z" fill="#6FAEB4"/>
<path d="M63.5898 92.1893C66.1192 92.1893 68.1698 90.1388 68.1698 87.6093C68.1698 85.0798 66.1192 83.0293 63.5898 83.0293C61.0603 83.0293 59.0098 85.0798 59.0098 87.6093C59.0098 90.1388 61.0603 92.1893 63.5898 92.1893Z" fill="#4D677A"/>
<path d="M68.0282 73.6504L56.7165 76.9388C55.5021 77.2919 54.8038 78.5626 55.1568 79.7771C55.5099 80.9915 56.7806 81.6898 57.9951 81.3367L69.3068 78.0482C70.5212 77.6952 71.2195 76.4245 70.8665 75.21C70.5134 73.9956 69.2427 73.2973 68.0282 73.6504Z" fill="#471C0E"/>
<path d="M90.6308 92.1893C93.1602 92.1893 95.2108 90.1388 95.2108 87.6093C95.2108 85.0798 93.1602 83.0293 90.6308 83.0293C88.1013 83.0293 86.0508 85.0798 86.0508 87.6093C86.0508 90.1388 88.1013 92.1893 90.6308 92.1893Z" fill="#4D677A"/>
<path d="M96.0816 76.5379L84.3148 77.0949C83.0515 77.1546 82.0758 78.2272 82.1356 79.4905C82.1954 80.7539 83.268 81.7295 84.5313 81.6697L96.2982 81.1128C97.5615 81.053 98.5371 79.9803 98.4773 78.717C98.4175 77.4537 97.3449 76.4781 96.0816 76.5379Z" fill="#471C0E"/>
</g>
</g>
<defs>
<clipPath id="clip0">
<rect width="175.14" height="364.87" fill="white" transform="translate(17 35)"/>
</clipPath>
</defs>
</svg>
