<svg width="22" height="20" viewBox="0 0 22 20" fill="none" xmlns="http://www.w3.org/2000/svg">
<path d="M2.70703 0.292969L1.29297 1.70703L5.29297 5.70703L4 7H2C0.895 7 0 7.895 0 9V11C0 12.105 0.895 13 2 13H4L10 19V10.4141L19.293 19.707L20.707 18.293L2.70703 0.292969ZM10 1L8.11914 2.88086L10 4.76172V1ZM18.4844 1.51562L17.0703 2.92969C18.9593 4.81769 20 7.329 20 10C20 11.381 19.7175 12.7163 19.1875 13.9473L20.6875 15.4492C21.5405 13.7822 22 11.927 22 10C22 6.795 20.7514 3.78163 18.4844 1.51562ZM15.6562 4.34375L14.2422 5.75781C15.5882 7.10381 16.1346 8.93241 15.9316 10.6914L17.6289 12.3906C18.4849 9.64062 17.8302 6.51775 15.6562 4.34375Z" fill="#1A1919"/>
</svg>
