<svg width="22" height="18" viewBox="0 0 22 18" fill="none" xmlns="http://www.w3.org/2000/svg">
<path d="M10 0L4 6H2C0.895 6 0 6.895 0 8V10C0 11.105 0.895 12 2 12H4L10 18V0ZM18.4844 0.515625L17.0703 1.92969C20.9842 5.84355 20.984 12.1575 17.0703 16.0703L18.4844 17.4844C23.1626 12.8072 23.1625 5.19376 18.4844 0.515625ZM15.6562 3.34375L14.2422 4.75781C16.5941 7.10972 16.5939 10.8913 14.2422 13.2422L15.6562 14.6562C18.7725 11.5411 18.7723 6.45984 15.6562 3.34375ZM12.8281 6.17188L11.4141 7.58594C12.2042 8.37603 12.2042 9.62397 11.4141 10.4141L12.8281 11.8301C14.382 10.2762 14.382 7.72579 12.8281 6.17188Z" fill="#1A1919"/>
</svg>
