<svg width="14" height="14" viewBox="0 0 14 14" fill="none" xmlns="http://www.w3.org/2000/svg">
<path fill-rule="evenodd" clip-rule="evenodd" d="M0 7C0 3.134 3.134 0 7 0C10.866 0 14 3.134 14 7C14 10.866 10.866 14 7 14C3.134 14 0 10.866 0 7ZM7.00001 3.26667C7.18095 3.26667 7.34558 3.37126 7.42245 3.53505L8.32615 5.46033L10.3371 5.76737C10.51 5.79377 10.6536 5.91465 10.7092 6.08053C10.7647 6.2464 10.7229 6.4294 10.6007 6.55459L9.13185 8.06001L9.47959 10.1915C9.50833 10.3679 9.43385 10.5453 9.2878 10.6481C9.1417 10.7511 8.94966 10.7615 8.79325 10.6751L7.00001 9.6838L5.20677 10.6751C5.05037 10.7615 4.85832 10.7511 4.71222 10.6481C4.56613 10.5453 4.49165 10.3679 4.52042 10.1915L4.86817 8.06001L3.39933 6.55459C3.27718 6.4294 3.23529 6.2464 3.29082 6.08053C3.34636 5.91465 3.48999 5.79377 3.6629 5.76737L5.67388 5.46033L6.57756 3.53505C6.65444 3.37126 6.81907 3.26667 7.00001 3.26667Z" fill="#5E5A5A"/>
</svg>
