<svg width="15" height="15" viewBox="0 0 15 15" fill="none" xmlns="http://www.w3.org/2000/svg">
<path d="M11.7088 14.099C11.7042 14.099 11.6995 14.099 11.6948 14.099C9.4401 14.0252 6.79869 11.8396 4.97877 10.0185C3.15651 8.19742 0.970959 5.55484 0.900646 3.3107C0.874865 2.5232 2.80729 1.12281 2.82721 1.10875C3.32877 0.759531 3.88541 0.88375 4.11393 1.20016C4.26862 1.41461 5.73346 3.63414 5.89283 3.88609C6.05807 4.14742 6.03346 4.53648 5.82721 4.92672C5.71354 5.14352 5.33619 5.8068 5.15924 6.11617C5.35026 6.38805 5.85533 7.05484 6.8983 8.09781C7.94244 9.14078 8.60807 9.64703 8.88111 9.83805C9.19049 9.66109 9.85377 9.28375 10.0706 9.17008C10.4549 8.96617 10.8417 8.94039 11.1053 9.10211C11.3749 9.26734 13.5885 10.7392 13.7924 10.881C13.9635 11.0017 14.0737 11.208 14.096 11.4482C14.1171 11.6908 14.0421 11.9474 13.8862 12.1713C13.8733 12.19 12.4893 14.099 11.7088 14.099Z" fill="#635D58"/>
</svg>
