<svg width="347" height="312" viewBox="0 0 347 312" fill="none" xmlns="http://www.w3.org/2000/svg" xmlns:xlink="http://www.w3.org/1999/xlink">
<path d="M91.5895 198.635C91.5895 198.635 80.4245 199.762 82.8091 194.946C85.1936 190.13 77.2893 190.148 79.5363 186.106C81.7833 182.065 73.7125 180.963 75.3392 177.465C76.9659 173.966 69.4804 170.86 73.3673 167.144C77.2543 163.429 69.6903 156.382 76.097 152.953C82.5038 149.525 75.3525 143.246 81.6421 142.282C87.9318 141.317 87.2608 136.692 93.2765 134.922C99.2923 133.152 95.4765 124.321 104.06 127.807C112.644 131.292 120.936 124.404 122.293 130.47C123.651 136.535 126.84 129.009 130.006 136.369C133.171 143.729 140.475 142.819 139.012 147.546C137.548 152.274 144.709 162.614 141.856 163.405C139.003 164.196 147.314 166.231 143.987 171.413C140.66 176.596 148.523 183 141.359 184.459C134.194 185.919 139.582 192.251 132.735 192.328C125.888 192.405 130.871 200.012 122.275 198.577C113.679 197.142 114.297 200.391 110.614 198.584C106.931 196.777 109.606 206.985 104.139 202.169C98.6708 197.354 95.9495 201.819 93.7749 200.219C91.6003 198.619 91.5895 198.635 91.5895 198.635Z" fill="#6E6E6E"/>
<path d="M105.385 203.688C105.385 203.688 106.627 210.449 102.46 212.477C98.2928 214.504 103.148 222.108 115.581 221.386C128.014 220.664 131.672 210.177 129.016 209.095C126.36 208.013 125.05 205.023 124.274 202.871C123.499 200.718 105.385 203.688 105.385 203.688Z" fill="#F6C0A4"/>
<path d="M103.485 192.657L105.064 202.246L107.024 212.374C107.024 212.374 116.132 216.551 124.844 209.47L124.558 204.718L121.782 187.365L103.485 192.657Z" fill="#F6C0A4"/>
<path d="M103.875 195.186L104.599 199.245C104.599 199.245 109.85 204.082 114.995 203.136C120.141 202.191 123.143 196.202 123.143 196.202L122.283 191.266L103.875 195.186Z" fill="#B28D7C"/>
<path d="M90.4986 183.478C90.4914 183.459 90.4865 183.448 90.4865 183.448C90.4865 183.448 88.2419 183.016 86.4523 178.478C84.6627 173.941 87.2488 173.542 87.2488 173.542C87.2488 173.542 84.4732 168.518 84.6518 158.551C84.8304 148.583 123.489 142.875 127.033 144.661C130.578 146.446 130.533 166.591 130.533 166.591C130.533 166.591 133.316 162.438 133.632 169.531C133.948 176.623 130.953 177.395 130.953 177.395C130.953 177.395 130.108 184.478 127.592 188.86C121.906 198.784 118.451 200.272 113.737 200.996C109.024 201.719 100.523 196.037 100.523 196.037L99.74 195.48C95.5235 192.494 92.3038 188.313 90.4986 183.478Z" fill="#F6C0A4"/>
<path d="M123.724 163.376L121.25 162.957C120.709 162.945 112.883 163.777 112.896 163.236L112.918 162.131C112.924 161.871 113.034 161.623 113.222 161.443C113.41 161.262 113.663 161.164 113.924 161.168L122.721 161.358C122.982 161.364 123.23 161.473 123.411 161.661C123.592 161.849 123.691 162.101 123.686 162.361L123.662 163.468L123.724 163.376Z" fill="#6E6E6E"/>
<path d="M102.771 185.398L120.121 182.736C120.121 182.736 120.272 191.921 112.449 192.656C104.625 193.39 102.771 185.398 102.771 185.398Z" fill="white"/>
<path d="M115.275 148.316C116.555 148.094 117.872 148.28 119.039 148.848C120.207 149.417 121.164 150.338 121.776 151.481C125.959 159.307 132.545 176.184 132.332 172.378C132.054 167.455 135.543 163.367 132.423 153.061C129.304 142.755 117.657 137.349 108.351 138.975C97.9894 140.787 85.1398 147.06 84.2553 155.087C83.3417 163.37 85.135 173.235 86.1716 173.717C87.2082 174.198 89.4299 181.477 89.4299 181.477C89.4299 181.477 91.2955 178.032 90.7416 174.432C90.1877 170.832 86.6724 161.955 96.9758 155.885L115.275 148.316Z" fill="#6E6E6E"/>
<path d="M92.528 170.006L94.7605 168.865C95.2721 168.691 102.987 167.138 102.813 166.628L102.458 165.58C102.374 165.334 102.195 165.131 101.962 165.016C101.728 164.901 101.458 164.882 101.211 164.965L92.8767 167.783C92.6302 167.868 92.4271 168.046 92.3118 168.279C92.1965 168.513 92.1783 168.782 92.2613 169.028L92.6233 170.076L92.528 170.006Z" fill="#6E6E6E"/>
<path d="M102.502 212.732L83.4196 217.256L84.2728 257.594C84.5004 268.408 82.4018 279.146 78.1183 289.083L72 303.276L157.715 304.715L146.74 207.507L126.488 207.246L118.325 223.185L102.502 212.732Z" fill="#AAA988"/>
<path d="M102.46 212.482L118.009 221.134L126.488 207.247L130.515 207.205L118.94 225.752L98.917 213.279L102.46 212.482Z" fill="#E5E2C5"/>
<path d="M75.0244 243.725C75.0244 243.725 85.5824 293.023 109.126 301.406C127.51 307.951 110.937 295.781 104.389 287.095C97.8407 278.409 89.8966 247.273 89.8966 247.273L77.6721 243.318L75.0244 243.725Z" fill="#F6C0A4"/>
<path d="M86.1726 173.717C86.1726 173.717 73.8491 147.793 105.923 142.719C137.996 137.646 133.147 166.397 133.147 166.397C133.147 166.397 130.569 141.995 105.247 146.653C81.9598 150.936 86.1726 173.717 86.1726 173.717Z" fill="#D9D48B"/>
<path d="M86.0955 216.328C86.0955 216.328 75.5762 216.335 76.0951 229.409C76.614 242.483 72.0029 250.017 72.0029 250.017L89.8956 247.272L86.0955 216.328Z" fill="#928F64"/>
<path d="M162.069 233.574C162.069 233.574 152.064 293.495 127.12 296.765C102.176 300.035 125.379 290.659 132.068 281.122C138.757 271.586 147.124 237.631 147.124 237.631L159.433 233.168L162.069 233.574Z" fill="#F6C0A4"/>
<path d="M143.781 207.451C143.781 207.451 154.023 205.053 156.52 217.898C159.017 230.743 165.235 237.023 165.235 237.023L147.188 238.44L143.781 207.451Z" fill="#928F64"/>
<path d="M102.883 298.403C102.883 298.403 111.376 312.028 115.852 311.999C120.328 311.971 121.432 302.127 112.274 294.004C103.116 285.881 102.883 298.403 102.883 298.403Z" fill="#F6C0A4"/>
<path d="M129.6 296.228C129.6 296.228 118.647 310.434 114.171 310.412C109.695 310.389 108.591 300.539 117.749 292.417C126.907 284.296 129.6 296.228 129.6 296.228Z" fill="#F6C0A4"/>
<path d="M102.082 183.53C100.567 183.906 98.9744 183.826 97.5052 183.3C96.0361 182.774 94.7564 181.825 93.828 180.573C92.8996 179.321 92.3641 177.822 92.2893 176.267C92.2146 174.711 92.6038 173.168 93.4079 171.834C94.212 170.499 95.3948 169.432 96.8067 168.768C98.2186 168.103 99.7962 167.872 101.34 168.102C102.884 168.333 104.324 169.015 105.48 170.062C106.635 171.109 107.453 172.475 107.831 173.986C108.334 176.012 108.011 178.154 106.934 179.943C105.856 181.733 104.111 183.022 102.082 183.53ZM98.5964 169.576C97.3466 169.888 96.2174 170.562 95.3516 171.514C94.4858 172.466 93.9223 173.653 93.7323 174.924C93.5423 176.195 93.7343 177.494 94.284 178.657C94.8337 179.819 95.7165 180.793 96.8208 181.455C97.9251 182.117 99.2014 182.438 100.488 182.377C101.775 182.315 103.015 181.875 104.051 181.111C105.087 180.347 105.873 179.293 106.309 178.084C106.745 176.874 106.813 175.563 106.502 174.316C106.082 172.642 105.013 171.204 103.531 170.315C102.049 169.426 100.275 169.161 98.5964 169.576Z" fill="#575756"/>
<path d="M120.941 179.188C119.427 179.564 117.834 179.485 116.365 178.958C114.896 178.432 113.616 177.483 112.687 176.231C111.759 174.979 111.223 173.48 111.149 171.925C111.074 170.369 111.463 168.826 112.268 167.491C113.072 166.157 114.255 165.09 115.667 164.426C117.079 163.761 118.656 163.53 120.2 163.761C121.744 163.991 123.185 164.673 124.34 165.721C125.495 166.768 126.313 168.134 126.69 169.645C127.194 171.671 126.871 173.813 125.793 175.602C124.716 177.391 122.971 178.681 120.941 179.188ZM117.456 165.234C116.206 165.546 115.077 166.22 114.211 167.172C113.345 168.124 112.782 169.31 112.592 170.582C112.402 171.853 112.594 173.152 113.143 174.314C113.693 175.477 114.575 176.451 115.68 177.113C116.784 177.775 118.06 178.096 119.347 178.035C120.634 177.974 121.874 177.533 122.91 176.77C123.946 176.006 124.732 174.953 125.168 173.743C125.605 172.534 125.672 171.223 125.362 169.975C124.941 168.302 123.873 166.863 122.391 165.974C120.909 165.085 119.134 164.819 117.456 165.234Z" fill="#575756"/>
<path d="M112.124 173.622L107.333 174.814C107.161 174.846 106.984 174.811 106.837 174.717C106.691 174.623 106.585 174.477 106.543 174.308C106.501 174.139 106.524 173.96 106.61 173.808C106.695 173.656 106.835 173.542 107.001 173.49L111.792 172.299C111.967 172.258 112.151 172.288 112.304 172.381C112.457 172.475 112.568 172.625 112.611 172.798C112.655 172.972 112.628 173.156 112.537 173.31C112.446 173.465 112.297 173.577 112.124 173.623V173.622Z" fill="#575756"/>
<path d="M126.192 170.475C126.038 170.513 125.876 170.497 125.733 170.43C125.589 170.362 125.474 170.247 125.407 170.104C125.339 169.961 125.323 169.799 125.361 169.646C125.4 169.493 125.49 169.357 125.617 169.263L131.585 164.836C131.657 164.778 131.739 164.735 131.828 164.71C131.917 164.685 132.01 164.677 132.102 164.689C132.194 164.7 132.282 164.73 132.362 164.777C132.442 164.823 132.511 164.886 132.566 164.96C132.621 165.034 132.661 165.118 132.683 165.208C132.704 165.297 132.707 165.39 132.692 165.481C132.677 165.572 132.643 165.659 132.593 165.737C132.543 165.814 132.478 165.881 132.402 165.933L126.432 170.36C126.36 170.413 126.278 170.453 126.192 170.475Z" fill="#575756"/>
<path d="M93.3448 178.292C93.1895 178.331 93.0255 178.314 92.8814 178.244L86.0029 174.922C85.8465 174.839 85.7285 174.699 85.6735 174.531C85.6185 174.363 85.6309 174.18 85.708 174.021C85.7851 173.862 85.9209 173.739 86.087 173.677C86.2531 173.616 86.4366 173.621 86.599 173.692L93.4776 177.013C93.6042 177.075 93.7087 177.174 93.7771 177.296C93.8455 177.419 93.8743 177.56 93.8597 177.7C93.845 177.839 93.7876 177.971 93.6953 178.077C93.603 178.183 93.4802 178.258 93.3436 178.292H93.3448Z" fill="#575756"/>
<path d="M100.491 178.551C102.157 178.551 103.507 177.203 103.507 175.542C103.507 173.88 102.157 172.533 100.491 172.533C98.8258 172.533 97.4756 173.88 97.4756 175.542C97.4756 177.203 98.8258 178.551 100.491 178.551Z" fill="#411F14"/>
<path d="M118.416 174.361C120.082 174.361 121.432 173.014 121.432 171.352C121.432 169.691 120.082 168.344 118.416 168.344C116.751 168.344 115.4 169.691 115.4 171.352C115.4 173.014 116.751 174.361 118.416 174.361Z" fill="#411F14"/>
<path d="M178.876 134.869C178.876 134.869 148.859 139.791 157.601 164.976C166.343 190.161 174.375 187.601 174.375 187.601L170.897 170.17L179.915 148.308L178.876 134.869Z" fill="#455664"/>
<path d="M179.762 189.813L180.808 196.625L183.334 209.286C183.334 209.286 194.478 212.632 202.847 205.193L203.844 200.003L199.448 182.666L179.762 189.813Z" fill="#F4CA8E"/>
<path d="M179.7 190.292L180.277 193.182C180.277 193.182 187.276 198.462 192.357 197.297C197.437 196.132 201.057 189.173 201.057 189.173L200.213 184.959L179.7 190.292Z" fill="#D4AE76"/>
<path d="M171.522 186.927C170.05 185.814 167.079 178.761 167.079 178.761C167.079 178.761 164.823 178.428 162.842 173.986C160.86 169.543 163.418 169.034 163.418 169.034C163.418 169.034 159.999 158.948 159.736 149.011C159.473 139.074 197.266 138.448 200.876 140.071C204.485 141.693 206.228 160.221 206.228 160.221C206.228 160.221 208.818 155.963 209.444 163.015C210.069 170.068 207.119 170.961 207.119 170.961C207.091 173.984 206.857 177 206.419 179.991C205.695 184.972 195.668 194.295 191.005 195.221C186.342 196.147 177.625 190.857 177.625 190.857L171.522 186.927Z" fill="#F4CA8E"/>
<path d="M179.771 161.708L171.696 163.715C171.05 163.876 170.656 164.529 170.817 165.174L170.975 165.807C171.136 166.452 171.791 166.845 172.438 166.684L180.513 164.677C181.16 164.517 181.553 163.863 181.392 163.218L181.234 162.585C181.073 161.94 180.418 161.547 179.771 161.708Z" fill="#455664"/>
<path d="M197.794 158.834L189.498 159.486C188.834 159.538 188.337 160.117 188.39 160.78L188.441 161.431C188.493 162.094 189.074 162.589 189.739 162.537L198.035 161.885C198.699 161.833 199.195 161.253 199.143 160.591L199.092 159.94C199.04 159.277 198.459 158.782 197.794 158.834Z" fill="#455664"/>
<path d="M180.411 169.272C180.652 170.469 179.971 170.801 178.393 171.115C176.814 171.43 174.933 171.604 174.694 170.407C174.455 169.211 175.539 167.986 177.12 167.673C178.701 167.36 180.172 168.075 180.411 169.272Z" fill="#411F14"/>
<path d="M197.708 165.836C197.95 167.033 196.841 167.281 195.262 167.591C193.684 167.9 192.231 168.168 191.992 166.972C191.753 165.775 192.837 164.551 194.419 164.238C196.001 163.925 197.474 164.64 197.708 165.836Z" fill="#411F14"/>
<path d="M180.339 180.206L197.505 176.797C197.505 176.797 198.059 185.94 190.297 187.012C182.535 188.085 180.339 180.206 180.339 180.206Z" fill="white"/>
<path d="M178.89 134.856C188.98 133.354 193.711 134.109 195.926 135.104C197.275 135.706 199.344 136.469 200.179 137.686C205.078 144.822 202.548 141.448 203.891 143.995C205.53 147.101 207.632 161.607 207.672 166.074C207.675 166.363 207.575 166.645 207.39 166.868C207.206 167.091 206.948 167.242 206.663 167.295L204.88 167.625C204.88 167.625 204.931 168.636 203.448 160.468C201.965 152.301 198.786 151.766 197.344 149.668C196.5 148.445 196.39 147.38 196.442 146.698C196.46 146.418 196.383 146.14 196.223 145.909C196.064 145.678 195.831 145.507 195.562 145.425C193.213 144.687 197.551 147.231 192.739 151.099C187.188 155.554 172.964 156.457 169.533 156.116C166.102 155.775 165.509 157.937 165.818 159.48C166.126 161.023 166.011 163.381 165.192 165.878C164.608 167.662 166.037 171.578 166.906 173.668C166.975 173.837 167.006 174.018 166.997 174.199C166.988 174.381 166.938 174.558 166.852 174.718C166.766 174.879 166.646 175.018 166.499 175.126C166.353 175.234 166.184 175.309 166.006 175.344C165.757 175.393 165.499 175.364 165.267 175.262C165.035 175.16 164.84 174.99 164.709 174.774C162.233 170.733 158.795 158.976 158.768 155.418C158.767 155.283 158.745 155.15 158.701 155.023C158.07 153.201 153.846 138.583 178.89 134.856Z" fill="#455664"/>
<path d="M152.009 304.749C152.009 304.749 154.258 304.788 165.923 304.749C177.587 304.709 222.679 301.087 237.864 301.739C253.049 302.39 255.684 297.125 255.684 297.125C255.684 297.125 253.486 245.449 241.686 241.744C229.886 238.038 222.136 219.496 222.136 219.496L162.926 234.059C162.926 234.059 157.793 265.51 155.974 275.402C154.156 285.295 152.009 304.749 152.009 304.749Z" fill="#464476"/>
<path d="M174.981 208.412L182.511 205.18C182.511 205.18 189.935 208.912 195.286 206.65C200.636 204.388 203.842 200.014 203.842 200.014L207.993 199.238C207.993 199.238 227.647 227.403 232.815 242.181C237.982 256.958 232.273 302.065 232.273 302.065L165.954 304.772C165.954 304.772 177.794 273.141 172.06 256.204C166.327 239.267 162.924 234.062 162.924 234.062L174.981 208.412Z" fill="#CE88AB"/>
<path d="M164.339 212.376L174.981 208.414C174.981 208.414 173.461 241.815 165.991 251.052C158.521 260.288 152.009 304.748 152.009 304.748L144.952 296.649C131.315 289.572 131.392 285.693 147.18 272.742C156.713 264.916 155.089 245.633 155.197 243.167C155.423 238.037 164.339 212.376 164.339 212.376Z" fill="#565690"/>
<path d="M207.995 199.232C207.995 199.232 215.514 214.365 219.995 224.122C224.476 233.879 228.722 243.3 232.101 260.153C235.273 275.975 248.177 301.724 248.177 301.724C248.177 301.724 273.737 246.791 261.006 239.422C248.275 232.053 243.153 242.056 235.993 232.028C228.834 222.001 225.406 212.765 225.406 212.765C225.406 212.765 258.626 180.66 282.169 164.106C297.443 153.365 276.168 134.445 276.168 134.445L207.995 199.232Z" fill="#565690"/>
<path d="M94.5576 268.928C94.5576 268.928 100.896 292.471 124.896 273.603C148.428 255.106 157.087 250.18 160.566 247.345C163.653 244.828 165.031 218.691 165.302 212.841C165.306 212.74 165.282 212.64 165.231 212.553C165.18 212.466 165.105 212.396 165.015 212.351C164.925 212.305 164.824 212.287 164.723 212.298C164.623 212.309 164.528 212.348 164.45 212.412L94.5576 268.928Z" fill="#6061A3"/>
<path d="M276.168 134.449C276.168 134.449 265.216 142.801 273.676 153.472C282.137 164.142 287.017 158.468 287.017 158.468C287.017 158.468 292.988 151.042 276.168 134.449Z" fill="#464476"/>
<path d="M279.125 150.599C279.714 151.123 280.43 151.485 281.203 151.646C281.976 151.808 282.777 151.765 283.528 151.521C287.752 150.15 296.037 147.45 297.406 146.953C299.247 146.28 301.567 141.528 302.655 136.531C303.744 131.533 301.65 126.454 293.846 130.631C286.042 134.809 281.113 138.782 281.113 138.782C281.113 138.782 286.336 128.971 282.978 128.453C280.427 128.061 275.444 137.396 273.194 141.911C272.857 142.588 272.752 143.358 272.896 144.1C273.039 144.843 273.424 145.518 273.99 146.021L279.125 150.599Z" fill="#F5D5AF"/>
<path d="M277.996 148.485C278.585 149.01 277.227 148.838 277.999 149C277.999 138.782 274.749 143.244 275.5 143C279.724 141.629 275.631 143.997 277 143.5C275.5 141.911 275.911 150.498 277 145.5C279.125 138.782 278 144.1 277.999 141.911C277 141.911 281.113 138.782 281.113 138.782C281.113 138.782 286.336 128.971 282.978 128.453C280.427 128.061 275.444 137.396 273.194 141.911C272.857 142.588 272.752 143.358 272.896 144.1C273.039 144.843 273.424 145.518 273.99 146.021L277.996 148.485Z" fill="#F5D5AF"/>
<path d="M94.5576 268.93C94.5576 268.93 109.242 262.607 115.059 279.525C115.059 279.531 100.636 285.334 94.5576 268.93Z" fill="#464476"/>
<path d="M109.15 274.083C109.711 274.639 110.115 275.331 110.323 276.092C110.531 276.853 110.534 277.654 110.334 278.417C109.214 282.703 107.007 291.117 106.593 292.503C106.03 294.378 101.412 296.971 96.478 298.352C91.5435 299.733 86.3351 297.951 90.0568 289.936C93.7784 281.922 97.4542 276.77 97.4542 276.77C97.4542 276.77 87.9486 282.556 87.2305 279.242C86.6863 276.725 95.7298 271.207 100.114 268.698C100.771 268.321 101.534 268.171 102.286 268.27C103.037 268.369 103.735 268.711 104.272 269.244L109.15 274.083Z" fill="#F5D5AF"/>
<path d="M182.511 205.18C182.511 205.18 190.269 208.758 195.285 206.65C200.302 204.542 203.841 200.014 203.841 200.014L206.109 199.59C206.109 199.59 203.43 207.592 196.817 209.076C190.204 210.559 184.106 208.163 180.942 206.384L180.453 206.057L182.511 205.18Z" fill="#A56A8A"/>
<g opacity="0.82">
<path opacity="0.82" d="M91.6945 49.791L88.5547 55.1162C87.2987 55.325 86.1475 55.2206 84.8915 55.0118C84.4729 54.9074 84.0543 54.803 83.531 54.6985C81.0191 53.9676 78.9259 52.5058 77.2513 50.4175C75.8907 48.6424 75.3674 46.6585 74.3208 44.6746C74.1115 44.4658 74.0068 44.257 73.7975 43.9437C72.4369 42.1686 70.3437 41.4377 68.2505 41.2289C67.0992 41.2289 65.948 41.2289 64.9014 41.6466C65.7387 39.7671 66.9946 38.0964 67.9365 36.2169C70.553 36.0081 73.0649 36.5302 75.4721 37.6788C77.67 38.8273 79.3445 40.8112 80.4958 43.004C81.1238 44.257 81.4377 45.5099 82.1704 46.6585C82.7729 47.5729 83.5564 48.3546 84.4729 48.9557C86.6708 50.3131 89.2873 50.4175 91.6945 49.791Z" fill="#A7CBCA"/>
</g>
<g opacity="0.82">
<path opacity="0.82" d="M46.1672 128.625C44.1786 129.147 42.0854 129.46 40.0968 129.983C36.5384 126.954 34.7592 121.943 36.1197 117.348C36.7477 115.469 37.7943 113.903 38.213 112.023C38.4223 110.874 38.4223 109.83 38.1083 108.786C37.6897 107.429 36.957 106.385 36.1197 105.34C35.4918 104.505 34.6545 104.192 33.9219 103.461C35.9104 102.939 38.0036 102.626 39.9922 102.104C41.0388 103.043 41.8761 104.192 42.7134 105.445C43.76 107.22 44.1786 109.099 44.3879 111.083C44.4926 112.754 44.1786 114.32 43.5506 115.886C42.6087 117.975 41.4574 119.959 41.7714 122.36C42.0854 124.449 43.0273 126.224 44.7019 127.581C45.0404 127.791 45.3561 128.036 45.6439 128.312C45.8035 128.439 45.9795 128.545 46.1672 128.625Z" fill="#D96159"/>
</g>
<g opacity="0.82">
<path opacity="0.82" d="M85.8336 91.6622C85.3103 91.9755 84.6823 91.9755 84.0543 92.1843C82.5891 92.602 81.1238 92.602 79.7632 93.2285C78.5073 91.6622 77.4607 89.7828 77.2514 87.6944C77.1467 86.8591 77.2514 86.1282 77.356 85.2929C77.67 83.9355 78.0887 82.7869 78.1933 81.4295C78.298 79.7588 77.1467 78.297 75.7861 77.3573C76.1517 77.1724 76.5382 77.0322 76.9374 76.9396C77.67 76.8352 78.4026 76.5219 79.1353 76.4175C79.6586 76.4175 80.1819 76.4175 80.6005 76.2087C80.9661 76.0238 81.3526 75.8836 81.7518 75.791C84.473 78.4014 84.6823 82.6825 83.6357 86.2326C83.1124 87.6944 83.4264 89.1563 84.3683 90.4093C84.787 90.9313 85.3103 91.2446 85.8336 91.6622Z" fill="#C294BC"/>
</g>
<g opacity="0.82">
<path opacity="0.82" d="M124.349 113.152C122.884 112.421 121.628 111.377 120.163 110.437C119.744 110.229 119.43 110.02 119.011 109.811C118.907 107.931 119.535 106.156 120.477 104.486C121.523 102.815 122.884 101.562 124.558 100.727C126.338 99.9959 128.117 99.1605 129.059 97.3855C129.687 96.0281 129.896 94.4618 129.477 93C130.629 93.7309 131.675 94.3574 132.827 95.1927C133.455 95.6104 134.082 96.0281 134.815 96.3413C134.71 98.012 134.396 99.6826 133.664 101.144C132.617 103.024 131.152 104.486 129.268 105.425C127.489 106.156 125.71 106.992 124.768 108.767C124.14 110.124 123.93 111.69 124.349 113.152Z" fill="#7AB193"/>
</g>
<g opacity="0.82">
<path opacity="0.82" d="M159.897 60.8271L155.187 64.8993C151.943 63.9595 149.431 61.3491 148.384 58.2167C147.652 56.2328 147.861 53.8312 146.291 52.265C146.186 52.1605 146.186 51.9517 146.082 51.8473C145.349 51.4296 144.93 50.8031 144.093 50.5943C143.361 50.4899 142.733 50.0722 142 50.0722L146.71 46C148.908 46.6265 150.791 48.0883 152.152 49.9678C153.722 52.0561 153.827 54.3533 154.455 56.7548C155.187 59.1564 157.49 60.6182 159.897 60.8271Z" fill="#F4C984"/>
</g>
<g opacity="0.82">
<path opacity="0.82" d="M239.558 55.4374C238.198 53.8712 237.361 51.8873 236 50.3211C237.061 48.0297 238.819 46.13 241.024 44.8914C243.222 43.6385 245.733 43.7429 248.141 43.534C251.071 43.2208 253.478 40.8192 254.002 38C254.212 38.3377 254.458 38.6527 254.734 38.9397C255.781 40.4016 256.513 41.8634 257.56 43.1164C256.932 44.3694 256.199 45.5179 255.153 46.5621L254.211 47.5018C253.164 48.3372 252.118 48.8592 250.862 49.2769C250.443 49.3813 250.129 49.4857 249.711 49.5902C248.245 49.9034 246.885 49.799 245.419 49.9034C242.489 50.1122 240.082 52.6182 239.558 55.4374Z" fill="#CE88AB"/>
</g>
<g opacity="0.82">
<path opacity="0.82" d="M195.233 105.152C193.454 104.108 191.779 102.855 190 101.811C189.991 99.4694 190.765 97.1916 192.198 95.3372C193.768 93.5621 195.756 92.6224 197.85 91.5782C200.152 90.3252 200.989 87.506 200.466 85C202.245 85.9397 203.815 87.2972 205.699 88.2369C205.804 90.3252 205.071 92.3091 203.92 94.1886C202.559 96.2769 200.466 97.2167 198.268 98.3652C197.64 98.6785 196.908 98.9917 196.489 99.6182C196.384 99.9315 196.175 100.14 195.966 100.349C194.919 101.811 195.024 103.482 195.233 105.152Z" fill="#7AB193"/>
</g>
<g opacity="0.82">
<path opacity="0.82" d="M281.234 98.3441C279.246 97.6132 277.362 96.7778 275.373 96.0469C274.431 92.4968 274.955 88.7378 277.152 85.6053C278.199 84.0391 279.56 82.9949 281.13 82.0552C283.118 81.011 285.002 79.5492 285.735 77.4609C286.467 75.1637 286.153 72.8666 285.211 70.6738C287.2 71.3003 288.979 72.3445 290.968 72.8666C291.805 75.5814 291.491 78.6094 290.444 81.2198C290.235 81.6375 290.13 81.9508 289.921 82.3684C289.413 83.2874 288.779 84.1309 288.037 84.8744C287.878 85.0017 287.702 85.107 287.514 85.1876L286.677 86.023C285.944 86.6495 285.107 86.8583 284.374 87.4848C284.165 87.5892 283.955 87.5892 283.851 87.6936C283.641 87.9025 283.432 88.0069 283.118 88.2157C279.769 90.5129 279.56 95.0028 281.234 98.3441Z" fill="#D96159"/>
</g>
<g opacity="0.82">
<path opacity="0.82" d="M326 163.98L326.314 164.293C327.047 166.068 327.989 167.739 328.826 169.514C329.663 167.426 331.442 165.546 333.745 165.337C335.315 165.233 336.78 165.546 338.35 165.337C339.606 165.233 340.757 165.128 341.908 164.606C343.792 163.667 345.467 162.309 346.618 160.534C345.572 158.759 344.839 156.775 343.792 155C343.688 155.313 343.478 155.626 343.269 155.94C343.164 156.149 343.164 156.253 343.06 156.462C342.013 157.819 340.652 159.072 338.873 159.177C336.989 159.281 335.105 158.863 333.117 159.177C331.662 159.441 330.277 160.005 329.052 160.832C327.827 161.659 326.788 162.731 326 163.98Z" fill="#F4C984"/>
</g>
</svg>
