<svg width="111" height="156" viewBox="0 0 111 156" fill="none" xmlns="http://www.w3.org/2000/svg">
<g clip-path="url(#clip0_7858_164250)">
<path d="M50.1115 58.8731C41.5693 57.1648 35.9703 50.6809 30.5422 44.3679C24.2365 37.0455 17.7211 29.4823 6.46875 29.1406C2.19892 37.1543 -0.0200059 46.1005 0.0100673 55.1805C0.0401405 64.2605 2.31828 73.1918 6.64109 81.1771C10.9639 89.1623 17.1969 95.9529 24.7835 100.943C32.3702 105.933 41.0745 108.966 50.1193 109.773L50.1115 58.8731Z" fill="#F8B990"/>
<path d="M32.7634 42.6294C38.9215 49.7888 44.7457 56.5444 54.5071 56.6065H54.9575C64.8509 56.5677 70.745 49.781 76.9808 42.5906C83.4961 35.0895 90.2522 27.371 102.009 26.4315C97.0954 18.3585 90.1842 11.6877 81.9422 7.0622C73.7002 2.4367 64.4054 0.0125495 54.9541 0.0234743C45.5027 0.034399 36.2135 2.48003 27.9823 7.12457C19.751 11.7691 12.8553 18.4559 7.95996 26.5402C19.6084 27.4564 26.3101 35.1594 32.7556 42.6527" fill="#F8B990"/>
<path d="M103.493 29.0352C92.1162 29.4001 85.531 36.9866 79.1632 44.3246C73.8515 50.4357 68.3923 56.7099 60.2539 58.6822V109.745C69.2723 108.878 77.9369 105.798 85.4782 100.777C93.0195 95.7562 99.2039 88.9507 103.482 80.965C107.76 72.9793 110 64.0608 110.002 55.0015C110.004 45.9422 107.768 37.0226 103.493 29.0352Z" fill="#F8B990"/>
<path d="M57.3961 59.1758C56.9146 59.2301 56.4098 59.2612 55.9051 59.2767V59.3311H53.521V59.2767H52.9619V109.967C53.6453 109.967 54.3209 110.021 55.0043 110.021C55.7808 110.021 56.604 110.021 57.3961 109.959V59.1758Z" fill="#F8B990"/>
</g>
<g clip-path="url(#clip1_7858_164250)">
<path d="M1.90838 121H0V155.455H1.90838V121Z" fill="#1D1D1B"/>
<path d="M19.7825 154.277C21.2137 154.314 22.6327 154.002 23.9182 153.368C25.2036 152.733 26.3175 151.795 27.1647 150.634C28.7018 148.695 29.5332 146.286 29.5207 143.806C29.5607 141.187 28.6217 138.649 26.8898 136.694C26.0109 135.677 24.9285 134.857 23.7133 134.29C22.4982 133.723 21.1777 133.42 19.8382 133.401C18.4987 133.382 17.1703 133.648 15.9401 134.182C14.7098 134.715 13.6052 135.504 12.6987 136.496C10.8853 138.477 9.89586 141.082 9.9343 143.775C9.90115 146.339 10.7752 148.832 12.4003 150.808C13.2747 151.927 14.3966 152.826 15.6768 153.432C16.957 154.038 18.3601 154.336 19.7746 154.301L19.7825 154.277ZM19.7746 131.739C21.3889 131.699 22.9921 132.018 24.4702 132.672C25.9484 133.326 27.2651 134.3 28.327 135.524C30.3935 137.785 31.5181 140.758 31.4683 143.83C31.4891 146.753 30.4853 149.59 28.6332 151.843C27.5834 153.183 26.2357 154.257 24.6985 154.977C23.1613 155.698 21.4775 156.045 19.7825 155.992C18.1158 156.047 16.4585 155.72 14.936 155.035C13.4134 154.351 12.0656 153.327 10.9945 152.041C9.07334 149.821 7.99881 146.987 7.96285 144.044C7.92688 141.101 8.93182 138.241 10.7982 135.975C11.8586 134.605 13.2244 133.506 14.7851 132.766C16.3459 132.026 18.0578 131.666 19.7825 131.715" fill="#1D1D1B"/>
<path d="M47.6937 154.276C49.125 154.313 50.5439 154.001 51.8294 153.367C53.1148 152.732 54.2287 151.795 55.0759 150.633C56.613 148.695 57.4445 146.285 57.4319 143.805C57.469 141.186 56.5273 138.647 54.7931 136.693C53.9156 135.675 52.8341 134.855 51.6196 134.287C50.405 133.719 49.0848 133.415 47.7455 133.397C46.4063 133.378 45.0782 133.644 43.8485 134.179C42.6187 134.713 41.5151 135.502 40.6099 136.496C38.7965 138.476 37.8071 141.081 37.8455 143.774C37.8188 146.316 38.6836 148.787 40.2879 150.752C41.1623 151.871 42.2842 152.77 43.5644 153.376C44.8446 153.982 46.2478 154.28 47.6623 154.245L47.6937 154.276ZM47.6623 131.683C49.2766 131.643 50.8798 131.962 52.3579 132.616C53.836 133.27 55.1528 134.244 56.2146 135.468C58.2812 137.729 59.4058 140.702 59.356 143.774C59.3768 146.697 58.3729 149.534 56.5209 151.787C55.4743 153.13 54.1289 154.208 52.593 154.932C51.0571 155.657 49.3736 156.009 47.678 155.959C46.0113 156.014 44.354 155.687 42.8315 155.003C41.309 154.318 39.9611 153.294 38.89 152.008C36.9688 149.789 35.8943 146.955 35.8584 144.012C35.8224 141.069 36.8273 138.209 38.6937 135.942C39.7573 134.579 41.1246 133.486 42.6851 132.751C44.2457 132.017 45.956 131.662 47.678 131.715" fill="#1D1D1B"/>
<path d="M66.1565 155.501H64.256V141C64.2458 138.964 64.8601 136.975 66.0151 135.303C66.8021 134.132 67.8768 133.187 69.1347 132.558C70.3925 131.929 71.7907 131.639 73.1932 131.715C75.6701 131.63 78.0841 132.51 79.9314 134.173C80.889 135.064 81.6427 136.153 82.1403 137.366C82.638 138.579 82.8677 139.887 82.8136 141.198V155.501H80.913V141.498C80.9381 139.646 80.371 137.834 79.2952 136.33C78.6489 135.392 77.7769 134.634 76.7606 134.127C75.7444 133.62 74.617 133.38 73.4837 133.43C72.5109 133.419 71.5468 133.616 70.6548 134.007C69.7628 134.397 68.9632 134.974 68.3083 135.698C67.6118 136.411 67.0629 137.255 66.6935 138.183C66.3241 139.111 66.1416 140.104 66.1565 141.103V155.501Z" fill="#1D1D1B"/>
<path d="M99.3303 154.276C100.76 154.312 102.178 154 103.462 153.366C104.746 152.731 105.859 151.794 106.705 150.633C108.255 148.7 109.101 146.29 109.1 143.805C109.137 141.186 108.195 138.647 106.461 136.693C105.582 135.676 104.5 134.857 103.285 134.289C102.07 133.722 100.749 133.419 99.4095 133.4C98.07 133.381 96.7417 133.647 95.5114 134.181C94.2811 134.714 93.1766 135.503 92.2701 136.495C90.4601 138.478 89.4712 141.082 89.5057 143.774C89.4789 146.316 90.3437 148.787 91.9481 150.751C92.8237 151.871 93.947 152.77 95.2285 153.377C96.5101 153.983 97.9146 154.28 99.3303 154.244V154.276ZM99.3303 131.683C100.943 131.644 102.545 131.963 104.022 132.618C105.498 133.272 106.814 134.245 107.875 135.468C109.941 137.729 111.066 140.702 111.016 143.774C111.037 146.697 110.033 149.534 108.181 151.787C107.135 153.129 105.791 154.206 104.257 154.93C102.722 155.655 101.04 156.007 99.346 155.959C97.678 156.016 96.0191 155.689 94.4952 155.004C92.9712 154.32 91.6221 153.295 90.5502 152.008C88.629 149.789 87.5545 146.954 87.5185 144.011C87.4825 141.068 88.4875 138.208 90.3538 135.942C91.4183 134.577 92.7868 133.484 94.3488 132.749C95.9109 132.015 97.6227 131.66 99.346 131.714" fill="#1D1D1B"/>
</g>
<defs>
<clipPath id="clip0_7858_164250">
<rect width="110" height="110" fill="white"/>
</clipPath>
<clipPath id="clip1_7858_164250">
<rect width="111" height="35" fill="white" transform="translate(0 121)"/>
</clipPath>
</defs>
</svg>
